<svg width="14" height="14" viewBox="0 0 14 14" fill="none" xmlns="http://www.w3.org/2000/svg">
<path d="M5.30859 9.95703L7.24219 7.98828H0V6.51172H7.27734L5.30859 4.54297L6.36328 3.48828L10.125 7.25L6.36328 11.0117L5.30859 9.95703ZM11.9883 0.5C12.3867 0.5 12.7383 0.652344 13.043 0.957031C13.3477 1.26172 13.5 1.61328 13.5 2.01172V12.4883C13.5 12.8867 13.3477 13.2383 13.043 13.543C12.7383 13.8477 12.3867 14 11.9883 14H1.51172C1.11328 14 0.761719 13.8477 0.457031 13.543C0.152344 13.2383 0 12.8867 0 12.4883V9.5H1.51172V12.4883H11.9883V2.01172H1.51172V5H0V2.01172C0 1.61328 0.152344 1.26172 0.457031 0.957031C0.761719 0.652344 1.11328 0.5 1.51172 0.5H11.9883Z" fill="#2CB2B3"/>
</svg>
