<svg width="14" height="14" viewBox="0 0 14 14" fill="none" xmlns="http://www.w3.org/2000/svg">
<path d="M3.69141 5.80859L6.01172 8.12891L12.4453 1.69531L13.5 2.75L6.01172 10.2383L2.63672 6.86328L3.69141 5.80859ZM11.9883 12.4883V6.51172H13.5V12.4883C13.5 12.8867 13.3477 13.2383 13.043 13.543C12.7383 13.8477 12.3867 14 11.9883 14H1.51172C1.11328 14 0.761719 13.8477 0.457031 13.543C0.152344 13.2383 0 12.8867 0 12.4883V2.01172C0 1.61328 0.152344 1.26172 0.457031 0.957031C0.761719 0.652344 1.11328 0.5 1.51172 0.5H9V2.01172H1.51172V12.4883H11.9883Z" fill="#2CB2B3"/>
</svg>
