<svg width="31" height="29" viewBox="0 0 31 29" fill="none" xmlns="http://www.w3.org/2000/svg">
<path d="M24.6439 9.49887C24.8713 9.91679 25.0447 10.3347 25.2068 10.7572C27.6453 17.1252 24.9299 24.4422 18.9879 27.5384C16.9029 28.6236 14.6896 29.1039 12.3614 28.9815C6.4555 28.6675 1.47271 24.2829 0.277114 18.3697C-1.08735 11.63 2.71109 4.88335 9.1304 2.88152C13.8813 1.4015 18.1706 2.43359 21.9127 5.8023C22.0703 5.94314 22.0726 6.01933 21.9172 6.16711C21.557 6.50652 21.2147 6.8644 20.8747 7.22459C20.7667 7.34004 20.7036 7.36543 20.573 7.24075C18.8348 5.60142 16.7926 4.58088 14.4464 4.31535C10.4521 3.86281 7.10396 5.21352 4.50336 8.35134C2.56699 10.688 1.75191 13.4448 1.96131 16.4995C2.28554 21.2236 5.57287 25.3242 10.0288 26.601C14.6333 27.9217 19.535 26.1277 22.2077 22.0663C24.3917 18.7484 24.743 15.1742 23.3898 11.4245C23.3582 11.3345 23.3155 11.2606 23.392 11.1613C23.8063 10.6164 24.2161 10.0669 24.6439 9.49887Z" fill="#2CB2B3" fill-opacity="0.1"/>
<path d="M31 0.0253877C30.5047 0.614162 30.007 1.20063 29.514 1.7894C26.3279 5.5945 23.2545 9.49195 20.3815 13.5533C18.9877 15.5251 17.6728 17.5478 16.3736 19.5819C15.8985 20.3254 15.3424 20.988 14.5566 21.3967C13.3452 22.0294 11.8614 21.8146 10.8662 20.868C10.6118 20.6255 10.4407 20.3115 10.238 20.0275C8.77448 17.9749 7.31319 15.92 5.8519 13.865C5.64926 13.581 5.65602 13.2486 5.87442 12.9692C6.53864 12.1126 7.47306 11.8424 8.54482 12.2026C9.21354 12.4266 9.75392 12.8306 10.1637 13.4263C11.0599 14.7355 11.965 16.0377 12.8656 17.3423C13.0458 17.6032 13.093 17.6078 13.2934 17.3538C14.3022 16.0862 15.2546 14.7701 16.2723 13.5095C19.1521 9.93757 22.4011 6.75357 25.9226 3.85357C27.5033 2.55134 29.1312 1.31145 30.7951 0.124671C30.8559 0.0808017 30.9212 0.0392412 30.982 -0.00231934C30.9865 0.00922525 30.9932 0.0184609 31 0.0253877Z" fill="#2CB2B3"/>
</svg>
