<svg width="38" height="38" viewBox="0 0 38 38" fill="none" xmlns="http://www.w3.org/2000/svg">
<g clip-path="url(#clip0_104_19073)">
<path d="M8.68159 7.01136C8.989 7.01136 9.23823 6.76214 9.23823 6.45472C9.23823 6.14731 8.989 5.89808 8.68159 5.89808C8.37418 5.89808 8.12495 6.14731 8.12495 6.45472C8.12495 6.76214 8.3741 7.01136 8.68159 7.01136ZM4.22846 7.01136C4.53588 7.01136 4.78511 6.76214 4.78511 6.45472C4.78511 6.14731 4.53588 5.89808 4.22846 5.89808C3.92105 5.89808 3.67182 6.14731 3.67182 6.45472C3.67182 6.76214 3.92098 7.01136 4.22846 7.01136ZM6.45503 7.01136C6.76244 7.01136 7.01167 6.76214 7.01167 6.45472C7.01167 6.14731 6.76244 5.89808 6.45503 5.89808C6.14761 5.89808 5.89839 6.14731 5.89839 6.45472C5.89839 6.76214 6.14754 7.01136 6.45503 7.01136ZM6.33294 12.9083C6.33635 12.9083 6.33977 12.9083 6.34318 12.9083L11.3759 12.9096H11.3762C11.7239 12.9096 12.0191 12.6843 12.1109 12.349C12.2027 12.0136 12.0633 11.6693 11.764 11.4922L10.9986 11.0394C12.2289 9.82002 12.9208 8.15634 12.9098 6.41324C12.8878 2.92733 10.0347 0.0506846 6.5498 0.000512682C2.93869 -0.0513662 0 2.86966 0 6.45487C0 9.89291 2.83278 12.8338 6.33294 12.9083ZM2.70527 2.65042C3.73172 1.63867 5.08844 1.09353 6.53385 1.11365C9.41747 1.15513 11.7783 3.53563 11.7966 6.42021C11.8064 7.9765 11.139 9.4565 9.9655 10.4806C9.76927 10.6517 9.66647 10.9086 9.69022 11.1677C9.71397 11.4266 9.86189 11.6603 10.0857 11.7926L10.0912 11.7959L6.34867 11.795C3.45548 11.7395 1.11328 9.35601 1.11328 6.45487C1.11328 5.01347 1.67868 3.66239 2.70527 2.65042ZM37.4434 36.8866H36.8867V28.5971C36.8867 26.4253 35.6034 24.4531 33.6111 23.57L30.6775 22.3127C31.3913 22.0874 32.0362 21.6857 32.561 21.1286C33.3526 20.2881 33.8066 19.1475 33.8066 17.9995C33.8066 16.9445 33.4381 15.9488 32.7406 15.1197C31.8683 14.0838 31.3879 12.7673 31.3879 11.4125V8.74511C31.3879 6.40886 30.478 4.21287 28.826 2.56173C27.1741 0.909618 24.9779 -0.000155287 22.6419 -0.000155287C17.8198 -0.000155287 13.8967 3.9229 13.8967 8.74504V11.3256C13.897 12.7275 13.3461 14.0656 12.4509 15.1442C11.3241 16.5016 11.0901 18.337 11.84 19.934C12.3967 21.1194 13.4007 21.971 14.6027 22.3315L11.6896 23.5983C9.64584 24.4583 8.32519 26.4467 8.32519 28.6639V35.2167C8.32519 35.5241 8.57434 35.7734 8.88183 35.7734C9.18932 35.7734 9.43847 35.5241 9.43847 35.2167V28.6639C9.43847 26.8959 10.4916 25.3102 12.1275 24.6218L15.7789 23.034V26.3846H14.1013C13.6286 26.3846 13.1761 26.5862 12.8598 26.9377C12.5436 27.2892 12.3909 27.7604 12.4408 28.2305L13.3583 36.8866H0.556641C0.249152 36.8866 0 37.1358 0 37.4432C0 37.7506 0.249152 37.9998 0.556641 37.9998H37.4434C37.7508 37.9998 38 37.7506 38 37.4432C38 37.1358 37.7508 36.8866 37.4434 36.8866ZM31.8889 15.8365C32.4152 16.4622 32.6934 17.2101 32.6934 17.9994C32.6934 18.8668 32.3497 19.729 31.7506 20.3652C31.1161 21.0388 30.2446 21.4097 29.2964 21.4097H28.571L27.6181 21.0013C26.7858 20.6443 26.2164 19.879 26.1 18.9981C27.8175 18.0734 28.9877 16.2584 28.9877 14.1749V9.99021C29.1506 10.0013 29.3134 10.0073 29.4757 10.0073C29.7434 10.0073 30.0101 9.99206 30.2746 9.96208V11.4125C30.2746 13.0292 30.848 14.6005 31.8889 15.8365ZM22.7772 24.6241C20.7859 24.6593 18.8095 24.407 16.8922 23.8752V22.5499L17.0532 22.4799C17.0544 22.4794 17.0557 22.4788 17.057 22.4783L18.0501 22.0465C19.1555 21.5659 19.9366 20.5816 20.1735 19.4314C20.6582 19.5723 21.1698 19.6493 21.6994 19.6493H23.5132C24.0449 19.6493 24.5584 19.5717 25.0447 19.4297C25.2894 20.5747 26.0735 21.5501 27.1794 22.0246L28.2393 22.4788C28.2399 22.4791 28.2406 22.4794 28.2413 22.4796L28.3198 22.5132V23.7658C26.5183 24.3026 24.6558 24.5913 22.7772 24.6241ZM28.3196 24.9248V26.3847H16.8922V25.028C18.6967 25.5011 20.5495 25.7405 22.4149 25.7405C22.5421 25.7405 22.6694 25.7394 22.7967 25.7372C24.6662 25.7045 26.5205 25.4313 28.3196 24.9248ZM30.2746 8.83959C28.7413 9.04674 27.013 8.63601 25.8222 7.7134C25.5793 7.52518 25.2296 7.56942 25.0413 7.81248C24.853 8.05547 24.8973 8.40512 25.1403 8.59341C25.9188 9.19651 26.8578 9.62134 27.8744 9.83554V12.866C27.6069 13.4756 27.3092 13.9826 26.6379 14.5364C26.3552 14.7696 26.0459 14.9632 25.7146 15.1169C25.444 14.589 24.8946 14.2266 24.2618 14.2266H22.9573C22.0576 14.2266 21.3256 14.9586 21.3256 15.8583C21.3256 16.758 22.0576 17.49 22.9573 17.49H24.2618C25.019 17.49 25.6573 16.9715 25.8405 16.271C26.5852 15.9873 27.7993 14.9751 27.7996 14.9747C27.4226 16.9985 25.6447 18.5358 23.5133 18.5358H21.6993C19.2946 18.5358 17.3382 16.5794 17.3382 14.1747V9.8719C19.2288 9.57555 21.0149 8.93578 22.6529 7.96693C25.1469 6.49168 26.7467 4.56393 27.7122 3.04088C29.3641 4.51212 30.3037 6.62134 30.2746 8.83959ZM24.7801 15.8599C24.7793 16.1451 24.5471 16.3769 24.2617 16.3769H22.9573C22.6714 16.3769 22.4389 16.1443 22.4389 15.8585C22.4389 15.5726 22.6715 15.34 22.9573 15.34H24.2617C24.547 15.34 24.7791 15.5717 24.7801 15.8568V15.8599ZM15.01 8.74504C15.01 4.53676 18.4336 1.11313 22.6419 1.11313C24.1512 1.11313 25.5934 1.54879 26.8258 2.35985C25.9373 3.78404 24.4419 5.61546 22.0861 7.00899C20.47 7.96493 18.6973 8.57523 16.817 8.82297H16.7823C16.782 8.82297 16.7818 8.82297 16.7815 8.82297C16.7812 8.82297 16.7811 8.82297 16.7808 8.82297H15.0099V8.74504H15.01ZM12.8476 19.4607C12.2832 18.2585 12.4594 16.877 13.3068 15.856C14.3702 14.5749 15.0112 12.992 15.01 11.3256V9.93625H16.225V14.1749C16.225 16.2596 17.3967 18.0755 19.1157 18.9997C19.0082 19.8873 18.4405 20.6626 17.6061 21.0254L16.7223 21.4097H15.9155C14.5877 21.4097 13.4122 20.6629 12.8476 19.4607ZM32.2252 28.1132L31.2952 36.8866H14.4779L13.5478 28.1132C13.531 27.9542 13.5805 27.8011 13.6875 27.6823C13.7944 27.5634 13.9415 27.498 14.1013 27.498H31.6717C31.8315 27.498 31.9786 27.5634 32.0855 27.6823C32.1925 27.8011 32.242 27.9542 32.2252 28.1132ZM35.7734 36.8866H32.4147L33.3322 28.2307C33.3821 27.7605 33.2293 27.2893 32.9132 26.9378C32.597 26.5863 32.1445 26.3847 31.6717 26.3847H29.4329V22.9904L33.1662 24.5905C34.75 25.2926 35.7734 26.8653 35.7734 28.5971V36.8866ZM22.8865 30.077C21.7201 30.077 20.7712 31.0259 20.7712 32.1922C20.7712 33.3586 21.7201 34.3075 22.8865 34.3075C24.0528 34.3075 25.0017 33.3586 25.0017 32.1922C25.0017 31.0259 24.0528 30.077 22.8865 30.077ZM22.8865 33.1942C22.334 33.1942 21.8845 32.7447 21.8845 32.1922C21.8845 31.6397 22.334 31.1903 22.8865 31.1903C23.4389 31.1903 23.8884 31.6397 23.8884 32.1922C23.8884 32.7447 23.439 33.1942 22.8865 33.1942Z" fill="#F76031"/>
</g>
<defs>
<clipPath id="clip0_104_19073">
<rect width="38" height="38" fill="white"/>
</clipPath>
</defs>
</svg>
