<svg width="38" height="38" viewBox="0 0 38 38" fill="none" xmlns="http://www.w3.org/2000/svg">
<g clip-path="url(#clip0_104_19107)">
<path d="M28.7718 34.4388C28.5662 34.0844 28.1122 33.9638 27.7575 34.1693L27.7289 34.1858C27.3744 34.3915 27.2538 34.8456 27.4594 35.2002C27.5971 35.4374 27.8461 35.57 28.102 35.57C28.2283 35.57 28.3566 35.5376 28.4738 35.4696L28.5023 35.4531C28.8568 35.2474 28.9774 34.7933 28.7718 34.4388Z" fill="#FF9E00"/>
<path d="M35.4538 9.50594C32.9169 5.11182 28.8207 1.96873 23.9197 0.655499C19.0189 -0.657727 13.8999 0.0162531 9.50576 2.55312C5.11171 5.09 1.96855 9.18628 0.655398 14.0872C-0.657755 18.9881 0.0161513 24.1071 2.55302 28.5012C4.82864 32.4427 8.44547 35.4383 12.7372 36.9358C14.7717 37.6457 16.8954 37.9999 19.0159 37.9999C21.3215 37.9999 23.623 37.5809 25.7984 36.7448C26.181 36.5978 26.3719 36.1684 26.2248 35.7858C26.0777 35.4032 25.6483 35.2121 25.2658 35.3594C19.4753 37.585 13.2066 36.5738 8.52318 33.0584L9.1881 29.5875L9.50851 29.4835C10.7192 29.0901 11.3842 27.785 10.991 26.5742L10.7559 25.8507C10.7015 25.6832 10.7018 25.5062 10.7566 25.3389C10.9629 24.7102 10.8892 24.0222 10.5544 23.4513C10.2196 22.8805 9.65516 22.4803 9.00567 22.3533L7.33056 22.026L4.09848 19.5686C3.90484 19.4213 3.65139 19.3784 3.41997 19.4535L1.52769 20.0682C1.48754 19.3914 1.48694 18.7148 1.52509 18.0418C1.59976 18.1113 1.64837 18.1586 1.67828 18.1896C1.71532 18.2513 1.76118 18.3078 1.81492 18.3568C1.96944 18.4975 2.10942 18.5614 2.40332 18.5614C2.67341 18.5613 3.07322 18.5075 3.7334 18.41C4.35951 18.3174 4.98235 18.2131 4.98851 18.2121C5.23811 18.1703 5.44911 18.0041 5.54842 17.7714C5.64772 17.5386 5.62152 17.2714 5.47895 17.0622L4.56895 15.7275L5.87238 14.7954C5.95922 14.7333 6.03166 14.6532 6.08472 14.5606L8.10518 11.0334L8.91958 10.1607C9.7518 9.26873 9.9893 7.96375 9.52454 6.83592C9.25037 6.17069 8.77151 5.61687 8.17257 5.24363C8.82124 4.73367 9.51289 4.26283 10.2479 3.83852C12.9449 2.28141 15.8881 1.52683 18.8004 1.49796L17.4751 3.16038L12.5608 4.88322C12.3612 4.95314 12.2009 5.10499 12.1203 5.30048L10.7478 8.62756C10.6504 8.86394 10.6813 9.13365 10.8298 9.34176L12.8343 12.1496C12.5472 12.4115 12.2678 12.793 11.9341 13.2667C11.7877 13.4744 11.6495 13.6706 11.554 13.7806C11.4709 13.8763 11.3878 13.9698 11.3054 14.0624C10.8743 14.5475 10.4285 15.0491 10.1118 15.7192C9.41551 17.1931 9.55616 18.9062 10.4788 20.19C11.371 21.4313 12.8419 22.0623 14.4118 21.8777C14.6675 21.8477 14.906 21.7887 15.1367 21.7315C15.773 21.5741 15.9746 21.5584 16.1787 21.7494C16.278 21.8424 16.2871 21.86 16.2851 22.1754C16.2837 22.3761 16.2822 22.6257 16.3513 22.9108C16.4621 23.3669 16.7485 23.6821 16.9786 23.9353C17.093 24.0611 17.2113 24.1913 17.2477 24.2787C17.4792 24.8334 17.3784 25.1406 17.1576 25.8137C17.1386 25.8713 17.1193 25.9301 17.1 25.9904C16.7644 27.0291 17.2322 28.0594 17.6448 28.9682C17.7789 29.2634 17.9054 29.542 17.9883 29.7883C18.6556 31.7684 19.1558 32.2218 19.5573 32.4044C19.7675 32.5 19.9852 32.542 20.205 32.5419C21.2749 32.5418 22.3913 31.5485 22.9041 30.9187C23.2262 30.5233 23.3055 30.1273 23.3634 29.8381C23.3923 29.6943 23.415 29.5807 23.4584 29.5065C23.5247 29.3929 23.6029 29.3049 23.7018 29.1934C23.9008 28.9694 24.1485 28.6906 24.3088 28.1852C24.4307 27.8014 24.5193 27.7073 24.8125 27.395C24.8636 27.3407 24.918 27.2827 24.9764 27.2191C25.9649 26.1435 25.7103 25.3218 25.4407 24.4518C25.2138 23.7198 25.6106 23.2516 26.5701 22.3581C26.9861 21.9708 27.4161 21.5703 27.7485 21.089C27.894 20.8784 28.3365 20.2377 28.0627 19.6026C27.7942 18.9799 27.1119 18.8752 26.5638 18.7912C26.3473 18.758 26.0201 18.7078 25.916 18.6397C25.4568 18.3395 25.1759 17.713 24.9041 17.107C24.85 16.9864 24.7967 16.8673 24.7426 16.7518C24.6461 16.5456 24.5497 16.2961 24.4476 16.0321C24.1776 15.3332 23.8716 14.5411 23.3507 13.9889C22.8824 13.4927 21.9997 13.2538 21.221 13.0428C20.959 12.972 20.7118 12.905 20.5488 12.8448C20.4121 12.7943 20.2638 12.7852 20.1224 12.8185C19.7433 12.9073 19.5069 13.0052 19.3313 13.1459C19.2849 13.1831 19.1475 13.3052 19.0671 13.5014C18.7954 13.371 18.4217 13.122 18.1918 12.9688C18.1871 12.9656 18.1822 12.9624 18.1775 12.9592C18.255 12.6491 18.1848 12.4002 18.1114 12.2448C17.6968 11.3679 16.3205 11.4365 16.049 11.4596C15.8948 11.4725 15.6997 11.4794 15.4933 11.4867C15.1691 11.4982 14.8108 11.5111 14.4562 11.5509L14.4745 11.5C14.7436 10.7501 15.4597 10.2463 16.2563 10.2463H16.6783C17.088 10.2463 17.4204 9.91399 17.4204 9.50423C17.4204 9.09447 17.088 8.76212 16.6783 8.76212H16.2563C15.0736 8.76212 13.9905 9.38459 13.3835 10.3644L12.2765 8.8137L13.3656 6.17381L18.1678 4.49023C18.2994 4.44407 18.4155 4.36169 18.5026 4.25251L20.6373 1.57477C26.0919 2.09364 31.2264 5.15189 34.1686 10.2479C34.9523 11.6053 35.532 13.0343 35.9174 14.4959L35.6028 14.7764C35.1921 15.1429 34.9515 15.6684 34.9423 16.2184C34.9422 16.2244 34.9421 16.2304 34.9419 16.2363L34.4293 14.8268C34.3529 14.6164 34.2404 14.4235 34.0951 14.2535L33.1808 13.183C32.8263 12.7681 32.3102 12.5302 31.7646 12.5302H30.6455C30.2482 12.5302 29.8851 12.7478 29.6977 13.0979C29.5103 13.4481 29.5308 13.871 29.7512 14.2014L29.8644 14.3714C29.1412 14.9933 28.3048 15.4909 27.4142 15.8266L25.8801 12.888V12.2324C25.8801 12.0297 25.7971 11.8356 25.6503 11.6957L24.2689 10.3769C24.1927 10.3042 24.1018 10.2485 24.0025 10.2135L22.7589 9.77654C22.372 9.64042 21.9485 9.844 21.8127 10.2306C21.6768 10.6174 21.8801 11.0409 22.2668 11.1768L23.3596 11.5609L24.3958 12.55V13.0701C24.3958 13.1897 24.4248 13.3076 24.4801 13.4136L26.4007 17.0924C26.5734 17.4234 26.9654 17.5747 27.3153 17.4453L27.8745 17.2391C29.1737 16.7599 30.3779 15.9892 31.357 15.0102C31.6071 14.76 31.646 14.3682 31.4497 14.0738L31.4102 14.0145H31.7646C31.8754 14.0145 31.9803 14.0628 32.0523 14.1471L32.9666 15.2176C32.9961 15.2521 33.0189 15.2911 33.0344 15.334L34.0434 18.1085C34.1301 18.3469 34.3326 18.5244 34.58 18.5793C34.6335 18.5911 34.6873 18.5969 34.7408 18.5969C34.9355 18.5969 35.125 18.5203 35.2655 18.3795L35.7458 17.8993C36.0499 17.595 36.2593 17.2101 36.3594 16.7835C37.1021 22.7362 34.768 28.894 29.8344 32.7662C29.5119 33.0193 29.4557 33.4857 29.7088 33.8082C29.9619 34.1307 30.4282 34.1869 30.7508 33.9338C34.3127 31.1382 36.7597 27.1396 37.6411 22.6747C38.5306 18.1667 37.7539 13.4899 35.4538 9.50594ZM3.50918 20.9851L6.56944 23.312C6.65992 23.3808 6.76486 23.4278 6.87634 23.4496L8.72082 23.81C8.95625 23.856 9.15263 23.9952 9.27398 24.2021C9.39532 24.409 9.42085 24.6483 9.34619 24.8763C9.19256 25.3448 9.19182 25.8404 9.34419 26.3092L9.57931 27.0327C9.71981 27.4651 9.48216 27.9313 9.04984 28.0718L8.31232 28.3114C8.05501 28.395 7.86367 28.612 7.81283 28.8776L7.21923 31.9761C5.91424 30.7817 4.76845 29.3701 3.83842 27.7591C2.70376 25.7941 1.99482 23.698 1.68236 21.5787L3.50918 20.9851ZM7.83443 9.14805L6.96139 10.0834C6.92243 10.1252 6.88836 10.1714 6.85994 10.221L4.87741 13.6822L3.11538 14.9422C2.78718 15.1768 2.70658 15.6305 2.93384 15.9639L3.59283 16.9306C3.21298 16.9871 2.87209 17.0337 2.64542 17.0584C2.60186 17.0167 2.55629 16.9743 2.50916 16.9305C2.33274 16.7666 2.0876 16.5477 1.72214 16.2279C2.32487 12.4975 4.12245 8.98307 6.94959 6.30043C7.49094 6.47091 7.93522 6.87473 8.15223 7.40146C8.39641 7.99388 8.27158 8.67951 7.83443 9.14805ZM13.8855 13.2036C14.2165 13.0173 14.9848 12.9901 15.5458 12.9702C15.7706 12.9622 15.983 12.9547 16.1727 12.9388C16.2728 12.9304 16.384 12.9319 16.4889 12.9401C16.442 13.0603 16.4268 13.1923 16.4471 13.3232C16.4828 13.5535 16.6248 13.7536 16.8303 13.8635C16.9695 13.938 17.1633 14.0672 17.3684 14.204C17.9484 14.5907 18.6059 15.0289 19.2236 15.0683C19.7853 15.1047 20.0978 14.7846 20.2317 14.6483C20.2424 14.6374 20.2525 14.6266 20.2632 14.6167C20.3386 14.5553 20.4092 14.4729 20.4618 14.3735C20.5805 14.4074 20.7051 14.4412 20.833 14.4758C21.2724 14.5948 22.0904 14.8163 22.2711 15.0078C22.5921 15.3481 22.8423 15.9958 23.0631 16.5672C23.1746 16.856 23.28 17.1285 23.3982 17.3812C23.449 17.4896 23.499 17.6013 23.5497 17.7145C23.8922 18.4783 24.2803 19.3442 25.1038 19.8824C25.4772 20.1265 25.9349 20.1966 26.3388 20.2586C26.3876 20.2661 26.4436 20.2747 26.5004 20.2841C26.2607 20.6185 25.9194 20.9363 25.5588 21.2721C24.64 22.1277 23.4966 23.1926 24.0232 24.8914C24.2717 25.6936 24.2833 25.7803 23.8836 26.215C23.8292 26.2743 23.7784 26.3284 23.7308 26.379C23.3885 26.7434 23.1181 27.0312 22.8943 27.7363C22.8293 27.9411 22.7451 28.0359 22.5921 28.2081C22.4698 28.3458 22.3174 28.5174 22.1769 28.7579C22.0086 29.046 21.9529 29.3235 21.9083 29.5463C21.8643 29.7656 21.8394 29.8757 21.7533 29.9814C21.5573 30.222 21.1917 30.5714 20.8163 30.8099C20.4675 31.0314 20.2638 31.0617 20.1944 31.0575C20.1153 30.9726 19.8284 30.6008 19.395 29.3144C19.2881 28.997 19.1398 28.6705 18.9964 28.3547C18.6803 27.6585 18.3535 26.9386 18.5125 26.4466C18.5313 26.3885 18.5498 26.3318 18.5681 26.2764C18.8221 25.5023 19.0618 24.7713 18.6177 23.707C18.4824 23.3829 18.2671 23.1461 18.0774 22.9371C17.9545 22.8019 17.8154 22.6487 17.7939 22.5606C17.7678 22.453 17.7686 22.3289 17.7696 22.1851C17.7721 21.7973 17.776 21.2113 17.1934 20.6658C16.3721 19.8971 15.4144 20.1339 14.7806 20.2907C14.5859 20.3388 14.402 20.3843 14.239 20.4035C13.1964 20.5256 12.2655 20.1323 11.6844 19.3236C11.0765 18.4777 10.9882 17.3394 11.4542 16.3531C11.6797 15.8758 12.0204 15.4923 12.415 15.0484C12.5012 14.9514 12.5881 14.8536 12.6751 14.7534C12.8199 14.5866 12.9791 14.3607 13.1475 14.1215C13.3486 13.8361 13.7229 13.3047 13.8855 13.2036Z" fill="#FF9E00"/>
<path d="M30.4314 25.5519L30.0744 24.206C29.9964 23.9121 29.747 23.6955 29.4451 23.6595C29.1429 23.6241 28.8498 23.7752 28.7047 24.0425C28.6234 24.1924 28.5501 24.3512 28.4793 24.5048C28.3602 24.7632 28.237 25.0304 28.1088 25.1778C28.0368 25.2607 27.8519 25.3499 27.6732 25.4362C27.2459 25.6424 26.6607 25.9248 26.4371 26.6374C26.2983 27.0795 26.3501 27.4292 26.388 27.6845C26.4207 27.9059 26.4283 27.9826 26.369 28.1219L26.3616 28.1392C26.1253 28.6935 25.6858 29.7255 26.3021 30.6028C26.7419 31.229 27.2042 31.3899 27.5635 31.3899C27.6337 31.3902 27.7 31.384 27.7614 31.374C28.5184 31.2503 29.0875 30.4628 29.5526 28.8956L30.4256 25.9535C30.4644 25.8226 30.4665 25.6837 30.4314 25.5519ZM28.1298 28.4734C27.8927 29.2724 27.683 29.6454 27.5619 29.8108C27.548 29.793 27.5328 29.7728 27.5166 29.7497C27.3748 29.5477 27.5868 29.0501 27.727 28.7208L27.7345 28.7034C27.9608 28.1725 27.9003 27.7647 27.8563 27.467C27.828 27.2763 27.8179 27.1943 27.8533 27.0818C27.8824 26.9892 28.0563 26.8994 28.3183 26.7729C28.4344 26.7168 28.5623 26.6551 28.6914 26.5805L28.1298 28.4734Z" fill="#FF9E00"/>
<path d="M20.0412 8.82164L19.9911 8.80413C19.6047 8.66875 19.1809 8.87204 19.0452 9.25879C18.9095 9.64562 19.1131 10.069 19.4999 10.2047L19.5499 10.2222C19.6312 10.2507 19.714 10.2642 19.7956 10.2642C20.1019 10.2642 20.3887 10.073 20.4959 9.76756C20.6316 9.38073 20.428 8.95724 20.0412 8.82164Z" fill="#FF9E00"/>
</g>
<defs>
<clipPath id="clip0_104_19107">
<rect width="38" height="38" fill="white"/>
</clipPath>
</defs>
</svg>
