<svg width="46" height="46" viewBox="0 0 46 46" fill="none" xmlns="http://www.w3.org/2000/svg">
<g clip-path="url(#clip0_15_986)">
<path d="M26.9736 38.7067C26.9024 38.7067 26.8327 38.6869 26.7721 38.6494C26.7115 38.612 26.6626 38.5585 26.6308 38.4948C26.5989 38.4311 26.5855 38.3598 26.5919 38.2889C26.5982 38.218 26.6243 38.1503 26.667 38.0934L27.6767 36.7601L25.5147 38.0083C25.4322 38.0548 25.3354 38.0692 25.2429 38.0486C25.1505 38.0281 25.0689 37.974 25.014 37.8969C24.959 37.8197 24.9346 37.725 24.9453 37.6309C24.9561 37.5368 25.0013 37.45 25.0723 37.3873L25.8528 36.7103L25.5147 36.905C25.4314 36.9533 25.333 36.9684 25.239 36.9474C25.145 36.9264 25.0624 36.8709 25.0076 36.7918C24.9527 36.7127 24.9296 36.6158 24.9429 36.5205C24.9562 36.4251 25.0048 36.3382 25.0792 36.2771L25.4081 36.0073C25.3366 36.0228 25.2622 36.0178 25.1934 35.9928C25.1246 35.9679 25.0643 35.924 25.0194 35.8662C24.9628 35.7924 24.9349 35.7006 24.9409 35.6078C24.947 35.5149 24.9866 35.4275 25.0524 35.3617L26.7889 33.6268L25.5147 34.362C25.4331 34.4075 25.3377 34.4216 25.2464 34.4017C25.1551 34.3818 25.0742 34.3292 25.019 34.2539C24.9637 34.1786 24.9379 34.0857 24.9463 33.9927C24.9547 33.8996 24.9968 33.8129 25.0646 33.7487L26.2476 32.6692L25.5147 33.0924C25.4342 33.1366 25.3406 33.1505 25.2508 33.1315C25.1611 33.1125 25.0811 33.062 25.0254 32.989C24.9697 32.9161 24.942 32.8256 24.9474 32.734C24.9528 32.6424 24.9908 32.5557 25.0547 32.4898L26.7904 30.7541L25.517 31.4893C25.4353 31.5367 25.339 31.5523 25.2466 31.5331C25.1541 31.514 25.072 31.4613 25.0159 31.3853C24.9599 31.3093 24.9339 31.2153 24.9429 31.1213C24.9518 31.0273 24.9952 30.94 25.0646 30.876L26.3534 29.683L25.517 30.166C25.4358 30.2123 25.3404 30.2274 25.2489 30.2083C25.1573 30.1893 25.0759 30.1374 25.02 30.0625C24.964 29.9876 24.9373 29.8948 24.945 29.8016C24.9527 29.7085 24.9941 29.6213 25.0616 29.5565L26.5359 28.1505L25.517 28.7377C25.4341 28.7844 25.3368 28.7985 25.244 28.7774C25.1513 28.7563 25.0697 28.7015 25.0151 28.6236C24.9605 28.5457 24.9369 28.4503 24.9487 28.3559C24.9606 28.2615 25.0071 28.1749 25.0792 28.1129L25.5331 27.7296L25.517 27.7388C25.4369 27.785 25.3428 27.8007 25.252 27.783C25.1612 27.7653 25.0799 27.7154 25.0231 27.6425C24.9662 27.5695 24.9376 27.4785 24.9426 27.3862C24.9475 27.2938 24.9857 27.2064 25.0501 27.14L26.9299 25.2003L25.5147 26.0168C25.4343 26.0632 25.3398 26.0788 25.2487 26.0608C25.1577 26.0427 25.0762 25.9923 25.0196 25.9187C24.9629 25.8452 24.9349 25.7536 24.9406 25.661C24.9464 25.5684 24.9855 25.4809 25.0508 25.415L26.8395 23.6049L25.5147 24.3716C25.433 24.4204 25.3361 24.4372 25.2427 24.4185C25.1494 24.3999 25.0663 24.3472 25.0097 24.2706C24.9531 24.1941 24.9269 24.0993 24.9364 24.0046C24.9458 23.9099 24.9902 23.822 25.0608 23.7582L26.1717 22.7179L25.5147 23.0966C25.4385 23.1403 25.3497 23.1565 25.2631 23.1425C25.1764 23.1286 25.0972 23.0854 25.0386 23.02C24.98 22.9547 24.9456 22.8712 24.9411 22.7836C24.9366 22.6959 24.9624 22.6094 25.014 22.5385L25.5231 21.8416C25.4409 21.8369 25.3623 21.8059 25.299 21.7531C25.2358 21.7004 25.1912 21.6286 25.172 21.5485C25.1527 21.4684 25.1597 21.3842 25.192 21.3085C25.2244 21.2327 25.2802 21.1693 25.3514 21.1278L26.6233 20.3941C26.6993 20.3508 26.7879 20.3348 26.8743 20.3487C26.9607 20.3627 27.0397 20.4059 27.0982 20.471C27.1567 20.5361 27.1912 20.6193 27.1958 20.7067C27.2005 20.7941 27.1751 20.8805 27.1239 20.9515L26.7053 21.5242L28.6672 20.3933C28.7489 20.3452 28.8455 20.329 28.9384 20.348C29.0312 20.3669 29.1138 20.4196 29.1702 20.4958C29.2265 20.572 29.2526 20.6665 29.2434 20.7608C29.2341 20.8552 29.1903 20.9427 29.1203 21.0067L28.0102 22.047L28.9202 21.5219C29.0005 21.4782 29.0938 21.4647 29.1832 21.4838C29.2726 21.5028 29.3523 21.5532 29.4078 21.6259C29.4633 21.6985 29.491 21.7886 29.486 21.8799C29.4809 21.9712 29.4434 22.0576 29.3802 22.1237L27.6 23.9292L28.9256 23.1625C29.0056 23.1169 29.0993 23.1016 29.1897 23.1194C29.2801 23.1372 29.361 23.187 29.4177 23.2596C29.4744 23.3322 29.503 23.4228 29.4984 23.5147C29.4937 23.6067 29.4562 23.694 29.3925 23.7605L27.5126 25.7002L28.9279 24.8837C29.0108 24.8371 29.1081 24.8229 29.2008 24.844C29.2936 24.8651 29.3751 24.92 29.4297 24.9979C29.4843 25.0758 29.508 25.1712 29.4961 25.2655C29.4843 25.3599 29.4378 25.4465 29.3656 25.5085L28.9056 25.8919L28.9256 25.8811C29.0068 25.8342 29.1024 25.8186 29.1943 25.8375C29.2863 25.8563 29.3681 25.9082 29.4243 25.9833C29.4805 26.0584 29.5072 26.1516 29.4994 26.2451C29.4916 26.3386 29.4497 26.4259 29.3817 26.4906L27.9067 27.8982L28.9256 27.3094C29.0072 27.262 29.1035 27.2464 29.196 27.2656C29.2884 27.2848 29.3705 27.3374 29.4266 27.4134C29.4826 27.4894 29.5087 27.5834 29.4997 27.6774C29.4907 27.7714 29.4473 27.8588 29.3779 27.9228L28.0884 29.1172L28.9279 28.6327C29.0083 28.5885 29.1019 28.5746 29.1917 28.5936C29.2815 28.6126 29.3615 28.6631 29.4172 28.7361C29.4729 28.809 29.5005 28.8995 29.4951 28.9911C29.4898 29.0827 29.4517 29.1694 29.3879 29.2353L27.656 30.9733L28.9309 30.2381C29.0125 30.1926 29.1079 30.1785 29.1992 30.1984C29.2905 30.2183 29.3714 30.2708 29.4266 30.3462C29.4819 30.4215 29.5077 30.5144 29.4993 30.6074C29.4909 30.7005 29.4488 30.7872 29.381 30.8514L28.1988 31.9301L28.9332 31.5062C29.0137 31.462 29.1073 31.4481 29.1971 31.4671C29.2869 31.486 29.3669 31.5366 29.4225 31.6095C29.4782 31.6825 29.5059 31.773 29.5005 31.8646C29.4951 31.9562 29.4571 32.0428 29.3932 32.1088L27.656 33.8445L28.9317 33.1077C29.0148 33.0584 29.1134 33.0423 29.2078 33.0625C29.3023 33.0828 29.3856 33.138 29.4411 33.217C29.4967 33.2961 29.5203 33.3932 29.5073 33.4889C29.4943 33.5847 29.4456 33.6719 29.371 33.7333L29.0429 34.004C29.1261 33.9852 29.2132 33.9948 29.2904 34.0312C29.3676 34.0675 29.4305 34.1286 29.469 34.2048C29.5076 34.2809 29.5196 34.3677 29.5033 34.4515C29.4869 34.5352 29.443 34.6111 29.3787 34.6671L28.5967 35.3433L28.9355 35.1478C29.0121 35.1037 29.1015 35.0874 29.1887 35.1017C29.2759 35.116 29.3555 35.1599 29.414 35.2261C29.4726 35.2923 29.5064 35.3766 29.5099 35.4649C29.5134 35.5532 29.4862 35.64 29.4331 35.7106L28.4234 37.0415L28.9378 36.7456C29.0047 36.7068 29.0816 36.6891 29.1587 36.6949C29.2357 36.7006 29.3092 36.7295 29.3695 36.7777C29.4299 36.826 29.4742 36.8913 29.4968 36.9652C29.5194 37.0391 29.5191 37.118 29.496 37.1918L29.3196 37.7553C29.3793 37.7894 29.429 37.8386 29.4638 37.8979C29.4889 37.9415 29.5052 37.9897 29.5117 38.0396C29.5182 38.0895 29.5148 38.1403 29.5017 38.1889C29.4886 38.2375 29.4661 38.2831 29.4354 38.323C29.4046 38.3629 29.3664 38.3964 29.3227 38.4215L28.9355 38.6446C28.8687 38.6832 28.7917 38.7007 28.7147 38.6949C28.6377 38.689 28.5643 38.66 28.504 38.6117C28.4438 38.5634 28.3995 38.498 28.3771 38.4241C28.3546 38.3502 28.355 38.2713 28.3782 38.1976L28.4717 37.9002L27.163 38.6553C27.1055 38.6889 27.0402 38.7066 26.9736 38.7067Z" fill="#9EBBCE"/>
<path d="M30.1875 45.5937C30.1052 45.5935 30.0251 45.5669 29.9591 45.5177C29.8931 45.4685 29.8447 45.3993 29.821 45.3205C29.7974 45.2416 29.7997 45.1572 29.8278 45.0798C29.8558 45.0024 29.908 44.9361 29.9767 44.8906L31.3114 44.0067L29.1824 45.2333C29.097 45.2818 28.9962 45.2956 28.9008 45.2719C28.8055 45.2483 28.7229 45.1889 28.67 45.106C28.6172 45.0232 28.5982 44.9233 28.6169 44.8268C28.6357 44.7304 28.6907 44.6448 28.7707 44.5878L34.8274 40.3382L28.5813 43.9415C28.4949 43.9898 28.3932 44.0028 28.2974 43.9777C28.2016 43.9527 28.1192 43.8915 28.0675 43.8071C28.0158 43.7227 27.9987 43.6216 28.0199 43.5248C28.0411 43.4281 28.0989 43.3434 28.1811 43.2883L29.5113 42.4258L28.5813 42.9625C28.4958 43.0116 28.3946 43.0258 28.2988 43.0022C28.203 42.9786 28.12 42.9189 28.067 42.8357C28.0141 42.7524 27.9953 42.652 28.0146 42.5552C28.0338 42.4584 28.0896 42.3728 28.1704 42.3162L34.5337 37.8802L28.5813 41.3233C28.4961 41.3702 28.3962 41.3828 28.3019 41.3588C28.2076 41.3347 28.1261 41.2756 28.0737 41.1936C28.0214 41.1116 28.0021 41.0128 28.0199 40.9172C28.0378 40.8215 28.0913 40.7362 28.1696 40.6786L34.8833 35.9643L28.5813 39.5999C28.4957 39.6464 28.3955 39.6585 28.3013 39.6339C28.207 39.6092 28.1256 39.5495 28.0738 39.467C28.0219 39.3845 28.0034 39.2853 28.0221 39.1896C28.0408 39.094 28.0952 39.009 28.1742 38.952L33.3285 35.4461L28.5813 38.1869C28.4949 38.2387 28.3915 38.2543 28.2936 38.2304C28.1956 38.2066 28.1111 38.1451 28.0581 38.0593C28.0052 37.9735 27.9882 37.8703 28.0108 37.7721C28.0334 37.6739 28.0938 37.5885 28.1788 37.5345L31.0653 35.6339L28.5813 37.0676C28.4953 37.1158 28.394 37.129 28.2985 37.1045C28.203 37.0799 28.1206 37.0195 28.0685 36.9358C28.0164 36.8521 27.9985 36.7515 28.0186 36.655C28.0387 36.5584 28.0953 36.4734 28.1765 36.4174L32.4814 33.5286L28.5813 35.7803C28.4955 35.8286 28.3944 35.842 28.299 35.8177C28.2035 35.7935 28.1211 35.7334 28.0688 35.65C28.0164 35.5666 27.9982 35.4663 28.0178 35.3698C28.0374 35.2733 28.0935 35.188 28.1742 35.1317L33.4267 31.5537L28.5813 34.3505C28.495 34.3996 28.3929 34.4133 28.2967 34.3886C28.2005 34.3639 28.1176 34.3028 28.0655 34.2182C28.0134 34.1337 27.9962 34.0321 28.0175 33.9351C28.0387 33.8381 28.0969 33.7531 28.1796 33.6981L30.9618 31.8673L28.5852 33.2411C28.4995 33.2888 28.3988 33.3018 28.3038 33.2775C28.2088 33.2531 28.1267 33.1933 28.0745 33.1104C28.0222 33.0274 28.0038 32.9275 28.0229 32.8313C28.042 32.7352 28.0973 32.65 28.1773 32.5933L33.672 28.8328L28.5852 31.7691C28.4992 31.8161 28.3986 31.8283 28.3039 31.8034C28.2092 31.7784 28.1276 31.7182 28.0759 31.635C28.0242 31.5518 28.0063 31.452 28.0259 31.3561C28.0454 31.2601 28.101 31.1753 28.1811 31.119L31.8933 28.648L28.5813 30.5578C28.4951 30.6041 28.3945 30.6156 28.3 30.5901C28.2056 30.5646 28.1245 30.5039 28.0733 30.4205C28.0221 30.3371 28.0048 30.2373 28.0249 30.1415C28.0449 30.0457 28.1008 29.9612 28.1811 29.9054L29.6255 28.9647L28.5813 29.5673C28.4964 29.6145 28.3967 29.6277 28.3024 29.6043C28.2081 29.5808 28.1263 29.5224 28.0734 29.4409C28.0205 29.3594 28.0005 29.2608 28.0175 29.1652C28.0346 29.0695 28.0873 28.9839 28.165 28.9256L33.8644 24.8078L28.5813 27.8576C28.4952 27.9075 28.3931 27.922 28.2965 27.8979C28.2 27.8739 28.1165 27.8133 28.0639 27.7288C28.0112 27.6444 27.9934 27.5428 28.0143 27.4455C28.0352 27.3482 28.0931 27.2628 28.1758 27.2075L29.1073 26.5803L28.5813 26.8832C28.4962 26.9302 28.3965 26.9431 28.3022 26.9194C28.2079 26.8956 28.1262 26.8369 28.0736 26.7551C28.0209 26.6734 28.0014 26.5747 28.0188 26.479C28.0362 26.3834 28.0893 26.2979 28.1673 26.2399L29.7375 25.1244L28.5813 25.7914C28.4986 25.8392 28.4009 25.8544 28.3076 25.8339C28.2142 25.8135 28.1318 25.7589 28.0766 25.6808C28.0215 25.6028 27.9974 25.507 28.0092 25.4121C28.021 25.3173 28.0679 25.2302 28.1405 25.1681L30.5279 23.1219L28.5813 24.2458C28.4997 24.2947 28.4027 24.3115 28.3094 24.2928C28.216 24.2741 28.133 24.2214 28.0764 24.1449C28.0197 24.0684 27.9936 23.9736 28.0031 23.8788C28.0125 23.7841 28.0568 23.6963 28.1275 23.6325L29.1126 22.7071L28.5813 23.0138C28.5077 23.0561 28.422 23.0727 28.3379 23.0611C28.2538 23.0494 28.1759 23.0101 28.1165 22.9494C28.0571 22.8887 28.0195 22.81 28.0097 22.7256C27.9999 22.6412 28.0184 22.556 28.0623 22.4833L28.4771 21.7971L28.4004 21.84C28.3214 21.8858 28.2286 21.9018 28.1388 21.8852C28.0489 21.8686 27.968 21.8205 27.9105 21.7496L27.4505 21.183C27.3797 21.188 27.3089 21.1726 27.2465 21.1386C27.1842 21.1047 27.1328 21.0535 27.0986 20.9913C27.0735 20.9477 27.0572 20.8995 27.0507 20.8496C27.0441 20.7996 27.0475 20.7489 27.0606 20.7003C27.0737 20.6517 27.0963 20.6061 27.127 20.5662C27.1577 20.5263 27.196 20.4928 27.2397 20.4677L27.3784 20.391C27.4575 20.3456 27.5502 20.3298 27.6398 20.3465C27.7295 20.3632 27.8102 20.4114 27.8676 20.4823L28.3 21.0189L29.381 20.3956C29.4546 20.3532 29.5402 20.3365 29.6243 20.348C29.7085 20.3596 29.7864 20.3987 29.8459 20.4593C29.9054 20.52 29.9431 20.5986 29.953 20.683C29.9629 20.7673 29.9445 20.8526 29.9008 20.9254L29.4868 21.6116L31.5951 20.3933C31.6768 20.3437 31.7741 20.3263 31.8679 20.3447C31.9617 20.363 32.0453 20.4158 32.1022 20.4926C32.1592 20.5694 32.1853 20.6647 32.1756 20.7598C32.1659 20.8549 32.121 20.943 32.0497 21.0067L31.0653 21.9267L33.7249 20.3933C33.8076 20.3465 33.9047 20.332 33.9974 20.3526C34.0902 20.3733 34.1719 20.4277 34.2268 20.5053C34.2817 20.5828 34.3059 20.678 34.2946 20.7723C34.2833 20.8667 34.2374 20.9535 34.1657 21.0159L31.7791 23.0613L36.4006 20.3933C36.4859 20.3433 36.5872 20.3281 36.6835 20.351C36.7797 20.374 36.8633 20.4332 36.9169 20.5164C36.9704 20.5995 36.9898 20.7002 36.9708 20.7973C36.9519 20.8944 36.8962 20.9804 36.8153 21.0373L35.2429 22.1567L38.2935 20.3933C38.3794 20.3443 38.481 20.3305 38.5769 20.3547C38.6729 20.3788 38.7558 20.4392 38.8082 20.523C38.8607 20.6069 38.8787 20.7078 38.8585 20.8047C38.8383 20.9015 38.7814 20.9868 38.6998 21.0427L37.766 21.6721L39.9809 20.3933C40.066 20.3445 40.1665 20.3302 40.2619 20.3532C40.3572 20.3763 40.4401 20.435 40.4934 20.5174C40.5467 20.5997 40.5665 20.6993 40.5486 20.7957C40.5307 20.8922 40.4765 20.9781 40.3972 21.0358L34.7009 25.1467L41.7151 21.0964C41.8016 21.0461 41.9044 21.0316 42.0014 21.056C42.0985 21.0805 42.1821 21.1419 42.2345 21.2272C42.2869 21.3125 42.3038 21.4149 42.2817 21.5125C42.2595 21.6101 42.2001 21.6952 42.1161 21.7496L40.6763 22.6933L41.952 21.9573C42.038 21.9104 42.1386 21.8982 42.2333 21.9231C42.328 21.948 42.4096 22.0083 42.4613 22.0914C42.513 22.1746 42.5309 22.2744 42.5113 22.3704C42.4917 22.4663 42.4362 22.5512 42.356 22.6075L38.64 25.08L41.9574 23.1633C42.0433 23.1134 42.1451 23.0989 42.2416 23.1227C42.338 23.1464 42.4214 23.2067 42.4743 23.2908C42.5272 23.3749 42.5453 23.4762 42.525 23.5734C42.5046 23.6706 42.4474 23.7561 42.3652 23.8119L36.8728 27.5686L41.9581 24.633C42.0443 24.5861 42.1451 24.574 42.2399 24.5993C42.3347 24.6245 42.4162 24.6851 42.4677 24.7685C42.5191 24.852 42.5366 24.9521 42.5166 25.0481C42.4965 25.1441 42.4405 25.2288 42.3599 25.2847L39.573 27.1185L41.9589 25.7385C42.0447 25.6903 42.1458 25.6769 42.2413 25.7011C42.3367 25.7254 42.4191 25.7855 42.4715 25.8689C42.5238 25.9523 42.5421 26.0526 42.5224 26.1491C42.5028 26.2456 42.4468 26.3308 42.366 26.3871L37.1136 29.969L41.9566 27.173C42.0426 27.1247 42.1439 27.1115 42.2394 27.1361C42.3349 27.1606 42.4173 27.221 42.4695 27.3047C42.5216 27.3884 42.5394 27.489 42.5193 27.5856C42.4992 27.6821 42.4426 27.7672 42.3614 27.8231L38.0535 30.7142L41.9574 28.4602C42.0438 28.4084 42.1472 28.3928 42.2451 28.4167C42.3431 28.4405 42.4276 28.502 42.4806 28.5878C42.5335 28.6736 42.5505 28.7768 42.5279 28.875C42.5053 28.9732 42.4449 29.0586 42.3599 29.1126L39.4764 31.0109L41.9581 29.5788C42.044 29.5305 42.1451 29.5171 42.2405 29.5414C42.3359 29.5656 42.4184 29.6257 42.4707 29.7091C42.5231 29.7925 42.5413 29.8928 42.5217 29.9893C42.502 30.0858 42.446 30.1711 42.3652 30.2274L37.2102 33.7333L41.9589 30.9917C42.0444 30.9418 42.1459 30.9269 42.2422 30.9501C42.3384 30.9733 42.422 31.0329 42.4753 31.1163C42.5286 31.1998 42.5475 31.3006 42.5282 31.3977C42.5088 31.4948 42.4526 31.5807 42.3714 31.6373L35.6615 36.3523L41.9604 32.7152C42.0461 32.6644 42.1481 32.6488 42.245 32.6719C42.3419 32.695 42.426 32.7549 42.4795 32.8389C42.533 32.9228 42.5517 33.0244 42.5316 33.1219C42.5116 33.2195 42.4544 33.3054 42.3721 33.3615L36.0019 37.7967L41.962 34.3559C42.0487 34.3027 42.153 34.2862 42.2519 34.3099C42.3508 34.3336 42.4363 34.3956 42.4894 34.4824C42.5426 34.5691 42.5592 34.6734 42.5354 34.7723C42.5117 34.8712 42.4497 34.9567 42.3629 35.0098L41.0466 35.8631L41.9666 35.3341C42.052 35.2857 42.1528 35.2718 42.2482 35.2955C42.3435 35.3192 42.4261 35.3786 42.4789 35.4614C42.5317 35.5442 42.5508 35.6442 42.532 35.7406C42.5133 35.8371 42.4583 35.9226 42.3783 35.9797L36.3216 40.2293L41.9658 36.9702C42.0519 36.9227 42.1529 36.9101 42.2481 36.9349C42.3432 36.9598 42.4251 37.0203 42.4769 37.1039C42.5287 37.1875 42.5464 37.2878 42.5263 37.3841C42.5063 37.4803 42.45 37.5652 42.3691 37.6211L41.0351 38.5028L41.9666 37.9661C42.052 37.9176 42.1528 37.9038 42.2482 37.9275C42.3435 37.9512 42.4261 38.0106 42.4789 38.0934C42.5317 38.1762 42.5508 38.2762 42.532 38.3726C42.5133 38.469 42.4583 38.5546 42.3783 38.6116L40.5061 39.928L41.9681 39.0847C42.043 39.0415 42.1302 39.025 42.2157 39.0377C42.3012 39.0503 42.3799 39.0916 42.439 39.1546C42.4981 39.2176 42.5342 39.2988 42.5414 39.3849C42.5486 39.471 42.5265 39.557 42.4787 39.629L41.6706 40.8403L41.9666 40.6694C42.0102 40.6416 42.059 40.623 42.11 40.6146C42.161 40.6062 42.2132 40.6082 42.2634 40.6205C42.3136 40.6328 42.3608 40.6552 42.4022 40.6862C42.4436 40.7172 42.4782 40.7563 42.5041 40.801C42.53 40.8458 42.5465 40.8953 42.5528 40.9466C42.559 40.998 42.5548 41.05 42.5404 41.0997C42.526 41.1493 42.5017 41.1956 42.4689 41.2356C42.4362 41.2756 42.3957 41.3086 42.3499 41.3325L40.6333 42.32C40.5585 42.3631 40.4712 42.3797 40.3857 42.367C40.3002 42.3543 40.2215 42.3131 40.1624 42.2501C40.1033 42.1871 40.0672 42.1059 40.06 42.0198C40.0528 41.9337 40.0749 41.8476 40.1227 41.7757L40.9293 40.5659L33.4366 44.8914C33.3512 44.9399 33.2504 44.9537 33.1551 44.93C33.0597 44.9063 32.9771 44.8469 32.9243 44.7641C32.8715 44.6813 32.8524 44.5813 32.8712 44.4849C32.8899 44.3885 32.9449 44.3029 33.0249 44.2459L34.8964 42.9333L30.3792 45.54C30.3211 45.5745 30.255 45.593 30.1875 45.5937Z" fill="#BFDBF0"/>
<path d="M5.61353 45.5937C5.53098 45.5938 5.45061 45.5672 5.38436 45.518C5.31811 45.4687 5.26952 45.3994 5.24583 45.3203C5.22215 45.2413 5.22462 45.1566 5.25288 45.0791C5.28114 45.0015 5.33369 44.9352 5.4027 44.8899L13.4527 39.6213L3.2039 45.54C3.11768 45.5882 3.01617 45.6013 2.92054 45.5765C2.82491 45.5517 2.74255 45.4909 2.69063 45.4069C2.63872 45.3228 2.62126 45.222 2.6419 45.1254C2.66253 45.0287 2.71967 44.9438 2.8014 44.8883L13.294 37.9945L1.55633 44.7733C1.46999 44.8202 1.36894 44.8321 1.27405 44.8066C1.17917 44.7812 1.09769 44.7202 1.04643 44.6364C0.995178 44.5526 0.978062 44.4523 0.998618 44.3562C1.01917 44.2601 1.07583 44.1756 1.1569 44.1201L10.616 38.019L1.00203 43.5697C0.91512 43.6175 0.813032 43.6298 0.717235 43.604C0.621438 43.5781 0.539396 43.5161 0.488361 43.4311C0.437326 43.346 0.421273 43.2444 0.443579 43.1477C0.465884 43.051 0.52481 42.9668 0.607966 42.9126L1.74417 42.2096L0.981333 42.6497C0.894575 42.6967 0.793036 42.7084 0.697846 42.6824C0.602656 42.6564 0.521146 42.5948 0.47028 42.5102C0.419413 42.4257 0.403107 42.3248 0.424754 42.2285C0.446401 42.1322 0.504335 42.048 0.586499 41.9934L4.09707 39.79L0.981333 41.5917C0.895507 41.634 0.796968 41.6426 0.705079 41.616C0.613189 41.5893 0.534592 41.5292 0.484731 41.4476C0.43487 41.3659 0.41735 41.2686 0.435613 41.1746C0.453877 41.0807 0.506603 40.997 0.583433 40.94L6.21 37.3574L0.981333 40.3765C0.894478 40.4252 0.792098 40.4381 0.695854 40.4126C0.599611 40.3872 0.517055 40.3252 0.465657 40.24C0.414259 40.1547 0.39805 40.0528 0.42046 39.9558C0.442871 39.8588 0.502142 39.7743 0.585733 39.7202L2.28313 38.6561L0.979799 39.4074C0.893102 39.4551 0.791329 39.4674 0.695766 39.4418C0.600204 39.4161 0.518254 39.3545 0.467058 39.2699C0.415863 39.1852 0.399386 39.084 0.421076 38.9875C0.442765 38.891 0.50094 38.8066 0.583433 38.7519L2.59977 37.477L0.981333 38.41C0.895698 38.4583 0.794755 38.4719 0.699381 38.448C0.604007 38.424 0.521497 38.3643 0.468916 38.2812C0.416335 38.198 0.397705 38.0979 0.416879 38.0015C0.436053 37.905 0.491564 37.8196 0.571933 37.7629L7.9442 32.6654L0.981333 36.6881C0.895087 36.7393 0.792196 36.7547 0.694738 36.7309C0.597281 36.7071 0.513023 36.6461 0.460046 36.5609C0.40707 36.4757 0.389595 36.3732 0.411373 36.2753C0.433151 36.1773 0.492445 36.0919 0.576533 36.0372L3.78273 33.8997L0.981333 35.5166C0.895377 35.5635 0.79472 35.5758 0.700017 35.5508C0.605314 35.5259 0.523748 35.4657 0.472056 35.3825C0.420364 35.2993 0.402467 35.1995 0.422037 35.1035C0.441608 35.0076 0.497162 34.9228 0.577299 34.8665L1.93047 33.9633L0.981333 34.5115C0.895698 34.5598 0.794755 34.5734 0.699381 34.5495C0.604007 34.5255 0.521497 34.4658 0.468916 34.3827C0.416335 34.2995 0.397705 34.1994 0.416879 34.103C0.436053 34.0065 0.491564 33.9211 0.571933 33.8644L2.3046 32.6661L1.01967 33.4075C0.936289 33.4551 0.838076 33.4697 0.744453 33.4484C0.65083 33.4271 0.568616 33.3714 0.514072 33.2924C0.459528 33.2134 0.436625 33.1167 0.449895 33.0217C0.463165 32.9266 0.51164 32.8399 0.585733 32.7788L3.59107 30.3255L1.5433 31.51C1.46044 31.558 1.36262 31.5732 1.26908 31.5527C1.17554 31.5322 1.09307 31.4775 1.03788 31.3992C0.982698 31.3209 0.958802 31.2249 0.970896 31.1299C0.982991 31.0349 1.0302 30.9479 1.10323 30.8859L2.48323 29.7106C2.40955 29.6778 2.34811 29.6225 2.30767 29.5527C2.25684 29.4647 2.24306 29.36 2.26937 29.2618C2.29568 29.1636 2.35992 29.0799 2.44797 29.0291L5.06 27.5164C5.14275 27.4694 5.24003 27.4548 5.33292 27.4756C5.42582 27.4963 5.50768 27.5508 5.56257 27.6286C5.61747 27.7063 5.64147 27.8017 5.62992 27.8962C5.61837 27.9907 5.57208 28.0775 5.50007 28.1397L4.78553 28.7531L7.314 27.2933C7.39738 27.2457 7.49559 27.2311 7.58921 27.2524C7.68284 27.2737 7.76505 27.3294 7.81959 27.4084C7.87414 27.4875 7.89704 27.5841 7.88377 27.6792C7.8705 27.7743 7.82203 27.8609 7.74793 27.922L4.7426 30.3753L10.084 27.2933C10.1694 27.2467 10.2694 27.2343 10.3637 27.2586C10.458 27.283 10.5394 27.3424 10.5915 27.4246C10.6436 27.5069 10.6625 27.6059 10.6442 27.7015C10.626 27.7972 10.5721 27.8823 10.4934 27.9396L8.76147 29.1333L11.96 27.2933C12.046 27.2464 12.1466 27.2341 12.2413 27.2591C12.336 27.284 12.4176 27.3443 12.4693 27.4274C12.521 27.5106 12.5389 27.6104 12.5193 27.7064C12.4997 27.8023 12.4442 27.8872 12.364 27.9435L11.0109 28.8443L13.6957 27.2933C13.7817 27.2464 13.8823 27.2341 13.977 27.2591C14.0718 27.284 14.1533 27.3443 14.205 27.4274C14.2567 27.5106 14.2746 27.6104 14.255 27.7064C14.2355 27.8023 14.1799 27.8872 14.0998 27.9435L10.892 30.0825L15.722 27.2933C15.8075 27.2467 15.9075 27.2343 16.0018 27.2586C16.096 27.283 16.1775 27.3424 16.2296 27.4246C16.2817 27.5069 16.3005 27.6059 16.2823 27.7015C16.2641 27.7972 16.2101 27.8823 16.1314 27.9396L8.75763 33.038L18.7113 27.2933C18.798 27.2456 18.8997 27.2333 18.9953 27.259C19.0909 27.2846 19.1728 27.3462 19.224 27.4309C19.2752 27.5155 19.2917 27.6167 19.27 27.7133C19.2483 27.8098 19.1901 27.8942 19.1076 27.9488L17.0967 29.22L20.2124 27.4214C20.2993 27.3727 20.4016 27.3597 20.4979 27.3852C20.5941 27.4107 20.6767 27.4726 20.7281 27.5579C20.7795 27.6431 20.7957 27.7451 20.7733 27.8421C20.7509 27.9391 20.6916 28.0235 20.608 28.0776L18.9213 29.1333L21.3057 27.7533C21.3926 27.7006 21.4969 27.6845 21.5957 27.7086C21.6945 27.7328 21.7796 27.7952 21.8324 27.8821C21.8851 27.9691 21.9012 28.0734 21.8771 28.1722C21.8529 28.2709 21.7905 28.3561 21.7036 28.4088L16.0755 31.9884L22.3959 28.3391C22.4827 28.2904 22.5851 28.2774 22.6813 28.3029C22.7776 28.3284 22.8601 28.3903 22.9115 28.4756C22.9629 28.5608 22.9791 28.6628 22.9567 28.7598C22.9343 28.8568 22.8751 28.9412 22.7915 28.9953L19.274 31.2033L23.1602 28.9601C23.2471 28.9122 23.3492 28.8999 23.445 28.9257C23.5408 28.9516 23.6229 29.0136 23.6739 29.0987C23.7249 29.1838 23.741 29.2853 23.7187 29.382C23.6964 29.4787 23.6375 29.563 23.5543 29.6171L22.425 30.3155L23.7237 29.5665C23.8101 29.5196 23.9111 29.5077 24.006 29.5332C24.1009 29.5587 24.1824 29.6196 24.2336 29.7034C24.2849 29.7872 24.302 29.8875 24.2814 29.9836C24.2609 30.0797 24.2042 30.1642 24.1232 30.2197L14.6617 36.3224L24.4398 30.6743C24.5259 30.6274 24.6268 30.6154 24.7216 30.6406C24.8164 30.6658 24.8979 30.7264 24.9493 30.8099C25.0008 30.8934 25.0183 30.9934 24.9983 31.0894C24.9782 31.1854 24.9221 31.2701 24.8415 31.326L14.3474 38.2199L24.9412 32.1034C25.0276 32.0543 25.1296 32.0406 25.2259 32.0653C25.3221 32.09 25.405 32.1511 25.4571 32.2357C25.5092 32.3202 25.5264 32.4218 25.5051 32.5188C25.4838 32.6158 25.4257 32.7008 25.3429 32.7558L17.2922 38.0267L25.0853 33.5256C25.1713 33.4766 25.2729 33.4627 25.3688 33.4869C25.4647 33.5111 25.5476 33.5714 25.6001 33.6553C25.6526 33.7391 25.6706 33.8401 25.6504 33.9369C25.6302 34.0338 25.5733 34.119 25.4917 34.1749L17.5321 39.5715L25.0853 35.2115C25.1709 35.1624 25.2721 35.1481 25.3679 35.1717C25.4637 35.1954 25.5467 35.255 25.5996 35.3383C25.6526 35.4215 25.6714 35.522 25.6521 35.6187C25.6329 35.7155 25.577 35.8011 25.4963 35.8578L18.9888 40.3964L25.0853 36.8767C25.1704 36.8296 25.2702 36.8167 25.3645 36.8405C25.4588 36.8642 25.5405 36.9229 25.5931 37.0047C25.6457 37.0865 25.6653 37.1851 25.6479 37.2808C25.6305 37.3765 25.5774 37.4619 25.4993 37.5199L20.8227 40.8534L25.0892 38.3901C25.1746 38.3416 25.2754 38.3278 25.3708 38.3514C25.4661 38.3751 25.5487 38.4345 25.6015 38.5173C25.6544 38.6002 25.6734 38.7001 25.6546 38.7966C25.6359 38.893 25.5809 38.9786 25.5009 39.0356L23.3711 40.5291L25.0892 39.5378C25.1742 39.4889 25.2748 39.4746 25.3701 39.4977C25.4655 39.5207 25.5483 39.5795 25.6017 39.6618C25.655 39.7441 25.6748 39.8437 25.6569 39.9402C25.639 40.0366 25.5848 40.1225 25.5055 40.1802L24.1722 41.1439L25.0922 40.6157C25.1738 40.5702 25.2692 40.5561 25.3605 40.576C25.4518 40.5959 25.5327 40.6484 25.5879 40.7238C25.6432 40.7991 25.669 40.892 25.6606 40.985C25.6522 41.0781 25.6101 41.1648 25.5423 41.229L23.4792 43.1135L25.0892 42.1828C25.1699 42.1368 25.2646 42.1217 25.3556 42.1403C25.4466 42.1589 25.5277 42.2099 25.584 42.2839C25.6402 42.3578 25.6677 42.4496 25.6613 42.5423C25.6549 42.635 25.615 42.7222 25.5492 42.7877L24.9358 43.401H24.9427C24.9864 43.3733 25.0352 43.3546 25.0862 43.3462C25.1372 43.3379 25.1894 43.3399 25.2396 43.3522C25.2898 43.3645 25.337 43.3868 25.3784 43.4178C25.4197 43.4488 25.4544 43.4879 25.4803 43.5327C25.5061 43.5774 25.5227 43.627 25.5289 43.6783C25.5352 43.7296 25.5309 43.7816 25.5165 43.8313C25.5021 43.881 25.4778 43.9272 25.4451 43.9672C25.4124 44.0072 25.3719 44.0402 25.3261 44.0642L22.7524 45.54C22.6717 45.5853 22.5774 45.6 22.4869 45.5813C22.3963 45.5625 22.3155 45.5117 22.2595 45.4381C22.2034 45.3645 22.1759 45.2731 22.182 45.1808C22.188 45.0885 22.2272 45.0015 22.2924 44.9359L22.9057 44.3225L20.8027 45.54C20.7211 45.5855 20.6257 45.5996 20.5345 45.5797C20.4432 45.5598 20.3623 45.5072 20.307 45.4319C20.2518 45.3566 20.2259 45.2637 20.2343 45.1707C20.2427 45.0776 20.2848 44.9909 20.3527 44.9267L22.4166 43.0414L18.0857 45.54C18.0006 45.5888 17.9 45.6032 17.8047 45.5801C17.7094 45.557 17.6265 45.4983 17.5732 45.416C17.5198 45.3337 17.5001 45.234 17.518 45.1376C17.5359 45.0411 17.59 44.9552 17.6694 44.8975L19.0026 43.9338L16.2188 45.54C16.1336 45.5868 16.0337 45.5995 15.9394 45.5754C15.8451 45.5513 15.7636 45.4923 15.7112 45.4103C15.6588 45.3283 15.6396 45.2295 15.6574 45.1338C15.6753 45.0382 15.7288 44.9529 15.8071 44.8952L17.9331 43.4033L14.2316 45.54C14.1465 45.587 14.0468 45.6 13.9525 45.5762C13.8582 45.5524 13.7765 45.4937 13.7239 45.412C13.6712 45.3302 13.6517 45.2315 13.6691 45.1359C13.6865 45.0402 13.7396 44.9547 13.8176 44.8968L18.4981 41.5641L11.6104 45.54C11.525 45.5885 11.4242 45.6023 11.3288 45.5786C11.2335 45.5549 11.1509 45.4955 11.098 45.4127C11.0452 45.3299 11.0262 45.2299 11.0449 45.1335C11.0637 45.0371 11.1187 44.9515 11.1987 44.8945L17.71 40.3566L8.72467 45.54C8.63884 45.5883 8.53773 45.6017 8.4423 45.5774C8.34687 45.5531 8.26443 45.4931 8.21209 45.4097C8.15974 45.3263 8.14149 45.2259 8.16113 45.1294C8.18077 45.0329 8.23679 44.9477 8.31757 44.8914L16.2802 39.4933L5.80443 45.54C5.74677 45.5747 5.68083 45.5932 5.61353 45.5937Z" fill="#009C9D"/>
<path d="M12.1386 45.6006C12.0587 45.6006 11.9807 45.5757 11.9156 45.5293C11.8506 45.4828 11.8016 45.4172 11.7757 45.3416C11.7498 45.266 11.7481 45.1842 11.771 45.1076C11.7939 45.0309 11.8401 44.9634 11.9033 44.9144L12.9919 44.0711L11.3313 45.0294C11.2473 45.0765 11.1485 45.0902 11.0548 45.0677C10.9611 45.0453 10.8793 44.9884 10.8256 44.9084C10.772 44.8283 10.7504 44.731 10.7653 44.6358C10.7802 44.5406 10.8303 44.4545 10.9058 44.3946L14.9692 41.2597L10.4773 43.8533C10.3922 43.901 10.2922 43.9145 10.1976 43.891C10.103 43.8676 10.0209 43.809 9.96796 43.7271C9.91502 43.6453 9.89525 43.5463 9.91267 43.4504C9.93009 43.3545 9.98339 43.2689 10.0617 43.2109L15.4767 39.3009L9.62626 42.6803C9.54101 42.729 9.44034 42.743 9.34501 42.7197C9.24968 42.6963 9.16695 42.6372 9.11388 42.5547C9.0608 42.4721 9.04141 42.3723 9.05972 42.2759C9.07802 42.1794 9.13262 42.0937 9.21226 42.0363L15.0895 37.8496L8.76913 41.4989C8.68363 41.5488 8.58212 41.5638 8.48587 41.5405C8.38961 41.5173 8.30608 41.4577 8.25276 41.3743C8.19945 41.2909 8.18049 41.19 8.19986 41.0929C8.21923 40.9958 8.27542 40.91 8.35666 40.8534L13.9779 36.9073L7.95876 40.3819C7.87332 40.4303 7.77252 40.4442 7.67718 40.4205C7.58184 40.3968 7.49923 40.3374 7.44641 40.2546C7.39358 40.1718 7.37457 40.0718 7.3933 39.9754C7.41204 39.8789 7.46708 39.7934 7.54706 39.7363L13.3477 35.6676L7.1392 39.2533C7.05324 39.3023 6.95167 39.3162 6.85573 39.292C6.75979 39.2678 6.67692 39.2075 6.62444 39.1236C6.57196 39.0398 6.55393 38.9388 6.57414 38.842C6.59435 38.7451 6.65122 38.6599 6.73286 38.604L10.81 35.857L6.486 38.3533C6.39972 38.399 6.29926 38.41 6.20511 38.3842C6.11096 38.3584 6.03022 38.2976 5.97935 38.2142C5.92849 38.1309 5.91134 38.0313 5.93141 37.9357C5.95147 37.8402 6.00724 37.7559 6.08733 37.7001L6.4124 37.49L6.02217 37.7146C5.93671 37.7613 5.8367 37.7737 5.74243 37.7493C5.64817 37.7249 5.56671 37.6656 5.51461 37.5833C5.46251 37.5011 5.44365 37.4021 5.46188 37.3064C5.48011 37.2108 5.53406 37.1257 5.61277 37.0683L11.3574 33.0978L5.23633 36.6313C5.14984 36.6789 5.04834 36.6913 4.95296 36.6659C4.85758 36.6405 4.77567 36.5793 4.72429 36.495C4.67292 36.4107 4.65603 36.3099 4.67715 36.2134C4.69827 36.117 4.75576 36.0325 4.83767 35.9774L4.85837 35.9636L4.7817 36.0073C4.69669 36.0569 4.59587 36.0719 4.50012 36.0492C4.40436 36.0265 4.321 35.9678 4.2673 35.8853C4.2136 35.8029 4.19368 35.7029 4.21165 35.6061C4.22963 35.5094 4.28413 35.4232 4.36387 35.3656L9.591 31.5583L4.04877 34.7584C3.96399 34.8069 3.86386 34.8213 3.76885 34.7985C3.67384 34.7757 3.59111 34.7175 3.53757 34.6358C3.48404 34.5541 3.46372 34.455 3.48079 34.3588C3.49786 34.2626 3.55101 34.1765 3.6294 34.1182L7.3094 31.4142L4.86527 32.8233C4.78001 32.8719 4.67934 32.886 4.58401 32.8626C4.48868 32.8392 4.40595 32.7802 4.35288 32.6976C4.2998 32.6151 4.28041 32.5153 4.29872 32.4188C4.31702 32.3224 4.37162 32.2367 4.45127 32.1793L5.25167 31.6081C5.17535 31.6072 5.10103 31.5836 5.03823 31.5402C4.97544 31.4968 4.92702 31.4357 4.89919 31.3646C4.87135 31.2936 4.86537 31.2158 4.882 31.1413C4.89863 31.0668 4.93712 30.999 4.99253 30.9465L6.4492 29.5581L6.3365 29.6225C6.26113 29.6662 6.17312 29.6829 6.08697 29.6699C6.00082 29.6569 5.92168 29.6149 5.86258 29.5509C5.80348 29.4869 5.76794 29.4046 5.76183 29.3177C5.75572 29.2308 5.7794 29.1444 5.82897 29.0728L6.4653 28.1528C6.45686 28.1413 6.4492 28.129 6.44153 28.1167C6.3907 28.0287 6.37693 27.9241 6.40324 27.8259C6.42955 27.7277 6.49379 27.6439 6.58183 27.5931L7.107 27.2933C7.1823 27.2499 7.2701 27.2334 7.35602 27.2465C7.44193 27.2596 7.52086 27.3014 7.57986 27.3652C7.63886 27.429 7.67442 27.511 7.68072 27.5977C7.68702 27.6844 7.66368 27.7706 7.61453 27.8423L7.429 28.1098L8.8481 27.2933C8.92978 27.2419 9.02787 27.2231 9.12277 27.2409C9.21766 27.2586 9.30238 27.3115 9.35999 27.3889C9.4176 27.4664 9.44387 27.5627 9.43354 27.6587C9.42321 27.7547 9.37704 27.8432 9.30426 27.9067L7.8476 29.2936L11.3114 27.2941C11.3967 27.2455 11.4973 27.2314 11.5927 27.2548C11.688 27.2782 11.7707 27.3372 11.8238 27.4198C11.8769 27.5023 11.8962 27.6021 11.8779 27.6986C11.8596 27.795 11.805 27.8807 11.7254 27.9381L11.3804 28.1842L12.9252 27.2926C13.01 27.2451 13.1096 27.2315 13.2039 27.2547C13.2983 27.2778 13.3803 27.3359 13.4335 27.4172C13.4866 27.4985 13.5069 27.5969 13.4903 27.6926C13.4737 27.7883 13.4213 27.8741 13.3438 27.9327L9.66383 30.6375L15.4629 27.2895C15.5479 27.2412 15.6481 27.2271 15.743 27.2502C15.838 27.2733 15.9206 27.3318 15.9738 27.4138C16.0271 27.4958 16.0471 27.595 16.0296 27.6911C16.0122 27.7873 15.9586 27.8732 15.88 27.9312L10.6567 31.7316L18.3693 27.2788C18.4562 27.2258 18.5605 27.2095 18.6593 27.2334C18.7582 27.2574 18.8434 27.3196 18.8964 27.4064C18.9494 27.4932 18.9657 27.5975 18.9418 27.6964C18.9178 27.7952 18.8556 27.8805 18.7688 27.9335L18.7504 27.9442L19.1544 27.7142C19.2399 27.6665 19.3405 27.6532 19.4354 27.6773C19.5304 27.7013 19.6126 27.7608 19.665 27.8435C19.7175 27.9262 19.7364 28.0258 19.7177 28.122C19.699 28.2181 19.6442 28.3035 19.5646 28.3605L13.8207 32.3303L19.7133 28.9279C19.7999 28.8786 19.9022 28.8649 19.9987 28.8898C20.0952 28.9147 20.1781 28.9762 20.2301 29.0612C20.282 29.1462 20.2988 29.2481 20.2769 29.3453C20.255 29.4425 20.1961 29.5273 20.1127 29.5818L19.78 29.7965L20.0437 29.6432C20.1298 29.5933 20.232 29.5788 20.3285 29.6028C20.4251 29.6269 20.5085 29.6875 20.5612 29.7719C20.6139 29.8564 20.6316 29.958 20.6108 30.0553C20.5899 30.1526 20.532 30.2379 20.4493 30.2933L16.3729 33.038L20.5076 30.6513C20.5928 30.6045 20.6927 30.5918 20.787 30.6159C20.8813 30.64 20.9628 30.699 21.0152 30.781C21.0676 30.863 21.0868 30.9619 21.069 31.0575C21.0511 31.1532 20.9976 31.2384 20.9193 31.2961L15.1164 35.3656L21.0902 31.9156C21.1757 31.8671 21.2765 31.8533 21.3718 31.877C21.4672 31.9006 21.5498 31.96 21.6026 32.0429C21.6554 32.1257 21.6744 32.2256 21.6557 32.3221C21.637 32.4185 21.5819 32.5041 21.5019 32.5611L15.8823 36.5064L21.6668 33.1675C21.752 33.1189 21.8527 33.1048 21.948 33.1282C22.0433 33.1516 22.1261 33.2106 22.1792 33.2932C22.2322 33.3758 22.2516 33.4756 22.2333 33.572C22.215 33.6684 22.1604 33.7542 22.0808 33.8115L16.2035 37.9975L21.633 34.8634C21.7181 34.8157 21.818 34.8023 21.9127 34.8257C22.0073 34.8492 22.0894 34.9078 22.1423 34.9896C22.1953 35.0715 22.215 35.1704 22.1976 35.2663C22.1802 35.3622 22.1269 35.4479 22.0486 35.5059L16.6328 39.4159L19.56 37.7292C19.644 37.6821 19.7428 37.6684 19.8365 37.6909C19.9302 37.7133 20.012 37.7702 20.0657 37.8502C20.1193 37.9303 20.1409 38.0276 20.126 38.1228C20.1111 38.218 20.061 38.3041 19.9855 38.364L15.9221 41.4974L17.48 40.5942C17.5641 40.5462 17.6633 40.5318 17.7576 40.554C17.8518 40.5761 17.9343 40.6331 17.9882 40.7135C18.0422 40.7939 18.0638 40.8917 18.0486 40.9874C18.0334 41.083 17.9825 41.1693 17.9063 41.229L16.3545 42.4327C16.426 42.442 16.4934 42.4714 16.549 42.5173C16.6046 42.5632 16.6461 42.6239 16.6688 42.6923C16.6914 42.7608 16.6943 42.8343 16.6771 42.9043C16.6599 42.9743 16.6233 43.038 16.5715 43.0882L15.3893 44.2367C15.4036 44.2544 15.4166 44.2731 15.4284 44.2926C15.4789 44.3807 15.4924 44.4852 15.466 44.5832C15.4396 44.6813 15.3753 44.7648 15.2873 44.8155L14.0185 45.5477C13.9375 45.5957 13.8416 45.6122 13.7492 45.5941C13.6568 45.576 13.5743 45.5245 13.5174 45.4494C13.4606 45.3744 13.4333 45.281 13.4409 45.1871C13.4485 45.0932 13.4903 45.0054 13.5585 44.9405L13.8077 44.699L12.328 45.553C12.2701 45.5852 12.2048 45.6015 12.1386 45.6006Z" fill="#F76031"/>
<path d="M12.5388 39.4473C12.4612 39.4473 12.3853 39.4237 12.3214 39.3797C12.2574 39.3356 12.2083 39.2732 12.1806 39.2006C12.153 39.128 12.148 39.0487 12.1664 38.9733C12.1847 38.8978 12.2256 38.8297 12.2835 38.778L14.6886 36.6313L10.7272 38.9191C10.6424 38.9676 10.5423 38.982 10.4473 38.9592C10.3523 38.9364 10.2695 38.8782 10.216 38.7965C10.1625 38.7148 10.1422 38.6157 10.1592 38.5195C10.1763 38.4233 10.2294 38.3372 10.3078 38.2789L12.4399 36.7111L10.1399 38.0389C10.0558 38.0875 9.95637 38.1023 9.86173 38.0804C9.76709 38.0585 9.6843 38.0015 9.6301 37.9209C9.57594 37.8402 9.55444 37.7419 9.56995 37.646C9.58547 37.5501 9.63683 37.4636 9.71366 37.4041L14.0492 34.0469L9.39856 36.7302C9.31385 36.7795 9.21348 36.7945 9.11808 36.7721C9.02267 36.7496 8.93947 36.6915 8.88559 36.6097C8.8317 36.5278 8.81121 36.4284 8.82834 36.3319C8.84546 36.2354 8.8989 36.1492 8.97766 36.0908L13.524 32.7075L8.79443 35.4376C8.70922 35.4851 8.60913 35.4983 8.51453 35.4745C8.41994 35.4508 8.33795 35.3918 8.28528 35.3098C8.23261 35.2277 8.21321 35.1286 8.23103 35.0327C8.24885 34.9368 8.30255 34.8513 8.3812 34.7936L12.0589 32.2L8.36433 34.3329C8.28052 34.38 8.18206 34.3939 8.08846 34.3719C7.99487 34.3498 7.91299 34.2934 7.85905 34.2138C7.80511 34.1342 7.78306 34.0372 7.79727 33.9421C7.81148 33.847 7.86091 33.7607 7.93576 33.7004L11.8404 30.626L7.90663 32.8969C7.82438 32.9402 7.72919 32.9522 7.63878 32.9305C7.54837 32.9089 7.46891 32.8552 7.41518 32.7793C7.36145 32.7034 7.33711 32.6106 7.34671 32.5182C7.3563 32.4257 7.39917 32.3399 7.46733 32.2767L10.0433 30.094L7.567 31.5223C7.48656 31.5687 7.39202 31.5843 7.30092 31.5663C7.20983 31.5482 7.12839 31.4977 7.07173 31.4241C7.0151 31.3506 6.98708 31.259 6.99286 31.1664C6.99864 31.0737 7.03783 30.9864 7.10316 30.9204L8.6227 29.3871L7.31936 30.1407C7.24158 30.1853 7.15065 30.2011 7.06238 30.1855C6.97411 30.17 6.89409 30.124 6.83622 30.0555C6.77835 29.9871 6.74629 29.9005 6.74562 29.8109C6.74494 29.7213 6.7757 29.6343 6.83253 29.565L7.28333 29.0183L7.18443 29.0751C7.11845 29.1131 7.04265 29.1305 6.9667 29.1253C6.89075 29.12 6.81808 29.0923 6.75796 29.0456C6.69784 28.9988 6.65299 28.9353 6.62913 28.863C6.60528 28.7907 6.60349 28.7129 6.624 28.6396L6.75203 28.1796C6.69119 28.1478 6.63999 28.1003 6.60378 28.042C6.56758 27.9837 6.54769 27.9167 6.5462 27.8481C6.54471 27.7795 6.56168 27.7117 6.59532 27.6519C6.62896 27.5921 6.67805 27.5424 6.73746 27.508L7.11466 27.2933C7.18059 27.2552 7.25639 27.2376 7.33238 27.2427C7.40838 27.2478 7.48112 27.2755 7.54133 27.3221C7.60155 27.3687 7.6465 27.4323 7.67046 27.5046C7.69442 27.5769 7.6963 27.6547 7.67586 27.728L7.61606 27.9427L8.74 27.2933C8.81778 27.2488 8.90871 27.2329 8.99698 27.2485C9.08525 27.2641 9.16527 27.3101 9.22314 27.3785C9.28101 27.447 9.31307 27.5335 9.31374 27.6231C9.31442 27.7128 9.28366 27.7998 9.22683 27.8691L8.77296 28.4188L10.7249 27.2933C10.8052 27.2497 10.8985 27.2362 10.9879 27.2552C11.0773 27.2743 11.157 27.3247 11.2125 27.3974C11.268 27.47 11.2957 27.5601 11.2907 27.6514C11.2856 27.7426 11.2481 27.8291 11.1849 27.8952L9.66536 29.4285L13.363 27.2933C13.4458 27.2461 13.5433 27.2315 13.6363 27.2523C13.7294 27.2731 13.8114 27.3278 13.8662 27.4057C13.9211 27.4837 13.945 27.5793 13.9332 27.6739C13.9213 27.7685 13.8747 27.8553 13.8023 27.9174L11.2286 30.0955L16.0831 27.2933C16.1669 27.2462 16.2654 27.2323 16.359 27.2543C16.4526 27.2764 16.5345 27.3328 16.5884 27.4124C16.6423 27.492 16.6644 27.589 16.6502 27.6841C16.636 27.7792 16.5865 27.8655 16.5117 27.9258L12.6063 31.0002L18.9512 27.337C19.0366 27.2891 19.137 27.2756 19.2319 27.2993C19.3269 27.3231 19.4092 27.3822 19.4619 27.4647C19.5146 27.5471 19.5338 27.6466 19.5156 27.7428C19.4973 27.8389 19.443 27.9244 19.3637 27.9818L15.6837 30.5816L18.8477 28.7554C18.9324 28.7072 19.0322 28.6931 19.1269 28.7159C19.2216 28.7387 19.3041 28.7967 19.3575 28.8781C19.411 28.9595 19.4315 29.0582 19.4149 29.1542C19.3982 29.2501 19.3456 29.3362 19.2679 29.3948L14.72 32.7742L18.5595 30.557C18.6437 30.5076 18.7436 30.4922 18.8389 30.514C18.9341 30.5357 19.0174 30.593 19.0718 30.6741C19.1262 30.7553 19.1476 30.8541 19.1316 30.9504C19.1156 31.0468 19.0634 31.1334 18.9857 31.1926L14.6495 34.5498L18.0596 32.5833C18.1443 32.5358 18.2439 32.5223 18.3383 32.5454C18.4326 32.5686 18.5147 32.6266 18.5678 32.7079C18.621 32.7892 18.6413 32.8877 18.6247 32.9834C18.608 33.0791 18.5557 33.1649 18.4782 33.2235L16.3484 34.7898L17.5452 34.0998C17.6266 34.0571 17.7207 34.0452 17.8103 34.0661C17.8999 34.087 17.9789 34.1395 18.033 34.2138C18.0871 34.2882 18.1127 34.3796 18.1051 34.4712C18.0974 34.5629 18.0571 34.6488 17.9914 34.7131L15.5848 36.8598L16.5408 36.3078C16.618 36.2634 16.7083 36.2472 16.7961 36.2621C16.884 36.277 16.9639 36.322 17.0221 36.3894C17.0804 36.4568 17.1133 36.5424 17.1153 36.6315C17.1173 36.7205 17.0882 36.8075 17.033 36.8774L15.7803 38.4583C15.7872 38.4683 15.7933 38.4782 15.7995 38.489C15.8503 38.577 15.8641 38.6816 15.8378 38.7798C15.8114 38.878 15.7472 38.9618 15.6592 39.0126L15.0083 39.3883C14.9311 39.4327 14.8408 39.4489 14.753 39.434C14.6651 39.4191 14.5852 39.3741 14.527 39.3067C14.4687 39.2393 14.4358 39.1537 14.4338 39.0646C14.4318 38.9755 14.4609 38.8886 14.5161 38.8186L15.1831 37.9753L12.7297 39.3913C12.6723 39.4269 12.6063 39.4462 12.5388 39.4473Z" fill="white"/>
<path d="M13.3515 31.7967C13.2803 31.7967 13.2105 31.7769 13.15 31.7395C13.0894 31.7021 13.0405 31.6485 13.0086 31.5848C12.9768 31.5212 12.9633 31.4499 12.9697 31.379C12.9761 31.3081 13.0021 31.2403 13.0448 31.1834L13.3408 30.7962L11.7001 31.74C11.6191 31.788 11.5232 31.8046 11.4308 31.7864C11.3384 31.7683 11.2559 31.7168 11.199 31.6418C11.1422 31.5667 11.1149 31.4733 11.1225 31.3794C11.1301 31.2856 11.1719 31.1978 11.2401 31.1328L11.6702 30.7165L11.0262 31.0883C10.9491 31.1329 10.859 31.1492 10.7712 31.1345C10.6834 31.1199 10.6034 31.0751 10.545 31.0079C10.4866 30.9407 10.4535 30.8553 10.4512 30.7663C10.4489 30.6773 10.4776 30.5903 10.5325 30.5202L12.2536 28.3207L12.2452 28.3076C12.2199 28.264 12.2036 28.2157 12.197 28.1657C12.1904 28.1157 12.1938 28.0649 12.2069 28.0161C12.22 27.9674 12.2426 27.9218 12.2733 27.8818C12.3041 27.8418 12.3425 27.8083 12.3863 27.7832L12.9758 27.4436C13.053 27.3991 13.1432 27.3829 13.231 27.3976C13.3188 27.4124 13.3987 27.4573 13.4571 27.5246C13.5154 27.5919 13.5484 27.6774 13.5506 27.7664C13.5527 27.8554 13.5238 27.9424 13.4688 28.0125L12.3564 29.44L13.9802 28.5031C14.0612 28.4551 14.157 28.4386 14.2494 28.4567C14.3419 28.4748 14.4244 28.5263 14.4812 28.6014C14.5381 28.6764 14.5653 28.7698 14.5578 28.8637C14.5502 28.9576 14.5083 29.0454 14.4402 29.1103L14.0101 29.5266L14.6234 29.1747C14.7001 29.1303 14.7898 29.1139 14.8773 29.1282C14.9648 29.1425 15.0446 29.1867 15.1031 29.2532C15.1617 29.3197 15.1954 29.4045 15.1985 29.493C15.2016 29.5816 15.174 29.6685 15.1202 29.739L14.8243 30.1269L15.2789 29.864C15.3225 29.8362 15.3713 29.8176 15.4223 29.8092C15.4733 29.8008 15.5255 29.8028 15.5757 29.8151C15.626 29.8274 15.6732 29.8498 15.7145 29.8808C15.7559 29.9118 15.7906 29.9509 15.8164 29.9956C15.8423 30.0404 15.8589 30.0899 15.8651 30.1412C15.8713 30.1926 15.8671 30.2446 15.8527 30.2943C15.8383 30.3439 15.814 30.3901 15.7813 30.4302C15.7485 30.4702 15.708 30.5032 15.6622 30.5271L13.5485 31.7477C13.4886 31.7817 13.4204 31.7987 13.3515 31.7967Z" fill="#818CFF"/>
<path d="M15.9114 30.9795C15.8375 30.9795 15.7652 30.9581 15.7031 30.918C15.6411 30.8779 15.592 30.8207 15.5617 30.7533C15.5314 30.6859 15.5212 30.6112 15.5324 30.5381C15.5436 30.4651 15.5756 30.3968 15.6247 30.3416L16.9502 28.8489L15.1033 29.9146C15.0243 29.9601 14.9317 29.976 14.842 29.9594C14.7523 29.9428 14.6715 29.8948 14.6141 29.8239C14.5566 29.7531 14.5263 29.6641 14.5286 29.573C14.5309 29.4818 14.5656 29.3944 14.6265 29.3265L15.7933 28.0278L14.1933 28.9478C14.1141 28.9933 14.0213 29.0091 13.9316 28.9923C13.8418 28.9755 13.761 28.9272 13.7037 28.8561C13.6464 28.7851 13.6163 28.6958 13.6189 28.6045C13.6215 28.5133 13.6567 28.4259 13.718 28.3582L14.7024 27.2719L13.3438 28.06C13.2558 28.11 13.1516 28.1232 13.0539 28.0967C12.9562 28.0702 12.873 28.0061 12.8224 27.9184C12.7718 27.8308 12.7579 27.7266 12.7838 27.6288C12.8096 27.5309 12.8732 27.4473 12.9605 27.3961L16.4373 25.3889C16.5165 25.3429 16.6095 25.3266 16.6996 25.3432C16.7897 25.3598 16.8708 25.4081 16.9284 25.4794C16.9859 25.5507 17.0161 25.6402 17.0133 25.7317C17.0106 25.8233 16.9751 25.9108 16.9134 25.9785L15.9283 27.0633L17.4869 26.164C17.5659 26.1185 17.6586 26.1026 17.7482 26.1192C17.8379 26.1358 17.9187 26.1838 17.9762 26.2546C18.0336 26.3255 18.0639 26.4145 18.0616 26.5056C18.0594 26.5968 18.0247 26.6842 17.9638 26.7521L16.8007 28.0508L18.6185 27.0012C18.6973 26.9561 18.7895 26.9404 18.8787 26.9569C18.968 26.9735 19.0485 27.0211 19.1059 27.0914C19.1633 27.1617 19.1939 27.2501 19.1923 27.3408C19.1906 27.4316 19.1568 27.5188 19.0969 27.587L17.1082 29.8233C17.1232 29.841 17.1365 29.86 17.148 29.8801C17.1986 29.968 17.2123 30.0725 17.186 30.1705C17.1597 30.2685 17.0956 30.3521 17.0077 30.4029L16.1 30.9281C16.0428 30.9615 15.9777 30.9792 15.9114 30.9795Z" fill="#E1EFFF"/>
<path d="M9.2207 30.4298C9.14194 30.4297 9.06511 30.4054 9.00065 30.3602C8.93619 30.315 8.88723 30.251 8.86042 30.1769C8.83362 30.1029 8.83027 30.0224 8.85084 29.9463C8.8714 29.8703 8.91488 29.8025 8.97536 29.752L11.2041 27.8982L8.52533 29.4446C8.44367 29.492 8.34739 29.5076 8.25493 29.4885C8.16248 29.4693 8.08035 29.4166 8.02431 29.3406C7.96826 29.2646 7.94224 29.1706 7.95122 29.0766C7.96021 28.9826 8.00357 28.8953 8.073 28.8313L9.66 27.3608L7.64903 28.52C7.5684 28.5653 7.4741 28.58 7.38352 28.5613C7.29294 28.5425 7.21218 28.4917 7.15614 28.4181C7.10011 28.3445 7.07257 28.2531 7.07862 28.1608C7.08466 28.0685 7.12388 27.9815 7.18903 27.9159L8.50463 26.6125C8.44516 26.579 8.39588 26.53 8.36203 26.4707C8.31144 26.3827 8.2978 26.2783 8.3241 26.1803C8.3504 26.0823 8.4145 25.9987 8.50233 25.9478L10.1668 24.9933C10.2471 24.9458 10.3422 24.9296 10.4337 24.9478C10.5253 24.9661 10.6068 25.0175 10.6628 25.0922C10.7194 25.1663 10.747 25.2585 10.7405 25.3515C10.734 25.4445 10.6938 25.5319 10.6275 25.5975L9.84323 26.3733L12.236 24.9933C12.3177 24.9459 12.4139 24.9303 12.5064 24.9495C12.5988 24.9687 12.681 25.0213 12.737 25.0973C12.7931 25.1733 12.8191 25.2673 12.8101 25.3613C12.8011 25.4553 12.7578 25.5427 12.6883 25.6067L11.1006 27.0771L14.7131 24.9918C14.7962 24.944 14.8942 24.9291 14.9878 24.95C15.0814 24.9709 15.1637 25.0262 15.2186 25.1048C15.2734 25.1834 15.2968 25.2798 15.2841 25.3748C15.2715 25.4698 15.2236 25.5567 15.1501 25.6182L12.525 27.8009C12.6029 27.8139 12.6748 27.8506 12.7311 27.906C12.7873 27.9614 12.825 28.0329 12.8391 28.1105C12.8532 28.1882 12.8429 28.2683 12.8098 28.34C12.7766 28.4116 12.7222 28.4713 12.6538 28.5108L9.41236 30.3822C9.3538 30.4148 9.28766 30.4312 9.2207 30.4298Z" fill="#E1EFFF"/>
<path d="M7.25267 2.94247C7.16822 2.94263 7.08608 2.91491 7.01901 2.8636C6.95194 2.81229 6.90368 2.74027 6.88175 2.65872C6.85981 2.57717 6.86541 2.49066 6.89769 2.41263C6.92996 2.33459 6.9871 2.26939 7.06023 2.22717L9.3794 0.888568C9.42303 0.860832 9.47182 0.842209 9.52284 0.833818C9.57385 0.825427 9.62603 0.827442 9.67625 0.839742C9.72646 0.852042 9.77367 0.874372 9.81504 0.90539C9.8564 0.936408 9.89106 0.975472 9.91693 1.02023C9.9428 1.06499 9.95935 1.11452 9.96559 1.16585C9.97182 1.21717 9.96761 1.26922 9.9532 1.31887C9.9388 1.36853 9.9145 1.41475 9.88177 1.45477C9.84903 1.49479 9.80855 1.52777 9.76274 1.55173L7.44357 2.8911C7.38552 2.92462 7.3197 2.94233 7.25267 2.94247Z" fill="#704D36"/>
<path d="M21.85 14.1603C21.7875 14.1604 21.7259 14.1451 21.6706 14.1158C21.6153 14.0866 21.5681 14.0442 21.5329 13.9925C21.4978 13.9408 21.4758 13.8813 21.4689 13.8191C21.4621 13.757 21.4705 13.6941 21.4935 13.6359L21.8301 12.7834L19.537 14.1067C19.4576 14.1517 19.3648 14.167 19.2752 14.1497C19.1856 14.1324 19.1051 14.0837 19.0482 14.0124C18.9912 13.941 18.9616 13.8517 18.9647 13.7605C18.9677 13.6693 19.0032 13.5822 19.0647 13.5148L20.828 11.6119L16.5125 14.1067C16.4277 14.1552 16.3276 14.1696 16.2326 14.1468C16.1375 14.124 16.0548 14.0658 16.0013 13.9841C15.9477 13.9024 15.9274 13.8033 15.9445 13.7071C15.9616 13.6109 16.0147 13.5248 16.0931 13.4665L17.2232 12.6324L14.6702 14.1067C14.5848 14.154 14.4846 14.1669 14.39 14.1428C14.2954 14.1188 14.2135 14.0595 14.1611 13.9772C14.1087 13.8948 14.0897 13.7956 14.1079 13.6997C14.1261 13.6038 14.1803 13.5185 14.2592 13.4611L15.3034 12.7336L12.9268 14.1059C12.8421 14.1552 12.7417 14.1702 12.6463 14.1477C12.5509 14.1253 12.4677 14.0672 12.4138 13.9854C12.3599 13.9035 12.3394 13.8041 12.3565 13.7076C12.3737 13.6111 12.4271 13.5248 12.5059 13.4665L17.3213 9.88618L10.0142 14.1028C9.92837 14.1511 9.82726 14.1645 9.73183 14.1402C9.6364 14.116 9.55397 14.0559 9.50162 13.9725C9.44927 13.8891 9.43103 13.7888 9.45066 13.6923C9.4703 13.5958 9.52632 13.5105 9.6071 13.4542L13.8238 10.5777L7.72033 14.1044C7.63417 14.1534 7.53238 14.1671 7.43632 14.1427C7.34025 14.1182 7.25739 14.0576 7.20511 13.9733C7.15284 13.8891 7.13521 13.7879 7.15595 13.691C7.17668 13.5941 7.23415 13.5089 7.3163 13.4535L11.5077 10.6682L5.56063 14.0998C5.47441 14.148 5.3729 14.1611 5.27727 14.1363C5.18164 14.1115 5.09928 14.0507 5.04736 13.9667C4.99545 13.8826 4.97799 13.7818 4.99863 13.6851C5.01926 13.5885 5.07641 13.5036 5.15813 13.4481L9.89 10.3308L3.96136 13.7525C3.87521 13.8015 3.77341 13.8152 3.67735 13.7908C3.58129 13.7663 3.49842 13.7057 3.44615 13.6214C3.39387 13.5372 3.37625 13.436 3.39698 13.3391C3.41771 13.2422 3.47518 13.157 3.55733 13.1016L9.02903 9.46068L3.7191 12.5273C3.67611 12.5536 3.62837 12.5711 3.57862 12.5789C3.52886 12.5866 3.47806 12.5845 3.42912 12.5727C3.38017 12.5608 3.33404 12.5394 3.29336 12.5098C3.25268 12.4801 3.21824 12.4427 3.19201 12.3997C3.16579 12.3567 3.14828 12.309 3.14051 12.2592C3.13273 12.2095 3.13482 12.1587 3.14668 12.1097C3.15853 12.0608 3.17991 12.0146 3.20959 11.974C3.23927 11.9333 3.27667 11.8988 3.31966 11.8726L5.13666 10.7019L3.5696 11.6066C3.48323 11.6557 3.38118 11.6693 3.28495 11.6447C3.18871 11.62 3.10582 11.5589 3.05373 11.4743C3.00164 11.3897 2.98443 11.2882 3.00572 11.1912C3.02701 11.0941 3.08514 11.0092 3.16786 10.9541L6.15173 9.00144L3.43543 10.57C3.34915 10.6176 3.24788 10.63 3.15264 10.6049C3.0574 10.5797 2.9755 10.5189 2.92392 10.435C2.87234 10.3511 2.85505 10.2505 2.87564 10.1542C2.89622 10.0578 2.95309 9.97313 3.03446 9.91761L4.75333 8.79597L3.34496 9.60864C3.25977 9.65804 3.15884 9.67275 3.0631 9.64973C2.96735 9.62672 2.88413 9.56774 2.8307 9.48503C2.77727 9.40231 2.75771 9.3022 2.77609 9.20546C2.79448 9.10872 2.84938 9.02276 2.92943 8.96541L8.37276 5.05081L3.28133 7.99098C3.19563 8.03864 3.09492 8.05164 2.99993 8.02732C2.90493 8.00299 2.82287 7.94318 2.77062 7.8602C2.71838 7.77721 2.69992 7.67736 2.71905 7.58119C2.73818 7.48501 2.79344 7.39982 2.87346 7.34314L4.6897 6.09884L3.38636 6.84941C3.3079 6.89053 3.21762 6.9032 3.13087 6.88528C3.04412 6.86736 2.96626 6.81994 2.91051 6.7511C2.85477 6.68226 2.82459 6.59623 2.8251 6.50765C2.82562 6.41907 2.85679 6.3334 2.91333 6.26521L4.33703 4.63527C4.24715 4.66441 4.14967 4.65931 4.06331 4.62098C3.97695 4.58264 3.90779 4.51376 3.86911 4.42755C3.83043 4.34135 3.82495 4.24389 3.85372 4.15389C3.88249 4.06389 3.94348 3.98769 4.025 3.93991L5.9455 2.83054C6.02411 2.78541 6.11618 2.76959 6.20535 2.7859C6.29452 2.80222 6.37502 2.8496 6.43256 2.91965C6.4901 2.98969 6.52096 3.07786 6.51966 3.1685C6.51835 3.25914 6.48497 3.34638 6.42543 3.41474L5.014 5.02704L12.9245 0.460008C13.01 0.412873 13.1104 0.400193 13.205 0.424557C13.2996 0.448921 13.3813 0.508491 13.4335 0.591096C13.4857 0.673702 13.5043 0.773109 13.4857 0.869008C13.467 0.964907 13.4124 1.05006 13.3331 1.10707L11.5192 2.34984L14.628 0.555841C14.713 0.508181 14.813 0.494703 14.9076 0.518148C15.0022 0.541592 15.0844 0.600199 15.1373 0.682045C15.1902 0.763892 15.21 0.86283 15.1926 0.958735C15.1752 1.05464 15.1219 1.14031 15.0435 1.19831L9.6002 5.11214L16.6957 1.01584C16.7822 0.965527 16.885 0.951047 16.982 0.975495C17.0791 0.999943 17.1627 1.06138 17.2151 1.14668C17.2675 1.23197 17.2844 1.33437 17.2622 1.43197C17.2401 1.52958 17.1807 1.61467 17.0967 1.66904L15.3793 2.78761L17.6747 1.46281C17.7611 1.41371 17.8632 1.40006 17.9594 1.42473C18.0556 1.4494 18.1385 1.51047 18.1906 1.59506C18.2427 1.67966 18.2599 1.78117 18.2386 1.87821C18.2173 1.97524 18.1592 2.06023 18.0765 2.11524L15.0834 4.07407L18.5066 2.09837C18.5933 2.04754 18.6966 2.03282 18.7941 2.05739C18.8916 2.08196 18.9755 2.14386 19.0278 2.22974C19.0801 2.31562 19.0965 2.41861 19.0736 2.51651C19.0507 2.6144 18.9902 2.69938 18.9052 2.75311L17.0875 3.92304L19.09 2.76461C19.1762 2.7156 19.278 2.70187 19.374 2.7263C19.4701 2.75073 19.5529 2.81143 19.6052 2.89564C19.6575 2.97986 19.6751 3.08105 19.6544 3.17798C19.6337 3.27491 19.5762 3.36004 19.494 3.41551L14.03 7.05334L20.7238 3.18934C20.81 3.14111 20.9115 3.12804 21.0071 3.15284C21.1028 3.17764 21.1851 3.23841 21.237 3.32246C21.2889 3.40651 21.3064 3.50736 21.2858 3.60397C21.2651 3.70059 21.208 3.7855 21.1263 3.84101L16.3982 6.95751L21.6882 3.90387C21.7742 3.85695 21.8748 3.84469 21.9695 3.86963C22.0643 3.89457 22.1458 3.95481 22.1975 4.03799C22.2492 4.12117 22.2671 4.22098 22.2475 4.31693C22.228 4.41289 22.1724 4.49772 22.0923 4.55401L17.8925 7.34468L22.3161 4.79091C22.402 4.74106 22.5039 4.72649 22.6003 4.75027C22.6968 4.77405 22.7802 4.83432 22.8331 4.91839C22.8859 5.00246 22.9041 5.10377 22.8838 5.20097C22.8634 5.29817 22.8061 5.38369 22.724 5.43951L18.5073 8.31451L22.6673 5.91331C22.7519 5.86517 22.8518 5.85107 22.9464 5.87387C23.0411 5.89667 23.1236 5.95465 23.1771 6.03605C23.2306 6.11745 23.2511 6.21615 23.2344 6.31211C23.2177 6.40807 23.1652 6.4941 23.0874 6.55271L18.2735 10.1323L22.783 7.52561C22.8685 7.47783 22.9691 7.46459 23.0641 7.48862C23.159 7.51266 23.2412 7.57213 23.2937 7.65484C23.3462 7.73754 23.365 7.83721 23.3463 7.93336C23.3276 8.02952 23.2728 8.11488 23.1932 8.17191L22.1482 8.89948L22.7478 8.55371C22.8325 8.50515 22.9327 8.49079 23.0277 8.51357C23.1227 8.53635 23.2054 8.59455 23.259 8.67628C23.3125 8.75801 23.3328 8.85709 23.3157 8.95329C23.2987 9.0495 23.2455 9.13555 23.1671 9.19388L22.0386 10.0265L22.6519 9.67074C22.7314 9.62519 22.8245 9.60959 22.9145 9.62677C23.0045 9.64395 23.0853 9.69278 23.1424 9.7644C23.1995 9.83603 23.229 9.92573 23.2257 10.0173C23.2223 10.1088 23.1863 10.1961 23.1242 10.2634L21.3609 12.1662L22.3989 11.5675C22.4678 11.5275 22.5474 11.51 22.6267 11.5174C22.7059 11.5247 22.7809 11.5565 22.8413 11.6085C22.9016 11.6604 22.9443 11.7298 22.9634 11.8071C22.9825 11.8844 22.9771 11.9657 22.9479 12.0397L22.4879 13.2104C22.5369 13.2435 22.5778 13.2873 22.6075 13.3385C22.6328 13.3821 22.6492 13.4303 22.6558 13.4803C22.6625 13.5303 22.6592 13.5811 22.6461 13.6298C22.6331 13.6785 22.6106 13.7242 22.5799 13.7642C22.5492 13.8042 22.5109 13.8377 22.4672 13.8629L22.0447 14.1059C21.9857 14.1408 21.9186 14.1596 21.85 14.1603Z" fill="#0A0909"/>
<path d="M12.857 27.8223C12.7816 27.8226 12.7077 27.8007 12.6447 27.7592C12.5817 27.7177 12.5323 27.6586 12.5028 27.5891C12.4732 27.5197 12.4648 27.4432 12.4786 27.369C12.4924 27.2948 12.5277 27.2264 12.5802 27.1722L13.915 25.7922L11.9293 26.9422C11.8876 26.9704 11.8407 26.9901 11.7914 27.0002C11.742 27.0102 11.6912 27.0105 11.6418 27.0009C11.5923 26.9913 11.5452 26.9721 11.5032 26.9444C11.4612 26.9166 11.4251 26.8808 11.3969 26.8391C11.3687 26.7973 11.349 26.7505 11.3389 26.7011C11.3288 26.6518 11.3286 26.6009 11.3382 26.5515C11.3477 26.5021 11.367 26.455 11.3947 26.413C11.4225 26.371 11.4583 26.3348 11.5 26.3066L12.0857 25.8305L11.1657 26.3626C11.0844 26.4236 10.9822 26.4498 10.8815 26.4354C10.7809 26.421 10.6901 26.3673 10.6291 26.2859C10.5681 26.2046 10.5419 26.1024 10.5563 26.0017C10.5706 25.9011 10.6244 25.8103 10.7057 25.7493L12.3081 24.2267L10.1821 25.4533C10.1018 25.4996 10.0075 25.5153 9.91664 25.4974C9.82574 25.4795 9.74438 25.4293 9.68762 25.3561C9.63086 25.2829 9.60253 25.1916 9.60789 25.0991C9.61324 25.0066 9.6519 24.9192 9.71673 24.853L10.5302 24.025L10.1821 24.2251C10.1172 24.2625 10.0428 24.2801 9.9681 24.2756C9.89337 24.2712 9.82156 24.245 9.76155 24.2002C9.70155 24.1555 9.65596 24.0941 9.63042 24.0237C9.60488 23.9534 9.6005 23.8771 9.61783 23.8042L9.84247 22.8727C9.76478 22.8409 9.7 22.7839 9.65846 22.711C9.60763 22.6229 9.59386 22.5183 9.62017 22.4201C9.64648 22.3219 9.71072 22.2382 9.79877 22.1873L10.1821 21.9642C10.247 21.9268 10.3215 21.9092 10.3964 21.9136C10.4712 21.918 10.5431 21.9443 10.6031 21.9892C10.6632 22.0341 10.7087 22.0956 10.7342 22.1661C10.7597 22.2366 10.7639 22.313 10.7464 22.3859L10.5708 23.115L12.5795 21.9558C12.6597 21.9095 12.754 21.8939 12.8449 21.9117C12.9358 21.9296 13.0172 21.9798 13.0739 22.053C13.1307 22.1262 13.159 22.2175 13.1537 22.31C13.1483 22.4025 13.1097 22.4899 13.0448 22.5561L12.2322 23.3841L14.72 21.952C14.8017 21.9014 14.8994 21.8834 14.9937 21.9015C15.088 21.9195 15.1722 21.9723 15.2294 22.0495C15.2867 22.1266 15.3129 22.2224 15.3029 22.3179C15.2929 22.4134 15.2474 22.5017 15.1754 22.5653L13.5738 24.0864L15.8853 22.7524C15.9688 22.7045 16.0672 22.6898 16.161 22.7111C16.2549 22.7325 16.3372 22.7883 16.3918 22.8676C16.4463 22.9469 16.4691 23.0437 16.4555 23.139C16.4419 23.2343 16.393 23.3209 16.3185 23.3818L15.7328 23.8571L15.8861 23.7674C15.9661 23.7212 16.0601 23.7055 16.1508 23.7231C16.2415 23.7407 16.3228 23.7905 16.3797 23.8633C16.4366 23.936 16.4654 24.0269 16.4606 24.1192C16.4558 24.2115 16.4179 24.2989 16.3538 24.3654L14.6111 26.1717C14.6749 26.2012 14.7293 26.2476 14.7685 26.3059C14.8077 26.3642 14.8301 26.4322 14.8332 26.5024C14.8364 26.5726 14.8202 26.6423 14.7865 26.7039C14.7527 26.7655 14.7027 26.8166 14.6418 26.8517L13.0433 27.7717C12.9867 27.8045 12.9224 27.8219 12.857 27.8223Z" fill="#916243"/>
<path d="M11.6679 23.2193C11.5874 23.2193 11.509 23.194 11.4438 23.1469C11.3785 23.0999 11.3297 23.0335 11.3042 22.9572C11.2788 22.8808 11.278 22.7984 11.302 22.7216C11.326 22.6449 11.3735 22.5776 11.4379 22.5293L15.0267 19.78L10.1629 22.5875C10.0772 22.6366 9.9758 22.6506 9.87995 22.6267C9.7841 22.6028 9.70118 22.5428 9.64848 22.4593C9.59577 22.3757 9.57736 22.275 9.59708 22.1782C9.61679 22.0814 9.67312 21.996 9.7543 21.9397L13.9265 19.0739L9.04667 21.8899C8.96051 21.9389 8.85872 21.9526 8.76265 21.9282C8.66659 21.9038 8.58372 21.8431 8.53145 21.7588C8.47917 21.6746 8.46155 21.5734 8.48228 21.4765C8.50301 21.3796 8.56048 21.2944 8.64263 21.239L11.6181 19.2617L8.27157 21.1945C8.1852 21.2436 8.08315 21.2573 7.98692 21.2326C7.89069 21.2079 7.80779 21.1469 7.7557 21.0623C7.70361 20.9777 7.6864 20.8761 7.70769 20.7791C7.72898 20.6821 7.78711 20.5971 7.86983 20.5421L9.7244 19.3292L7.68967 20.503C7.60443 20.5462 7.50612 20.556 7.41403 20.5305C7.32193 20.505 7.24268 20.446 7.19181 20.3651C7.14095 20.2842 7.12213 20.1872 7.13907 20.0932C7.156 19.9991 7.20745 19.9148 7.28333 19.8567L11.2991 17.1342L7.10163 19.55C7.01568 19.599 6.91411 19.6129 6.81817 19.5887C6.72223 19.5645 6.63935 19.5042 6.58687 19.4203C6.53439 19.3364 6.51637 19.2355 6.53658 19.1387C6.55679 19.0418 6.61366 18.9565 6.6953 18.9006L10.7924 16.1238L6.67 18.5058C6.58376 18.557 6.48086 18.5724 6.38341 18.5487C6.28595 18.5249 6.20169 18.4639 6.14872 18.3787C6.09574 18.2935 6.07826 18.1909 6.10004 18.093C6.12182 17.9951 6.18111 17.9096 6.2652 17.8549L9.40317 15.7627L6.43157 17.48C6.34547 17.5299 6.24335 17.5444 6.14678 17.5203C6.05022 17.4963 5.96678 17.4357 5.91411 17.3512C5.86144 17.2668 5.84367 17.1652 5.86455 17.0679C5.88543 16.9706 5.94333 16.8853 6.026 16.8299L9.26287 14.6587L6.0766 16.4987C5.99122 16.5479 5.89016 16.5624 5.79441 16.539C5.69865 16.5157 5.61556 16.4564 5.56238 16.3734C5.5092 16.2905 5.49002 16.1902 5.50883 16.0935C5.52763 15.9967 5.58298 15.9109 5.66337 15.8539L10.948 12.1072L4.69277 15.7167C4.60661 15.7657 4.50482 15.7794 4.40875 15.755C4.31269 15.7306 4.22982 15.6699 4.17755 15.5856C4.12527 15.5014 4.10765 15.4002 4.12838 15.3033C4.14911 15.2064 4.20658 15.1212 4.28873 15.0658L6.74667 13.4289L4.18753 14.9055C4.10233 14.953 4.00223 14.9662 3.90764 14.9424C3.81304 14.9187 3.73106 14.8598 3.67838 14.7777C3.62571 14.6956 3.60631 14.5965 3.62413 14.5006C3.64195 14.4047 3.69565 14.3192 3.7743 14.2615L5.64803 12.936L4.06717 13.8483C3.98377 13.8968 3.88514 13.9121 3.79098 13.8911C3.69682 13.8701 3.61404 13.8143 3.55917 13.735C3.5043 13.6556 3.48137 13.5585 3.49495 13.463C3.50854 13.3674 3.55764 13.2806 3.63247 13.2196L6.92913 10.5263L6.4446 10.8062C6.36407 10.8509 6.27012 10.8652 6.17995 10.8463C6.08977 10.8275 6.0094 10.7768 5.95354 10.7035C5.89769 10.6303 5.87009 10.5393 5.87579 10.4474C5.88149 10.3554 5.92012 10.2686 5.9846 10.2028L7.4911 8.70321C7.40081 8.73318 7.30261 8.72851 7.21557 8.69011C7.12854 8.6517 7.05889 8.58231 7.02018 8.49541C6.98146 8.40851 6.97644 8.31032 7.00609 8.21993C7.03574 8.12953 7.09794 8.05339 7.1806 8.00631L9.62934 6.59334C9.70986 6.54859 9.80381 6.53433 9.89399 6.55319C9.98417 6.57204 10.0645 6.62274 10.1204 6.696C10.1762 6.76926 10.2039 6.86019 10.1981 6.95214C10.1924 7.04409 10.1538 7.13091 10.0893 7.19671L8.6043 8.67408L10.6567 7.49034C10.7401 7.44184 10.8387 7.42658 10.9329 7.44759C11.027 7.4686 11.1098 7.52435 11.1647 7.6037C11.2195 7.68306 11.2425 7.78019 11.2289 7.8757C11.2153 7.97122 11.1662 8.0581 11.0914 8.11901L7.7947 10.8131L12.479 8.10828C12.5644 8.06034 12.6648 8.04686 12.7597 8.07059C12.8547 8.09432 12.937 8.15347 12.9897 8.23591C13.0424 8.31835 13.0617 8.41785 13.0434 8.514C13.0251 8.61015 12.9708 8.69567 12.8915 8.75304L11.0193 10.0778L16.6926 6.80034C16.7789 6.74911 16.8818 6.73373 16.9792 6.7575C17.0767 6.78127 17.1609 6.84229 17.2139 6.92748C17.2669 7.01266 17.2844 7.11522 17.2626 7.21314C17.2408 7.31106 17.1815 7.39654 17.0974 7.45124L14.6441 9.08654L17.6893 7.32934C17.7745 7.28189 17.8746 7.26869 17.9692 7.29245C18.0638 7.31621 18.1458 7.37513 18.1985 7.45722C18.2511 7.53931 18.2705 7.63838 18.2527 7.73428C18.2349 7.83017 18.1812 7.91566 18.1025 7.97334L12.8164 11.7216L18.7557 8.29228C18.8418 8.24405 18.9431 8.23084 19.0386 8.25538C19.1341 8.27992 19.2165 8.34033 19.2686 8.42404C19.3207 8.50776 19.3386 8.60834 19.3184 8.70488C19.2983 8.80142 19.2418 8.88649 19.1605 8.94241L15.9229 11.1167L19.2962 9.16858C19.3824 9.11957 19.4842 9.10584 19.5802 9.13027C19.6763 9.1547 19.7592 9.2154 19.8115 9.29961C19.8637 9.38383 19.8814 9.48502 19.8606 9.58195C19.8399 9.67888 19.7824 9.76401 19.7003 9.81948L16.56 11.9102L19.6175 10.1468C19.7034 10.0979 19.805 10.084 19.9009 10.1082C19.9969 10.1323 20.0798 10.1927 20.1322 10.2766C20.1847 10.3604 20.2027 10.4613 20.1825 10.5582C20.1623 10.655 20.1054 10.7403 20.0238 10.7962L15.9336 13.57L20.0897 11.1703C20.1757 11.1214 20.2773 11.1075 20.3732 11.1317C20.4691 11.1558 20.552 11.2162 20.6045 11.3001C20.657 11.3839 20.675 11.4848 20.6548 11.5817C20.6346 11.6785 20.5777 11.7638 20.4961 11.8197L16.4833 14.5421L21.2681 11.7821C21.3545 11.733 21.4565 11.7194 21.5528 11.7441C21.649 11.7687 21.7319 11.8298 21.784 11.9144C21.8361 11.999 21.8533 12.1005 21.832 12.1975C21.8107 12.2946 21.7526 12.3796 21.6698 12.4346L19.8122 13.6467L21.7994 12.4967C21.8853 12.4508 21.9854 12.4394 22.0794 12.4647C22.1734 12.49 22.2543 12.5501 22.3056 12.6328C22.3569 12.7155 22.3749 12.8147 22.3557 12.9102C22.3366 13.0056 22.2819 13.0902 22.2027 13.1468L19.2226 15.1271L22.0156 13.5171C22.1014 13.4681 22.2027 13.4541 22.2986 13.478C22.3944 13.5019 22.4774 13.5618 22.5301 13.6454C22.5828 13.729 22.6012 13.8296 22.5815 13.9264C22.5617 14.0232 22.5054 14.1087 22.4242 14.1649L18.2559 17.0284L19.734 16.1767C19.8182 16.1293 19.9171 16.1155 20.0111 16.1379C20.105 16.1604 20.1871 16.2174 20.2407 16.2978C20.2944 16.3781 20.3158 16.4757 20.3006 16.5711C20.2854 16.6665 20.2347 16.7526 20.1587 16.8122L16.5646 19.5669L19.3614 17.9523C19.4429 17.9085 19.5375 17.8957 19.6278 17.9163C19.718 17.9368 19.7977 17.9893 19.8523 18.064C19.9068 18.1388 19.9325 18.2307 19.9246 18.3229C19.9167 18.4151 19.8756 18.5013 19.8091 18.5656L17.4984 20.6394L17.927 20.3926C17.9706 20.3648 18.0194 20.3462 18.0704 20.3378C18.1214 20.3294 18.1736 20.3315 18.2238 20.3438C18.274 20.3561 18.3212 20.3784 18.3626 20.4094C18.404 20.4404 18.4386 20.4795 18.4645 20.5242C18.4904 20.569 18.5069 20.6185 18.5132 20.6699C18.5194 20.7212 18.5152 20.7732 18.5008 20.8229C18.4864 20.8725 18.4621 20.9188 18.4293 20.9588C18.3966 20.9988 18.3561 21.0318 18.3103 21.0557L14.6978 23.1411C14.6162 23.1848 14.5216 23.1976 14.4314 23.1771C14.3412 23.1565 14.2615 23.1041 14.2069 23.0293C14.1523 22.9546 14.1267 22.8626 14.1346 22.7705C14.1425 22.6783 14.1835 22.5921 14.25 22.5277L16.56 20.4531L11.8573 23.1679C11.7998 23.2016 11.7345 23.2193 11.6679 23.2193Z" fill="#A87552"/>
<path d="M12.7926 41.5288C12.7176 41.5288 12.6443 41.5069 12.5817 41.4657C12.5191 41.4244 12.47 41.3658 12.4403 41.2969C12.4107 41.2281 12.402 41.152 12.4151 41.0782C12.4282 41.0045 12.4627 40.9361 12.5143 40.8817L13.051 40.3129L12.259 40.7729C12.179 40.8196 12.0847 40.8358 11.9937 40.8184C11.9026 40.801 11.821 40.7513 11.7638 40.6783C11.7067 40.6053 11.6779 40.5141 11.6828 40.4216C11.6877 40.329 11.726 40.2414 11.7906 40.1749L12.8854 39.0364L11.4502 39.8644C11.3672 39.9112 11.2697 39.9254 11.1768 39.9042C11.0839 39.8831 11.0022 39.8281 10.9476 39.75C10.8931 39.6719 10.8695 39.5762 10.8817 39.4817C10.8938 39.3872 10.9407 39.3006 11.0132 39.2388L11.2976 39.0003L11.1098 39.1092C11.0291 39.1545 10.9348 39.1692 10.8443 39.1505C10.7537 39.1317 10.6729 39.0809 10.6169 39.0073C10.5608 38.9337 10.5333 38.8423 10.5394 38.75C10.5454 38.6577 10.5846 38.5707 10.6498 38.5051L12.4422 36.7341L11.2493 37.4241C11.1676 37.4715 11.0714 37.4871 10.9789 37.4679C10.8864 37.4487 10.8043 37.3961 10.7483 37.3201C10.6922 37.2441 10.6662 37.1501 10.6752 37.0561C10.6842 36.9621 10.7275 36.8747 10.797 36.8107L12.0052 35.6845L11.362 36.0548C11.2793 36.1017 11.1822 36.1162 11.0895 36.0955C10.9967 36.0748 10.915 36.0204 10.8601 35.9429C10.8052 35.8653 10.781 35.7702 10.7923 35.6758C10.8036 35.5815 10.8495 35.4947 10.9212 35.4323L11.3283 35.0842C11.2585 35.0994 11.1858 35.0942 11.1189 35.0692C11.052 35.0441 10.9938 35.0004 10.9511 34.9431C10.8944 34.8699 10.8661 34.7787 10.8714 34.6862C10.8768 34.5938 10.9154 34.5064 10.9802 34.4402L12.223 33.1714L11.5682 33.5493C11.5017 33.5878 11.4252 33.6054 11.3486 33.5998C11.2719 33.5942 11.1987 33.5657 11.1385 33.518C11.0783 33.4703 11.0337 33.4057 11.0107 33.3324C10.9877 33.2591 10.9872 33.1805 11.0093 33.107L11.3336 32.0336C11.2712 32.0031 11.2183 31.9561 11.1805 31.8977C11.1428 31.8394 11.1216 31.7719 11.1192 31.7024C11.1168 31.633 11.1334 31.5642 11.1671 31.5034C11.2008 31.4426 11.2504 31.3922 11.3106 31.3574L11.7177 31.1228C11.7842 31.0846 11.8607 31.0673 11.9372 31.073C12.0136 31.0787 12.0866 31.1072 12.1467 31.1548C12.2069 31.2025 12.2513 31.267 12.2743 31.3402C12.2973 31.4134 12.2979 31.4917 12.2759 31.5652L12.0244 32.3986L14.2646 31.1044C14.3449 31.0576 14.4394 31.0415 14.5307 31.0591C14.6219 31.0767 14.7037 31.1269 14.7607 31.2004C14.8177 31.2738 14.8461 31.3654 14.8406 31.4582C14.8351 31.551 14.796 31.6386 14.7307 31.7047L13.4872 32.9736L14.4609 32.4116C14.5436 32.3638 14.6413 32.3486 14.7346 32.3691C14.828 32.3896 14.9104 32.4442 14.9656 32.5222C15.0208 32.6002 15.0448 32.6961 15.033 32.7909C15.0212 32.8858 14.9743 32.9728 14.9017 33.0349L14.5713 33.317C14.6542 33.2792 14.7479 33.2722 14.8355 33.2971C14.9232 33.3221 14.999 33.3775 15.0495 33.4534C15.1 33.5293 15.1218 33.6207 15.111 33.7112C15.1002 33.8017 15.0575 33.8854 14.9906 33.9472L13.7831 35.0727L14.6433 34.5767C14.7237 34.5291 14.8187 34.5129 14.9103 34.5312C15.0018 34.5494 15.0834 34.6008 15.1394 34.6756C15.1959 34.7497 15.2235 34.8418 15.2171 34.9348C15.2106 35.0278 15.1704 35.1153 15.1041 35.1808L13.3093 36.9533L14.766 36.11C14.849 36.0632 14.9465 36.049 15.0394 36.0701C15.1323 36.0913 15.214 36.1463 15.2685 36.2244C15.3231 36.3025 15.3466 36.3981 15.3345 36.4927C15.3224 36.5872 15.2755 36.6738 15.203 36.7356L14.8963 36.9924C14.9776 36.9615 15.0671 36.9592 15.1499 36.9858C15.2327 37.0124 15.304 37.0664 15.3521 37.1389C15.4001 37.2114 15.4221 37.2981 15.4144 37.3848C15.4067 37.4714 15.3697 37.5529 15.3096 37.6157L14.2155 38.755L14.95 38.3333C15.0297 38.2878 15.1231 38.2723 15.2132 38.2898C15.3033 38.3072 15.3842 38.3564 15.4411 38.4285C15.498 38.5005 15.5272 38.5906 15.5233 38.6823C15.5194 38.774 15.4828 38.8613 15.42 38.9283L14.2332 40.181C14.2773 40.2217 14.3113 40.2722 14.3323 40.3284C14.3533 40.3846 14.3609 40.445 14.3543 40.5047C14.3478 40.5644 14.3273 40.6217 14.2945 40.672C14.2617 40.7223 14.2176 40.7642 14.1657 40.7943L12.9843 41.4767C12.9261 41.5106 12.86 41.5286 12.7926 41.5288Z" fill="#5E71D3"/>
<path d="M33.8453 45.5937C33.7666 45.5938 33.6897 45.5696 33.6252 45.5245C33.5607 45.4794 33.5117 45.4156 33.4847 45.3417C33.4577 45.2677 33.4542 45.1873 33.4745 45.1112C33.4949 45.0352 33.5381 44.9673 33.5984 44.9167L34.7637 43.9384L31.9846 45.54C31.9052 45.5855 31.8121 45.6012 31.7222 45.5841C31.6323 45.567 31.5515 45.5183 31.4943 45.4468C31.4372 45.3753 31.4075 45.2858 31.4107 45.1943C31.4138 45.1028 31.4496 45.0155 31.5115 44.9481L33.2963 43.0223L31.6457 43.976C31.5762 44.0162 31.4958 44.0335 31.4159 44.0256C31.336 44.0176 31.2606 43.9847 31.2003 43.9316C31.1401 43.8785 31.0981 43.8078 31.0802 43.7295C31.0623 43.6512 31.0694 43.5693 31.1006 43.4953L31.6012 42.307C31.5111 42.333 31.4144 42.3251 31.3297 42.2847C31.245 42.2443 31.178 42.1742 31.1415 42.0877C31.105 42.0012 31.1016 41.9044 31.1318 41.8155C31.1619 41.7266 31.2237 41.6519 31.3053 41.6055L32.2 41.0933C32.2696 41.053 32.3501 41.0356 32.4302 41.0435C32.5102 41.0515 32.5857 41.0844 32.646 41.1377C32.7063 41.1909 32.7483 41.2618 32.7661 41.3402C32.7839 41.4187 32.7765 41.5008 32.7451 41.5748L32.2521 42.7455L35.1133 41.0933C35.1927 41.0478 35.2858 41.0321 35.3757 41.0492C35.4656 41.0663 35.5464 41.115 35.6036 41.1865C35.6607 41.258 35.6904 41.3476 35.6872 41.439C35.6841 41.5305 35.6483 41.6178 35.5864 41.6852L33.8016 43.6111L38.1639 41.0933C38.2468 41.0459 38.3445 41.0312 38.4377 41.0521C38.5309 41.0729 38.613 41.1278 38.6679 41.2059C38.7227 41.2841 38.7464 41.38 38.7343 41.4747C38.7222 41.5695 38.6752 41.6563 38.6024 41.7182L37.4371 42.6964L40.2132 41.0933C40.2957 41.0468 40.3925 41.0324 40.4849 41.0529C40.5774 41.0735 40.6589 41.1276 40.7139 41.2047C40.7689 41.2819 40.7933 41.3766 40.7825 41.4707C40.7718 41.5648 40.7265 41.6516 40.6556 41.7143L39.317 42.8758L42.4051 41.0933C42.4866 41.0496 42.5812 41.0368 42.6715 41.0573C42.7617 41.0779 42.8414 41.1304 42.896 41.2051C42.9505 41.2798 42.9762 41.3718 42.9683 41.4639C42.9604 41.5561 42.9193 41.6423 42.8528 41.7067L41.3586 43.0506L44.6123 41.1731C44.692 41.1269 44.7857 41.1111 44.8761 41.1283C44.9666 41.1456 45.0478 41.1948 45.1049 41.267C45.1621 41.3392 45.1913 41.4296 45.1873 41.5216C45.1833 41.6136 45.1463 41.701 45.0831 41.768L43.3872 43.5574L45.0187 42.6159C45.0934 42.573 45.1804 42.5565 45.2657 42.5691C45.351 42.5817 45.4295 42.6227 45.4886 42.6855C45.5477 42.7482 45.584 42.829 45.5915 42.9149C45.599 43.0008 45.5773 43.0867 45.53 43.1587L44.9098 44.0979C44.989 44.082 45.0713 44.0911 45.1451 44.1241C45.2189 44.1571 45.2805 44.2122 45.3215 44.2819C45.3722 44.3698 45.3859 44.4742 45.3598 44.5722C45.3336 44.6702 45.2697 44.7538 45.182 44.8048L43.9101 45.5385C43.8354 45.5818 43.7483 45.5986 43.6628 45.5862C43.5774 45.5738 43.4987 45.5329 43.4393 45.4702C43.38 45.4073 43.3437 45.3262 43.3364 45.24C43.329 45.1539 43.351 45.0678 43.3987 44.9957L43.9959 44.091L41.4851 45.54C41.4054 45.5856 41.312 45.601 41.2219 45.5836C41.1318 45.5661 41.0509 45.5169 40.994 45.4449C40.9371 45.3728 40.9079 45.2828 40.9118 45.191C40.9157 45.0993 40.9523 45.012 41.0151 44.9451L42.7118 43.1557L38.5794 45.54C38.4979 45.5837 38.4033 45.5965 38.3131 45.576C38.2229 45.5555 38.1431 45.503 38.0886 45.4282C38.034 45.3535 38.0083 45.2616 38.0163 45.1694C38.0242 45.0772 38.0652 44.991 38.1317 44.9267L39.6259 43.5827L36.2281 45.54C36.1456 45.5866 36.0488 45.601 35.9563 45.5804C35.8639 45.5598 35.7823 45.5058 35.7274 45.4286C35.6724 45.3515 35.648 45.2567 35.6587 45.1626C35.6695 45.0685 35.7147 44.9817 35.7857 44.919L37.1243 43.7575L34.04 45.54C33.9811 45.575 33.9138 45.5935 33.8453 45.5937Z" fill="#9EBBCE"/>
<path d="M34.7653 34.6572C34.686 34.6573 34.6087 34.6328 34.544 34.5872C34.4792 34.5416 34.4302 34.477 34.4036 34.4024C34.3771 34.3277 34.3743 34.2467 34.3957 34.1704C34.417 34.0941 34.4615 34.0263 34.523 33.9764L34.6288 33.8905L34.2133 34.1305C34.1309 34.1782 34.0338 34.1936 33.9407 34.1737C33.8477 34.1537 33.7653 34.0999 33.7098 34.0226C33.6542 33.9454 33.6294 33.8502 33.6401 33.7556C33.6508 33.6611 33.6964 33.5739 33.7678 33.511L35.9283 31.6035L33.2013 33.1775C33.1166 33.2268 33.0162 33.2418 32.9208 33.2193C32.8254 33.1969 32.7422 33.1388 32.6883 33.0569C32.6344 32.9751 32.6139 32.8757 32.631 32.7792C32.6482 32.6827 32.7016 32.5964 32.7804 32.5381L33.547 31.9685L32.6654 32.4768C32.5824 32.5236 32.4849 32.5378 32.392 32.5166C32.2991 32.4955 32.2174 32.4405 32.1628 32.3624C32.1083 32.2843 32.0847 32.1886 32.0969 32.0941C32.109 31.9996 32.1559 31.913 32.2284 31.8512L35.42 29.1885L32.0099 31.1581C31.926 31.2061 31.8271 31.2207 31.733 31.199C31.6389 31.1772 31.5564 31.1207 31.5021 31.0408C31.4479 30.9608 31.4258 30.8633 31.4403 30.7678C31.4549 30.6723 31.5049 30.5858 31.5805 30.5256L34.4172 28.277L31.7024 29.844C31.6185 29.8924 31.5194 29.9071 31.425 29.8854C31.3306 29.8636 31.248 29.8069 31.1937 29.7267C31.1394 29.6465 31.1175 29.5487 31.1324 29.453C31.1472 29.3573 31.1978 29.2707 31.2739 29.2108L32.7305 28.0692L31.6572 28.6879C31.5757 28.7311 31.4813 28.7435 31.3915 28.7227C31.3016 28.702 31.2222 28.6495 31.1679 28.575C31.1135 28.5004 31.0879 28.4088 31.0957 28.3169C31.1035 28.225 31.1441 28.1389 31.2102 28.0746L32.6079 26.8234L31.6572 27.3715C31.5858 27.4137 31.5026 27.4316 31.4202 27.4225C31.3377 27.4133 31.2604 27.3777 31.2 27.321C31.1395 27.2642 31.099 27.1893 31.0847 27.1076C31.0704 27.0259 31.083 26.9418 31.1205 26.8678L31.4855 26.1418C31.4172 26.1406 31.3503 26.1225 31.2907 26.089C31.2312 26.0556 31.1809 26.0078 31.1443 25.9501C31.0935 25.8621 31.0797 25.7575 31.106 25.6593C31.1323 25.5611 31.1966 25.4773 31.2846 25.4265L32.1716 24.9144C32.2431 24.8722 32.3262 24.8543 32.4087 24.8635C32.4911 24.8726 32.5684 24.9082 32.6289 24.965C32.6894 25.0217 32.7298 25.0966 32.7441 25.1783C32.7584 25.26 32.7459 25.3441 32.7083 25.4181L32.3733 26.0667L35.42 24.3072C35.5022 24.2597 35.599 24.2444 35.6918 24.2643C35.7846 24.2841 35.8667 24.3376 35.9223 24.4145C35.9779 24.4913 36.003 24.5861 35.9928 24.6804C35.9826 24.7747 35.9377 24.8619 35.867 24.9251L34.4709 26.1748L37.0009 24.7181C37.0848 24.6707 37.1835 24.6566 37.2773 24.6787C37.3711 24.7008 37.4531 24.7574 37.5071 24.8373C37.561 24.9171 37.5829 25.0144 37.5684 25.1097C37.5539 25.2049 37.504 25.2912 37.4287 25.3514L35.972 26.4937L38.525 25.0202C38.6087 24.9724 38.7074 24.958 38.8013 24.9797C38.8952 25.0014 38.9775 25.0578 39.0318 25.1374C39.086 25.2171 39.1082 25.3143 39.094 25.4097C39.0798 25.505 39.0302 25.5915 38.9551 25.6519L36.1238 27.8998L38.8838 26.3051C38.9668 26.2583 39.0643 26.2441 39.1572 26.2652C39.2501 26.2864 39.3318 26.3414 39.3863 26.4195C39.4409 26.4976 39.4644 26.5932 39.4523 26.6878C39.4402 26.7823 39.3933 26.8689 39.3208 26.9307L36.1338 29.5933L38.8853 28.0048C38.97 27.9555 39.0704 27.9405 39.1658 27.963C39.2612 27.9854 39.3444 28.0435 39.3983 28.1254C39.4522 28.2072 39.4727 28.3066 39.4556 28.4031C39.4384 28.4996 39.385 28.5859 39.3062 28.6442L38.5396 29.2161L38.86 29.0306C38.9424 28.9829 39.0395 28.9675 39.1326 28.9874C39.2256 29.0073 39.308 29.0612 39.3635 29.1384C39.4191 29.2157 39.4439 29.3109 39.4332 29.4055C39.4225 29.5 39.3769 29.5872 39.3055 29.6501L37.145 31.5568L38.3931 30.8369C38.4765 30.7893 38.5747 30.7747 38.6683 30.796C38.762 30.8173 38.8442 30.873 38.8987 30.952C38.9533 31.031 38.9762 31.1276 38.9629 31.2227C38.9496 31.3178 38.9012 31.4045 38.8271 31.4655L37.9446 32.1839C38.0182 32.2166 38.0795 32.2719 38.1194 32.3418C38.17 32.4298 38.1837 32.5343 38.1574 32.6323C38.1311 32.7303 38.067 32.8139 37.9791 32.8647L34.96 34.6058C34.901 34.6403 34.8336 34.6581 34.7653 34.6572Z" fill="#009C9D"/>
<path d="M15.6875 25.093C15.7009 25.0885 15.7144 25.0846 15.7282 25.0815C15.7166 25.0244 15.7092 24.9664 15.7059 24.9082C15.6852 24.9675 15.6789 25.0308 15.6875 25.093Z" fill="#262626"/>
<path d="M12.9429 45.5998C13.4374 45.5998 13.9357 45.609 14.4325 45.6167C14.4508 45.6453 14.4759 45.669 14.5057 45.6855C14.5354 45.7021 14.5688 45.7109 14.6028 45.7113C14.6368 45.7117 14.6704 45.7036 14.7005 45.6877C14.7306 45.6719 14.7563 45.6488 14.7752 45.6205C21.5004 45.2678 26.5903 48.0501 25.9823 38.7282H27.9143C28.2701 40.9293 26.6815 45.182 29.89 45.5783C33.5432 45.6006 37.2025 45.5783 40.8572 45.586C41.8999 45.586 43.6364 45.9065 44.6254 45.3698C45.1594 44.9719 45.5416 44.4037 45.7089 43.7591C45.8762 43.1145 45.8185 42.4321 45.5454 41.8247C44.9106 40.7039 43.598 41.1347 42.514 41.0427C42.1935 34.8504 43.1488 28.3644 42.514 22.2211C42.0011 19.7248 39.7624 20.2469 37.7146 20.2469C34.0446 20.4056 30.1085 19.9402 26.565 20.4156C26.1046 20.4437 25.6718 20.6442 25.3528 20.9773C25.0338 21.3104 24.852 21.7515 24.8438 22.2126V30.557C24.2851 29.5998 23.497 28.7966 22.5505 28.2199C21.604 27.6432 20.5288 27.3111 19.422 27.2535C18.4728 26.4814 17.4478 25.7715 16.4726 25.0202C16.4726 24.1768 16.4588 23.309 16.4649 22.458C17.4306 21.9419 18.2688 21.2166 18.9183 20.3351C19.7769 19.1529 19.7892 17.4578 20.6157 16.3645C21.5127 15.1999 22.2333 15.5028 22.6343 13.8345C23.7667 9.32113 24.8507 3.7973 19.1191 2.19267C15.7749 -0.521335 9.44763 -0.431635 6.57647 2.86503C6.24833 3.05517 5.43107 2.96623 4.8714 3.25297C1.34627 5.06 2.7094 11.1167 3.4339 14.0078C3.43641 14.3625 3.51731 14.7122 3.6708 15.032C4.3608 16.376 4.1814 15.4246 4.8093 16.1399C5.46464 16.8761 5.92928 17.762 6.16247 18.7197C6.7956 20.3775 8.01914 21.7427 9.5979 22.553C9.5979 23.4048 9.60787 24.1998 9.57413 25.0616L6.62553 27.2757C-0.821867 28.1489 -0.0176343 36.6068 0.324299 42.3484C0.634799 47.5625 9.3978 45.5998 12.9429 45.5998ZM11.8427 44.9596C9.69603 41.9489 7.49187 38.9643 5.32603 35.962C3.2361 33.8108 5.91023 31.3367 6.62477 29.0314C6.97336 32.682 8.3147 36.1675 10.5033 39.11C10.4627 39.3729 10.6038 39.5163 10.7832 39.4833C13.3561 42.6619 12.982 42.3131 15.4713 39.33C15.5108 39.3068 15.5453 39.2759 15.5727 39.2392C15.6001 39.2024 15.6198 39.1606 15.6308 39.1161C17.797 36.1741 19.1166 32.6952 19.4465 29.0567C20.0169 30.2971 20.5878 31.5373 21.1592 32.7773C21.9014 34.3873 21.8592 34.5038 20.8372 35.9122C18.6699 38.9091 16.4795 41.8922 14.3206 44.8975C13.4943 44.8516 12.6656 44.8723 11.8427 44.9596ZM9.89 25.8857C10.728 26.5466 11.5767 27.0112 12.3648 27.6675C9.1218 31.0347 10.7425 31.0592 7.48957 27.6859L9.89 25.8857ZM16.0632 25.8367L18.5579 27.7081L17.5835 28.75C17.2531 29.0843 16.4619 30.36 15.952 30.1093C15.9298 30.0676 15.8978 30.0319 15.8589 30.0052C15.8199 29.9785 15.7751 29.9616 15.7282 29.956C14.9308 29.0866 14.4172 28.3743 13.6382 27.6092C14.4195 26.9752 15.2666 26.4807 16.0663 25.8367H16.0632ZM15.5725 38.1716L15.0282 31.5545C15.2265 31.3615 15.4129 31.1567 15.5863 30.9411C16.7425 31.6794 17.8863 29.1694 18.7619 28.5645C18.446 31.9679 17.3562 35.254 15.5756 38.1716H15.5725ZM13.0372 28.2379C13.7272 28.9915 14.3995 29.6409 15.0535 30.4466L14.4992 31.0009C13.5708 30.991 12.6347 31.0186 11.7108 31.0009C11.4857 30.8102 11.2729 30.6054 11.0737 30.3876C11.7239 29.6102 12.3602 28.9654 13.0372 28.2379ZM10.0993 31.0055C10.1859 30.9973 10.2708 30.9767 10.3515 30.9442C10.5749 31.2309 10.8295 31.4919 11.1105 31.7224C10.9296 33.9278 10.7484 36.1333 10.567 38.3387C8.70973 35.3926 7.58898 32.0427 7.29943 28.5721C8.22173 29.3043 8.84197 30.8683 10.0993 31.0055ZM11.2424 39.0072L11.8243 31.9324C12.5989 31.875 13.3764 31.8681 14.1519 31.9117C14.352 34.3168 14.5429 36.7249 14.7476 39.1291C14.5259 39.3796 14.253 39.5795 13.9472 39.7153C13.6415 39.851 13.3102 39.9194 12.9757 39.9158C12.6412 39.9123 12.3114 39.8368 12.0086 39.6946C11.7059 39.5524 11.4372 39.3467 11.2209 39.0916C11.2307 39.0642 11.2379 39.036 11.2424 39.0072ZM44.781 43.1764C44.446 45.9816 38.9543 44.8807 37.0676 44.8807H31.4272C32.4423 43.5911 31.129 41.7826 33.3285 41.7527C36.1575 41.5572 39.0701 41.8523 41.9152 41.7527C41.9707 41.8 42.0412 41.826 42.1141 41.826C42.1871 41.826 42.2576 41.8 42.3131 41.7527C43.5904 41.8071 45.0302 41.262 44.781 43.1764ZM40.158 21.1531C41.9367 21.6583 41.6085 22.2717 41.8163 23.5673C42.3898 29.2874 41.5541 35.2812 41.8163 41.0389C38.6607 41.2267 35.2996 40.6962 32.1839 41.0473C30.7985 41.4353 30.981 42.274 30.981 43.5973C30.9726 45.1153 28.8696 45.3606 28.819 43.7207V22.254C28.8048 21.855 28.6668 21.4702 28.4242 21.1531C32.2912 21.3333 36.3316 20.8411 40.158 21.1531ZM26.6394 21.0833C26.8257 21.2152 27.0955 21.1301 27.314 21.1531C27.4961 21.2639 27.6469 21.4193 27.752 21.6048C27.857 21.7902 27.9129 21.9995 27.9143 22.2126V37.9385H25.9701C25.6389 32.6332 25.7746 27.5348 25.7523 22.254C25.761 21.9911 25.8509 21.7374 26.0098 21.5277C26.1686 21.318 26.3886 21.1628 26.6394 21.0833ZM24.8576 35.5657C24.8576 36.3247 24.9404 37.227 25.011 38.1608C24.8661 38.3548 24.8385 38.6147 25.0485 38.6975C26.141 45.4833 21.0718 45.5592 15.2804 44.9566C17.5582 41.9466 20.4585 38.8654 22.09 35.5496C23.1633 33.3715 20.9637 30.2657 19.79 28.0577C23.68 28.7155 24.8576 31.97 24.8576 35.5657ZM3.9468 12.3027C3.2131 8.9746 2.53843 3.99893 6.86473 3.44233C6.96142 3.42687 7.05259 3.3871 7.12969 3.32675C7.2068 3.26641 7.26732 3.18747 7.30557 3.09733C8.01243 1.33937 11.4502 1.15 12.8907 1.15C13.9551 1.08899 15.0208 1.24182 16.0251 1.59945C17.0294 1.95708 17.9519 2.51228 18.7381 3.23227C23.1135 5.8098 23.0107 7.76097 22.1206 12.4185C21.5679 11.6365 20.7797 11.257 20.2086 10.2411C19.5554 9.07963 19.491 8.26236 18.3218 7.40447C15.5925 5.4027 16.09 8.08143 13.1453 8.0454C10.3692 8.01167 10.6613 5.64113 8.119 7.26723C7.17459 7.90131 6.4391 8.80086 6.0053 9.85243C5.37357 11.1857 4.60997 11.3191 3.9468 12.3027ZM6.26137 15.9214C4.89823 15.2968 4.69839 13.96 5.66183 11.9109L6.07047 11.6763C6.0996 11.5728 6.49213 11.1144 6.53047 11.0162C8.97 4.43133 10.5946 10.3638 14.7668 8.43333C16.064 7.83457 15.998 7.15683 17.4409 7.8775C19.0892 8.70013 18.8868 10.2404 19.6903 11.5291C20.5106 12.8432 20.9254 10.1491 21.7933 13.8659C21.5311 14.306 19.793 16.4389 19.4296 17.1534C18.4644 19.0555 18.1531 20.7897 16.1376 21.8676C11.5506 24.2811 6.9 20.6111 6.26137 15.9214ZM11.9531 23.3235C13.2353 23.4872 14.5379 23.3119 15.7312 22.8152C15.742 23.5206 15.722 24.1952 15.7059 24.9082C15.7611 24.7817 15.9014 24.9082 15.8892 24.9956C15.8776 25.0098 15.8668 25.0247 15.857 25.0401C15.8255 25.0639 15.7696 25.0631 15.7282 25.0815C15.7519 25.1712 15.7144 25.2693 15.7282 25.3583C15.707 25.2711 15.6924 25.1824 15.6845 25.093C14.7438 25.6335 13.9848 26.5244 13.1016 27.0817C12.2177 26.3436 11.2929 25.6558 10.3316 25.0217C10.3316 24.3125 10.3316 23.6026 10.3316 22.8934C10.8532 23.1003 11.3975 23.2446 11.9531 23.3235ZM1.20903 37.1005C1.20903 33.1683 1.18833 28.7308 6.29587 28.0355C5.13667 30.2511 2.82823 33.4267 3.9675 35.6178C5.69327 38.939 8.52303 42.0041 10.7947 45.0432C2.54227 45.5653 0.0674658 45.2379 1.20903 37.1005Z" fill="#262626"/>
<path d="M31.6426 31.6572C33.2166 34.6993 35.5212 36.212 37.9661 32.926C39.7156 30.8261 39.5309 28.3544 39.5309 25.8006C39.4327 25.1551 39.0839 25.0148 38.4759 24.8699C37.5045 24.5375 36.5008 24.3083 35.4813 24.186C33.9899 24.2514 32.5317 24.6479 31.2125 25.3468C30.7173 25.9992 31.0017 27.3531 31.0025 28.0922C30.9372 29.3141 31.1564 30.5344 31.6426 31.6572ZM31.8642 26.2645C32.1256 24.8224 37.9446 24.7618 38.6707 26.0237C39.504 30.0702 36.2173 37.6893 32.5672 31.4372C31.8145 29.8239 31.5693 28.0201 31.8642 26.2645Z" fill="#262626"/>
<path d="M34.7101 30.13C35.5963 30.6667 35.9275 29.0567 36.4381 28.5721C36.7103 28.1635 35.8731 27.7993 35.6285 28.1658L34.8987 29.2606C34.6173 28.8052 33.7318 29.1126 34.1987 29.6186L34.7101 30.13Z" fill="#262626"/>
<path d="M39.1514 37.1358H31.4847C31.0515 37.1358 30.8468 37.9975 31.382 37.9975H39.0486C39.4833 37.9975 39.6865 37.1358 39.1514 37.1358Z" fill="#262626"/>
</g>
<defs>
<clipPath id="clip0_15_986">
<rect width="46" height="46" fill="white"/>
</clipPath>
</defs>
</svg>
