<svg width="40" height="40" viewBox="0 0 40 40" fill="none" xmlns="http://www.w3.org/2000/svg">
<g clip-path="url(#clip0_15_1112)">
<path d="M7.83 10.2867C7.76227 10.2867 7.69615 10.2661 7.64042 10.2276C7.58469 10.1891 7.542 10.1346 7.51804 10.0713C7.49408 10.0079 7.48998 9.93878 7.50629 9.87305C7.5226 9.80732 7.55854 9.74812 7.60933 9.70333L9.13866 8.35266L6.16333 10.07C6.09045 10.111 6.00483 10.1231 5.92345 10.1039C5.84206 10.0847 5.77086 10.0357 5.72396 9.96645C5.67705 9.89723 5.65788 9.81291 5.67024 9.73021C5.68259 9.64751 5.72558 9.57248 5.79066 9.51999L8.114 7.69066L4.96133 9.51066C4.88725 9.55361 4.79949 9.5664 4.71623 9.54639C4.63297 9.52638 4.56061 9.47509 4.51414 9.40317C4.46768 9.33124 4.45068 9.24419 4.46666 9.16007C4.48265 9.07594 4.53039 9.0012 4.6 8.95133L6.22933 7.77933L4.236 8.93333C4.16241 8.9743 4.07603 8.9859 3.99424 8.96579C3.91244 8.94568 3.8413 8.89534 3.7951 8.82491C3.74891 8.75448 3.73109 8.66917 3.74523 8.58613C3.75937 8.5031 3.80442 8.4285 3.87133 8.37733L6.57533 6.36799L3.57533 8.10133C3.50143 8.14188 3.41492 8.15294 3.3332 8.13227C3.25148 8.11159 3.18062 8.06072 3.1349 7.98991C3.08918 7.91909 3.07199 7.83358 3.08679 7.75059C3.10159 7.6676 3.14728 7.59331 3.21466 7.54266L5.22133 6.10466L3.168 7.29066C3.1314 7.31482 3.09041 7.33154 3.04735 7.33986C3.00429 7.34818 2.96002 7.34794 2.91706 7.33915C2.8741 7.33036 2.83328 7.31319 2.79696 7.28863C2.76063 7.26407 2.72949 7.23259 2.70533 7.19599C2.68117 7.1594 2.66445 7.1184 2.65613 7.07535C2.64781 7.03229 2.64805 6.98802 2.65684 6.94505C2.66563 6.90209 2.6828 6.86128 2.70736 6.82495C2.73192 6.78862 2.7634 6.75749 2.8 6.73333L5.63666 4.58799L2.88866 6.17466C2.8157 6.21588 2.72989 6.22811 2.64831 6.20891C2.56674 6.18971 2.49539 6.14048 2.44848 6.07104C2.40157 6.0016 2.38253 5.91703 2.39517 5.83418C2.40781 5.75134 2.45118 5.67629 2.51666 5.62399L5.02266 3.66666L2.91466 4.88266C2.84196 4.92148 2.75746 4.93199 2.67747 4.91216C2.59747 4.89233 2.52766 4.84357 2.4815 4.77529C2.43535 4.70701 2.41613 4.62405 2.42754 4.54243C2.43896 4.46081 2.48021 4.38632 2.54333 4.33333L3.72466 3.41199L3.28466 3.66599C3.21247 3.70737 3.12741 3.72025 3.0462 3.7021C2.96499 3.68394 2.89351 3.63608 2.84581 3.5679C2.7981 3.49972 2.77762 3.41617 2.78838 3.33365C2.79915 3.25114 2.84039 3.17564 2.904 3.12199L3.83733 2.34399C3.79115 2.31198 3.75382 2.26881 3.72879 2.21851C3.70377 2.1682 3.69187 2.11238 3.6942 2.05624C3.69652 2.0001 3.71301 1.94546 3.74211 1.8974C3.77121 1.84933 3.812 1.8094 3.86066 1.78133L5.98066 0.556659C6.05284 0.515961 6.13758 0.503602 6.21837 0.521992C6.29916 0.540381 6.37021 0.588201 6.41766 0.656127C6.4651 0.724053 6.48555 0.807216 6.47502 0.889401C6.46448 0.971585 6.42371 1.0469 6.36066 1.10066L6.286 1.16399L7.58 0.416659C7.65305 0.375185 7.73906 0.362823 7.82084 0.382043C7.90261 0.401264 7.97411 0.450651 8.02104 0.520324C8.06797 0.589997 8.08686 0.674819 8.07393 0.757822C8.06101 0.840824 8.01722 0.915886 7.95133 0.967992L6.77066 1.88666L8.822 0.702659C8.89496 0.661434 8.98077 0.649206 9.06235 0.668408C9.14392 0.687611 9.21527 0.736835 9.26218 0.806279C9.30909 0.875722 9.32813 0.960287 9.31549 1.04313C9.30286 1.12598 9.25948 1.20102 9.194 1.25333L6.68733 3.21133L9.954 1.32733C10.0274 1.28556 10.1139 1.27319 10.196 1.29273C10.2782 1.31227 10.3498 1.36225 10.3966 1.43258C10.4433 1.50291 10.4616 1.58835 10.4477 1.67165C10.4339 1.75494 10.3889 1.82988 10.322 1.88133L7.48066 4.02933L10.78 2.12466C10.8539 2.0841 10.9404 2.07305 11.0221 2.09372C11.1039 2.11439 11.1747 2.16526 11.2204 2.23608C11.2661 2.3069 11.2833 2.39241 11.2685 2.47539C11.2537 2.55838 11.208 2.63268 11.1407 2.68333L9.13333 4.12199L11.2807 2.88266C11.3543 2.8408 11.4411 2.82854 11.5234 2.84836C11.6058 2.86819 11.6775 2.91861 11.724 2.98939C11.7705 3.06017 11.7883 3.146 11.7738 3.22945C11.7593 3.31289 11.7136 3.38769 11.646 3.43866L8.94 5.44533L11.6607 3.87533C11.7346 3.83388 11.8215 3.82216 11.9038 3.84255C11.9861 3.86294 12.0575 3.9139 12.1035 3.98507C12.1496 4.05624 12.1668 4.14227 12.1516 4.22567C12.1365 4.30906 12.0901 4.38356 12.022 4.43399L10.3913 5.60666L11.8 4.79266C11.873 4.74973 11.9596 4.7362 12.0423 4.75483C12.1249 4.77346 12.1973 4.82284 12.2448 4.89295C12.2924 4.96306 12.3114 5.04863 12.2982 5.13228C12.2849 5.21593 12.2402 5.29139 12.1733 5.34333L9.85 7.17199L11.6853 6.11266C11.7569 6.07115 11.8414 6.05776 11.9223 6.07509C12.0033 6.09243 12.0748 6.13924 12.1231 6.20643C12.1715 6.27363 12.1931 6.35639 12.1837 6.43862C12.1744 6.52085 12.1348 6.59667 12.0727 6.65133L10.544 7.99999L10.918 7.78466C10.9559 7.76054 10.9984 7.74435 11.0427 7.73705C11.0871 7.72975 11.1325 7.73151 11.1761 7.7422C11.2198 7.7529 11.2608 7.77232 11.2968 7.79929C11.3328 7.82626 11.3629 7.86023 11.3854 7.89915C11.4079 7.93807 11.4223 7.98114 11.4277 8.02577C11.4331 8.0704 11.4295 8.11566 11.417 8.15884C11.4044 8.20201 11.3833 8.24221 11.3548 8.27701C11.3264 8.31181 11.2912 8.34049 11.2513 8.36133L8 10.2413C7.94854 10.2717 7.88974 10.2874 7.83 10.2867Z" fill="#009C9D"/>
<path d="M7.30065 23.6467C7.22985 23.6466 7.16092 23.624 7.10384 23.5821C7.04676 23.5402 7.0045 23.4812 6.98319 23.4137C6.96187 23.3462 6.9626 23.2736 6.98528 23.2066C7.00796 23.1395 7.0514 23.0814 7.10931 23.0407L7.53931 22.7387L6.04398 23.6C5.96999 23.6409 5.88321 23.6522 5.80124 23.6315C5.71926 23.6108 5.6482 23.5598 5.60244 23.4887C5.55669 23.4176 5.53965 23.3318 5.55479 23.2486C5.56993 23.1654 5.61611 23.0911 5.68398 23.0407L8.04865 21.354L4.15798 23.6C4.08404 23.6414 3.99709 23.6532 3.91482 23.6328C3.83255 23.6124 3.76114 23.5614 3.7151 23.4903C3.66907 23.4191 3.65188 23.3331 3.66703 23.2497C3.68218 23.1663 3.72853 23.0918 3.79665 23.0413L8.34665 19.7607L1.79331 23.5447C1.71916 23.5854 1.6323 23.5964 1.55033 23.5755C1.46836 23.5545 1.39743 23.5032 1.3519 23.4319C1.30637 23.3606 1.28965 23.2746 1.30514 23.1915C1.32063 23.1083 1.36717 23.0341 1.43531 22.984L7.37265 18.8127L0.884646 22.558C0.809726 22.6006 0.72121 22.6126 0.637677 22.5913C0.554143 22.5701 0.482087 22.5173 0.43663 22.4441C0.391173 22.3708 0.37585 22.2828 0.393876 22.1985C0.411903 22.1143 0.461878 22.0402 0.533313 21.992L4.52931 19.3293L0.853313 21.4513C0.778283 21.4927 0.690225 21.5035 0.607408 21.4816C0.524591 21.4598 0.45337 21.4069 0.408521 21.3339C0.363672 21.2609 0.348637 21.1735 0.366535 21.0897C0.384433 21.0059 0.43389 20.9323 0.504646 20.884L2.82465 19.3647L0.853313 20.5027C0.778906 20.5454 0.6909 20.5577 0.607605 20.5372C0.524309 20.5167 0.452139 20.4648 0.406109 20.3924C0.360078 20.32 0.343732 20.2327 0.360471 20.1485C0.37721 20.0644 0.425746 19.9899 0.49598 19.9407L5.65531 16.3407L0.855313 19.1127C0.780623 19.156 0.692026 19.1687 0.608181 19.148C0.524337 19.1273 0.451789 19.0749 0.405818 19.0018C0.359847 18.9287 0.344042 18.8406 0.36173 18.7561C0.379418 18.6716 0.42922 18.5972 0.500646 18.5487L4.02131 16.1427L0.853313 17.97C0.777726 18.0164 0.686798 18.0309 0.600531 18.0103C0.514265 17.9896 0.439726 17.9356 0.393313 17.86C0.3469 17.7844 0.332415 17.6935 0.353044 17.6072C0.373673 17.521 0.427726 17.4464 0.503313 17.4L1.16531 16.9647L0.853313 17.1447C0.779235 17.1876 0.691469 17.2004 0.608211 17.1804C0.524954 17.1604 0.452592 17.1091 0.406127 17.0372C0.359662 16.9653 0.342659 16.8782 0.358644 16.7941C0.374628 16.71 0.422373 16.6352 0.49198 16.5853L4.01198 14.052L0.951313 15.8187C0.8786 15.8533 0.795791 15.8605 0.718203 15.8388C0.640615 15.8172 0.573498 15.7681 0.529265 15.7008C0.485032 15.6335 0.466676 15.5524 0.477592 15.4726C0.488509 15.3928 0.527959 15.3196 0.588646 15.2667L2.93331 13.564L1.33331 14.4887C1.26232 14.5293 1.17886 14.5424 1.09882 14.5255C1.01878 14.5086 0.947751 14.4629 0.89925 14.397C0.850749 14.3312 0.828166 14.2497 0.835799 14.1683C0.843432 14.0869 0.880749 14.0111 0.940646 13.9553L2.95465 12.0973C2.88003 12.1283 2.79672 12.1311 2.72021 12.1052C2.64369 12.0793 2.57917 12.0265 2.53865 11.9567C2.49439 11.8802 2.48231 11.7893 2.50506 11.7039C2.52781 11.6185 2.58353 11.5457 2.65998 11.5013L5.20665 10.0293C5.27762 9.98925 5.36082 9.97656 5.44052 9.99366C5.52022 10.0108 5.59089 10.0565 5.63916 10.1222C5.68744 10.1878 5.70998 10.2689 5.70251 10.3501C5.69504 10.4313 5.65809 10.5069 5.59865 10.5627L3.59398 12.412L8.11465 9.8C8.18852 9.75798 8.27567 9.74576 8.35825 9.76586C8.44084 9.78595 8.51263 9.83683 8.55894 9.90809C8.60526 9.97936 8.62261 10.0656 8.60743 10.1493C8.59226 10.2329 8.54571 10.3076 8.47731 10.358L6.13331 12.0667L9.45998 10.146C9.53406 10.1031 9.62182 10.0903 9.70508 10.1103C9.78834 10.1303 9.8607 10.1816 9.90716 10.2535C9.95363 10.3254 9.97063 10.4125 9.95465 10.4966C9.93866 10.5807 9.89092 10.6555 9.82131 10.7053L6.30265 13.2313L10.6533 10.7193C10.7285 10.6728 10.8192 10.6581 10.9052 10.6784C10.9913 10.6988 11.0658 10.7524 11.1123 10.8277C11.1588 10.9029 11.1735 10.9935 11.1532 11.0796C11.1329 11.1657 11.0792 11.2402 11.004 11.2867L10.342 11.722L11.2926 11.1733C11.3672 11.1307 11.4554 11.1185 11.5387 11.1393C11.6221 11.1601 11.6942 11.2122 11.74 11.2849C11.7858 11.3575 11.8018 11.4451 11.7847 11.5293C11.7676 11.6134 11.7186 11.6877 11.648 11.7367L8.12598 14.1433L12.0506 11.8767C12.1251 11.834 12.2131 11.8216 12.2964 11.8421C12.3796 11.8627 12.4518 11.9145 12.4979 11.9869C12.5439 12.0593 12.5602 12.1467 12.5435 12.2308C12.5267 12.315 12.4782 12.3894 12.408 12.4387L7.24865 16.0387L12.7913 12.8387C12.8662 12.7979 12.9539 12.7874 13.0363 12.8093C13.1187 12.8313 13.1896 12.8839 13.2344 12.9565C13.2791 13.0291 13.2944 13.1161 13.2769 13.1996C13.2595 13.2831 13.2107 13.3567 13.1406 13.4053L10.8166 14.9333L13.1833 13.5667C13.2581 13.5247 13.3462 13.5132 13.4293 13.5346C13.5123 13.5559 13.5839 13.6085 13.6293 13.6812C13.6746 13.754 13.6901 13.8415 13.6726 13.9255C13.6551 14.0094 13.6059 14.0834 13.5353 14.132L9.54265 16.7933L13.5333 14.486C13.6075 14.4453 13.6943 14.4343 13.7763 14.4552C13.8583 14.4762 13.9292 14.5275 13.9747 14.5988C14.0203 14.6701 14.037 14.756 14.0215 14.8392C14.006 14.9224 13.9595 14.9965 13.8913 15.0467L7.95398 19.2187L13.716 15.892C13.7899 15.8506 13.8769 15.8388 13.9591 15.8592C14.0414 15.8796 14.1128 15.9306 14.1589 16.0017C14.2049 16.0729 14.2221 16.159 14.2069 16.2423C14.1918 16.3257 14.1454 16.4002 14.0773 16.4507L9.52731 19.7333L13.7333 17.3027C13.8075 17.2604 13.895 17.2481 13.9779 17.2685C14.0608 17.2888 14.1327 17.3402 14.1789 17.412C14.225 17.4838 14.2419 17.5705 14.226 17.6544C14.21 17.7382 14.1626 17.8128 14.0933 17.8627L11.7333 19.5487L13.7526 18.3833C13.8269 18.3412 13.9146 18.3292 13.9975 18.3498C14.0804 18.3704 14.1522 18.422 14.1982 18.494C14.2441 18.566 14.2606 18.653 14.2443 18.7368C14.2281 18.8207 14.1802 18.8951 14.1106 18.9447L13.6773 19.2487L13.764 19.1993C13.8365 19.1591 13.9214 19.1474 14.0022 19.1665C14.0829 19.1855 14.1536 19.234 14.2005 19.3024C14.2474 19.3708 14.2671 19.4542 14.2558 19.5363C14.2445 19.6185 14.203 19.6935 14.1393 19.7467L12.7326 20.88L13.7786 20.2767C13.8507 20.2361 13.9353 20.2238 14.016 20.2422C14.0966 20.2605 14.1676 20.3082 14.215 20.3759C14.2625 20.4437 14.2831 20.5266 14.2728 20.6087C14.2625 20.6908 14.222 20.7661 14.1593 20.82L13.8086 21.1147C13.8746 21.0821 13.9494 21.0722 14.0216 21.0866C14.0937 21.101 14.159 21.1388 14.2074 21.1942C14.2558 21.2496 14.2845 21.3194 14.2891 21.3928C14.2936 21.4662 14.2738 21.5391 14.2326 21.6L13.7293 22.3427C13.7949 22.3338 13.8616 22.3447 13.9209 22.3739C13.9803 22.4031 14.0296 22.4493 14.0626 22.5067C14.1066 22.5832 14.1185 22.674 14.0956 22.7592C14.0728 22.8445 14.017 22.9171 13.9406 22.9613L12.8393 23.598C12.7741 23.6354 12.6981 23.6496 12.6238 23.6383C12.5495 23.6271 12.4811 23.5911 12.4299 23.5361C12.3786 23.4811 12.3474 23.4104 12.3414 23.3355C12.3354 23.2606 12.3548 23.1858 12.3966 23.1233L12.868 22.428L10.834 23.6C10.7619 23.6406 10.6773 23.6528 10.5966 23.6345C10.516 23.6162 10.445 23.5685 10.3976 23.5007C10.3501 23.433 10.3295 23.35 10.3398 23.268C10.3501 23.1859 10.3906 23.1106 10.4533 23.0567L10.8033 22.7627L9.35198 23.6C9.27933 23.6411 9.19392 23.6534 9.11261 23.6346C9.03131 23.6157 8.96003 23.5671 8.91287 23.4982C8.86571 23.4294 8.8461 23.3453 8.8579 23.2627C8.86971 23.1801 8.91208 23.1049 8.97665 23.052L10.3833 21.9187L7.46665 23.6C7.41636 23.6299 7.35911 23.6459 7.30065 23.6467Z" fill="#009C9D"/>
<path d="M12.7666 24.0667C12.7003 24.0667 12.6356 24.0469 12.5806 24.0099C12.5256 23.9729 12.4829 23.9203 12.4579 23.8589C12.4329 23.7975 12.4268 23.7301 12.4404 23.6652C12.4539 23.6003 12.4865 23.5409 12.534 23.4947L14.4266 21.6427L11.8146 23.1507C11.7416 23.1936 11.655 23.2071 11.5724 23.1885C11.4897 23.1699 11.4173 23.1205 11.3698 23.0504C11.3222 22.9803 11.3032 22.8947 11.3165 22.811C11.3298 22.7274 11.3744 22.6519 11.4413 22.6L12.8273 21.5067L11.2113 22.44C11.1383 22.4807 11.0526 22.4925 10.9713 22.473C10.89 22.4535 10.819 22.4042 10.7724 22.3348C10.7257 22.2655 10.7069 22.1811 10.7195 22.0984C10.7321 22.0158 10.7754 21.9409 10.8406 21.8887L12.5893 20.5307L10.7173 21.6113C10.6438 21.6534 10.5571 21.666 10.4747 21.6465C10.3923 21.6269 10.3204 21.5768 10.2737 21.5062C10.2269 21.4356 10.2088 21.3498 10.223 21.2663C10.2371 21.1829 10.2825 21.1079 10.35 21.0567L12.0466 19.7813L10.3853 20.74C10.3127 20.7809 10.2275 20.7931 10.1464 20.7743C10.0652 20.7555 9.99407 20.707 9.94691 20.6383C9.89975 20.5697 9.88 20.4859 9.89154 20.4034C9.90309 20.3209 9.9451 20.2457 10.0093 20.1927L12.276 18.3607L10.1953 19.5607C10.1221 19.6027 10.0356 19.6154 9.9534 19.5961C9.87118 19.5769 9.79933 19.5272 9.75236 19.457C9.70539 19.3869 9.68679 19.3015 9.70033 19.2181C9.71387 19.1348 9.75853 19.0597 9.82529 19.008L10.4686 18.5133L10.186 18.676C10.115 18.7145 10.0326 18.726 9.95381 18.7083C9.87506 18.6907 9.8054 18.645 9.75776 18.5799C9.71013 18.5147 9.68774 18.4345 9.69476 18.3541C9.70179 18.2737 9.73775 18.1986 9.79596 18.1427L10.804 17.2333L10.186 17.59C10.1224 17.6266 10.0485 17.6412 9.97573 17.6315C9.903 17.6218 9.8355 17.5884 9.78369 17.5364C9.73188 17.4845 9.69866 17.4169 9.68919 17.3441C9.67972 17.2713 9.69452 17.1975 9.73129 17.134L9.96729 16.7273C9.90058 16.7144 9.8394 16.6815 9.79195 16.6328C9.7445 16.5842 9.71305 16.5222 9.7018 16.4552C9.69056 16.3882 9.70007 16.3193 9.72905 16.2579C9.75803 16.1964 9.8051 16.1453 9.86396 16.1113L10.6353 15.666C10.6989 15.6291 10.7729 15.6143 10.8458 15.6238C10.9187 15.6334 10.9864 15.6668 11.0384 15.7188C11.0904 15.7709 11.1236 15.8386 11.1331 15.9115C11.1425 15.9844 11.1276 16.0584 11.0906 16.122L10.936 16.3887L13.2066 15.078C13.2775 15.0395 13.36 15.028 13.4388 15.0457C13.5175 15.0633 13.5872 15.109 13.6348 15.1741C13.6825 15.2393 13.7048 15.3195 13.6978 15.3999C13.6908 15.4803 13.6548 15.5554 13.5966 15.6113L12.5873 16.522L14.4973 15.4193C14.5705 15.3773 14.657 15.3646 14.7392 15.3839C14.8214 15.4031 14.8933 15.4528 14.9402 15.523C14.9872 15.5932 15.0058 15.6785 14.9923 15.7619C14.9787 15.8452 14.9341 15.9203 14.8673 15.972L14.22 16.47L15.6333 15.6547C15.7059 15.6131 15.7915 15.6003 15.873 15.6188C15.9546 15.6374 16.0263 15.6859 16.0737 15.7549C16.1211 15.8238 16.1409 15.908 16.1291 15.9909C16.1173 16.0737 16.0748 16.1491 16.01 16.202L13.7433 18.0327L16.4766 16.454C16.5501 16.4119 16.6368 16.3994 16.7192 16.4189C16.8016 16.4384 16.8735 16.4886 16.9203 16.5592C16.967 16.6298 16.9851 16.7155 16.971 16.799C16.9568 16.8825 16.9114 16.9575 16.844 17.0087L15.1486 18.2833L16.4766 17.5167C16.5496 17.476 16.6353 17.4642 16.7166 17.4837C16.7979 17.5031 16.8689 17.5525 16.9156 17.6218C16.9622 17.6912 16.9811 17.7756 16.9684 17.8582C16.9558 17.9409 16.9125 18.0157 16.8473 18.068L15.1 19.4233L16.48 18.6233C16.553 18.5813 16.6391 18.5685 16.7212 18.5874C16.8033 18.6063 16.8752 18.6556 16.9224 18.7254C16.9696 18.7951 16.9886 18.8802 16.9757 18.9634C16.9627 19.0466 16.9188 19.1219 16.8526 19.174L15.4666 20.2707L16.38 19.7433C16.4502 19.7028 16.5329 19.6893 16.6124 19.7053C16.6919 19.7214 16.7629 19.7659 16.8119 19.8305C16.861 19.8951 16.8848 19.9754 16.8789 20.0563C16.8731 20.1372 16.8379 20.2132 16.78 20.27L14.8873 22.1227L15.534 21.7493C15.6101 21.7095 15.6988 21.7006 15.7813 21.7246C15.8639 21.7485 15.934 21.8034 15.9771 21.8779C16.0201 21.9523 16.0327 22.0405 16.0122 22.124C15.9918 22.2075 15.9398 22.2799 15.8673 22.326L12.9333 24.02C12.8829 24.0503 12.8254 24.0664 12.7666 24.0667Z" fill="#009C9D"/>
<path d="M32.9427 25.6327C32.8754 25.6328 32.8096 25.6125 32.754 25.5745C32.6985 25.5365 32.6557 25.4825 32.6314 25.4197C32.6071 25.357 32.6023 25.2883 32.6178 25.2228C32.6333 25.1572 32.6682 25.0979 32.718 25.0527L34.7493 23.2033L31.1453 25.284C31.0728 25.327 30.9866 25.3409 30.9043 25.3229C30.8219 25.305 30.7493 25.2564 30.7013 25.1871C30.6533 25.1178 30.6333 25.0328 30.6455 24.9493C30.6576 24.8659 30.7009 24.7901 30.7667 24.7373L33.888 22.176L29.8413 24.5093C29.7683 24.5523 29.6817 24.5658 29.5991 24.5472C29.5165 24.5285 29.444 24.4791 29.3965 24.409C29.349 24.3389 29.3299 24.2534 29.3432 24.1697C29.3565 24.0861 29.4011 24.0106 29.468 23.9587L32.9847 21.186L28.956 23.512C28.882 23.5538 28.7947 23.5658 28.7122 23.5454C28.6296 23.5251 28.5579 23.4739 28.5119 23.4024C28.4658 23.331 28.4488 23.2446 28.4643 23.161C28.4798 23.0774 28.5267 23.0028 28.5953 22.9527L30.5427 21.562L28.5333 22.7227C28.4605 22.7642 28.3747 22.7768 28.2931 22.7579C28.2114 22.739 28.1399 22.69 28.0927 22.6207C28.0455 22.5514 28.0262 22.4669 28.0385 22.384C28.0509 22.3011 28.094 22.2259 28.1593 22.1733L31.59 19.4573L28.2067 21.41C28.1332 21.4512 28.0469 21.4631 27.9651 21.4433C27.8832 21.4235 27.8119 21.3734 27.7655 21.3031C27.719 21.2329 27.7009 21.1477 27.7147 21.0646C27.7286 20.9815 27.7733 20.9068 27.84 20.8553L29.84 19.348L28.24 20.2713C28.1668 20.3118 28.0812 20.3232 27.9999 20.3034C27.9187 20.2837 27.8479 20.2341 27.8015 20.1646C27.7551 20.095 27.7365 20.0106 27.7495 19.928C27.7624 19.8454 27.8059 19.7707 27.8713 19.7187L28.938 18.9L28.5673 19.1133C28.4954 19.1547 28.4107 19.1679 28.3296 19.1501C28.2486 19.1324 28.1771 19.085 28.1291 19.0173C28.0811 18.9497 28.06 18.8665 28.0701 18.7842C28.0801 18.7018 28.1205 18.6262 28.1833 18.572L29.2 17.6973C29.1475 17.6694 29.1035 17.628 29.0724 17.5773C29.0413 17.5266 29.0243 17.4686 29.0233 17.4091C29.0222 17.3497 29.037 17.2911 29.0662 17.2393C29.0954 17.1875 29.1379 17.1445 29.1893 17.1147L31.3113 15.89C31.3831 15.8494 31.4674 15.8368 31.548 15.8548C31.6285 15.8727 31.6995 15.9198 31.7473 15.9871C31.795 16.0543 31.8162 16.1369 31.8066 16.2189C31.797 16.3008 31.7573 16.3763 31.6953 16.4307L31.318 16.7553L33.0327 15.7653C33.106 15.7239 33.1922 15.7117 33.2741 15.7312C33.3561 15.7507 33.4275 15.8005 33.4742 15.8706C33.5209 15.9407 33.5394 16.0258 33.5258 16.109C33.5123 16.1921 33.4678 16.267 33.4013 16.3187L32.3333 17.1393L34.2067 16.058C34.2801 16.0168 34.3664 16.0049 34.4483 16.0247C34.5301 16.0445 34.6014 16.0946 34.6479 16.1649C34.6943 16.2351 34.7124 16.3203 34.6986 16.4034C34.6848 16.4865 34.64 16.5612 34.5733 16.6127L32.578 18.118L35.2067 16.6C35.2796 16.5582 35.3656 16.5455 35.4474 16.5644C35.5293 16.5834 35.601 16.6325 35.6482 16.702C35.6954 16.7715 35.7146 16.8563 35.7019 16.9394C35.6893 17.0224 35.6457 17.0977 35.58 17.15L32.1493 19.8667L36.1767 17.542C36.2507 17.5002 36.3379 17.4882 36.4205 17.5086C36.5031 17.5289 36.5747 17.5801 36.6208 17.6516C36.6669 17.723 36.6839 17.8094 36.6684 17.893C36.6529 17.9766 36.606 18.0512 36.5373 18.1013L34.5887 19.4927L36.6553 18.3013C36.7282 18.2596 36.8142 18.2469 36.8961 18.2658C36.978 18.2847 37.0497 18.3338 37.0968 18.4033C37.144 18.4729 37.1632 18.5576 37.1506 18.6407C37.1379 18.7238 37.0944 18.799 37.0287 18.8513L33.5107 21.6253L37.074 19.5687C37.1464 19.5267 37.232 19.5135 37.3137 19.5318C37.3954 19.55 37.4673 19.5984 37.515 19.6672C37.5627 19.7359 37.5828 19.8202 37.5712 19.9031C37.5597 19.986 37.5174 20.0615 37.4527 20.1147L34.3313 22.6767L37.0927 21.0827C37.1636 21.0431 37.2466 21.0308 37.326 21.0481C37.4053 21.0654 37.4756 21.1111 37.5237 21.1766C37.5718 21.2421 37.5942 21.3229 37.5869 21.4038C37.5796 21.4847 37.543 21.5602 37.484 21.616L35.4507 23.4667L36.3807 22.9333C36.4186 22.9092 36.461 22.893 36.5054 22.8857C36.5498 22.8784 36.5951 22.8802 36.6388 22.8909C36.6825 22.9016 36.7235 22.921 36.7595 22.948C36.7955 22.9749 36.8256 23.0089 36.8481 23.0478C36.8706 23.0867 36.885 23.1298 36.8904 23.1744C36.8958 23.2191 36.8922 23.2643 36.8796 23.3075C36.8671 23.3507 36.846 23.3909 36.8175 23.4257C36.7891 23.4605 36.7538 23.4892 36.714 23.51L33.1093 25.5913C33.0585 25.6198 33.0009 25.634 32.9427 25.6327Z" fill="#009C9D"/>
<path d="M28.414 38.98C28.3433 38.98 28.2744 38.9575 28.2173 38.9157C28.1602 38.874 28.1178 38.8152 28.0964 38.7478C28.0749 38.6804 28.0755 38.6079 28.0979 38.5408C28.1204 38.4737 28.1636 38.4156 28.2213 38.3747L33.1447 34.8907L26.678 38.624C26.6029 38.6667 26.5142 38.6786 26.4305 38.6571C26.3468 38.6357 26.2747 38.5826 26.2294 38.509C26.1841 38.4354 26.1692 38.3472 26.1877 38.2628C26.2062 38.1784 26.2567 38.1045 26.3287 38.0567L28.9027 36.372L26.2413 37.9053C26.1663 37.9467 26.0782 37.9575 25.9954 37.9356C25.9126 37.9138 25.8414 37.8609 25.7965 37.7879C25.7517 37.7149 25.7367 37.6275 25.7546 37.5437C25.7724 37.4599 25.8219 37.3863 25.8927 37.338L28.502 35.632L26.2133 36.956C26.1382 36.998 26.0497 37.0093 25.9664 36.9875C25.8831 36.9657 25.8115 36.9126 25.7665 36.8392C25.7215 36.7657 25.7067 36.6778 25.7251 36.5937C25.7435 36.5096 25.7938 36.4359 25.8653 36.388L27.8167 35.1167L26.2267 36.0347C26.1525 36.0764 26.0651 36.0881 25.9826 36.0674C25.9 36.0468 25.8285 35.9954 25.7826 35.9237C25.7367 35.852 25.72 35.7655 25.7359 35.6819C25.7518 35.5983 25.799 35.5239 25.868 35.474L31.4193 31.5607L26.246 34.5467C26.1719 34.5896 26.0842 34.6024 26.0009 34.5824C25.9176 34.5624 25.8453 34.5111 25.7988 34.4392C25.7523 34.3672 25.7353 34.2802 25.7513 34.1961C25.7673 34.112 25.8151 34.0372 25.8847 33.9873L30.9907 30.3207L26.2667 33.0487C26.1918 33.0894 26.1041 33.0999 26.0216 33.078C25.9392 33.0561 25.8683 33.0034 25.8236 32.9308C25.7788 32.8582 25.7636 32.7712 25.781 32.6877C25.7985 32.6042 25.8473 32.5306 25.9173 32.482L26.2347 32.2733C26.1633 32.3003 26.0848 32.3023 26.0122 32.2789C25.9395 32.2555 25.8769 32.2082 25.8347 32.1447C25.7882 32.0729 25.7711 31.9861 25.7869 31.9021C25.8026 31.8181 25.8501 31.7434 25.9193 31.6933L29.2653 29.28L26.3253 30.9773C26.2511 31.0201 26.1632 31.0327 26.0799 31.0124C25.9967 30.9922 25.9244 30.9406 25.8782 30.8684C25.8319 30.7963 25.8153 30.7091 25.8316 30.625C25.848 30.5408 25.8961 30.4662 25.966 30.4167L27.566 29.2833L26.6847 29.7913C26.6137 29.8314 26.5305 29.8441 26.4508 29.827C26.3711 29.8099 26.3004 29.7642 26.2521 29.6985C26.2039 29.6328 26.1813 29.5517 26.1888 29.4706C26.1963 29.3894 26.2332 29.3138 26.2927 29.258L28.278 27.4333C28.1997 27.4602 28.1143 27.4571 28.0382 27.4244C27.9622 27.3918 27.901 27.332 27.8665 27.2568C27.8321 27.1815 27.8269 27.0961 27.852 27.0173C27.877 26.9384 27.9305 26.8716 28.002 26.83L30.5467 25.3633C30.6176 25.3238 30.7006 25.3115 30.7799 25.3288C30.8593 25.3461 30.9296 25.3918 30.9777 25.4573C31.0258 25.5228 31.0482 25.6036 31.0409 25.6845C31.0336 25.7654 30.997 25.8408 30.938 25.8967L28.972 27.7033L33.4253 25.132C33.4996 25.0892 33.5874 25.0766 33.6707 25.0969C33.754 25.1172 33.8262 25.1687 33.8725 25.2409C33.9187 25.3131 33.9354 25.4002 33.919 25.4844C33.9027 25.5685 33.8546 25.6431 33.7847 25.6927L32.1887 26.826L34.6333 25.4147C34.7073 25.3722 34.7947 25.3597 34.8776 25.3798C34.9605 25.3999 35.0326 25.4509 35.079 25.5225C35.1254 25.5941 35.1425 25.6807 35.127 25.7646C35.1114 25.8485 35.0643 25.9232 34.9953 25.9733L31.6493 28.3873L35.8413 25.9667C35.9164 25.924 36.0052 25.9121 36.0889 25.9336C36.1725 25.955 36.2446 26.0081 36.2899 26.0817C36.3352 26.1552 36.3502 26.2435 36.3317 26.3279C36.3131 26.4123 36.2626 26.4862 36.1907 26.534L35.912 26.7167L36.4827 26.388C36.5567 26.3451 36.6445 26.3323 36.7278 26.3523C36.811 26.3723 36.8834 26.4236 36.9299 26.4955C36.9763 26.5674 36.9933 26.6545 36.9773 26.7386C36.9613 26.8227 36.9136 26.8975 36.844 26.9473L31.7413 30.614L37.4747 27.3033C37.5489 27.2617 37.6362 27.2499 37.7188 27.2706C37.8013 27.2912 37.8729 27.3426 37.9187 27.4143C37.9646 27.486 37.9813 27.5725 37.9654 27.6561C37.9495 27.7397 37.9023 27.8141 37.8333 27.864L32.274 31.7733L38.224 28.3387C38.299 28.2984 38.3865 28.2884 38.4686 28.3106C38.5508 28.3328 38.6213 28.3856 38.6658 28.4581C38.7103 28.5306 38.7253 28.6174 38.7079 28.7007C38.6905 28.784 38.6418 28.8574 38.572 28.906L36.62 30.1787L38.5867 29.0453C38.6619 29.0016 38.7513 28.989 38.8357 29.0103C38.9201 29.0315 38.9928 29.0849 39.0383 29.1591C39.0838 29.2333 39.0986 29.3223 39.0793 29.4072C39.0601 29.4921 39.0084 29.5661 38.9353 29.6133L36.328 31.318L38.8753 29.8473C38.9502 29.8066 39.0379 29.7961 39.1203 29.818C39.2028 29.8399 39.2736 29.8926 39.3184 29.9652C39.3632 30.0378 39.3784 30.1248 39.3609 30.2083C39.3435 30.2918 39.2947 30.3654 39.2247 30.414L36.654 32.0973L39.068 30.704C39.1422 30.6612 39.2301 30.6486 39.3134 30.6689C39.3966 30.6892 39.4689 30.7408 39.5152 30.8129C39.5614 30.8851 39.5781 30.9722 39.5617 31.0564C39.5454 31.1405 39.4972 31.2151 39.4273 31.2647L34.5013 34.75L39.1467 32.0667C39.2203 32.0248 39.3071 32.0125 39.3894 32.0324C39.4718 32.0522 39.5435 32.1026 39.59 32.1734C39.6365 32.2442 39.6543 32.33 39.6398 32.4135C39.6253 32.4969 39.5796 32.5717 39.512 32.6227L35.718 35.4313L39.1467 33.4527C39.2195 33.4111 39.3053 33.3986 39.3869 33.4175C39.4686 33.4364 39.5402 33.4853 39.5873 33.5546C39.6345 33.6239 39.6538 33.7084 39.6415 33.7914C39.6291 33.8743 39.586 33.9495 39.5207 34.002L36.8593 36.12L39.1467 34.8C39.2176 34.762 39.2998 34.7508 39.3783 34.7687C39.4567 34.7866 39.5261 34.8322 39.5735 34.8972C39.6209 34.9622 39.6433 35.0421 39.6364 35.1223C39.6295 35.2024 39.5938 35.2774 39.536 35.3333L37.9447 36.7627L39.1447 36.0693C39.21 36.0318 39.2862 36.0175 39.3607 36.0288C39.4352 36.0401 39.5037 36.0763 39.555 36.1316C39.6062 36.1868 39.6373 36.2578 39.6431 36.3329C39.6488 36.4081 39.6289 36.4829 39.5867 36.5453L38.8533 37.626L39.058 37.5087C39.0959 37.4846 39.1384 37.4684 39.1827 37.4611C39.2271 37.4538 39.2725 37.4555 39.3161 37.4662C39.3598 37.4769 39.4008 37.4963 39.4368 37.5233C39.4728 37.5503 39.5029 37.5842 39.5254 37.6232C39.5479 37.6621 39.5623 37.7052 39.5677 37.7498C39.5731 37.7944 39.5695 37.8397 39.557 37.8828C39.5444 37.926 39.5233 37.9662 39.4948 38.001C39.4664 38.0358 39.4312 38.0645 39.3913 38.0853L37.9247 38.9327C37.8593 38.9702 37.7832 38.9845 37.7087 38.9732C37.6341 38.9619 37.5656 38.9257 37.5144 38.8704C37.4631 38.8152 37.432 38.7442 37.4263 38.6691C37.4205 38.5939 37.4404 38.5191 37.4827 38.4567L38.216 37.376L35.5193 38.9333C35.4484 38.9714 35.3662 38.9825 35.2877 38.9646C35.2093 38.9468 35.1399 38.9011 35.0925 38.8362C35.0451 38.7712 35.0227 38.6912 35.0296 38.6111C35.0365 38.5309 35.0722 38.4559 35.13 38.4L36.7207 36.97L33.3153 38.9333C33.2425 38.9757 33.1563 38.9889 33.0741 38.9702C32.992 38.9516 32.9199 38.9026 32.8724 38.833C32.825 38.7634 32.8056 38.6784 32.8183 38.5951C32.8309 38.5118 32.8747 38.4364 32.9407 38.384L35.6 36.2667L30.9813 38.9333C30.9077 38.9752 30.8209 38.9875 30.7386 38.9676C30.6562 38.9478 30.5845 38.8974 30.538 38.8266C30.4915 38.7558 30.4737 38.67 30.4882 38.5865C30.5027 38.5031 30.5484 38.4283 30.616 38.3773L34.4107 35.5673L28.5807 38.9333C28.5302 38.9633 28.4727 38.9794 28.414 38.98Z" fill="#009C9D"/>
<path d="M26.366 39.544C26.2988 39.5439 26.2332 39.5236 26.1778 39.4856C26.1224 39.4476 26.0797 39.3938 26.0554 39.3312C26.0311 39.2686 26.0263 39.2 26.0417 39.1346C26.057 39.0692 26.0917 39.01 26.1413 38.9647L27.1293 38.0667L25.6413 38.926C25.5687 38.9676 25.4831 38.9804 25.4015 38.9618C25.3199 38.9433 25.2483 38.8947 25.2009 38.8258C25.1535 38.7569 25.1337 38.6726 25.1455 38.5898C25.1573 38.507 25.1998 38.4316 25.2646 38.3787L26.404 37.458L24.9593 38.292C24.8863 38.334 24.8001 38.3469 24.718 38.3279C24.636 38.309 24.5641 38.2597 24.5169 38.19C24.4697 38.1202 24.4506 38.0352 24.4636 37.9519C24.4765 37.8687 24.5205 37.7935 24.5866 37.7413L26.1533 36.5053L24.3746 37.532C24.3009 37.5733 24.2143 37.5851 24.1323 37.565C24.0502 37.5448 23.9789 37.4943 23.9327 37.4236C23.8864 37.3529 23.8688 37.2673 23.8833 37.1841C23.8977 37.1009 23.9432 37.0263 24.0106 36.9753L24.986 36.2567L23.9933 36.8287C23.9203 36.8699 23.8345 36.8821 23.7529 36.8629C23.6714 36.8437 23.6 36.7945 23.5531 36.725C23.5062 36.6556 23.4872 36.571 23.4998 36.4882C23.5124 36.4053 23.5558 36.3303 23.6213 36.278L26.0546 34.3707L23.642 35.76C23.5692 35.8036 23.4827 35.8178 23.3998 35.7998C23.317 35.7818 23.2441 35.733 23.196 35.6631C23.1479 35.5933 23.1283 35.5078 23.141 35.424C23.1538 35.3402 23.198 35.2644 23.2646 35.212L25.2646 33.5887L23.52 34.6C23.4495 34.6418 23.3662 34.6561 23.2858 34.6404C23.2054 34.6246 23.1337 34.5798 23.0842 34.5146C23.0348 34.4493 23.0111 34.3681 23.0177 34.2865C23.0243 34.2048 23.0607 34.1285 23.12 34.072L24.8306 32.4173L23.52 33.1713C23.4581 33.2073 23.3863 33.2224 23.3151 33.2144C23.244 33.2064 23.1773 33.1758 23.125 33.1269C23.0726 33.0781 23.0374 33.0137 23.0245 32.9433C23.0116 32.8729 23.0217 32.8002 23.0533 32.736L23.3833 32.0613C23.3084 32.0656 23.2343 32.0446 23.1729 32.0015C23.1115 31.9585 23.0663 31.896 23.0448 31.8241C23.0233 31.7523 23.0267 31.6753 23.0543 31.6056C23.082 31.5359 23.1324 31.4775 23.1973 31.44L23.9686 30.9947C24.0305 30.9587 24.1023 30.9436 24.1734 30.9516C24.2446 30.9595 24.3112 30.9902 24.3636 31.0391C24.4159 31.0879 24.4512 31.1523 24.4641 31.2227C24.477 31.2931 24.4669 31.3658 24.4353 31.43L24.1326 32.048L26.8433 30.484C26.9137 30.4422 26.9971 30.4279 27.0774 30.4436C27.1578 30.4594 27.2295 30.5042 27.279 30.5694C27.3284 30.6347 27.3521 30.7159 27.3456 30.7975C27.339 30.8791 27.3026 30.9555 27.2433 31.012L25.5333 32.6667L28.5786 30.9087C28.6513 30.8651 28.7379 30.8508 28.8208 30.8688C28.9036 30.8868 28.9765 30.9357 29.0246 31.0055C29.0726 31.0753 29.0923 31.1609 29.0796 31.2447C29.0668 31.3285 29.0226 31.4043 28.956 31.4567L26.9559 33.08L29.8 31.4347C29.8731 31.3914 29.9599 31.3777 30.0428 31.3963C30.1257 31.4149 30.1983 31.4645 30.2459 31.5348C30.2935 31.6052 30.3124 31.6911 30.2988 31.775C30.2851 31.8588 30.24 31.9343 30.1726 31.986L27.7406 33.892L29.8126 32.696C29.8863 32.6538 29.9734 32.6413 30.056 32.6611C30.1386 32.6809 30.2106 32.7315 30.2571 32.8026C30.3037 32.8736 30.3213 32.9598 30.3065 33.0435C30.2917 33.1271 30.2454 33.2019 30.1773 33.2527L29.2 33.9733L29.8126 33.62C29.8855 33.579 29.9711 33.5669 30.0525 33.5861C30.1339 33.6053 30.2051 33.6543 30.252 33.7235C30.2989 33.7928 30.3181 33.8771 30.3057 33.9598C30.2934 34.0425 30.2504 34.1175 30.1853 34.17L28.6186 35.406L29.7666 34.7433C29.8393 34.7007 29.9255 34.6871 30.0077 34.7054C30.09 34.7237 30.1623 34.7725 30.2101 34.842C30.2578 34.9114 30.2775 34.9964 30.2651 35.0798C30.2527 35.1632 30.2092 35.2387 30.1433 35.2913L29.0053 36.21L29.462 35.9467C29.5329 35.9071 29.6159 35.8948 29.6952 35.9121C29.7746 35.9294 29.8449 35.9751 29.893 36.0406C29.941 36.1061 29.9635 36.1869 29.9562 36.2678C29.9489 36.3487 29.9123 36.4242 29.8533 36.48L28.6486 37.5793C28.7187 37.5865 28.7847 37.6156 28.8372 37.6626C28.8896 37.7096 28.9259 37.772 28.9407 37.8409C28.9555 37.9097 28.9481 37.9815 28.9196 38.0459C28.8911 38.1103 28.8429 38.164 28.782 38.1993L26.5333 39.4993C26.4826 39.529 26.4247 39.5445 26.366 39.544Z" fill="#009C9D"/>
<path d="M13.354 29.474C13.2906 29.474 13.2285 29.4558 13.175 29.4218C13.1216 29.3877 13.0789 29.3391 13.0521 29.2816C13.0253 29.2241 13.0155 29.1602 13.0237 29.0974C13.0319 29.0345 13.0579 28.9753 13.0986 28.9267L13.4713 28.482C13.4076 28.5058 13.3381 28.5094 13.2722 28.4926C13.2064 28.4757 13.1472 28.4391 13.1027 28.3877C13.0583 28.3362 13.0306 28.2724 13.0234 28.2048C13.0162 28.1372 13.0299 28.069 13.0626 28.0093L13.354 27.4807C13.2837 27.4737 13.2175 27.4446 13.1648 27.3976C13.1121 27.3506 13.0758 27.288 13.0609 27.219C13.0461 27.1499 13.0536 27.078 13.0823 27.0135C13.111 26.9489 13.1594 26.8952 13.2206 26.86L14 26.4127C14.0631 26.3761 14.1364 26.3613 14.2088 26.3704C14.2811 26.3795 14.3485 26.4121 14.4005 26.4631C14.4526 26.5142 14.4865 26.5809 14.497 26.6531C14.5074 26.7253 14.494 26.7989 14.4586 26.8627L14.2273 27.2827L14.768 26.97C14.8358 26.931 14.9152 26.9171 14.9923 26.9307C15.0693 26.9444 15.1391 26.9847 15.1895 27.0446C15.2398 27.1046 15.2674 27.1803 15.2675 27.2586C15.2676 27.3368 15.2402 27.4126 15.19 27.4727L14.826 27.9067L15.426 27.56C15.5022 27.5202 15.5908 27.5113 15.6734 27.5352C15.7559 27.5592 15.826 27.6141 15.8691 27.6886C15.9121 27.763 15.9247 27.8512 15.9042 27.9347C15.8838 28.0182 15.8319 28.0905 15.7593 28.1367L13.5213 29.4293C13.4704 29.4587 13.4127 29.4741 13.354 29.474Z" fill="#F76031"/>
<path d="M13.4213 38.6C13.3508 38.6 13.282 38.5777 13.225 38.5361C13.168 38.4946 13.1256 38.4361 13.1039 38.3689C13.0823 38.3018 13.0825 38.2295 13.1046 38.1625C13.1266 38.0955 13.1694 38.0372 13.2267 37.996L14.3553 37.1853L13.5147 37.6707C13.4414 37.7121 13.3551 37.7243 13.2732 37.7048C13.1913 37.6853 13.1198 37.6355 13.0731 37.5654C13.0264 37.4953 13.008 37.4101 13.0215 37.327C13.035 37.2439 13.0795 37.169 13.146 37.1173L16.006 34.9313L13.502 36.3767C13.429 36.4206 13.3419 36.4349 13.2586 36.4166C13.1753 36.3984 13.1022 36.3489 13.0544 36.2784C13.0065 36.2078 12.9874 36.1217 13.0011 36.0375C13.0148 35.9534 13.0602 35.8777 13.128 35.826L15.628 33.8493L11.4347 36.2667C11.3601 36.3081 11.2726 36.3194 11.19 36.2983C11.1074 36.2771 11.036 36.2251 10.9906 36.153C10.9451 36.0808 10.9291 35.994 10.9457 35.9103C10.9624 35.8267 11.0104 35.7526 11.08 35.7033L11.4307 35.4633L10.0393 36.2633C9.96498 36.3068 9.87671 36.3197 9.79301 36.2995C9.70931 36.2793 9.63667 36.2275 9.59031 36.155C9.54395 36.0824 9.52746 35.9947 9.5443 35.9103C9.56114 35.8259 9.61001 35.7512 9.68066 35.702L11.7073 34.2847L8.27932 36.2667C8.20535 36.3091 8.11791 36.3216 8.03501 36.3015C7.95211 36.2815 7.88005 36.2304 7.83367 36.1588C7.78728 36.0872 7.77011 36.0006 7.78567 35.9167C7.80123 35.8329 7.84835 35.7582 7.91732 35.708L11.7613 32.9353L5.98999 36.2687C5.91595 36.3105 5.82872 36.3225 5.74616 36.3021C5.66359 36.2817 5.59193 36.2306 5.54584 36.1591C5.49976 36.0876 5.48273 36.0013 5.49825 35.9176C5.51377 35.834 5.56066 35.7595 5.62932 35.7093L10.572 32.1693L3.47132 36.2667C3.39612 36.308 3.30785 36.3188 3.22491 36.2967C3.14197 36.2746 3.07075 36.2214 3.02607 36.1481C2.9814 36.0748 2.96671 35.9871 2.98508 35.9033C3.00344 35.8194 3.05344 35.7459 3.12466 35.698L3.55399 35.4227L2.09999 36.2667C2.02569 36.3088 1.93804 36.3208 1.85514 36.3002C1.77223 36.2796 1.7004 36.228 1.65446 36.156C1.60853 36.084 1.592 35.9971 1.60829 35.9132C1.62457 35.8293 1.67243 35.7549 1.74199 35.7053L5.02999 33.398L1.07532 35.678C1.00108 35.7208 0.913204 35.7334 0.829938 35.7131C0.746672 35.6928 0.674415 35.6413 0.628172 35.5691C0.581929 35.4969 0.565252 35.4098 0.581605 35.3256C0.597958 35.2415 0.646084 35.1669 0.71599 35.1173L3.35066 33.2547L0.853323 34.696C0.780272 34.7375 0.694256 34.7498 0.612482 34.7306C0.530708 34.7114 0.459206 34.662 0.412279 34.5923C0.365353 34.5227 0.346463 34.4378 0.359388 34.3548C0.372313 34.2718 0.4161 34.1968 0.48199 34.1447L3.19999 32.0233L0.853323 33.3773C0.781449 33.4181 0.696999 33.4307 0.616354 33.4127C0.535709 33.3947 0.464618 33.3474 0.416868 33.28C0.369118 33.2126 0.348114 33.1298 0.357929 33.0478C0.367745 32.9657 0.40768 32.8903 0.46999 32.836L2.10266 31.436L0.853323 32.1587C0.782169 32.1996 0.698394 32.2129 0.618059 32.1959C0.537725 32.179 0.466482 32.1329 0.41799 32.0667C0.369262 32.0004 0.346732 31.9185 0.354731 31.8367C0.36273 31.7549 0.400693 31.6789 0.461323 31.6233L0.963323 31.164L0.853323 31.2307C0.785816 31.2691 0.707021 31.2827 0.630541 31.2692C0.554062 31.2557 0.4847 31.2159 0.434432 31.1567C0.384163 31.0975 0.356144 31.0226 0.355211 30.9449C0.354278 30.8673 0.380491 30.7917 0.429323 30.7313L0.772657 30.3107C0.695211 30.2852 0.630072 30.2317 0.58999 30.1607C0.545945 30.0843 0.533983 29.9935 0.556725 29.9083C0.579468 29.823 0.635059 29.7503 0.711323 29.706L1.81732 29.0667C1.88483 29.0283 1.96363 29.0147 2.04011 29.0282C2.11658 29.0417 2.18595 29.0815 2.23621 29.1407C2.28648 29.1999 2.3145 29.2748 2.31544 29.3524C2.31637 29.4301 2.29016 29.5056 2.24132 29.566L2.09866 29.74L3.27332 29.062C3.3443 29.0219 3.4275 29.0092 3.5072 29.0263C3.5869 29.0434 3.65757 29.0891 3.70584 29.1548C3.75412 29.2205 3.77665 29.3016 3.76919 29.3828C3.76172 29.4639 3.72477 29.5396 3.66532 29.5953L3.16266 30.0547L4.88932 29.0547C4.9612 29.0139 5.04565 29.0013 5.12629 29.0193C5.20694 29.0373 5.27803 29.0846 5.32578 29.152C5.37353 29.2194 5.39453 29.3022 5.38472 29.3842C5.3749 29.4663 5.33497 29.5417 5.27266 29.596L3.63932 30.996L7.00732 29.052C7.08037 29.0105 7.16639 28.9982 7.24816 29.0174C7.32994 29.0366 7.40144 29.086 7.44837 29.1557C7.49529 29.2253 7.51418 29.3102 7.50126 29.3932C7.48833 29.4762 7.44455 29.5512 7.37866 29.6033L4.65999 31.7287L9.29799 29.0513C9.37223 29.0085 9.46011 28.996 9.54338 29.0162C9.62664 29.0365 9.6989 29.0881 9.74514 29.1602C9.79138 29.2324 9.80806 29.3196 9.79171 29.4037C9.77536 29.4878 9.72723 29.5624 9.65732 29.612L7.02199 31.4787L11.2267 29.0513C11.301 29.0092 11.3886 28.9972 11.4715 29.0178C11.5544 29.0384 11.6262 29.09 11.6722 29.162C11.7181 29.234 11.7346 29.321 11.7184 29.4048C11.7021 29.4887 11.6542 29.5631 11.5847 29.6127L8.30132 31.9133L15.5887 27.7067C15.6638 27.6664 15.7515 27.6565 15.8337 27.679C15.9159 27.7014 15.9864 27.7545 16.0307 27.8273C16.075 27.9001 16.0898 27.9871 16.0719 28.0704C16.054 28.1538 16.0049 28.2271 15.9347 28.2753L15.4967 28.5567L16.1307 28.1907C16.2047 28.1488 16.2919 28.1369 16.3745 28.1572C16.4571 28.1776 16.5287 28.2288 16.5748 28.3002C16.6209 28.3717 16.6379 28.4581 16.6224 28.5417C16.6069 28.6253 16.56 28.6998 16.4913 28.75L11.548 32.2907L17.1187 29.0747C17.1926 29.0322 17.2801 29.0197 17.363 29.0398C17.4459 29.0599 17.5179 29.1109 17.5643 29.1825C17.6107 29.2541 17.6279 29.3407 17.6123 29.4246C17.5968 29.5085 17.5496 29.5832 17.4807 29.6333L13.6387 32.4047L18.016 29.8773C18.0529 29.8538 18.0941 29.8377 18.1372 29.8301C18.1803 29.8225 18.2245 29.8234 18.2672 29.8328C18.31 29.8423 18.3504 29.86 18.3863 29.8851C18.4222 29.9102 18.4528 29.9421 18.4763 29.979C18.4999 30.0159 18.5159 30.0571 18.5236 30.1002C18.5312 30.1433 18.5303 30.1875 18.5208 30.2302C18.5114 30.273 18.4936 30.3134 18.4685 30.3493C18.4435 30.3852 18.4116 30.4158 18.3747 30.4393L16.3447 31.8593L18.7073 30.4953C18.782 30.452 18.8706 30.4393 18.9545 30.46C19.0383 30.4807 19.1108 30.5331 19.1568 30.6062C19.2028 30.6793 19.2186 30.7674 19.2009 30.8519C19.1832 30.9364 19.1334 31.0108 19.062 31.0593L18.712 31.2973L19.2547 30.9853C19.3275 30.9431 19.4137 30.93 19.4958 30.9487C19.5779 30.9673 19.6499 31.0164 19.6973 31.086C19.7451 31.1555 19.7647 31.2404 19.7524 31.3238C19.74 31.4072 19.6965 31.4827 19.6307 31.5353L17.1267 33.5133L20.1373 31.7753C20.2106 31.733 20.2973 31.7201 20.3798 31.7394C20.4622 31.7586 20.5343 31.8085 20.5813 31.8789C20.6283 31.9493 20.6468 32.035 20.6329 32.1185C20.619 32.2021 20.5739 32.2772 20.5067 32.3287L17.6487 34.5133L19.836 33.2507C19.9101 33.2077 19.9978 33.1949 20.0811 33.2149C20.1643 33.235 20.2367 33.2862 20.2832 33.3582C20.3296 33.4301 20.3466 33.5171 20.3307 33.6013C20.3147 33.6854 20.2669 33.7601 20.1973 33.81L17.2927 35.8953C17.3236 35.9208 17.3498 35.9515 17.37 35.986C17.4142 36.0626 17.4262 36.1535 17.4033 36.2389C17.3804 36.3243 17.3245 36.3971 17.248 36.4413L13.588 38.554C13.5375 38.5839 13.48 38.5998 13.4213 38.6Z" fill="#F76031"/>
<path d="M26.9813 11C26.908 11 26.8366 10.9758 26.7784 10.9311C26.7202 10.8865 26.6784 10.8238 26.6594 10.753C26.6404 10.6821 26.6453 10.6069 26.6734 10.5391C26.7015 10.4713 26.7511 10.4147 26.8147 10.378L38.2207 3.79201C38.2942 3.75049 38.3807 3.73842 38.4628 3.75825C38.5449 3.77808 38.6164 3.82832 38.6629 3.89883C38.7094 3.96934 38.7273 4.05486 38.7132 4.13811C38.699 4.22137 38.6538 4.29614 38.5867 4.34734L34.32 7.53201L39.1153 4.76401C39.1894 4.72274 39.2765 4.71127 39.3587 4.73193C39.441 4.75259 39.5123 4.80383 39.5581 4.87521C39.6039 4.94659 39.6207 5.03274 39.6052 5.11613C39.5897 5.19951 39.5431 5.27385 39.4747 5.32401L37.4667 6.74068L39.1467 5.77201C39.2189 5.72991 39.3043 5.71647 39.3859 5.73437C39.4676 5.75227 39.5395 5.80019 39.5875 5.86864C39.6355 5.93709 39.656 6.02107 39.645 6.10393C39.634 6.18679 39.5922 6.26249 39.528 6.31601L36.9587 8.47801L39.1467 7.21534C39.2194 7.17405 39.305 7.1616 39.3865 7.18047C39.468 7.19935 39.5394 7.24816 39.5865 7.31723C39.6337 7.3863 39.6532 7.47058 39.6411 7.55334C39.629 7.6361 39.5863 7.7113 39.5213 7.76401L39.0233 8.16401L39.1467 8.09334C39.2155 8.05418 39.2961 8.04084 39.374 8.0557C39.4518 8.07057 39.5218 8.11268 39.5714 8.17447C39.621 8.23627 39.6469 8.31371 39.6446 8.39292C39.6423 8.47212 39.6118 8.5479 39.5587 8.60668L38.9447 9.27334L39.1373 9.16268C39.1753 9.13856 39.2177 9.12237 39.2621 9.11507C39.3064 9.10777 39.3518 9.10952 39.3955 9.12022C39.4391 9.13092 39.4802 9.15033 39.5161 9.17731C39.5521 9.20428 39.5822 9.23825 39.6047 9.27717C39.6272 9.31609 39.6416 9.35916 39.6471 9.40379C39.6525 9.44842 39.6488 9.49368 39.6363 9.53686C39.6238 9.58003 39.6026 9.62023 39.5742 9.65503C39.5457 9.68983 39.5105 9.71851 39.4707 9.73934L37.4 10.9333C37.3311 10.973 37.2503 10.9866 37.1722 10.972C37.0941 10.9573 37.0239 10.9151 36.9741 10.8532C36.9243 10.7913 36.8982 10.7136 36.9007 10.6342C36.9031 10.5547 36.9338 10.4788 36.9873 10.42L37.6007 9.75334L35.546 10.9393C35.4733 10.9806 35.3877 10.9931 35.3062 10.9742C35.2247 10.9553 35.1533 10.9065 35.1061 10.8375C35.059 10.7684 35.0395 10.6841 35.0516 10.6013C35.0636 10.5186 35.1064 10.4434 35.1713 10.3907L35.6687 9.99068L34.024 10.94C33.9519 10.9812 33.867 10.994 33.7859 10.9759C33.7049 10.9578 33.6335 10.9101 33.5858 10.8421C33.5381 10.7741 33.5174 10.6908 33.528 10.6084C33.5385 10.526 33.5794 10.4505 33.6427 10.3967L36.21 8.23468L31.5167 10.9447C31.4424 10.9875 31.3545 11.0001 31.2713 10.9798C31.188 10.9595 31.1158 10.9079 31.0695 10.8358C31.0233 10.7636 31.0066 10.6764 31.0229 10.5923C31.0393 10.5082 31.0874 10.4336 31.1573 10.384L33.1667 8.96334L29.7293 10.948C29.6558 10.9895 29.5692 11.0016 29.4872 10.9818C29.4051 10.9619 29.3336 10.9117 29.2871 10.8412C29.2406 10.7707 29.2227 10.6852 29.2368 10.6019C29.251 10.5187 29.2962 10.4439 29.3633 10.3927L33.63 7.20934L27.1467 10.9527C27.0967 10.9828 27.0397 10.9992 26.9813 11Z" fill="#F76031"/>
<path d="M25.8367 13.6307C25.7787 13.6307 25.7216 13.6156 25.6712 13.5869C25.6208 13.5581 25.5788 13.5167 25.5493 13.4668C25.5198 13.4168 25.5039 13.36 25.5031 13.302C25.5022 13.244 25.5166 13.1868 25.5447 13.136L25.7713 12.7273L25.238 13.034C25.1705 13.0724 25.0917 13.086 25.0152 13.0725C24.9387 13.059 24.8694 13.0192 24.8191 12.96C24.7688 12.9008 24.7408 12.8259 24.7399 12.7483C24.739 12.6706 24.7652 12.5951 24.814 12.5347L25.2327 12.022L24.5487 12.4167C24.4733 12.4628 24.3826 12.4771 24.2967 12.4564C24.2107 12.4357 24.1365 12.3817 24.0903 12.3063C24.0442 12.2309 24.0299 12.1403 24.0506 12.0543C24.0713 11.9684 24.1253 11.8941 24.2007 11.848L25.8867 10.7553L23.9467 11.876C23.8724 11.9171 23.7853 11.9284 23.703 11.9074C23.6208 11.8865 23.5496 11.835 23.504 11.7634C23.4584 11.6918 23.4419 11.6055 23.4577 11.5221C23.4736 11.4387 23.5207 11.3645 23.5893 11.3147L28.056 8.19467L23.056 11.082C22.9822 11.1236 22.8954 11.1356 22.8131 11.1155C22.7308 11.0954 22.6592 11.0447 22.6129 10.9737C22.5667 10.9028 22.5492 10.8168 22.564 10.7334C22.5788 10.65 22.6248 10.5754 22.6927 10.5247L26.988 7.37867L22.0827 10.2107C22.0094 10.253 21.9227 10.2659 21.8402 10.2466C21.7577 10.2274 21.6857 10.1775 21.6387 10.1071C21.5917 10.0367 21.5732 9.95098 21.5871 9.86745C21.601 9.78392 21.6461 9.7088 21.7133 9.65733L25.3333 6.89333L21.1047 9.33333C21.031 9.37519 20.9442 9.38745 20.8619 9.36763C20.7796 9.34781 20.7079 9.29738 20.6614 9.2266C20.6148 9.15582 20.597 9.06999 20.6115 8.98655C20.626 8.9031 20.6717 8.8283 20.7393 8.77733L22.8447 7.21667L20.3487 8.65667C20.2756 8.69737 20.19 8.70915 20.1087 8.68967C20.0274 8.67019 19.9564 8.62087 19.9097 8.55149C19.8631 8.48211 19.8442 8.39774 19.8569 8.3151C19.8695 8.23246 19.9127 8.15759 19.978 8.10533L22.6113 6.06L19.5573 7.82267C19.4832 7.86496 19.3957 7.8772 19.3128 7.85687C19.2299 7.83653 19.1579 7.78518 19.1118 7.71338C19.0656 7.64158 19.0488 7.55482 19.0647 7.47096C19.0806 7.38711 19.1281 7.31256 19.1973 7.26267L20.864 6.07667C20.7908 6.09345 20.7141 6.08504 20.6464 6.0528C20.5786 6.02057 20.5236 5.9664 20.4905 5.89906C20.4573 5.83172 20.4478 5.75515 20.4636 5.68176C20.4794 5.60837 20.5194 5.54244 20.5773 5.49467L24.644 2.13333C24.618 2.05995 24.6185 1.97977 24.6454 1.9067C24.6723 1.83364 24.7239 1.7723 24.7913 1.73333L25.9333 1.07867C26.0058 1.03671 26.0914 1.02355 26.173 1.0418C26.2547 1.06005 26.3266 1.10837 26.3743 1.17715C26.422 1.24594 26.4421 1.33016 26.4305 1.41308C26.419 1.49599 26.3767 1.57152 26.312 1.62467L24.0707 3.474L26.484 2.08133C26.5581 2.03904 26.6457 2.0268 26.7286 2.04713C26.8115 2.06747 26.8834 2.11882 26.9296 2.19062C26.9757 2.26242 26.9926 2.34918 26.9767 2.43304C26.9607 2.51689 26.9133 2.59144 26.844 2.64133L25.3027 3.738L26.4933 3.05067C26.5661 3.00989 26.6516 2.99789 26.7328 3.01705C26.814 3.0362 26.885 3.08511 26.9319 3.15411C26.9788 3.22312 26.9982 3.3072 26.9861 3.38976C26.974 3.47231 26.9314 3.54733 26.8667 3.6L24.2333 5.64533L27.55 3.73333C27.6236 3.69148 27.7104 3.67921 27.7928 3.69904C27.8751 3.71886 27.9468 3.76928 27.9933 3.84007C28.0398 3.91085 28.0577 3.99668 28.0432 4.08012C28.0287 4.16357 27.983 4.23837 27.9153 4.28933L25.812 5.84733L29.4787 3.732C29.552 3.68965 29.6387 3.67678 29.7211 3.69602C29.8036 3.71526 29.8756 3.76516 29.9227 3.83558C29.9697 3.90601 29.9881 3.99169 29.9742 4.07522C29.9604 4.15875 29.9152 4.23387 29.848 4.28533L26.2293 7.04933L31.9747 3.73333C32.0485 3.69169 32.1353 3.67971 32.2176 3.69982C32.2999 3.71993 32.3715 3.77062 32.4177 3.84159C32.464 3.91256 32.4815 3.99848 32.4667 4.0819C32.4519 4.16532 32.4059 4.23996 32.338 4.29067L28.042 7.436L34.4573 3.73333C34.5316 3.69222 34.6187 3.68098 34.701 3.7019C34.7832 3.72283 34.8544 3.77435 34.9 3.84595C34.9456 3.91755 34.9621 4.00384 34.9463 4.08722C34.9304 4.1706 34.8833 4.24479 34.8147 4.29467L30.348 7.41467L36.7213 3.73333C36.7965 3.69134 36.885 3.68006 36.9683 3.70184C37.0515 3.72362 37.1232 3.77678 37.1682 3.85019C37.2131 3.92359 37.228 4.01155 37.2095 4.09565C37.1911 4.17974 37.1409 4.25345 37.0693 4.30133L26.9793 10.8433C26.9747 10.913 26.9484 10.9795 26.904 11.0333L26.486 11.5447C26.5494 11.5098 26.6224 11.4965 26.6939 11.5068C26.7655 11.517 26.8318 11.5503 26.8829 11.6016C26.9339 11.6528 26.9669 11.7193 26.9768 11.7909C26.9868 11.8625 26.9731 11.9355 26.938 11.9987L26.65 12.518C26.7197 12.5261 26.785 12.5559 26.8367 12.6032C26.8885 12.6506 26.924 12.713 26.9381 12.7817C26.9523 12.8504 26.9445 12.9218 26.9157 12.9858C26.887 13.0497 26.8388 13.103 26.778 13.138L26.0033 13.586C25.9527 13.6153 25.8952 13.6307 25.8367 13.6307Z" fill="#F76031"/>
<path d="M34.928 25.4053C34.7113 25.332 34.4947 25.2767 34.2787 25.2247C35.2704 24.9359 36.142 24.3341 36.7635 23.5091C37.3849 22.6841 37.7228 21.6802 37.7267 20.6473C37.3853 14.308 27.6207 14.1807 27.606 20.6473C27.5571 21.682 27.8627 22.7023 28.4723 23.5397C29.0819 24.3771 29.959 24.9814 30.9587 25.2527C29.7302 25.5891 28.6103 26.2392 27.7089 27.1392C26.8075 28.0391 26.1557 29.158 25.8173 30.386C24.73 30.618 23.5087 30.6587 23.0967 31.5967C22.9073 33.68 22.848 35.93 24.0913 37.756C24.9333 39.0933 26.7533 40.5393 28.1333 38.9693H35.0627C35.1293 39.048 35.254 39.036 35.3733 38.9693C39.5733 39.3027 39.9733 37.952 39.728 33.9427C39.728 30.2607 38.8593 26.7333 34.928 25.4053ZM28.422 20.6873C28.542 15.024 36.7033 14.954 36.9347 20.632C36.724 26.3613 28.5953 26.4273 28.422 20.6873ZM25.6567 38.3087C23.5933 36.8133 23.498 34.186 23.64 31.8667C24.94 30.9847 27.5813 31.1407 28.914 31.614C30.2007 31.9713 29.5333 31.66 29.692 32.228C30.3013 34.492 28.694 40.0567 25.6567 38.3087ZM38.9387 37.2C38.5387 38.358 37.092 38.5467 35.6647 38.5113V31.21C35.6647 30.7167 35.002 31.0767 35.002 31.4567V38.4833C32.7527 38.2793 30.908 38.3893 28.7207 38.364C29.8655 37.0334 30.4363 35.3033 30.308 33.5527C30.308 32.9627 30.5433 31.786 30.1533 31.2513C29.8367 30.816 29.0273 30.8333 28.57 30.736C27.9494 30.5315 27.3097 30.3901 26.6607 30.314C28.574 24.4473 37.3513 24.0913 38.786 30.586C39.0308 32.7819 39.0819 34.9951 38.9387 37.2Z" fill="#262626"/>
<path d="M17.06 16.4573C16.7086 15.3753 15.242 15.44 14.18 15.1587C13.8831 13.9483 13.2821 12.8339 12.4339 11.9208C11.5858 11.0078 10.5185 10.3264 9.33331 9.94132C14.2666 7.64799 12.5246 -0.210015 6.86664 0.302652C1.87064 0.772652 0.70264 8.01065 5.30931 9.95932C1.19997 11.234 0.23864 15.1387 0.329306 18.9413C0.329306 21.534 -0.106027 23.702 3.04464 23.702H11.978C13.178 24.8167 14.6733 23.9687 15.5373 22.884C17.2 21.0667 17.066 18.884 17.0633 16.6007C17.0799 16.5541 17.0788 16.503 17.06 16.4573ZM2.99997 5.27065C3.07064 -0.362015 11.346 -0.0233482 11.6866 5.39999C11.3333 10.914 2.93331 10.796 2.99997 5.27065ZM5.06664 23.0667V16C5.06664 15.6 4.26664 15.6 4.26664 16V23.1033C2.79997 23.1267 1.37064 22.8913 1.00397 21.534C0.543306 19.8267 0.79464 16.2873 1.35197 14.6107C3.41864 8.40465 11.5826 9.62732 13.4013 15.088C12.9109 15.1238 12.4265 15.2185 11.9586 15.37C11.3646 15.516 10.3373 15.462 9.86597 15.9113C9.39464 16.3607 9.60464 17.436 9.60464 18.0233C9.51832 18.9118 9.61474 19.8085 9.88795 20.6583C10.1612 21.5081 10.6054 22.293 11.1933 22.9647C9.08664 22.9887 7.21397 22.8867 5.06664 23.0667ZM16.2493 19.4667C16.1706 21.1433 14.28 24.312 12.4706 23.1633C12.4672 23.1323 12.4574 23.1023 12.4419 23.0752C12.4264 23.048 12.4056 23.0244 12.3806 23.0056C12.3556 22.9869 12.327 22.9735 12.2967 22.9662C12.2663 22.9589 12.2347 22.9579 12.204 22.9633C10.404 21.4673 10.1646 18.778 10.3953 16.588C11.1286 15.874 12.6526 15.906 13.6273 15.788C13.6658 15.8233 13.7152 15.8442 13.7673 15.8472C13.8194 15.8503 13.871 15.8352 13.9133 15.8047C14.29 15.8447 16.12 16.1153 16.2726 16.4893C16.318 17.4815 16.3102 18.4753 16.2493 19.4667Z" fill="#262626"/>
<path d="M18.2226 29.6387C16.6346 28.0073 12.5226 23.7333 13.0533 28.9573C11.526 29.0047 9.95998 28.9627 8.42731 28.9713C6.59931 28.9713 3.00064 28.2167 1.30531 29.1787C-0.380692 30.152 0.333308 33.2667 0.327975 34.8327C0.865975 36.8113 2.77997 36.362 4.45131 36.362H9.17198C10.118 36.362 12.0613 35.962 12.9226 36.4073C13.1106 36.888 12.8593 37.62 12.9926 38.1027C14.326 41.0327 18.056 35.5693 19.2633 34.6313C22.364 32.5333 20.3546 31.2413 18.2226 29.6387ZM16.3453 36.4333C14.928 38.096 13.4426 39.224 13.6786 35.9213C13.6824 35.8871 13.6792 35.8524 13.6692 35.8193C13.6592 35.7863 13.6426 35.7557 13.6204 35.7293C13.5982 35.7029 13.5709 35.6812 13.5401 35.6656C13.5093 35.6501 13.4757 35.6409 13.4413 35.6387H7.77464C6.39064 35.6387 1.55531 36.466 1.00864 34.5053C0.711975 30.98 0.450642 29.1407 4.74197 29.6913H13.2266C13.3426 29.685 13.4523 29.6368 13.5355 29.5558C13.6187 29.4748 13.6698 29.3664 13.6793 29.2507C13.6793 26.3893 14.6493 27.512 16.2393 28.934C21.1873 32.7207 21.5333 32.5167 16.3453 36.4333Z" fill="#262626"/>
<path d="M39.6054 5.18132C39.1127 3.16932 37.1274 3.59599 35.4614 3.60065C32.7634 3.37732 29.516 4.03932 26.9654 3.55999C27.3314 -2.35201 22.7427 3.32399 21.194 4.89332C20.2094 5.77399 18.594 6.60065 19.3127 8.07065C20.124 9.73732 23.012 11.43 24.3967 12.6553C26.4374 14.6327 27.1814 13.3407 26.9794 11.0553C30.42 10.5407 34.6294 11.906 38.0607 11.0553C40.4527 10.3773 39.6447 7.11599 39.6054 5.18132ZM38.5027 9.72399C37.6154 10.626 36.12 10.2673 34.886 10.2673H26.6867C26.5949 10.2794 26.5111 10.3257 26.4519 10.3969C26.3927 10.468 26.3625 10.5589 26.3674 10.6513C26.3674 13.5753 25.276 12.4647 23.672 11.03C22.9127 10.3513 19.8307 8.37732 19.764 7.34065C19.7054 6.42199 22.95 4.26665 23.6374 3.65132C25.228 2.22932 26.3674 1.07199 26.3674 3.98465C26.22 4.87665 31.3674 4.20132 32.3134 4.39999C33.672 4.39999 38.4207 3.59532 39.0387 5.46665C39.0667 6.84265 39.4574 8.75265 38.5027 9.72399Z" fill="#262626"/>
<path d="M27.0907 33.7427L26.3893 34.7947C26.0027 34.1947 25.476 34.6373 25.8207 35.1947L26.2653 35.6387C26.852 35.9567 27.1873 34.596 27.576 34.258C27.7913 33.9333 27.368 33.3273 27.0907 33.7427Z" fill="#262626"/>
<path d="M13.792 18.3807C13.552 18.7407 13.3118 19.1009 13.0713 19.4613C12.894 19.236 12.59 18.984 12.4107 19.35C12.2107 19.788 12.7113 20.0593 12.9547 20.3433C13.5013 20.5487 13.8387 19.2873 14.208 18.9527C14.4667 18.6727 14.1367 18 13.792 18.3807Z" fill="#262626"/>
</g>
<defs>
<clipPath id="clip0_15_1112">
<rect width="40" height="40" fill="white"/>
</clipPath>
</defs>
</svg>
