<svg width="46" height="46" viewBox="0 0 46 46" fill="none" xmlns="http://www.w3.org/2000/svg">
<g clip-path="url(#clip0_15_1157)">
<path d="M4.76953 41.2428C4.59751 41.2428 4.44594 41.1282 4.39906 40.9625C4.35218 40.7965 4.42127 40.6199 4.5679 40.5297L8.38713 38.1772L3.1664 41.1878C2.98593 41.2858 2.76034 41.2248 2.65388 41.0493C2.54743 40.8734 2.59749 40.6453 2.76774 40.5304L16.4493 31.8168L1.31301 40.5558C1.13148 40.6555 0.903773 40.5942 0.796969 40.4165C0.690517 40.2389 0.743743 40.0087 0.917168 39.8959L11.9487 33.0255L0.989781 39.3492C0.808601 39.4486 0.581598 39.3876 0.474793 39.211C0.367637 39.0344 0.419453 38.8046 0.591468 38.6907L15.9343 28.9444L0.989781 37.5758C0.808249 37.6742 0.581245 37.6118 0.475498 37.4345C0.369751 37.2572 0.422625 37.0281 0.595345 36.9149L8.9779 31.7421L0.989781 36.3537C0.808249 36.4482 0.58477 36.3844 0.480786 36.2085C0.376449 36.0326 0.427912 35.806 0.597812 35.6921L2.92389 34.2755L0.989781 35.3918C0.808601 35.4873 0.584065 35.4242 0.479376 35.2483C0.374686 35.0724 0.425797 34.8451 0.59605 34.7312L8.04522 30.1457L0.989781 34.2191C0.807544 34.3199 0.578778 34.2578 0.472326 34.0791C0.366227 33.9004 0.420862 33.6695 0.59605 33.5578L8.11994 28.9261L0.989781 33.0417C0.808601 33.1373 0.584065 33.0742 0.479376 32.8983C0.374686 32.7224 0.425797 32.495 0.59605 32.3812L6.70329 28.6367L0.989781 31.9332C0.807896 32.0354 0.577368 31.9744 0.470211 31.795C0.363054 31.6159 0.418395 31.384 0.59464 31.2722L11.359 24.5785L0.988723 30.5616C0.807896 30.6596 0.581598 30.5979 0.475498 30.4217C0.369399 30.2451 0.420862 30.0163 0.592172 29.9025L13.7781 21.6292L0.988723 29.01C0.807896 29.1094 0.580893 29.0484 0.473736 28.8718C0.366932 28.6952 0.418748 28.4657 0.590763 28.3515L15.9318 18.6108L0.988723 27.2366C0.807896 27.336 0.580893 27.275 0.473736 27.0984C0.366932 26.9218 0.418748 26.6923 0.590763 26.5781L15.2913 17.2777L0.988723 25.5341C0.807191 25.6324 0.58054 25.5704 0.474793 25.3931C0.369047 25.2158 0.42192 24.9863 0.59464 24.8735L9.35507 19.4617L0.988723 24.2912C0.808601 24.3797 0.591115 24.3144 0.48854 24.1421C0.385966 23.9697 0.4332 23.7473 0.596755 23.6313L3.05572 22.1336L0.988723 23.3232C0.807191 23.4216 0.58054 23.3596 0.474793 23.1823C0.369047 23.0049 0.42192 22.7758 0.59464 22.6627L9.15344 17.3778L0.988723 22.0913C0.807544 22.1911 0.579483 22.1297 0.473031 21.9521C0.366579 21.7744 0.419453 21.5442 0.59323 21.4314L12.7996 13.799L0.988723 20.6189C0.807191 20.7173 0.58054 20.6553 0.474793 20.478C0.369047 20.3006 0.42192 20.0712 0.59464 19.9584L8.73856 14.9301L0.988723 19.4053C0.808249 19.5008 0.584418 19.4385 0.479023 19.2633C0.373981 19.0877 0.424035 18.8611 0.59323 18.7462L11.1425 12.1518L0.988723 18.0102C0.807544 18.1117 0.578425 18.0511 0.470916 17.8731C0.363759 17.695 0.416985 17.4638 0.591468 17.351L10.5895 11.0453L0.988723 16.5896C0.809306 16.6763 0.59323 16.6115 0.491008 16.4402C0.388786 16.2692 0.433905 16.0482 0.595345 15.9312L2.12233 14.9918L0.988723 15.6453C0.806839 15.7504 0.574548 15.6901 0.466686 15.5103C0.358472 15.3302 0.414518 15.0968 0.592172 14.9855L5.26724 12.0594L0.988723 14.529C0.808601 14.6242 0.585123 14.5625 0.479728 14.388C0.373981 14.2135 0.422625 13.9869 0.590763 13.8712L6.20205 10.31L0.988723 13.3129C0.808249 13.4109 0.582655 13.3499 0.476203 13.174C0.369751 12.9985 0.419805 12.7704 0.590058 12.6555L4.82064 9.96036L0.988723 12.1733C0.810011 12.2755 0.582303 12.2188 0.472326 12.0446C0.362349 11.8702 0.408878 11.64 0.578425 11.5226L8.45657 6.11188L0.987313 10.4239C0.807191 10.5374 0.568908 10.4835 0.455406 10.303C0.341552 10.1225 0.395836 9.88457 0.576311 9.77072L6.36983 5.73612L0.988723 8.84685C0.811069 8.94308 0.589 8.88562 0.480433 8.71466C0.371866 8.54406 0.414165 8.31846 0.577015 8.19862L4.03494 5.79287L0.988723 7.5518C0.814594 7.6512 0.592877 7.59974 0.479728 7.43407C0.366932 7.26804 0.400418 7.04315 0.556924 6.91732L4.49635 3.78157L0.988723 5.80662C0.814241 5.90567 0.592877 5.8535 0.480433 5.68713C0.367989 5.52075 0.402533 5.29586 0.559038 5.17073L2.18472 3.89401L0.988723 4.58701C0.819176 4.68288 0.604862 4.63671 0.489245 4.47985C0.373981 4.32299 0.394073 4.10445 0.536127 3.97121L1.6433 2.95145L0.988723 3.32897C0.832923 3.41815 0.635529 3.38784 0.51392 3.2553C0.392311 3.12312 0.378564 2.92396 0.480786 2.77591L1.03596 1.9814C0.894609 1.98422 0.762778 1.91055 0.691575 1.78894C0.585828 1.60494 0.648218 1.37018 0.831865 1.26373L2.08849 0.537603C2.24464 0.447366 2.44239 0.47768 2.56435 0.610569C2.68631 0.743457 2.69971 0.943319 2.59678 1.09101L2.10471 1.79634L4.30001 0.530553C4.46956 0.434676 4.68423 0.480852 4.79949 0.63771C4.91511 0.794921 4.89501 1.01311 4.75261 1.14671L3.64473 2.16223L6.47205 0.530553C6.64724 0.429741 6.87001 0.481205 6.98316 0.648285C7.09631 0.815718 7.06106 1.04166 6.9028 1.16644L5.2817 2.43964L8.59298 0.530553C8.76747 0.429036 8.99059 0.479795 9.10445 0.646523C9.2183 0.81325 9.18376 1.03955 9.02549 1.16504L5.08606 4.29691L11.6138 0.530553C11.7915 0.434324 12.0135 0.491779 12.1221 0.662737C12.2307 0.833342 12.1884 1.05894 12.0255 1.17878L8.56443 3.58312L13.856 0.530553C14.034 0.431856 14.2578 0.48896 14.3671 0.660622C14.4767 0.832285 14.4334 1.05929 14.2688 1.17878L8.47419 5.21162L16.5875 0.530553C16.7658 0.432209 16.9896 0.490017 17.0986 0.662385C17.2075 0.8344 17.1631 1.06176 16.9977 1.18054L9.1189 6.59056L19.6203 0.530553C19.8011 0.432561 20.0267 0.493894 20.1331 0.669434C20.2396 0.844974 20.1895 1.07339 20.0193 1.1883L15.7841 3.88344L21.6002 0.530553C21.7803 0.435381 22.0038 0.497067 22.1092 0.671549C22.2149 0.846032 22.1663 1.07268 21.9982 1.1883L16.3862 4.75338L23.7007 0.530553C23.8822 0.429036 24.1113 0.489665 24.2189 0.667672C24.326 0.845679 24.2728 1.07691 24.0979 1.18971L19.4225 4.11573L25.6313 0.530553C25.8128 0.432209 26.0395 0.494599 26.1452 0.671902C26.2513 0.849204 26.1984 1.07832 26.0254 1.19112L24.5054 2.12381L27.2707 0.530553C27.4515 0.431151 27.6789 0.492132 27.7857 0.668729C27.8925 0.845327 27.841 1.0748 27.6687 1.189L17.6661 7.4954L29.7339 0.530553C29.9151 0.432561 30.141 0.494247 30.2471 0.670492C30.3532 0.847089 30.3018 1.07586 30.1305 1.18971L19.5811 7.78338L31.0406 1.1675C31.2221 1.06881 31.4491 1.1312 31.5549 1.3085C31.6606 1.4858 31.6077 1.71492 31.435 1.82807L23.2943 6.85316L31.3596 2.19677C31.5401 2.1016 31.7639 2.16399 31.8693 2.33918C31.9743 2.51437 31.9243 2.74137 31.7551 2.85593L19.5487 10.4884L31.3596 3.67089C31.5411 3.57219 31.7678 3.63458 31.8735 3.81188C31.9793 3.98918 31.9264 4.2183 31.7537 4.33145L23.1949 9.61704L31.3571 4.90354C31.539 4.80449 31.7667 4.86724 31.8725 5.0456C31.9779 5.22396 31.9236 5.45378 31.7491 5.56587L29.3003 7.05725L31.3578 5.86901C31.5404 5.76044 31.7769 5.82002 31.8859 6.0026C31.9948 6.18555 31.9349 6.42172 31.7523 6.53063L22.9869 11.9456L31.361 7.11119C31.5418 7.01178 31.7692 7.07276 31.876 7.24936C31.9828 7.42596 31.9313 7.65543 31.759 7.76964L17.0556 17.0729L31.3617 8.81301C31.5425 8.7136 31.7699 8.77458 31.8767 8.95118C31.9835 9.12778 31.932 9.35725 31.76 9.47146L16.425 19.209L31.3635 10.585C31.545 10.4799 31.7776 10.5402 31.8855 10.72C31.9937 10.9001 31.9377 11.1334 31.76 11.2448L18.5769 19.5224L31.3642 12.1402C31.5454 12.0436 31.7702 12.106 31.8756 12.2822C31.9814 12.4585 31.9299 12.6862 31.759 12.8L20.9996 19.4917L31.3656 13.5064C31.5475 13.4056 31.7766 13.4676 31.8827 13.6463C31.9891 13.8251 31.9341 14.0559 31.759 14.1677L25.6359 17.9238L31.3656 14.6168C31.5468 14.5212 31.7709 14.5843 31.876 14.7602C31.9807 14.9361 31.9292 15.1635 31.759 15.2773L24.233 19.9115L31.3663 15.7927C31.5478 15.694 31.7748 15.7564 31.8806 15.9337C31.9863 16.111 31.9334 16.3401 31.7607 16.4532L24.302 21.0441L31.367 16.9629C31.5496 16.8589 31.7819 16.9203 31.889 17.1011C31.9962 17.2816 31.9387 17.5149 31.76 17.6253L29.4776 19.0112L31.367 17.9256C31.5499 17.8163 31.7865 17.8759 31.8954 18.0588C32.0046 18.2414 31.9447 18.4779 31.7621 18.5868L23.369 23.7646L31.3656 19.1445C31.5468 19.0408 31.7776 19.1004 31.8859 19.2791C31.9941 19.4578 31.9401 19.6901 31.7646 19.8029L16.4147 29.5546L31.3695 20.921C31.552 20.8114 31.7886 20.8706 31.8982 21.0529C32.0075 21.2355 31.9486 21.472 31.766 21.5816L20.7486 28.4463L31.3702 22.3137C31.551 22.2129 31.7794 22.2728 31.8873 22.4501C31.9948 22.6271 31.943 22.8576 31.7699 22.9715L18.0781 31.6928L31.3719 24.0162C31.5538 23.914 31.784 23.975 31.8911 24.1541C31.9983 24.3335 31.9433 24.5654 31.7667 24.6772L27.9489 27.0286L31.3726 25.0522C31.5538 24.9408 31.791 24.9976 31.9024 25.1791C32.0135 25.3606 31.9567 25.5975 31.7752 25.7089L20.3788 33.101L31.3709 26.7554C31.5513 26.6529 31.7805 26.7117 31.889 26.8883C31.9979 27.0649 31.9472 27.2958 31.7745 27.4107L22.2146 33.6709L31.3719 28.3839C31.5517 28.2796 31.7815 28.3371 31.8915 28.5133C32.0015 28.6896 31.9518 28.9211 31.7791 29.0368L23.1448 34.8359L31.3755 30.0833C31.5559 29.9765 31.7886 30.0332 31.8993 30.2113C32.0099 30.3889 31.9578 30.623 31.7822 30.7372L26.2027 34.4478L31.3765 31.4619C31.5549 31.3635 31.7791 31.4213 31.8876 31.5934C31.9965 31.7657 31.9521 31.9927 31.7868 32.1115L26.5967 35.6868L31.3772 32.9272C31.557 32.825 31.7854 32.8828 31.8947 33.0587C32.0036 33.2346 31.9546 33.4651 31.7829 33.5807L30.7558 34.2617L31.3779 33.9018C31.5559 33.8021 31.7808 33.8581 31.8908 34.0301C32.0008 34.2021 31.9574 34.4298 31.7921 34.5497L29.2827 36.3206L31.3786 35.1109C31.5559 35.01 31.7808 35.065 31.8918 35.2356C32.0029 35.4066 31.9616 35.6343 31.7977 35.7556L30.2454 36.8849L31.3793 36.2314C31.552 36.1341 31.7699 36.1838 31.8834 36.346C31.9972 36.5081 31.9694 36.7298 31.8192 36.8589L30.0797 38.322L31.3804 37.5712C31.5524 37.4704 31.7731 37.5177 31.8887 37.6805C32.0043 37.843 31.9764 38.0668 31.8245 38.1966L31.4519 38.5173C31.6144 38.4634 31.7931 38.523 31.8904 38.664C31.9877 38.8046 31.9803 38.9928 31.8725 39.1257L31.5288 39.5476C31.6814 39.5314 31.8295 39.6058 31.9077 39.738C32.0135 39.922 31.9504 40.1567 31.7667 40.2632L30.1611 41.1871C30.0004 41.2798 29.7966 41.2445 29.6765 41.1032C29.5559 40.9622 29.5534 40.7553 29.6701 40.6111L29.9574 40.2569L28.3465 41.1878C28.1745 41.2882 27.9542 41.241 27.8386 41.0789C27.723 40.9167 27.7501 40.6932 27.9013 40.5635L28.2415 40.2699L26.6468 41.1878C26.4744 41.2851 26.2562 41.2354 26.1427 41.0732C26.0292 40.9111 26.0571 40.6894 26.2072 40.5604L27.9461 39.1021L24.3369 41.1878C24.1596 41.2886 23.9347 41.234 23.8237 41.063C23.7127 40.892 23.7539 40.6643 23.9178 40.5434L25.4681 39.4169L22.3926 41.1878C22.2149 41.2847 21.9929 41.2276 21.884 41.0577C21.775 40.8875 21.8163 40.6619 21.9781 40.541L24.4846 38.7701L20.2949 41.1878C20.1152 41.2904 19.8868 41.2322 19.7775 41.0563C19.6682 40.8804 19.7176 40.6499 19.8892 40.5343L20.9241 39.849L18.6033 41.1878C18.4246 41.2861 18.2008 41.2287 18.0919 41.0563C17.9833 40.8839 18.0274 40.6569 18.1927 40.5381L23.3813 36.9643L16.0661 41.1878C15.8867 41.2858 15.6622 41.2266 15.5543 41.0531C15.4468 40.8797 15.493 40.6524 15.66 40.535L21.2389 36.8233L13.678 41.1878C13.4989 41.2872 13.2733 41.2287 13.1651 41.0552C13.0566 40.8815 13.1031 40.6531 13.2709 40.5357L21.909 34.7351L10.7329 41.1878C10.5532 41.2858 10.3283 41.2259 10.2211 41.0517C10.1136 40.8776 10.1612 40.6499 10.3293 40.5336L19.8931 34.2702L7.90986 41.1878C7.72903 41.2932 7.49745 41.2347 7.38817 41.0567C7.2789 40.8783 7.33178 40.6453 7.50732 40.5318L18.9037 33.1397L4.96234 41.1878C4.90383 41.2227 4.83756 41.2417 4.76953 41.2428Z" fill="#BFDBF0"/>
<path d="M17.5759 45.8629C17.4045 45.8625 17.2537 45.7486 17.2064 45.5837C17.1596 45.4184 17.2272 45.2421 17.3728 45.1512L17.9639 44.7807L16.1807 45.8082C16.0009 45.9087 15.7736 45.8498 15.6654 45.6743C15.5568 45.4991 15.6058 45.2693 15.7764 45.1536L25.4995 38.7732L13.31 45.8082C13.1299 45.9044 12.9057 45.8435 12.7996 45.6686C12.6932 45.4941 12.7418 45.2668 12.9103 45.1512L22.5727 38.9671L10.7213 45.8082C10.5409 45.9073 10.3142 45.847 10.2071 45.6711C10.0999 45.4952 10.15 45.2661 10.3209 45.1512L22.4994 37.3626L7.87745 45.8082C7.69556 45.9182 7.45869 45.86 7.34836 45.6778C7.23839 45.4959 7.29655 45.259 7.47878 45.1491L20.479 36.9297L6.56231 44.9612C6.38148 45.0606 6.15413 44.9996 6.04732 44.823C5.94052 44.6461 5.99198 44.4166 6.16435 44.3027L13.7728 39.6164L6.37972 43.8829C6.19854 43.9784 5.97436 43.9153 5.86967 43.7395C5.76463 43.5636 5.81609 43.3362 5.98634 43.2224L13.5095 38.5899L6.37972 42.7088C6.19925 42.8039 5.97542 42.7416 5.87002 42.5664C5.76498 42.3912 5.81503 42.1642 5.98387 42.0496L17.5861 34.8112L6.37972 41.2812C6.19819 41.3781 5.9726 41.315 5.8672 41.1381C5.76216 40.9611 5.81503 40.7327 5.98705 40.6196L11.5451 37.2145L6.37972 40.1962C6.19925 40.2914 5.97542 40.229 5.87002 40.0538C5.76498 39.8786 5.81503 39.6516 5.98387 39.5371L17.443 32.3928L6.37972 38.7792C6.19819 38.8765 5.9726 38.8134 5.8672 38.6365C5.76216 38.4592 5.81503 38.2307 5.98705 38.1179L10.5655 35.3188L6.37972 37.7351C6.19819 37.8335 5.97154 37.7715 5.86579 37.5941C5.76004 37.4165 5.81292 37.1874 5.98564 37.0746L13.7876 32.2673L6.37972 36.5441C6.19889 36.6435 5.97154 36.5825 5.86473 36.4059C5.75793 36.229 5.80974 35.9995 5.98176 35.8856L20.7493 26.539L6.37902 34.8345C6.19713 34.9336 5.96942 34.8705 5.86368 34.6925C5.75828 34.5141 5.81292 34.2843 5.98705 34.1722L7.13299 33.4792L6.37902 33.9135C6.19713 34.0143 5.96801 33.9522 5.86191 33.7735C5.75546 33.5948 5.81045 33.3639 5.98564 33.2522L11.8208 29.6751L6.37902 32.814C6.19819 32.9134 5.97083 32.8525 5.86403 32.6759C5.75722 32.4989 5.80869 32.2694 5.98105 32.1556L20.5167 22.9669L6.37902 31.1291C6.19713 31.2282 5.96942 31.1651 5.86368 30.9871C5.75828 30.8087 5.81292 30.5789 5.98705 30.4668L6.49217 30.1587L6.37902 30.2236C6.19889 30.3188 5.97542 30.2571 5.87002 30.0826C5.76427 29.9081 5.81292 29.6815 5.98105 29.5658L21.0736 19.9936L6.37902 28.4826C6.19854 28.5792 5.97365 28.5172 5.86791 28.342C5.76216 28.1665 5.81221 27.9391 5.98176 27.8242L19.8924 19.056L6.37902 26.857C6.19748 26.9553 5.97083 26.8933 5.86509 26.716C5.75899 26.5387 5.81186 26.3092 5.98493 26.1964L13.8451 21.3535L6.37584 25.6659C6.19466 25.7614 5.97048 25.6983 5.86579 25.5221C5.76075 25.3462 5.81221 25.1188 5.98246 25.005L12.6618 20.9002L6.37902 24.5259C6.19713 24.6268 5.96801 24.5647 5.86191 24.386C5.75546 24.2073 5.81045 23.9764 5.98564 23.8647L12.855 19.6341L6.37902 23.3733C6.19713 23.4741 5.96801 23.4121 5.86191 23.2334C5.75546 23.0546 5.81045 22.8238 5.98564 22.712L9.8602 20.338L6.37902 22.3454C6.19713 22.4459 5.96801 22.3839 5.86191 22.2051C5.75546 22.0268 5.81045 21.7959 5.98564 21.6838L9.37765 19.5964L6.37902 21.3274C6.19819 21.4254 5.97189 21.3638 5.86579 21.1875C5.75969 21.0109 5.81115 20.7821 5.98246 20.6683L12.3114 16.7095L6.38219 20.1346C6.20136 20.2397 5.96978 20.1815 5.8605 20.0031C5.75123 19.8251 5.80375 19.5921 5.97929 19.4786L16.0143 12.9378L6.37902 18.4991C6.19748 18.5992 5.96978 18.5375 5.86332 18.3598C5.75652 18.1822 5.80974 17.9524 5.98317 17.8392L7.67724 16.7775L6.37584 17.529C6.19396 17.6337 5.96167 17.5734 5.85381 17.3937C5.74559 17.2139 5.80164 16.9802 5.97929 16.8688L6.78085 16.3669L6.37584 16.5981C6.19466 16.7014 5.96378 16.6418 5.85557 16.4631C5.74735 16.2847 5.80129 16.0524 5.97718 15.9396L8.20174 14.5205L6.37902 15.5769C6.2003 15.6809 5.97119 15.6249 5.86015 15.4504C5.74947 15.2756 5.7967 15.0443 5.96696 14.9269L12.4122 10.4556L6.37902 13.9389C6.19889 14.0415 5.96978 13.983 5.86086 13.806C5.75229 13.6294 5.80305 13.3985 5.97542 13.2836L6.92115 12.6678L6.38219 12.9812C6.20277 13.0873 5.97154 13.0316 5.8605 12.8557C5.74912 12.6795 5.79811 12.4468 5.97083 12.3305L8.43509 10.6364L6.37902 11.8138C6.20171 11.9156 5.97542 11.861 5.86438 11.6893C5.75299 11.5177 5.79565 11.2889 5.96096 11.1683L8.22007 9.53138L6.37902 10.5941C6.20348 10.6921 5.98176 10.6382 5.87073 10.4708C5.75934 10.303 5.796 10.0777 5.95462 9.95401L7.36916 8.87998L6.37902 9.45207C6.21229 9.54372 6.00326 9.49966 5.88765 9.34844C5.77203 9.19687 5.78472 8.98361 5.9169 8.84684L7.49006 7.26275L6.37902 7.90358C6.22216 7.99382 6.02371 7.9628 5.9021 7.82885C5.78049 7.69491 5.7685 7.49434 5.87319 7.347L6.4044 6.60078C6.23238 6.59655 6.08398 6.47811 6.04098 6.31139C5.99833 6.14466 6.07164 5.96982 6.2204 5.88311L7.47314 5.1591C7.63 5.06886 7.82845 5.09988 7.95042 5.23382C8.07202 5.36777 8.08401 5.56834 7.97932 5.71603L7.52707 6.35192L9.6117 5.15064C9.77843 5.06005 9.98604 5.10446 10.1013 5.25533C10.2166 5.40584 10.2049 5.61804 10.0738 5.75516L8.50065 7.33854L12.2938 5.15064C12.4693 5.05053 12.6928 5.10376 12.8049 5.27225C12.9166 5.44074 12.8793 5.66739 12.7185 5.79076L11.3089 6.8588L14.2709 5.15064C14.4486 5.04877 14.6745 5.10376 14.7859 5.27542C14.8969 5.44708 14.8546 5.67585 14.6893 5.79605L12.4291 7.4323L16.3841 5.15064C16.5628 5.04665 16.7919 5.1027 16.9029 5.27753C17.0136 5.45202 16.9664 5.68325 16.7961 5.80063L14.3319 7.49469L18.3993 5.15064C18.5787 5.053 18.8036 5.11292 18.9111 5.28705C19.0182 5.46083 18.9707 5.68854 18.8025 5.80521L17.8526 6.42806L20.0655 5.15064C20.2438 5.05123 20.4691 5.10799 20.5784 5.28035C20.688 5.45307 20.6436 5.68078 20.4775 5.79992L14.0323 10.2713L22.9016 5.15064C23.0824 5.04947 23.3109 5.10975 23.4184 5.2867C23.5259 5.464 23.4741 5.69453 23.301 5.80838L21.0659 7.22997L24.6757 5.15064C24.8569 5.04912 25.0864 5.10975 25.1935 5.28775C25.301 5.46576 25.2474 5.697 25.073 5.80979L24.2799 6.30716L26.282 5.1524C26.4628 5.05405 26.6891 5.11574 26.7952 5.29234C26.9013 5.46858 26.8499 5.69735 26.6785 5.81155L24.9767 6.87255L27.9644 5.15064C28.1446 5.05159 28.3705 5.11116 28.478 5.28634C28.5859 5.46153 28.5369 5.6903 28.3673 5.80591L18.3305 12.346L30.7974 5.15064C30.9786 5.04912 31.208 5.10975 31.3152 5.28775C31.4227 5.46576 31.3691 5.697 31.1946 5.80979L24.8636 9.77072L32.8647 5.15064C33.0463 5.05229 33.2733 5.11468 33.379 5.29198C33.4848 5.46929 33.4319 5.69841 33.2592 5.81155L29.871 7.89583L34.6268 5.15064C34.8084 5.05229 35.035 5.11468 35.1408 5.29198C35.2465 5.46929 35.1936 5.69841 35.0209 5.81155L31.1608 8.17852L36.0156 5.37411C36.1972 5.27859 36.4214 5.34169 36.5261 5.51758C36.6311 5.69347 36.5796 5.92083 36.4094 6.03468L29.533 10.2698L36.6173 6.18026C36.7989 6.08191 37.0255 6.14395 37.1313 6.32125C37.237 6.49856 37.1842 6.72803 37.0114 6.84082L30.3307 10.9459L36.7495 7.23984C36.9325 7.13092 37.1686 7.19085 37.2776 7.37344C37.3865 7.55603 37.3266 7.79255 37.144 7.90111L29.2757 12.7524L36.7506 8.44042C36.9318 8.33855 37.1609 8.39953 37.2684 8.57754C37.3756 8.75555 37.3223 8.98643 37.1478 9.09958L23.2456 17.8561L36.7506 10.0566C36.9307 9.96142 37.1542 10.0231 37.2596 10.1976C37.3653 10.3721 37.3167 10.5987 37.1486 10.7143L22.0507 20.2887L36.7513 11.8014C36.9342 11.6932 37.1704 11.7538 37.2786 11.9371C37.3868 12.1201 37.3262 12.3562 37.1433 12.4644L36.6381 12.7725L36.7513 12.7077C36.9332 12.5977 37.1701 12.6562 37.2797 12.8384C37.3897 13.0203 37.3311 13.2568 37.1493 13.3668L22.6136 22.5534L36.7513 14.3912C36.9332 14.2903 37.1619 14.3524 37.2684 14.5311C37.3745 14.7098 37.3199 14.9407 37.1447 15.0524L31.3 18.6348L36.752 15.4874C36.8704 15.4176 37.0171 15.4162 37.1369 15.4835C37.2568 15.5512 37.3315 15.6774 37.3329 15.8152C37.3343 15.9527 37.2624 16.0806 37.144 16.1504L35.998 16.8434L36.752 16.4092C36.9328 16.3098 37.1602 16.3707 37.267 16.5473C37.3738 16.7243 37.3223 16.9538 37.15 17.0676L22.3933 26.4096L36.752 18.1194C36.9346 18.0105 37.1711 18.0704 37.2797 18.253C37.3886 18.4356 37.329 18.6721 37.1461 18.7811L29.336 23.5929L36.7527 19.3109C36.9353 19.2069 37.1672 19.2682 37.2744 19.449C37.3815 19.6295 37.3241 19.8629 37.1454 19.9728L32.5669 22.7712L36.7527 20.3556C36.9335 20.2605 37.1574 20.3229 37.2624 20.498C37.3674 20.6732 37.3177 20.9002 37.1486 21.0148L25.6891 28.1591L36.7527 21.7726C36.9342 21.6754 37.1602 21.7385 37.2652 21.9154C37.3703 22.0927 37.3177 22.3211 37.1454 22.4339L31.575 25.846L36.7534 22.8615C36.9342 22.766 37.1581 22.8284 37.2631 23.0035C37.3685 23.1787 37.3185 23.4057 37.1493 23.5203L25.5474 30.7587L36.7534 24.2905C36.9353 24.19 37.1644 24.2521 37.2705 24.4308C37.377 24.6091 37.3223 24.84 37.1471 24.9521L29.6144 29.5891L36.7541 25.4678C36.9356 25.3694 37.1627 25.4318 37.2684 25.6091C37.3741 25.7864 37.3213 26.0156 37.1486 26.1287L29.5513 30.8087L36.7541 26.6507C36.9353 26.551 37.1623 26.612 37.2691 26.7889C37.3763 26.9655 37.3244 27.195 37.1524 27.3088L24.1505 35.5197L36.7541 28.2437C36.9346 28.1474 37.1588 28.2084 37.2649 28.3832C37.3713 28.5577 37.3223 28.7851 37.1538 28.9007L24.9753 36.6925L36.7566 29.8915C36.9374 29.7907 37.1658 29.8507 37.2733 30.0276C37.3812 30.2049 37.3294 30.4354 37.1563 30.5493L27.5002 36.7302L36.7566 31.3864C36.9364 31.2885 37.1609 31.3484 37.2684 31.5225C37.3756 31.6966 37.328 31.9244 37.1602 32.0407L27.4315 38.426L36.7559 33.0435C36.9374 32.9434 37.1651 33.0051 37.2716 33.1827C37.3784 33.36 37.3251 33.5902 37.1517 33.7034L36.5641 34.07L36.7559 33.9603C36.9339 33.8645 37.1563 33.923 37.2642 34.0943C37.372 34.2652 37.329 34.4908 37.1655 34.6103L29.1111 40.1275L36.7591 35.7122C36.9374 35.6114 37.1637 35.6685 37.2737 35.8416C37.3833 36.015 37.3378 36.2441 37.1701 36.3622L31.3441 40.3823L36.7566 37.2607C36.936 37.1616 37.1619 37.2209 37.2698 37.395C37.378 37.5695 37.3304 37.7979 37.1616 37.9146L35.6748 38.9001L36.7566 38.2759C36.9318 38.1772 37.1538 38.23 37.2656 38.3975C37.3773 38.5646 37.3414 38.7898 37.1831 38.9142L32.8711 42.2252L34.4111 41.3372C34.586 41.2378 34.808 41.29 34.9205 41.4571C35.0329 41.6238 34.998 41.8494 34.8401 41.9742L32.5761 43.7405C32.5923 43.7595 32.6067 43.7803 32.6194 43.8022C32.7255 43.9862 32.6631 44.2217 32.4791 44.3281L29.9102 45.8082C29.735 45.9094 29.5115 45.8579 29.3984 45.6901C29.2849 45.5223 29.3212 45.2957 29.4805 45.1713L29.9743 44.7864L28.2031 45.8072C28.0275 45.908 27.804 45.8558 27.6916 45.6877C27.5788 45.5195 27.6158 45.2929 27.7758 45.1688L32.0879 41.8579L25.2425 45.8082C25.0627 45.9073 24.8371 45.848 24.7289 45.6739C24.6211 45.4994 24.6686 45.271 24.8375 45.1543L26.3282 44.1663L23.4836 45.8082C23.3056 45.9055 23.0824 45.8477 22.9739 45.676C22.8653 45.5047 22.9083 45.2784 23.0726 45.1589L28.8932 41.1388L20.8047 45.8082C20.6263 45.9062 20.4021 45.8488 20.2935 45.6764C20.1846 45.5044 20.229 45.277 20.3944 45.1582L28.4551 39.6393L17.7687 45.8082C17.7102 45.8431 17.6439 45.8618 17.5759 45.8629Z" fill="#F76031"/>
<path d="M30.828 45.2537C30.668 45.2537 30.5245 45.1547 30.4678 45.0049C30.411 44.8551 30.453 44.6859 30.5732 44.5798L32.5799 42.8089L31.0198 43.7091C30.8453 43.8071 30.6247 43.7553 30.5122 43.5893C30.4001 43.4236 30.4336 43.1994 30.5894 43.0736L31.465 42.3806L31.0198 42.6372C30.8474 42.7338 30.6299 42.6844 30.5164 42.5227C30.4029 42.3612 30.4301 42.1395 30.5795 42.0105L30.8781 41.7577C30.7251 41.7778 30.5749 41.7049 30.4963 41.572C30.4181 41.4391 30.4266 41.272 30.5178 41.1479L31.0138 40.4757C30.8481 40.4581 30.7124 40.3365 30.6775 40.1737C30.6426 40.0112 30.7159 39.8441 30.8598 39.7602L32.1164 39.0341C32.2743 38.9431 32.4742 38.9755 32.5958 39.1113C32.717 39.2473 32.7265 39.4496 32.6183 39.5963L32.2334 40.119L34.127 39.0256C34.2994 38.9276 34.5183 38.9763 34.6325 39.1387C34.7467 39.3009 34.7188 39.5233 34.5683 39.6523L34.3935 39.8004L35.7379 39.0319C35.9123 38.9318 36.1348 38.9833 36.2479 39.1497C36.3607 39.3164 36.3265 39.5416 36.169 39.6671L35.2965 40.3531L35.5274 40.2198C35.6987 40.1225 35.9155 40.1698 36.0308 40.3295C36.1457 40.4895 36.1217 40.7101 35.9751 40.8413L32.5207 43.8885C32.6271 44.0722 32.5644 44.3077 32.3804 44.4145L31.0184 45.1998C30.9609 45.2344 30.895 45.2527 30.828 45.2537Z" fill="#009C9D"/>
<path d="M24.172 29.7315C24.0046 29.7311 23.8565 29.6226 23.8058 29.4629C23.7554 29.3032 23.8135 29.1291 23.9503 29.0322L30.7558 24.2228L24.4533 27.8619C24.2717 27.9655 24.0409 27.9056 23.9327 27.7272C23.8244 27.5485 23.8784 27.3162 24.0543 27.2034L24.9313 26.6476C24.7874 26.656 24.6503 26.5852 24.5738 26.4629C24.4656 26.2842 24.5192 26.0519 24.6947 25.9391L28.5806 23.4459L25.9091 24.9859C25.7289 25.0867 25.5012 25.0272 25.393 24.8509C25.2852 24.6747 25.3356 24.4445 25.5072 24.3296L32.3882 19.8699L26.8872 23.0455C26.705 23.1555 26.4685 23.0969 26.3585 22.9147C26.2485 22.7328 26.307 22.4963 26.4889 22.3863L28.9461 20.834L28.0547 21.3482C27.8735 21.46 27.6363 21.4039 27.5245 21.2231C27.4124 21.0423 27.4685 20.8047 27.6497 20.693L34.0491 16.4761L31.3994 18.0102C31.22 18.1106 30.993 18.0525 30.8845 17.878C30.7755 17.7031 30.8235 17.4737 30.993 17.357L34.8507 14.7683L34.3632 15.0492C34.1855 15.1508 33.9596 15.0954 33.8485 14.9231C33.7379 14.751 33.7816 14.5223 33.9476 14.4024L37.1355 12.1363C36.9734 12.1359 36.8288 12.034 36.7739 11.8814C36.7192 11.7291 36.7657 11.5585 36.8905 11.4549L39.6311 9.18029C39.6202 9.1669 39.6107 9.15244 39.6026 9.13729C39.4968 8.95329 39.5592 8.71853 39.7429 8.61208L41.653 7.50702C41.8264 7.40691 42.0475 7.45626 42.1617 7.62052C42.2759 7.78478 42.2452 8.00932 42.0912 8.13692L40.874 9.14716L43.3457 7.72098C43.523 7.62299 43.7461 7.67939 43.8557 7.84964C43.9654 8.01989 43.9241 8.24619 43.7616 8.3671L41.0309 10.31L44.3527 8.39248C44.5318 8.29589 44.7553 8.35476 44.8628 8.52748C44.9703 8.7002 44.9252 8.92685 44.7595 9.04458L40.9026 11.6336L44.946 9.29873C45.1268 9.18699 45.364 9.24303 45.4761 9.42386C45.5879 9.60504 45.5318 9.84227 45.351 9.95401L38.9533 14.1701L45.1846 10.5726C45.3654 10.4729 45.5928 10.5339 45.6996 10.7104C45.8064 10.8874 45.7549 11.1169 45.5826 11.2307L43.1254 12.7849L44.9495 11.7313C45.131 11.6202 45.3679 11.6773 45.4789 11.8589C45.59 12.04 45.5329 12.2773 45.3517 12.3883L38.4683 16.8498L42.4479 14.5526C42.6284 14.4535 42.855 14.5138 42.9622 14.6897C43.0693 14.8656 43.0193 15.0947 42.8483 15.2096L38.9674 17.7021L39.7598 17.2449C39.9399 17.1494 40.1634 17.2114 40.2688 17.3859C40.3745 17.5604 40.3259 17.7867 40.1578 17.9023L37.9307 19.3161C38.0781 19.351 38.1912 19.4691 38.2201 19.6175C38.2487 19.7663 38.1877 19.9178 38.064 20.0053L31.2584 24.815L33.4738 23.5358C33.6568 23.4403 33.8824 23.5058 33.9857 23.6842C34.0889 23.8629 34.0332 24.0913 33.8591 24.202L24.3645 29.6839C24.3059 29.7163 24.2393 29.7329 24.172 29.7315Z" fill="#009C9D"/>
<path d="M23.9651 29.5866C23.8089 29.5866 23.6683 29.4925 23.6091 29.3483C23.5495 29.2042 23.583 29.0381 23.694 28.9282L24.2869 28.3392L24.1797 28.4008C24.0282 28.4886 23.8368 28.4629 23.7134 28.3388C23.5904 28.2144 23.5664 28.0226 23.6552 27.8718L24.8921 25.7699C24.804 25.588 24.8713 25.3694 25.0462 25.2683L25.3479 25.0934C25.4995 25.006 25.6909 25.0314 25.8142 25.1558C25.9373 25.2803 25.9612 25.472 25.8724 25.6225L25.0592 27.0032L26.4653 26.1925C26.6324 26.0994 26.8424 26.1435 26.9584 26.2954C27.0744 26.4477 27.061 26.6617 26.927 26.7984L26.3334 27.3881L27.1805 26.8992C27.3634 26.8037 27.589 26.8693 27.6923 27.0476C27.7956 27.2264 27.7395 27.4548 27.5654 27.5654L24.1544 29.5352C24.0969 29.5686 24.0313 29.5866 23.9651 29.5866Z" fill="#009C9D"/>
<path d="M27.5062 27.7188C27.3469 27.7184 27.2041 27.6204 27.147 27.4717C27.0899 27.3233 27.1301 27.1548 27.2482 27.048L27.3807 26.9285L27.1104 27.0825C26.95 27.1752 26.7462 27.1407 26.6257 27.0001C26.5051 26.8594 26.5016 26.6525 26.6176 26.508L27.7374 25.122L26.0895 26.0737C25.9285 26.1671 25.7237 26.1322 25.6031 25.9905C25.4826 25.8488 25.4804 25.6412 25.5982 25.497L26.7015 24.1456L26.1851 24.4413C26.0331 24.5287 25.8417 24.503 25.7187 24.3786C25.5957 24.2542 25.5721 24.0621 25.6613 23.9115L26.7156 22.1445C26.631 21.964 26.6976 21.749 26.8696 21.6486L27.1689 21.4751C27.3208 21.387 27.5129 21.4124 27.6363 21.5372C27.7596 21.6619 27.7833 21.8544 27.6934 22.0049L27.0772 23.0352L28.1308 22.4279C28.2919 22.3349 28.4963 22.3701 28.6165 22.5118C28.7371 22.6531 28.7396 22.8604 28.6222 23.0046L27.5185 24.356L29.1358 23.4226C29.2961 23.3299 29.4999 23.3648 29.6204 23.5055C29.741 23.6461 29.7445 23.8527 29.6285 23.9972L28.5111 25.3871L30.1611 24.4353C30.3307 24.3433 30.5422 24.3906 30.656 24.5464C30.7695 24.7018 30.7509 24.9179 30.6116 25.0511L30.4816 25.1692L30.7495 25.0152C30.9335 24.9105 31.1675 24.9739 31.2733 25.1572C31.379 25.3405 31.3173 25.5749 31.1347 25.6817L27.6987 27.6656C27.6405 27.7001 27.5739 27.7184 27.5062 27.7188Z" fill="#009C9D"/>
<path d="M45.7437 12.0647C46.2576 10.8229 45.9851 9.39461 45.0507 8.42879C45.0344 8.41786 45.0179 8.40799 45.0006 8.39953C44.9883 8.38472 44.9865 8.37027 44.9703 8.35617C43.8807 7.36532 42.3132 7.1006 40.9586 7.67869C40.0925 8.14468 39.3252 8.77493 38.6995 9.53384C38.6854 9.543 38.671 9.55076 38.6586 9.56063C38.6463 9.5705 38.6385 9.57297 38.6301 9.58002H38.6237L37.5881 10.6177C37.7361 8.83979 37.9942 6.33182 36.722 5.46576C35.9518 4.94266 34.4425 5.18059 33.5979 5.18059H32.1411C32.1725 3.06389 32.5884 1.03567 30.1252 0.467452C27.9158 -0.0429531 24.9535 0.467452 22.7028 0.467452C16.1807 0.467452 9.2504 -0.225543 2.7593 0.467452C-1.05852 0.871053 0.21115 6.00788 0.21115 8.79361V32.1069C0.21115 34.2955 -0.264006 37.1028 0.21115 39.2568C0.788528 41.8688 3.39448 41.3235 5.60671 41.2586V41.9742C5.60671 43.1247 5.30251 44.7317 6.40757 45.4938C7.23451 46.0652 9.00013 45.7789 9.8803 45.7789H27.6634C28.6211 45.7789 30.0935 46.0736 31.0152 45.688C32.8002 44.9393 34.6004 42.2075 35.9564 40.8515C36.4439 40.364 36.7774 40.0415 37.0093 39.7556L37.4711 39.2935C37.5768 39.1874 37.4834 39.1296 37.378 39.1158C37.5123 38.5638 37.5613 37.9946 37.5236 37.4278V20.6827L43.321 14.8853L44.2667 15.8311C44.8141 16.3785 44.8356 16.6834 44.389 17.2703C43.3485 18.455 42.2318 19.5706 41.0464 20.6105C40.5483 21.1078 41.6146 21.3504 41.9896 20.9757C43.2769 19.8385 44.4927 18.6224 45.6295 17.3348C46.5537 16.1353 45.0951 14.9699 44.0894 14.0936C44.7722 13.536 45.3348 12.8458 45.7437 12.0647ZM1.337 38.4345C0.958076 36.5779 1.337 34.1993 1.337 32.3163V5.06462C1.337 3.94194 0.914367 1.87882 2.18404 1.21438C3.26195 0.648279 6.17281 1.21438 7.34307 1.21438H27.0941C27.9214 1.09841 28.7607 1.09841 29.5876 1.21438C31.2401 1.7974 31.0508 3.68392 31.0184 5.17918H15.4637C13.3985 5.17918 7.78756 4.08188 6.13721 5.95677C5.41425 6.77772 5.60601 7.88207 5.60601 8.91452V40.5187C3.63629 40.572 1.79594 40.6865 1.337 38.4345ZM36.0798 39.7634L33.4379 42.4053C33.2169 42.6016 33.0075 42.7902 32.8316 42.9682C32.63 43.1698 32.4277 43.3919 32.2236 43.6196L31.3624 44.4797V40.7306C31.4812 39.5554 32.0554 39.5663 32.9426 39.5663H35.3343C35.624 39.5878 35.9148 39.5878 36.2046 39.5663C36.1676 39.6326 36.1228 39.6978 36.0798 39.7634ZM36.414 39.1127H33.2183C31.8799 39.1127 30.4061 39.4539 30.2475 41.0292V45.2351C28.3226 45.4106 26.2704 45.2188 24.3468 45.2188C19.4589 45.2188 13.8744 46.0137 9.05336 45.2188C6.54539 44.8054 6.54222 42.909 6.65396 40.8339C6.70648 40.7673 6.71141 40.6745 6.66629 40.6026C6.69308 40.1183 6.72164 39.6269 6.72164 39.1451V9.17395C6.72164 8.14926 6.36456 6.38963 7.50557 5.73964C8.26801 5.30537 10.7104 5.73964 11.5243 5.73964H29.342C29.8111 5.73964 30.41 5.68677 31.0491 5.63107C31.1939 5.96382 31.9155 5.86231 32.0963 5.54965C33.0523 5.43227 34.022 5.49678 34.9539 5.73964C37.187 6.55918 36.4778 9.82782 36.4171 11.7891L26.7494 21.4536C26.6923 21.5178 26.6585 21.5992 26.6539 21.6849L24.9528 25.0437C24.8445 25.1061 24.7839 25.2274 24.7987 25.3515L24.5164 25.9091C24.1928 26.5489 23.1357 27.9881 23.2404 28.9567H10.9861C10.494 28.9567 9.83095 29.7022 10.5828 29.7022H23.7585C24.8135 30.2236 26.6701 28.8422 27.4963 28.4241L27.969 28.1851C28.1668 28.1626 28.3497 28.0699 28.4851 27.9243L31.4981 26.398C31.7036 26.392 31.8993 26.3071 32.0441 26.1608L36.4069 21.7987V33.47C36.4076 35.0076 36.8884 37.622 36.414 39.1127ZM24.491 28.7466C24.209 28.1305 24.8643 26.9694 25.4311 26.0445L27.2083 27.8217L25.829 28.5193C25.2763 28.7981 24.7628 29.3466 24.491 28.7466ZM28.2172 27.3106L26 25.0945C26.013 25.0698 26.0286 25.0427 26.0402 25.0173C26.4667 24.1738 26.8936 23.3306 27.3208 22.4871L30.8221 25.9884L28.2172 27.3106ZM42.2184 14.6989C41.4736 15.3683 40.7654 16.0768 40.0961 16.8212L31.6257 25.2915L27.956 21.6214C27.956 21.6115 27.9461 21.6006 27.9429 21.5908C27.9376 21.5788 27.9316 21.5668 27.9253 21.5555C28.0762 21.3641 28.2521 21.1935 28.448 21.0486C29.1925 20.3796 29.901 19.6711 30.57 18.9266L39.0344 10.4641L42.5364 13.966C42.5251 14.0471 42.5536 14.1289 42.6135 14.1853L42.6904 14.2625C42.5469 14.4222 42.3887 14.5685 42.2184 14.6989ZM43.5276 13.4408L39.7742 9.68612C40.0499 9.40201 40.3234 9.11332 40.6167 8.85072C41.5959 7.94623 43.1176 7.98712 44.0464 8.94307C45.0313 9.94661 45.13 11.5212 44.2773 12.6393C44.0457 12.9223 43.7944 13.1892 43.5258 13.4377L43.5276 13.4408Z" fill="#0C0B0B"/>
<path d="M10.7376 11.2677H32.2983C32.9434 11.2677 33.1453 10.4299 32.3921 10.4299H10.8313C10.1859 10.4299 9.98112 11.2677 10.7376 11.2677Z" fill="white"/>
<path d="M11.1454 22.9383C10.9029 22.9383 9.88101 23.4004 10.4231 23.4004H21.2037C21.4462 23.4004 22.4674 22.9383 21.9259 22.9383H11.1454Z" fill="white"/>
<path d="M10.5828 26.6236H21.363C21.8582 26.6236 22.5181 25.8753 21.7666 25.8753H10.9861C10.4912 25.8753 9.83094 26.6236 10.5828 26.6236Z" fill="white"/>
<path d="M11.0069 13.634C10.6156 13.634 9.81334 14.2241 10.562 14.2241H25.1925C25.5834 14.2241 26.386 13.634 25.6373 13.634H11.0069Z" fill="white"/>
<path d="M31.0269 13.6301H28.7166C28.4988 13.6301 28.0899 13.7073 27.9782 13.9276C27.8668 14.1476 28.073 14.2279 28.2732 14.2279H30.5834C30.8013 14.2279 31.2101 14.1508 31.3219 13.9304C31.4333 13.7105 31.2271 13.6301 31.0269 13.6301Z" fill="white"/>
<path d="M23.9235 16.597H10.8331C10.1937 16.597 9.97901 17.4212 10.7358 17.4212H23.8262C24.4653 17.4212 24.6803 16.597 23.9235 16.597Z" fill="white"/>
<path d="M27.7804 16.6242H27.0103C26.7794 16.6242 26.422 16.8029 26.3945 17.0584C26.3606 17.344 26.6976 17.394 26.9027 17.394H27.6726C27.9035 17.394 28.2609 17.2157 28.2887 16.9597C28.3226 16.6742 27.9852 16.6242 27.7804 16.6242Z" fill="white"/>
<path d="M23.9224 19.6736H14.6823C14.04 19.6736 13.83 20.5051 14.5867 20.5051H23.8273C24.4692 20.5051 24.6796 19.6736 23.9224 19.6736Z" fill="white"/>
<path d="M10.739 20.5121H11.5092C11.7943 20.5157 12.046 20.3253 12.1204 20.05C12.1489 19.755 11.8285 19.6651 11.5997 19.6651H10.8299C10.5444 19.6612 10.2931 19.8516 10.2183 20.1269C10.1898 20.4226 10.5102 20.5121 10.739 20.5121Z" fill="white"/>
</g>
<defs>
<clipPath id="clip0_15_1157">
<rect width="46" height="46" fill="white"/>
</clipPath>
</defs>
</svg>
