<svg width="46" height="46" viewBox="0 0 46 46" fill="none" xmlns="http://www.w3.org/2000/svg">
<path d="M14.5483 45.5937C14.465 45.5938 14.3839 45.5669 14.3173 45.5168C14.2507 45.4668 14.2022 45.3964 14.1791 45.3164C14.1561 45.2363 14.1597 45.1509 14.1896 45.0732C14.2194 44.9954 14.2737 44.9294 14.3443 44.8853L19.7401 41.4989L12.7366 45.54C12.65 45.5863 12.549 45.5976 12.4543 45.5715C12.3596 45.5455 12.2785 45.4841 12.2278 45.4C12.177 45.3159 12.1605 45.2156 12.1816 45.1196C12.2026 45.0237 12.2597 44.9396 12.341 44.8845L20.9936 39.4197L10.3929 45.54C10.3065 45.5876 10.205 45.5999 10.1096 45.5745C10.0142 45.5491 9.93228 45.4879 9.88091 45.4036C9.82953 45.3194 9.81264 45.2185 9.83376 45.1221C9.85488 45.0257 9.91237 44.9411 9.99428 44.886L23.1342 36.4826L8.12208 45.1498C8.03515 45.2025 7.93083 45.2186 7.83205 45.1945C7.73328 45.1703 7.64814 45.1079 7.59538 45.021C7.54261 44.934 7.52654 44.8297 7.55069 44.7309C7.57485 44.6322 7.63725 44.547 7.72418 44.4943L22.0256 35.4008L7.22278 43.9469C7.13598 43.9965 7.03324 44.0102 6.93646 43.9851C6.83968 43.9601 6.75652 43.8982 6.70472 43.8127C6.65292 43.7272 6.63657 43.6248 6.65916 43.5274C6.68175 43.43 6.74149 43.3453 6.82564 43.2914L19.8774 35.0275L7.11468 42.3967C7.02782 42.4453 6.92544 42.4583 6.8292 42.4328C6.73296 42.4073 6.6504 42.3454 6.599 42.2602C6.5476 42.1749 6.53139 42.073 6.55381 41.976C6.57622 41.879 6.63549 41.7945 6.71908 41.7404L16.7701 35.4085L7.11468 40.9814C7.02786 41.0278 6.92653 41.039 6.83168 41.0127C6.73683 40.9864 6.65573 40.9246 6.60517 40.8402C6.55462 40.7557 6.53849 40.655 6.56012 40.559C6.58175 40.463 6.63949 40.379 6.72138 40.3244L11.8396 37.1427L7.11468 39.8705C7.02745 39.9228 6.92303 39.9382 6.8244 39.9135C6.72577 39.8888 6.641 39.8259 6.58874 39.7386C6.53649 39.6514 6.52102 39.547 6.54575 39.4484C6.57048 39.3497 6.63338 39.265 6.72061 39.2127L10.5961 36.8L7.11468 38.811C7.02831 38.8601 6.92626 38.8737 6.83003 38.849C6.73379 38.8244 6.6509 38.7633 6.59881 38.6787C6.54672 38.5941 6.52951 38.4926 6.5508 38.3956C6.57209 38.2985 6.63022 38.2135 6.71294 38.1585L16.5125 31.7285L7.11468 37.1542C7.02798 37.2019 6.92621 37.2142 6.83064 37.1885C6.73508 37.1629 6.65313 37.1013 6.60194 37.0167C6.55074 36.932 6.53426 36.8308 6.55595 36.7343C6.57764 36.6377 6.63582 36.5533 6.71831 36.4987L10.3523 34.1987L7.11468 36.0648C7.0281 36.114 6.92574 36.1277 6.82928 36.1028C6.73282 36.0779 6.64983 36.0165 6.59791 35.9314C6.54598 35.8464 6.52919 35.7445 6.55109 35.6473C6.57299 35.5502 6.63187 35.4653 6.71524 35.4108L11.5667 32.2675L7.11468 34.8404C7.02813 34.8873 6.92685 34.8991 6.83183 34.8734C6.73681 34.8476 6.65533 34.7863 6.60428 34.7022C6.55323 34.618 6.53651 34.5174 6.5576 34.4213C6.57868 34.3251 6.63595 34.2407 6.71754 34.1857L7.81924 33.4842L7.11468 33.8905C7.02837 33.9405 6.92596 33.955 6.8292 33.9307C6.73243 33.9065 6.64893 33.8454 6.59643 33.7606C6.54394 33.6758 6.52658 33.5738 6.54805 33.4764C6.56952 33.379 6.62812 33.2937 6.71141 33.2388L10.4957 30.7334L7.11468 32.6853C7.02898 32.733 6.92827 32.746 6.83327 32.7216C6.73828 32.6973 6.65622 32.6375 6.60397 32.5545C6.55173 32.4715 6.53327 32.3717 6.5524 32.2755C6.57153 32.1793 6.62679 32.0941 6.70681 32.0375L10.7203 29.2867L7.11698 31.3682C7.0322 31.4167 6.93207 31.4311 6.83706 31.4083C6.74205 31.3855 6.65933 31.3273 6.60579 31.2456C6.55225 31.1639 6.53194 31.0648 6.549 30.9686C6.56607 30.8724 6.61923 30.7863 6.69761 30.728L10.9833 27.5709L7.11468 29.8026C7.03104 29.8501 6.9326 29.8644 6.8389 29.8427C6.74519 29.821 6.66308 29.7649 6.60883 29.6855C6.55459 29.606 6.5322 29.5091 6.54608 29.4139C6.55997 29.3188 6.60913 29.2323 6.68381 29.1717L10.0571 26.4776L7.11468 28.175C7.03001 28.2231 6.93019 28.2372 6.8355 28.2144C6.74081 28.1916 6.65834 28.1337 6.60486 28.0523C6.55138 27.9709 6.53088 27.8722 6.54754 27.7762C6.5642 27.6802 6.61676 27.5942 6.69454 27.5356L7.16528 27.1875L7.11468 27.2167C7.03104 27.2642 6.9326 27.2785 6.8389 27.2568C6.74519 27.2351 6.66308 27.1789 6.60883 27.0995C6.55459 27.0201 6.5322 26.9231 6.54608 26.828C6.55997 26.7328 6.60913 26.6463 6.68381 26.5857L7.11008 26.2445C7.02738 26.2901 6.93076 26.3036 6.83873 26.2824C6.74671 26.2612 6.66577 26.2067 6.61142 26.1295C6.55708 26.0522 6.53316 25.9576 6.54426 25.8638C6.55535 25.7701 6.60068 25.6837 6.67154 25.6212L6.92378 25.4012C6.8679 25.4012 6.8127 25.389 6.76203 25.3655C6.71136 25.342 6.66645 25.3076 6.63044 25.2649C6.59443 25.2222 6.5682 25.1721 6.55358 25.1182C6.53897 25.0642 6.53631 25.0078 6.54581 24.9527L6.77581 23.6011C6.69721 23.5697 6.63173 23.5123 6.59028 23.4385C6.53963 23.3507 6.52587 23.2463 6.55202 23.1483C6.57818 23.0503 6.64211 22.9666 6.72981 22.9157L7.06714 22.7209C7.13018 22.6845 7.20227 22.6668 7.27501 22.6699C7.34774 22.6729 7.41809 22.6966 7.47784 22.7382C7.5376 22.7798 7.58428 22.8375 7.61242 22.9046C7.64057 22.9718 7.64902 23.0455 7.63678 23.1173L7.43668 24.2765L9.76351 22.9325C9.84601 22.8852 9.94314 22.8703 10.036 22.8906C10.1289 22.9109 10.211 22.965 10.2662 23.0424C10.3214 23.1198 10.3459 23.215 10.3349 23.3095C10.3239 23.4039 10.2782 23.4909 10.2066 23.5535L10.1522 23.6011L11.1243 23.0406C11.208 22.9931 11.3064 22.9788 11.4001 23.0005C11.4938 23.0222 11.5759 23.0784 11.6302 23.1578C11.6844 23.2372 11.7068 23.3342 11.6929 23.4293C11.679 23.5245 11.6299 23.611 11.5552 23.6716L11.1289 24.012L12.6101 23.1572C12.6948 23.109 12.7946 23.0949 12.8893 23.1177C12.984 23.1405 13.0665 23.1985 13.12 23.2799C13.1734 23.3613 13.1939 23.46 13.1773 23.556C13.1606 23.6519 13.1081 23.738 13.0303 23.7966L12.5641 24.1416L14.0699 23.2722C14.1537 23.2224 14.2533 23.2065 14.3484 23.2275C14.4435 23.2486 14.5271 23.3051 14.582 23.3855C14.637 23.466 14.6593 23.5644 14.6443 23.6607C14.6294 23.7569 14.5783 23.8439 14.5015 23.9039L11.1282 26.5995L16.5516 23.4684C16.6364 23.4199 16.7365 23.4055 16.8315 23.4283C16.9265 23.4511 17.0092 23.5093 17.0628 23.591C17.1163 23.6727 17.1366 23.7718 17.1196 23.868C17.1025 23.9642 17.0493 24.0503 16.9709 24.1086L12.6845 27.2665L18.9367 23.657C19.0224 23.6094 19.1231 23.5964 19.2181 23.6207C19.3131 23.645 19.3951 23.7048 19.4474 23.7878C19.4996 23.8708 19.5181 23.9706 19.499 24.0668C19.4798 24.163 19.4246 24.2482 19.3445 24.3049L15.3372 27.0511L20.9423 23.815C21.0287 23.7614 21.1329 23.7443 21.2318 23.7676C21.3308 23.7908 21.4165 23.8524 21.4701 23.9388C21.5237 24.0252 21.5408 24.1294 21.5175 24.2284C21.4943 24.3273 21.4327 24.4131 21.3463 24.4666L17.5567 26.9767L22.7807 23.9606C22.8673 23.9137 22.9686 23.9019 23.0636 23.9277C23.1586 23.9534 23.2401 24.0147 23.2911 24.0989C23.3422 24.183 23.3589 24.2836 23.3378 24.3798C23.3167 24.4759 23.2595 24.5603 23.1779 24.6154L22.0808 25.3146L24.2267 24.0733C24.3134 24.0203 24.4177 24.0038 24.5165 24.0276C24.6153 24.0514 24.7007 24.1135 24.7538 24.2002C24.8068 24.2869 24.8233 24.3912 24.7995 24.49C24.7757 24.5889 24.7136 24.6742 24.6269 24.7273L19.7739 27.8706L26.092 24.2228C26.1785 24.1759 26.2798 24.1641 26.3748 24.1899C26.4698 24.2156 26.5513 24.2769 26.6024 24.3611C26.6534 24.4452 26.6701 24.5458 26.6491 24.642C26.628 24.7381 26.5707 24.8225 26.4891 24.8776L22.8543 27.1776L27.7533 24.3532C27.8396 24.3049 27.9411 24.2919 28.0367 24.3167C28.1323 24.3415 28.2147 24.4022 28.2666 24.4863C28.3185 24.5703 28.336 24.6712 28.3153 24.7678C28.2947 24.8644 28.2376 24.9493 28.1558 25.0048L18.3578 31.4333L30.2795 24.5502C30.3667 24.4978 30.4712 24.4823 30.5699 24.5069C30.6686 24.5316 30.7535 24.5945 30.8058 24.6817C30.8582 24.7689 30.8737 24.8734 30.8491 24.9721C30.8244 25.0708 30.7616 25.1556 30.6743 25.208L26.795 27.623L31.8933 24.6798C31.9804 24.6307 32.0832 24.6176 32.1798 24.6432C32.2764 24.6689 32.3592 24.7312 32.4105 24.817C32.4618 24.9028 32.4776 25.0052 32.4544 25.1025C32.4313 25.1997 32.3711 25.2841 32.2866 25.3376L27.176 28.5139L33.5861 24.8132C33.673 24.7645 33.7754 24.7515 33.8716 24.777C33.9679 24.8025 34.0504 24.8644 34.1018 24.9497C34.1532 25.0349 34.1694 25.1369 34.147 25.2339C34.1246 25.3309 34.0653 25.4154 33.9817 25.4694L23.9338 31.8006L35.7405 24.9834C35.8273 24.9338 35.93 24.92 36.0268 24.9451C36.1236 24.9702 36.2067 25.0321 36.2585 25.1176C36.3103 25.2031 36.3267 25.3054 36.3041 25.4028C36.2815 25.5002 36.2218 25.5849 36.1376 25.6389L23.0828 33.9051L37.1642 25.7784C37.251 25.7288 37.3537 25.7151 37.4505 25.7401C37.5473 25.7652 37.6304 25.8271 37.6822 25.9126C37.734 25.9981 37.7504 26.1005 37.7278 26.1978C37.7052 26.2952 37.6455 26.3799 37.5613 26.4339L23.2568 35.5266L37.352 27.3892C37.4384 27.3429 37.5393 27.3315 37.6338 27.3573C37.7284 27.3831 37.8095 27.4441 37.8604 27.5279C37.9114 27.6116 37.9283 27.7117 37.9077 27.8075C37.8872 27.9033 37.8307 27.9877 37.7499 28.0431L24.61 36.4473L37.352 29.0919C37.4389 29.0433 37.5413 29.0303 37.6375 29.0558C37.7337 29.0813 37.8163 29.1432 37.8677 29.2285C37.9191 29.3137 37.9353 29.4156 37.9129 29.5126C37.8905 29.6096 37.8312 29.6941 37.7476 29.7482L29.0919 35.2145L37.352 30.4459C37.4388 30.3989 37.5403 30.3871 37.6355 30.4131C37.7307 30.4391 37.8122 30.5008 37.8631 30.5853C37.9139 30.6699 37.9302 30.7708 37.9086 30.867C37.8869 30.9633 37.829 31.0475 37.7468 31.1021L32.3441 34.4931L37.352 31.6028C37.4385 31.5552 37.54 31.5428 37.6354 31.5682C37.7308 31.5936 37.8127 31.6548 37.864 31.7391C37.9154 31.8234 37.9323 31.9243 37.9112 32.0207C37.8901 32.1171 37.8326 32.2016 37.7507 32.2567L30.7042 36.7801L37.352 32.9421C37.4378 32.8951 37.5383 32.8827 37.6329 32.9073C37.7276 32.932 37.8092 32.9919 37.8611 33.0748C37.9131 33.1576 37.9313 33.2572 37.9122 33.3532C37.8931 33.4491 37.8381 33.5341 37.7583 33.5907L29.0996 39.4427L37.352 34.6786C37.4385 34.6283 37.5413 34.6138 37.6384 34.6383C37.7354 34.6627 37.819 34.7242 37.8714 34.8095C37.9238 34.8948 37.9407 34.9972 37.9186 35.0948C37.8964 35.1924 37.837 35.2775 37.753 35.3318L33.8867 37.8557L37.3535 35.8547C37.4389 35.8068 37.5393 35.7933 37.6343 35.817C37.7292 35.8407 37.8115 35.8999 37.8642 35.9823C37.917 36.0648 37.9362 36.1643 37.9179 36.2604C37.8996 36.3566 37.8453 36.4421 37.766 36.4995L31.911 40.6226L37.3543 37.4793C37.4393 37.4297 37.5401 37.4147 37.6359 37.4374C37.7317 37.4601 37.815 37.5187 37.8687 37.6012C37.9224 37.6837 37.9423 37.7836 37.9244 37.8804C37.9064 37.9772 37.8519 38.0633 37.7721 38.121L33.4374 41.2819L37.352 39.0233C37.4375 38.9749 37.5383 38.961 37.6336 38.9847C37.7289 39.0084 37.8115 39.0678 37.8644 39.1506C37.9172 39.2334 37.9362 39.3334 37.9175 39.4298C37.8987 39.5263 37.8437 39.6118 37.7637 39.6689L36.4749 40.5751L37.352 40.0691C37.4355 40.0226 37.5334 40.009 37.6264 40.031C37.7194 40.0529 37.8008 40.1088 37.8548 40.1877C37.9087 40.2666 37.9312 40.3628 37.9179 40.4574C37.9046 40.5521 37.8565 40.6383 37.7829 40.6993L35.7006 42.3706L37.352 41.4169C37.435 41.3687 37.533 41.3533 37.6267 41.3739C37.7204 41.3944 37.803 41.4494 37.8582 41.5278C37.9134 41.6063 37.9371 41.7026 37.9247 41.7978C37.9123 41.8929 37.8647 41.98 37.7913 42.0417L36.9549 42.7509L37.352 42.5209C37.4285 42.4771 37.5177 42.4611 37.6046 42.4754C37.6916 42.4897 37.7709 42.5335 37.8293 42.5995C37.8877 42.6655 37.9216 42.7495 37.9253 42.8376C37.929 42.9256 37.9023 43.0122 37.8496 43.0828L37.2056 43.9392L37.2454 43.9162C37.2891 43.8885 37.3379 43.8698 37.3889 43.8615C37.4399 43.8531 37.4921 43.8551 37.5423 43.8674C37.5925 43.8797 37.6397 43.902 37.6811 43.933C37.7224 43.964 37.7571 44.0031 37.783 44.0479C37.8088 44.0926 37.8254 44.1422 37.8316 44.1935C37.8379 44.2448 37.8337 44.2969 37.8192 44.3465C37.8048 44.3962 37.7805 44.4424 37.7478 44.4824C37.7151 44.5224 37.6746 44.5554 37.6288 44.5794L35.9613 45.54C35.8848 45.5837 35.7956 45.5998 35.7087 45.5855C35.6217 45.5712 35.5424 45.5273 35.484 45.4614C35.4256 45.3954 35.3917 45.3113 35.388 45.2233C35.3843 45.1353 35.411 45.0487 35.4637 44.978L36.1069 44.1232L33.6536 45.54C33.5707 45.5882 33.4728 45.6036 33.3792 45.5832C33.2855 45.5627 33.2029 45.5079 33.1476 45.4296C33.0924 45.3512 33.0685 45.255 33.0807 45.16C33.0929 45.0649 33.1403 44.9778 33.2135 44.9159L34.05 44.2068L31.74 45.54C31.6565 45.5864 31.5587 45.6 31.4656 45.5781C31.3726 45.5561 31.2912 45.5002 31.2373 45.4213C31.1833 45.3425 31.1608 45.2463 31.1741 45.1516C31.1874 45.057 31.2356 44.9708 31.3091 44.9098L33.3883 43.24L29.4017 45.54C29.3164 45.5879 29.2159 45.6014 29.121 45.5777C29.026 45.554 28.9438 45.4948 28.891 45.4124C28.8383 45.3299 28.8191 45.2304 28.8373 45.1343C28.8556 45.0381 28.9099 44.9526 28.9892 44.8952L30.2749 43.9913L27.5916 45.54C27.5066 45.5896 27.4058 45.6046 27.31 45.5819C27.2142 45.5592 27.1309 45.5005 27.0772 45.4181C27.0235 45.3356 27.0036 45.2356 27.0215 45.1389C27.0395 45.0421 27.094 44.956 27.1737 44.8983L31.51 41.7389L24.9236 45.54C24.8383 45.5879 24.7378 45.6014 24.6429 45.5777C24.5479 45.554 24.4657 45.4948 24.4129 45.4124C24.3602 45.3299 24.341 45.2304 24.3592 45.1343C24.3775 45.0381 24.4318 44.9526 24.5111 44.8952L30.3677 40.7706L22.1045 45.54C22.0183 45.5875 21.917 45.6 21.8218 45.5749C21.7265 45.5497 21.6446 45.4889 21.593 45.4049C21.5415 45.321 21.5242 45.2205 21.5448 45.1241C21.5653 45.0278 21.6222 44.9431 21.7036 44.8876L25.5699 42.3652L20.069 45.54C19.9832 45.5883 19.8821 45.6017 19.7867 45.5774C19.6912 45.5531 19.6088 45.4931 19.5565 45.4097C19.5041 45.3263 19.4859 45.2259 19.5055 45.1294C19.5251 45.0329 19.5812 44.9477 19.6619 44.8914L28.3191 39.0433L17.066 45.54C16.9794 45.5893 16.8771 45.6029 16.7806 45.578C16.6841 45.5532 16.6012 45.4917 16.5492 45.4067C16.4973 45.3217 16.4805 45.2198 16.5024 45.1226C16.5243 45.0254 16.5832 44.9406 16.6666 44.886L23.7199 40.3566L14.7399 45.54C14.6819 45.5745 14.6158 45.593 14.5483 45.5937Z" fill="#F76031"/>
<path d="M12.295 25.6603C12.2138 25.6605 12.1347 25.6349 12.069 25.5872C12.0033 25.5395 11.9544 25.4722 11.9294 25.395C11.9044 25.3177 11.9046 25.2345 11.93 25.1574C11.9553 25.0802 12.0045 25.0131 12.0704 24.9657L12.2598 24.83L10.9097 25.6067C10.8272 25.6532 10.7304 25.6676 10.638 25.6471C10.5455 25.6265 10.4639 25.5724 10.409 25.4953C10.354 25.4181 10.3296 25.3234 10.3404 25.2293C10.3511 25.1352 10.3963 25.0484 10.4673 24.9857L12.6906 23.0567L8.55064 25.4449C8.46815 25.4922 8.37102 25.5071 8.27812 25.4868C8.18523 25.4665 8.10319 25.4124 8.04796 25.335C7.99272 25.2576 7.96823 25.1624 7.97924 25.068C7.99024 24.9735 8.03596 24.8865 8.10751 24.8239L10.1514 23.0498L7.49264 24.5832C7.41109 24.6275 7.31623 24.6407 7.22567 24.6204C7.13511 24.6 7.055 24.5475 7.00022 24.4726C6.94543 24.3977 6.91969 24.3054 6.92777 24.213C6.93585 24.1205 6.9772 24.0341 7.04414 23.9698L8.27081 22.8643L7.13001 23.5244C7.05237 23.569 6.96156 23.585 6.87334 23.5697C6.78512 23.5543 6.70506 23.5086 6.64705 23.4404C6.58904 23.3721 6.55674 23.2858 6.55575 23.1962C6.55476 23.1067 6.58515 23.0196 6.64164 22.9502L7.39374 22.0302C7.30803 22.0344 7.22339 22.0097 7.15335 21.9601C7.08332 21.9105 7.03196 21.8389 7.00749 21.7566C6.98301 21.6744 6.98685 21.5863 7.01838 21.5065C7.0499 21.4267 7.1073 21.3597 7.18138 21.3164L8.75304 20.4087C8.83069 20.3641 8.9215 20.348 9.00972 20.3634C9.09793 20.3787 9.17799 20.4245 9.23601 20.4927C9.29402 20.5609 9.32632 20.6473 9.32731 20.7368C9.32829 20.8264 9.2979 20.9134 9.24141 20.9829L8.56368 21.8109L11.0208 20.3933C11.1024 20.349 11.1973 20.3358 11.2878 20.3561C11.3784 20.3765 11.4585 20.429 11.5133 20.5039C11.5681 20.5788 11.5938 20.6711 11.5857 20.7635C11.5776 20.856 11.5363 20.9424 11.4693 21.0067L10.2427 22.1137L13.2296 20.3933C13.3121 20.346 13.4092 20.3311 13.5021 20.3514C13.595 20.3717 13.6771 20.4258 13.7323 20.5032C13.7875 20.5806 13.812 20.6758 13.801 20.7703C13.79 20.8647 13.7443 20.9517 13.6727 21.0143L11.6296 22.7876L15.778 20.3933C15.8605 20.3468 15.9573 20.3324 16.0497 20.3529C16.1422 20.3735 16.2238 20.4276 16.2787 20.5047C16.3337 20.5819 16.3581 20.6766 16.3473 20.7707C16.3366 20.8648 16.2913 20.9516 16.2204 21.0143L13.997 22.944L18.4153 20.3933C18.5004 20.3457 18.6004 20.3322 18.695 20.3556C18.7896 20.3791 18.8717 20.4377 18.9247 20.5195C18.9776 20.6014 18.9974 20.7003 18.9799 20.7962C18.9625 20.8921 18.9092 20.9778 18.8309 21.0358L18.6415 21.1715L19.9916 20.3933C20.0738 20.3472 20.1702 20.3329 20.2622 20.3533C20.3543 20.3737 20.4356 20.4273 20.4906 20.5038C20.5457 20.5804 20.5705 20.6746 20.5605 20.7683C20.5505 20.8621 20.5063 20.9488 20.4363 21.012L18.1593 23.0169L22.7033 20.3933C22.7883 20.3437 22.8891 20.3287 22.9849 20.3514C23.0806 20.3741 23.164 20.4328 23.2177 20.5153C23.2714 20.5977 23.2913 20.6977 23.2734 20.7945C23.2554 20.8912 23.2009 20.9774 23.1211 21.035L22.6611 21.3701L24.3547 20.3933C24.438 20.3467 24.5356 20.3328 24.6286 20.3544C24.7215 20.376 24.8031 20.4314 24.8573 20.5099C24.9116 20.5884 24.9346 20.6843 24.9219 20.7788C24.9092 20.8734 24.8617 20.9598 24.7886 21.0212L22.8804 22.5814L26.6716 20.3933C26.7542 20.3465 26.8514 20.332 26.9441 20.3526C27.0368 20.3733 27.1186 20.4277 27.1735 20.5053C27.2284 20.5828 27.2526 20.678 27.2413 20.7723C27.23 20.8667 27.1841 20.9535 27.1124 21.0159L24.9412 22.875L29.2414 20.3933C29.325 20.3461 29.4232 20.3319 29.5167 20.3536C29.6102 20.3752 29.6922 20.4312 29.7464 20.5104C29.8007 20.5896 29.8232 20.6862 29.8096 20.7812C29.796 20.8762 29.7473 20.9627 29.6731 21.0235L27.8775 22.4687L31.4747 20.3933C31.5571 20.3463 31.6539 20.3315 31.7465 20.3517C31.8391 20.3719 31.9209 20.4257 31.9762 20.5027C32.0315 20.5797 32.0563 20.6745 32.0458 20.7687C32.0353 20.8629 31.9903 20.9498 31.9194 21.0128L29.6524 23L34.1696 20.3933C34.2512 20.3459 34.3475 20.3303 34.44 20.3495C34.5324 20.3687 34.6146 20.4213 34.6706 20.4973C34.7266 20.5733 34.7527 20.6673 34.7437 20.7613C34.7347 20.8553 34.6913 20.9427 34.6219 21.0067L32.213 23.2361L35.663 21.2428C35.7469 21.1962 35.8452 21.1828 35.9385 21.2052C36.0318 21.2276 36.1133 21.2841 36.1669 21.3636C36.2205 21.4432 36.2424 21.5399 36.2282 21.6348C36.214 21.7297 36.1647 21.8158 36.0901 21.8761L35.6699 22.205L35.8187 22.1199C35.9004 22.071 35.9973 22.0542 36.0906 22.0729C36.184 22.0916 36.267 22.1443 36.3237 22.2208C36.3803 22.2973 36.4064 22.3921 36.397 22.4869C36.3875 22.5816 36.3432 22.6694 36.2725 22.7332L35.6592 23.3097L35.8233 23.2147C35.89 23.1759 35.9668 23.1581 36.0438 23.1637C36.1208 23.1693 36.1942 23.198 36.2546 23.2461C36.315 23.2941 36.3595 23.3593 36.3822 23.433C36.405 23.5067 36.405 23.5856 36.3822 23.6593L36.0962 24.5916C36.1731 24.606 36.2438 24.6436 36.2988 24.6993C36.3537 24.755 36.3903 24.8263 36.4036 24.9034C36.4168 24.9805 36.4062 25.0599 36.373 25.1308C36.3399 25.2017 36.2858 25.2607 36.2181 25.3L35.6761 25.6128C35.6094 25.6512 35.5328 25.6687 35.4561 25.663C35.3794 25.6573 35.3062 25.6286 35.246 25.5807C35.1858 25.5328 35.1414 25.468 35.1186 25.3945C35.0957 25.3211 35.0955 25.2425 35.1179 25.1689L35.364 24.3654L33.2066 25.6067C33.125 25.6555 33.028 25.6723 32.9347 25.6536C32.8413 25.635 32.7583 25.5823 32.7017 25.5058C32.645 25.4292 32.6189 25.3344 32.6284 25.2397C32.6378 25.145 32.6822 25.0572 32.7528 24.9933L33.3661 24.4168L31.3076 25.6067C31.2237 25.6541 31.125 25.6681 31.0312 25.6461C30.9374 25.624 30.8553 25.5674 30.8014 25.4875C30.7474 25.4076 30.7256 25.3104 30.7401 25.2151C30.7546 25.1199 30.8045 25.0335 30.8798 24.9734L31.303 24.643L29.6317 25.6067C29.55 25.6534 29.4541 25.6685 29.362 25.6491C29.27 25.6296 29.1883 25.577 29.1325 25.5013C29.0767 25.4255 29.0508 25.3319 29.0595 25.2382C29.0683 25.1446 29.1112 25.0574 29.1801 24.9933L31.5867 22.77L26.6654 25.6067C26.5831 25.6537 26.4863 25.6685 26.3937 25.6483C26.3011 25.6281 26.2192 25.5743 26.164 25.4973C26.1087 25.4203 26.0839 25.3256 26.0944 25.2313C26.1049 25.1371 26.1499 25.0502 26.2208 24.9872L28.4886 23L23.9698 25.6067C23.8863 25.6548 23.7876 25.6696 23.6936 25.6483C23.5996 25.6269 23.517 25.5709 23.4625 25.4913C23.4079 25.4118 23.3853 25.3147 23.3992 25.2192C23.4131 25.1238 23.4625 25.0371 23.5374 24.9765L25.333 23.5367L21.7365 25.6067C21.6539 25.6543 21.5564 25.6694 21.4632 25.649C21.37 25.6285 21.2878 25.5741 21.2325 25.4963C21.1773 25.4185 21.1531 25.3229 21.1647 25.2281C21.1762 25.1334 21.2227 25.0464 21.2949 24.9841L23.4654 23.1257L19.1667 25.6067C19.0834 25.6533 18.9858 25.6672 18.8928 25.6456C18.7999 25.624 18.7183 25.5686 18.6641 25.4901C18.6098 25.4116 18.5868 25.3157 18.5995 25.2212C18.6122 25.1266 18.6597 25.0402 18.7327 24.9788L20.6417 23.4178L16.8498 25.6067C16.7648 25.6563 16.664 25.6713 16.5682 25.6486C16.4725 25.6259 16.3891 25.5672 16.3354 25.4847C16.2817 25.4023 16.2618 25.3023 16.2798 25.2055C16.2977 25.1088 16.3522 25.0226 16.432 24.965L16.892 24.6315L15.1992 25.6067C15.117 25.6528 15.0206 25.6671 14.9286 25.6467C14.8365 25.6263 14.7552 25.5727 14.7002 25.4962C14.6451 25.4196 14.6203 25.3254 14.6303 25.2317C14.6403 25.1379 14.6845 25.0512 14.7545 24.988L17.033 22.9824L12.4867 25.6067C12.4287 25.6411 12.3625 25.6596 12.295 25.6603Z" fill="#F76031"/>
<path d="M34.8519 38.6937C34.7723 38.6938 34.6946 38.6691 34.6296 38.623C34.5647 38.5769 34.5157 38.5117 34.4895 38.4365C34.4632 38.3613 34.4611 38.2798 34.4833 38.2034C34.5055 38.1269 34.551 38.0592 34.6135 38.0098L34.7453 37.9048L33.5187 38.6124C33.4351 38.6605 33.3365 38.6754 33.2424 38.654C33.1484 38.6326 33.0659 38.5766 33.0113 38.4971C32.9568 38.4176 32.9342 38.3204 32.9481 38.225C32.962 38.1295 33.0113 38.0429 33.0863 37.9822L34.9309 36.5002L32.1808 38.0888C32.0964 38.1379 31.9964 38.1529 31.9013 38.1308C31.8062 38.1087 31.7231 38.0511 31.669 37.9698C31.6148 37.8885 31.5938 37.7896 31.6101 37.6933C31.6265 37.597 31.679 37.5106 31.7569 37.4517L33.5785 36.0717L31.4172 37.319C31.3328 37.3664 31.2335 37.3801 31.1394 37.3573C31.0453 37.3345 30.9633 37.2769 30.9099 37.1961C30.8564 37.1154 30.8356 37.0173 30.8515 36.9218C30.8674 36.8263 30.9189 36.7403 30.9956 36.6812L32.2767 35.719L31.0086 36.4504C30.9269 36.4993 30.83 36.516 30.7366 36.4974C30.6433 36.4787 30.5602 36.426 30.5036 36.3495C30.447 36.273 30.4209 36.1781 30.4303 36.0834C30.4398 35.9887 30.4841 35.9009 30.5547 35.8371L32.2935 34.1933L30.9496 34.9684C30.8685 35.0173 30.7722 35.0344 30.6792 35.0164C30.5863 34.9985 30.5033 34.9468 30.4462 34.8713C30.389 34.7958 30.3619 34.7019 30.3699 34.6076C30.3779 34.5133 30.4205 34.4252 30.4896 34.3605L31.2156 33.662C31.1512 33.6283 31.098 33.5766 31.0623 33.5133C31.0114 33.4254 30.9975 33.3208 31.0236 33.2226C31.0498 33.1244 31.1139 33.0406 31.2018 32.9897L33.0234 31.9378C33.1045 31.889 33.2008 31.8719 33.2937 31.8898C33.3867 31.9077 33.4697 31.9594 33.5268 32.0349C33.5839 32.1104 33.6111 32.2044 33.6031 32.2987C33.5951 32.393 33.5524 32.481 33.4834 32.5458L33.2856 32.7359L34.753 31.8926C34.8347 31.8429 34.932 31.8255 35.0258 31.8439C35.1196 31.8623 35.2032 31.915 35.2601 31.9918C35.3171 32.0686 35.3432 32.1639 35.3335 32.259C35.3238 32.3541 35.2789 32.4422 35.2076 32.5059L33.4642 34.1504L37.3681 31.8933C37.4526 31.8449 37.5523 31.8305 37.6471 31.853C37.7419 31.8754 37.8245 31.9331 37.8783 32.0143C37.932 32.0955 37.9529 32.1941 37.9366 32.2901C37.9203 32.3861 37.8681 32.4723 37.7905 32.5312L36.5133 33.4911L38.4675 32.3633C38.5519 32.3146 38.6516 32.2999 38.7465 32.3221C38.8413 32.3443 38.9241 32.4018 38.9781 32.4829C39.0322 32.564 39.0533 32.6627 39.0372 32.7588C39.0211 32.8549 38.969 32.9413 38.8915 33.0004L37.0706 34.3804L38.88 33.3354C38.9636 33.287 39.0625 33.272 39.1568 33.2934C39.251 33.3148 39.3337 33.3711 39.3883 33.4508C39.4429 33.5306 39.4653 33.628 39.4511 33.7237C39.4368 33.8193 39.387 33.906 39.3116 33.9664L37.4662 35.4484L38.8853 34.6303C38.969 34.5834 39.0673 34.5696 39.1607 34.5917C39.2541 34.6137 39.3358 34.6699 39.3897 34.7493C39.4437 34.8287 39.4659 34.9254 39.452 35.0203C39.4381 35.1152 39.3891 35.2015 39.3147 35.2621L39.0264 35.4921C39.1014 35.4825 39.1776 35.4954 39.2453 35.5291C39.3131 35.5627 39.3693 35.6157 39.407 35.6813C39.4447 35.7468 39.4622 35.8221 39.4572 35.8976C39.4522 35.973 39.4251 36.0454 39.3791 36.1054L38.6891 36.9947L38.8179 36.9181C38.8615 36.8903 38.9103 36.8717 38.9613 36.8633C39.0123 36.8549 39.0645 36.8569 39.1147 36.8692C39.1649 36.8815 39.2121 36.9039 39.2535 36.9349C39.2949 36.9659 39.3295 37.005 39.3554 37.0497C39.3813 37.0945 39.3978 37.144 39.4041 37.1953C39.4103 37.2467 39.4061 37.2987 39.3917 37.3484C39.3773 37.398 39.353 37.4443 39.3202 37.4843C39.2875 37.5243 39.247 37.5573 39.2012 37.5812L37.3673 38.64C37.2904 38.6842 37.2004 38.7003 37.1129 38.6855C37.0254 38.6708 36.9457 38.6261 36.8874 38.5591C36.8292 38.4922 36.7959 38.4071 36.7934 38.3184C36.7909 38.2297 36.8192 38.1428 36.8736 38.0727L37.5667 37.1833L35.0443 38.64C34.9862 38.6748 34.9197 38.6934 34.8519 38.6937Z" fill="#F76031"/>
<path d="M16.0011 15.5955C15.9178 15.5957 15.8367 15.5687 15.7701 15.5187C15.7035 15.4687 15.655 15.3983 15.632 15.3182C15.6089 15.2382 15.6126 15.1528 15.6424 15.075C15.6722 14.9972 15.7265 14.9313 15.7972 14.8871L16.4389 14.4846L15.4338 15.0642C15.3473 15.1118 15.2458 15.1242 15.1504 15.0988C15.055 15.0734 14.9731 15.0121 14.9217 14.9279C14.8703 14.8436 14.8535 14.7427 14.8746 14.6463C14.8957 14.5499 14.9532 14.4653 15.0351 14.4103L18.804 11.9976L14.293 14.6042C14.2059 14.6569 14.1016 14.6728 14.0028 14.6485C13.904 14.6242 13.8189 14.5617 13.7663 14.4747C13.7136 14.3876 13.6977 14.2832 13.722 14.1845C13.7463 14.0857 13.8088 14.0006 13.8958 13.948L16.1475 12.5227L13.0717 14.2968C12.9855 14.3458 12.8837 14.3595 12.7876 14.3351C12.6916 14.3107 12.6087 14.25 12.5564 14.1658C12.5042 14.0815 12.4865 13.9803 12.5073 13.8834C12.528 13.7865 12.5855 13.7014 12.6676 13.6459L20.1672 8.67329L10.7372 14.1166C10.6509 14.1667 10.5484 14.1811 10.4517 14.1568C10.3549 14.1326 10.2714 14.0715 10.2189 13.9867C10.1664 13.9019 10.1491 13.7999 10.1705 13.7025C10.192 13.6051 10.2506 13.5199 10.3339 13.465L18.1539 8.29839L6.06509 15.2751C5.97776 15.3272 5.87329 15.3425 5.77466 15.3177C5.67603 15.2928 5.59131 15.2298 5.53916 15.1424C5.487 15.0551 5.47168 14.9506 5.49655 14.852C5.52142 14.7534 5.58446 14.6686 5.67179 14.6165L5.94779 14.4471L5.57979 14.6587C5.49327 14.709 5.39051 14.7235 5.29345 14.699C5.1964 14.6746 5.11276 14.6131 5.0604 14.5278C5.00804 14.4425 4.99111 14.3401 5.01324 14.2425C5.03537 14.1449 5.0948 14.0598 5.17883 14.0055L13.9127 8.30452L5.72086 13.0387C5.63382 13.0889 5.53057 13.1029 5.4333 13.0777C5.33604 13.0525 5.25255 12.9902 5.2008 12.9041C5.14906 12.8179 5.13318 12.715 5.1566 12.6173C5.18002 12.5196 5.24086 12.435 5.32603 12.3817L5.81593 12.075C5.73815 12.0909 5.65737 12.0826 5.58445 12.0512C5.51154 12.0198 5.44998 11.9668 5.40806 11.8994C5.35606 11.8142 5.33938 11.712 5.36157 11.6146C5.38377 11.5173 5.44308 11.4324 5.52689 11.3781L9.63316 8.72236L6.41393 10.58C6.32872 10.6274 6.22862 10.6406 6.13403 10.6169C6.03943 10.5931 5.95745 10.5342 5.90478 10.4521C5.8521 10.37 5.8327 10.271 5.85052 10.1751C5.86834 10.0792 5.92205 9.99367 6.00069 9.93599L12.19 5.54529L7.84069 8.05689C7.75609 8.10572 7.65604 8.1204 7.56098 8.09795C7.46592 8.0755 7.38301 8.01761 7.32919 7.9361C7.27537 7.85458 7.25469 7.7556 7.27139 7.65936C7.28809 7.56312 7.34089 7.47688 7.41903 7.41826L10.2396 5.30992C10.1914 5.29705 10.1462 5.27468 10.1067 5.24414C10.0672 5.2136 10.0342 5.1755 10.0096 5.13206C9.95894 5.04418 9.94518 4.9398 9.97134 4.8418C9.99749 4.74379 10.0614 4.66015 10.1491 4.60919L14.6725 2.00252C14.7571 1.9537 14.8571 1.93901 14.9522 1.96146C15.0472 1.98391 15.1301 2.0418 15.184 2.12332C15.2378 2.20483 15.2585 2.30382 15.2418 2.40006C15.2251 2.4963 15.1723 2.58254 15.0941 2.64116L13.0525 4.16069L18.873 0.800391C18.9582 0.752933 19.0583 0.73974 19.1529 0.763498C19.2475 0.787256 19.3295 0.846179 19.3822 0.928266C19.4348 1.01035 19.4542 1.10943 19.4364 1.20532C19.4186 1.30122 19.3649 1.38671 19.2863 1.44439L13.1 5.83739L22.4028 0.470725C22.4893 0.421443 22.5917 0.407801 22.6882 0.432688C22.7846 0.457576 22.8676 0.519038 22.9195 0.604055C22.9715 0.689072 22.9882 0.790964 22.9663 0.888147C22.9444 0.98533 22.8856 1.07017 22.8022 1.12469L18.6959 3.77659L24.3455 0.515191C24.4323 0.468194 24.5338 0.456461 24.629 0.482433C24.7242 0.508405 24.8057 0.570082 24.8565 0.65463C24.9074 0.739177 24.9237 0.840083 24.9021 0.936348C24.8804 1.03261 24.8225 1.11683 24.7403 1.17146L24.7204 1.18449L25.6649 0.639391C25.7515 0.586118 25.8558 0.569436 25.9547 0.593016C26.0536 0.616595 26.1391 0.678505 26.1924 0.765125C26.2457 0.851744 26.2624 0.955979 26.2388 1.0549C26.2152 1.15382 26.1533 1.23932 26.0667 1.29259L17.3267 6.99582L27.7211 0.996658C27.8082 0.947598 27.911 0.934492 28.0076 0.960133C28.1042 0.985775 28.187 1.04814 28.2383 1.13392C28.2896 1.21971 28.3053 1.32214 28.2822 1.41938C28.2591 1.51661 28.1989 1.60097 28.1144 1.65446L27.8438 1.82159L28.8037 1.26729C28.89 1.21725 28.9924 1.20283 29.0891 1.22709C29.1859 1.25134 29.2694 1.31237 29.3219 1.3972C29.3744 1.48203 29.3918 1.58399 29.3703 1.68141C29.3488 1.77883 29.2902 1.86405 29.2069 1.91896L21.39 7.08016L30.4995 1.82082C30.5423 1.7943 30.5899 1.77645 30.6396 1.76832C30.6893 1.76018 30.7401 1.76191 30.7891 1.77341C30.8381 1.78491 30.8844 1.80595 30.9253 1.83533C30.9662 1.86471 31.0008 1.90185 31.0274 1.94464C31.0539 1.98743 31.0717 2.03503 31.0799 2.08471C31.088 2.13439 31.0863 2.18519 31.0748 2.23421C31.0633 2.28322 31.0423 2.3295 31.0129 2.37038C30.9835 2.41126 30.9463 2.44596 30.9036 2.47249L23.4025 7.44739L32.0244 2.47019C32.1111 2.42251 32.2129 2.41021 32.3085 2.43584C32.404 2.46148 32.486 2.52307 32.5372 2.60774C32.5884 2.6924 32.6048 2.79358 32.5832 2.89012C32.5615 2.98665 32.5033 3.07106 32.4208 3.12569L30.1683 4.55246L32.9559 2.94246C33.0424 2.89489 33.1439 2.88252 33.2393 2.90792C33.3347 2.93332 33.4166 2.99453 33.468 3.07881C33.5193 3.16309 33.5362 3.26394 33.5151 3.36036C33.494 3.45678 33.4365 3.54134 33.3546 3.59642L29.5841 6.00989L33.9196 3.50672C34.0068 3.45426 34.1112 3.43857 34.2099 3.46308C34.3086 3.48759 34.3935 3.55031 34.4459 3.63744C34.4984 3.72457 34.5141 3.82897 34.4896 3.92767C34.4651 4.02638 34.4024 4.1113 34.3152 4.16376L33.6758 4.56472L34.6579 3.99816C34.7444 3.94987 34.8461 3.93689 34.9419 3.96194C35.0377 3.98699 35.12 4.04812 35.1718 4.13254C35.2235 4.21695 35.2405 4.31811 35.2194 4.41482C35.1982 4.51153 35.1404 4.59629 35.0581 4.65136L32.729 6.15709L35.4445 4.58926C35.531 4.53747 35.6344 4.52183 35.7323 4.54571C35.8302 4.56959 35.9148 4.63108 35.9677 4.71686C36.0206 4.80264 36.0376 4.90581 36.0151 5.00404C35.9925 5.10227 35.9321 5.18764 35.847 5.24169L33.5593 6.74206L36.1913 5.22329C36.2773 5.17577 36.3784 5.16314 36.4735 5.18803C36.5687 5.21291 36.6506 5.2734 36.7024 5.35699C36.7542 5.44058 36.7719 5.54088 36.7518 5.63714C36.7317 5.7334 36.6754 5.81827 36.5945 5.87419L34.5452 7.23196L36.8767 5.88492C36.9618 5.83681 37.0621 5.82305 37.1571 5.84647C37.252 5.86989 37.3344 5.92872 37.3874 6.01091C37.4404 6.09311 37.46 6.19245 37.4422 6.2886C37.4243 6.38476 37.3704 6.47046 37.2914 6.52816L32.7213 9.79876L37.7698 6.88542C37.8561 6.83539 37.9585 6.82096 38.0553 6.84522C38.1521 6.86947 38.2356 6.9305 38.2881 7.01533C38.3406 7.10016 38.3579 7.20212 38.3365 7.29954C38.315 7.39697 38.2564 7.48218 38.1731 7.53709L37.6441 7.88822L38.2574 7.53326C38.3431 7.48339 38.4448 7.46867 38.5411 7.49218C38.6374 7.51569 38.7209 7.5756 38.774 7.65935C38.8271 7.74309 38.8456 7.84414 38.8258 7.94128C38.806 8.03843 38.7493 8.1241 38.6676 8.18032L36.2779 9.83862L38.8079 8.38196C38.8908 8.33457 38.9885 8.31985 39.0817 8.34068C39.1749 8.36151 39.257 8.41639 39.3118 8.49457C39.3667 8.57275 39.3904 8.6686 39.3783 8.76335C39.3662 8.8581 39.3192 8.94491 39.2464 9.00679L36.2074 11.5675L39.4787 9.67839C39.5603 9.63291 39.6557 9.61879 39.747 9.63869C39.8383 9.65859 39.9191 9.71114 39.9744 9.78646C40.0297 9.86177 40.0555 9.95468 40.0471 10.0477C40.0387 10.1408 39.9966 10.2275 39.9288 10.2917L38.3954 11.6871L39.9104 10.81C39.9873 10.7663 40.0771 10.7505 40.1643 10.7654C40.2516 10.7804 40.331 10.825 40.3891 10.8919C40.4472 10.9587 40.4803 11.0436 40.4829 11.132C40.4855 11.2205 40.4574 11.3072 40.4033 11.3773L39.3047 12.7842L40.2561 12.2345C40.3309 12.1915 40.4179 12.175 40.5032 12.1876C40.5884 12.2003 40.667 12.2413 40.7261 12.304C40.7852 12.3667 40.8214 12.4476 40.8289 12.5334C40.8365 12.6193 40.8148 12.7052 40.7675 12.7773L40.3351 13.432L40.3934 13.399C40.4814 13.349 40.5856 13.3358 40.6833 13.3623C40.781 13.3888 40.8642 13.4529 40.9148 13.5406C40.9654 13.6283 40.9793 13.7324 40.9534 13.8302C40.9276 13.9281 40.864 14.0118 40.7767 14.063L39.3147 14.9063C39.2399 14.9495 39.1527 14.9662 39.0673 14.9537C38.9819 14.9411 38.9032 14.9001 38.8439 14.8373C38.7847 14.7745 38.7484 14.6936 38.7409 14.6076C38.7334 14.5216 38.7551 14.4356 38.8025 14.3635L39.2357 13.708L37.9776 14.434C37.9006 14.4778 37.8109 14.4935 37.7236 14.4786C37.6363 14.4637 37.5569 14.419 37.4989 14.3522C37.4408 14.2853 37.4076 14.2005 37.405 14.112C37.4025 14.0235 37.4306 13.9368 37.4846 13.8667L38.584 12.4591L35.7136 14.1159C35.632 14.1613 35.5366 14.1755 35.4454 14.1556C35.3541 14.1357 35.2732 14.0831 35.2179 14.0078C35.1627 13.9325 35.1368 13.8396 35.1452 13.7465C35.1536 13.6535 35.1957 13.5667 35.2636 13.5025L36.7931 12.1133L32.8371 14.3965C32.7542 14.4438 32.6565 14.4586 32.5633 14.4377C32.4701 14.4169 32.388 14.362 32.3331 14.2838C32.2783 14.2057 32.2546 14.1098 32.2667 14.0151C32.2788 13.9203 32.3258 13.8335 32.3986 13.7716L35.4384 11.211L28.6733 15.1133C28.5876 15.1632 28.4859 15.1779 28.3896 15.1544C28.2933 15.1309 28.2098 15.0709 28.1568 14.9872C28.1037 14.9035 28.0851 14.8024 28.1049 14.7053C28.1248 14.6081 28.1815 14.5224 28.2632 14.4662L30.6559 12.8033L27.4283 14.6663C27.342 14.7164 27.2395 14.7308 27.1428 14.7065C27.046 14.6823 26.9625 14.6212 26.91 14.5364C26.8575 14.4516 26.8402 14.3496 26.8616 14.2522C26.8831 14.1548 26.9417 14.0696 27.025 14.0147L27.5525 13.6643L26.2867 14.3949C26.2015 14.443 26.1012 14.4568 26.0063 14.4334C25.9113 14.41 25.8289 14.3511 25.7759 14.2689C25.7229 14.1867 25.7033 14.0874 25.7212 13.9912C25.739 13.8951 25.793 13.8094 25.8719 13.7517L30.4443 10.4819L24.1186 14.1327C24.0325 14.1802 23.9314 14.1929 23.8363 14.168C23.7412 14.1431 23.6592 14.0826 23.6074 13.999C23.5556 13.9154 23.538 13.8151 23.558 13.7189C23.5781 13.6226 23.6344 13.5377 23.7153 13.4818L25.76 12.1317L22.2901 14.135C22.2037 14.1841 22.1016 14.1978 22.0054 14.1731C21.9092 14.1484 21.8263 14.0874 21.7742 14.0028C21.7221 13.9182 21.7049 13.8167 21.7262 13.7196C21.7475 13.6226 21.8056 13.5376 21.8883 13.4826L24.1791 11.9799L19.9234 14.4333C19.837 14.4801 19.736 14.4921 19.6411 14.4666C19.5462 14.4411 19.4647 14.3802 19.4135 14.2963C19.3622 14.2125 19.3451 14.1122 19.3656 14.0161C19.3862 13.9201 19.4429 13.8356 19.5239 13.7801L21.85 12.2774L16.1912 15.5434C16.1335 15.577 16.0679 15.595 16.0011 15.5955Z" fill="#009C9D"/>
<path d="M29.4668 15.6668C29.4085 15.667 29.3508 15.6538 29.2983 15.6282C29.2458 15.6027 29.1999 15.5655 29.1639 15.5195C29.128 15.4735 29.103 15.4199 29.0909 15.3628C29.0789 15.3057 29.08 15.2466 29.0942 15.19L29.2706 14.4908L28.3966 14.996C28.3209 15.0394 28.2328 15.0557 28.1466 15.0422C28.0605 15.0287 27.9815 14.9863 27.9227 14.9219C27.8639 14.8575 27.8289 14.775 27.8233 14.6879C27.8177 14.6009 27.842 14.5146 27.8921 14.4432L28.4794 13.6106L26.8878 14.5306C26.8076 14.5763 26.7137 14.5916 26.6232 14.5736C26.5327 14.5556 26.4517 14.5055 26.3951 14.4327C26.3385 14.3598 26.3102 14.2689 26.3152 14.1768C26.3202 14.0847 26.3583 13.9974 26.4224 13.9311L27.4566 12.8716L25.1137 14.2247C25.032 14.2744 24.9347 14.2918 24.8409 14.2734C24.7471 14.255 24.6635 14.2023 24.6066 14.1255C24.5496 14.0487 24.5235 13.9534 24.5332 13.8583C24.5429 13.7632 24.5878 13.6751 24.6591 13.6114L26.772 11.6242L22.438 14.1266C22.3531 14.1756 22.2527 14.1903 22.1573 14.1675C22.062 14.1448 21.9789 14.0864 21.9253 14.0043C21.8717 13.9222 21.8516 13.8227 21.8691 13.7262C21.8866 13.6298 21.9404 13.5437 22.0194 13.4857L23.3481 12.5112L20.0706 14.4034C19.9851 14.4533 19.8836 14.4682 19.7873 14.445C19.691 14.4218 19.6075 14.3622 19.5542 14.2788C19.5009 14.1953 19.4819 14.0945 19.5013 13.9974C19.5207 13.9003 19.5769 13.8144 19.6581 13.7578L21.8155 12.2383L16.3147 15.4138C16.2285 15.4607 16.1277 15.4728 16.0329 15.4476C15.9381 15.4224 15.8566 15.3618 15.8051 15.2783C15.7537 15.1948 15.7362 15.0948 15.7562 14.9987C15.7763 14.9027 15.8324 14.8181 15.9129 14.7622L17.3052 13.8483L16.3208 14.4164C16.2355 14.465 16.1349 14.4791 16.0395 14.4557C15.9442 14.4323 15.8615 14.3733 15.8084 14.2907C15.7553 14.2082 15.7359 14.1084 15.7543 14.0119C15.7726 13.9155 15.8272 13.8298 15.9068 13.7724L21.4812 9.79493L16.3913 12.7328C16.3054 12.7797 16.2047 12.792 16.11 12.767C16.0153 12.7421 15.9337 12.6819 15.8821 12.5987C15.8304 12.5155 15.8125 12.4157 15.832 12.3197C15.8516 12.2238 15.9072 12.139 15.9873 12.0827L17.7307 10.9189L16.4964 11.6319C16.4112 11.68 16.3109 11.6937 16.216 11.6703C16.121 11.6469 16.0386 11.5881 15.9856 11.5059C15.9326 11.4237 15.913 11.3243 15.9309 11.2282C15.9487 11.132 16.0026 11.0463 16.0816 10.9886L20.595 7.751L16.7524 9.96667C16.6678 10.0155 16.5678 10.0302 16.4727 10.0077C16.3777 9.98528 16.2947 9.92738 16.2409 9.84587C16.1871 9.76436 16.1664 9.66537 16.1831 9.56913C16.1998 9.47289 16.2526 9.38665 16.3308 9.32803L20.8894 5.9087L17.2048 8.03543C17.1197 8.08426 17.0191 8.09861 16.9238 8.07554C16.8285 8.05247 16.7456 7.99373 16.6923 7.91141C16.6389 7.82909 16.6192 7.72946 16.6371 7.63302C16.655 7.53658 16.7091 7.45066 16.7885 7.39296L19.146 5.68713L17.71 6.51666C17.6246 6.5659 17.5236 6.58035 17.4278 6.55703C17.3321 6.53371 17.249 6.4744 17.1958 6.39143C17.1426 6.30845 17.1234 6.20818 17.1422 6.11144C17.161 6.01469 17.2164 5.92891 17.2968 5.8719L18.0489 5.3406C17.9734 5.33924 17.9 5.31564 17.838 5.27276C17.7759 5.22988 17.7278 5.16963 17.6998 5.09955C17.6718 5.02947 17.6651 4.95269 17.6806 4.87883C17.696 4.80497 17.7329 4.73731 17.7867 4.68433L19.9448 2.58596C19.8611 2.58431 19.7802 2.55529 19.7145 2.50332C19.6489 2.45136 19.602 2.37931 19.5811 2.2982C19.5603 2.21709 19.5665 2.13138 19.599 2.05418C19.6314 1.97697 19.6883 1.91251 19.7608 1.87066L22.0608 0.539731C22.1417 0.492433 22.2372 0.476416 22.3291 0.494708C22.421 0.513 22.5031 0.564334 22.5597 0.639005C22.6163 0.713676 22.6437 0.806511 22.6365 0.899959C22.6293 0.993408 22.5882 1.081 22.5208 1.14616L20.5237 3.08966L24.4222 0.838731C24.5076 0.78783 24.6095 0.772121 24.7063 0.794921C24.8031 0.817721 24.8872 0.877246 24.9409 0.960927C24.9947 1.04461 25.0138 1.14589 24.9942 1.2434C24.9747 1.34091 24.918 1.427 24.8362 1.4835L24.5525 1.68283L25.2003 1.30946C25.2854 1.26064 25.386 1.24629 25.4813 1.26936C25.5766 1.29243 25.6595 1.35117 25.7128 1.43348C25.7662 1.5158 25.7859 1.61543 25.768 1.71188C25.7501 1.80832 25.696 1.89423 25.6166 1.95193L23.2607 3.65776L26.0352 2.0562C26.1198 2.00737 26.2199 1.99269 26.3149 2.01514C26.41 2.03759 26.4929 2.09548 26.5467 2.17699C26.6006 2.25851 26.6212 2.35749 26.6045 2.45373C26.5878 2.54997 26.535 2.63621 26.4569 2.69483L21.8968 6.11493L26.9437 3.2016C27.0289 3.15348 27.1292 3.13972 27.2241 3.16315C27.3191 3.18657 27.4015 3.2454 27.4545 3.32759C27.5075 3.40978 27.5271 3.50912 27.5092 3.60528C27.4914 3.70143 27.4375 3.78713 27.3585 3.84483L22.8467 7.0817L27.6092 4.33243C27.6954 4.28342 27.7972 4.26969 27.8932 4.29413C27.9893 4.31856 28.0721 4.37925 28.1244 4.46347C28.1767 4.54768 28.1943 4.64888 28.1736 4.7458C28.1529 4.84273 28.0954 4.92787 28.0132 4.98333L26.2729 6.14483L27.9994 5.14816C28.0847 5.09953 28.1854 5.08545 28.2807 5.10884C28.376 5.13222 28.4587 5.19128 28.5118 5.27384C28.5649 5.35641 28.5843 5.45619 28.566 5.55262C28.5477 5.64906 28.4931 5.73479 28.4134 5.79216L22.8398 9.76886L28.52 6.48906C28.6062 6.44084 28.7077 6.42776 28.8034 6.45256C28.899 6.47737 28.9814 6.53813 29.0333 6.62218C29.0852 6.70623 29.1026 6.80709 29.082 6.9037C29.0614 7.00031 29.0042 7.08523 28.9225 7.14073L27.5272 8.06073L28.783 7.33546C28.8685 7.28552 28.97 7.2706 29.0662 7.29383C29.1625 7.31706 29.246 7.37663 29.2993 7.46007C29.3527 7.54351 29.3716 7.64434 29.3522 7.74145C29.3329 7.83855 29.2767 7.9244 29.1954 7.981L27.038 9.50206L29.0452 8.34286C29.1301 8.29382 29.2305 8.27917 29.3259 8.30192C29.4212 8.32467 29.5043 8.38309 29.5579 8.46518C29.6115 8.54726 29.6316 8.64676 29.6141 8.74323C29.5966 8.83969 29.5428 8.92578 29.4638 8.9838L28.1367 9.95057L29.2468 9.3104C29.3285 9.26073 29.4258 9.24337 29.5196 9.26173C29.6134 9.28009 29.697 9.33285 29.7539 9.40965C29.8109 9.48646 29.837 9.58176 29.8273 9.67687C29.8176 9.77198 29.7727 9.86002 29.7014 9.92373L27.587 11.9125L29.4868 10.8161C29.567 10.7698 29.6613 10.7542 29.7522 10.7721C29.8431 10.7899 29.9245 10.8401 29.9812 10.9133C30.038 10.9866 30.0663 11.0778 30.061 11.1703C30.0556 11.2628 30.017 11.3502 29.9521 11.4164L28.9187 12.4752L29.6087 12.0765C29.6843 12.0331 29.7725 12.0168 29.8586 12.0303C29.9448 12.0438 30.0238 12.0862 30.0825 12.1506C30.1413 12.2151 30.1764 12.2976 30.1819 12.3846C30.1875 12.4716 30.1632 12.5579 30.1131 12.6293L29.5259 13.4619L29.6715 13.3776C29.7368 13.3399 29.8116 13.3223 29.8868 13.3269C29.962 13.3315 30.0342 13.3582 30.0943 13.4036C30.1544 13.449 30.1998 13.5111 30.2249 13.5821C30.2499 13.6532 30.2534 13.73 30.235 13.8031L30.0142 14.6794C30.0826 14.7039 30.1426 14.7474 30.1872 14.8048C30.2318 14.8621 30.2592 14.9309 30.2662 15.0032C30.2732 15.0755 30.2595 15.1483 30.2267 15.2132C30.1939 15.278 30.1433 15.3322 30.0809 15.3694L29.6585 15.6139C29.6004 15.6481 29.5343 15.6664 29.4668 15.6668Z" fill="#009C9D"/>
<path d="M29.5512 15.5472C29.6488 15.6194 29.7696 15.6531 29.8905 15.6419C30.0113 15.6307 30.1239 15.5755 30.2067 15.4867C30.2786 15.4698 30.3516 15.4575 30.4252 15.4499C32.4935 14.2258 34.9514 13.8383 37.296 14.3666C38.8922 14.7223 40.2025 16.1299 41.0841 14.4026C41.8362 12.926 39.8368 9.18008 39.0908 8.04848C31.7707 -2.37665 12.9567 -2.17962 6.33726 8.90331C5.67869 10.1246 4.23889 13.1246 4.91356 14.3873C5.84813 16.1353 7.21356 14.7139 8.78983 14.3673C11.1496 13.984 13.5731 14.086 15.6323 15.4315C15.6546 15.437 15.6762 15.445 15.6967 15.4552C15.7872 15.7105 16.1506 15.6906 16.3676 15.5196C18.4376 15.4123 20.3312 14.3382 22.5477 14.1833V20.24H9.21303C8.54579 20.2574 7.90992 20.5269 7.4335 20.9944C6.95707 21.4619 6.67549 22.0925 6.64546 22.7593C6.07583 28.4518 6.63703 34.5951 6.44536 40.4348C6.44536 42.1889 6.06663 44.4475 8.02316 45.3461C9.37173 45.9647 11.5123 45.5814 12.9107 45.5814H33.4612C39.0003 46.4478 38.3755 42.8713 38.0297 38.5971C40.0131 38.1371 39.6305 35.7106 39.5516 34.1895C39.5401 33.1162 39.202 32.1195 38.0182 31.8895C37.6832 29.841 39.0839 25.5906 36.3822 24.9826C36.4305 22.9893 36.833 20.8096 34.4824 20.2392C30.9519 19.6757 27.0227 20.48 23.4516 20.2392V14.1833C25.6197 14.3198 27.554 15.5066 29.5512 15.5472ZM9.18696 21.16H22.5477V24.84H9.21303C8.76577 24.8447 8.33178 24.6882 7.9904 24.3992C7.64902 24.1102 7.42307 23.7079 7.35386 23.266C7.31072 23.0029 7.32613 22.7335 7.39901 22.4771C7.47188 22.2206 7.60042 21.9834 7.77548 21.7822C7.95053 21.5811 8.16778 21.4211 8.41175 21.3135C8.65572 21.206 8.92041 21.1536 9.18696 21.16ZM38.6477 33.869C38.8777 35.0658 38.9582 37.5943 37.4655 37.9799C35.0926 38.3303 30.6943 38.262 31.152 34.7844C31.4088 33.156 32.7474 32.5948 34.1872 32.5534C35.594 32.512 38.2896 32.0237 38.6477 33.869ZM37.1143 29.269V31.7852C35.2743 31.96 33.3952 31.4701 31.7607 32.4668C28.934 34.3835 30.3684 38.4468 33.5884 38.6768C34.7637 38.7681 35.9429 38.798 37.1212 38.7665C37.8511 45.6535 36.2012 45.4365 30.2404 44.8799H12.5128C6.34569 45.5968 7.02189 42.0202 7.35386 37.237V24.9397C7.5903 25.1904 7.87397 25.392 8.18855 25.5328C8.50313 25.6736 8.84244 25.7508 9.18696 25.76C18.18 25.678 27.2619 25.9133 36.2127 25.6772C37.49 25.9248 37.1143 28.3927 37.1143 29.2706V29.269ZM31.8558 21.16C34.0699 21.1393 36.9748 21.5334 35.7121 24.8492C31.6633 24.84 27.5126 24.84 23.4523 24.84V21.16H31.8558ZM22.9525 13.4489C20.8556 13.4489 18.6016 14.4969 16.5362 14.5452C16.4335 -3.52052 29.1747 -2.94169 29.4607 14.4294C27.3386 14.4133 25.1689 13.4504 22.9525 13.4489ZM36.8636 6.51285C38.3203 8.08681 40.3052 10.9641 40.122 13.2695C39.984 15.0167 39.3377 14.1473 37.8986 13.8115C35.1731 13.133 32.9605 13.8238 30.3163 14.3758C30.209 10.7333 29.3963 3.94911 26.1671 1.38691C30.1637 1.96498 34.076 3.50061 36.8636 6.51285ZM15.4483 14.4678C12.9743 13.9993 11.1098 13.1016 8.46553 13.6858C6.85553 14.0415 5.88109 14.6058 6.04593 12.282C7.32013 5.88571 14.1634 2.09915 20.1748 1.35011C16.56 3.84715 15.7719 10.544 15.6799 14.5C15.6024 14.49 15.525 14.4816 15.4483 14.4678Z" fill="black"/>
<path d="M34.4302 34.9194C34.0622 34.97 33.2879 34.7254 33.2802 35.2889C33.4642 35.7995 34.1527 35.5611 34.569 35.614C35.1977 35.568 34.96 34.8672 34.4302 34.9194Z" fill="black"/>
<path d="M11.5184 28.0224H9.98505C9.39242 27.9849 9.35715 28.694 9.94825 28.7124C10.5539 28.5821 11.6403 29.0398 11.9592 28.3927C11.9746 28.1704 11.7101 28.0224 11.5184 28.0224Z" fill="black"/>
<path d="M14.49 28.8129H16.0233C16.4626 28.8129 16.6689 27.9205 16.1767 27.9205H14.6433C14.2056 27.9205 13.9993 28.8129 14.49 28.8129Z" fill="black"/>
<path d="M20.7851 27.9987H19.2518C18.7757 27.9987 18.4797 28.7347 19.0816 28.7347H20.6149C21.091 28.7347 21.39 27.9987 20.7851 27.9987Z" fill="black"/>
<path d="M25.4027 27.9251H23.8694C23.4301 27.9251 23.1794 28.8083 23.6639 28.8083H25.1973C25.6366 28.8083 25.8865 27.9251 25.4027 27.9251Z" fill="black"/>
<path d="M28.3912 28.8267H29.9245C30.3845 28.8267 30.3378 27.9067 29.8755 27.9067H28.3421C27.886 27.9067 27.9289 28.8267 28.3912 28.8267Z" fill="black"/>
<path d="M34.4808 27.9144H32.9475C32.4538 27.9144 32.5473 28.819 32.9858 28.819H34.5192C35.0129 28.819 34.9194 27.9144 34.4808 27.9144Z" fill="black"/>
<path d="M11.5307 41.8132H9.99732C9.46986 41.8132 9.33492 42.5201 9.93599 42.5201H11.4693C11.9968 42.5201 12.1317 41.8132 11.5307 41.8132Z" fill="black"/>
<path d="M16.0126 41.8232C15.4614 41.9597 14.2324 41.4606 14.1159 42.2127C14.1672 42.4511 14.4547 42.5102 14.6525 42.5102C15.2038 42.3737 16.4327 42.8728 16.5493 42.1207C16.4994 41.8823 16.2119 41.8232 16.0126 41.8232Z" fill="black"/>
<path d="M20.8073 41.7741H19.274C18.8293 41.7741 18.4866 42.5592 19.0593 42.5592H20.5927C21.0373 42.5592 21.38 41.7741 20.8073 41.7741Z" fill="black"/>
<path d="M25.3 41.7136H23.7667C23.3335 41.7136 23.2768 42.6198 23.7728 42.6198H25.3061C25.7362 42.6198 25.793 41.7136 25.3 41.7136Z" fill="black"/>
<path d="M29.9667 41.7189H28.4334C27.9941 41.7189 27.8093 42.6144 28.3 42.6144H29.8333C30.2726 42.6144 30.4574 41.7189 29.9667 41.7189Z" fill="black"/>
<path d="M33.0035 42.6183H34.5368C35.0298 42.6183 34.9033 41.7151 34.4601 41.7151H32.9268C32.4369 41.7151 32.5634 42.6183 33.0035 42.6183Z" fill="black"/>
</svg>
