<svg width="46" height="46" viewBox="0 0 46 46" fill="none" xmlns="http://www.w3.org/2000/svg">
<path d="M6.70526 9.58333C6.6296 9.58332 6.55563 9.56091 6.49267 9.51893C6.42972 9.47695 6.38059 9.41728 6.35149 9.34743C6.32239 9.27759 6.31461 9.20069 6.32913 9.12643C6.34365 9.05217 6.37983 8.98387 6.4331 8.93013L7.2358 8.12053L6.348 8.63267C6.2705 8.67691 6.18001 8.69274 6.0921 8.67742C6.00419 8.66209 5.92438 8.61658 5.86643 8.54873C5.80848 8.48088 5.77601 8.39493 5.77463 8.30571C5.77325 8.21649 5.80304 8.12958 5.85886 8.05997L6.6907 7.03033L6.348 7.22737C6.27416 7.27126 6.18773 7.28908 6.10256 7.27798C6.01739 7.26688 5.93841 7.2275 5.8783 7.16615C5.81818 7.1048 5.78042 7.02503 5.77105 6.93965C5.76169 6.85427 5.78127 6.76822 5.82666 6.6953L6.08503 6.27133C6.01324 6.24999 5.94928 6.20809 5.90104 6.1508C5.8528 6.09351 5.8224 6.02335 5.81359 5.94897C5.80479 5.8746 5.81796 5.79928 5.85148 5.73231C5.88501 5.66534 5.93741 5.60965 6.00223 5.57213L6.87623 5.0669C6.95003 5.02446 7.03586 5.00779 7.12018 5.01953C7.2045 5.03127 7.28252 5.07074 7.34192 5.13173C7.40133 5.19271 7.43874 5.27174 7.44826 5.35634C7.45778 5.44094 7.43886 5.5263 7.3945 5.59897L7.26416 5.81133L8.09523 5.33217C8.17259 5.28738 8.26316 5.27104 8.35129 5.28596C8.43943 5.30089 8.51957 5.34614 8.57787 5.4139C8.63617 5.48166 8.66896 5.56766 8.67056 5.65703C8.67217 5.7464 8.64249 5.83352 8.58666 5.90333L7.75636 6.93143L9.3334 6.0214C9.4139 5.9744 9.50877 5.95834 9.60026 5.97624C9.69175 5.99413 9.77358 6.04475 9.83044 6.11862C9.8873 6.1925 9.9153 6.28456 9.90918 6.37758C9.90307 6.4706 9.86327 6.5582 9.79723 6.624L8.99453 7.43207L10.0809 6.8057C10.1595 6.76007 10.2518 6.74387 10.3413 6.75998C10.4307 6.7761 10.5116 6.82348 10.5693 6.89368C10.6271 6.96387 10.658 7.05231 10.6566 7.14321C10.6552 7.2341 10.6215 7.32153 10.5616 7.3899L10.2887 7.7027L10.452 7.6084C10.5176 7.57052 10.593 7.55295 10.6686 7.5579C10.7442 7.56285 10.8167 7.5901 10.8768 7.63621C10.9369 7.68231 10.9821 7.74521 11.0065 7.81695C11.0309 7.88869 11.0335 7.96605 11.0139 8.03927L10.8683 8.58283C10.9356 8.60932 10.9941 8.65432 11.0369 8.71264C11.0797 8.77095 11.1052 8.84019 11.1103 8.91237C11.1154 8.98454 11.1 9.05669 11.0659 9.12047C11.0317 9.18426 10.9802 9.23708 10.9173 9.27283L10.5026 9.51203C10.4369 9.54991 10.3615 9.56748 10.2859 9.56253C10.2103 9.55758 10.1379 9.53033 10.0777 9.48423C10.0176 9.43812 9.97247 9.37522 9.94806 9.30348C9.92365 9.23174 9.92105 9.15438 9.9406 9.08117L10.0334 8.73693L8.6733 9.52123C8.59468 9.56637 8.50262 9.58218 8.41345 9.56587C8.32428 9.54956 8.24377 9.50217 8.18623 9.43213C8.12869 9.36208 8.09783 9.27391 8.09914 9.18327C8.10044 9.09263 8.13383 9.00539 8.19336 8.93703L8.46706 8.62423L6.9 9.5289C6.84129 9.56454 6.77393 9.58337 6.70526 9.58333Z" fill="#2CB2B3"/>
<path d="M16.3752 15.7114C16.2979 15.7113 16.2224 15.6879 16.1586 15.6441C16.0948 15.6003 16.0457 15.5383 16.0179 15.4661C15.99 15.394 15.9846 15.3151 16.0024 15.2398C16.0202 15.1645 16.0604 15.0964 16.1176 15.0444L18.5196 12.8663L14.0147 15.4676C13.9323 15.5147 13.8353 15.5296 13.7425 15.5093C13.6498 15.4891 13.5679 15.4351 13.5126 15.3579C13.4573 15.2807 13.4327 15.1858 13.4435 15.0914C13.4542 14.9971 13.4996 14.9101 13.5708 14.8473L15.6408 13.0395L14.0147 13.9764C13.9367 14.0208 13.8457 14.0365 13.7574 14.0208C13.669 14.005 13.5891 13.9588 13.5313 13.8901C13.4736 13.8214 13.4418 13.7347 13.4414 13.6449C13.4411 13.5552 13.4722 13.4682 13.5294 13.3991L14.5613 12.1678L14.0147 12.4829C13.9489 12.5209 13.8733 12.5384 13.7975 12.5333C13.7217 12.5282 13.6491 12.5007 13.589 12.4543C13.5289 12.4079 13.4839 12.3446 13.4598 12.2726C13.4356 12.2006 13.4334 12.123 13.4535 12.0498L13.6543 11.3222C13.586 11.2883 13.5292 11.2349 13.491 11.1689C13.4402 11.0808 13.4264 10.9762 13.4527 10.878C13.4791 10.7798 13.5433 10.6961 13.6313 10.6452L14.0147 10.4237C14.0806 10.3854 14.1563 10.3676 14.2324 10.3726C14.3084 10.3776 14.3812 10.4051 14.4415 10.4517C14.5019 10.4983 14.5469 10.5617 14.571 10.634C14.595 10.7063 14.597 10.7842 14.5766 10.8576L14.4402 11.3521L16.0555 10.4198C16.1336 10.375 16.2249 10.359 16.3135 10.3746C16.4021 10.3903 16.4824 10.4367 16.5403 10.5056C16.5981 10.5746 16.6299 10.6617 16.63 10.7517C16.6301 10.8417 16.5985 10.9288 16.5408 10.9979L15.5104 12.2246L18.6538 10.4114C18.7362 10.3643 18.8331 10.3494 18.9259 10.3696C19.0187 10.3899 19.1006 10.4438 19.1558 10.521C19.2111 10.5982 19.2357 10.6932 19.225 10.7875C19.2142 10.8818 19.1689 10.9688 19.0977 11.0316L17.0277 12.8402L21.2443 10.406C21.3259 10.3611 21.421 10.3475 21.512 10.3676C21.6029 10.3877 21.6833 10.4402 21.7384 10.5154C21.7934 10.5905 21.8192 10.683 21.811 10.7758C21.8027 10.8685 21.761 10.9551 21.6936 11.0194L19.2924 13.1967L24.14 10.3968C24.2236 10.347 24.3229 10.3309 24.4179 10.3516C24.5129 10.3722 24.5965 10.4283 24.6517 10.5083C24.707 10.5883 24.7298 10.6863 24.7155 10.7825C24.7012 10.8786 24.6509 10.9658 24.5747 11.0263L22.6381 12.6048L24.3248 11.6319C24.4078 11.5843 24.5056 11.5695 24.599 11.5904C24.6924 11.6113 24.7746 11.6663 24.8295 11.7447C24.8844 11.8231 24.9079 11.9192 24.8955 12.0141C24.8831 12.109 24.8357 12.1958 24.7626 12.2575L24.1393 12.7789L24.3294 12.6692C24.4062 12.6245 24.4961 12.6078 24.5839 12.622C24.6716 12.6362 24.7517 12.6805 24.8104 12.7473C24.8691 12.814 24.9027 12.8991 24.9056 12.9879C24.9085 13.0768 24.8804 13.1638 24.8262 13.2343L24.2267 14.0224L24.3363 13.9595C24.3799 13.9318 24.4287 13.9132 24.4797 13.9048C24.5308 13.8964 24.5829 13.8984 24.6332 13.9107C24.6834 13.923 24.7306 13.9453 24.7719 13.9763C24.8133 14.0074 24.848 14.0464 24.8738 14.0912C24.8997 14.136 24.9163 14.1855 24.9225 14.2368C24.9287 14.2881 24.9245 14.3402 24.9101 14.3898C24.8957 14.4395 24.8714 14.4857 24.8387 14.5257C24.8059 14.5657 24.7654 14.5987 24.7196 14.6227L22.9479 15.6454C22.8712 15.6898 22.7814 15.7063 22.694 15.692C22.6065 15.6777 22.5267 15.6335 22.4681 15.567C22.4096 15.5004 22.3759 15.4157 22.3728 15.3271C22.3696 15.2385 22.3973 15.1516 22.4511 15.0812L23.0498 14.2976L20.7077 15.6508C20.6246 15.6992 20.5264 15.7147 20.4325 15.6941C20.3386 15.6735 20.2559 15.6184 20.2007 15.5397C20.1455 15.461 20.1219 15.3644 20.1346 15.2691C20.1473 15.1738 20.1953 15.0867 20.2691 15.0252L20.8955 14.5016L18.8968 15.6516C18.8134 15.6992 18.7152 15.7138 18.6216 15.6925C18.528 15.6711 18.4458 15.6155 18.3912 15.5365C18.3367 15.4574 18.3138 15.3608 18.327 15.2657C18.3403 15.1706 18.3888 15.084 18.4629 15.0229L20.3933 13.4489L16.5638 15.66C16.5066 15.6935 16.4415 15.7112 16.3752 15.7114Z" fill="#546070"/>
<path d="M4.67667 25.6833C4.59378 25.6834 4.51312 25.6565 4.44676 25.6069C4.3804 25.5572 4.33193 25.4874 4.30862 25.4078C4.2853 25.3283 4.28839 25.2433 4.31743 25.1657C4.34646 25.0881 4.39988 25.0219 4.46967 24.9772L7.32627 23.1449L4.8231 24.5901C4.73695 24.6369 4.63611 24.649 4.54133 24.6238C4.44655 24.5986 4.36504 24.538 4.31357 24.4545C4.2621 24.371 4.24459 24.271 4.26464 24.175C4.2847 24.079 4.34079 23.9943 4.42137 23.9384L8.1098 21.5127L5.73314 22.8858C5.64783 22.9358 5.54647 22.951 5.45025 22.928C5.35403 22.9051 5.2704 22.8459 5.21684 22.7627C5.16328 22.6796 5.14394 22.5789 5.16286 22.4818C5.18178 22.3847 5.2375 22.2987 5.31837 22.2418L10.0096 18.893L7.7487 20.1963C7.66476 20.2446 7.56564 20.2594 7.47125 20.2376C7.37687 20.2159 7.29423 20.1592 7.23994 20.0789C7.18565 19.9987 7.16374 19.9009 7.17862 19.8052C7.1935 19.7095 7.24406 19.623 7.32014 19.563L9.8049 17.6119L9.59714 17.7315C9.51489 17.779 9.4179 17.7944 9.32498 17.7745C9.23206 17.7546 9.14984 17.7009 9.09426 17.6239C9.03867 17.5468 9.0137 17.4518 9.02417 17.3574C9.03464 17.263 9.07982 17.1758 9.15094 17.1128L10.4451 15.9628C10.401 15.9219 10.3671 15.8714 10.3462 15.8151C10.3253 15.7588 10.3179 15.6983 10.3246 15.6387C10.3313 15.579 10.352 15.5217 10.3849 15.4715C10.4178 15.4212 10.462 15.3794 10.5141 15.3494L12.3257 14.3037C12.408 14.2561 12.5049 14.2408 12.5979 14.2606C12.6908 14.2805 12.773 14.3342 12.8286 14.4113C12.8842 14.4883 12.9091 14.5833 12.8987 14.6777C12.8882 14.7722 12.843 14.8594 12.7719 14.9224L12.4844 15.1777L14.0837 14.2577C14.1676 14.2093 14.2667 14.1946 14.3611 14.2164C14.4555 14.2381 14.5381 14.2948 14.5924 14.375C14.6467 14.4552 14.6686 14.553 14.6537 14.6488C14.6389 14.7445 14.5883 14.831 14.5122 14.891L12.0298 16.8406L16.501 14.26C16.5863 14.2099 16.6876 14.1948 16.7839 14.2177C16.8801 14.2406 16.9637 14.2999 17.0173 14.383C17.0708 14.4662 17.0902 14.5668 17.0712 14.6639C17.0523 14.761 16.9966 14.847 16.9157 14.904L12.2268 18.2467L19.1406 14.26C19.2268 14.2131 19.3276 14.201 19.4224 14.2262C19.5172 14.2515 19.5987 14.312 19.6501 14.3955C19.7016 14.479 19.7191 14.5791 19.6991 14.6751C19.679 14.7711 19.6229 14.8557 19.5423 14.9117L15.8531 17.3382L21.1861 14.26C21.2725 14.2137 21.3733 14.2023 21.4679 14.2281C21.5624 14.2539 21.6435 14.315 21.6945 14.3987C21.7454 14.4824 21.7624 14.5825 21.7418 14.6783C21.7213 14.7742 21.6648 14.8585 21.584 14.914L18.7182 16.754L23.036 14.26C23.1224 14.2131 23.2234 14.2012 23.3183 14.2267C23.4132 14.2522 23.4947 14.3131 23.5459 14.3969C23.5972 14.4807 23.6143 14.581 23.5938 14.6771C23.5732 14.7732 23.5165 14.8577 23.4355 14.9132L19.6619 17.3527L25.0033 14.2692C25.0902 14.2164 25.1946 14.2003 25.2933 14.2245C25.3921 14.2487 25.4772 14.3111 25.53 14.398C25.5828 14.4849 25.5988 14.5892 25.5747 14.688C25.5505 14.7868 25.4881 14.8719 25.4012 14.9247L23.69 16.0118L26.0966 14.6226C26.1826 14.5744 26.2839 14.5612 26.3794 14.5857C26.4749 14.6103 26.5573 14.6707 26.6094 14.7544C26.6616 14.8381 26.6794 14.9387 26.6593 15.0352C26.6392 15.1318 26.5826 15.2168 26.5014 15.2728L20.6042 19.2249L27.0235 15.5189C27.1095 15.4706 27.2108 15.4574 27.3063 15.482C27.4018 15.5065 27.4842 15.5669 27.5363 15.6506C27.5885 15.7343 27.6063 15.8349 27.5862 15.9315C27.5661 16.028 27.5095 16.1131 27.4283 16.169L22.8091 19.2686L27.8131 16.3791C27.8996 16.3273 28.003 16.3116 28.1009 16.3355C28.1988 16.3594 28.2834 16.4209 28.3363 16.5067C28.3892 16.5924 28.4063 16.6956 28.3837 16.7938C28.3611 16.8921 28.3007 16.9774 28.2156 17.0315L26.1334 18.4L28.4433 17.0675C28.5295 17.0212 28.6302 17.0097 28.7246 17.0352C28.8191 17.0608 28.9002 17.1214 28.9514 17.2048C29.0025 17.2882 29.0199 17.3881 28.9998 17.4838C28.9798 17.5796 28.9239 17.6641 28.8435 17.72L28.8198 17.7361L28.9731 17.6471C29.0593 17.5989 29.1608 17.5858 29.2565 17.6106C29.3521 17.6354 29.4345 17.6962 29.4864 17.7802C29.5383 17.8643 29.5557 17.9651 29.5351 18.0618C29.5145 18.1584 29.4573 18.2433 29.3756 18.2988L29.1824 18.4253L29.5128 18.2352C29.5986 18.1861 29.7 18.1721 29.7958 18.196C29.8917 18.2199 29.9746 18.2799 30.0273 18.3634C30.08 18.447 30.0984 18.5477 30.0787 18.6445C30.059 18.7413 30.0027 18.8267 29.9215 18.883L28.1152 20.1265L30.1637 18.9443C30.2486 18.8953 30.3491 18.8806 30.4444 18.9034C30.5398 18.9261 30.6228 18.9845 30.6764 19.0666C30.73 19.1487 30.7502 19.2482 30.7327 19.3447C30.7152 19.4411 30.6614 19.5272 30.5823 19.5853L28.0063 21.4782L30.9365 19.7869C31.0204 19.7395 31.1191 19.7254 31.2129 19.7475C31.3068 19.7696 31.3888 19.8262 31.4428 19.906C31.4967 19.9859 31.5186 20.0832 31.5041 20.1784C31.4895 20.2737 31.4396 20.36 31.3643 20.4202L29.0314 22.2502L31.7546 20.6785C31.8353 20.6308 31.9309 20.6147 32.0228 20.6334C32.1147 20.6521 32.1965 20.7042 32.2521 20.7797C32.3085 20.8545 32.3356 20.9473 32.3283 21.0407C32.3209 21.134 32.2797 21.2215 32.2123 21.2865L30.038 23.3772L32.7796 21.7956C32.8587 21.75 32.9514 21.7341 33.0411 21.7509C33.1308 21.7676 33.2117 21.8157 33.269 21.8867C33.3264 21.9576 33.3566 22.0468 33.3542 22.138C33.3517 22.2292 33.3168 22.3166 33.2557 22.3844L32.0405 23.7283L33.6843 22.78C33.759 22.7368 33.8462 22.7201 33.9316 22.7326C34.0171 22.7451 34.0958 22.7861 34.155 22.849C34.2143 22.9119 34.2506 22.993 34.258 23.0792C34.2654 23.1653 34.2434 23.2514 34.1956 23.3235L33.659 24.1301L34.2907 23.7667C34.3575 23.7283 34.4342 23.7109 34.511 23.7167C34.5878 23.7226 34.661 23.7514 34.7211 23.7995C34.7813 23.8476 34.8256 23.9126 34.8482 23.9862C34.8708 24.0598 34.8708 24.1385 34.8481 24.2121L34.6886 24.7258C34.7469 24.7594 34.7953 24.8078 34.8289 24.8661C34.8625 24.9243 34.8803 24.9904 34.8803 25.0577C34.8803 25.125 34.8625 25.1911 34.8289 25.2494C34.7953 25.3077 34.7469 25.356 34.6886 25.3897L34.3053 25.6097C34.2385 25.6484 34.1616 25.666 34.0847 25.6602C34.0078 25.6545 33.9344 25.6257 33.8741 25.5776C33.8138 25.5295 33.7695 25.4643 33.7468 25.3905C33.7241 25.3168 33.7243 25.238 33.7471 25.1643L33.8238 24.9197L32.6278 25.6097C32.553 25.6529 32.4658 25.6696 32.3803 25.657C32.2948 25.6445 32.2161 25.6034 32.1568 25.5405C32.0976 25.4775 32.0614 25.3964 32.0541 25.3103C32.0468 25.2242 32.0687 25.1382 32.1164 25.0662L32.6531 24.2604L30.3102 25.612C30.2311 25.6576 30.1384 25.6734 30.0486 25.6567C29.9589 25.64 29.8781 25.5919 29.8207 25.5209C29.7634 25.4499 29.7332 25.3608 29.7356 25.2696C29.7381 25.1784 29.773 25.091 29.8341 25.0232L31.05 23.6785L27.6966 25.6136C27.6155 25.6624 27.5192 25.6795 27.4263 25.6615C27.3333 25.6436 27.2503 25.5919 27.1932 25.5164C27.1361 25.441 27.1089 25.347 27.1169 25.2527C27.1249 25.1584 27.1676 25.0704 27.2366 25.0056L29.4093 22.9164L24.7327 25.6166C24.6487 25.665 24.5496 25.6797 24.4552 25.658C24.3608 25.6362 24.2782 25.5795 24.2239 25.4993C24.1696 25.4191 24.1477 25.3213 24.1626 25.2256C24.1775 25.1298 24.228 25.0433 24.3041 24.9834L26.6417 23.1533L22.3698 25.6197C22.2849 25.6687 22.1845 25.6834 22.0891 25.6606C21.9937 25.6379 21.9107 25.5795 21.8571 25.4974C21.8035 25.4153 21.7834 25.3158 21.8009 25.2193C21.8184 25.1229 21.8722 25.0368 21.9512 24.9788L24.5287 23.0843L20.135 25.6212C20.0491 25.6721 19.9469 25.6875 19.8499 25.6641C19.7529 25.6408 19.6688 25.5806 19.6155 25.4962C19.5622 25.4119 19.5439 25.3101 19.5644 25.2125C19.585 25.1148 19.6428 25.0291 19.7256 24.9734L21.528 23.7329L18.2551 25.6228C18.1686 25.6762 18.0644 25.6931 17.9654 25.6698C17.8664 25.6464 17.7807 25.5847 17.7273 25.4982C17.6738 25.4117 17.6569 25.3074 17.6802 25.2084C17.7036 25.1095 17.7653 25.0238 17.8518 24.9703L18.0512 24.84L16.6919 25.6243C16.6054 25.6726 16.5037 25.6856 16.4079 25.6605C16.3121 25.6355 16.2298 25.5743 16.178 25.4899C16.1263 25.4055 16.1093 25.3043 16.1304 25.2076C16.1516 25.1109 16.2094 25.0262 16.2917 24.9711L16.3185 24.9535L15.1555 25.6251C15.069 25.6768 14.9656 25.6925 14.8677 25.6686C14.7698 25.6447 14.6852 25.5832 14.6323 25.4975C14.5794 25.4117 14.5624 25.3085 14.5849 25.2103C14.6075 25.112 14.6679 25.0267 14.753 24.9726L16.8322 23.6049L13.33 25.6266C13.2439 25.6765 13.1418 25.6909 13.0452 25.6669C12.9487 25.6429 12.8652 25.5823 12.8126 25.4978C12.7599 25.4134 12.7421 25.3118 12.763 25.2145C12.7839 25.1172 12.8418 25.0318 12.9245 24.9765L17.5406 21.8799L11.0469 25.6289C10.9609 25.6771 10.8596 25.6903 10.7641 25.6658C10.6686 25.6412 10.5862 25.5808 10.534 25.4971C10.4819 25.4134 10.4641 25.3128 10.4842 25.2163C10.5043 25.1197 10.5609 25.0347 10.6421 24.9788L16.5408 21.0258L8.5675 25.6304C8.48058 25.6832 8.37625 25.6993 8.27748 25.6751C8.1787 25.6509 8.09357 25.5885 8.0408 25.5016C7.98804 25.4147 7.97196 25.3104 7.99612 25.2116C8.02027 25.1128 8.08268 25.0277 8.1696 24.9749L9.89 23.8786L6.85477 25.6304C6.76819 25.6797 6.66583 25.6933 6.56937 25.6685C6.47291 25.6436 6.38992 25.5821 6.338 25.4971C6.28607 25.4121 6.26928 25.3102 6.29118 25.213C6.31308 25.1158 6.37196 25.031 6.45534 24.9765L10.2289 22.54L4.86834 25.632C4.81015 25.6658 4.74399 25.6835 4.67667 25.6833Z" fill="#2CB2B3"/>
<path d="M6.37867 24.1393C6.2986 24.1383 6.22085 24.1123 6.15632 24.0649C6.09178 24.0175 6.04371 23.9511 6.01885 23.875C5.99398 23.7989 5.99358 23.7169 6.01769 23.6405C6.04179 23.5642 6.08921 23.4973 6.15327 23.4493L11.4233 19.6267L5.6971 22.9295C5.61094 22.9785 5.50915 22.9922 5.41309 22.9678C5.31702 22.9433 5.23416 22.8826 5.18188 22.7984C5.12961 22.7142 5.11199 22.613 5.13272 22.5161C5.15345 22.4192 5.21092 22.334 5.29307 22.2786L7.18367 21.0235L7.084 21.0803C6.99911 21.1293 6.89866 21.144 6.80329 21.1212C6.70793 21.0985 6.62491 21.04 6.5713 20.958C6.51769 20.8759 6.49757 20.7764 6.51507 20.6799C6.53257 20.5834 6.58637 20.4973 6.6654 20.4393L9.4139 18.4245L8.8182 18.768C8.73738 18.8146 8.64234 18.8301 8.55089 18.8117C8.45944 18.7932 8.37785 18.7421 8.32142 18.6678C8.265 18.5935 8.2376 18.5012 8.24437 18.4081C8.25114 18.3151 8.29161 18.2277 8.3582 18.1623L10.5401 16.0318C10.4769 16.0019 10.423 15.9553 10.3843 15.897C10.3456 15.8387 10.3236 15.771 10.3207 15.7011C10.3178 15.6312 10.334 15.5618 10.3677 15.5005C10.4014 15.4392 10.4512 15.3883 10.5118 15.3533L12.3234 14.3075C12.4042 14.2609 12.4993 14.2454 12.5907 14.2638C12.6822 14.2823 12.7638 14.3334 12.8202 14.4077C12.8766 14.482 12.904 14.5744 12.8972 14.6674C12.8905 14.7605 12.85 14.8478 12.7834 14.9132L11.0783 16.5776L15.1171 14.2462C15.202 14.1972 15.3025 14.1825 15.3978 14.2052C15.4932 14.228 15.5762 14.2864 15.6298 14.3685C15.6834 14.4506 15.7036 14.5501 15.6861 14.6466C15.6686 14.743 15.6148 14.8291 15.5357 14.8871L12.7834 16.905L17.4079 14.2347C17.4942 14.1847 17.5966 14.1702 17.6934 14.1945C17.7902 14.2187 17.8737 14.2798 17.9262 14.3646C17.9787 14.4494 17.996 14.5514 17.9746 14.6488C17.9531 14.7462 17.8945 14.8315 17.8112 14.8864L15.9114 16.1483L17.4217 15.2766C17.5067 15.2283 17.6069 15.2142 17.7019 15.2373C17.7969 15.2604 17.8794 15.3189 17.9327 15.4009C17.9859 15.4828 18.0059 15.5821 17.9884 15.6782C17.971 15.7744 17.9175 15.8603 17.8388 15.9183L12.5733 19.7378L17.4279 16.9364C17.5128 16.8892 17.6125 16.8759 17.7068 16.8994C17.8011 16.9229 17.8829 16.9813 17.9358 17.0628C17.9887 17.1443 18.0087 17.2429 17.9917 17.3385C17.9746 17.4342 17.9219 17.5198 17.8442 17.5781L14.8235 19.7739L17.4302 18.2689C17.5141 18.2215 17.6128 18.2074 17.7066 18.2295C17.8004 18.2516 17.8824 18.3082 17.9364 18.3881C17.9903 18.4679 18.0122 18.5652 17.9977 18.6604C17.9832 18.7557 17.9333 18.842 17.858 18.9022L15.571 20.6908L17.4317 19.6175C17.5134 19.5686 17.6103 19.5518 17.7037 19.5705C17.797 19.5891 17.8801 19.6419 17.9367 19.7184C17.9933 19.7949 18.0194 19.8897 18.01 19.9844C18.0005 20.0792 17.9562 20.167 17.8856 20.2308L16.2664 21.7442L17.4355 21.0695C17.5098 21.0262 17.5964 21.0091 17.6815 21.0209C17.7666 21.0328 17.8453 21.0728 17.9049 21.1347C17.9645 21.1966 18.0015 21.2768 18.0101 21.3623C18.0187 21.4478 17.9983 21.5337 17.9523 21.6062L17.2998 22.6489L17.4394 22.5722C17.483 22.5445 17.5318 22.5258 17.5828 22.5174C17.6338 22.5091 17.686 22.5111 17.7362 22.5234C17.7864 22.5357 17.8336 22.558 17.875 22.589C17.9164 22.62 17.951 22.6591 17.9769 22.7039C18.0028 22.7486 18.0193 22.7982 18.0256 22.8495C18.0318 22.9008 18.0276 22.9528 18.0132 23.0025C17.9988 23.0522 17.9745 23.0984 17.9417 23.1384C17.909 23.1784 17.8685 23.2114 17.8227 23.2354L16.3515 24.0733C16.2772 24.1166 16.1906 24.1337 16.1055 24.1219C16.0204 24.1101 15.9417 24.07 15.8821 24.0081C15.8225 23.9462 15.7855 23.8661 15.7769 23.7806C15.7683 23.6951 15.7887 23.6092 15.8347 23.5367L16.4864 22.4948L13.7502 24.0741C13.6685 24.123 13.5715 24.1397 13.4782 24.1211C13.3849 24.1024 13.3018 24.0497 13.2452 23.9732C13.1886 23.8967 13.1624 23.8018 13.1719 23.7071C13.1813 23.6124 13.2257 23.5246 13.2963 23.4608L14.9163 21.9466L11.2286 24.0756C11.1447 24.123 11.046 24.1371 10.9522 24.115C10.8584 24.0929 10.7763 24.0363 10.7224 23.9565C10.6684 23.8766 10.6466 23.7794 10.6611 23.6841C10.6756 23.5888 10.7255 23.5025 10.8008 23.4424L13.0855 21.6545L8.8872 24.0779C8.80224 24.1263 8.70203 24.1403 8.60706 24.1172C8.51208 24.0941 8.42952 24.0356 8.37626 23.9536C8.32299 23.8717 8.30304 23.7725 8.32049 23.6763C8.33794 23.5801 8.39147 23.4942 8.47013 23.4362L11.4885 21.242L6.57033 24.0787C6.51312 24.1159 6.44687 24.1368 6.37867 24.1393Z" fill="#2CB2B3"/>
<path d="M11.4379 36.3936C11.3548 36.3937 11.2738 36.3667 11.2074 36.3168C11.1409 36.2669 11.0925 36.1967 11.0693 36.1168C11.0462 36.0369 11.0497 35.9517 11.0793 35.874C11.1088 35.7963 11.1629 35.7303 11.2332 35.686L14.2615 33.7739L9.81333 36.34C9.72763 36.3859 9.62766 36.3976 9.53369 36.3726C9.43971 36.3476 9.35874 36.2878 9.30719 36.2053C9.25563 36.1229 9.23734 36.0239 9.25601 35.9285C9.27469 35.8331 9.32893 35.7483 9.40776 35.6914L18.4199 29.6117L6.76506 36.34C6.67858 36.3875 6.57707 36.3999 6.48169 36.3745C6.38631 36.3491 6.3044 36.2879 6.25303 36.2036C6.20165 36.1193 6.18476 36.0185 6.20588 35.9221C6.227 35.8256 6.28449 35.7411 6.3664 35.686L11.9063 32.1233L4.6 36.34C4.51371 36.3875 4.41245 36.4 4.31721 36.3748C4.22197 36.3497 4.14006 36.2888 4.08849 36.2049C4.03691 36.121 4.01962 36.0204 4.0402 35.9241C4.06078 35.8278 4.11766 35.743 4.19903 35.6875L10.8054 31.3942L2.48246 36.202C2.39604 36.2502 2.29428 36.2632 2.1985 36.2382C2.10272 36.2131 2.02034 36.152 1.96862 36.0676C1.9169 35.9832 1.89985 35.882 1.92103 35.7853C1.94221 35.6886 1.99999 35.6038 2.08226 35.5488L8.34286 31.4854L1.45666 35.4606C1.37064 35.5088 1.26934 35.522 1.17383 35.4975C1.07831 35.4729 0.995932 35.4125 0.943807 35.3288C0.891683 35.2451 0.873826 35.1445 0.893951 35.048C0.914075 34.9514 0.970632 34.8664 1.05186 34.8105L8.41186 29.8823L0.98823 34.1672C0.901955 34.2129 0.801493 34.224 0.707342 34.1981C0.613191 34.1723 0.532446 34.1115 0.481583 34.0282C0.430721 33.9448 0.413573 33.8452 0.433639 33.7497C0.453705 33.6541 0.509473 33.5699 0.589563 33.514L3.06666 31.9163L0.98133 33.12C0.895045 33.1675 0.793779 33.18 0.698539 33.1548C0.603299 33.1297 0.521395 33.0688 0.469819 32.9849C0.418242 32.901 0.400952 32.8004 0.421535 32.7041C0.442117 32.6077 0.498993 32.523 0.580363 32.4675L2.63886 31.1266L0.98133 32.0796C0.895625 32.1345 0.791622 32.1531 0.692199 32.1313C0.592777 32.1095 0.506079 32.0491 0.45118 31.9634C0.39628 31.8777 0.377675 31.7737 0.399457 31.6743C0.421239 31.5749 0.481625 31.4882 0.56733 31.4333L5.19033 28.1412L0.98133 30.5731C0.895372 30.6221 0.793802 30.6359 0.697864 30.6118C0.601925 30.5876 0.519049 30.5273 0.466568 30.4434C0.414086 30.3595 0.396066 30.2586 0.416274 30.1617C0.436482 30.0649 0.493355 29.9796 0.574996 29.9237L1.20826 29.4952L0.978263 29.6263C0.893913 29.6733 0.794901 29.6868 0.70103 29.664C0.60716 29.6412 0.525354 29.5839 0.471973 29.5034C0.418592 29.4229 0.397574 29.3252 0.413122 29.2298C0.428669 29.1345 0.479637 29.0485 0.55583 28.9892L2.9233 27.1959L0.98133 28.3183C0.898118 28.3663 0.799912 28.3814 0.706156 28.3604C0.612399 28.3394 0.529928 28.2841 0.475069 28.2052C0.42021 28.1263 0.396964 28.0297 0.409932 27.9345C0.422901 27.8394 0.471139 27.7525 0.545096 27.6912L2.11446 26.3879L0.98133 27.0411C0.905967 27.0844 0.818122 27.1008 0.732206 27.0876C0.64629 27.0744 0.567404 27.0324 0.508487 26.9685C0.449571 26.9046 0.414124 26.8226 0.40796 26.7359C0.401795 26.6492 0.425281 26.563 0.474563 26.4914L1.5157 24.9933L1.42753 25.0431C1.33992 25.089 1.238 25.0992 1.14304 25.0716C1.04809 25.0441 0.967446 24.9809 0.917967 24.8953C0.868488 24.8097 0.853996 24.7083 0.877519 24.6123C0.901041 24.5162 0.960758 24.433 1.0442 24.38L2.6151 23.4753C2.69053 23.4317 2.77858 23.4151 2.86473 23.4282C2.95088 23.4413 3.02998 23.4834 3.089 23.5475C3.14802 23.6116 3.18344 23.6939 3.18941 23.7809C3.19538 23.8678 3.17156 23.9542 3.12186 24.0258L2.0815 25.5246L5.66183 23.46C5.74492 23.413 5.84256 23.3987 5.93563 23.4199C6.02871 23.4411 6.11053 23.4962 6.16508 23.5746C6.21964 23.6529 6.243 23.7488 6.23061 23.8434C6.21821 23.9381 6.17095 24.0247 6.09806 24.0863L4.53023 25.3835L7.86676 23.46C7.95111 23.4129 8.05013 23.3994 8.144 23.4222C8.23787 23.445 8.31967 23.5023 8.37305 23.5829C8.42643 23.6634 8.44745 23.7611 8.4319 23.8564C8.41636 23.9517 8.36539 24.0377 8.2892 24.0971L5.92326 25.888L10.1315 23.46C10.2173 23.4129 10.3178 23.4005 10.4124 23.4251C10.507 23.4498 10.5887 23.5097 10.6406 23.5926C10.6925 23.6755 10.7108 23.7751 10.6917 23.871C10.6726 23.9669 10.6176 24.0519 10.5378 24.1086L9.89996 24.5402L11.7722 23.46C11.8575 23.4099 11.9588 23.3947 12.0551 23.4177C12.1513 23.4406 12.2349 23.4998 12.2885 23.583C12.342 23.6662 12.3614 23.7668 12.3424 23.8639C12.3235 23.961 12.2678 24.047 12.1869 24.104L7.5624 27.3945L14.3857 23.4584C14.472 23.4109 14.5733 23.3984 14.6685 23.4236C14.7638 23.4487 14.8457 23.5096 14.8972 23.5935C14.9488 23.6774 14.9661 23.778 14.9455 23.8743C14.9249 23.9706 14.8681 24.0553 14.7867 24.1109L12.7267 25.4533L16.1767 23.46C16.263 23.4131 16.3641 23.4012 16.4589 23.4266C16.5538 23.4521 16.6353 23.5131 16.6866 23.5969C16.7378 23.6807 16.7549 23.781 16.7344 23.8771C16.7138 23.9731 16.6572 24.0576 16.5761 24.1132L14.1067 25.7101L18.0052 23.46C18.0911 23.4124 18.1919 23.3996 18.287 23.4242C18.382 23.4488 18.464 23.5089 18.516 23.5922C18.568 23.6755 18.5861 23.7756 18.5665 23.8718C18.5469 23.968 18.4912 24.053 18.4107 24.1093L11.0507 29.039L20.7153 23.46C20.8015 23.4137 20.9022 23.4021 20.9966 23.4277C21.0911 23.4532 21.1722 23.5139 21.2234 23.5973C21.2745 23.6807 21.2919 23.7805 21.2718 23.8763C21.2518 23.972 21.1959 24.0565 21.1155 24.1124L14.8542 28.1757L23.0238 23.46C23.1101 23.4124 23.2113 23.4 23.3066 23.4251C23.4018 23.4503 23.4837 23.5111 23.5353 23.595C23.5869 23.6789 23.6041 23.7795 23.5836 23.8758C23.563 23.9722 23.5061 24.0569 23.4247 24.1124L16.8245 28.4019L25.3859 23.46C25.4724 23.4107 25.5748 23.397 25.6713 23.4219C25.7677 23.4468 25.8507 23.5083 25.9026 23.5933C25.9546 23.6783 25.9714 23.7802 25.9495 23.8774C25.9275 23.9746 25.8687 24.0594 25.7853 24.1139L20.2446 27.6766L27.5494 23.46C27.6351 23.414 27.7351 23.4024 27.829 23.4273C27.923 23.4523 28.004 23.5121 28.0555 23.5946C28.1071 23.677 28.1254 23.776 28.1067 23.8714C28.088 23.9668 28.0338 24.0516 27.955 24.1086L18.942 30.1882L30.5954 23.46C30.6821 23.4123 30.7838 23.4 30.8794 23.4256C30.975 23.4512 31.0569 23.5128 31.1081 23.5975C31.1593 23.6822 31.1758 23.7833 31.1541 23.8799C31.1324 23.9764 31.0742 24.0608 30.9917 24.1155L27.9642 26.0275L32.4108 23.46C32.4966 23.4129 32.5971 23.4005 32.6917 23.4251C32.7864 23.4498 32.868 23.5097 32.9199 23.5926C32.9719 23.6755 32.9902 23.7751 32.971 23.871C32.9519 23.9669 32.8969 24.0519 32.8172 24.1086L23.7705 30.2143L35.2391 23.5934C35.3255 23.5471 35.4263 23.5357 35.5209 23.5615C35.6154 23.5873 35.6965 23.6483 35.7475 23.7321C35.7984 23.8158 35.8153 23.9159 35.7948 24.0117C35.7742 24.1075 35.7178 24.1918 35.637 24.2473L30.59 27.4857L36.9227 23.8295C37.0094 23.7764 37.1136 23.76 37.2125 23.7838C37.3113 23.8076 37.3967 23.8697 37.4497 23.9564C37.5028 24.0431 37.5193 24.1473 37.4955 24.2462C37.4717 24.345 37.4096 24.4304 37.3229 24.4835L31.9746 27.9335L38.6584 24.0733C38.7448 24.025 38.8466 24.012 38.9424 24.0371C39.0381 24.0621 39.1205 24.1233 39.1722 24.2077C39.224 24.2921 39.241 24.3932 39.2198 24.4899C39.1986 24.5867 39.1409 24.6714 39.0586 24.7265L33.2779 28.4885L40.4539 24.3485C40.54 24.301 40.6411 24.2884 40.7362 24.3133C40.8313 24.3381 40.9133 24.3986 40.9651 24.4822C41.0168 24.5658 41.0345 24.6661 41.0145 24.7624C40.9944 24.8586 40.9381 24.9435 40.8572 24.9994L34.1167 29.466L41.5066 25.1995C41.5922 25.1512 41.6931 25.1376 41.7885 25.1616C41.8839 25.1855 41.9664 25.2453 42.019 25.3284C42.0716 25.4115 42.0902 25.5116 42.071 25.6081C42.0518 25.7045 41.9963 25.7899 41.916 25.8466L34.5813 30.9066L42.7417 26.1962C42.8278 26.1472 42.9296 26.1335 43.0257 26.1579C43.1217 26.1823 43.2046 26.243 43.2569 26.3272C43.3092 26.4114 43.3268 26.5126 43.306 26.6096C43.2853 26.7065 43.2278 26.7916 43.1457 26.8471L38.7611 29.7735L43.6678 26.9422C43.7534 26.8938 43.8544 26.8802 43.9497 26.9042C44.0451 26.9282 44.1276 26.9879 44.1802 27.071C44.2328 27.1541 44.2514 27.2542 44.2323 27.3507C44.2131 27.4471 44.1576 27.5325 44.0772 27.5892L39.2993 30.8859L44.6921 27.7732C44.7775 27.7259 44.8777 27.713 44.9723 27.7371C45.0669 27.7611 45.1487 27.8204 45.2011 27.9027C45.2535 27.9851 45.2726 28.0843 45.2543 28.1802C45.2361 28.2761 45.182 28.3614 45.103 28.4188L41.0558 31.2478L45.021 28.9593C45.1068 28.9128 45.2071 28.9009 45.3014 28.9259C45.3957 28.9509 45.477 29.0109 45.5286 29.0937C45.5802 29.1765 45.5983 29.2758 45.5792 29.3715C45.5601 29.4672 45.5052 29.552 45.4258 29.6086L44.9267 29.9437L45.021 29.8892C45.1064 29.8407 45.2072 29.8269 45.3025 29.8506C45.3979 29.8743 45.4805 29.9337 45.5333 30.0165C45.5861 30.0993 45.6052 30.1993 45.5864 30.2957C45.5677 30.3922 45.5127 30.4777 45.4327 30.5348L44.2604 31.3566L45.0187 30.9189C45.1036 30.8705 45.2038 30.8565 45.2988 30.8796C45.3938 30.9027 45.4763 30.9612 45.5296 31.0432C45.5829 31.1251 45.6028 31.2243 45.5854 31.3205C45.5679 31.4167 45.5144 31.5025 45.4357 31.5606L44.7718 32.0428L45.0187 31.901C45.1027 31.8523 45.2021 31.8373 45.2967 31.8591C45.3914 31.8809 45.4742 31.9378 45.5285 32.0183C45.5828 32.0988 45.6046 32.1969 45.5894 32.2928C45.5741 32.3887 45.5231 32.4753 45.4465 32.535L44.8868 32.9735L45.0187 32.8969C45.0992 32.8521 45.1931 32.8378 45.2833 32.8567C45.3735 32.8756 45.4539 32.9263 45.5097 32.9995C45.5656 33.0728 45.5932 33.1637 45.5875 33.2557C45.5818 33.3476 45.5431 33.4344 45.4787 33.5002L44.7657 34.2102L44.8922 34.1373C44.9802 34.0873 45.0844 34.0741 45.1821 34.1006C45.2798 34.1271 45.363 34.1912 45.4136 34.2789C45.4642 34.3666 45.4781 34.4707 45.4522 34.5685C45.4264 34.6664 45.3628 34.7501 45.2755 34.8013L42.6029 36.34C42.5224 36.3847 42.4284 36.399 42.3382 36.3801C42.2481 36.3613 42.1677 36.3106 42.1118 36.2373C42.056 36.164 42.0284 36.0731 42.0341 35.9812C42.0398 35.8892 42.0784 35.8024 42.1429 35.7366L42.8567 35.0259L40.5789 36.34C40.495 36.3883 40.3958 36.4031 40.3014 36.3813C40.2071 36.3595 40.1244 36.3028 40.0701 36.2226C40.0158 36.1424 39.9939 36.0446 40.0088 35.9489C40.0237 35.8532 40.0743 35.7666 40.1503 35.7067L40.71 35.2666L38.8508 36.34C38.7659 36.3883 38.6657 36.4023 38.5707 36.3792C38.4757 36.3561 38.3932 36.2976 38.3399 36.2157C38.2866 36.1337 38.2667 36.0345 38.2841 35.9383C38.3016 35.8421 38.3551 35.7563 38.4338 35.6983L39.0931 35.2183L37.1519 36.34C37.0666 36.3868 36.9667 36.3995 36.8725 36.3754C36.7782 36.3513 36.6966 36.2923 36.6443 36.2103C36.5919 36.1283 36.5727 36.0294 36.5905 35.9338C36.6083 35.8381 36.6618 35.7528 36.7402 35.6952L37.9078 34.8749L35.3694 36.34C35.2835 36.3875 35.1826 36.4003 35.0876 36.3757C34.9925 36.3511 34.9105 36.291 34.8585 36.2077C34.8065 36.1244 34.7884 36.0243 34.808 35.9281C34.8276 35.8319 34.8834 35.7469 34.9638 35.6906L35.4691 35.3517L33.7563 36.34C33.6709 36.3872 33.5707 36.4002 33.4761 36.3761C33.3815 36.352 33.2997 36.2928 33.2473 36.2105C33.1949 36.1281 33.1758 36.0289 33.1941 35.933C33.2123 35.8371 33.2664 35.7518 33.3454 35.6944L37.3934 32.8647L31.3735 36.34C31.2879 36.3883 31.187 36.4019 31.0916 36.3779C30.9962 36.3539 30.9137 36.2942 30.8611 36.2111C30.8085 36.128 30.7899 36.0279 30.8091 35.9314C30.8283 35.835 30.8838 35.7496 30.9641 35.6929L35.742 32.3962L28.9187 36.3361C28.8326 36.3843 28.7313 36.3976 28.6358 36.373C28.5403 36.3485 28.4579 36.2881 28.4058 36.2044C28.3537 36.1206 28.3358 36.0201 28.356 35.9235C28.3761 35.827 28.4326 35.7419 28.5139 35.686L32.8984 32.7596L26.7007 36.34C26.6152 36.3866 26.5152 36.399 26.421 36.3746C26.3267 36.3503 26.2452 36.2909 26.1931 36.2087C26.141 36.1264 26.1222 36.0274 26.1404 35.9318C26.1586 35.8361 26.2126 35.751 26.2913 35.6937L33.6245 30.6337L23.7414 36.34C23.6552 36.389 23.5534 36.4027 23.4573 36.3783C23.3613 36.3538 23.2784 36.2931 23.2261 36.2089C23.1739 36.1247 23.1562 36.0235 23.177 35.9266C23.1977 35.8297 23.2552 35.7445 23.3373 35.6891L30.0756 31.224L21.2129 36.34C21.1266 36.3875 21.0253 36.4 20.9301 36.3748C20.8349 36.3497 20.753 36.2888 20.7014 36.2049C20.6498 36.121 20.6325 36.0204 20.6531 35.9241C20.6737 35.8278 20.7306 35.743 20.8119 35.6875L26.5941 31.9247L18.9451 36.34C18.8587 36.3882 18.7569 36.4012 18.6611 36.3762C18.5654 36.3511 18.483 36.29 18.4313 36.2056C18.3795 36.1212 18.3625 36.02 18.3837 35.9233C18.4048 35.8266 18.4626 35.7418 18.5449 35.6868L23.8939 32.2368L16.7831 36.34C16.6966 36.3875 16.5951 36.3999 16.4997 36.3745C16.4043 36.3491 16.3224 36.2879 16.2711 36.2036C16.2197 36.1193 16.2028 36.0185 16.2239 35.9221C16.245 35.8256 16.3025 35.7411 16.3844 35.686L21.4329 32.4468L14.6893 36.34C14.6036 36.3859 14.5037 36.3976 14.4097 36.3726C14.3157 36.3476 14.2347 36.2878 14.1832 36.2053C14.1316 36.1229 14.1133 36.0239 14.132 35.9285C14.1507 35.8331 14.2049 35.7483 14.2838 35.6914L23.3304 29.5864L11.6296 36.34C11.5715 36.3744 11.5054 36.3929 11.4379 36.3936Z" fill="#F76031"/>
<path d="M9.83174 40.9446C9.75595 40.9444 9.68192 40.9218 9.61899 40.8796C9.55606 40.8373 9.50706 40.7774 9.47818 40.7073C9.4493 40.6373 9.44183 40.5602 9.45673 40.4859C9.47163 40.4116 9.50821 40.3434 9.56187 40.2899L11.3543 38.5112L7.70577 40.6172C7.62213 40.6647 7.52369 40.679 7.42999 40.6573C7.33629 40.6356 7.25417 40.5795 7.19993 40.5C7.14569 40.4206 7.12329 40.3237 7.13718 40.2285C7.15107 40.1333 7.20023 40.0469 7.2749 39.9862L9.4668 38.2398L6.53124 39.9349C6.44586 39.9841 6.3448 39.9986 6.24904 39.9753C6.15329 39.9519 6.07019 39.8926 6.01701 39.8096C5.96383 39.7267 5.94466 39.6264 5.96346 39.5297C5.98227 39.4329 6.03761 39.3471 6.118 39.2901L6.3848 39.1L5.9363 39.3584C5.85139 39.4056 5.7517 39.4188 5.6574 39.3954C5.5631 39.3719 5.48122 39.3135 5.42834 39.232C5.37545 39.1505 5.3555 39.0519 5.37251 38.9562C5.38953 38.8606 5.44225 38.7749 5.52 38.7167L6.21 38.2283L5.44334 38.6722C5.35849 38.7201 5.25859 38.7339 5.16395 38.7107C5.0693 38.6876 4.98701 38.6293 4.93381 38.5477C4.8806 38.4661 4.86047 38.3673 4.8775 38.2713C4.89453 38.1754 4.94745 38.0896 5.0255 38.0313L6.6493 36.8429L5.0393 37.7737C4.95459 37.8229 4.85422 37.8379 4.75882 37.8155C4.66341 37.7931 4.58022 37.735 4.52633 37.6531C4.47244 37.5712 4.45196 37.4718 4.46908 37.3753C4.48621 37.2788 4.53964 37.1926 4.6184 37.1343L6.28667 35.8907L4.83 36.7295C4.7485 36.7727 4.65415 36.785 4.56426 36.7643C4.47438 36.7435 4.39499 36.6911 4.34066 36.6165C4.28633 36.542 4.2607 36.4503 4.26849 36.3584C4.27627 36.2665 4.31694 36.1805 4.38304 36.1161L7.05334 33.7333L5.0669 34.8764C4.98533 34.9213 4.8902 34.935 4.79929 34.9148C4.70838 34.8947 4.6279 34.8422 4.57287 34.7671C4.51785 34.692 4.49205 34.5994 4.50029 34.5066C4.50853 34.4139 4.55024 34.3273 4.61764 34.2631L5.74004 33.2434C5.67271 33.2169 5.61425 33.1719 5.57142 33.1136C5.52859 33.0553 5.50313 32.9861 5.498 32.9139C5.49287 32.8417 5.50827 32.7696 5.54241 32.7058C5.57656 32.642 5.62807 32.5892 5.69097 32.5534L7.94114 31.2501C8.02272 31.2052 8.11784 31.1915 8.20875 31.2117C8.29966 31.2318 8.38015 31.2843 8.43517 31.3594C8.49019 31.4345 8.51599 31.5271 8.50775 31.6199C8.49952 31.7126 8.4578 31.7992 8.3904 31.8634L7.77707 32.4208L9.88387 31.2041C9.96603 31.1566 10.0629 31.1413 10.1556 31.1612C10.2484 31.181 10.3306 31.2345 10.3862 31.3114C10.4418 31.3883 10.4669 31.483 10.4567 31.5773C10.4464 31.6717 10.4016 31.7588 10.3308 31.822L7.66667 34.2079L11.6043 31.9347C11.689 31.8854 11.7894 31.8705 11.8848 31.8929C11.9802 31.9153 12.0634 31.9734 12.1172 32.0553C12.1711 32.1371 12.1916 32.2365 12.1745 32.333C12.1574 32.4295 12.1039 32.5158 12.0252 32.5741L10.3577 33.8146L12.3993 32.6362C12.4842 32.5883 12.5841 32.5745 12.6787 32.5977C12.7733 32.6208 12.8556 32.6791 12.9088 32.7607C12.962 32.8423 12.9822 32.9411 12.9651 33.0371C12.9481 33.133 12.8952 33.2188 12.8171 33.2771L11.1933 34.4647L12.9781 33.4343C13.0635 33.3851 13.1646 33.3706 13.2603 33.394C13.3561 33.4173 13.4392 33.4766 13.4924 33.5596C13.5455 33.6425 13.5647 33.7428 13.5459 33.8395C13.5271 33.9363 13.4718 34.0221 13.3914 34.0791L12.7014 34.5675L13.3277 34.2064C13.4131 34.1584 13.5135 34.1449 13.6084 34.1687C13.7034 34.1924 13.7857 34.2515 13.8384 34.334C13.8911 34.4164 13.9104 34.5159 13.8921 34.6121C13.8738 34.7082 13.8195 34.7937 13.7402 34.8511L13.4772 35.0367L13.5248 35.0098C13.6084 34.9632 13.7064 34.9495 13.7996 34.9715C13.8928 34.9935 13.9744 35.0495 14.0283 35.1286C14.0823 35.2078 14.1046 35.3042 14.091 35.399C14.0774 35.4938 14.0289 35.58 13.9549 35.6408L11.7614 37.3896L13.5248 36.3691C13.6054 36.3238 13.6997 36.3091 13.7903 36.3278C13.8809 36.3466 13.9616 36.3974 14.0177 36.471C14.0737 36.5446 14.1012 36.636 14.0952 36.7283C14.0891 36.8206 14.0499 36.9076 13.9848 36.9733L12.1915 38.7519L12.6071 38.512C12.6951 38.4619 12.7993 38.4487 12.897 38.4752C12.9947 38.5018 13.0779 38.5659 13.1285 38.6535C13.1791 38.7412 13.193 38.8453 13.1671 38.9432C13.1413 39.041 13.0777 39.1247 12.9904 39.1759L10.015 40.8932C9.95933 40.9258 9.89622 40.9435 9.83174 40.9446Z" fill="#546070"/>
<path d="M38.2567 40.94C38.1798 40.9401 38.1046 40.9172 38.041 40.8741C37.9773 40.8311 37.928 40.7698 37.8996 40.6984C37.8712 40.627 37.8649 40.5487 37.8815 40.4736C37.8981 40.3986 37.937 40.3303 37.9929 40.2775L39.4297 38.9167L36.3185 40.7099C36.2351 40.7578 36.1366 40.7725 36.0428 40.7512C35.949 40.7298 35.8666 40.674 35.8121 40.5947C35.7575 40.5155 35.7348 40.4186 35.7484 40.3233C35.7619 40.2281 35.8109 40.1414 35.8854 40.0805L38.1256 38.2566L35.0367 40.0407C34.9515 40.0888 34.8512 40.1025 34.7563 40.0791C34.6613 40.0557 34.5789 39.9969 34.5259 39.9147C34.4729 39.8325 34.4533 39.7331 34.4712 39.637C34.489 39.5408 34.5429 39.4551 34.6219 39.3974L35.3587 38.8684L34.372 39.4381C34.2885 39.4859 34.1901 39.5006 34.0963 39.4793C34.0024 39.4579 33.9201 39.4021 33.8655 39.3228C33.811 39.2436 33.7882 39.1467 33.8018 39.0514C33.8154 38.9562 33.8643 38.8695 33.9388 38.8086L37.2623 36.1138L33.5823 38.2382C33.4967 38.2873 33.3955 38.3015 33.2997 38.2779C33.204 38.2543 33.121 38.1947 33.068 38.1114C33.0151 38.0282 32.9963 37.9277 33.0155 37.8309C33.0348 37.7342 33.0906 37.6486 33.1714 37.5919L33.268 37.5237C33.1819 37.5558 33.0871 37.5559 33.0009 37.524C32.9147 37.4921 32.8428 37.4302 32.7984 37.3498C32.754 37.2693 32.74 37.1755 32.7589 37.0856C32.7778 36.9957 32.8284 36.9155 32.9015 36.8597L34.7645 35.4453L33.1783 36.3652C33.0957 36.4127 32.9984 36.4277 32.9053 36.4074C32.8123 36.387 32.7302 36.3327 32.6749 36.2551C32.6197 36.1775 32.5954 36.0821 32.6067 35.9875C32.6179 35.8929 32.664 35.8059 32.7359 35.7435L34.9094 33.8652L33.5056 34.6755C33.4231 34.723 33.3258 34.738 33.2327 34.7176C33.1397 34.6973 33.0575 34.643 33.0023 34.5654C32.9471 34.4878 32.9227 34.3924 32.934 34.2978C32.9453 34.2032 32.9914 34.1162 33.0633 34.0537L34.0369 33.2104C33.9863 33.178 33.9442 33.1338 33.9143 33.0816C33.8634 32.9936 33.8497 32.8889 33.876 32.7907C33.9023 32.6925 33.9665 32.6088 34.0546 32.558L36.3047 31.2546C36.3872 31.2074 36.4844 31.1924 36.5773 31.2127C36.6702 31.233 36.7522 31.2871 36.8074 31.3645C36.8627 31.442 36.8872 31.5371 36.8761 31.6316C36.8651 31.726 36.8194 31.813 36.7479 31.8756L36.6137 31.9922L38.0267 31.1765C38.1093 31.129 38.2066 31.114 38.2996 31.1344C38.3926 31.1547 38.4748 31.209 38.53 31.2866C38.5852 31.3642 38.6096 31.4596 38.5983 31.5542C38.587 31.6488 38.5409 31.7358 38.469 31.7982L36.2948 33.6773L39.6543 31.7376C39.7388 31.6881 39.8391 31.6728 39.9346 31.6949C40.0301 31.7169 40.1135 31.7748 40.1676 31.8564C40.2218 31.9381 40.2426 32.0374 40.2259 32.1339C40.2091 32.2304 40.156 32.3169 40.0775 32.3755L38.2183 33.7885L40.5728 32.4299C40.6583 32.3808 40.7595 32.3666 40.8553 32.3902C40.9511 32.4139 41.0341 32.4735 41.0871 32.5567C41.14 32.64 41.1588 32.7405 41.1395 32.8372C41.1203 32.934 41.0645 33.0196 40.9837 33.0763L40.9346 33.1107L41.0826 33.0249C41.1661 32.9779 41.2641 32.9638 41.3574 32.9854C41.4507 33.0071 41.5325 33.0628 41.5868 33.1418C41.641 33.2207 41.6637 33.3171 41.6504 33.412C41.6371 33.5068 41.5888 33.5933 41.515 33.6543L38.193 36.3476L41.7335 34.3044C41.8186 34.2563 41.919 34.2426 42.0139 34.266C42.1089 34.2894 42.1913 34.3482 42.2443 34.4304C42.2973 34.5126 42.3169 34.612 42.299 34.7081C42.2812 34.8043 42.2272 34.89 42.1483 34.9477L41.4084 35.4782L41.9206 35.183C42.0039 35.1362 42.1018 35.1223 42.1949 35.1439C42.288 35.1655 42.3697 35.2211 42.4239 35.2998C42.4782 35.3785 42.501 35.4746 42.488 35.5694C42.4751 35.6641 42.4272 35.7505 42.3537 35.8117L40.1135 37.631L41.86 36.6244C41.9417 36.5747 42.039 36.5574 42.1328 36.5757C42.2266 36.5941 42.3102 36.6468 42.3671 36.7236C42.4241 36.8004 42.4502 36.8957 42.4405 36.9909C42.4308 37.086 42.3859 37.174 42.3146 37.2377L40.8779 38.5986L40.9546 38.5556C40.9982 38.5279 41.047 38.5093 41.098 38.5009C41.149 38.4925 41.2012 38.4945 41.2514 38.5068C41.3016 38.5191 41.3488 38.5414 41.3902 38.5724C41.4316 38.6035 41.4662 38.6425 41.4921 38.6873C41.518 38.732 41.5345 38.7816 41.5408 38.8329C41.547 38.8842 41.5428 38.9363 41.5284 38.9859C41.514 39.0356 41.4897 39.0818 41.4569 39.1218C41.4242 39.1618 41.3837 39.1948 41.3379 39.2188L38.4468 40.8886C38.389 40.922 38.3234 40.9397 38.2567 40.94Z" fill="#546070"/>
<path d="M5.33676 11.861C5.25778 11.8611 5.18071 11.8367 5.11611 11.7913C5.0515 11.7458 5.0025 11.6815 4.97582 11.6072C4.94914 11.5329 4.94607 11.4521 4.96704 11.3759C4.98801 11.2998 5.03199 11.232 5.09296 11.1818L5.21946 11.0767L3.95063 11.8066C3.87134 11.8516 3.77859 11.8669 3.68904 11.8497C3.59948 11.8326 3.51899 11.784 3.46202 11.7128C3.40504 11.6416 3.37531 11.5524 3.37817 11.4613C3.38102 11.3701 3.41628 11.283 3.4776 11.2155L4.55553 10.0463L2.53 11.2178C2.44947 11.2626 2.35552 11.2768 2.26534 11.258C2.17517 11.2391 2.09479 11.1884 2.03894 11.1152C1.98308 11.0419 1.95548 10.951 1.96118 10.859C1.96689 10.7671 2.00552 10.6802 2.07 10.6144L2.76383 9.92444C2.69606 9.89878 2.63695 9.85443 2.59335 9.79654C2.54976 9.73865 2.52347 9.66959 2.51753 9.59736C2.51159 9.52514 2.52625 9.45271 2.5598 9.38847C2.59335 9.32424 2.64443 9.27083 2.7071 9.23444L4.54173 8.17491C4.62226 8.13016 4.71621 8.1159 4.80638 8.13475C4.89656 8.15361 4.97693 8.2043 5.03279 8.27757C5.08864 8.35083 5.11625 8.44176 5.11054 8.53371C5.10484 8.62566 5.06621 8.71248 5.00173 8.77828L4.69506 9.08111L6.35643 8.12661C6.43572 8.08158 6.52847 8.06628 6.61802 8.08348C6.70758 8.10067 6.78807 8.14922 6.84504 8.22042C6.90202 8.29162 6.93175 8.38079 6.92889 8.47194C6.92604 8.56308 6.89079 8.65022 6.82946 8.71771L5.75 9.88534L8.79903 8.12201C8.88222 8.07483 8.98004 8.06044 9.07329 8.08168C9.16654 8.10292 9.24848 8.15825 9.30303 8.2368C9.35758 8.31536 9.38079 8.41147 9.36811 8.50626C9.35543 8.60106 9.30777 8.68769 9.2345 8.74914L9.10876 8.85264L10.3753 8.12201C10.4549 8.07697 10.548 8.06187 10.6377 8.07944C10.7275 8.09701 10.808 8.14609 10.8647 8.21782C10.9215 8.28956 10.9507 8.37921 10.9471 8.4706C10.9436 8.56199 10.9074 8.64909 10.8453 8.71618L9.79263 9.83244L12.7581 8.12661C12.8414 8.07922 12.9394 8.06473 13.0328 8.08601C13.1263 8.10729 13.2083 8.16279 13.2629 8.24157C13.3174 8.32036 13.3405 8.41672 13.3275 8.51166C13.3145 8.6066 13.2665 8.69324 13.1928 8.75451L13.1284 8.80665L14.3083 8.12661C14.39 8.07516 14.4881 8.05642 14.583 8.07414C14.6779 8.09186 14.7626 8.14473 14.8202 8.22219C14.8778 8.29965 14.9041 8.396 14.8937 8.49198C14.8834 8.58797 14.8372 8.67652 14.7645 8.73994L13.9257 9.53728L16.363 8.12661C16.4405 8.08237 16.531 8.06654 16.6189 8.08186C16.7068 8.09718 16.7866 8.14269 16.8445 8.21055C16.9025 8.2784 16.9349 8.36434 16.9363 8.45357C16.9377 8.54279 16.9079 8.6297 16.8521 8.69931L15.7075 10.1161L19.1575 8.12661C19.2365 8.08156 19.329 8.0661 19.4185 8.08301C19.5079 8.09991 19.5884 8.14807 19.6455 8.21888C19.7027 8.28969 19.7328 8.37852 19.7305 8.46948C19.7281 8.56045 19.6935 8.64762 19.6328 8.71541L18.538 9.91984L21.6484 8.12661C21.7306 8.07975 21.8273 8.06496 21.9197 8.0851C22.0122 8.10523 22.094 8.15887 22.1493 8.23568C22.2046 8.31249 22.2295 8.40704 22.2193 8.50113C22.209 8.59522 22.1643 8.6822 22.0938 8.74531L21.541 9.23368L23.46 8.12661C23.5417 8.07848 23.6383 8.06232 23.7312 8.08124C23.824 8.10017 23.9066 8.15284 23.963 8.22909C24.0193 8.30533 24.0454 8.39974 24.0361 8.49409C24.0269 8.58844 23.9831 8.67603 23.9131 8.73994L23.1158 9.48821L25.4717 8.12661C25.5529 8.07693 25.6497 8.05923 25.7432 8.07695C25.8367 8.09467 25.9203 8.14654 25.9777 8.22247C26.035 8.29841 26.0621 8.39297 26.0536 8.48777C26.0451 8.58256 26.0017 8.67081 25.9317 8.73534L25.0654 9.56028L27.5525 8.12661C27.6287 8.08261 27.7177 8.06616 27.8046 8.08003C27.8915 8.09391 27.971 8.13726 28.0297 8.20281C28.0884 8.26835 28.1228 8.35211 28.127 8.44001C28.1313 8.5279 28.1052 8.61459 28.0531 8.68551L26.91 10.2242L30.5509 8.12661C30.6321 8.07693 30.7288 8.05923 30.8224 8.07695C30.9159 8.09467 30.9994 8.14654 31.0568 8.22247C31.1142 8.29841 31.1413 8.39297 31.1328 8.48777C31.1243 8.58256 31.0809 8.67081 31.0109 8.73534L30.1453 9.55951L32.6309 8.12661C32.7119 8.07858 32.8077 8.06204 32.9001 8.08016C32.9926 8.09828 33.0751 8.14979 33.1319 8.22486C33.1888 8.29992 33.216 8.3933 33.2085 8.48717C33.2009 8.58104 33.159 8.66883 33.0909 8.73381L32.2077 9.58328L34.7377 8.12661C34.8186 8.07931 34.914 8.0633 35.0059 8.08159C35.0979 8.09988 35.1799 8.15121 35.2365 8.22589C35.2932 8.30056 35.3205 8.39339 35.3133 8.48684C35.3062 8.58029 35.265 8.66788 35.1977 8.73304L34.2884 9.61394L36.7042 8.22014C36.785 8.17354 36.88 8.158 36.9715 8.17645C37.0629 8.1949 37.1445 8.24607 37.2009 8.32036C37.2574 8.39466 37.2848 8.48698 37.278 8.58003C37.2712 8.67308 37.2308 8.76047 37.1642 8.82581L36.3477 9.62391L37.8266 8.76984C37.9015 8.72671 37.9887 8.71014 38.0742 8.72283C38.1597 8.73553 38.2384 8.77673 38.2975 8.83976C38.3566 8.90279 38.3927 8.98394 38.3999 9.07006C38.4071 9.15618 38.385 9.2422 38.3372 9.31418L37.6633 10.3262L38.6553 9.75424C38.727 9.71145 38.8106 9.6932 38.8935 9.70225C38.9765 9.71131 39.0542 9.74717 39.1149 9.80441C39.1756 9.86165 39.216 9.93713 39.2299 10.0194C39.2438 10.1017 39.2305 10.1862 39.192 10.2602L39.0341 10.5669C39.1033 10.5662 39.1715 10.5835 39.2319 10.6171C39.2924 10.6507 39.3431 10.6994 39.3791 10.7586C39.43 10.8465 39.4439 10.9511 39.4177 11.0493C39.3915 11.1475 39.3274 11.2312 39.2395 11.2822L38.3257 11.8066C38.254 11.8494 38.1704 11.8677 38.0875 11.8586C38.0045 11.8496 37.9268 11.8137 37.8661 11.7564C37.8054 11.6992 37.765 11.6237 37.7511 11.5415C37.7372 11.4592 37.7505 11.3746 37.789 11.3006L37.9094 11.066L36.6244 11.8066C36.5495 11.8497 36.4623 11.8663 36.3768 11.8536C36.2913 11.8409 36.2126 11.7997 36.1535 11.7367C36.0944 11.6737 36.0583 11.5925 36.0511 11.5064C36.0439 11.4203 36.066 11.3343 36.1138 11.2623L36.7877 10.251L34.096 11.8066C34.0151 11.8532 33.9201 11.8688 33.8287 11.8503C33.7372 11.8319 33.6556 11.7807 33.5992 11.7064C33.5428 11.6321 33.5154 11.5398 33.5221 11.4467C33.5289 11.3537 33.5694 11.2663 33.636 11.2009L34.4525 10.4028L32.0198 11.8066C31.9389 11.8539 31.8435 11.8699 31.7516 11.8516C31.6596 11.8333 31.5776 11.782 31.521 11.7073C31.4643 11.6327 31.437 11.5398 31.4442 11.4464C31.4513 11.3529 31.4925 11.2653 31.5598 11.2002L32.4653 10.3185L29.8862 11.8066C29.8052 11.8546 29.7093 11.8712 29.6169 11.8531C29.5245 11.8349 29.442 11.7834 29.3851 11.7084C29.3283 11.6333 29.301 11.5399 29.3086 11.4461C29.3162 11.3522 29.358 11.2644 29.4262 11.1994L30.3109 10.3499L27.7809 11.8066C27.6998 11.8529 27.6046 11.8679 27.5131 11.8489C27.4217 11.8299 27.3403 11.7782 27.2843 11.7035C27.2283 11.6287 27.2015 11.5361 27.209 11.443C27.2164 11.3499 27.2576 11.2628 27.3248 11.1979L28.1857 10.3729L25.7017 11.8066C25.6255 11.8502 25.5367 11.8663 25.45 11.8523C25.3634 11.8382 25.2842 11.7949 25.2256 11.7294C25.1671 11.664 25.1328 11.5805 25.1285 11.4928C25.1242 11.4051 25.1501 11.3186 25.2019 11.2477L26.3411 9.70748L22.7033 11.8066C22.6222 11.8529 22.5269 11.8679 22.4355 11.8489C22.3441 11.8299 22.2627 11.7782 22.2067 11.7035C22.1507 11.6287 22.1239 11.5361 22.1313 11.443C22.1388 11.3499 22.18 11.2628 22.2471 11.1979L23.1089 10.3722L20.6233 11.8066C20.5417 11.8547 20.4451 11.8709 20.3522 11.852C20.2593 11.8331 20.1767 11.7804 20.1204 11.7041C20.0641 11.6279 20.038 11.5335 20.0472 11.4391C20.0564 11.3448 20.1002 11.2572 20.1702 11.1933L20.9676 10.445L18.6108 11.8066C18.5286 11.8535 18.4319 11.8683 18.3395 11.8481C18.247 11.828 18.1652 11.7744 18.1099 11.6975C18.0546 11.6207 18.0297 11.5262 18.0399 11.4321C18.0502 11.338 18.0949 11.251 18.1654 11.1879L18.7189 10.6995L16.8023 11.8066C16.7232 11.8517 16.6307 11.8671 16.5413 11.8502C16.4519 11.8333 16.3714 11.7851 16.3142 11.7143C16.2571 11.6435 16.2269 11.5547 16.2293 11.4637C16.2316 11.3728 16.2662 11.2856 16.3269 11.2178L17.4217 10.0111L14.3068 11.8066C14.2293 11.8513 14.1386 11.8675 14.0504 11.8523C13.9622 11.8372 13.8821 11.7917 13.824 11.7237C13.7658 11.6557 13.7333 11.5696 13.732 11.4801C13.7307 11.3906 13.7607 11.3036 13.8169 11.2339L14.9623 9.81711L11.5123 11.8066C11.431 11.8572 11.3337 11.8756 11.2396 11.8581C11.1455 11.8407 11.0613 11.7886 11.0036 11.7122C10.9459 11.6357 10.919 11.5405 10.928 11.4452C10.937 11.3499 10.9813 11.2614 11.0523 11.1971L11.891 10.3998L9.45913 11.8066C9.37585 11.854 9.27784 11.8685 9.1844 11.8472C9.09097 11.8259 9.0089 11.7704 8.95435 11.6916C8.89981 11.6129 8.87675 11.5165 8.88972 11.4216C8.90269 11.3266 8.95075 11.24 9.02443 11.1787L9.08806 11.1273L7.90893 11.8066C7.82933 11.8517 7.73625 11.8668 7.6465 11.8492C7.55674 11.8316 7.47623 11.7825 7.41949 11.7108C7.36275 11.6391 7.33353 11.5494 7.3371 11.458C7.34067 11.3666 7.3768 11.2795 7.43896 11.2124L8.4916 10.0969L5.52843 11.8066C5.47056 11.8416 5.40437 11.8604 5.33676 11.861Z" fill="#F76031"/>
<path d="M44.2704 28.727C44.2068 28.7269 44.1443 28.7109 44.0884 28.6806C44.0326 28.6502 43.9851 28.6065 43.9504 28.5533C43.9156 28.5 43.8947 28.439 43.8894 28.3756C43.8841 28.3123 43.8946 28.2486 43.92 28.1904L44.2466 27.4536L42.1544 28.6603C42.0781 28.7046 41.9888 28.7212 41.9016 28.7073C41.8144 28.6934 41.7347 28.6498 41.676 28.5839C41.6172 28.518 41.583 28.4339 41.5791 28.3457C41.5752 28.2575 41.6018 28.1707 41.6545 28.0999L42.7463 26.6256L40.94 27.6683C40.8646 27.712 40.7766 27.7287 40.6905 27.7157C40.6043 27.7027 40.5252 27.6607 40.4661 27.5967C40.407 27.5327 40.3714 27.4504 40.3653 27.3635C40.3592 27.2766 40.3829 27.1902 40.4325 27.1186L41.134 26.1027L40.8511 26.266C40.7858 26.3037 40.711 26.3213 40.6358 26.3167C40.5606 26.3121 40.4884 26.2854 40.4283 26.24C40.3682 26.1946 40.3228 26.1325 40.2977 26.0615C40.2727 25.9904 40.2692 25.9136 40.2876 25.8405L40.447 25.2073C40.3977 25.1746 40.3567 25.1307 40.3274 25.0792C40.3023 25.0356 40.286 24.9874 40.2795 24.9375C40.273 24.8875 40.2764 24.8368 40.2895 24.7882C40.3026 24.7396 40.3251 24.694 40.3558 24.6541C40.3866 24.6142 40.4248 24.5807 40.4685 24.5556L40.7752 24.3793C40.8404 24.3418 40.9152 24.3244 40.9902 24.3291C41.0653 24.3339 41.1373 24.3606 41.1972 24.4059C41.2572 24.4513 41.3025 24.5133 41.3275 24.5842C41.3526 24.6551 41.3562 24.7318 41.3379 24.8048L41.2513 25.1498L42.2257 24.587C42.3011 24.5437 42.3889 24.5273 42.4748 24.5405C42.5607 24.5537 42.6396 24.5957 42.6985 24.6596C42.7575 24.7235 42.7929 24.8055 42.7991 24.8922C42.8052 24.9789 42.7818 25.0651 42.7325 25.1367L42.0302 26.1526L43.9607 25.0394C44.037 24.9951 44.1263 24.9785 44.2135 24.9924C44.3006 25.0063 44.3803 25.0499 44.4391 25.1158C44.4978 25.1817 44.5321 25.2658 44.536 25.354C44.5399 25.4422 44.5132 25.529 44.4605 25.5998L43.3688 27.0733L44.8837 26.2001C44.9538 26.1598 45.0347 26.1426 45.1151 26.1511C45.1954 26.1595 45.271 26.1931 45.3312 26.2471C45.3913 26.3011 45.4328 26.3727 45.4498 26.4517C45.4668 26.5307 45.4584 26.613 45.4258 26.6869L45.0946 27.4337C45.1835 27.4051 45.2799 27.41 45.3655 27.4475C45.4511 27.4849 45.5201 27.5524 45.5595 27.6372C45.5989 27.7219 45.6059 27.8181 45.5793 27.9077C45.5527 27.9973 45.4943 28.0741 45.415 28.1237L44.4644 28.6718C44.4058 28.7072 44.3388 28.7263 44.2704 28.727Z" fill="#D4E6E7"/>
<path d="M45.4457 25.9379C44.5165 24.4498 42.5968 24.6997 41.091 24.3808C39.1015 24.0741 37.0032 23.795 34.9753 23.5152C31.6334 20.6486 29.4676 15.4491 25.0853 14.2592V11.7699C27.4474 11.1979 40.4302 13.3837 39.5232 10.13C37.9692 6.02906 16.606 9.04666 11.27 8.17113C10.81 4.83536 4.41753 3.36796 5.57597 8.16653C3.84177 7.76709 -0.1288 11.1174 2.91487 11.7622C6.35643 11.7706 9.8003 11.7561 13.2426 11.7622V14.2799C8.75457 14.9699 7.20513 20.6026 4.25193 23.5505C-1.51493 22.9233 0.5497 29.7405 0.2116 33.314C-0.0682335 35.5971 2.07 36.5876 4.06333 36.2449C4.1147 42.4549 13.8981 42.3836 14.3167 36.3661H32.4377C32.6079 42.4388 42.2656 42.0524 42.6796 36.2894C47.3401 36.3239 45.8206 28.9332 45.4457 25.9379ZM44.62 26.9292C44.6917 27.2838 44.7243 27.6453 44.7174 28.0071C42.1452 28.2018 40.7629 28.0531 41.1907 25.0485C42.55 25.2663 44.2367 25.2571 44.62 26.9292ZM28.4748 17.9668C30.1614 19.8467 31.914 21.6254 33.5417 23.5581H18.1884V14.8519C22.0294 14.8526 26.3212 13.8981 28.4748 17.9668ZM6.6884 6.04899C6.70902 5.91762 6.74452 5.78901 6.7942 5.66566C7.53737 5.69624 8.25363 5.95234 8.84771 6.39989C9.4418 6.84744 9.88556 7.46524 10.12 8.17113C8.9608 8.17956 7.87597 8.16423 6.68917 8.13279C6.6861 7.43666 6.6746 6.74666 6.6884 6.04899ZM5.3176 11.2378C1.84767 11.8971 2.40963 9.12256 5.07917 8.69476C15.7734 9.36636 27.3976 7.36153 37.7261 9.46143C37.8174 9.54806 38.9865 11.0937 38.433 11.2409C27.3899 11.2398 16.3515 11.2388 5.3176 11.2378ZM22.4771 11.7622C22.9778 11.7622 23.4738 11.7622 23.9783 11.7668V14.2201C20.7261 14.3374 17.5919 14.2638 14.3551 14.2753V11.7607L22.4771 11.7622ZM11.0538 15.8393C12.6071 14.1258 15.0581 15.0949 17.079 14.8519V23.5581H5.2647C7.21663 21.0067 9.08807 18.3816 11.053 15.8393H11.0538ZM10.6298 40.0376C4.2665 42.1023 3.1579 30.8016 9.87543 31.8864C13.8153 32.6232 14.4463 38.64 10.6291 40.0376H10.6298ZM38.9099 40.2423C32.4998 42.0241 31.6058 30.3991 38.3548 31.819C42.2663 32.7834 42.7608 38.8516 38.9091 40.2423H38.9099ZM44.564 34.5391C44.4366 34.9197 44.1838 35.2459 43.8469 35.4641C43.51 35.6824 43.109 35.7798 42.7095 35.7405C42.5423 29.6761 32.9253 29.933 32.4568 35.7006H14.3367C14.0783 29.4906 4.29793 29.7835 4.07253 35.8394C3.70115 35.8956 3.32175 35.8644 2.96456 35.7481C2.60738 35.6319 2.28229 35.4338 2.0152 35.1697C1.7481 34.9056 1.54639 34.5827 1.42613 34.2269C1.30586 33.871 1.27038 33.492 1.3225 33.12C1.84 30.6797 -0.0460002 24.9006 2.7761 23.9752C13.1514 23.9675 23.588 23.9821 33.9902 23.9752C35.949 24.4528 38.0704 24.5172 40.0744 24.8891C39.4971 28.6741 41.4997 28.9808 44.7051 28.7224C44.5633 30.6667 44.8623 32.6286 44.5633 34.5391H44.564Z" fill="#262626"/>
</svg>
