<svg width="46" height="46" viewBox="0 0 46 46" fill="none" xmlns="http://www.w3.org/2000/svg">
<g clip-path="url(#clip0_40_83)">
<path d="M37.3934 5.05239C37.3296 5.05261 37.2668 5.03692 37.2106 5.00675C37.1545 4.97657 37.1067 4.93286 37.0717 4.87957C37.0367 4.82629 37.0155 4.76511 37.0101 4.70157C37.0047 4.63804 37.0152 4.57416 37.0407 4.51572L37.5153 3.40865L34.7645 4.99949C34.6845 5.04623 34.5904 5.06244 34.4994 5.04514C34.4084 5.02784 34.3268 4.9782 34.2696 4.90537C34.2124 4.83255 34.1834 4.74148 34.1882 4.649C34.1929 4.55651 34.2309 4.46886 34.2953 4.40225L35.2981 3.35575L32.4514 4.99949C32.3703 5.04917 32.2735 5.06687 32.18 5.04915C32.0865 5.03143 32.0029 4.97956 31.9455 4.90363C31.8881 4.82769 31.8611 4.73313 31.8695 4.63833C31.878 4.54353 31.9215 4.45529 31.9914 4.39075L33.5033 2.94559L30.1162 4.90135C30.0372 4.94692 29.9445 4.96282 29.8548 4.94622C29.7652 4.92961 29.6844 4.88158 29.6269 4.81074C29.5695 4.73991 29.5392 4.65092 29.5414 4.55975C29.5437 4.46858 29.5784 4.38121 29.6393 4.31332L31.2692 2.49632L31.0661 2.61285C30.9785 2.65868 30.8765 2.66889 30.7816 2.64134C30.6866 2.61379 30.606 2.55062 30.5565 2.46502C30.507 2.37943 30.4925 2.27802 30.5161 2.18199C30.5396 2.08596 30.5993 2.00273 30.6827 1.94969L32.9666 0.630253C33.0456 0.584689 33.1383 0.568782 33.228 0.58539C33.3176 0.601998 33.3985 0.650031 33.4559 0.720864C33.5133 0.791697 33.5436 0.88069 33.5414 0.971859C33.5391 1.06303 33.5044 1.1504 33.4435 1.21829L31.8166 3.03529L35.8746 0.690053C35.9558 0.640373 36.0525 0.62267 36.1461 0.640389C36.2396 0.658107 36.3232 0.709979 36.3805 0.785913C36.4379 0.861847 36.465 0.956412 36.4565 1.05121C36.448 1.14601 36.4046 1.23425 36.3346 1.29879L34.8227 2.74472L37.2431 1.34785C37.323 1.30225 37.4165 1.28686 37.5068 1.30451C37.597 1.32215 37.6779 1.37164 37.7347 1.44395C37.7915 1.51627 37.8204 1.60659 37.8162 1.69844C37.8119 1.7903 37.7748 1.87756 37.7115 1.94432L36.7087 2.99005L38.1278 2.17125C38.1975 2.13104 38.278 2.11375 38.358 2.12183C38.4381 2.12991 38.5135 2.16296 38.5737 2.21629C38.6339 2.26962 38.6758 2.34054 38.6935 2.419C38.7112 2.49746 38.7037 2.5795 38.6722 2.65349L38.1991 3.75902L38.7703 3.43012C38.8139 3.40238 38.8627 3.38376 38.9137 3.37537C38.9648 3.36698 39.0169 3.36899 39.0672 3.38129C39.1174 3.39359 39.1646 3.41592 39.2059 3.44694C39.2473 3.47796 39.282 3.51702 39.3078 3.56178C39.3337 3.60654 39.3503 3.65608 39.3565 3.7074C39.3627 3.75872 39.3585 3.81077 39.3441 3.86043C39.3297 3.91008 39.3054 3.9563 39.2727 3.99632C39.2399 4.03634 39.1995 4.06932 39.1536 4.09329L37.585 5.00025C37.5268 5.03417 37.4607 5.05215 37.3934 5.05239Z" fill="#563B36"/>
<path d="M34.1542 16.3239C34.0727 16.3239 33.9932 16.2978 33.9275 16.2496C33.8618 16.2013 33.8131 16.1333 33.7887 16.0555C33.7642 15.9777 33.7652 15.8941 33.7915 15.8169C33.8178 15.7397 33.8681 15.6729 33.935 15.6262L35.6814 14.4134L32.6278 16.1767C32.5426 16.2261 32.4417 16.2408 32.3459 16.2178C32.2502 16.1948 32.167 16.1358 32.1135 16.0531C32.0601 15.9704 32.0405 15.8703 32.0589 15.7735C32.0773 15.6768 32.1322 15.5908 32.2123 15.5335L36.4335 12.4967L30.5969 15.8662C30.5109 15.9131 30.4103 15.9254 30.3156 15.9005C30.2209 15.8755 30.1393 15.8153 30.0876 15.7321C30.0359 15.6489 30.018 15.5491 30.0376 15.4532C30.0572 15.3572 30.1127 15.2724 30.1929 15.2161L32.4798 13.6873L29.256 15.545C29.17 15.5919 29.0694 15.6042 28.9747 15.5792C28.88 15.5543 28.7984 15.494 28.7467 15.4109C28.695 15.3277 28.6771 15.2279 28.6967 15.1319C28.7163 15.036 28.7718 14.9511 28.852 14.8948L31.6794 13.0111L27.9757 15.1486C27.8902 15.1986 27.7886 15.2135 27.6924 15.1903C27.5961 15.167 27.5126 15.1075 27.4593 15.024C27.406 14.9406 27.387 14.8397 27.4064 14.7426C27.4258 14.6455 27.4819 14.5597 27.5632 14.5031L33.5363 10.3017L26.2905 14.4847C26.2045 14.5329 26.1032 14.5461 26.0077 14.5216C25.9122 14.497 25.8298 14.4366 25.7777 14.3529C25.7255 14.2692 25.7077 14.1686 25.7278 14.0721C25.7479 13.9755 25.8045 13.8905 25.8857 13.8345L30.071 11.0255L25.5147 13.6559C25.4282 13.7042 25.3265 13.7172 25.2307 13.6921C25.1349 13.6671 25.0525 13.606 25.0008 13.5215C24.9491 13.4371 24.932 13.336 24.9532 13.2393C24.9744 13.1425 25.0322 13.0578 25.1145 13.0027L26.3956 12.1693L25.5147 12.6776C25.4285 12.7245 25.3277 12.7366 25.2329 12.7114C25.1381 12.6862 25.0566 12.6256 25.0051 12.5421C24.9537 12.4586 24.9361 12.3586 24.9562 12.2626C24.9763 12.1666 25.0323 12.0819 25.1129 12.026L26.4232 11.165L25.5177 11.6863C25.432 11.7354 25.3306 11.7494 25.2347 11.7255C25.1389 11.7016 25.056 11.6416 25.0033 11.5581C24.9506 11.4745 24.9322 11.3738 24.9519 11.277C24.9716 11.1802 25.0279 11.0948 25.1091 11.0385L27.8975 9.12185L25.7079 10.3853C25.6224 10.4338 25.5216 10.4476 25.4263 10.4239C25.3309 10.4002 25.2483 10.3409 25.1955 10.258C25.1427 10.1752 25.1237 10.0753 25.1424 9.97882C25.1611 9.88238 25.2162 9.79681 25.2962 9.73978L27.0411 8.51312L26.1357 9.03521C26.0541 9.0807 25.9587 9.09481 25.8674 9.07491C25.7761 9.05502 25.6952 9.00247 25.64 8.92715C25.5847 8.85183 25.5588 8.75892 25.5673 8.66588C25.5757 8.57284 25.6178 8.48607 25.6856 8.42188L27.8216 6.47838C27.7316 6.50514 27.6349 6.49796 27.5499 6.4582C27.4649 6.41844 27.3974 6.34886 27.3602 6.26266C27.3231 6.17645 27.3189 6.07962 27.3484 5.9905C27.3779 5.90139 27.439 5.8262 27.5203 5.77918L30.4842 4.06338C30.5658 4.0179 30.6612 4.00378 30.7525 4.02368C30.8437 4.04358 30.9246 4.09613 30.9799 4.17145C31.0351 4.24676 31.061 4.33967 31.0526 4.43271C31.0442 4.52575 31.0021 4.61252 30.9342 4.67671L28.8313 6.59338L34.1435 3.52671C34.2288 3.47988 34.3287 3.46722 34.4229 3.4913C34.5172 3.51538 34.5988 3.57441 34.6511 3.65641C34.7035 3.7384 34.7227 3.83724 34.7049 3.93289C34.6871 4.02853 34.6336 4.11383 34.5552 4.17148L32.8133 5.39815L35.8992 3.61641C35.9849 3.56739 36.0863 3.55337 36.1821 3.57727C36.278 3.60117 36.3609 3.66115 36.4136 3.7447C36.4663 3.82825 36.4847 3.92893 36.465 4.02572C36.4453 4.12252 36.389 4.20797 36.3078 4.26425L33.5171 6.18475L37.4777 3.89855C37.5641 3.84945 37.6661 3.8358 37.7624 3.86047C37.8586 3.88514 37.9415 3.94621 37.9936 4.0308C38.0457 4.1154 38.0629 4.21691 38.0416 4.31395C38.0203 4.41098 37.9622 4.49597 37.8795 4.55098L36.5761 5.40658L38.5817 4.24891C38.6682 4.1986 38.771 4.18412 38.8681 4.20857C38.9651 4.23302 39.0488 4.29445 39.1011 4.37975C39.1535 4.46505 39.1704 4.56744 39.1483 4.66505C39.1261 4.76266 39.0667 4.84774 38.9827 4.90211L37.7054 5.73242L39.5247 4.68131C39.6107 4.63309 39.712 4.61988 39.8076 4.64442C39.9031 4.66896 39.9855 4.72936 40.0376 4.81308C40.0897 4.89679 40.1076 4.99738 40.0874 5.09392C40.0673 5.19046 40.0108 5.27553 39.9295 5.33145L35.7412 8.14282L40.5666 5.35675C40.6521 5.30681 40.7536 5.29189 40.8499 5.31511C40.9461 5.33834 41.0297 5.39791 41.083 5.48135C41.1363 5.56479 41.1553 5.66563 41.1359 5.76273C41.1165 5.85984 41.0603 5.94568 40.9791 6.00228L35.0045 10.2059L41.6384 6.37258C41.7246 6.32357 41.8264 6.30984 41.9224 6.33428C42.0185 6.35871 42.1014 6.4194 42.1536 6.50362C42.2059 6.58783 42.2235 6.68903 42.2028 6.78596C42.1821 6.88288 42.1246 6.96802 42.0425 7.02348L39.2104 8.91025L42.228 7.17145C42.3142 7.12244 42.4159 7.10871 42.512 7.13314C42.6081 7.15758 42.6909 7.21827 42.7432 7.30248C42.7955 7.3867 42.8131 7.48789 42.7924 7.58482C42.7716 7.68175 42.7142 7.76688 42.632 7.82235L40.3512 9.34648L42.6888 7.99792C42.7739 7.94869 42.8746 7.93404 42.9702 7.95702C43.0659 7.97999 43.149 8.03882 43.2024 8.12135C43.256 8.20401 43.2757 8.30411 43.2574 8.40089C43.2391 8.49767 43.1843 8.5837 43.1043 8.64115L38.8876 11.6756L43.1595 9.21001C43.2448 9.16377 43.3445 9.15162 43.4385 9.17601C43.5324 9.20041 43.6136 9.25954 43.6657 9.34146C43.7177 9.42339 43.7368 9.52201 43.719 9.61742C43.7011 9.71284 43.6478 9.79794 43.5697 9.85555L41.8171 11.0761L43.3857 10.1714C43.4681 10.1248 43.5649 10.1105 43.6574 10.131C43.7498 10.1516 43.8314 10.2057 43.8864 10.2828C43.9413 10.3599 43.9658 10.4547 43.955 10.5488C43.9442 10.6429 43.899 10.7297 43.828 10.7924L40.8403 13.3814L43.4899 11.8481C43.5656 11.8044 43.654 11.7879 43.7404 11.8013C43.8268 11.8147 43.906 11.8573 43.9649 11.9219C44.0238 11.9865 44.0588 12.0693 44.0642 12.1566C44.0695 12.2438 44.0449 12.3303 43.9944 12.4016L43.3527 13.3063L43.4968 13.2235C43.5405 13.1958 43.5892 13.1772 43.6403 13.1688C43.6913 13.1604 43.7435 13.1624 43.7937 13.1747C43.8439 13.187 43.8911 13.2093 43.9325 13.2403C43.9738 13.2714 44.0085 13.3104 44.0344 13.3552C44.0602 13.3999 44.0768 13.4495 44.083 13.5008C44.0892 13.5521 44.085 13.6042 44.0706 13.6538C44.0562 13.7035 44.0319 13.7497 43.9992 13.7897C43.9665 13.8297 43.926 13.8627 43.8802 13.8867L42.2173 14.8504C42.1415 14.8941 42.0532 14.9106 41.9668 14.8972C41.8804 14.8838 41.8012 14.8412 41.7423 14.7766C41.6834 14.712 41.6484 14.6292 41.643 14.5419C41.6377 14.4547 41.6623 14.3682 41.7128 14.2969L42.3545 13.3922L37.7545 16.0471C37.6719 16.0946 37.5746 16.1096 37.4816 16.0892C37.3885 16.0689 37.3064 16.0146 37.2512 15.937C37.1959 15.8594 37.1716 15.764 37.1829 15.6694C37.1941 15.5748 37.2402 15.4878 37.3121 15.4254L40.2968 12.8356L34.3467 16.2726C34.2882 16.3065 34.2218 16.3243 34.1542 16.3239V16.3239Z" fill="#6D4941"/>
<path d="M28.1298 45.5937C28.047 45.5936 27.9664 45.5666 27.9002 45.5169C27.834 45.4672 27.7856 45.3973 27.7624 45.3178C27.7392 45.2383 27.7423 45.1534 27.7714 45.0759C27.8004 44.9983 27.8538 44.9323 27.9236 44.8876L30.7296 43.0928L26.4868 45.54C26.4009 45.5869 26.3002 45.5992 26.2055 45.5743C26.1108 45.5493 26.0292 45.4891 25.9775 45.4059C25.9259 45.3227 25.908 45.2229 25.9275 45.127C25.9471 45.031 26.0027 44.9462 26.0828 44.8899L34.661 39.1767L24.7043 44.9267C24.6177 44.976 24.5154 44.9896 24.4189 44.9647C24.3225 44.9398 24.2395 44.8784 24.1876 44.7934C24.1356 44.7083 24.1188 44.6064 24.1407 44.5093C24.1626 44.4121 24.2215 44.3272 24.3049 44.2727L31.0217 39.9433L24.0887 43.9454C24.0018 43.994 23.8995 44.007 23.8032 43.9815C23.707 43.956 23.6244 43.8941 23.573 43.8088C23.5216 43.7236 23.5054 43.6217 23.5278 43.5246C23.5502 43.4276 23.6095 43.3432 23.6931 43.2891L26.1794 41.7289L23.9814 42.9993C23.8946 43.0501 23.7914 43.0648 23.6939 43.0403C23.5964 43.0157 23.5124 42.9538 23.4601 42.8679C23.4078 42.782 23.3914 42.6791 23.4143 42.5812C23.4372 42.4833 23.4977 42.3983 23.5827 42.3445L29.7352 38.3878L23.9798 41.7105C23.894 41.7569 23.7937 41.7689 23.6994 41.7439C23.6051 41.7189 23.5238 41.6589 23.4722 41.5761C23.4206 41.4933 23.4025 41.3939 23.4216 41.2983C23.4407 41.2026 23.4956 41.1178 23.575 41.0611L32.7045 34.9317L23.9791 39.9694C23.893 40.0193 23.7908 40.0338 23.6943 40.0097C23.5977 39.9857 23.5143 39.9251 23.4616 39.8407C23.4089 39.7562 23.3912 39.6546 23.412 39.5573C23.4329 39.46 23.4908 39.3747 23.5735 39.3193L31.6841 33.8522L23.9783 38.2989C23.8919 38.3471 23.7901 38.3601 23.6943 38.3351C23.5985 38.31 23.5162 38.2489 23.4645 38.1645C23.4127 38.0801 23.3957 37.9789 23.4169 37.8822C23.438 37.7855 23.4958 37.7007 23.5781 37.6457L27.403 35.1632L23.9775 37.1404C23.8915 37.1886 23.7902 37.2019 23.6947 37.1773C23.5992 37.1528 23.5168 37.0924 23.4647 37.0087C23.4125 36.9249 23.3947 36.8244 23.4148 36.7278C23.4349 36.6313 23.4915 36.5462 23.5727 36.4903L28.5714 33.1461L23.9768 35.8034C23.8911 35.8493 23.7911 35.861 23.6971 35.836C23.6031 35.811 23.5222 35.7512 23.4706 35.6687C23.4191 35.5863 23.4008 35.4873 23.4194 35.3919C23.4381 35.2965 23.4924 35.2117 23.5712 35.1548L27.2796 32.6508L25.3322 33.7748C25.2461 33.8246 25.144 33.8391 25.0474 33.8151C24.9509 33.7911 24.8674 33.7304 24.8148 33.646C24.7621 33.5616 24.7443 33.46 24.7652 33.3627C24.7861 33.2654 24.844 33.18 24.9267 33.1246L26.3251 32.1824C26.247 32.1767 26.1726 32.1473 26.1118 32.0981C26.051 32.0489 26.0066 31.9823 25.9848 31.9072C25.9629 31.8321 25.9646 31.7521 25.9895 31.6779C26.0144 31.6038 26.0614 31.539 26.1242 31.4924L27.6974 30.3355C27.6239 30.3328 27.5528 30.309 27.4925 30.267C27.4321 30.225 27.3851 30.1666 27.3571 30.0986C27.3291 30.0307 27.3212 29.9561 27.3343 29.8838C27.3475 29.8114 27.3812 29.7444 27.4314 29.6907L29.1334 27.8568C29.1202 27.841 29.1084 27.8241 29.0981 27.8063C29.0473 27.7182 29.0335 27.6136 29.0598 27.5154C29.0861 27.4172 29.1504 27.3335 29.2384 27.2826L30.2159 26.7183C30.2953 26.6728 30.3885 26.6572 30.4785 26.6744C30.5684 26.6916 30.6493 26.7404 30.7063 26.812C30.7634 26.8836 30.793 26.9733 30.7896 27.0649C30.7863 27.1564 30.7503 27.2437 30.6882 27.311L29.7321 28.3383L32.8755 26.5251C32.9602 26.4777 33.0598 26.4641 33.1541 26.4872C33.2485 26.5104 33.3305 26.5685 33.3837 26.6498C33.4369 26.7311 33.4572 26.8295 33.4405 26.9252C33.4239 27.0209 33.3715 27.1067 33.2941 27.1653L32.154 28.0033L34.7155 26.5267C34.8014 26.4777 34.903 26.4638 34.9989 26.488C35.0949 26.5122 35.1777 26.5725 35.2302 26.6564C35.2827 26.7403 35.3007 26.8412 35.2805 26.938C35.2603 27.0349 35.2034 27.1202 35.1218 27.176L34.5 27.5947L36.3531 26.5213C36.4388 26.4754 36.5387 26.4637 36.6327 26.4887C36.7267 26.5137 36.8076 26.5735 36.8592 26.6559C36.9108 26.7384 36.929 26.8373 36.9104 26.9328C36.8917 27.0282 36.8375 27.113 36.7586 27.1699L33.0434 29.68L38.2268 26.69C38.3129 26.6401 38.415 26.6256 38.5116 26.6497C38.6081 26.6737 38.6916 26.7343 38.7443 26.8188C38.7969 26.9032 38.8147 27.0048 38.7938 27.1021C38.7729 27.1994 38.715 27.2847 38.6324 27.3401L33.6352 30.6835L39.7686 27.1438C39.8551 27.0935 39.9578 27.0791 40.0549 27.1035C40.152 27.128 40.2356 27.1894 40.288 27.2747C40.3403 27.36 40.3572 27.4624 40.3351 27.56C40.313 27.6576 40.2536 27.7427 40.1695 27.7971L36.3515 30.2749L40.8496 27.6767C40.9355 27.6277 41.0371 27.6138 41.133 27.638C41.229 27.6622 41.3118 27.7225 41.3643 27.8064C41.4168 27.8903 41.4348 27.9912 41.4146 28.088C41.3944 28.1849 41.3375 28.2702 41.2559 28.326L33.1407 33.7955L42.1399 28.6005C42.2257 28.5541 42.326 28.5422 42.4203 28.5671C42.5146 28.5921 42.5959 28.6521 42.6475 28.7349C42.6991 28.8177 42.7172 28.9171 42.6981 29.0128C42.679 29.1085 42.6241 29.1933 42.5447 29.2499L33.4213 35.3748L43.2055 29.7252C43.2923 29.6722 43.3967 29.6559 43.4955 29.6799C43.5944 29.7038 43.6796 29.766 43.7326 29.8529C43.7856 29.9397 43.8019 30.044 43.7779 30.1428C43.754 30.2417 43.6918 30.327 43.605 30.3799L37.4525 34.3367L43.8419 30.6483C43.9286 30.6013 44.0302 30.5896 44.1253 30.6155C44.2205 30.6415 44.302 30.7032 44.3529 30.7877C44.4038 30.8723 44.4201 30.9732 44.3984 31.0694C44.3768 31.1657 44.3189 31.2499 44.2367 31.3046L41.745 32.8678L44.2474 31.4234C44.3339 31.3758 44.4354 31.3634 44.5308 31.3888C44.6262 31.4142 44.7081 31.4755 44.7595 31.5597C44.8108 31.644 44.8277 31.7449 44.8066 31.8413C44.7855 31.9377 44.728 32.0223 44.6461 32.0774L37.9293 36.406L44.6607 32.5197C44.7468 32.4707 44.8486 32.457 44.9447 32.4814C45.0407 32.5058 45.1236 32.5665 45.1759 32.6508C45.2282 32.735 45.2458 32.8362 45.225 32.9331C45.2043 33.03 45.1468 33.1152 45.0647 33.1706L36.4849 38.8846L44.9604 33.9917C45.0468 33.9455 45.1477 33.9341 45.2422 33.9598C45.3368 33.9856 45.4179 34.0467 45.4688 34.1304C45.5198 34.2142 45.5367 34.3142 45.5162 34.4101C45.4956 34.5059 45.4391 34.5902 45.3583 34.6457L42.55 36.4404L45.0156 35.0175C45.1011 34.969 45.2019 34.9552 45.2972 34.9789C45.3925 35.0026 45.4752 35.062 45.528 35.1448C45.5808 35.2276 45.5998 35.3276 45.5811 35.424C45.5624 35.5205 45.5073 35.606 45.4273 35.663L38.4944 40.5268L45.0187 36.7609C45.1051 36.7118 45.2071 36.6982 45.3033 36.7228C45.3996 36.7475 45.4825 36.8086 45.5346 36.8932C45.5866 36.9778 45.6039 37.0793 45.5826 37.1763C45.5613 37.2734 45.5031 37.3583 45.4204 37.4134L44.4238 38.0673L45.021 37.7231C45.1053 37.6754 45.2045 37.6614 45.2987 37.6838C45.3929 37.7063 45.4751 37.7636 45.5288 37.8442C45.5825 37.9248 45.6037 38.0227 45.5881 38.1183C45.5726 38.2138 45.5214 38.3 45.445 38.3594L40.7944 41.916L45.0187 39.4757C45.1025 39.4285 45.201 39.4146 45.2946 39.4367C45.3881 39.4587 45.47 39.5152 45.524 39.5948C45.5779 39.6744 45.6 39.7713 45.5857 39.8664C45.5715 39.9615 45.5221 40.0478 45.4473 40.1082L42.7724 42.2165L45.0187 40.9201C45.1024 40.8732 45.2007 40.8594 45.294 40.8814C45.3874 40.9034 45.4692 40.9597 45.5231 41.039C45.577 41.1184 45.5992 41.2151 45.5853 41.31C45.5714 41.405 45.5224 41.4912 45.448 41.5518L44.5495 42.264L45.0187 41.9934C45.0944 41.9493 45.1832 41.9328 45.2697 41.9468C45.3562 41.9608 45.4353 42.0044 45.4933 42.0701C45.5522 42.1345 45.5873 42.2171 45.5929 42.3043C45.5985 42.3914 45.5741 42.4778 45.5239 42.5493L44.5073 43.9952L44.5717 43.9576C44.6593 43.9118 44.7613 43.9016 44.8562 43.9291C44.9512 43.9567 45.0318 44.0198 45.0813 44.1054C45.1308 44.191 45.1453 44.2925 45.1217 44.3885C45.0982 44.4845 45.0385 44.5677 44.9551 44.6208L43.3849 45.5247C43.3093 45.5685 43.2209 45.5851 43.1346 45.5718C43.0482 45.5585 42.9689 45.516 42.91 45.4515C42.851 45.387 42.8158 45.3043 42.8103 45.2171C42.8048 45.1298 42.8293 45.0433 42.8797 44.9719L43.8971 43.526L40.4034 45.54C40.3197 45.5869 40.2214 45.6007 40.128 45.5787C40.0346 45.5567 39.9529 45.5004 39.899 45.4211C39.845 45.3417 39.8228 45.245 39.8367 45.1501C39.8506 45.0551 39.8996 44.9689 39.974 44.9083L40.871 44.1968L38.5457 45.54C38.4619 45.5872 38.3635 45.6011 38.2699 45.579C38.1763 45.557 38.0944 45.5005 38.0404 45.4209C37.9865 45.3413 37.9645 45.2444 37.9787 45.1493C37.9929 45.0542 38.0423 44.9679 38.1172 44.9075L40.7921 42.7992L36.0449 45.54C35.9605 45.5887 35.8608 45.6035 35.766 45.5814C35.6712 45.5593 35.5883 45.5019 35.5343 45.4209C35.4802 45.3399 35.459 45.2414 35.475 45.1453C35.4909 45.0493 35.5428 44.9629 35.6201 44.9037L40.2707 41.3479L33.0089 45.54C32.9226 45.5882 32.8211 45.6013 32.7255 45.5765C32.6299 45.5517 32.5475 45.491 32.4956 45.4069C32.4437 45.3228 32.4262 45.222 32.4469 45.1254C32.4675 45.0288 32.5246 44.9439 32.6064 44.8883L33.603 44.2329L31.3383 45.5362C31.253 45.583 31.1531 45.5957 31.0589 45.5716C30.9646 45.5475 30.883 45.4885 30.8307 45.4065C30.7783 45.3245 30.7591 45.2257 30.7769 45.13C30.7947 45.0344 30.8482 44.9491 30.9266 44.8914L37.8626 40.0269L28.3215 45.54C28.2634 45.5745 28.1973 45.593 28.1298 45.5937Z" fill="#F76031"/>
<path d="M6.21459 45.5936C6.13151 45.5935 6.05072 45.5665 5.98437 45.5165C5.91802 45.4665 5.8697 45.3963 5.8467 45.3165C5.82369 45.2366 5.82724 45.1515 5.85681 45.0739C5.88638 44.9962 5.94037 44.9303 6.01066 44.886L6.54732 44.5479L4.82386 45.54C4.73716 45.5876 4.63538 45.5999 4.53982 45.5743C4.44426 45.5487 4.36231 45.4871 4.31111 45.4024C4.25992 45.3178 4.24344 45.2166 4.26513 45.12C4.28682 45.0235 4.345 44.9391 4.42749 44.8845L5.76609 44.0411L3.17782 45.54C3.13478 45.5661 3.08702 45.5835 3.03725 45.5912C2.98749 45.5988 2.93671 45.5966 2.8878 45.5846C2.83889 45.5727 2.79281 45.5512 2.75221 45.5214C2.7116 45.4917 2.67725 45.4542 2.65112 45.4112C2.625 45.3681 2.6076 45.3204 2.59994 45.2706C2.59227 45.2208 2.59448 45.1701 2.60644 45.1211C2.63059 45.0224 2.693 44.9372 2.77992 44.8845L6.97666 42.2126L1.93889 45.1183C1.85247 45.1721 1.74823 45.1893 1.6491 45.1663C1.54996 45.1432 1.46405 45.0817 1.41027 44.9952C1.35649 44.9088 1.33924 44.8046 1.36232 44.7055C1.38539 44.6063 1.44691 44.5204 1.53332 44.4666L10.189 38.7665L1.11012 44.0066C1.0241 44.053 0.923643 44.0647 0.829265 44.0394C0.734887 44.0142 0.653714 43.9538 0.60233 43.8707C0.550946 43.7876 0.533229 43.6881 0.552799 43.5923C0.572368 43.4966 0.627747 43.412 0.707622 43.3557L9.47752 37.5712L0.981322 42.4771C0.894772 42.524 0.793495 42.5358 0.698475 42.5101C0.603455 42.4844 0.521977 42.4231 0.470924 42.3389C0.419871 42.2547 0.403155 42.1542 0.424241 42.058C0.445328 41.9618 0.502599 41.8775 0.584189 41.8224L4.89362 39.0762L0.983622 41.334C0.897072 41.3809 0.795795 41.3927 0.700775 41.367C0.605755 41.3413 0.524277 41.28 0.473224 41.1958C0.422171 41.1116 0.405455 41.0111 0.426541 40.9149C0.447628 40.8187 0.504899 40.7344 0.586489 40.6793L4.00889 38.5027L0.981322 40.25C0.895236 40.2975 0.794179 40.3101 0.699047 40.2852C0.603915 40.2603 0.521984 40.1999 0.470195 40.1163C0.418407 40.0327 0.400722 39.9324 0.420797 39.8361C0.440872 39.7399 0.497172 39.655 0.578055 39.5991L8.16806 34.5552L0.981322 38.7005C0.894772 38.7474 0.793495 38.7592 0.698475 38.7335C0.603455 38.7078 0.521977 38.6465 0.470924 38.5623C0.419871 38.4781 0.403155 38.3776 0.424241 38.2814C0.445328 38.1852 0.502599 38.1009 0.584189 38.0458L3.09196 36.4465L0.981322 37.6648C0.895627 37.7146 0.793943 37.7294 0.697622 37.7058C0.601302 37.6823 0.517837 37.6224 0.464754 37.5387C0.411672 37.4549 0.3931 37.3539 0.41294 37.2567C0.43278 37.1596 0.489488 37.0739 0.571155 37.0177L8.01856 31.8573L0.981322 35.9206C0.894601 35.974 0.790228 35.9907 0.691165 35.9671C0.592102 35.9436 0.506464 35.8816 0.453089 35.7949C0.399714 35.7081 0.382975 35.6038 0.406555 35.5047C0.430134 35.4056 0.492101 35.32 0.578822 35.2666L2.98999 33.6804L1.02042 34.8158C0.934595 34.8641 0.833486 34.8775 0.738055 34.8532C0.642624 34.829 0.560191 34.7689 0.507843 34.6855C0.455496 34.6021 0.43725 34.5018 0.456888 34.4053C0.476526 34.3088 0.532541 34.2235 0.613322 34.1672L3.50826 32.1854L1.25196 33.4887C1.16663 33.5367 1.0662 33.5502 0.971253 33.5264C0.876305 33.5027 0.794029 33.4435 0.741289 33.3611C0.688549 33.2787 0.66934 33.1792 0.687598 33.083C0.705856 32.9869 0.760199 32.9013 0.839489 32.844L2.87346 31.4088L1.77329 32.0466C1.69097 32.0936 1.59416 32.1085 1.50155 32.0883C1.40893 32.0681 1.32709 32.0143 1.27181 31.9373C1.21654 31.8603 1.19175 31.7655 1.20224 31.6713C1.21274 31.5771 1.25776 31.4901 1.32862 31.4272L3.60332 29.417C3.52791 29.4283 3.45085 29.4163 3.38238 29.3828C3.31391 29.3492 3.25727 29.2956 3.21999 29.2291C3.16916 29.1411 3.15538 29.0365 3.18169 28.9383C3.20801 28.8401 3.27225 28.7563 3.36029 28.7055L6.44612 26.9238C6.52844 26.8768 6.62525 26.8619 6.71786 26.8821C6.81048 26.9023 6.89232 26.9561 6.9476 27.0331C7.00287 27.1101 7.02766 27.2049 7.01717 27.2991C7.00668 27.3933 6.96165 27.4803 6.89079 27.5432L4.72112 29.4538L9.79569 26.5251C9.88085 26.4787 9.98044 26.4662 10.0744 26.4903C10.1684 26.5144 10.2497 26.5732 10.302 26.6549C10.3543 26.7366 10.3737 26.8351 10.3563 26.9305C10.3389 27.0259 10.2859 27.1112 10.2082 27.1691L8.17342 28.6058L11.7768 26.5251C11.8623 26.479 11.9621 26.4671 12.0561 26.4918C12.15 26.5165 12.2311 26.576 12.2829 26.6581C12.3347 26.7403 12.3534 26.8391 12.3351 26.9345C12.3169 27.03 12.2631 27.1149 12.1846 27.1722L9.28969 29.1548L13.8452 26.5251C13.9315 26.4751 14.0339 26.4606 14.1307 26.4849C14.2275 26.5092 14.311 26.5702 14.3635 26.655C14.416 26.7398 14.4333 26.8418 14.4118 26.9392C14.3904 27.0366 14.3318 27.1219 14.2485 27.1768L11.8435 28.7615L15.6822 26.545C15.7678 26.4952 15.8695 26.4804 15.9659 26.504C16.0622 26.5275 16.1456 26.5874 16.1987 26.6711C16.2518 26.7549 16.2704 26.8559 16.2505 26.9531C16.2307 27.0502 16.174 27.1359 16.0923 27.1921L8.64646 32.3533L17.7698 27.0878C17.8566 27.0382 17.9593 27.0245 18.0561 27.0496C18.1529 27.0746 18.236 27.1365 18.2878 27.222C18.3396 27.3075 18.356 27.4099 18.3334 27.5073C18.3108 27.6047 18.2511 27.6894 18.1669 27.7433L15.6714 29.3342L18.3049 27.8139C18.391 27.7663 18.4921 27.7537 18.5872 27.7786C18.6823 27.8035 18.7643 27.864 18.816 27.9476C18.8678 28.0312 18.8855 28.1315 18.8654 28.2277C18.8454 28.324 18.7891 28.4088 18.7082 28.4648L11.1182 33.5125L19.1038 28.9033C19.1468 28.8772 19.1946 28.8598 19.2444 28.8521C19.2941 28.8444 19.3449 28.8467 19.3938 28.8586C19.4427 28.8706 19.4888 28.8921 19.5294 28.9218C19.57 28.9516 19.6044 28.9891 19.6305 29.0321C19.6566 29.0751 19.674 29.1229 19.6817 29.1727C19.6893 29.2224 19.6871 29.2732 19.6752 29.3221C19.6632 29.371 19.6417 29.4171 19.612 29.4577C19.5822 29.4983 19.5447 29.5327 19.5017 29.5588L16.0793 31.7354L19.665 29.6654C19.7519 29.6126 19.8562 29.5965 19.955 29.6207C20.0039 29.6326 20.05 29.6541 20.0906 29.6839C20.1312 29.7137 20.1656 29.7511 20.1917 29.7942C20.2178 29.8372 20.2352 29.885 20.2429 29.9347C20.2505 29.9845 20.2483 30.0353 20.2364 30.0842C20.2244 30.1331 20.2029 30.1792 20.1732 30.2198C20.1434 30.2604 20.1059 30.2947 20.0629 30.3209L15.7519 33.0678L20.2569 30.4673C20.3431 30.4191 20.4446 30.406 20.5402 30.4308C20.6358 30.4556 20.7182 30.5164 20.7701 30.6004C20.822 30.6845 20.8395 30.7853 20.8189 30.8819C20.7982 30.9785 20.7411 31.0635 20.6594 31.119L11.8925 36.8981L21.0833 31.5905C21.1698 31.5387 21.2732 31.523 21.3711 31.5469C21.469 31.5708 21.5536 31.6323 21.6065 31.7181C21.6594 31.8039 21.6764 31.907 21.6538 32.0052C21.6313 32.1035 21.5709 32.1889 21.4858 32.2429L12.8348 37.9423L21.9075 32.7044C21.9944 32.6517 22.0987 32.6356 22.1975 32.6597C22.2464 32.6717 22.2925 32.6932 22.3331 32.723C22.3737 32.7527 22.4081 32.7902 22.4342 32.8332C22.4603 32.8763 22.4777 32.924 22.4854 32.9738C22.493 33.0236 22.4908 33.0743 22.4789 33.1233C22.4669 33.1722 22.4454 33.2182 22.4157 33.2588C22.3859 33.2995 22.3484 33.3338 22.3054 33.3599L18.1117 36.0333L22.494 33.5033C22.5808 33.4546 22.6832 33.4417 22.7795 33.4671C22.8757 33.4926 22.9583 33.5546 23.0097 33.6398C23.0611 33.7251 23.0773 33.827 23.0549 33.924C23.0325 34.021 22.9732 34.1055 22.8896 34.1596L21.5464 35.0029L22.9877 34.1703C23.0308 34.1443 23.0786 34.127 23.1284 34.1194C23.1781 34.1119 23.2289 34.1142 23.2778 34.1263C23.3267 34.1383 23.3727 34.1599 23.4132 34.1898C23.4538 34.2196 23.488 34.2572 23.514 34.3002C23.5401 34.3433 23.5573 34.3911 23.5649 34.4409C23.5725 34.4907 23.5701 34.5414 23.5581 34.5903C23.546 34.6392 23.5244 34.6852 23.4946 34.7257C23.4647 34.7663 23.4272 34.8005 23.3841 34.8266L22.8643 35.1547L23.4608 34.8105C23.5463 34.7614 23.6475 34.7471 23.7433 34.7708C23.8391 34.7944 23.9221 34.854 23.975 34.9373C24.028 35.0205 24.0468 35.121 24.0275 35.2177C24.0083 35.3145 23.9525 35.4001 23.8717 35.4568L16.7938 40.3933L23.552 36.4933C23.6383 36.4464 23.7394 36.4345 23.8343 36.46C23.9292 36.4855 24.0106 36.5464 24.0619 36.6302C24.1131 36.714 24.1303 36.8143 24.1097 36.9104C24.0891 37.0065 24.0325 37.091 23.9514 37.1465L23.6049 37.3711C23.6918 37.3378 23.7878 37.3373 23.8751 37.3696C23.9624 37.4018 24.0349 37.4648 24.0792 37.5466C24.1235 37.6284 24.1365 37.7236 24.1158 37.8143C24.0951 37.905 24.0421 37.9851 23.9668 38.0397L19.8429 40.999L23.552 38.8577C23.6354 38.8107 23.7335 38.7966 23.8268 38.8182C23.9201 38.8399 24.0019 38.8957 24.0561 38.9746C24.1104 39.0536 24.1331 39.1499 24.1198 39.2448C24.1065 39.3397 24.0582 39.4261 23.9844 39.4871L20.3335 42.4426L23.5535 40.5858C23.6377 40.5384 23.7367 40.5245 23.8306 40.547C23.9246 40.5694 24.0066 40.6265 24.0602 40.7068C24.1139 40.7872 24.1353 40.8848 24.1201 40.9802C24.1049 41.0755 24.0542 41.1617 23.9783 41.2213L23.0161 41.9604L23.5528 41.6499C23.6331 41.6041 23.7272 41.589 23.8179 41.6071C23.9085 41.6253 23.9895 41.6756 24.046 41.7488C24.1024 41.822 24.1306 41.9131 24.1252 42.0054C24.1198 42.0977 24.0812 42.1849 24.0166 42.251L22.8275 43.4539L23.5006 43.0652C23.5443 43.0374 23.593 43.0188 23.6441 43.0104C23.6951 43.002 23.7473 43.004 23.7975 43.0163C23.8477 43.0286 23.8949 43.051 23.9363 43.082C23.9776 43.113 24.0123 43.1521 24.0381 43.1968C24.064 43.2416 24.0806 43.2911 24.0868 43.3424C24.093 43.3938 24.0888 43.4458 24.0744 43.4955C24.06 43.5451 24.0357 43.5913 24.003 43.6314C23.9703 43.6714 23.9298 43.7044 23.884 43.7283L20.7406 45.543C20.6603 45.5894 20.5659 45.605 20.4749 45.587C20.3839 45.5691 20.3026 45.5188 20.2458 45.4454C20.1891 45.372 20.1609 45.2806 20.1665 45.188C20.172 45.0955 20.211 45.008 20.276 44.942L21.4667 43.7383L18.341 45.54C18.2567 45.5883 18.1573 45.6029 18.0628 45.5808C17.9682 45.5586 17.8856 45.5015 17.8316 45.4208C17.7776 45.3401 17.7562 45.2419 17.7717 45.1461C17.7873 45.0502 17.8387 44.9638 17.9155 44.9044L18.8784 44.1653L16.4971 45.54C16.4136 45.5878 16.3152 45.6025 16.2214 45.5812C16.1276 45.5598 16.0452 45.504 15.9907 45.4247C15.9361 45.3455 15.9134 45.2486 15.927 45.1533C15.9405 45.0581 15.9894 44.9714 16.064 44.9105L19.7148 41.955L13.5048 45.54C13.4197 45.5881 13.3194 45.6018 13.2244 45.5784C13.1295 45.555 13.0471 45.4962 12.9941 45.414C12.9411 45.3318 12.9215 45.2324 12.9393 45.1363C12.9572 45.0401 13.0111 44.9544 13.0901 44.8967L17.2147 41.9366L10.9733 45.54C10.8869 45.5868 10.7859 45.5988 10.691 45.5733C10.5961 45.5478 10.5146 45.4869 10.4634 45.403C10.4121 45.3192 10.395 45.2189 10.4156 45.1229C10.4361 45.0268 10.4928 44.9423 10.5739 44.8868L10.8476 44.7089L9.40776 45.54C9.32236 45.5873 9.22215 45.6002 9.12756 45.5761C9.03296 45.552 8.95111 45.4928 8.89869 45.4105C8.84628 45.3281 8.82725 45.2289 8.84548 45.133C8.86371 45.0371 8.91784 44.9518 8.99682 44.8944L16.0724 39.9602L6.40626 45.54C6.34821 45.5744 6.28209 45.5929 6.21459 45.5936V45.5936Z" fill="#2CB2B3"/>
<path d="M11.7591 29.4331C11.6838 29.4331 11.6102 29.4109 11.5474 29.3693C11.4846 29.3277 11.4355 29.2686 11.4061 29.1992C11.3768 29.1299 11.3685 29.0534 11.3823 28.9794C11.3961 28.9054 11.4315 28.8371 11.4839 28.783L12.3594 27.8783L10.833 28.76C10.7514 28.8055 10.656 28.8196 10.5647 28.7997C10.4734 28.7798 10.3926 28.7272 10.3373 28.6519C10.282 28.5766 10.2562 28.4837 10.2646 28.3907C10.273 28.2976 10.3151 28.2109 10.383 28.1467L11.6579 26.9867L10.268 27.7894C10.1885 27.8355 10.0951 27.8515 10.0048 27.8345C9.91455 27.8175 9.83336 27.7687 9.77606 27.6969C9.71875 27.6251 9.68913 27.5351 9.69259 27.4433C9.69606 27.3515 9.73237 27.264 9.79492 27.1968L11.0983 25.8014L10.1852 26.3281C10.1209 26.365 10.0474 26.3825 9.97344 26.3785C9.89948 26.3745 9.82827 26.3491 9.76842 26.3055C9.70857 26.2619 9.66264 26.2018 9.63619 26.1326C9.60973 26.0635 9.60389 25.9881 9.61935 25.9157L9.86162 24.7879C9.79367 24.7626 9.73429 24.7185 9.69039 24.6608C9.64649 24.603 9.61986 24.534 9.6136 24.4618C9.60734 24.3895 9.6217 24.317 9.65502 24.2526C9.68833 24.1882 9.73924 24.1345 9.80182 24.0979L10.1852 23.8748C10.2494 23.8377 10.323 23.82 10.3971 23.8239C10.4712 23.8278 10.5426 23.8531 10.6026 23.8968C10.6625 23.9405 10.7086 24.0006 10.735 24.0699C10.7615 24.1392 10.7673 24.2147 10.7517 24.2873L10.5478 25.2333L12.9245 23.861C13.004 23.8144 13.0977 23.798 13.1884 23.8148C13.279 23.8317 13.3606 23.8806 13.4181 23.9527C13.4756 24.0248 13.5051 24.1153 13.5013 24.2074C13.4976 24.2995 13.4607 24.3872 13.3975 24.4544L12.0942 25.849L14.3482 24.5456C14.4298 24.5001 14.5252 24.486 14.6164 24.5059C14.7077 24.5258 14.7886 24.5784 14.8438 24.6537C14.8991 24.729 14.925 24.8219 14.9166 24.915C14.9082 25.008 14.8661 25.0948 14.7982 25.159L13.5271 26.3197L14.352 25.8436C14.432 25.798 14.5258 25.7826 14.6161 25.8005C14.7065 25.8183 14.7874 25.868 14.8441 25.9406C14.9008 26.0132 14.9294 26.1038 14.9248 26.1958C14.9202 26.2878 14.8826 26.375 14.8189 26.4416L13.9434 27.3463L14.25 27.1692C14.2936 27.1436 14.3419 27.1269 14.392 27.1201C14.442 27.1132 14.493 27.1163 14.5419 27.1293C14.5907 27.1422 14.6366 27.1646 14.6767 27.1953C14.7169 27.2261 14.7506 27.2644 14.7759 27.3082C14.8011 27.352 14.8175 27.4003 14.824 27.4504C14.8305 27.5006 14.8271 27.5515 14.8138 27.6003C14.8006 27.6491 14.7778 27.6948 14.7468 27.7347C14.7159 27.7747 14.6773 27.8081 14.6334 27.8331L11.95 29.381C11.8922 29.4151 11.8263 29.4331 11.7591 29.4331Z" fill="#DAAB94"/>
<path d="M2.90338 13.4166C2.82174 13.4165 2.74227 13.3903 2.67655 13.3419C2.61083 13.2935 2.56228 13.2253 2.53799 13.1474C2.51369 13.0694 2.51491 12.9858 2.54147 12.9086C2.56803 12.8314 2.61854 12.7647 2.68565 12.7182L10.2963 7.44736L2.51468 11.9393C2.42916 11.9853 2.32933 11.9972 2.23538 11.9725C2.14142 11.9478 2.06035 11.8884 2.00855 11.8062C1.95675 11.724 1.93808 11.6252 1.95632 11.5298C1.97456 11.4344 2.02835 11.3495 2.10681 11.2922L9.45071 6.26056L2.51468 10.2649C2.42942 10.3135 2.32875 10.3276 2.23342 10.3042C2.13809 10.2808 2.05537 10.2217 2.00229 10.1392C1.94921 10.0566 1.92983 9.95683 1.94813 9.8604C1.96644 9.76396 2.02104 9.67823 2.10068 9.62086L8.33905 5.18799L2.52388 8.54522C2.43843 8.5937 2.33764 8.60752 2.2423 8.58384C2.14695 8.56015 2.06435 8.50076 2.01152 8.41794C1.9587 8.33511 1.93969 8.23516 1.95842 8.13872C1.97715 8.04229 2.03219 7.95672 2.11218 7.89969L5.53305 5.50386L2.69638 7.14222C2.61281 7.19034 2.51417 7.20519 2.42014 7.18382C2.3261 7.16244 2.24358 7.10641 2.18902 7.02689C2.13446 6.94738 2.11188 6.85022 2.12577 6.75479C2.13966 6.65937 2.18901 6.57268 2.26398 6.51202L5.88801 3.59102L3.54431 4.94112C3.4607 4.98778 3.36266 5.00146 3.26947 4.97947C3.17628 4.95748 3.09469 4.90141 3.04076 4.8223C2.98683 4.74318 2.96446 4.64675 2.97805 4.55197C2.99165 4.45719 3.04022 4.37093 3.11421 4.31016L4.57088 3.14712C4.52018 3.11441 4.4781 3.06997 4.44821 3.01756C4.39732 2.9296 4.38343 2.82504 4.40959 2.72686C4.43575 2.62867 4.49983 2.54488 4.58775 2.49392L7.52255 0.800355C7.60616 0.753694 7.7042 0.740013 7.79739 0.762003C7.89058 0.783993 7.97217 0.840063 8.0261 0.91918C8.08003 0.998297 8.1024 1.09473 8.0888 1.18951C8.07521 1.28429 8.02664 1.37055 7.95265 1.43132L7.59001 1.71959L9.77731 0.459955C9.86086 0.412707 9.95908 0.398517 10.0526 0.42019C10.1461 0.441863 10.228 0.497823 10.2823 0.577008C10.3365 0.656194 10.3591 0.752844 10.3455 0.847857C10.3319 0.94287 10.2832 1.02933 10.2089 1.09016L6.58491 4.01039L12.7389 0.459955C12.8242 0.413119 12.9241 0.400459 13.0184 0.424541C13.1126 0.448624 13.1942 0.507647 13.2466 0.589646C13.2989 0.671645 13.3182 0.770485 13.3003 0.86613C13.2825 0.961775 13.229 1.04707 13.1506 1.10472L9.73668 3.49826L14.9975 0.459955C15.0829 0.40989 15.1842 0.39474 15.2804 0.417671C15.3767 0.440602 15.4603 0.499839 15.5138 0.582999C15.5674 0.666159 15.5867 0.766803 15.5678 0.863891C15.5489 0.960979 15.4932 1.04699 15.4123 1.10396L9.17548 5.53452L17.6839 0.621722C17.7695 0.574588 17.8699 0.561907 17.9645 0.586271C18.0591 0.610635 18.1408 0.670205 18.193 0.752811C18.2452 0.835416 18.2638 0.934823 18.2452 1.03072C18.2265 1.12662 18.1719 1.21178 18.0926 1.26879L10.7441 6.30425L18.0006 2.11442C18.0863 2.06455 18.188 2.04983 18.2843 2.07334C18.3806 2.09685 18.4641 2.15677 18.5171 2.24051C18.5702 2.32425 18.5888 2.4253 18.569 2.52245C18.5491 2.61959 18.4924 2.70527 18.4107 2.76149L10.8008 8.03079L18.4199 3.63166C18.5057 3.57947 18.6085 3.56301 18.7063 3.58582C18.8041 3.60863 18.889 3.66888 18.9428 3.75363C18.9966 3.83837 19.015 3.94085 18.9941 4.03904C18.9732 4.13723 18.9146 4.22329 18.8309 4.27872L13.34 8.08982L19.9487 4.27412C20.0342 4.22502 20.1355 4.21079 20.2312 4.23441C20.327 4.25802 20.41 4.31766 20.463 4.40092C20.5159 4.48417 20.5347 4.58463 20.5154 4.68139C20.4962 4.77815 20.4404 4.86377 20.3596 4.92042L15.6515 8.20329L20.9415 5.15196C21.0261 5.10483 21.1255 5.09149 21.2195 5.11462C21.3136 5.13775 21.3954 5.19563 21.4485 5.27663C21.5017 5.35763 21.5222 5.45574 21.5059 5.55123C21.4896 5.64672 21.4378 5.73251 21.3609 5.79136L16.5462 9.36709L21.6898 6.39779C21.7753 6.34785 21.8768 6.33293 21.973 6.35615C22.0693 6.37938 22.1528 6.43895 22.2062 6.52239C22.2595 6.60583 22.2784 6.70667 22.2591 6.80377C22.2397 6.90088 22.1835 6.98672 22.1022 7.04332L20.1342 8.42792L21.9589 7.37529C22.0431 7.32851 22.1419 7.31518 22.2355 7.33795C22.3292 7.36072 22.4108 7.41792 22.4641 7.49815C22.5175 7.57839 22.5387 7.67578 22.5235 7.77093C22.5083 7.86608 22.4578 7.95201 22.3821 8.01162L20.1925 9.68066L22.0248 8.62265C22.1057 8.57536 22.2012 8.55934 22.2931 8.57763C22.385 8.59592 22.467 8.64726 22.5237 8.72193C22.5803 8.7966 22.6076 8.88943 22.6005 8.98288C22.5933 9.07633 22.5522 9.16392 22.4848 9.22909L20.5145 11.1458L22.0294 10.2733C22.103 10.2295 22.1893 10.2121 22.2741 10.2238C22.359 10.2355 22.4373 10.2757 22.4963 10.3377C22.5556 10.3988 22.5929 10.478 22.6022 10.5627C22.6115 10.6474 22.5923 10.7328 22.5477 10.8054L21.8577 11.9255L22.0363 11.8227C22.0799 11.795 22.1287 11.7764 22.1797 11.768C22.2308 11.7596 22.2829 11.7616 22.3332 11.7739C22.3834 11.7862 22.4306 11.8085 22.4719 11.8395C22.5133 11.8706 22.548 11.9096 22.5738 11.9544C22.5997 11.9991 22.6163 12.0487 22.6225 12.1C22.6287 12.1513 22.6245 12.2034 22.6101 12.253C22.5957 12.3027 22.5714 12.3489 22.5387 12.3889C22.5059 12.4289 22.4655 12.4619 22.4196 12.4859L20.93 13.3438C20.8562 13.3862 20.7704 13.4029 20.6861 13.3912C20.6017 13.3794 20.5237 13.3399 20.4643 13.279C20.4049 13.218 20.3675 13.1389 20.358 13.0543C20.3485 12.9697 20.3674 12.8844 20.4117 12.8117L21.1017 11.6909L18.2329 13.3469C18.152 13.3942 18.0565 13.4102 17.9646 13.3919C17.8727 13.3736 17.7907 13.3223 17.734 13.2476C17.6774 13.1729 17.6501 13.0801 17.6572 12.9866C17.6644 12.8932 17.7055 12.8056 17.7729 12.7404L19.744 10.8238L15.3648 13.3538C15.2805 13.4014 15.1813 13.4155 15.0871 13.393C14.9929 13.3705 14.9107 13.3133 14.857 13.2327C14.8033 13.1521 14.7821 13.0542 14.7976 12.9586C14.8132 12.863 14.8643 12.7768 14.9408 12.7174L17.1304 11.0492L13.1338 13.3568C13.0483 13.4068 12.9468 13.4217 12.8505 13.3985C12.7543 13.3752 12.6707 13.3157 12.6174 13.2322C12.5641 13.1488 12.5451 13.0479 12.5645 12.9508C12.5839 12.8537 12.6401 12.7679 12.7213 12.7113L14.6909 11.3252L11.1642 13.3591C11.0796 13.4062 10.9803 13.4196 10.8862 13.3965C10.7921 13.3733 10.7103 13.3154 10.6572 13.2344C10.6041 13.1534 10.5836 13.0553 10.5998 12.9599C10.6161 12.8644 10.6679 12.7786 10.7448 12.7197L15.5633 9.13939L8.25471 13.3561C8.16908 13.4069 8.06703 13.4224 7.97016 13.3993C7.87328 13.3763 7.78919 13.3164 7.73569 13.2324C7.68218 13.1484 7.66346 13.0469 7.6835 12.9493C7.70353 12.8518 7.76074 12.7659 7.84301 12.7098L12.5488 9.42996L5.74158 13.3614C5.65588 13.4113 5.5542 13.426 5.45788 13.4025C5.36156 13.379 5.27809 13.3191 5.22501 13.2353C5.17193 13.1516 5.15336 13.0505 5.1732 12.9534C5.19304 12.8563 5.24974 12.7706 5.33141 12.7144L10.8238 8.90249L3.09505 13.3645C3.03693 13.3986 2.97077 13.4166 2.90338 13.4166V13.4166Z" fill="#7A5047"/>
<path d="M23.6379 35.4966C23.56 35.4965 23.4839 35.4727 23.4199 35.4283C23.3558 35.3839 23.3069 35.321 23.2795 35.2481C23.2521 35.1751 23.2476 35.0956 23.2665 35.02C23.2855 34.9444 23.327 34.8764 23.3856 34.825L24.229 34.0837L23.0843 34.7445C23.0008 34.7918 22.9026 34.806 22.8091 34.7843C22.7156 34.7626 22.6336 34.7067 22.5794 34.6275C22.5251 34.5483 22.5026 34.4516 22.5162 34.3566C22.5297 34.2616 22.5785 34.1752 22.6527 34.1143L25.6833 31.6809L22.057 33.7732C21.9733 33.8225 21.874 33.8383 21.7791 33.8172C21.6843 33.7962 21.6009 33.7399 21.546 33.6597C21.4911 33.5796 21.4686 33.4815 21.4832 33.3854C21.4978 33.2894 21.5483 33.2024 21.6246 33.1422L25.5231 30.0111L20.8986 32.6814C20.8142 32.7305 20.7142 32.7456 20.619 32.7235C20.5239 32.7013 20.4408 32.6438 20.3867 32.5624C20.3326 32.4811 20.3115 32.3822 20.3279 32.286C20.3442 32.1897 20.3967 32.1032 20.4746 32.0443L23.8334 29.4944L19.9172 31.7553C19.8331 31.8043 19.7335 31.8195 19.6385 31.7977C19.5436 31.7759 19.4605 31.7188 19.4062 31.638C19.3518 31.5572 19.3303 31.4588 19.3459 31.3627C19.3615 31.2665 19.4131 31.18 19.4902 31.1205L22.8191 28.5422L18.9045 30.8016C18.8229 30.8453 18.7283 30.8581 18.6381 30.8376C18.5479 30.817 18.4682 30.7645 18.4136 30.6898C18.3591 30.6151 18.3334 30.5231 18.3413 30.4309C18.3492 30.3388 18.3902 30.2525 18.4567 30.1882L20.2622 28.5698L18.1294 29.8003C18.0486 29.8469 17.9535 29.8624 17.8621 29.844C17.7706 29.8255 17.689 29.7744 17.6326 29.7001C17.5762 29.6258 17.5488 29.5335 17.5555 29.4404C17.5623 29.3474 17.6028 29.26 17.6694 29.1946L19.5155 27.3884L17.8633 28.3406C17.7836 28.3861 17.6901 28.4016 17.5999 28.384C17.5097 28.3665 17.4288 28.3171 17.372 28.2449C17.3151 28.1728 17.2861 28.0826 17.2902 27.9908C17.2942 27.899 17.3311 27.8117 17.3941 27.7449L18.2819 26.808C18.2022 26.7983 18.1275 26.7637 18.0684 26.7092C18.0094 26.6547 17.9689 26.583 17.9528 26.5043C17.9367 26.4256 17.9458 26.3438 17.9787 26.2705C18.0116 26.1971 18.0667 26.136 18.1363 26.0958L19.9993 25.0224C20.079 24.9774 20.1721 24.9623 20.2619 24.98C20.3517 24.9976 20.4323 25.0469 20.4889 25.1187C20.5456 25.1906 20.5747 25.2804 20.571 25.3718C20.5672 25.4633 20.5309 25.5504 20.4685 25.6174L19.767 26.358L21.7687 25.2026C21.8496 25.156 21.9446 25.1404 22.0361 25.1589C22.1275 25.1773 22.2091 25.2285 22.2655 25.3028C22.3219 25.3771 22.3493 25.4694 22.3426 25.5625C22.3358 25.6555 22.2953 25.7429 22.2287 25.8083L20.3826 27.6145L23.0736 26.0613C23.1551 26.0175 23.2497 26.0047 23.34 26.0253C23.4302 26.0458 23.5099 26.0983 23.5645 26.173C23.619 26.2477 23.6447 26.3397 23.6368 26.4319C23.6289 26.5241 23.5879 26.6103 23.5213 26.6746L21.7151 28.293L27.3309 25.0523C27.415 25.0043 27.5142 24.9899 27.6085 25.0121C27.7028 25.0342 27.7852 25.0912 27.8392 25.1716C27.8931 25.252 27.9147 25.3498 27.8995 25.4455C27.8843 25.5411 27.8334 25.6274 27.7572 25.6871L24.4252 28.267L28.7186 25.7883C28.803 25.7392 28.903 25.7242 28.9981 25.7463C29.0932 25.7684 29.1764 25.826 29.2305 25.9073C29.2846 25.9886 29.3056 26.0875 29.2893 26.1838C29.2729 26.2801 29.2204 26.3665 29.1425 26.4254L25.7845 28.9746L29.4684 26.8479C29.5519 26.7997 29.6506 26.7849 29.7446 26.8063C29.8387 26.8276 29.9212 26.8837 29.9757 26.9632C30.0303 27.0427 30.0529 27.1399 30.039 27.2353C30.0251 27.3307 29.9757 27.4174 29.9008 27.4781L26 30.6114L29.6148 28.5246C29.6984 28.4773 29.7966 28.4631 29.8901 28.4848C29.9836 28.5065 30.0655 28.5624 30.1198 28.6416C30.174 28.7208 30.1966 28.8174 30.183 28.9125C30.1694 29.0075 30.1207 29.0939 30.0464 29.1548L27.0212 31.5866L27.2305 31.4663C27.3129 31.4191 27.4099 31.4042 27.5026 31.4245C27.5954 31.4447 27.6773 31.4987 27.7325 31.5759C27.7878 31.6531 27.8124 31.7481 27.8017 31.8424C27.7909 31.9367 27.7456 32.0237 27.6744 32.0865L24.761 34.6387C24.7697 34.7131 24.7564 34.7884 24.7227 34.8553C24.6891 34.9222 24.6366 34.9778 24.5717 35.0152L23.8303 35.443C23.7722 35.4779 23.7057 35.4964 23.6379 35.4966Z" fill="#CD4C60"/>
<path d="M19.4089 11.8734C19.3248 11.8731 19.2431 11.8452 19.1764 11.7938C19.1097 11.7425 19.0618 11.6707 19.04 11.5894C19.0182 11.5081 19.0238 11.422 19.0558 11.3442C19.0878 11.2664 19.1446 11.2013 19.2172 11.1589L20.4868 10.4267C20.5745 10.3809 20.6764 10.3707 20.7713 10.3982C20.8663 10.4258 20.9469 10.489 20.9964 10.5746C21.0459 10.6602 21.0604 10.7616 21.0369 10.8576C21.0133 10.9536 20.9536 11.0369 20.8702 11.0899L19.6006 11.8221C19.5424 11.8559 19.4762 11.8736 19.4089 11.8734Z" fill="#EABEA3"/>
<path d="M5.40348 12.4201C5.32827 12.4201 5.25471 12.3979 5.19198 12.3564C5.12925 12.3149 5.08011 12.2559 5.05069 12.1867C5.02126 12.1174 5.01286 12.0411 5.02651 11.9671C5.04017 11.8932 5.07528 11.8248 5.12748 11.7707L5.75232 11.1244C5.67396 11.0931 5.60836 11.0364 5.56602 10.9634C5.51512 10.8754 5.50123 10.7709 5.5274 10.6727C5.55356 10.5745 5.61764 10.4907 5.70555 10.4397L7.36002 9.48448C7.44002 9.43884 7.53378 9.42353 7.62415 9.44135C7.71451 9.45917 7.79544 9.50893 7.85212 9.58153C7.90881 9.65413 7.93745 9.74471 7.93283 9.8367C7.9282 9.92869 7.8906 10.0159 7.82692 10.0825L7.57852 10.3401L12.0965 7.73342C12.1401 7.70568 12.1889 7.68706 12.2399 7.67867C12.2909 7.67028 12.3431 7.67229 12.3933 7.68459C12.4435 7.69689 12.4908 7.71922 12.5321 7.75024C12.5735 7.78126 12.6081 7.82032 12.634 7.86508C12.6599 7.90984 12.6764 7.95937 12.6827 8.01069C12.6889 8.06202 12.6847 8.11407 12.6703 8.16372C12.6559 8.21337 12.6316 8.2596 12.5989 8.29962C12.5661 8.33964 12.5256 8.37262 12.4798 8.39658L5.59668 12.3679C5.5382 12.4025 5.47142 12.4205 5.40348 12.4201Z" fill="#EABEA3"/>
<path d="M11.6978 24.8706C11.618 24.8706 11.5401 24.8457 11.4751 24.7994C11.4101 24.7531 11.3612 24.6876 11.3352 24.6121C11.3092 24.5367 11.3074 24.455 11.3301 24.3784C11.3528 24.3019 11.3987 24.2344 11.4616 24.1852L15.1838 21.2872L9.83555 24.3746C9.74924 24.4246 9.64683 24.439 9.55006 24.4148C9.4533 24.3905 9.3698 24.3295 9.3173 24.2447C9.26481 24.1598 9.24745 24.0579 9.26892 23.9605C9.29039 23.863 9.34899 23.7778 9.43228 23.7229L11.1872 22.5583L8.82661 23.9199C8.74104 23.9691 8.63984 23.9833 8.54405 23.9597C8.44826 23.936 8.36526 23.8764 8.31233 23.7932C8.25939 23.7099 8.24059 23.6094 8.25984 23.5127C8.27909 23.4159 8.33491 23.3303 8.41568 23.2736L14.5666 18.991L7.54091 23.0475C7.45495 23.0965 7.35338 23.1103 7.25745 23.0862C7.16151 23.062 7.07863 23.0016 7.02615 22.9178C6.97367 22.8339 6.95565 22.733 6.97586 22.6361C6.99606 22.5393 7.05294 22.454 7.13458 22.3981L13.0847 18.3723L6.60634 22.1121C6.52106 22.1575 6.42181 22.1689 6.32844 22.1442C6.23508 22.1195 6.15447 22.0605 6.10275 21.9789C6.05102 21.8974 6.03199 21.7993 6.04945 21.7043C6.06692 21.6093 6.11959 21.5244 6.19695 21.4666L13.7471 16.2533L5.75458 20.8632C5.66856 20.9115 5.56726 20.9247 5.47174 20.9001C5.37623 20.8756 5.29385 20.8152 5.24172 20.7315C5.1896 20.6478 5.17174 20.5472 5.19187 20.4506C5.21199 20.3541 5.26855 20.269 5.34978 20.2131L9.35715 17.5236L5.29918 19.8666C5.2138 19.9158 5.11274 19.9303 5.01699 19.9069C4.92123 19.8836 4.83813 19.8243 4.78495 19.7413C4.73177 19.6584 4.7126 19.5581 4.7314 19.4614C4.75021 19.3646 4.80555 19.2788 4.88595 19.2218L11.1603 14.782L4.90665 18.3907C4.82043 18.437 4.71979 18.4486 4.62533 18.423C4.53088 18.3975 4.44976 18.3368 4.3986 18.2534C4.34744 18.17 4.33011 18.0702 4.35016 17.9744C4.37021 17.8787 4.42612 17.7942 4.50644 17.7383L4.86141 17.5083L4.81618 17.5336C4.73016 17.5818 4.62886 17.5951 4.53334 17.5705C4.43783 17.546 4.35545 17.4856 4.30332 17.4019C4.2512 17.3181 4.23334 17.2176 4.25347 17.121C4.27359 17.0245 4.33015 16.9394 4.41138 16.8835L6.15248 15.7166L3.92915 17.0023C3.84407 17.0511 3.74352 17.0655 3.64818 17.0424C3.55284 17.0194 3.46998 16.9606 3.41664 16.8783C3.3633 16.796 3.34354 16.6963 3.36144 16.5999C3.37934 16.5035 3.43352 16.4175 3.51284 16.3598L7.86291 13.2219L2.86885 16.1045C2.78359 16.1532 2.68292 16.1673 2.58759 16.1439C2.49226 16.1205 2.40953 16.0614 2.35646 15.9789C2.30338 15.8963 2.28399 15.7965 2.3023 15.7001C2.3206 15.6037 2.3752 15.5179 2.45484 15.4605L6.23374 12.7672L2.51925 14.9139C2.44011 14.959 2.34752 14.9744 2.25806 14.9574C2.1686 14.9404 2.08811 14.8921 2.03101 14.8211C1.97392 14.7502 1.94393 14.6613 1.94644 14.5702C1.94894 14.4792 1.98377 14.392 2.04468 14.3243L3.18855 13.0693L2.51848 13.4526C2.44427 13.4956 2.35781 13.5124 2.27291 13.5004C2.18802 13.4884 2.1096 13.4483 2.05018 13.3865C1.99076 13.3247 1.95377 13.2448 1.94513 13.1595C1.93649 13.0742 1.95669 12.9884 2.00251 12.916L2.67411 11.8488C2.58513 11.8774 2.48877 11.8725 2.40315 11.835C2.31753 11.7975 2.24855 11.7301 2.20918 11.6453C2.16981 11.5605 2.16277 11.4643 2.18937 11.3747C2.21598 11.2851 2.2744 11.2083 2.35364 11.1588L3.62095 10.4266C3.69516 10.3837 3.78162 10.3669 3.86651 10.3788C3.9514 10.3908 4.02983 10.4309 4.08925 10.4927C4.14867 10.5545 4.18565 10.6345 4.19429 10.7198C4.20294 10.8051 4.18273 10.8908 4.13691 10.9633L3.47298 12.0167L4.93961 11.1733C5.01884 11.1278 5.11173 11.1121 5.20154 11.129C5.29136 11.1458 5.37218 11.1943 5.42943 11.2655C5.48669 11.3367 5.51662 11.4261 5.51382 11.5174C5.51103 11.6088 5.47569 11.6961 5.41418 11.7637L4.27031 13.0156L12.788 8.09825C12.8731 8.05122 12.9729 8.03828 13.0671 8.06205C13.1614 8.08582 13.2431 8.14453 13.2957 8.22628C13.3484 8.30804 13.368 8.40673 13.3505 8.50239C13.3331 8.59804 13.28 8.68351 13.202 8.74148L9.42078 11.4363L14.0208 8.78135C14.1059 8.73252 14.2064 8.71817 14.3017 8.74124C14.3971 8.76431 14.4799 8.82305 14.5333 8.90537C14.5866 8.98769 14.6064 9.08732 14.5885 9.18376C14.5706 9.2802 14.5164 9.36611 14.4371 9.42381L10.0901 12.5595L15.7419 9.29655C15.828 9.24665 15.9302 9.23219 16.0267 9.25622C16.1233 9.28025 16.2067 9.34088 16.2594 9.42531C16.3121 9.50974 16.3298 9.61135 16.309 9.70864C16.2881 9.80594 16.2302 9.8913 16.1475 9.94668L14.4087 11.1112L17.1135 9.54955C17.2 9.49923 17.3028 9.48475 17.3999 9.5092C17.4969 9.53365 17.5806 9.59509 17.6329 9.68038C17.6853 9.76568 17.7022 9.86807 17.6801 9.96568C17.6579 10.0633 17.5985 10.1484 17.5145 10.2027L17.1534 10.4373L17.9691 9.96661C18.0545 9.91571 18.1564 9.9 18.2532 9.9228C18.35 9.9456 18.4342 10.0051 18.4879 10.0888C18.5416 10.1725 18.5607 10.2738 18.5412 10.3713C18.5216 10.4688 18.465 10.5549 18.3831 10.6114L12.1087 15.0511L18.8293 11.1703C18.9153 11.1221 19.0166 11.1088 19.1121 11.1334C19.2077 11.1579 19.29 11.2183 19.3422 11.302C19.3943 11.3858 19.4121 11.4863 19.392 11.5829C19.3719 11.6794 19.3153 11.7645 19.2341 11.8204L15.2252 14.5106L21.5602 10.8529C21.6458 10.8045 21.7468 10.7909 21.8421 10.8149C21.9375 10.8389 22.02 10.8986 22.0726 10.9817C22.1252 11.0648 22.1438 11.165 22.1246 11.2614C22.1055 11.3579 22.0499 11.4433 21.9696 11.4999L14.4187 16.7171L22.0186 12.3295C22.1046 12.2805 22.2062 12.2666 22.3021 12.2908C22.3981 12.315 22.4809 12.3753 22.5334 12.4592C22.5859 12.5431 22.6039 12.644 22.5837 12.7408C22.5635 12.8377 22.5066 12.923 22.425 12.9788L16.4764 17.0031L22.0186 13.8038C22.1042 13.7547 22.2054 13.7405 22.3012 13.7641C22.397 13.7877 22.48 13.8473 22.5329 13.9306C22.5859 14.0138 22.6047 14.1143 22.5854 14.2111C22.5662 14.3078 22.5103 14.3934 22.4296 14.4501L16.2732 18.7365L21.4237 15.7641C21.5099 15.7151 21.6117 15.7014 21.7077 15.7258C21.8038 15.7503 21.8867 15.811 21.9389 15.8952C21.9912 15.9794 22.0088 16.0806 21.9881 16.1775C21.9674 16.2745 21.9099 16.3596 21.8277 16.415L19.7363 17.8035C19.8201 17.7906 19.9058 17.8059 19.98 17.8469C20.0542 17.8879 20.1127 17.9524 20.1463 18.0302C20.18 18.108 20.1869 18.1948 20.1659 18.277C20.145 18.3591 20.0975 18.432 20.0307 18.4843L16.31 21.3815L18.9566 19.8566C19.0393 19.809 19.1367 19.7939 19.2299 19.8143C19.3231 19.8347 19.4054 19.8892 19.4606 19.967C19.5158 20.0448 19.54 20.1404 19.5284 20.2351C19.5169 20.3299 19.4705 20.4169 19.3982 20.4791L17.5152 22.0991C17.5932 22.112 17.6652 22.1486 17.7215 22.204C17.7778 22.2594 17.8157 22.3308 17.8298 22.4085C17.844 22.4862 17.8338 22.5664 17.8007 22.6381C17.7676 22.7098 17.7132 22.7695 17.6448 22.809L14.7108 24.5026C14.6282 24.5493 14.5313 24.5638 14.4387 24.5431C14.3461 24.5225 14.2644 24.4683 14.2095 24.391C14.1545 24.3136 14.1302 24.2186 14.1413 24.1244C14.1523 24.0302 14.1979 23.9434 14.2692 23.8808L15.7933 22.5637L11.8833 24.8192C11.827 24.8522 11.763 24.8699 11.6978 24.8706V24.8706Z" fill="#EABEA3"/>
<path d="M33.8583 29.4001C33.7814 29.4003 33.7063 29.3774 33.6426 29.3343C33.5789 29.2912 33.5297 29.23 33.5012 29.1586C33.4728 29.0871 33.4665 29.0088 33.4831 28.9338C33.4998 28.8587 33.5386 28.7904 33.5946 28.7377L34.1527 28.2095L33.1162 28.8075C33.0334 28.8555 32.9356 28.8707 32.8421 28.8503C32.7486 28.8299 32.6662 28.7752 32.6109 28.6971C32.5557 28.6187 32.5318 28.5225 32.5441 28.4274C32.5563 28.3323 32.6036 28.2453 32.6769 28.1834L33.2833 27.6697L32.5994 28.0638C32.5196 28.11 32.4258 28.1258 32.3352 28.1083C32.2446 28.0909 32.1634 28.0414 32.1063 27.9689C32.0493 27.8964 32.0203 27.8058 32.0247 27.7137C32.0291 27.6215 32.0666 27.5341 32.1302 27.4673L33.7149 25.809L32.4116 26.5596C32.3314 26.6059 32.2372 26.6215 32.1464 26.6038C32.0556 26.586 31.9742 26.5359 31.9174 26.4629C31.8606 26.3898 31.8322 26.2986 31.8373 26.2062C31.8425 26.1138 31.8809 26.0264 31.9455 25.9601L32.1992 25.6994C32.1181 25.6955 32.0403 25.6653 31.9777 25.6135C31.9174 25.5643 31.8735 25.4979 31.8518 25.4231C31.8302 25.3484 31.8318 25.2688 31.8565 25.1949L32.0198 24.7058C31.9657 24.6726 31.9207 24.6265 31.8887 24.5716C31.8634 24.5281 31.8469 24.48 31.8401 24.4301C31.8334 24.3801 31.8365 24.3294 31.8494 24.2807C31.8623 24.232 31.8847 24.1863 31.9152 24.1462C31.9458 24.1062 31.9839 24.0725 32.0275 24.0472L32.4108 23.8234C32.4782 23.7841 32.556 23.7662 32.6337 23.7723C32.7115 23.7783 32.7856 23.8079 32.8461 23.8572C32.9065 23.9064 32.9506 23.9729 32.9723 24.0479C32.9939 24.1228 32.9923 24.2025 32.9674 24.2765L32.8992 24.4796L34.0492 23.8149C34.1294 23.7687 34.2236 23.753 34.3144 23.7708C34.4053 23.7886 34.4866 23.8386 34.5434 23.9117C34.6002 23.9848 34.6287 24.0759 34.6235 24.1683C34.6184 24.2607 34.5799 24.3482 34.5153 24.4145L34.4195 24.5134L35.6416 23.808C35.7214 23.7624 35.815 23.747 35.9052 23.7647C35.9955 23.7823 36.0764 23.8318 36.1332 23.9041C36.19 23.9765 36.2189 24.0668 36.2146 24.1586C36.2104 24.2505 36.1732 24.3377 36.11 24.4045L34.5253 26.0628L36.5853 24.8783C36.6683 24.8301 36.7663 24.8148 36.86 24.8353C36.9537 24.8558 37.0363 24.9108 37.0915 24.9893C37.1467 25.0678 37.1704 25.1641 37.1581 25.2592C37.1457 25.3544 37.0981 25.4414 37.0246 25.5031L36.4182 26.0168L36.5853 25.921C36.6665 25.8753 36.7616 25.8607 36.8528 25.88C36.9439 25.8993 37.025 25.9511 37.0807 26.0258C37.1364 26.1005 37.163 26.1929 37.1555 26.2858C37.148 26.3787 37.1069 26.4657 37.04 26.5305L36.4826 27.0587L36.5186 27.0388C36.6063 26.9929 36.7082 26.9827 36.8031 27.0103C36.8981 27.0378 36.9787 27.101 37.0282 27.1866C37.0777 27.2722 37.0922 27.3736 37.0687 27.4696C37.0451 27.5657 36.9854 27.6489 36.902 27.7019L34.05 29.348C33.9919 29.3822 33.9257 29.4002 33.8583 29.4001Z" fill="#925C4C"/>
<path d="M40.8764 13.4082C40.7922 13.4079 40.7105 13.3799 40.6439 13.3286C40.5772 13.2773 40.5293 13.2054 40.5075 13.1242C40.4857 13.0429 40.4912 12.9567 40.5233 12.8789C40.5553 12.8011 40.612 12.736 40.6847 12.6937L41.9566 11.9592C42.0442 11.9134 42.1462 11.9032 42.2411 11.9307C42.3361 11.9583 42.4167 12.0214 42.4662 12.107C42.5157 12.1926 42.5302 12.294 42.5066 12.3901C42.4831 12.4861 42.4234 12.5693 42.34 12.6224L41.0681 13.3568C41.0099 13.3907 40.9437 13.4084 40.8764 13.4082Z" fill="#A9725E"/>
<path d="M32.8693 10.81C32.7849 10.81 32.7029 10.7821 32.6359 10.7307C32.569 10.6794 32.5209 10.6073 32.499 10.5258C32.4772 10.4443 32.4828 10.3579 32.5151 10.2799C32.5474 10.202 32.6045 10.1368 32.6776 10.0947L34.73 8.90786C34.7736 8.88012 34.8224 8.8615 34.8734 8.85311C34.9244 8.84471 34.9766 8.84673 35.0268 8.85903C35.077 8.87133 35.1243 8.89366 35.1656 8.92468C35.207 8.9557 35.2416 8.99476 35.2675 9.03952C35.2934 9.08428 35.3099 9.13381 35.3162 9.18513C35.3224 9.23645 35.3182 9.28851 35.3038 9.33816C35.2894 9.38781 35.2651 9.43404 35.2323 9.47406C35.1996 9.51407 35.1591 9.54706 35.1133 9.57102L33.064 10.7548C33.0052 10.7903 32.938 10.8093 32.8693 10.81Z" fill="#A9725E"/>
<path d="M33.9633 24.8715C33.8842 24.8714 33.807 24.8468 33.7423 24.8012C33.6777 24.7555 33.6288 24.6909 33.6023 24.6163C33.5759 24.5417 33.5732 24.4607 33.5946 24.3845C33.6159 24.3083 33.6604 24.2406 33.7218 24.1907L37.26 21.3356L32.0819 24.3256C31.9957 24.3768 31.8928 24.3922 31.7953 24.3684C31.6979 24.3447 31.6136 24.2837 31.5606 24.1985C31.5077 24.1133 31.4902 24.0107 31.512 23.9128C31.5338 23.8149 31.593 23.7294 31.6771 23.6747L33.1606 22.6888L31.142 23.851C31.0569 23.8991 30.9565 23.9129 30.8616 23.8895C30.7666 23.8661 30.6842 23.8072 30.6312 23.725C30.5782 23.6428 30.5587 23.5435 30.5765 23.4474C30.5944 23.3512 30.6483 23.2655 30.7272 23.2078L37.0591 18.6776L29.8486 22.8406C29.7624 22.8918 29.6595 22.9072 29.562 22.8834C29.4646 22.8596 29.3803 22.7986 29.3274 22.7134C29.2744 22.6282 29.2569 22.5257 29.2787 22.4278C29.3005 22.3298 29.3597 22.2444 29.4438 22.1897L33.363 19.583L29.1425 22.0195C29.0574 22.0676 28.9571 22.0813 28.8621 22.0579C28.7672 22.0345 28.6848 21.9757 28.6318 21.8935C28.5788 21.8113 28.5592 21.7119 28.577 21.6158C28.5949 21.5196 28.6488 21.4339 28.7278 21.3762L33.9779 17.6096L28.4341 20.8104C28.3478 20.8605 28.2454 20.8749 28.1487 20.8506C28.0519 20.8264 27.9684 20.7654 27.9159 20.6805C27.8634 20.5957 27.846 20.4937 27.8675 20.3963C27.889 20.2989 27.9476 20.2137 28.0309 20.1588L29.6363 19.09L28.1183 19.9671C28.0324 20.0169 27.9305 20.0315 27.8341 20.0077C27.7376 19.984 27.6542 19.9237 27.6014 19.8396C27.5485 19.7555 27.5303 19.6542 27.5506 19.557C27.571 19.4598 27.6283 19.3743 27.7104 19.3185L31.0071 17.0683L27.8791 18.8738C27.7934 18.9222 27.6925 18.9358 27.5971 18.9118C27.5017 18.8878 27.4192 18.8281 27.3667 18.745C27.3141 18.6619 27.2954 18.5617 27.3146 18.4653C27.3338 18.3688 27.3893 18.2834 27.4697 18.2268L31.0163 15.7734L27.3424 17.8948C27.2564 17.9438 27.1549 17.9576 27.0589 17.9335C26.963 17.9093 26.8801 17.849 26.8276 17.7651C26.7752 17.6812 26.7571 17.5803 26.7773 17.4835C26.7976 17.3866 26.8544 17.3013 26.9361 17.2454L29.0452 15.8171L26.3112 17.3949C26.2259 17.4442 26.1248 17.4586 26.029 17.4353C25.9333 17.412 25.8502 17.3527 25.797 17.2697C25.7438 17.1867 25.7247 17.0864 25.7435 16.9897C25.7623 16.893 25.8176 16.8072 25.898 16.7502L29.7467 14.03L25.6419 16.3998C25.5633 16.4449 25.4713 16.4607 25.3821 16.4444C25.2929 16.4281 25.2124 16.3807 25.1549 16.3107C25.0973 16.2406 25.0665 16.1525 25.0678 16.0618C25.0691 15.9712 25.1025 15.884 25.162 15.8156L26.3082 14.5046L25.517 14.9646C25.4428 15.0072 25.3565 15.0237 25.2718 15.0116C25.1871 14.9994 25.1089 14.9593 25.0497 14.8976C24.9904 14.8359 24.9535 14.7561 24.9449 14.671C24.9362 14.5859 24.9562 14.5003 25.0018 14.4279L25.6603 13.3968C25.5771 13.4218 25.4879 13.4182 25.407 13.3865C25.3261 13.3548 25.2582 13.2969 25.2141 13.222C25.1635 13.1341 25.1497 13.0297 25.1759 12.9317C25.202 12.8337 25.266 12.7501 25.3537 12.6991L26.6263 11.9646C26.7005 11.9224 26.7867 11.9062 26.8712 11.9185C26.9556 11.9308 27.0336 11.9709 27.0926 12.0325C27.1517 12.0942 27.1885 12.1737 27.1972 12.2587C27.206 12.3436 27.1861 12.429 27.1408 12.5013L26.4937 13.5156L27.9274 12.6876C28.006 12.6425 28.098 12.6266 28.1872 12.643C28.2764 12.6593 28.3569 12.7067 28.4144 12.7767C28.472 12.8467 28.5028 12.9349 28.5015 13.0256C28.5002 13.1162 28.4668 13.2034 28.4073 13.2718L27.2611 14.5836L36.5577 9.2169C36.6429 9.16944 36.743 9.15625 36.8376 9.18C36.9322 9.20376 37.0142 9.26269 37.0669 9.34477C37.1196 9.42686 37.139 9.52594 37.1211 9.62183C37.1033 9.71772 37.0496 9.80322 36.971 9.8609L33.12 12.5772L37.8994 9.8172C37.9852 9.77018 38.0857 9.75773 38.1803 9.78238C38.275 9.80704 38.3566 9.86694 38.4085 9.94983C38.4604 10.0327 38.4787 10.1323 38.4596 10.2282C38.4405 10.3241 38.3855 10.4091 38.3057 10.4658L36.1951 11.8956L38.719 10.439C38.8046 10.3906 38.9055 10.377 39.0009 10.401C39.0963 10.425 39.1788 10.4847 39.2314 10.5678C39.284 10.6509 39.3026 10.751 39.2834 10.8475C39.2642 10.944 39.2087 11.0294 39.1284 11.086L35.5879 13.5394L39.4688 11.2984C39.5547 11.2459 39.6579 11.2293 39.756 11.2523C39.8541 11.2753 39.9392 11.336 39.9929 11.4212C40.0466 11.5064 40.0646 11.6094 40.043 11.7078C40.0214 11.8062 39.9619 11.8921 39.8774 11.947L36.5746 14.1995L40.0024 12.2207C40.0887 12.1707 40.1911 12.1562 40.2879 12.1805C40.3846 12.2047 40.4681 12.2658 40.5206 12.3506C40.5731 12.4354 40.5905 12.5374 40.569 12.6348C40.5475 12.7322 40.4889 12.8175 40.4056 12.8724L38.8087 13.9327L40.3198 13.0602C40.4049 13.0121 40.5052 12.9983 40.6002 13.0217C40.6951 13.0452 40.7775 13.104 40.8305 13.1862C40.8835 13.2684 40.9031 13.3677 40.8853 13.4639C40.8674 13.56 40.8135 13.6457 40.7345 13.7034L35.4806 17.4724L43.3772 12.9153C43.4633 12.8671 43.5646 12.8539 43.6601 12.8784C43.7556 12.9029 43.838 12.9633 43.8901 13.0471C43.9422 13.1308 43.9601 13.2314 43.9399 13.3279C43.9198 13.4244 43.8633 13.5095 43.782 13.5654L39.8667 16.1767L43.4876 14.086C43.5728 14.0379 43.6731 14.0241 43.768 14.0475C43.863 14.071 43.9454 14.1298 43.9984 14.212C44.0514 14.2942 44.071 14.3935 44.0531 14.4897C44.0353 14.5858 43.9814 14.6715 43.9024 14.7292L37.5667 19.2564L43.2653 15.9666C43.3515 15.9176 43.4533 15.9039 43.5493 15.9283C43.6454 15.9528 43.7282 16.0135 43.7805 16.0977C43.8328 16.1819 43.8504 16.2831 43.8297 16.38C43.809 16.4769 43.7515 16.5621 43.6693 16.6175L41.3348 18.17C41.4119 18.1748 41.4858 18.2028 41.5467 18.2503C41.6076 18.2978 41.6527 18.3626 41.6762 18.4362C41.6996 18.5098 41.7003 18.5888 41.6781 18.6628C41.6559 18.7367 41.6119 18.8023 41.5518 18.8508L38.0198 21.7051L40.5068 20.2692C40.591 20.219 40.6912 20.2029 40.7868 20.2243C40.8825 20.2457 40.9663 20.3029 41.0211 20.3842C41.0758 20.4654 41.0974 20.5646 41.0813 20.6613C41.0652 20.7579 41.0128 20.8448 40.9346 20.904L39.7486 21.8293C39.8198 21.8515 39.883 21.894 39.9304 21.9516C39.9778 22.0092 40.0074 22.0793 40.0155 22.1535C40.0237 22.2276 40.01 22.3025 39.9762 22.369C39.9424 22.4355 39.89 22.4906 39.8253 22.5278L36.064 24.699C35.98 24.7476 35.8806 24.7626 35.7859 24.7408C35.6913 24.719 35.6085 24.6621 35.5541 24.5816C35.4998 24.5011 35.4781 24.403 35.4933 24.3071C35.5085 24.2112 35.5596 24.1246 35.6362 24.0649L36.1299 23.6816L34.1542 24.8216C34.0962 24.8549 34.0303 24.8721 33.9633 24.8715Z" fill="#A9725E"/>
<path d="M0.383338 38.0919C0.131871 42.7685 -0.660095 46.4048 5.58287 45.6581H15.1976C17.8986 45.5178 22.2103 46.8411 23.736 43.9086C25.0286 46.713 28.9746 45.5768 31.451 45.6642H40.3949C41.8217 45.6642 43.5513 45.9517 44.7043 44.9091C46.0997 43.6479 45.6067 41.0573 45.6067 39.4274C46.2346 32.9353 44.5625 27.2474 37.2546 26.4332C37.2546 25.6665 37.2761 24.8891 37.2324 24.1332C38.4891 23.638 39.5804 22.7979 40.3807 21.7097C41.1809 20.6215 41.6576 19.3294 41.7557 17.9822C43.9913 17.6226 44.4115 15.1041 44.0297 13.2289C43.9208 9.15021 42.4963 6.08277 39.4343 4.52414C39.616 -1.06563 29.2115 -0.878561 29.5443 4.52414C26.4324 6.12417 25.047 9.30431 24.9604 13.455C24.9139 13.6074 24.8945 13.7667 24.9029 13.9258C24.6399 15.6592 25.1513 17.8358 27.2167 18.0144C27.2569 19.3894 27.7106 20.7205 28.5184 21.8339C29.3262 22.9474 30.4507 23.7916 31.7454 24.2566C31.7408 24.9918 31.7216 25.7317 31.7454 26.4669C31.1321 26.5089 30.5245 26.6116 29.9314 26.7736C28.7048 24.3823 25.4418 24.5556 23.7636 26.3136C22.1168 24.5303 18.8815 24.4184 17.6149 26.6969C16.7321 26.4962 15.8293 26.3972 14.9239 26.4017C14.9738 25.7455 14.9569 25.0677 14.9477 24.4521C16.436 23.9114 17.7326 22.9454 18.6763 21.6739C19.6201 20.4025 20.1695 18.8817 20.2561 17.3006C22.7324 17.0906 22.6972 14.2079 22.5645 12.305C22.6174 8.16044 22.4994 3.87937 17.7437 3.42857C20.8779 -0.455361 13.6352 0.256873 10.7203 0.313606C7.59 0.374939 4.7702 1.48661 3.0958 4.28187C1.62534 6.72984 1.95807 9.59411 1.9458 12.3196C1.87987 14.339 1.8768 16.8529 4.26804 17.2661C4.35556 18.8556 4.90512 20.385 5.84931 21.6667C6.79349 22.9483 8.09123 23.9265 9.58334 24.4812C9.58334 25.1298 9.56954 25.7846 9.57874 26.4309C2.74927 26.6678 0.383338 31.9447 0.383338 38.0919ZM34.4663 1.24511C36.1154 1.24511 38.5672 2.29621 38.7481 4.19984C37.3712 3.65816 35.9029 3.38667 34.4233 3.40021V3.38104C32.9951 3.4044 31.5823 3.68058 30.2504 4.19677C30.3654 2.28394 32.8532 1.24357 34.4663 1.24511ZM34.4003 4.29337C40.0507 4.49347 42.757 7.42061 43.2584 12.1617C42.8559 11.9152 42.377 11.8249 41.9123 11.9077C41.4477 11.9904 41.0295 12.2406 40.7368 12.6109C39.8452 10.3922 37.4578 8.60434 35.0428 8.81517C33.8008 8.92327 32.7957 10.0173 31.8496 10.7318L28.6672 13.1384C28.5708 12.8521 28.4061 12.5936 28.1874 12.3852C27.9687 12.1768 27.7026 12.0248 27.412 11.9423C27.1214 11.8598 26.8151 11.8493 26.5195 11.9117C26.2239 11.9741 25.948 12.1075 25.7155 12.3004C26.1387 7.50494 28.7814 4.50344 34.4003 4.29337ZM28.0017 17.4701C28.0032 17.4096 27.9807 17.351 27.9393 17.3069C27.8978 17.2628 27.8406 17.2369 27.7802 17.2347C27.2299 17.2337 26.7024 17.0149 26.313 16.6262C25.9235 16.2375 25.7038 15.7104 25.7017 15.1601C25.6833 14.6878 25.6964 14.2102 25.7017 13.7372C25.7884 12.1463 27.8883 12.5504 27.9649 13.9672C27.9626 13.996 27.9662 14.0251 27.9755 14.0525C27.9848 14.0799 27.9996 14.1052 28.019 14.1267C28.0383 14.1482 28.0619 14.1656 28.0882 14.1777C28.1145 14.1898 28.143 14.1964 28.1719 14.1972C30.1354 13.2772 31.8749 10.8622 33.9564 10.0081C36.5715 8.74771 39.7716 11.3352 40.2316 13.9633C40.2424 14.0146 40.2662 14.0623 40.3007 14.1017C40.3352 14.1412 40.3792 14.1711 40.4286 14.1888C40.478 14.2064 40.531 14.211 40.5827 14.2023C40.6344 14.1936 40.683 14.1717 40.7238 14.1389C40.8048 14.1029 40.8757 14.0473 40.93 13.9772C40.9843 13.9071 41.0204 13.8246 41.0351 13.7372C41.1217 12.1463 43.2216 12.5504 43.2983 13.9672C43.4179 15.3832 43.2699 17.2056 41.4521 17.2339C41.3365 17.2528 41.23 17.3082 41.1483 17.3921C41.0666 17.4761 41.014 17.584 40.9983 17.7001C40.4271 26.3419 28.4265 26.0207 28.0017 17.4701ZM36.3584 24.4253C36.4098 26.0207 36.6911 28.4978 34.651 28.7592C32.328 29.0567 32.5987 26.1296 32.6431 24.5142C33.8709 24.7811 35.1448 24.7507 36.3584 24.4253V24.4253ZM31.8197 27.2389C32.3326 30.0971 36.6789 30.2596 37.1864 27.3156C44.9397 28.1428 44.8592 35.2123 44.8592 41.3234C44.8592 44.2436 43.1051 44.8033 41.0044 44.8615V36.7349C41.0044 36.1346 40.2607 36.383 40.2607 36.8637V44.8638C36.514 44.594 32.6102 45.3031 28.7186 45.0601V36.8338C28.7186 36.3071 28.0132 36.1652 28.0132 36.7663V45.0034C26.2361 44.939 24.6276 44.0067 24.2566 42.2909C24.6445 40.0837 24.2067 37.3076 24.1592 35.4515L29.3672 30.5402C29.7467 30.1338 30.0205 29.6402 30.1644 29.103C30.3082 28.5658 30.3177 28.0015 30.1921 27.4597C30.7253 27.3344 31.2693 27.2605 31.8167 27.2389H31.8197ZM21.9635 25.9003C22.7462 26.0215 23.368 27.6759 24.1592 27.0289C26.3894 24.1079 31.3505 27.0227 28.5844 30.1722L23.7667 34.7155L19.9441 31.1121C19.1774 30.393 18.3026 29.7482 18.1577 28.6266C17.884 26.5183 19.9801 25.2134 21.9635 25.9003ZM2.6496 8.37281C3.03294 3.86864 6.08197 1.42527 10.3339 1.21981C11.9117 1.42757 20.0867 0.125006 16.6857 3.46921C15.4821 5.57677 21.9213 1.95581 21.8707 10.8852C21.6947 10.7067 21.483 10.5673 21.2495 10.4762C21.016 10.385 20.7659 10.3441 20.5156 10.3561C20.2652 10.3681 20.0201 10.4328 19.7964 10.5459C19.5727 10.659 19.3754 10.8179 19.2173 11.0124C18.597 9.52894 16.9732 9.30354 15.5725 9.08197C14.5973 8.87049 13.681 8.44583 12.8892 7.83844C12.7036 7.68164 12.4691 7.59454 12.2261 7.59216C11.9831 7.58978 11.7469 7.67227 11.5583 7.82541C9.79494 9.62247 6.28744 8.51541 5.24017 11.0707C5.08819 10.8786 4.89968 10.7184 4.68551 10.5994C4.47135 10.4805 4.23575 10.405 3.99231 10.3775C3.74887 10.35 3.50239 10.371 3.26708 10.4391C3.03176 10.5073 2.81227 10.6214 2.62124 10.7748C2.58575 9.97422 2.59522 9.1723 2.6496 8.37281V8.37281ZM4.9542 16.8828C4.9542 16.6865 4.7679 16.4144 4.55477 16.4144C2.7554 16.2825 2.6542 14.8366 2.6542 13.4328C2.63044 13.0734 2.63044 12.7128 2.6542 12.3533C2.8267 11.0983 4.84534 10.5846 5.01247 12.2475C5.00808 12.3021 5.01483 12.357 5.03229 12.4089C5.04976 12.4607 5.07758 12.5085 5.11407 12.5493C5.15057 12.5901 5.19497 12.6231 5.24458 12.6462C5.2942 12.6693 5.348 12.6821 5.4027 12.6838C5.58287 12.706 5.75154 12.5864 5.72087 12.2828C5.72087 10.5195 7.4681 10.3209 8.75917 10.0395C9.93624 9.8269 11.0464 9.33907 11.9991 8.61584C12.0822 8.53689 12.1917 8.49179 12.3063 8.48938C12.4209 8.48697 12.5322 8.52742 12.6186 8.60281C13.5734 9.32685 14.6851 9.81636 15.8639 10.0319C17.1726 10.3224 18.8125 10.4965 18.8125 12.2475C18.8083 12.3015 18.815 12.3558 18.8321 12.4072C18.8492 12.4586 18.8764 12.506 18.9121 12.5467C18.9478 12.5875 18.9913 12.6206 19.0401 12.6443C19.0888 12.6679 19.1417 12.6816 19.1958 12.6845C19.3491 12.7244 19.4956 12.6585 19.5216 12.3978C19.5195 12.0933 19.635 11.7997 19.844 11.5783C20.053 11.3568 20.3394 11.2245 20.6436 11.209C20.9477 11.1935 21.2461 11.2959 21.4765 11.495C21.707 11.694 21.8518 11.9743 21.8807 12.2774C21.8991 13.8959 22.136 16.4013 19.8298 16.4305C19.7018 16.422 19.5937 16.5071 19.5814 16.7325C19.5584 17.859 19.2804 18.9656 18.7684 19.9693C18.2564 20.9729 17.5236 21.8475 16.6252 22.5274C15.7267 23.2073 14.6859 23.6747 13.5808 23.8947C12.4758 24.1146 11.3353 24.0814 10.245 23.7974C10.2064 23.7729 10.1608 23.7621 10.1154 23.7667C8.63544 23.3168 7.3373 22.4071 6.40926 21.1696C5.48122 19.9321 4.97156 18.4311 4.9542 16.8843V16.8828ZM12.3142 24.9826C12.9494 24.9476 13.5793 24.8477 14.1941 24.6844C14.2324 26.3749 14.4164 29.2407 11.8994 28.6465C10.1553 28.2356 10.268 26.2476 10.3301 24.7143C10.9764 24.8889 11.6425 24.9796 12.3119 24.9842L12.3142 24.9826ZM9.63087 27.2673C9.71435 27.8939 10.0223 28.469 10.4976 28.8858C10.9729 29.3026 11.5832 29.5328 12.2154 29.5338C12.8476 29.5347 13.4586 29.3063 13.9351 28.8909C14.4116 28.4755 14.7213 27.9013 14.8066 27.275C15.6381 27.2686 16.4675 27.3565 17.2791 27.5372C16.6804 29.5987 18.7243 31.1505 20.0913 32.3465L23.3833 35.4507C23.3726 37.3674 22.8804 40.1274 23.2737 42.4005C23.0884 43.2105 22.6074 43.9222 21.9248 44.3961C21.2423 44.8701 20.4074 45.0721 19.5837 44.9627V36.6743C19.5837 36.1491 18.7527 36.4934 18.7527 36.9258V44.942C14.375 44.6599 10.1813 44.8155 5.8167 44.942V36.7387C5.8167 36.2488 4.9197 36.4236 4.9197 36.8644V44.9022C0.216204 44.87 0.963705 39.1499 1.15 35.7267C1.4743 30.7158 4.57317 27.3777 9.6301 27.2688L9.63087 27.2673Z" fill="#262626"/>
<path d="M15.5886 19.3966C15.9497 18.9581 15.446 18.4858 15.0788 18.9313C14.7423 19.3512 14.3138 19.6883 13.8265 19.9166C13.3391 20.1448 12.8059 20.2582 12.2678 20.2478C11.7298 20.2374 11.2013 20.1036 10.7231 19.8568C10.2449 19.6099 9.82978 19.2566 9.50971 18.8239C9.22451 18.4782 8.59584 19.1467 8.88948 19.5032C9.29813 20.001 9.8139 20.4002 10.3983 20.6709C10.9828 20.9416 11.6208 21.0769 12.2648 21.0666C12.9088 21.0564 13.5421 20.9009 14.1177 20.6117C14.6932 20.3226 15.196 19.9072 15.5886 19.3966V19.3966Z" fill="#262626"/>
<path d="M36.3507 20.8587C36.7341 20.3925 36.0441 20.1441 35.7159 20.542C35.5594 20.714 35.3662 20.8485 35.1506 20.9355C34.935 21.0226 34.7026 21.06 34.4706 21.0449C34.2386 21.0298 34.013 20.9626 33.8105 20.8483C33.608 20.7341 33.4338 20.5757 33.3009 20.3849C33.0119 20.0337 32.3372 20.6586 32.6316 21.0151C32.8647 21.2876 33.1566 21.5036 33.4853 21.6467C33.814 21.7898 34.171 21.8564 34.5292 21.8413C34.8875 21.8263 35.2376 21.73 35.5531 21.5597C35.8687 21.3895 36.1414 21.1498 36.3507 20.8587V20.8587Z" fill="#262626"/>
</g>
<defs>
<clipPath id="clip0_40_83">
<rect width="46" height="46" fill="white"/>
</clipPath>
</defs>
</svg>
