<svg width="33" height="33" viewBox="0 0 33 33" fill="none" xmlns="http://www.w3.org/2000/svg">
<g clip-path="url(#clip0_195_9991)">
<path d="M32.9917 15.0838C32.9876 15.0212 32.9759 14.9607 32.9546 14.9009C32.9471 14.8789 32.9416 14.8576 32.9319 14.8363C32.8989 14.7654 32.8577 14.6994 32.8006 14.6417C32.7999 14.6403 32.7993 14.6396 32.7979 14.6383L28.875 10.7154V6.875C28.875 6.86056 28.8674 6.8475 28.8667 6.83306C28.8626 6.77187 28.8509 6.71275 28.831 6.655C28.8234 6.633 28.8179 6.61237 28.8083 6.59106C28.7746 6.51819 28.7327 6.44875 28.6736 6.38962L22.4861 0.202125C22.4276 0.143688 22.3582 0.10175 22.286 0.0680625C22.264 0.05775 22.2413 0.0515625 22.2179 0.044C22.1623 0.0254375 22.1052 0.01375 22.0468 0.009625C22.0303 0.00825 22.0158 0 22 0H4.8125C4.43231 0 4.125 0.308 4.125 0.6875V10.7154L0.202125 14.6383C0.20075 14.6396 0.20075 14.6403 0.199375 14.6417C0.142312 14.6988 0.101062 14.7654 0.0680625 14.8363C0.0584375 14.8569 0.0529375 14.8789 0.045375 14.9009C0.02475 14.96 0.012375 15.0205 0.00825 15.0838C0.0075625 15.0982 0 15.1106 0 15.125V28.1875C0 28.567 0.307313 28.875 0.6875 28.875H4.125V32.3125C4.125 32.692 4.43231 33 4.8125 33H28.1875C28.5677 33 28.875 32.692 28.875 32.3125V28.875H32.3125C32.6927 28.875 33 28.567 33 28.1875V15.125C33 15.1106 32.9924 15.0982 32.9917 15.0838ZM30.6529 14.4375H28.875V12.6596L30.6529 14.4375ZM26.5279 6.1875H22.6875V2.34713L26.5279 6.1875ZM5.5 1.375H21.3125V6.875C21.3125 7.2545 21.6198 7.5625 22 7.5625H27.5V11V14.4375H5.5V11V1.375ZM4.125 12.6596V14.4375H2.34713L4.125 12.6596ZM27.5 31.625H5.5V28.875H27.5V31.625ZM31.625 27.5H1.375V15.8125H4.8125H28.1875H31.625V27.5Z" fill="#2CB2B3"/>
<path d="M9.74444 17.8503H7.66406V26.125H9.73275C10.8004 26.125 11.6089 25.7647 12.1582 25.0436C12.7076 24.3231 12.9819 23.3083 12.9819 21.9993C12.9819 20.6903 12.7076 19.6714 12.1582 18.9427C11.6082 18.2146 10.8039 17.8503 9.74444 17.8503ZM11.4446 23.2671C11.3552 23.6301 11.2281 23.9319 11.0644 24.1732C10.9008 24.4145 10.7063 24.596 10.4801 24.7163C10.2539 24.8373 10.0084 24.8978 9.74375 24.8978H9.07756V19.0774H9.74375C10.0084 19.0774 10.2539 19.1379 10.4801 19.2582C10.7063 19.3792 10.9008 19.5607 11.0644 19.8021C11.2281 20.0434 11.3546 20.3472 11.4446 20.7137C11.534 21.0801 11.5787 21.5084 11.5787 21.9993C11.5794 22.4826 11.5347 22.9047 11.4446 23.2671Z" fill="#2CB2B3"/>
<path d="M22.7294 19.8371C22.8696 19.5642 23.0449 19.3483 23.2553 19.1881C23.4657 19.0286 23.7111 18.9489 23.9916 18.9489C24.4983 18.9489 24.9108 19.1785 25.2305 19.6384L26.0369 18.6567C25.8108 18.3294 25.5186 18.0785 25.1604 17.9025C24.8022 17.7272 24.3849 17.6399 23.9098 17.6399C23.4499 17.6399 23.0312 17.7471 22.6538 17.9609C22.2756 18.1754 21.9546 18.4752 21.6892 18.8609C21.4245 19.2473 21.2196 19.7065 21.0759 20.24C20.9316 20.7742 20.8594 21.3565 20.8594 21.9876C20.8594 22.6188 20.9316 23.199 21.0759 23.7291C21.2203 24.2591 21.4224 24.7163 21.6837 25.102C21.9449 25.4884 22.2639 25.7902 22.6421 26.0081C23.0202 26.2261 23.443 26.3354 23.9105 26.3354C24.4247 26.3354 24.851 26.2343 25.1899 26.0315C25.5289 25.8287 25.8073 25.564 26.0252 25.2368L25.2188 24.2901C25.0861 24.4929 24.9211 24.6641 24.7224 24.8043C24.5237 24.9446 24.2879 25.0147 24.0157 25.0147C23.7276 25.0147 23.476 24.9349 23.2615 24.7748C23.047 24.6153 22.8703 24.3994 22.7301 24.1264C22.5898 23.8535 22.4846 23.5324 22.4145 23.1619C22.3444 22.792 22.3093 22.4008 22.3093 21.9876C22.3093 21.5669 22.3444 21.1716 22.4145 20.801C22.4839 20.4311 22.5891 20.1101 22.7294 19.8371Z" fill="#2CB2B3"/>
<path d="M19.1176 18.832C18.8605 18.4504 18.547 18.1562 18.1771 17.9493C17.8073 17.743 17.392 17.6399 16.9327 17.6399C16.4652 17.6399 16.0466 17.743 15.6767 17.9493C15.3068 18.1562 14.9933 18.4504 14.7362 18.832C14.4791 19.2136 14.2845 19.6694 14.1518 20.1994C14.0191 20.7295 13.9531 21.3214 13.9531 21.9759C13.9531 22.6304 14.0212 23.2244 14.158 23.7579C14.2941 24.2921 14.4914 24.75 14.7479 25.1316C15.005 25.5131 15.3164 25.8094 15.6829 26.0198C16.0493 26.2302 16.4659 26.3354 16.9334 26.3354C17.3934 26.3354 17.8079 26.2302 18.1778 26.0198C18.5477 25.8094 18.8612 25.5131 19.1183 25.1316C19.3754 24.75 19.5721 24.2921 19.7082 23.7579C19.8443 23.2244 19.9131 22.6304 19.9131 21.9759C19.9131 21.3214 19.845 20.7295 19.7082 20.1994C19.5714 19.6694 19.3748 19.2136 19.1176 18.832ZM18.3696 23.1619C18.3071 23.5324 18.2122 23.8535 18.0836 24.1264C17.9551 24.3994 17.7956 24.6132 17.6044 24.7693C17.4133 24.9253 17.1892 25.003 16.9321 25.003C16.6749 25.003 16.4508 24.9253 16.2597 24.7693C16.0686 24.6132 15.9091 24.3994 15.7805 24.1264C15.6519 23.8535 15.5564 23.5324 15.4938 23.1619C15.4313 22.792 15.4003 22.3967 15.4003 21.9759C15.4003 21.5552 15.4313 21.1599 15.4938 20.7893C15.5564 20.4194 15.6513 20.1004 15.7805 19.8309C15.9091 19.5621 16.0686 19.3504 16.2597 19.1943C16.4508 19.0383 16.6749 18.9606 16.9321 18.9606C17.1816 18.9606 17.4016 19.0383 17.5921 19.1943C17.7832 19.3504 17.9427 19.5621 18.0712 19.8309C18.1998 20.1004 18.2974 20.4194 18.3634 20.7893C18.4294 21.1599 18.4631 21.5552 18.4631 21.9759C18.4631 22.3967 18.4322 22.792 18.3696 23.1619Z" fill="#2CB2B3"/>
</g>
<defs>
<clipPath id="clip0_195_9991">
<rect width="33" height="33" fill="white"/>
</clipPath>
</defs>
</svg>
