<svg width="46" height="46" viewBox="0 0 46 46" fill="none" xmlns="http://www.w3.org/2000/svg">
<path d="M23.9499 5.67949C23.7769 5.67889 23.6258 5.56254 23.581 5.39548C23.5362 5.22842 23.6088 5.05204 23.7582 4.96496L27.4681 2.82289C27.587 2.74735 27.7376 2.74304 27.8606 2.81166C27.9836 2.88028 28.059 3.01079 28.0571 3.15158C28.0552 3.29238 27.9762 3.42079 27.8515 3.48606L24.1416 5.62813C24.0834 5.66198 24.0172 5.67971 23.9499 5.67949Z" fill="#2CB2B3"/>
<path d="M22.5446 43.95C22.3826 43.9498 22.2383 43.8478 22.1839 43.6953C22.1296 43.5427 22.1769 43.3725 22.3023 43.2699L23.69 42.1345L21.85 43.1979C21.6739 43.2973 21.4509 43.2428 21.3404 43.0734C21.23 42.904 21.2701 42.678 21.4321 42.5569L24.429 40.3673L21.0273 42.3315C20.8492 42.4352 20.6211 42.3795 20.5108 42.2055C20.4004 42.0314 20.4474 41.8013 20.6172 41.6845L25.6457 38.2L20.1257 41.3847C19.9457 41.4854 19.7182 41.4255 19.6111 41.2492C19.504 41.0729 19.5556 40.8435 19.7278 40.73L20.0736 40.5107L19.5707 40.8005C19.3912 40.9046 19.1616 40.847 19.0524 40.6706C18.9433 40.4942 18.9942 40.263 19.1674 40.1488L28.4433 33.9994L18.5418 39.7134C18.3606 39.8228 18.1249 39.7647 18.0155 39.5834C17.906 39.4022 17.9642 39.1666 18.1454 39.0571L24.0189 35.3648L17.8135 38.9467C17.6328 39.0462 17.4059 38.985 17.2998 38.8081C17.1937 38.6313 17.2466 38.4022 17.4194 38.2897L24.2427 34.0262L17.0713 38.1662C16.8913 38.2669 16.6638 38.207 16.5567 38.0307C16.4496 37.8544 16.5012 37.625 16.6734 37.5115L29.1985 29.5382L16.0724 37.1151C15.8913 37.2196 15.66 37.1597 15.5523 36.9805C15.4446 36.8014 15.5003 36.569 15.6775 36.4581L25.2517 30.4919L15.2605 36.2634C15.0794 36.3678 14.8481 36.3079 14.7404 36.1287C14.6327 35.9496 14.6884 35.7172 14.8656 35.6063L27.2028 27.863L14.3366 35.2889C14.1555 35.3891 13.9275 35.3274 13.8217 35.1495C13.7159 34.9716 13.7704 34.7418 13.9449 34.6304L19.1421 31.4518L13.685 34.6028C13.5031 34.7114 13.2676 34.652 13.159 34.4701C13.0504 34.2883 13.1098 34.0528 13.2917 33.9442L22.3905 28.336L12.9237 33.8008C12.7426 33.9029 12.5132 33.842 12.4065 33.6636C12.2998 33.4852 12.3548 33.2543 12.5304 33.143L24.1622 25.9295L12.0757 32.9061C11.8947 33.0106 11.6633 32.9507 11.5557 32.7715C11.448 32.5924 11.5037 32.36 11.6809 32.2491L25.947 23.3351L11.1166 31.8972C10.9359 31.9952 10.7101 31.9332 10.6047 31.7567C10.4994 31.5801 10.552 31.3519 10.7241 31.2394L19.6075 25.7915L10.3783 31.1198C10.1967 31.2286 9.96121 31.1696 9.85239 30.9879C9.74357 30.8063 9.80261 30.5708 9.98426 30.462L22.7815 22.5347L9.50433 30.2013C9.32263 30.3049 9.09149 30.2437 8.98482 30.0638C8.87815 29.884 8.93533 29.6518 9.11333 29.542L14.5245 26.2507L8.85956 29.5221C8.67791 29.6309 8.44244 29.5719 8.33363 29.3902C8.22481 29.2086 8.28385 28.9731 8.46549 28.8643L21.8653 20.5567L7.96639 28.5806C7.78583 28.6818 7.55757 28.6214 7.45072 28.4441C7.34387 28.2668 7.39702 28.0368 7.57079 27.9243L23.9966 17.6265L6.92219 27.482C6.74104 27.5821 6.5131 27.5204 6.40727 27.3425C6.30144 27.1646 6.35596 26.9348 6.53043 26.8234L16.678 20.595L6.15246 26.6716C5.97193 26.7655 5.74947 26.702 5.64573 26.527C5.542 26.3519 5.59314 26.1263 5.76223 26.013L12.0926 22.1567L5.48776 25.9716C5.30695 26.0683 5.08211 26.0056 4.97745 25.8293C4.87279 25.653 4.92536 25.4256 5.09676 25.3131L11.5 21.4146L4.81999 25.2694C4.63877 25.3679 4.41204 25.3054 4.30697 25.1279C4.2019 24.9503 4.25616 24.7215 4.42976 24.61L8.04459 22.4181L4.26493 24.6001C4.14742 24.6705 4.00129 24.6728 3.88157 24.6063C3.76186 24.5397 3.68675 24.4143 3.68454 24.2774C3.68233 24.1404 3.75335 24.0127 3.87086 23.9423L17.7544 15.2973L3.44996 23.5582C3.26889 23.6626 3.03756 23.6027 2.9299 23.4235C2.82225 23.2444 2.87795 23.012 3.05513 22.9011L16.5807 14.4678L2.75996 22.4434C2.57827 22.547 2.34712 22.4858 2.24045 22.3059C2.13379 22.1261 2.19096 21.8939 2.36896 21.7841L4.85219 20.2768L2.37586 21.7067C2.194 21.8151 1.9587 21.7555 1.85031 21.5737C1.74191 21.3918 1.80147 21.1565 1.98333 21.0481L8.96689 16.7548L1.94423 20.8097C1.76408 20.9087 1.53786 20.8481 1.43148 20.6721C1.32511 20.4962 1.37645 20.2677 1.54786 20.1542L14.296 12.0704L1.52179 19.445C1.34281 19.5411 1.11996 19.4808 1.01375 19.3077C0.907534 19.1345 0.954839 18.9086 1.12159 18.7926L9.84856 13.1192L1.21819 18.1026C1.03852 18.2014 0.812891 18.1413 0.706154 17.9662C0.599418 17.7911 0.649374 17.5631 0.819526 17.4486L7.21966 13.3462L1.06716 16.8989C0.886677 17.0047 0.654725 16.9462 0.54593 16.7675C0.437135 16.5889 0.491677 16.356 0.668492 16.2442L6.29506 12.6339L0.982059 15.7006C0.803173 15.798 0.579398 15.7384 0.472526 15.5651C0.365655 15.3917 0.412998 15.165 0.580326 15.0489L7.53169 10.4896L1.11239 14.1964C0.93233 14.2971 0.704906 14.2372 0.597774 14.0609C0.490642 13.8846 0.542223 13.6552 0.714492 13.5417L3.60329 11.6909L1.27033 13.038C1.08974 13.1485 0.853754 13.0917 0.743242 12.9111C0.63273 12.7305 0.689538 12.4945 0.870126 12.384L3.97666 10.37L1.63066 11.7239C1.45168 11.8276 1.22269 11.7707 1.1132 11.5951C1.00371 11.4196 1.05323 11.1889 1.22509 11.0738L5.22709 8.38508L2.29076 10.0794C2.11493 10.1779 1.89283 10.1235 1.78253 9.9548C1.67222 9.78611 1.71139 9.56081 1.87216 9.43925L6.12333 6.32121L3.75279 7.68971C3.57877 7.77887 3.36553 7.72275 3.25794 7.55949C3.15034 7.39622 3.18287 7.17814 3.33343 7.05338L5.28996 5.60898C5.25166 5.57874 5.2194 5.54154 5.19489 5.49935C5.08904 5.31601 5.15186 5.08157 5.33519 4.97571L9.11563 2.79378C9.29162 2.69297 9.51568 2.74669 9.62682 2.91635C9.73796 3.086 9.69771 3.31287 9.53499 3.43395L9.31496 3.59571L11.8151 2.15285C11.9913 2.05101 12.2164 2.10472 12.3278 2.27516C12.4391 2.44559 12.3978 2.67331 12.2337 2.79378L7.98249 5.90875L14.5965 2.09075C14.7749 1.99195 14.9994 2.05008 15.1074 2.22302C15.2154 2.39595 15.1691 2.62318 15.0021 2.74011L10.997 5.43188L16.4066 2.31001C16.5866 2.20537 16.8171 2.26345 16.926 2.44085C17.0349 2.61824 16.9823 2.85012 16.8076 2.96321L13.7095 4.97188L17.6532 2.69565C17.8329 2.59683 18.0585 2.65691 18.1653 2.832C18.272 3.00709 18.222 3.23517 18.0519 3.34961L15.1501 5.20725L18.8147 3.09125C18.9942 2.98919 19.2223 3.04767 19.3306 3.2235C19.4389 3.39933 19.3884 3.62933 19.2165 3.74368L12.2712 8.29845L20.0912 3.78355C20.2709 3.68473 20.4965 3.74481 20.6033 3.9199C20.71 4.09499 20.66 4.32307 20.4899 4.43751L14.8564 8.05005L21.1431 4.42141C21.3236 4.31564 21.5555 4.3741 21.6643 4.55278C21.7731 4.73145 21.7186 4.96436 21.5418 5.07615L15.1501 9.17321L22.0738 5.17581C22.2531 5.07711 22.4782 5.13656 22.5853 5.31088C22.6925 5.4852 22.6438 5.71293 22.4748 5.82825L13.7432 11.5016L29.9199 2.16435C30.1 2.06528 30.3263 2.12597 30.4326 2.30189C30.539 2.47781 30.4877 2.70633 30.3163 2.81985L17.5651 10.9059L32.8716 2.07005C32.9892 1.99993 33.1353 1.99789 33.2549 2.06472C33.3744 2.13154 33.4492 2.25706 33.4511 2.394C33.453 2.53094 33.3817 2.65849 33.2641 2.72861L26.2874 7.01581L34.5368 2.25405C34.7185 2.15051 34.9496 2.2117 35.0563 2.39157C35.1629 2.57144 35.1058 2.80361 34.9278 2.91338L32.4384 4.42141L35.6584 2.56148C35.8384 2.46656 36.0611 2.52878 36.1659 2.70321C36.2706 2.87764 36.2208 3.10351 36.0525 3.21775L22.5185 11.6618L37.2676 3.14338C37.4493 3.03435 37.6849 3.09322 37.7939 3.27486C37.903 3.45651 37.8441 3.69215 37.6625 3.80118L23.7858 12.4407L38.6837 3.84411C38.8649 3.74556 39.0916 3.8081 39.1967 3.98562C39.3018 4.16315 39.2475 4.392 39.0739 4.50345L35.4522 6.69841L39.4542 4.38921C39.635 4.29258 39.8598 4.35531 39.9645 4.53159C40.0691 4.70787 40.0166 4.9353 39.8452 5.04778L33.4535 8.94091L40.3013 4.98721C40.4821 4.89058 40.707 4.95331 40.8116 5.12959C40.9163 5.30587 40.8637 5.5333 40.6923 5.64578L34.3604 9.50135L41.0051 5.66801C41.1842 5.57734 41.4029 5.64016 41.5066 5.81205C41.6102 5.98393 41.5637 6.20668 41.4 6.32275L31.2409 12.5573L41.8002 6.46075C41.9807 6.35958 42.209 6.42001 42.3158 6.59726C42.4227 6.77452 42.3695 7.00459 42.1958 7.11701L25.7784 17.4118L42.688 7.64985C42.8683 7.55353 43.0925 7.61568 43.1975 7.79109C43.3025 7.9665 43.2513 8.19344 43.0813 8.30688L29.6807 16.6137L43.3726 8.70861C43.5543 8.60508 43.7854 8.66627 43.8921 8.84614C43.9988 9.02601 43.9416 9.25818 43.7636 9.36795L38.3548 12.6569L43.7644 9.53431C43.945 9.43483 44.172 9.49607 44.278 9.67292C44.3841 9.84977 44.3313 10.0788 44.1584 10.1913L31.3658 18.1171L44.2619 10.6713C44.4426 10.5733 44.6685 10.6353 44.7738 10.8118C44.8792 10.9884 44.8265 11.2166 44.6545 11.3291L35.7765 16.7724L44.5471 11.7078C44.7282 11.6034 44.9595 11.6633 45.0672 11.8424C45.1748 12.0216 45.1191 12.254 44.942 12.3648L30.6666 21.2888L44.85 13.1016C45.0306 13.0021 45.2576 13.0634 45.3636 13.2402C45.4697 13.4171 45.4169 13.6461 45.244 13.7586L33.606 20.9753L44.9673 14.4172C45.1484 14.3152 45.3778 14.3761 45.4844 14.5545C45.5911 14.7329 45.5361 14.9638 45.3606 15.075L36.2633 20.6816L45.0033 15.64C45.1844 15.5399 45.4124 15.6016 45.5182 15.7795C45.624 15.9574 45.5695 16.1872 45.3951 16.2986L40.2032 19.4734L44.8653 16.7831C45.0455 16.6855 45.2707 16.7469 45.3764 16.9226C45.482 17.0982 45.4308 17.3259 45.2601 17.4394L32.9229 25.1774L44.5809 18.4476C44.7619 18.3432 44.9933 18.4031 45.1009 18.5822C45.2086 18.7614 45.1529 18.9937 44.9757 19.1046L35.4 25.07L44.0833 20.0583C44.2643 19.9485 44.5001 20.0061 44.61 20.1871C44.7199 20.3682 44.6622 20.604 44.4812 20.7138L31.9608 28.6872L42.9517 22.3422C43.1319 22.2446 43.3571 22.306 43.4627 22.4817C43.5684 22.6573 43.5172 22.885 43.3465 22.9985L36.5048 27.2727L41.2466 24.5334C41.4265 24.4373 41.6501 24.4988 41.7555 24.6734C41.8609 24.848 41.8111 25.0745 41.6422 25.1889L35.7818 28.8742L38.7504 27.1607C38.9291 27.062 39.1539 27.1208 39.2615 27.2945C39.369 27.4681 39.3216 27.6955 39.1536 27.8116L29.8777 33.9634L35.2168 30.8814C35.3973 30.7782 35.6271 30.8378 35.7349 31.0156C35.8426 31.1934 35.7889 31.4247 35.6139 31.5369L33.5654 32.8402C33.6737 32.857 33.7693 32.9199 33.8276 33.0127C33.9379 33.1863 33.8916 33.416 33.7226 33.5333L28.7017 37.0147L30.235 36.1315C30.4111 36.0321 30.6341 36.0866 30.7445 36.256C30.855 36.4254 30.8148 36.6514 30.6528 36.7724L27.5233 39.0586C27.6747 39.0245 27.8319 39.085 27.9212 39.212C28.0345 39.3763 28.0029 39.6001 27.8484 39.7264L25.2915 41.8163C25.3911 41.8951 25.4452 42.0181 25.436 42.1448C25.4268 42.2714 25.3555 42.3853 25.2455 42.4488L22.7393 43.8955C22.6806 43.9311 22.6132 43.9499 22.5446 43.95Z" fill="#2CB2B3"/>
<path d="M10.3117 12.5213C10.1521 12.5211 10.0094 12.4221 9.95326 12.2727C9.89716 12.1233 9.93945 11.9548 10.0594 11.8497L11.2922 10.7717L8.53837 12.3603C8.362 12.4606 8.138 12.4061 8.02743 12.236C7.91685 12.0658 7.95801 11.839 8.1213 11.7186L8.21407 11.6511L7.7648 11.9102C7.58854 12.0121 7.36341 11.9584 7.2521 11.7879C7.14079 11.6175 7.1821 11.3898 7.3462 11.2693L8.09294 10.7219L7.27184 11.1934C7.09875 11.2926 6.87849 11.2425 6.76538 11.0782C6.65228 10.9138 6.68415 10.6902 6.83867 10.564L8.77067 8.99307L7.23734 9.87857C7.06704 9.97562 6.85096 9.92857 6.73643 9.7695C6.62191 9.61042 6.64584 9.39058 6.7919 9.25987L8.03314 8.162C7.88764 8.11663 7.78284 7.98937 7.76621 7.83788C7.74958 7.68638 7.82428 7.53942 7.95647 7.46357L10.4903 6.00153C10.6606 5.90448 10.8767 5.95153 10.9912 6.1106C11.1057 6.26968 11.0818 6.48952 10.9357 6.62023L10.1553 7.31023L12.558 5.92487C12.7307 5.82786 12.9489 5.87847 13.0614 6.04161C13.1738 6.20475 13.1433 6.42667 12.9912 6.55353L11.0576 8.12673L13.7655 6.56273C13.9433 6.44735 14.181 6.49798 14.2964 6.67582C14.4118 6.85365 14.3612 7.09135 14.1833 7.20673L13.4435 7.74877L14.2178 7.30257C14.3938 7.20533 14.6149 7.2605 14.7246 7.42899C14.8342 7.59748 14.7951 7.82204 14.6349 7.9435L14.4049 8.11293C14.5561 8.07909 14.7128 8.13959 14.802 8.26627C14.9168 8.42655 14.8912 8.64771 14.743 8.77763L13.5125 9.85097L13.5524 9.82797C13.7355 9.72382 13.9684 9.78705 14.0738 9.96953C14.1792 10.152 14.1175 10.3853 13.9357 10.4919L10.5033 12.4699C10.4452 12.5039 10.379 12.5217 10.3117 12.5213Z" fill="#F76031"/>
<path d="M4.34163 17.5927C4.19216 17.5928 4.05629 17.5059 3.99356 17.3703C3.93082 17.2346 3.95268 17.0748 4.04953 16.961L4.86833 15.998L4.08327 16.4511C3.92727 16.5412 3.72964 16.5105 3.60831 16.3774C3.48699 16.2442 3.47471 16.0446 3.5788 15.8976L4.24503 14.9569C4.07835 14.9424 3.9403 14.8215 3.90399 14.6582C3.86768 14.4949 3.94148 14.3269 4.08633 14.2431L5.28233 13.5531C5.43815 13.4638 5.63512 13.4946 5.7562 13.6273C5.87728 13.7599 5.89 13.9589 5.7868 14.1059L5.21333 14.9124L6.4009 14.227C6.56218 14.1355 6.76585 14.1726 6.88457 14.315C7.00328 14.4575 7.003 14.6645 6.8839 14.8066L6.06893 15.7688L6.62783 15.4468C6.81101 15.3427 7.04391 15.4059 7.14927 15.5884C7.25463 15.7709 7.19295 16.0042 7.01117 16.1107L4.5333 17.5413C4.47519 17.5754 4.40898 17.5931 4.34163 17.5927Z" fill="#F76031"/>
<path d="M23.1119 5.53771L23.0567 5.48941C22.9409 5.38131 22.8374 5.26478 22.7171 5.15898C22.6745 5.12582 22.6235 5.10512 22.5699 5.09918C15.7389 -0.153258 5.26161 1.62541 1.45051 9.87168C-2.42269 18.2536 3.31351 24.3448 8.63571 29.9484L17.25 39.015C18.5265 40.3589 19.9425 42.5255 21.5333 43.5107C23.0766 44.4667 24.002 43.7001 25.1321 42.6267C27.59 40.2907 29.8333 37.6771 32.1678 35.22C37.4754 29.6287 45.5982 23.6134 45.7884 15.2629C45.7884 15.2475 45.7792 15.2391 45.7769 15.2261C45.7746 15.213 45.7891 15.1992 45.7884 15.1839C45.31 3.30441 31.7752 -1.66896 23.1119 5.53771ZM35.6776 30.4053L28.98 37.454C27.4811 39.0318 25.9317 41.3226 24.1369 42.5524C22.8137 43.4593 22.3667 42.8859 21.3187 41.7857L15.8293 36.0066C12.2919 32.2767 8.67711 28.6082 5.20564 24.8171C1.83231 21.1371 0.347277 15.9828 1.98564 11.1428C4.93501 2.43578 15.4759 0.306742 22.1459 6.02838C24.7376 8.4961 26.227 11.9031 26.2782 15.4814C26.2851 15.7758 27.3983 15.5757 27.3884 15.1839C27.3363 11.7692 25.9904 8.50151 23.6225 6.04064C32.1187 -1.50336 44.2175 4.77947 44.6752 15.4461C44.5042 22.0693 39.8812 25.9801 35.6776 30.4053Z" fill="#262626"/>
<path d="M9.11874 6.73908C7.61301 7.52185 5.36667 9.69075 6.73901 11.5131C7.99634 13.1821 10.7487 12.4147 12.295 11.6856C12.3311 11.6687 12.3441 11.6565 12.3717 11.6419C12.3801 11.6381 12.3947 11.6342 12.4016 11.6304C13.8744 10.8001 16.123 8.68871 14.7131 6.86711C13.4535 5.24178 10.6375 5.95018 9.11874 6.73908ZM11.6096 11.5821C10.1606 12.2391 7.66591 12.2491 7.46964 10.2128C7.29331 8.39891 9.12947 7.12011 10.5946 6.67545C11.5767 6.37798 12.4737 6.20395 13.3254 6.90008C13.7536 7.25329 14.0043 7.77722 14.0108 8.33221C14.0338 9.78581 12.7627 10.9197 11.6096 11.5821Z" fill="#262626"/>
<path d="M5.84042 13.4857C4.64398 13.4509 3.59052 14.2685 3.32729 15.4361C3.15235 15.9666 3.21576 16.5468 3.50112 17.0269C3.78648 17.5071 4.26583 17.8401 4.81539 17.94C6.032 18.004 7.11846 17.184 7.39062 15.9965C7.60145 14.8734 7.13839 13.57 5.84042 13.4857ZM4.82995 17.0361C4.41478 16.5601 4.26723 15.9071 4.43742 15.2989C4.59075 14.6357 5.17879 13.7257 5.88642 14.3965C6.29889 14.8738 6.4456 15.5257 6.27742 16.1338C6.09725 16.7778 5.55445 17.7246 4.82995 17.0361Z" fill="#262626"/>
</svg>
