<svg width="46" height="46" viewBox="0 0 46 46" fill="none" xmlns="http://www.w3.org/2000/svg">
<g clip-path="url(#clip0_40_126)">
<path d="M14.6433 12.4813C14.5613 12.4815 14.4814 12.4554 14.4154 12.4068C14.3493 12.3583 14.3006 12.2898 14.2763 12.2115C14.252 12.1332 14.2535 12.0491 14.2805 11.9717C14.3075 11.8943 14.3586 11.8276 14.4264 11.7814L16.8329 10.1353C16.7677 10.1402 16.7023 10.1275 16.6435 10.0987C16.5848 10.0699 16.5348 10.0259 16.4987 9.97126C16.4437 9.8923 16.4205 9.79558 16.4336 9.70028C16.4466 9.60499 16.4951 9.51809 16.5692 9.45683L20.2553 6.41776C20.1792 6.41775 20.1048 6.39507 20.0416 6.35261C19.9784 6.31015 19.9293 6.24984 19.9005 6.17936C19.8717 6.10888 19.8646 6.03143 19.88 5.95687C19.8954 5.88231 19.9326 5.81403 19.987 5.76073L22.1689 3.62249C22.1558 3.54531 22.1666 3.46595 22.1999 3.39509C22.2332 3.32422 22.2874 3.26526 22.3552 3.22613L22.9287 2.89416C23.0095 2.84755 23.1046 2.83202 23.196 2.85047C23.2875 2.86892 23.3691 2.92008 23.4255 2.99438C23.4819 3.06867 23.5093 3.161 23.5025 3.25405C23.4958 3.3471 23.4553 3.43448 23.3887 3.49983L22.6872 4.18983L23.6264 3.64779C23.7096 3.59978 23.8078 3.58477 23.9015 3.60572C23.9953 3.62667 24.0778 3.68206 24.1326 3.76093C24.1875 3.83979 24.2107 3.93638 24.1978 4.03157C24.1848 4.12676 24.1366 4.21361 24.0626 4.27493L20.6126 7.11773L24.6759 4.77479C24.7616 4.72713 24.8623 4.71413 24.9573 4.73845C25.0523 4.76278 25.1344 4.82259 25.1866 4.90557C25.2389 4.98856 25.2573 5.08841 25.2382 5.18458C25.2191 5.28076 25.1638 5.36595 25.0838 5.42263L23.1296 6.75433L25.3314 5.48243C25.4194 5.4324 25.5236 5.4192 25.6213 5.44572C25.719 5.47225 25.8023 5.53633 25.8529 5.624C25.9035 5.71166 25.9174 5.81578 25.8915 5.91365C25.8656 6.01151 25.8021 6.09517 25.7148 6.14636L14.8319 12.433C14.7744 12.4653 14.7093 12.4819 14.6433 12.4813Z" fill="#D3E5F4"/>
<path d="M3.81723 43.3167C3.73329 43.3169 3.6516 43.2895 3.58471 43.2388C3.51783 43.1881 3.46944 43.1168 3.44697 43.0359C3.42451 42.955 3.42922 42.869 3.46037 42.7911C3.49153 42.7131 3.54741 42.6476 3.61943 42.6044L5.80213 41.2927L2.51466 43.1902C2.42729 43.2389 2.32435 43.2514 2.22781 43.2253C2.13128 43.1991 2.04879 43.1362 1.99797 43.0501C1.94714 42.964 1.932 42.8614 1.95577 42.7642C1.97954 42.667 2.04034 42.583 2.1252 42.5301L5.0715 40.7614L2.51466 42.2372C2.42758 42.2863 2.32478 42.2994 2.22817 42.2737C2.13157 42.2481 2.04879 42.1857 1.9975 42.0999C1.94621 42.0142 1.93045 41.9117 1.95359 41.8145C1.97673 41.7173 2.03693 41.6329 2.12136 41.5794L22.5224 28.9394L2.51466 40.49C2.42747 40.5374 2.32528 40.5491 2.2296 40.5228C2.13391 40.4964 2.0522 40.4339 2.00164 40.3485C1.95109 40.2631 1.93564 40.1614 1.95854 40.0648C1.98144 39.9682 2.04091 39.8843 2.12443 39.8306L13.2633 33.0755L2.51466 39.2786C2.42772 39.3239 2.32675 39.3341 2.23251 39.3072C2.13826 39.2803 2.0579 39.2183 2.00794 39.134C1.95798 39.0497 1.94221 38.9494 1.96388 38.8539C1.98554 38.7583 2.043 38.6746 2.12443 38.6201L15.2835 30.6084L2.51466 37.9799C2.42793 38.0251 2.32721 38.0354 2.23312 38.0087C2.13903 37.9821 2.05868 37.9205 2.00853 37.8365C1.95837 37.7526 1.9422 37.6526 1.96332 37.5571C1.98444 37.4617 2.04125 37.3778 2.12213 37.3229L19.3545 26.657L2.51466 36.3783C2.42769 36.4255 2.32585 36.4372 2.23045 36.411C2.13504 36.3848 2.05346 36.3228 2.00276 36.2378C1.95206 36.1528 1.93617 36.0516 1.95842 35.9552C1.98067 35.8588 2.03933 35.7747 2.12213 35.7205L15.41 27.5341L2.51466 34.9776C2.42747 35.0251 2.32528 35.0368 2.2296 35.0104C2.13391 34.984 2.0522 34.9216 2.00164 34.8361C1.95109 34.7507 1.93564 34.649 1.95854 34.5524C1.98144 34.4559 2.04091 34.3719 2.12443 34.3183L3.9399 33.2212L2.51466 34.04C2.42772 34.0853 2.32675 34.0955 2.23251 34.0686C2.13826 34.0417 2.0579 33.9797 2.00794 33.8954C1.95798 33.8111 1.94221 33.7108 1.96388 33.6152C1.98554 33.5196 2.043 33.436 2.12443 33.3814L6.41777 30.7686L2.51466 33.0242C2.42763 33.0707 2.32601 33.0819 2.23096 33.0553C2.1359 33.0288 2.05474 32.9667 2.00436 32.8818C1.95398 32.7969 1.93827 32.6959 1.96049 32.5998C1.98271 32.5036 2.04116 32.4198 2.12366 32.3656L5.84813 30.094L2.51466 32.0183C2.42733 32.0704 2.3229 32.0856 2.22434 32.0606C2.12578 32.0357 2.04117 31.9726 1.98911 31.8853C1.93706 31.798 1.92183 31.6935 1.94678 31.595C1.97172 31.4964 2.0348 31.4118 2.12213 31.3597L9.94903 26.5297L2.51236 30.8231C2.42575 30.8694 2.32468 30.8806 2.22999 30.8546C2.1353 30.8285 2.05422 30.7672 2.00348 30.6831C1.95274 30.599 1.9362 30.4986 1.95728 30.4027C1.97836 30.3068 2.03544 30.2226 2.11676 30.1676L14.5023 22.3598L2.51466 29.2798C2.42778 29.3256 2.32664 29.3363 2.23211 29.3097C2.13757 29.2831 2.05685 29.2212 2.00659 29.1368C1.95634 29.0524 1.94039 28.952 1.96203 28.8562C1.98367 28.7604 2.04125 28.6766 2.1229 28.622L6.7022 25.8075L2.51466 28.2248C2.42825 28.2711 2.32741 28.2825 2.23285 28.2567C2.13829 28.2309 2.05721 28.1699 2.00626 28.0861C1.95531 28.0024 1.93838 27.9023 1.95893 27.8065C1.97948 27.7107 2.03596 27.6264 2.11676 27.5709L15.41 19.0601L2.51466 26.5067C2.42811 26.5536 2.32684 26.5655 2.23182 26.5397C2.1368 26.514 2.05532 26.4527 2.00427 26.3685C1.95321 26.2843 1.9365 26.1838 1.95758 26.0876C1.97867 25.9915 2.03594 25.9071 2.11753 25.852L13.6175 18.5326L2.51466 24.942C2.42769 24.9891 2.32585 25.0008 2.23045 24.9747C2.13504 24.9485 2.05346 24.8864 2.00276 24.8014C1.95206 24.7165 1.93617 24.6152 1.95842 24.5188C1.98067 24.4224 2.03933 24.3383 2.12213 24.2842L6.2031 21.7618L2.51466 23.8909C2.42832 23.9377 2.32727 23.9497 2.23239 23.9242C2.1375 23.8987 2.05602 23.8378 2.00476 23.754C1.95351 23.6701 1.93639 23.5698 1.95695 23.4738C1.97751 23.3777 2.03417 23.2932 2.11523 23.2377L14.2792 15.3617L2.51466 22.1567C2.42818 22.2042 2.32667 22.2166 2.23129 22.1912C2.13591 22.1658 2.054 22.1046 2.00263 22.0203C1.95125 21.936 1.93436 21.8352 1.95548 21.7388C1.9766 21.6424 2.03409 21.5578 2.116 21.5027L12.8033 14.6096L2.51466 20.5467C2.43049 20.5941 2.33152 20.6079 2.23758 20.5855C2.14363 20.563 2.06161 20.5059 2.00794 20.4256C1.95427 20.3453 1.9329 20.2477 1.9481 20.1523C1.9633 20.0569 2.01396 19.9708 2.08993 19.9111L5.82667 17.0323L2.51466 18.9451C2.42977 18.9942 2.32932 19.0088 2.23396 18.9861C2.13859 18.9633 2.05557 18.9049 2.00196 18.8228C1.94835 18.7407 1.92823 18.6412 1.94573 18.5447C1.96324 18.4483 2.01703 18.3622 2.09606 18.3042L2.95933 17.6717L2.51466 17.9285C2.43042 17.9753 2.33165 17.9886 2.23802 17.9658C2.14439 17.9431 2.06276 17.8859 2.0094 17.8056C1.95604 17.7254 1.93485 17.628 1.95006 17.5329C1.96527 17.4377 2.01575 17.3518 2.09146 17.2922L2.4035 17.0537C2.33765 17.0671 2.26948 17.0632 2.20556 17.0425C2.14164 17.0219 2.08412 16.9851 2.03856 16.9357C1.97996 16.8706 1.9454 16.7874 1.94066 16.6999C1.93592 16.6125 1.96127 16.526 2.0125 16.455L3.02603 15.0466L2.51466 15.3418C2.44756 15.3803 2.37036 15.3977 2.29322 15.3915C2.21607 15.3854 2.14259 15.356 2.08244 15.3073C2.02229 15.2586 1.97829 15.1929 1.95623 15.1187C1.93417 15.0445 1.93507 14.9654 1.95883 14.8917L2.12596 14.3727C2.06886 14.3384 2.0217 14.2897 1.98913 14.2316C1.95657 14.1734 1.93973 14.1078 1.94027 14.0411C1.94081 13.9745 1.95872 13.9091 1.99222 13.8515C2.02573 13.7939 2.07367 13.746 2.13133 13.7126L2.51466 13.491C2.58178 13.4522 2.65909 13.4347 2.73638 13.4407C2.81368 13.4467 2.88734 13.476 2.94763 13.5248C3.00792 13.5735 3.05202 13.6394 3.07409 13.7137C3.09616 13.7881 3.09518 13.8673 3.07126 13.9411L2.9946 14.1795L4.18906 13.4895C4.2649 13.4464 4.3532 13.4304 4.43935 13.4442C4.52551 13.458 4.60438 13.5008 4.66292 13.5655C4.72146 13.6302 4.75617 13.713 4.76132 13.8001C4.76647 13.8872 4.74174 13.9734 4.69123 14.0446L3.68 15.4545L7.084 13.488C7.16828 13.4403 7.26749 13.4263 7.36169 13.4487C7.45589 13.4712 7.53809 13.5285 7.59179 13.6091C7.64548 13.6896 7.66669 13.7876 7.65114 13.8832C7.63559 13.9787 7.58444 14.0649 7.50797 14.1243L7.31323 14.273L8.67483 13.4872C8.75972 13.4382 8.86018 13.4235 8.95554 13.4463C9.0509 13.469 9.13393 13.5274 9.18753 13.6095C9.24114 13.6916 9.26127 13.7911 9.24376 13.8876C9.22626 13.984 9.17246 14.0701 9.09343 14.1281L8.2317 14.7591L10.4382 13.4857C10.5224 13.4373 10.6218 13.4228 10.7163 13.4449C10.8109 13.467 10.8935 13.5242 10.9475 13.6049C11.0016 13.6856 11.0229 13.7837 11.0074 13.8796C10.9918 13.9754 10.9404 14.0618 10.8637 14.1212L7.12387 17.0024L25.9409 6.13871C26.0272 6.09301 26.1277 6.08195 26.2218 6.10778C26.316 6.13362 26.3967 6.19441 26.4476 6.27775C26.4984 6.36108 26.5156 6.46069 26.4955 6.55624C26.4755 6.65178 26.4197 6.73607 26.3396 6.79191L15.6584 13.6796L26.91 7.18291C26.9966 7.13363 27.0989 7.11999 27.1954 7.14487C27.2919 7.16976 27.3748 7.23122 27.4268 7.31624C27.4787 7.40126 27.4955 7.50315 27.4736 7.60033C27.4517 7.69751 27.3928 7.78235 27.3094 7.83688L15.144 15.7167L27.9626 8.31681C28.0496 8.26965 28.1514 8.25794 28.2469 8.28414C28.3423 8.31033 28.4238 8.3724 28.4745 8.45736C28.5252 8.54232 28.5411 8.64359 28.5189 8.73999C28.4966 8.83639 28.438 8.92046 28.3552 8.97461L24.278 11.4923L28.5967 8.99761C28.6835 8.94801 28.7862 8.93427 28.883 8.95934C28.9798 8.98441 29.0629 9.04629 29.1147 9.1318C29.1665 9.2173 29.1829 9.31966 29.1603 9.41705C29.1377 9.51443 29.078 9.59914 28.9938 9.65311L17.49 16.9763L29.545 10.0165C29.6318 9.96567 29.735 9.95095 29.8325 9.97553C29.93 10.0001 30.014 10.062 30.0663 10.1479C30.1186 10.2338 30.135 10.3367 30.1121 10.4346C30.0892 10.5325 30.0287 10.6175 29.9437 10.6712L16.6505 19.1812L30.5846 11.1343C30.6718 11.0861 30.7742 11.0738 30.8703 11.0998C30.9664 11.1258 31.0487 11.1882 31.0996 11.2738C31.1505 11.3594 31.1661 11.4614 31.1431 11.5583C31.1201 11.6552 31.0603 11.7393 30.9764 11.7929L26.3887 14.6127L31.2233 11.8212C31.3099 11.775 31.411 11.7637 31.5056 11.7897C31.6003 11.8158 31.6814 11.8772 31.7322 11.9613C31.7829 12.0453 31.7994 12.1457 31.7784 12.2416C31.7573 12.3375 31.7002 12.4217 31.6189 12.4767L19.2433 20.2783L32.154 12.824C32.2411 12.775 32.3439 12.7619 32.4405 12.7875C32.5371 12.8132 32.6199 12.8755 32.6712 12.9613C32.7225 13.0471 32.7382 13.1495 32.7151 13.2468C32.6919 13.344 32.6317 13.4284 32.5473 13.4818L24.715 18.3164L33.0717 13.491C33.1587 13.4445 33.2604 13.4334 33.3554 13.4599C33.4505 13.4864 33.5316 13.5486 33.582 13.6334C33.6324 13.7183 33.6481 13.8193 33.6259 13.9154C33.6037 14.0116 33.5452 14.0955 33.4627 14.1496L29.7467 16.4174L34.822 13.4872C34.909 13.4407 35.0107 13.4295 35.1057 13.4561C35.2008 13.4826 35.2819 13.5447 35.3323 13.6296C35.3827 13.7144 35.3984 13.8155 35.3762 13.9116C35.354 14.0078 35.2955 14.0916 35.213 14.1458L30.9074 16.7662L36.5938 13.4834C36.681 13.436 36.7832 13.4242 36.8788 13.4506C36.9745 13.477 37.0562 13.5395 37.1068 13.6249C37.1573 13.7103 37.1728 13.812 37.1499 13.9086C37.127 14.0052 37.0675 14.0891 36.984 14.1427L35.19 15.2283L38.2206 13.4795C38.3076 13.4324 38.4094 13.4207 38.5049 13.4469C38.6003 13.4731 38.6818 13.5351 38.7325 13.6201C38.7832 13.705 38.7991 13.8063 38.7769 13.9027C38.7546 13.9991 38.696 14.0832 38.6132 14.1373L25.3169 22.3292L40.654 13.4742C40.7411 13.4251 40.8439 13.412 40.9405 13.4377C41.0371 13.4633 41.1199 13.5257 41.1712 13.6114C41.2225 13.6972 41.2383 13.7997 41.2151 13.8969C41.192 13.9941 41.1318 14.0785 41.0473 14.132L23.8242 24.7886L43.437 13.465C43.5244 13.4152 43.6278 13.4017 43.7249 13.4275C43.8221 13.4532 43.9053 13.516 43.9565 13.6025C44.0078 13.689 44.0231 13.7921 43.999 13.8897C43.975 13.9873 43.9136 14.0715 43.828 14.1243L30.6506 22.1505L43.4869 14.7399C43.5741 14.6925 43.6763 14.6808 43.7719 14.7072C43.8676 14.7336 43.9493 14.796 43.9999 14.8815C44.0504 14.9669 44.0659 15.0686 44.043 15.1651C44.0201 15.2617 43.9606 15.3457 43.8771 15.3993L32.7482 22.1505L43.4876 15.9505C43.5745 15.9041 43.6758 15.8929 43.7706 15.9192C43.8655 15.9455 43.9466 16.0073 43.9971 16.0918C44.0477 16.1762 44.0638 16.2769 44.0422 16.3729C44.0206 16.4689 43.9628 16.5529 43.8809 16.6075L23.4784 29.2483L43.4884 17.6962C43.5757 17.6495 43.6776 17.6383 43.7729 17.665C43.8682 17.6917 43.9495 17.7543 43.9997 17.8396C44.05 17.9249 44.0653 18.0263 44.0424 18.1226C44.0195 18.2189 43.9603 18.3027 43.8771 18.3563L40.9438 20.1196L43.4892 18.6507C43.5768 18.5992 43.6813 18.5845 43.7797 18.6101C43.8285 18.6227 43.8742 18.6448 43.9144 18.6751C43.9546 18.7055 43.9884 18.7434 44.014 18.7868C44.0395 18.8302 44.0562 18.8782 44.0632 18.928C44.0701 18.9779 44.0672 19.0286 44.0546 19.0774C44.042 19.1261 44.0199 19.1719 43.9895 19.212C43.9592 19.2522 43.9213 19.2861 43.8779 19.3116L41.7028 20.6149L43.4899 19.583C43.577 19.5365 43.6786 19.5253 43.7736 19.5518C43.8687 19.5783 43.9499 19.6405 44.0002 19.7254C44.0506 19.8102 44.0663 19.9112 44.0441 20.0074C44.0219 20.1035 43.9634 20.1874 43.8809 20.2415L31.7185 27.6882L43.4915 20.8924C43.5781 20.8467 43.679 20.8359 43.7734 20.8623C43.8678 20.8887 43.9485 20.9502 43.9989 21.0342C44.0494 21.1182 44.0657 21.2183 44.0447 21.314C44.0236 21.4097 43.9666 21.4937 43.8855 21.5487L27.7855 31.6089L43.4922 22.54C43.5354 22.514 43.5832 22.4968 43.633 22.4893C43.6828 22.4818 43.7336 22.4842 43.7825 22.4964C43.8313 22.5085 43.8773 22.5301 43.9179 22.5601C43.9584 22.59 43.9926 22.6276 44.0186 22.6707C44.0445 22.7139 44.0618 22.7617 44.0692 22.8115C44.0767 22.8613 44.0743 22.9121 44.0622 22.961C44.0501 23.0098 44.0284 23.0558 43.9985 23.0963C43.9686 23.1369 43.931 23.1711 43.8878 23.197L29.8011 32.026L43.493 24.1216C43.5796 24.0747 43.6808 24.0629 43.7759 24.0887C43.8709 24.1144 43.9524 24.1757 44.0034 24.2599C44.0545 24.344 44.0712 24.4446 44.0501 24.5408C44.029 24.6369 43.9717 24.7213 43.8901 24.7764L30.1407 33.5079L43.4945 25.7983C43.5819 25.7463 43.6863 25.7311 43.7849 25.756C43.8834 25.781 43.968 25.844 44.0201 25.9314C44.0721 26.0187 44.0874 26.1231 44.0624 26.2217C44.0375 26.3202 43.9744 26.4049 43.8871 26.4569L39.9648 28.8704L43.4953 26.8333C43.5823 26.7808 43.6867 26.7649 43.7854 26.7893C43.8841 26.8137 43.9691 26.8763 44.0216 26.9633C44.0742 27.0503 44.09 27.1547 44.0657 27.2534C44.0413 27.3521 43.9787 27.437 43.8917 27.4896L35.535 32.7566L43.4968 28.1597C43.5836 28.1066 43.6878 28.0902 43.7867 28.114C43.8855 28.1378 43.9709 28.1998 44.0239 28.2866C44.077 28.3733 44.0934 28.4775 44.0696 28.5764C44.0458 28.6752 43.9838 28.7606 43.897 28.8136L34.2961 35.0236L43.4961 29.7114C43.5826 29.6621 43.685 29.6485 43.7815 29.6734C43.8779 29.6983 43.9609 29.7597 44.0128 29.8447C44.0648 29.9298 44.0816 30.0316 44.0597 30.1288C44.0378 30.226 43.9789 30.3109 43.8955 30.3654L37.3788 34.5521L43.4953 31.0255C43.5814 30.978 43.6824 30.9653 43.7776 30.9902C43.8727 31.0151 43.9546 31.0756 44.0064 31.1592C44.0582 31.2428 44.0759 31.3431 44.0558 31.4393C44.0358 31.5356 43.9795 31.6205 43.8986 31.6764L37.1067 36.1591L43.5022 32.4676C43.588 32.4206 43.6885 32.4081 43.7831 32.4328C43.8778 32.4574 43.9594 32.5173 44.0113 32.6002C44.0633 32.6831 44.0815 32.7827 44.0624 32.8786C44.0433 32.9745 43.9883 33.0595 43.9085 33.1162L37.9684 37.1274L43.5037 33.9311C43.59 33.8829 43.6915 33.8698 43.7871 33.8946C43.8827 33.9194 43.9651 33.9802 44.017 34.0643C44.0689 34.1483 44.0864 34.2492 44.0657 34.3458C44.0451 34.4424 43.988 34.5273 43.9062 34.5828L41.9781 35.8478L43.5045 34.9661C43.59 34.9177 43.6907 34.9038 43.7861 34.9275C43.8814 34.9512 43.964 35.0106 44.0169 35.0934C44.0697 35.1763 44.0887 35.2762 44.07 35.3726C44.0512 35.4691 43.9962 35.5546 43.9162 35.6117L40.1197 38.2781L43.503 36.3254C43.5876 36.2773 43.6875 36.2632 43.7822 36.286C43.8768 36.3088 43.9593 36.3668 44.0128 36.4482C44.0663 36.5296 44.0868 36.6283 44.0701 36.7243C44.0535 36.8202 44.0009 36.9062 43.9231 36.9648L40.8403 39.2533L43.5045 37.7154C43.5898 37.6668 43.6904 37.6527 43.7858 37.6761C43.8811 37.6995 43.9638 37.7585 44.0169 37.8411C44.07 37.9237 44.0894 38.0234 44.0711 38.1199C44.0527 38.2163 43.9981 38.302 43.9185 38.3594L43.5942 38.5894C43.6776 38.5666 43.7663 38.5727 43.8458 38.6067C43.9253 38.6406 43.991 38.7005 44.0322 38.7765C44.0735 38.8525 44.0878 38.9403 44.0728 39.0254C44.0579 39.1106 44.0146 39.1882 43.9499 39.2457L42.3522 40.6525L43.506 39.987C43.5789 39.9449 43.6637 39.9279 43.7472 39.9387C43.8307 39.9495 43.9083 39.9875 43.9681 40.0468C44.0278 40.1061 44.0664 40.1835 44.0778 40.2669C44.0892 40.3503 44.0728 40.4352 44.0312 40.5084L43.2561 41.8738L43.5076 41.7297C43.5512 41.7019 43.6 41.6833 43.651 41.6749C43.702 41.6665 43.7542 41.6686 43.8044 41.6809C43.8546 41.6932 43.9018 41.7155 43.9432 41.7465C43.9846 41.7775 44.0192 41.8166 44.0451 41.8613C44.071 41.9061 44.0875 41.9556 44.0938 42.007C44.1 42.0583 44.0958 42.1103 44.0814 42.16C44.067 42.2096 44.0427 42.2559 44.0099 42.2959C43.9772 42.3359 43.9367 42.3689 43.8909 42.3928L42.4197 43.24C42.3469 43.2816 42.2624 43.2982 42.1793 43.2872C42.0962 43.2762 42.0189 43.2383 41.9594 43.1792C41.8999 43.1202 41.8614 43.0432 41.8498 42.9602C41.8382 42.8771 41.8542 42.7926 41.8953 42.7194L42.6688 41.354L39.3982 43.2423C39.316 43.2885 39.2197 43.3028 39.1276 43.2824C39.0356 43.262 38.9542 43.2084 38.8992 43.1318C38.8442 43.0553 38.8193 42.9611 38.8293 42.8673C38.8394 42.7736 38.8836 42.6868 38.9536 42.6236L40.5567 41.2175L37.0423 43.2454C36.957 43.294 36.8563 43.3081 36.761 43.2847C36.6657 43.2613 36.583 43.2023 36.5299 43.1197C36.4768 43.0371 36.4574 42.9374 36.4757 42.8409C36.494 42.7445 36.5486 42.6588 36.6283 42.6014L36.8399 42.448L35.4599 43.2438C35.3752 43.292 35.2754 43.3061 35.1807 43.2833C35.086 43.2605 35.0035 43.2025 34.9501 43.1211C34.8966 43.0397 34.8761 42.941 34.8927 42.845C34.9094 42.7491 34.9619 42.6631 35.0397 42.6044L38.1248 40.3144L33.0433 43.2477C32.9578 43.2976 32.8563 43.3125 32.7601 43.2893C32.6638 43.2661 32.5803 43.2065 32.527 43.1231C32.4737 43.0396 32.4547 42.9388 32.4741 42.8417C32.4934 42.7446 32.5496 42.6587 32.6309 42.6021L36.4251 39.9364L30.6858 43.2492C30.5997 43.2961 30.4988 43.3082 30.4041 43.283C30.3093 43.2577 30.2278 43.1972 30.1763 43.1137C30.1248 43.0302 30.1073 42.9301 30.1274 42.8341C30.1474 42.7381 30.2035 42.6535 30.2841 42.5975L32.2115 41.3333L28.8911 43.25C28.8051 43.299 28.7035 43.3128 28.6076 43.2887C28.5117 43.2645 28.4288 43.2041 28.3763 43.1203C28.3238 43.0364 28.3058 42.9355 28.326 42.8386C28.3462 42.7418 28.4031 42.6565 28.4847 42.6006L34.4256 38.5902L26.3511 43.2515C26.2649 43.2997 26.1634 43.3128 26.0677 43.288C25.9721 43.2632 25.8897 43.2024 25.8378 43.1184C25.7859 43.0343 25.7685 42.9335 25.7891 42.8369C25.8097 42.7403 25.8669 42.6553 25.9486 42.5998L32.7466 38.1148L23.8456 43.2515C23.7589 43.3023 23.6556 43.3171 23.5581 43.2925C23.4606 43.2679 23.3767 43.206 23.3244 43.1201C23.2721 43.0343 23.2557 42.9313 23.2786 42.8334C23.3015 42.7355 23.362 42.6505 23.447 42.5968L29.9606 38.41L21.5755 43.2546C21.5326 43.2809 21.4849 43.2984 21.4352 43.3063C21.3854 43.3141 21.3347 43.3121 21.2857 43.3003C21.2368 43.2885 21.1906 43.2672 21.1499 43.2376C21.1092 43.208 21.0747 43.1706 21.0485 43.1277C21.0222 43.0848 21.0046 43.0371 20.9968 42.9873C20.9889 42.9376 20.9909 42.8868 21.0027 42.8379C21.0145 42.7889 21.0358 42.7428 21.0654 42.7021C21.095 42.6614 21.1324 42.6269 21.1753 42.6006L30.7771 36.3906L18.8822 43.2561C18.8391 43.2821 18.7913 43.2994 18.7416 43.307C18.6918 43.3145 18.641 43.3122 18.5922 43.3001C18.5433 43.2881 18.4973 43.2665 18.4567 43.2366C18.4162 43.2068 18.3819 43.1693 18.3559 43.1262C18.3299 43.0831 18.3126 43.0353 18.3051 42.9855C18.2975 42.9357 18.2998 42.885 18.3119 42.8361C18.324 42.7872 18.3455 42.7412 18.3754 42.7007C18.4052 42.6601 18.4428 42.6259 18.4859 42.5998L26.8333 37.3367L16.5784 43.2576C16.4911 43.3097 16.3866 43.3249 16.2881 43.3C16.1895 43.275 16.1049 43.212 16.0528 43.1246C16.0008 43.0373 15.9856 42.9329 16.0105 42.8343C16.0355 42.7357 16.0985 42.6511 16.1859 42.5991L20.1097 40.1848L14.7867 43.2584C14.7 43.3061 14.5982 43.3184 14.5027 43.2928C14.4071 43.2671 14.3252 43.2055 14.274 43.1209C14.2228 43.0362 14.2063 42.935 14.228 42.8385C14.2497 42.742 14.3078 42.6575 14.3903 42.6029L28.142 33.8698L11.8772 43.2599C11.7902 43.3101 11.6869 43.3241 11.5896 43.299C11.4924 43.2738 11.4089 43.2114 11.3571 43.1253C11.3054 43.0392 11.2895 42.9362 11.3129 42.8385C11.3364 42.7408 11.3972 42.6562 11.4824 42.6029L25.5737 33.7717L9.1356 43.2615C9.04856 43.3117 8.9453 43.3257 8.84804 43.3005C8.75078 43.2753 8.66729 43.213 8.61554 43.1268C8.56379 43.0407 8.54792 42.9377 8.57134 42.84C8.59476 42.7423 8.6556 42.6577 8.74077 42.6044L24.8408 32.5458L6.2767 43.263C6.18927 43.315 6.08478 43.3301 5.98622 43.305C5.88766 43.2799 5.8031 43.2167 5.75115 43.1292C5.6992 43.0418 5.68411 42.9373 5.7092 42.8387C5.73428 42.7402 5.7975 42.6556 5.88493 42.6037L18.0366 35.167L4.0089 43.2645C3.9507 43.2985 3.88459 43.3164 3.81723 43.3167Z" fill="#D3E5F4"/>
<path d="M4.91204 14.927C4.83077 14.9271 4.75157 14.9013 4.68589 14.8535C4.6202 14.8056 4.57142 14.7381 4.5466 14.6608C4.52177 14.5834 4.52218 14.5001 4.54776 14.423C4.57335 14.3458 4.62279 14.2788 4.68894 14.2316L9.97894 10.4543L2.34141 14.8634C2.25638 14.911 2.15639 14.9245 2.06178 14.901C1.96716 14.8776 1.88504 14.819 1.8321 14.7372C1.77916 14.6553 1.75939 14.5564 1.77681 14.4605C1.79423 14.3646 1.84753 14.2789 1.92587 14.2209L7.37687 10.294L1.09021 13.9211C1.00582 13.9692 0.906346 13.9834 0.811881 13.9609C0.717416 13.9384 0.634997 13.881 0.58127 13.8001C0.527544 13.7192 0.506513 13.6209 0.522427 13.5252C0.53834 13.4294 0.590012 13.3432 0.667005 13.284L5.56754 9.58332L1.79707 11.7576C1.71227 11.8045 1.61286 11.8175 1.51884 11.794C1.42483 11.7706 1.34319 11.7124 1.29034 11.6312C1.23749 11.55 1.21736 11.4517 1.23399 11.3563C1.25063 11.2608 1.3028 11.1752 1.38001 11.1167L2.97161 9.96665C2.90964 9.97154 2.84743 9.96083 2.79065 9.93553C2.73388 9.91022 2.68433 9.87111 2.64654 9.82175C2.58934 9.74947 2.56011 9.659 2.56419 9.56691C2.56827 9.47482 2.6054 9.38729 2.66877 9.32035L4.66287 7.20665C4.62188 7.17621 4.58768 7.13757 4.56244 7.09319C4.51161 7.00514 4.49783 6.90051 4.52414 6.80232C4.55046 6.70412 4.6147 6.62039 4.70274 6.56955L5.99151 5.82665C6.07121 5.78054 6.16484 5.76465 6.25529 5.7819C6.34575 5.79915 6.42697 5.84838 6.4841 5.92059C6.54124 5.9928 6.57047 6.08317 6.56646 6.17516C6.56244 6.26715 6.52545 6.35463 6.46224 6.42159L5.03241 7.93269L8.68404 5.82665C8.76911 5.77783 8.86967 5.76348 8.965 5.78655C9.06034 5.80962 9.1432 5.86836 9.19654 5.95067C9.24988 6.03299 9.26964 6.13262 9.25174 6.22907C9.23385 6.32551 9.17966 6.41142 9.10034 6.46912L7.82 7.39525L10.5401 5.82665C10.6245 5.77862 10.724 5.7644 10.8185 5.78687C10.9129 5.80934 10.9953 5.86681 11.0491 5.9477C11.1028 6.02858 11.1238 6.12684 11.1079 6.22262C11.092 6.31841 11.0403 6.40459 10.9633 6.46375L6.06434 10.1668L13.5853 5.82665C13.6704 5.779 13.7704 5.76552 13.865 5.78896C13.9596 5.81241 14.0417 5.87101 14.0946 5.95286C14.1476 6.03471 14.1673 6.13364 14.1499 6.22955C14.1325 6.32545 14.0792 6.41112 14.0009 6.46912L8.55064 10.3945L16.4642 5.82665C16.5495 5.77659 16.6508 5.76144 16.7471 5.78437C16.8433 5.8073 16.9269 5.86654 16.9805 5.9497C17.034 6.03286 17.0534 6.1335 17.0344 6.23059C17.0155 6.32768 16.9598 6.41369 16.8789 6.47065L11.5889 10.248L18.5917 6.20385C18.6767 6.15503 18.7773 6.14068 18.8726 6.16375C18.968 6.18682 19.0508 6.24556 19.1042 6.32787C19.1575 6.41019 19.1773 6.50982 19.1594 6.60627C19.1415 6.70271 19.0873 6.78862 19.008 6.84632L13.948 10.5133L15.6921 9.50665C15.776 9.45764 15.8754 9.44229 15.9701 9.46371C16.0648 9.48514 16.1479 9.54173 16.2026 9.62206C16.2572 9.70238 16.2793 9.80045 16.2644 9.89644C16.2494 9.99243 16.1987 10.0792 16.1222 10.1392L13.6842 12.0773C13.7346 12.0891 13.782 12.1112 13.8234 12.1422C13.8648 12.1732 13.8994 12.2125 13.925 12.2575C13.9758 12.3455 13.9896 12.4501 13.9633 12.5483C13.937 12.6465 13.8727 12.7303 13.7847 12.7811L10.156 14.8733C10.0723 14.9211 9.97364 14.9355 9.87973 14.9138C9.78581 14.8921 9.70353 14.8357 9.64928 14.7561C9.59503 14.6764 9.57279 14.5792 9.587 14.4838C9.6012 14.3885 9.65081 14.302 9.72594 14.2416L11.602 12.7512L7.92197 14.8733C7.8369 14.9221 7.73634 14.9365 7.64101 14.9134C7.54567 14.8904 7.4628 14.8316 7.40946 14.7493C7.35613 14.667 7.33637 14.5674 7.35427 14.4709C7.37216 14.3745 7.42635 14.2886 7.50567 14.2309L12.5657 10.567L5.1037 14.8733C5.04576 14.908 4.97957 14.9265 4.91204 14.927Z" fill="#F76031"/>
<path d="M42.78 14.9255C42.7096 14.9254 42.6405 14.9059 42.5805 14.8692C42.5204 14.8324 42.4716 14.7799 42.4394 14.7172C42.4073 14.6546 42.393 14.5843 42.3982 14.514C42.4033 14.4438 42.4277 14.3763 42.4687 14.3191L43.3604 13.074L40.25 14.8688C40.1668 14.9168 40.0686 14.9318 39.9748 14.9108C39.8811 14.8899 39.7986 14.8345 39.7437 14.7556C39.6889 14.6768 39.6656 14.5802 39.6786 14.485C39.6916 14.3898 39.7398 14.3029 39.8138 14.2416L40.4271 13.7295L38.4614 14.8649C38.3769 14.9133 38.2771 14.9278 38.1824 14.9053C38.0876 14.8829 38.005 14.8252 37.9512 14.744C37.8974 14.6628 37.8766 14.5642 37.8929 14.4682C37.9092 14.3722 37.9614 14.286 38.0389 14.2271L38.4736 13.8982L36.8054 14.8619C36.7207 14.9112 36.6203 14.9261 36.5249 14.9037C36.4295 14.8813 36.3463 14.8232 36.2924 14.7413C36.2385 14.6594 36.218 14.5601 36.2351 14.4636C36.2523 14.3671 36.3057 14.2808 36.3845 14.2225L37.5981 13.3201L34.9393 14.858C34.8552 14.9051 34.7565 14.9188 34.6628 14.8964C34.5691 14.8739 34.4872 14.817 34.4336 14.737C34.3799 14.657 34.3584 14.5596 34.3733 14.4644C34.3881 14.3692 34.4383 14.2831 34.5138 14.2232L37.618 11.8251L33.7264 14.0714C33.6413 14.1196 33.541 14.1333 33.446 14.1099C33.3511 14.0865 33.2687 14.0276 33.2157 13.9454C33.1627 13.8633 33.1431 13.7639 33.1609 13.6678C33.1788 13.5716 33.2327 13.4859 33.3117 13.4282L35.2421 12.0436L33.0571 13.3048C32.9717 13.3532 32.8709 13.3671 32.7755 13.3434C32.6802 13.3197 32.5976 13.2603 32.5448 13.1775C32.492 13.0947 32.4729 12.9947 32.4917 12.8983C32.5104 12.8018 32.5654 12.7163 32.6454 12.6592L33.971 11.73L32.4476 12.6086C32.3636 12.6563 32.2647 12.6705 32.1707 12.6484C32.0766 12.6263 31.9944 12.5695 31.9404 12.4894C31.8865 12.4093 31.8647 12.3117 31.8796 12.2163C31.8945 12.1208 31.9448 12.0345 32.0206 11.9746L35.4836 9.27363L31.5269 11.5575C31.4418 11.6052 31.3418 11.6187 31.2472 11.5952C31.1526 11.5718 31.0705 11.5132 31.0176 11.4313C30.9646 11.3495 30.9449 11.2505 30.9623 11.1546C30.9797 11.0587 31.033 10.9731 31.1113 10.9151L31.9915 10.2803L30.9388 10.8875C30.8558 10.9351 30.758 10.9499 30.6646 10.929C30.5712 10.9081 30.489 10.8531 30.4341 10.7747C30.3793 10.6963 30.3557 10.6002 30.3681 10.5053C30.3805 10.4104 30.4279 10.3236 30.5011 10.2619L32.3717 8.6971L30.1438 9.9828C30.0604 10.0304 29.9622 10.045 29.8686 10.0237C29.775 10.0024 29.6928 9.94671 29.6382 9.86769C29.5837 9.78867 29.5608 9.69205 29.574 9.59696C29.5873 9.50186 29.6358 9.41521 29.7099 9.35413L30.3232 8.8512L29.5443 9.30047C29.4676 9.34444 29.378 9.36055 29.2908 9.34606C29.2036 9.33158 29.1241 9.2874 29.0657 9.221C29.0073 9.1546 28.9737 9.07007 28.9705 8.98171C28.9673 8.89336 28.9948 8.80663 29.0482 8.7362L30.0311 7.44743L28.6273 8.2578C28.556 8.29958 28.4732 8.3172 28.391 8.30804C28.3089 8.29888 28.232 8.26343 28.1716 8.20697C28.1113 8.15051 28.0708 8.07607 28.0562 7.99474C28.0416 7.91341 28.0537 7.82954 28.0907 7.75563L28.4027 7.1239L27.8898 7.41983C27.8438 7.446 27.793 7.46237 27.7404 7.46793C27.6878 7.47348 27.6346 7.4681 27.5842 7.45211C27.5338 7.43613 27.4873 7.40989 27.4475 7.37504C27.4077 7.3402 27.3756 7.2975 27.3531 7.24963L27.0879 6.68153C27.0092 6.69744 26.9275 6.68823 26.8543 6.65522C26.7811 6.6222 26.7202 6.56705 26.68 6.49753C26.6547 6.45391 26.6383 6.40572 26.6316 6.35573C26.625 6.30574 26.6283 6.25493 26.6413 6.20622C26.6544 6.15751 26.6769 6.11184 26.7076 6.07185C26.7383 6.03185 26.7766 5.9983 26.8203 5.97313L27.0748 5.8267C27.1208 5.80053 27.1717 5.78416 27.2242 5.7786C27.2768 5.77305 27.33 5.77843 27.3804 5.79442C27.4308 5.8104 27.4773 5.83665 27.5171 5.87149C27.5569 5.90634 27.589 5.94903 27.6115 5.9969L27.8676 6.5466L29.118 5.8267C29.1892 5.78512 29.272 5.76762 29.3539 5.7768C29.4359 5.78597 29.5127 5.82134 29.573 5.87764C29.6332 5.93395 29.6737 6.00819 29.6884 6.08934C29.7032 6.17048 29.6913 6.25422 29.6547 6.3281L29.3419 6.9606L31.3061 5.8267C31.3828 5.78273 31.4723 5.76662 31.5595 5.7811C31.6467 5.79558 31.7263 5.83977 31.7846 5.90617C31.843 5.97257 31.8766 6.0571 31.8798 6.14545C31.883 6.2338 31.8555 6.32054 31.8021 6.39097L30.82 7.6782L34.03 5.8267C34.1133 5.78009 34.2109 5.76621 34.3039 5.78777C34.3968 5.80932 34.4784 5.86476 34.5326 5.94325C34.5869 6.02174 34.6099 6.11764 34.5972 6.21221C34.5845 6.30677 34.537 6.3932 34.464 6.4546L33.8506 6.95753L35.8095 5.8267C35.8925 5.77912 35.9903 5.76431 36.0837 5.78518C36.1771 5.80606 36.2593 5.8611 36.3142 5.93951C36.369 6.01791 36.3926 6.114 36.3802 6.20889C36.3678 6.30378 36.3204 6.3906 36.2472 6.4523L34.3773 8.01553L38.1723 5.8267C38.2574 5.77904 38.3574 5.76556 38.452 5.78901C38.5466 5.81245 38.6287 5.87106 38.6816 5.9529C38.7346 6.03475 38.7543 6.13369 38.7369 6.22959C38.7195 6.3255 38.6662 6.41116 38.5879 6.46917L37.71 7.10243L39.8751 5.85277C39.9591 5.80507 40.058 5.79085 40.1521 5.81296C40.2461 5.83506 40.3283 5.89186 40.3823 5.97198C40.4363 6.05211 40.458 6.14965 40.4431 6.2451C40.4283 6.34056 40.3779 6.42688 40.3021 6.4868L36.8391 9.18777L41.0489 6.7582C41.1341 6.71136 41.234 6.6987 41.3283 6.72279C41.4226 6.74687 41.5041 6.80589 41.5565 6.88789C41.6089 6.96989 41.6281 7.06873 41.6103 7.16437C41.5924 7.26002 41.5389 7.34531 41.4606 7.40297L40.1381 8.33293L41.5863 7.4965C41.6714 7.44838 41.7718 7.43463 41.8667 7.45805C41.9617 7.48147 42.0441 7.5403 42.0971 7.62249C42.1501 7.70468 42.1696 7.80402 42.1518 7.90018C42.134 7.99633 42.08 8.08203 42.0011 8.13973L40.0698 9.52587L42.1774 8.30917C42.2615 8.26208 42.3602 8.2484 42.4539 8.27082C42.5476 8.29325 42.6295 8.35015 42.6831 8.4302C42.7368 8.51024 42.7583 8.60755 42.7434 8.70276C42.7286 8.79797 42.6784 8.88409 42.6029 8.94397L39.4994 11.3421L42.9387 9.35643C43.0234 9.30714 43.1238 9.29217 43.2192 9.31459C43.3146 9.33702 43.3978 9.39513 43.4517 9.47699C43.5056 9.55885 43.526 9.65824 43.5089 9.75474C43.4918 9.85124 43.4384 9.93751 43.3596 9.99583L42.146 10.8982L43.4938 10.12C43.5783 10.0716 43.678 10.0572 43.7728 10.0796C43.8675 10.1021 43.9502 10.1598 44.0039 10.241C44.0577 10.3222 44.0786 10.4208 44.0623 10.5168C44.046 10.6128 43.9937 10.699 43.9162 10.7579L43.4784 11.0883L43.9852 10.7962C44.0683 10.7492 44.1659 10.7349 44.259 10.7561C44.3521 10.7773 44.4339 10.8325 44.4885 10.9108C44.543 10.9892 44.5664 11.085 44.554 11.1797C44.5416 11.2743 44.4943 11.361 44.4214 11.4226L43.8081 11.9332L44.515 11.5238C44.5908 11.4798 44.6795 11.4632 44.7661 11.4767C44.8527 11.4902 44.9321 11.5329 44.991 11.5979C45.0499 11.6628 45.0848 11.746 45.0899 11.8335C45.0949 11.921 45.0698 12.0076 45.0187 12.0789L44.127 13.3239L45.0118 12.8133C45.0554 12.7856 45.1042 12.767 45.1552 12.7586C45.2062 12.7502 45.2584 12.7522 45.3086 12.7645C45.3588 12.7768 45.406 12.7991 45.4474 12.8302C45.4888 12.8612 45.5234 12.9002 45.5493 12.945C45.5752 12.9898 45.5917 13.0393 45.598 13.0906C45.6042 13.1419 45.6 13.194 45.5856 13.2436C45.5712 13.2933 45.5469 13.3395 45.5141 13.3795C45.4814 13.4196 45.4409 13.4525 45.3951 13.4765L42.9724 14.8734C42.9142 14.9078 42.8477 14.9258 42.78 14.9255Z" fill="#F76031"/>
<path d="M33.9396 17.1128C33.8699 17.1129 33.8015 17.0939 33.7417 17.058C33.682 17.0221 33.6332 16.9706 33.6005 16.909C33.5679 16.8474 33.5527 16.7781 33.5565 16.7085C33.5603 16.6389 33.583 16.5717 33.6222 16.514L34.339 15.4599L33.1185 16.1644C33.0401 16.2097 32.9482 16.2257 32.8592 16.2097C32.7701 16.1936 32.6896 16.1466 32.6318 16.077C32.5741 16.0073 32.5429 15.9194 32.5437 15.829C32.5445 15.7385 32.5773 15.6512 32.6362 15.5825L33.1591 14.9746L32.4361 15.3916C32.359 15.4361 32.2688 15.4524 32.181 15.4376C32.0932 15.4228 32.0132 15.3779 31.9549 15.3106C31.8966 15.2433 31.8635 15.1578 31.8614 15.0688C31.8592 14.9798 31.8882 14.8928 31.9432 14.8228L32.6109 13.9756L31.6633 14.5207C31.5843 14.5658 31.4918 14.5812 31.4023 14.5643C31.3129 14.5474 31.2324 14.4993 31.1753 14.4284C31.1181 14.3576 31.088 14.2688 31.0903 14.1778C31.0927 14.0869 31.1273 13.9997 31.188 13.9319L31.5867 13.4934L31.0354 13.8115C30.9612 13.8549 30.8746 13.872 30.7895 13.8601C30.7044 13.8483 30.6257 13.8082 30.5661 13.7463C30.5065 13.6844 30.4694 13.6043 30.4608 13.5188C30.4522 13.4333 30.4726 13.3474 30.5187 13.2749L31.3812 11.8887L30.0303 12.6707C29.9541 12.7143 29.8653 12.7305 29.7786 12.7164C29.692 12.7024 29.6128 12.659 29.5542 12.5936C29.4957 12.5281 29.4614 12.4446 29.4571 12.3569C29.4528 12.2692 29.4787 12.1827 29.5305 12.1118L30.2803 11.096L29.1924 11.7232C29.1128 11.7687 29.0194 11.7842 28.9294 11.7669C28.8393 11.7495 28.7585 11.7004 28.7015 11.6285C28.6445 11.5566 28.6152 11.4667 28.6189 11.375C28.6226 11.2834 28.6591 11.1961 28.7216 11.129L29.0283 10.8008L28.5959 11.05C28.5212 11.093 28.4342 11.1096 28.349 11.0971C28.2637 11.0846 28.1851 11.0438 28.1259 10.9811C28.0667 10.9185 28.0304 10.8377 28.0227 10.7519C28.0151 10.666 28.0366 10.5801 28.0838 10.508L28.9271 9.22382L27.6399 9.96672C27.5613 10.0119 27.4693 10.0278 27.3802 10.0115C27.2911 9.99533 27.2106 9.94807 27.153 9.87815C27.0953 9.80823 27.0644 9.72017 27.0655 9.62958C27.0666 9.53899 27.0998 9.45173 27.1592 9.38328L27.6629 8.80368L26.9667 9.20618C26.8925 9.2484 26.8064 9.26464 26.7219 9.25234C26.6375 9.24003 26.5595 9.19989 26.5004 9.13827C26.4414 9.07665 26.4046 8.99707 26.3958 8.91216C26.3871 8.82725 26.407 8.74186 26.4523 8.66952L27.3071 7.33475L25.9862 8.10142C25.9107 8.14543 25.8225 8.16236 25.7361 8.1494C25.6497 8.13644 25.5704 8.09437 25.5112 8.03016C25.452 7.96594 25.4165 7.88343 25.4105 7.79628C25.4046 7.70914 25.4287 7.62258 25.4786 7.55095L26.2882 6.38562L25.0846 7.08022C25.0084 7.12387 24.9196 7.14008 24.833 7.12613C24.7463 7.11217 24.6671 7.0689 24.6085 7.00355C24.5494 6.93844 24.5144 6.85499 24.5096 6.76719C24.5047 6.67939 24.5301 6.59258 24.5816 6.52132L25.3567 5.45105L24.2267 6.10425C24.1514 6.14772 24.0637 6.16435 23.9778 6.1514C23.8918 6.13846 23.8129 6.09671 23.7538 6.03299C23.6947 5.96928 23.659 5.88739 23.6526 5.80074C23.6462 5.71409 23.6694 5.62782 23.7184 5.55608L24.5418 4.34935L23.3067 5.06005C23.2187 5.11008 23.1145 5.12328 23.0168 5.09675C22.9191 5.07023 22.8358 5.00615 22.7852 4.91848C22.7346 4.83082 22.7207 4.72669 22.7466 4.62883C22.7725 4.53097 22.836 4.44731 22.9233 4.39612L25.6159 2.84208C25.6911 2.79861 25.7789 2.78198 25.8648 2.79493C25.9507 2.80788 26.0297 2.84963 26.0888 2.91334C26.1478 2.97705 26.1835 3.05895 26.1899 3.1456C26.1964 3.23224 26.1732 3.31851 26.1242 3.39025L25.3 4.60005L26.5343 3.88782C26.6104 3.84367 26.6993 3.82702 26.7862 3.84067C26.8731 3.85432 26.9527 3.89743 27.0115 3.96277C27.0704 4.02812 27.105 4.11172 27.1096 4.19955C27.1141 4.28739 27.0883 4.37411 27.0365 4.44518L26.2591 5.51238L27.3892 4.86072C27.4646 4.8171 27.5527 4.80048 27.6388 4.81361C27.725 4.82674 27.8041 4.86883 27.8631 4.93294C27.9221 4.99705 27.9575 5.07935 27.9635 5.16629C27.9695 5.25322 27.9456 5.3396 27.8959 5.41118L27.0863 6.57575L28.29 5.88192C28.3642 5.8397 28.4504 5.82346 28.5348 5.83576C28.6193 5.84807 28.6972 5.88821 28.7563 5.94983C28.8154 6.01145 28.8522 6.09102 28.8609 6.17594C28.8696 6.26085 28.8497 6.34624 28.8044 6.41858L27.9496 7.75258L29.2698 6.99128C29.3483 6.94613 29.4403 6.93025 29.5295 6.94646C29.6186 6.96267 29.6991 7.00993 29.7567 7.07985C29.8143 7.14977 29.8453 7.23783 29.8442 7.32842C29.843 7.41901 29.8099 7.50627 29.7505 7.57472L29.2468 8.15278L29.9406 7.75258C30.0153 7.70956 30.1023 7.69296 30.1876 7.70545C30.2729 7.71795 30.3514 7.75883 30.4106 7.82147C30.4698 7.88412 30.5062 7.96488 30.5138 8.05073C30.5215 8.13658 30.5 8.2225 30.4528 8.29462L29.6094 9.57955L30.8951 8.83742C30.9748 8.7913 31.0685 8.77541 31.1589 8.79266C31.2494 8.80991 31.3306 8.85914 31.3877 8.93135C31.4449 9.00356 31.4741 9.09393 31.4701 9.18592C31.4661 9.27792 31.4291 9.36539 31.3659 9.43235L31.0592 9.75972L31.4893 9.51132C31.5656 9.46696 31.6548 9.45028 31.742 9.4641C31.8291 9.47791 31.9089 9.52137 31.9677 9.58713C32.0265 9.6529 32.0609 9.73695 32.0649 9.8251C32.069 9.91325 32.0425 10.0001 31.9899 10.071L31.2394 11.0868L32.3257 10.4604C32.3994 10.4168 32.4856 10.3995 32.5704 10.4112C32.6552 10.4229 32.7335 10.4629 32.7926 10.5248C32.8522 10.5862 32.8895 10.6657 32.8987 10.7507C32.9079 10.8358 32.8883 10.9214 32.8432 10.9941L31.9815 12.3794L33.3308 11.6005C33.4099 11.5554 33.5024 11.54 33.5918 11.5569C33.6812 11.5738 33.7617 11.6219 33.8189 11.6928C33.876 11.7636 33.9062 11.8524 33.9038 11.9434C33.9015 12.0343 33.8669 12.1215 33.8062 12.1893L33.4067 12.6301L33.958 12.3119C34.0351 12.2675 34.1253 12.2512 34.2131 12.266C34.301 12.2808 34.3809 12.3257 34.4392 12.393C34.4975 12.4603 34.5306 12.5458 34.5327 12.6348C34.5349 12.7238 34.5059 12.8108 34.4509 12.8808L33.7816 13.7287L34.7262 13.1836C34.8046 13.1384 34.8964 13.1224 34.9855 13.1384C35.0745 13.1545 35.1551 13.2015 35.2128 13.2711C35.2705 13.3408 35.3018 13.4287 35.301 13.5191C35.3002 13.6096 35.2674 13.6969 35.2084 13.7655L34.6855 14.3735L35.4077 13.9572C35.4829 13.914 35.5705 13.8976 35.6562 13.9106C35.7418 13.9236 35.8206 13.9653 35.8796 14.0288C35.9386 14.0923 35.9743 14.1739 35.9809 14.2603C35.9875 14.3467 35.9647 14.4329 35.916 14.5046L35.1977 15.5634L35.7995 15.2168C35.8431 15.1891 35.8919 15.1705 35.9429 15.1621C35.994 15.1537 36.0461 15.1557 36.0964 15.168C36.1466 15.1803 36.1938 15.2027 36.2351 15.2337C36.2765 15.2647 36.3112 15.3038 36.337 15.3485C36.3629 15.3933 36.3795 15.4428 36.3857 15.4941C36.3919 15.5454 36.3877 15.5975 36.3733 15.6472C36.3589 15.6968 36.3346 15.743 36.3019 15.783C36.2691 15.8231 36.2286 15.8561 36.1828 15.88L34.1312 17.0645C34.0728 17.0973 34.0066 17.114 33.9396 17.1128Z" fill="#2CB2B3"/>
<path d="M11.5276 17.2224C11.4513 17.2214 11.3769 17.1975 11.3142 17.154C11.2515 17.1105 11.2032 17.0492 11.1755 16.978C11.1478 16.9069 11.142 16.829 11.1589 16.7546C11.1757 16.6801 11.2144 16.6123 11.27 16.56L12.098 15.8002L10.5769 16.6788C10.493 16.7272 10.3939 16.7419 10.2995 16.7202C10.2051 16.6984 10.1225 16.6417 10.0682 16.5615C10.0139 16.4813 9.99198 16.3835 10.0069 16.2877C10.0217 16.192 10.0723 16.1055 10.1484 16.0456L13.1261 13.7111L10.2128 15.3931C10.1278 15.4427 10.0269 15.4577 9.93119 15.435C9.83543 15.4123 9.75207 15.3536 9.69837 15.2712C9.64468 15.1887 9.62475 15.0887 9.64273 14.992C9.6607 14.8952 9.7152 14.8091 9.79494 14.7514L14.4034 11.3934L12.4499 12.5212C12.364 12.571 12.2621 12.5856 12.1657 12.5618C12.0693 12.538 11.9859 12.4778 11.933 12.3937C11.8801 12.3096 11.8619 12.2083 11.8823 12.1111C11.9026 12.0139 11.9599 11.9284 12.042 11.8726L14.1887 10.4082C14.1204 10.4135 14.052 10.3998 13.991 10.3687C13.9301 10.3376 13.8788 10.2902 13.8429 10.2319C13.7899 10.1486 13.7711 10.0481 13.7904 9.95125C13.8097 9.85441 13.8656 9.76875 13.9464 9.71212L17.8005 7.00425L16.8084 7.57695C16.7241 7.62464 16.6249 7.63866 16.5307 7.6162C16.4365 7.59374 16.3543 7.53646 16.3006 7.45587C16.2469 7.37528 16.2257 7.27735 16.2413 7.18177C16.2568 7.08619 16.308 7.00003 16.3844 6.94062L19.2709 4.74335C19.1879 4.77401 19.0969 4.77501 19.0132 4.74618C18.9296 4.71735 18.8584 4.66046 18.812 4.58517C18.7655 4.50988 18.7464 4.42082 18.7581 4.33311C18.7698 4.2454 18.8115 4.16443 18.8761 4.10395L21.3248 1.80395C21.3125 1.78922 21.3018 1.77329 21.2926 1.75642C21.2663 1.71284 21.2489 1.66446 21.2415 1.6141C21.2341 1.56373 21.2368 1.51239 21.2494 1.46308C21.262 1.41376 21.2844 1.36745 21.3151 1.32686C21.3458 1.28627 21.3843 1.2522 21.4283 1.22665L22.76 0.459982C22.8417 0.410309 22.939 0.392951 23.0328 0.411313C23.1267 0.429676 23.2102 0.482434 23.2672 0.559237C23.3241 0.63604 23.3503 0.731344 23.3406 0.826452C23.3309 0.921559 23.286 1.0096 23.2147 1.07332L21.8048 2.39582L24.0664 1.09248C24.1507 1.04571 24.2495 1.03238 24.3431 1.05515C24.4367 1.07792 24.5183 1.13511 24.5717 1.21535C24.6251 1.29558 24.6462 1.39297 24.631 1.48812C24.6158 1.58327 24.5654 1.66921 24.4896 1.72882L21.6407 3.89618L24.8875 2.02245C24.9729 1.97451 25.0733 1.96103 25.1682 1.98476C25.2632 2.00849 25.3455 2.06764 25.3982 2.15008C25.4509 2.23252 25.4702 2.33202 25.4519 2.42817C25.4336 2.52432 25.3793 2.60984 25.3 2.66722L21.4444 5.37585L22.1712 4.95648C22.2571 4.90663 22.359 4.89206 22.4554 4.91584C22.5519 4.93962 22.6353 4.99989 22.6882 5.08396C22.741 5.16803 22.7592 5.26934 22.7389 5.36654C22.7185 5.46375 22.6612 5.54926 22.5791 5.60508L20.4324 7.06942C20.5003 7.06369 20.5685 7.07684 20.6294 7.10741C20.6902 7.13799 20.7415 7.1848 20.7774 7.24268C20.8311 7.32491 20.8511 7.42459 20.8334 7.52116C20.8157 7.61773 20.7617 7.70383 20.6824 7.76172L16.0755 11.1166L17.4294 10.3346C17.5135 10.2849 17.6134 10.2691 17.7087 10.2905C17.804 10.3119 17.8875 10.3689 17.9422 10.4499C17.997 10.5308 18.0187 10.6296 18.003 10.726C17.9874 10.8224 17.9355 10.9092 17.858 10.9687L14.8266 13.3453C14.9096 13.3204 14.9987 13.3245 15.0792 13.3567C15.1597 13.389 15.2269 13.4476 15.2698 13.5229C15.3127 13.5983 15.3288 13.686 15.3154 13.7717C15.302 13.8574 15.2599 13.936 15.1961 13.9947L13.1782 15.8439C13.1844 15.8539 13.1913 15.8631 13.1966 15.873C13.2475 15.9611 13.2612 16.0657 13.2349 16.1639C13.2086 16.2621 13.1444 16.3458 13.0563 16.3967L11.7193 17.1733C11.6609 17.2065 11.5947 17.2234 11.5276 17.2224Z" fill="#2CB2B3"/>
<path d="M31.822 45.5937C31.7443 45.5936 31.6685 45.5698 31.6046 45.5256C31.5407 45.4814 31.4917 45.4188 31.4642 45.3462C31.4367 45.2735 31.4319 45.1942 31.4505 45.1187C31.4691 45.0433 31.5101 44.9752 31.5683 44.9237L32.1348 44.4207L30.1929 45.5401C30.1143 45.5847 30.0226 45.6002 29.9337 45.5838C29.8449 45.5674 29.7647 45.5202 29.7073 45.4504C29.6499 45.3806 29.619 45.2928 29.62 45.2025C29.621 45.1121 29.654 45.0251 29.7129 44.9566L30.8315 43.6794L27.6069 45.5401C27.527 45.5862 27.4332 45.602 27.3426 45.5846C27.2521 45.5672 27.1708 45.5177 27.1138 45.4452C27.0568 45.3727 27.0278 45.2821 27.0322 45.1899C27.0366 45.0978 27.074 45.0103 27.1377 44.9436L28.1765 43.8565L25.2586 45.5431C25.177 45.5899 25.081 45.605 24.9889 45.5855C24.8969 45.5661 24.8152 45.5135 24.7594 45.4377C24.7036 45.362 24.6777 45.2684 24.6865 45.1747C24.6952 45.081 24.7381 44.9939 24.807 44.9298L25.5407 44.2544L23.3067 45.5401C23.2267 45.5857 23.1329 45.601 23.0425 45.5832C22.9522 45.5654 22.8712 45.5156 22.8146 45.443C22.7579 45.3704 22.7292 45.2798 22.7339 45.1878C22.7385 45.0958 22.7761 45.0086 22.8398 44.9421L23.8602 43.8864L20.9959 45.5401C20.9142 45.5915 20.8162 45.6103 20.7213 45.5925C20.6264 45.5748 20.5416 45.5219 20.484 45.4445C20.4264 45.367 20.4002 45.2707 20.4105 45.1747C20.4208 45.0787 20.467 44.9902 20.5398 44.9267L21.39 44.1256L18.9367 45.5416C18.8567 45.5872 18.7631 45.6026 18.6728 45.5848C18.5825 45.5671 18.5016 45.5175 18.4448 45.445C18.3881 45.3726 18.3593 45.2821 18.3637 45.1902C18.3682 45.0983 18.4055 45.011 18.469 44.9444L19.4971 43.8756L16.6052 45.5401C16.524 45.5897 16.4273 45.6074 16.3338 45.5897C16.2403 45.572 16.1567 45.5201 16.0993 45.4442C16.0419 45.3683 16.0148 45.2737 16.0233 45.1789C16.0318 45.0841 16.0753 44.9959 16.1452 44.9313L17.0016 44.1141L14.5322 45.5401C14.4559 45.584 14.3668 45.6003 14.2799 45.5864C14.193 45.5724 14.1136 45.5289 14.0549 45.4632C13.9963 45.3976 13.962 45.3138 13.9579 45.2258C13.9538 45.1379 13.9801 45.0512 14.0323 44.9804L15.1708 43.4417L11.5353 45.5401C11.4563 45.5851 11.3638 45.6006 11.2745 45.5838C11.1851 45.567 11.1046 45.519 11.0474 45.4483C10.9902 45.3776 10.9599 45.2889 10.9621 45.198C10.9642 45.1071 10.9987 45.0199 11.0592 44.952L12.1586 43.7315L9.02443 45.5401C8.947 45.5848 8.85637 45.6011 8.76821 45.586C8.68006 45.571 8.59994 45.5256 8.54171 45.4577C8.48349 45.3899 8.45082 45.3038 8.44937 45.2144C8.44792 45.125 8.47777 45.0379 8.53376 44.9681L9.67916 43.5421L6.21613 45.5401C6.13455 45.5849 6.03942 45.5986 5.94851 45.5785C5.8576 45.5584 5.77712 45.5058 5.7221 45.4307C5.66708 45.3556 5.64128 45.263 5.64951 45.1703C5.65775 45.0775 5.69946 44.991 5.76686 44.9267L6.4492 44.3065L4.30866 45.5401C4.2289 45.5857 4.13541 45.6011 4.04522 45.5835C3.95504 45.566 3.87416 45.5166 3.81731 45.4444C3.76046 45.3723 3.73143 45.2821 3.73549 45.1903C3.73956 45.0985 3.77645 45.0112 3.83946 44.9444L4.88366 43.8473L1.9481 45.5401C1.86986 45.5848 1.77835 45.6006 1.68964 45.5846C1.60093 45.5686 1.52069 45.5219 1.46303 45.4526C1.40537 45.3833 1.37396 45.2959 1.37434 45.2058C1.37472 45.1156 1.40685 45.0285 1.4651 44.9597L2.59593 43.6364L0.981329 44.5695C0.911061 44.6086 0.830278 44.6246 0.750412 44.6152C0.670545 44.6059 0.595639 44.5717 0.536293 44.5174C0.476947 44.4631 0.436167 44.3916 0.419723 44.3129C0.403278 44.2342 0.412003 44.1523 0.444662 44.0788L0.897762 43.0821C0.80943 43.0965 0.718845 43.0796 0.641711 43.0342C0.564576 42.9888 0.505753 42.9178 0.475439 42.8336C0.445124 42.7494 0.445229 42.6573 0.475735 42.5731C0.50624 42.489 0.565224 42.4182 0.642462 42.373L1.53256 41.8593C1.60276 41.8204 1.68341 41.8044 1.76314 41.8138C1.84286 41.8231 1.91764 41.8573 1.97693 41.9114C2.03621 41.9655 2.07701 42.0369 2.09357 42.1154C2.11013 42.194 2.10162 42.2757 2.06923 42.3492L1.63376 43.3083L4.1446 41.8601C4.22283 41.8153 4.31434 41.7995 4.40305 41.8155C4.49176 41.8315 4.572 41.8783 4.62966 41.9475C4.68733 42.0168 4.71873 42.1042 4.71835 42.1944C4.71797 42.2845 4.68584 42.3716 4.6276 42.4404L3.49676 43.7629L6.79726 41.8601C6.87704 41.8139 6.97077 41.7981 7.06128 41.8154C7.15179 41.8328 7.23303 41.8821 7.29011 41.9545C7.34719 42.0268 7.37629 42.1173 7.37209 42.2094C7.36789 42.3014 7.33066 42.3889 7.26723 42.4558L6.22226 43.5529L9.15783 41.8585C9.23941 41.8136 9.33453 41.8 9.42545 41.8201C9.51636 41.8402 9.59684 41.8927 9.65186 41.9679C9.70688 42.043 9.73268 42.1355 9.72444 42.2283C9.71621 42.321 9.67449 42.4076 9.6071 42.4719L8.92553 43.0921L11.0661 41.8601C11.1435 41.8158 11.2339 41.7999 11.3218 41.8151C11.4097 41.8303 11.4895 41.8757 11.5476 41.9434C11.6056 42.0112 11.6382 42.097 11.6397 42.1862C11.6412 42.2754 11.6116 42.3623 11.556 42.432L10.4113 43.8534L13.8767 41.8601C13.9557 41.815 14.0481 41.7995 14.1375 41.8163C14.2268 41.8331 14.3073 41.8811 14.3645 41.9518C14.4218 42.0225 14.452 42.1112 14.4498 42.2021C14.4477 42.293 14.4133 42.3802 14.3528 42.4481L13.2526 43.6686L16.3837 41.8601C16.4599 41.8161 16.549 41.7998 16.6359 41.8138C16.7228 41.8277 16.8023 41.8712 16.8609 41.9369C16.9195 42.0025 16.9538 42.0864 16.9579 42.1743C16.962 42.2622 16.9358 42.3489 16.8835 42.4197L15.7443 43.9584L19.3813 41.8601C19.4625 41.8104 19.5593 41.7927 19.6528 41.8104C19.7463 41.8281 19.8299 41.88 19.8873 41.9559C19.9446 42.0319 19.9717 42.1264 19.9632 42.2212C19.9547 42.316 19.9113 42.4043 19.8413 42.4688L18.9865 43.2861L21.4567 41.8601C21.5366 41.8139 21.6305 41.7981 21.7212 41.8156C21.8118 41.8331 21.8931 41.8828 21.9501 41.9554C22.007 42.0281 22.0359 42.1188 22.0313 42.211C22.0267 42.3032 21.989 42.3907 21.9251 42.4573L20.8963 43.526L23.782 41.8601C23.8637 41.8095 23.9614 41.7915 24.0557 41.8096C24.15 41.8276 24.2342 41.8804 24.2914 41.9575C24.3487 42.0347 24.3749 42.1305 24.3649 42.226C24.3549 42.3215 24.3094 42.4098 24.2374 42.4734L23.3941 43.2792L25.8474 41.8639C25.9274 41.8182 26.0212 41.8029 26.1115 41.8208C26.2019 41.8386 26.2828 41.8883 26.3395 41.9609C26.3962 42.0335 26.4248 42.1241 26.4202 42.2161C26.4156 42.3081 26.378 42.3953 26.3143 42.4619L25.2939 43.5176L28.1566 41.8601C28.2382 41.814 28.3339 41.7994 28.4256 41.819C28.5172 41.8387 28.5985 41.8913 28.654 41.9668C28.7095 42.0423 28.7354 42.1356 28.7268 42.2289C28.7183 42.3223 28.6758 42.4093 28.6074 42.4734L27.8729 43.1488L30.1078 41.8601C30.1876 41.8139 30.2814 41.7981 30.372 41.8155C30.4626 41.833 30.5438 41.8825 30.6009 41.955C30.6579 42.0274 30.6869 42.1181 30.6825 42.2102C30.6781 42.3023 30.6406 42.3898 30.577 42.4565L29.5381 43.5437L32.4561 41.857C32.5346 41.8123 32.6264 41.7968 32.7152 41.8132C32.8041 41.8296 32.8843 41.8769 32.9417 41.9467C32.9991 42.0164 33.03 42.1042 33.0289 42.1946C33.0279 42.2849 32.995 42.372 32.936 42.4404L31.8167 43.7185L35.0413 41.8601C35.1234 41.814 35.2196 41.7998 35.3115 41.8201C35.4035 41.8404 35.4847 41.8939 35.5398 41.9702C35.5948 42.0466 35.6198 42.1406 35.6101 42.2342C35.6003 42.3279 35.5564 42.4146 35.4867 42.478L34.9194 42.9817L36.8629 41.8601C36.9389 41.8167 37.0275 41.8007 37.1139 41.8147C37.2003 41.8287 37.2793 41.8718 37.3378 41.937C37.3963 42.0021 37.4308 42.0853 37.4354 42.1727C37.4401 42.2601 37.4147 42.3464 37.3635 42.4174L36.2281 43.9707L39.8843 41.8601C39.966 41.8112 40.0629 41.7944 40.1563 41.8131C40.2496 41.8317 40.3327 41.8845 40.3893 41.961C40.4459 42.0375 40.472 42.1323 40.4626 42.227C40.4531 42.3218 40.4088 42.4096 40.3382 42.4734L39.5477 43.2117L41.8891 41.8601C41.9686 41.815 42.0615 41.7998 42.1511 41.8172C42.2408 41.8346 42.3213 41.8834 42.3781 41.9549C42.435 42.0263 42.4645 42.1158 42.4613 42.207C42.4581 42.2983 42.4224 42.3854 42.3606 42.4527L41.295 43.5935L44.2949 41.8601C44.3748 41.8139 44.4686 41.7981 44.5592 41.8155C44.6497 41.833 44.731 41.8825 44.788 41.955C44.8451 42.0274 44.874 42.1181 44.8696 42.2102C44.8652 42.3023 44.8278 42.3898 44.7641 42.4565L43.733 43.5299L45.0187 42.7877C45.0955 42.7434 45.1853 42.7272 45.2728 42.7417C45.3603 42.7562 45.4401 42.8007 45.4985 42.8674C45.5569 42.9341 45.5904 43.019 45.5932 43.1077C45.596 43.1963 45.568 43.2832 45.5139 43.3535L45.0777 43.9193C45.1672 43.8883 45.2649 43.8915 45.3522 43.9282C45.4394 43.965 45.51 44.0327 45.5503 44.1184C45.5905 44.2041 45.5977 44.3017 45.5703 44.3923C45.5429 44.483 45.483 44.5603 45.402 44.6093L43.792 45.5378C43.7152 45.5817 43.6256 45.5977 43.5384 45.5831C43.4512 45.5685 43.3717 45.5242 43.3134 45.4577C43.2551 45.3912 43.2216 45.3066 43.2186 45.2182C43.2155 45.1298 43.2431 45.0431 43.2967 44.9727L43.7238 44.4177L41.7833 45.5401C41.7035 45.5857 41.6099 45.601 41.5197 45.5834C41.4294 45.5658 41.3485 45.5163 41.2917 45.444C41.2349 45.3716 41.206 45.2813 41.2103 45.1895C41.2145 45.0976 41.2517 45.0104 41.3149 44.9436L42.3445 43.8703L39.4511 45.5401C39.3717 45.5851 39.2788 45.6003 39.1891 45.5829C39.0995 45.5655 39.019 45.5167 38.9621 45.4452C38.9053 45.3738 38.8758 45.2844 38.879 45.1931C38.8822 45.1018 38.9179 45.0147 38.9796 44.9474L40.0453 43.8059L37.0392 45.5401C36.9575 45.5882 36.8609 45.6044 36.768 45.5854C36.6752 45.5665 36.5926 45.5138 36.5362 45.4376C36.4799 45.3613 36.4538 45.2669 36.463 45.1726C36.4723 45.0782 36.5161 44.9906 36.5861 44.9267L37.3758 44.1892L35.0367 45.5401C34.9606 45.5834 34.872 45.5994 34.7856 45.5854C34.6992 45.5714 34.6202 45.5283 34.5617 45.4632C34.5032 45.398 34.4688 45.3149 34.4641 45.2275C34.4594 45.14 34.4848 45.0537 34.536 44.9827L35.6722 43.4287L32.0137 45.5401C31.9557 45.5748 31.8896 45.5933 31.822 45.5937Z" fill="#B1CDDD"/>
<path d="M17.3819 42.55C17.3002 42.5499 17.2208 42.5237 17.155 42.4753C17.0893 42.4269 17.0408 42.3587 17.0165 42.2808C16.9922 42.2028 16.9934 42.1192 17.02 42.042C17.0465 41.9648 17.097 41.8981 17.1641 41.8516L22.7447 37.9876L15.548 42.1391C15.4617 42.1891 15.3593 42.2036 15.2625 42.1793C15.1658 42.155 15.0823 42.094 15.0298 42.0092C14.9773 41.9244 14.9599 41.8224 14.9814 41.725C15.0028 41.6276 15.0615 41.5423 15.1447 41.4874L20.1081 38.1969L15.548 40.8296C15.4615 40.8799 15.3587 40.8944 15.2617 40.87C15.1646 40.8455 15.081 40.7841 15.0286 40.6988C14.9763 40.6135 14.9593 40.5111 14.9815 40.4135C15.0036 40.3159 15.063 40.2308 15.147 40.1764L18.847 37.7584L15.5503 39.662C15.4644 39.7089 15.3637 39.7212 15.269 39.6962C15.1743 39.6713 15.0927 39.6111 15.041 39.5279C14.9893 39.4447 14.9714 39.3449 14.991 39.2489C15.0106 39.153 15.0661 39.0682 15.1463 39.0119L20.5359 35.4085L15.5526 38.2866C15.4665 38.3335 15.3656 38.3455 15.2708 38.3203C15.1761 38.2951 15.0945 38.2345 15.0431 38.151C14.9916 38.0676 14.9741 37.9675 14.9942 37.8715C15.0142 37.7755 15.0703 37.6908 15.1509 37.6349L18.9512 35.1371L15.548 37.1013C15.4622 37.1496 15.3611 37.163 15.2656 37.1387C15.1702 37.1145 15.0878 37.0544 15.0354 36.971C14.9831 36.8876 14.9648 36.7872 14.9845 36.6908C15.0041 36.5943 15.0601 36.509 15.1409 36.4527L20.8533 32.5673L15.5457 35.6339C15.4596 35.6838 15.3575 35.6983 15.2609 35.6743C15.1644 35.6502 15.0809 35.5896 15.0282 35.5052C14.9756 35.4207 14.9578 35.3191 14.9787 35.2218C14.9996 35.1245 15.0575 35.0392 15.1401 34.9838L19.6888 31.9171L15.5488 34.3084C15.4625 34.3559 15.3612 34.3684 15.266 34.3432C15.1707 34.3181 15.0888 34.2572 15.0373 34.1733C14.9857 34.0894 14.9684 33.9888 14.989 33.8925C15.0096 33.7962 15.0664 33.7114 15.1478 33.6559L16.8728 32.5259L15.5488 33.2925C15.463 33.3416 15.3616 33.3556 15.2658 33.3317C15.1699 33.3078 15.087 33.2478 15.0343 33.1642C14.9816 33.0807 14.9632 32.98 14.9829 32.8832C15.0026 32.7864 15.059 32.701 15.1401 32.6447L19.343 29.7551L15.548 31.9447C15.4627 31.9934 15.3621 32.0074 15.2668 31.9841C15.1714 31.9607 15.0887 31.9016 15.0356 31.8191C14.9825 31.7365 14.9632 31.6367 14.9815 31.5403C14.9998 31.4438 15.0544 31.3581 15.134 31.3007L19.5807 28.1298L15.5679 30.4474C15.4832 30.496 15.383 30.5104 15.288 30.4876C15.193 30.4648 15.1103 30.4066 15.0567 30.3249C15.0032 30.2431 14.9829 30.144 15 30.0478C15.017 29.9516 15.0702 29.8656 15.1486 29.8073L18.9926 26.9706L15.8792 28.7677C15.7945 28.817 15.6941 28.8319 15.5987 28.8095C15.5033 28.7871 15.4201 28.729 15.3662 28.6471C15.3123 28.5652 15.2919 28.4659 15.309 28.3694C15.3261 28.2729 15.3795 28.1866 15.4583 28.1283L17.434 26.6593L16.5907 27.1462C16.5069 27.1949 16.4078 27.21 16.3133 27.1886C16.2188 27.1672 16.1359 27.1108 16.0813 27.0307C16.0268 26.9507 16.0045 26.853 16.0191 26.7572C16.0336 26.6614 16.0839 26.5746 16.1598 26.5144L17.5958 25.3767C17.5422 25.3401 17.4988 25.2906 17.4696 25.2327C17.4404 25.1748 17.4264 25.1104 17.4289 25.0456C17.4313 24.9808 17.4502 24.9177 17.4836 24.8622C17.5171 24.8066 17.5641 24.7605 17.6203 24.7281L20.5375 23.0414C20.6212 22.9927 20.7203 22.9776 20.8148 22.999C20.9093 23.0204 20.9922 23.0768 21.0468 23.1568C21.1014 23.2369 21.1237 23.3346 21.1091 23.4304C21.0945 23.5262 21.0442 23.613 20.9683 23.6732L20.6824 23.9032L22.7746 22.6934C22.8593 22.6441 22.9597 22.6291 23.0551 22.6515C23.1505 22.6739 23.2337 22.7321 23.2876 22.8139C23.3415 22.8958 23.362 22.9952 23.3448 23.0917C23.3277 23.1882 23.2743 23.2744 23.1955 23.3328L21.219 24.8017L24.5287 22.8904C24.6135 22.8418 24.7136 22.8275 24.8087 22.8503C24.9037 22.873 24.9864 22.9312 25.0399 23.013C25.0935 23.0947 25.1138 23.1938 25.0967 23.29C25.0796 23.3862 25.0265 23.4722 24.9481 23.5306L21.1071 26.3672L26.1433 23.46C26.2284 23.413 26.3282 23.4001 26.4225 23.4238C26.5168 23.4476 26.5985 23.5063 26.6511 23.5881C26.7037 23.6698 26.7233 23.7685 26.7059 23.8642C26.6885 23.9598 26.6354 24.0453 26.5573 24.1033L22.1107 27.2742L27.4007 24.2221C27.4865 24.1712 27.5888 24.1558 27.6858 24.1792C27.7828 24.2025 27.8669 24.2628 27.9201 24.3471C27.9734 24.4314 27.9918 24.5332 27.9712 24.6308C27.9507 24.7285 27.8928 24.8142 27.8101 24.8699L23.6041 27.761L28.3199 25.0386C28.4062 24.9911 28.5075 24.9786 28.6027 25.0037C28.6979 25.0289 28.7798 25.0897 28.8314 25.1737C28.883 25.2576 28.9003 25.3581 28.8797 25.4545C28.8591 25.5508 28.8022 25.6355 28.7209 25.691L26.9867 26.8219L28.8972 25.7194C28.9834 25.6655 29.0875 25.6481 29.1866 25.6709C29.2856 25.6938 29.3716 25.7551 29.4254 25.8413C29.4793 25.9275 29.4968 26.0316 29.4739 26.1307C29.451 26.2297 29.3898 26.3156 29.3035 26.3695L24.7587 29.4308L29.5167 26.68C29.6023 26.6335 29.7025 26.6214 29.7967 26.646C29.891 26.6707 29.9724 26.7304 30.0242 26.8129C30.0761 26.8954 30.0946 26.9946 30.0759 27.0903C30.0572 27.1859 30.0028 27.2709 29.9238 27.3279L24.2067 31.2149L30.0334 27.85C30.1198 27.8009 30.2218 27.7872 30.3181 27.8119C30.4143 27.8366 30.4972 27.8976 30.5493 27.9822C30.6014 28.0668 30.6186 28.1683 30.5973 28.2654C30.576 28.3624 30.5179 28.4474 30.4351 28.5024L26.6378 30.9987L30.3048 28.8811C30.3908 28.8329 30.4921 28.8197 30.5876 28.8442C30.6832 28.8688 30.7655 28.9292 30.8177 29.0129C30.8698 29.0966 30.8876 29.1972 30.8675 29.2937C30.8474 29.3903 30.7908 29.4753 30.7096 29.5313L25.313 33.1346L30.4428 30.1722C30.5293 30.1219 30.6321 30.1074 30.7291 30.1319C30.8262 30.1563 30.9098 30.2177 30.9622 30.303C31.0146 30.3883 31.0315 30.4907 31.0094 30.5883C30.9872 30.6859 30.9278 30.771 30.8438 30.8254L27.1492 33.2404L30.4512 31.3345C30.5374 31.2849 30.6394 31.2706 30.7358 31.2948C30.8322 31.319 30.9154 31.3797 30.968 31.464C31.0207 31.5487 31.0384 31.6506 31.0172 31.7481C30.996 31.8456 30.9376 31.931 30.8545 31.9861L25.8934 35.2751L30.4535 32.6424C30.5392 32.594 30.6401 32.5805 30.7355 32.6044C30.8309 32.6284 30.9134 32.6881 30.966 32.7712C31.0185 32.8543 31.0372 32.9545 31.018 33.0509C30.9988 33.1474 30.9433 33.2328 30.8629 33.2895L25.2778 37.1565L30.4566 34.1665C30.5428 34.1175 30.6446 34.1038 30.7406 34.1282C30.8367 34.1527 30.9196 34.2134 30.9718 34.2976C31.0241 34.3818 31.0417 34.483 31.021 34.5799C31.0003 34.6768 30.9428 34.762 30.8606 34.8174L29.4645 35.7459L30.4612 35.1724C30.5473 35.1225 30.6494 35.108 30.746 35.1321C30.8426 35.1561 30.926 35.2167 30.9787 35.3012C31.0313 35.3856 31.0491 35.4872 31.0282 35.5845C31.0073 35.6818 30.9494 35.7671 30.8668 35.8225L30.5126 36.0594C30.599 36.0255 30.6948 36.024 30.7821 36.0554C30.8695 36.0867 30.9426 36.1487 30.9877 36.2298C31.0328 36.3109 31.047 36.4056 31.0276 36.4964C31.0082 36.5872 30.9565 36.6678 30.8821 36.7234L28.6672 38.3533L30.4658 37.3152C30.5489 37.2674 30.6469 37.2525 30.7405 37.2734C30.8341 37.2944 30.9164 37.3496 30.9713 37.4282C31.0261 37.5068 31.0495 37.6032 31.0368 37.6982C31.0242 37.7932 30.9764 37.8801 30.9028 37.9416L28.9524 39.5616L30.4689 38.6868C30.5464 38.6421 30.6372 38.6261 30.7254 38.6413C30.8136 38.6565 30.8937 38.7022 30.9517 38.7703C31.0098 38.8384 31.0423 38.9246 31.0434 39.0141C31.0445 39.1036 31.0143 39.1907 30.958 39.2603L29.7313 40.7729L30.4735 40.3443C30.5389 40.3068 30.614 40.2893 30.6893 40.2942C30.7646 40.2991 30.8368 40.3262 30.8968 40.3719C30.9568 40.4177 31.002 40.4802 31.0266 40.5515C31.0513 40.6228 31.0544 40.6998 31.0354 40.7729L30.8284 41.5702C30.892 41.5998 30.9463 41.6462 30.9853 41.7044C31.0243 41.7627 31.0467 41.8305 31.0498 41.9006C31.053 41.9706 31.0369 42.0402 31.0032 42.1017C30.9696 42.1632 30.9198 42.2143 30.8591 42.2495L30.4758 42.4711C30.4104 42.5085 30.3354 42.5259 30.2602 42.521C30.185 42.5161 30.1129 42.4892 30.0529 42.4435C29.993 42.3979 29.9478 42.3356 29.923 42.2644C29.8983 42.1932 29.8951 42.1163 29.9138 42.0433L30.0671 41.466L28.3207 42.4741C28.2431 42.5188 28.1524 42.5349 28.0642 42.5196C27.976 42.5044 27.8959 42.4588 27.8378 42.3907C27.7797 42.3226 27.7473 42.2363 27.7462 42.1468C27.745 42.0573 27.7752 41.9702 27.8315 41.9007L29.0582 40.3888L25.4372 42.4787C25.3551 42.5243 25.259 42.538 25.1674 42.5174C25.0757 42.4968 24.9948 42.4432 24.94 42.3669C24.8853 42.2905 24.8604 42.1967 24.8703 42.1033C24.8801 42.0099 24.9239 41.9233 24.9933 41.86L26.9414 40.2408L23.0452 42.4902C22.9605 42.5368 22.8614 42.5496 22.7677 42.5261C22.6739 42.5027 22.5925 42.4447 22.5397 42.3638C22.4868 42.2829 22.4665 42.185 22.4828 42.0897C22.4991 41.9945 22.5507 41.9089 22.6274 41.8501L24.8446 40.2186L20.9047 42.4933C20.8184 42.5471 20.7142 42.5644 20.6152 42.5414C20.5161 42.5184 20.4303 42.4569 20.3765 42.3706C20.3227 42.2843 20.3054 42.1802 20.3284 42.0811C20.3514 41.982 20.4128 41.8962 20.4991 41.8424L20.8058 41.6354L19.32 42.4925C19.2339 42.5401 19.1329 42.5527 19.0377 42.5278C18.9426 42.5029 18.8607 42.4424 18.8089 42.3588C18.7571 42.2752 18.7394 42.1749 18.7595 42.0787C18.7796 41.9824 18.8359 41.8976 18.9167 41.8416L20.3167 40.9109L17.572 42.4956C17.5146 42.5303 17.449 42.549 17.3819 42.55Z" fill="#F76031"/>
<path d="M8.70474 39.4603C8.62789 39.4602 8.55286 39.437 8.48936 39.3937C8.42587 39.3504 8.37685 39.289 8.34867 39.2175C8.32049 39.1461 8.31444 39.0677 8.33131 38.9928C8.34819 38.9178 8.38721 38.8496 8.4433 38.7971L9.56494 37.7437L6.75434 39.3668C6.67023 39.4148 6.57106 39.4291 6.47678 39.407C6.38249 39.3849 6.30007 39.3279 6.24609 39.2475C6.1921 39.1671 6.17054 39.0693 6.18575 38.9736C6.20096 38.878 6.2518 38.7916 6.32807 38.732L7.5302 37.8012L5.8581 38.7657C5.77524 38.8137 5.67742 38.8289 5.58388 38.8084C5.49035 38.7879 5.40787 38.7332 5.35269 38.6549C5.2975 38.5766 5.27361 38.4806 5.2857 38.3856C5.29779 38.2906 5.345 38.2036 5.41804 38.1416L8.72007 35.3502L5.58134 37.1626C5.49596 37.2118 5.3949 37.2263 5.29914 37.203C5.20339 37.1796 5.12029 37.1203 5.06711 37.0373C5.01393 36.9544 4.99475 36.8541 5.01356 36.7574C5.03237 36.6606 5.08771 36.5748 5.1681 36.5178L5.45407 36.3154C5.37124 36.3287 5.28635 36.3144 5.21243 36.2747C5.1385 36.2351 5.07962 36.1723 5.04481 36.096C5.01001 36.0196 5.00119 35.934 5.01972 35.8522C5.03825 35.7704 5.08311 35.6969 5.1474 35.6431L8.57364 32.7872L5.58364 34.5122C5.49946 34.5596 5.4005 34.5734 5.30655 34.551C5.2126 34.5285 5.13059 34.4715 5.07692 34.3911C5.02325 34.3108 5.00187 34.2132 5.01707 34.1178C5.03228 34.0224 5.08293 33.9363 5.1589 33.8767L7.44817 32.1133L5.58364 33.1867C5.49893 33.2359 5.39856 33.2509 5.30315 33.2285C5.20774 33.2061 5.12455 33.148 5.07066 33.0661C5.01677 32.9842 4.99629 32.8848 5.01341 32.7883C5.03054 32.6918 5.08397 32.6056 5.16274 32.5473L6.75587 31.3612L5.58134 32.039C5.49796 32.0866 5.39975 32.1012 5.30612 32.0799C5.2125 32.0585 5.13029 32.0029 5.07574 31.9238C5.0212 31.8448 4.9983 31.7482 5.01156 31.6531C5.02483 31.558 5.07331 31.4714 5.1474 31.4103L8.32217 28.8174L5.58134 30.3998C5.4977 30.4473 5.39926 30.4616 5.30556 30.4399C5.21185 30.4182 5.12973 30.3621 5.07549 30.2826C5.02125 30.2032 4.99885 30.1063 5.01274 30.0111C5.02663 29.9159 5.07579 29.8295 5.15047 29.7689L8.03314 27.4689L5.5798 28.8841C5.49552 28.9318 5.39631 28.9458 5.30211 28.9234C5.20791 28.9009 5.12571 28.8436 5.07201 28.763C5.01832 28.6824 4.99712 28.5845 5.01266 28.4889C5.02821 28.3934 5.07936 28.3072 5.15584 28.2478L6.9391 26.8847L5.58134 27.6667C5.49726 27.7137 5.39854 27.7274 5.30482 27.705C5.21111 27.6826 5.12927 27.6257 5.07562 27.5456C5.02197 27.4656 5.00043 27.3683 5.0153 27.2731C5.03016 27.1779 5.08034 27.0917 5.15584 27.0319L6.19544 26.2284L5.5821 26.5826C5.49943 26.6302 5.40196 26.6453 5.30876 26.6249C5.21555 26.6045 5.13331 26.55 5.07811 26.4722C5.0229 26.3944 4.99871 26.2988 5.01025 26.2041C5.02178 26.1093 5.06823 26.0223 5.1405 25.9601L5.8006 25.3912L5.5821 25.5169C5.50681 25.5603 5.419 25.5768 5.33308 25.5638C5.24717 25.5507 5.16824 25.5088 5.10924 25.445C5.05024 25.3812 5.01468 25.2993 5.00838 25.2126C5.00208 25.1259 5.02542 25.0397 5.07457 24.968L5.64574 24.1392C5.57291 24.1439 5.50018 24.1287 5.43534 24.0952C5.37051 24.0617 5.31602 24.0112 5.27774 23.9491C5.22708 23.8612 5.21333 23.7568 5.23948 23.6588C5.26564 23.5608 5.32957 23.4772 5.41727 23.4262L6.68687 22.6933C6.76209 22.6502 6.8497 22.6339 6.93539 22.647C7.02108 22.6601 7.09979 22.7019 7.15869 22.7655C7.21758 22.8291 7.25318 22.9108 7.25967 22.9972C7.26615 23.0837 7.24315 23.1698 7.1944 23.2415L6.66847 24.0081L8.94394 22.6933C9.0265 22.6466 9.12346 22.6321 9.21605 22.6528C9.30865 22.6734 9.3903 22.7276 9.44524 22.8049C9.50017 22.8823 9.52447 22.9773 9.51344 23.0715C9.50242 23.1657 9.45684 23.2525 9.38554 23.3151L8.7262 23.8832L10.7586 22.7102C10.8427 22.6621 10.9419 22.6478 11.0362 22.6699C11.1305 22.692 11.2129 22.749 11.2669 22.8294C11.3209 22.9098 11.3424 23.0076 11.3272 23.1033C11.312 23.1989 11.2612 23.2853 11.1849 23.345L10.1461 24.1469L11.7062 23.2468C11.7905 23.1991 11.8897 23.1851 11.9839 23.2076C12.0781 23.23 12.1603 23.2873 12.214 23.3679C12.2677 23.4485 12.2889 23.5464 12.2734 23.642C12.2578 23.7376 12.2067 23.8237 12.1302 23.8832L10.3446 25.2478L12.052 24.2627C12.1356 24.2152 12.2341 24.2008 12.3278 24.2226C12.4215 24.2443 12.5036 24.3004 12.5578 24.3798C12.6121 24.4593 12.6345 24.5562 12.6206 24.6513C12.6067 24.7465 12.5575 24.833 12.4829 24.8936L9.6025 27.1936L12.0558 25.7791C12.1392 25.7315 12.2374 25.7169 12.331 25.7382C12.4247 25.7595 12.5069 25.8152 12.5614 25.8942C12.616 25.9733 12.6389 26.0699 12.6256 26.165C12.6123 26.2601 12.5639 26.3467 12.4898 26.4078L9.3127 29.0022L12.0558 27.419C12.1405 27.3697 12.2409 27.3548 12.3363 27.3772C12.4317 27.3996 12.5149 27.4577 12.5688 27.5396C12.6227 27.6214 12.6432 27.7208 12.6261 27.8173C12.6089 27.9138 12.5555 28.0001 12.4767 28.0584L10.8836 29.2445L12.0558 28.5683C12.14 28.5209 12.239 28.507 12.3329 28.5295C12.4269 28.5519 12.5089 28.609 12.5626 28.6893C12.6162 28.7696 12.6376 28.8673 12.6224 28.9626C12.6072 29.058 12.5565 29.1442 12.4806 29.2038L10.1913 30.9672L12.0558 29.8938C12.139 29.846 12.237 29.8311 12.3305 29.852C12.4241 29.873 12.5064 29.9282 12.5613 30.0068C12.6162 30.0854 12.6396 30.1818 12.6269 30.2768C12.6142 30.3718 12.5664 30.4587 12.4928 30.5202L9.0666 33.376L12.0566 31.651C12.142 31.6018 12.243 31.5873 12.3388 31.6107C12.4346 31.634 12.5176 31.6933 12.5708 31.7763C12.624 31.8592 12.6432 31.9595 12.6244 32.0562C12.6056 32.153 12.5502 32.2388 12.4698 32.2958L12.1839 32.4982C12.2668 32.4839 12.3521 32.4974 12.4267 32.5364C12.5012 32.5755 12.5608 32.638 12.5963 32.7143C12.6318 32.7906 12.6412 32.8765 12.6231 32.9587C12.6049 33.0408 12.5602 33.1148 12.4959 33.169L9.18927 35.9566L12.052 34.3045C12.1361 34.2574 12.2348 34.2437 12.3285 34.2661C12.4222 34.2885 12.5041 34.3454 12.5577 34.4255C12.6114 34.5055 12.6329 34.6028 12.618 34.698C12.6032 34.7933 12.553 34.8794 12.4775 34.9393L11.2761 35.87L12.052 35.42C12.1337 35.3711 12.2306 35.3543 12.324 35.373C12.4173 35.3916 12.5004 35.4443 12.557 35.5209C12.6136 35.5974 12.6397 35.6922 12.6303 35.7869C12.6208 35.8817 12.5765 35.9695 12.5059 36.0333L11.385 37.0867L12.052 36.7034C12.1281 36.6593 12.2171 36.6427 12.304 36.6565C12.3909 36.6703 12.4704 36.7135 12.5292 36.7789C12.588 36.8444 12.6225 36.9281 12.6269 37.0159C12.6313 37.1038 12.6054 37.1905 12.5534 37.2615L12.0428 37.9615C12.1252 37.9658 12.204 37.9966 12.2674 38.0493C12.3309 38.1019 12.3757 38.1737 12.3952 38.2538C12.4146 38.334 12.4077 38.4183 12.3754 38.4942C12.3432 38.5701 12.2873 38.6336 12.2161 38.6752L10.9472 39.4082C10.8712 39.4519 10.7824 39.4682 10.6958 39.4544C10.6091 39.4406 10.5298 39.3974 10.4712 39.3322C10.4125 39.267 10.378 39.1836 10.3733 39.096C10.3687 39.0084 10.3943 38.9218 10.4458 38.8508L10.8683 38.272L8.89334 39.4066C8.83633 39.4409 8.77125 39.4594 8.70474 39.4603Z" fill="#2CB2B3"/>
<path d="M36.6175 39.4603C36.5402 39.4603 36.4647 39.4368 36.4009 39.3931C36.3371 39.3493 36.288 39.2872 36.2602 39.2151C36.2323 39.1429 36.2269 39.064 36.2447 38.9887C36.2625 38.9135 36.3027 38.8453 36.3599 38.7933L37.7169 37.5582L34.7867 39.2533C34.7026 39.3007 34.6036 39.3145 34.5096 39.2921C34.4157 39.2696 34.3337 39.2125 34.28 39.1322C34.2263 39.0519 34.205 38.9543 34.2202 38.8589C34.2354 38.7635 34.286 38.6774 34.362 38.6177L35.6998 37.5919L34.0898 38.5242C34.0046 38.5736 33.9037 38.5883 33.808 38.5653C33.7122 38.5423 33.629 38.4833 33.5756 38.4006C33.5221 38.3179 33.5026 38.2178 33.521 38.121C33.5393 38.0243 33.5943 37.9383 33.6743 37.881L34.1052 37.5666L33.9518 37.6571C33.8681 37.7049 33.7694 37.7193 33.6755 37.6976C33.5816 37.6759 33.4993 37.6195 33.4451 37.5399C33.3908 37.4602 33.3686 37.363 33.3828 37.2676C33.397 37.1723 33.4466 37.0858 33.5217 37.0254L36.3515 34.7729L33.948 36.156C33.863 36.205 33.7625 36.2197 33.6671 36.1969C33.5717 36.174 33.4887 36.1155 33.4351 36.0333C33.3814 35.9512 33.3612 35.8516 33.3788 35.755C33.3963 35.6584 33.4502 35.5723 33.5294 35.5143L34.7016 34.6556L33.948 35.0903C33.8643 35.1372 33.766 35.151 33.6727 35.129C33.5793 35.107 33.4975 35.0507 33.4436 34.9713C33.3897 34.892 33.3675 34.7953 33.3814 34.7004C33.3953 34.6054 33.4443 34.5191 33.5187 34.4586L36.3109 32.2406L33.948 33.6053C33.8628 33.6527 33.7627 33.6659 33.6681 33.6422C33.5735 33.6184 33.4915 33.5595 33.4388 33.4774C33.3862 33.3953 33.3668 33.2962 33.3846 33.2003C33.4024 33.1045 33.4561 33.019 33.5348 32.9613L33.8529 32.7313C33.7664 32.7538 33.6748 32.7454 33.5938 32.7075C33.5129 32.6696 33.4477 32.6046 33.4096 32.5237C33.3715 32.4429 33.3629 32.3513 33.3851 32.2647C33.4074 32.1781 33.4593 32.1021 33.5317 32.0497L34.3543 31.4548L33.948 31.6848C33.8632 31.7346 33.7625 31.7499 33.6667 31.7275C33.5709 31.7051 33.4874 31.6468 33.4334 31.5646C33.3794 31.4823 33.3591 31.3825 33.3767 31.2857C33.3943 31.1889 33.4484 31.1026 33.5279 31.0446L34.9462 29.9966L33.9495 30.5723C33.8659 30.6214 33.7669 30.637 33.6722 30.6159C33.5776 30.5949 33.4945 30.5388 33.4396 30.4589C33.3847 30.379 33.3621 30.2813 33.3763 30.1854C33.3906 30.0895 33.4406 30.0026 33.5164 29.9421L36.6083 27.4344L33.9495 28.9677C33.865 29.0161 33.7653 29.0306 33.6705 29.0081C33.5758 28.9856 33.4931 28.928 33.4394 28.8468C33.3856 28.7656 33.3647 28.667 33.381 28.571C33.3973 28.475 33.4496 28.3887 33.5271 28.3298L35.0666 27.1722L33.948 27.83C33.8639 27.8771 33.7652 27.8908 33.6715 27.8683C33.5778 27.8459 33.4959 27.789 33.4423 27.7089C33.3886 27.6289 33.3671 27.5316 33.382 27.4364C33.3968 27.3412 33.447 27.2551 33.5225 27.1952L34.7323 26.2598L33.948 26.7122C33.8682 26.7578 33.7746 26.7732 33.6843 26.7555C33.5941 26.7379 33.5132 26.6884 33.4564 26.6161C33.3996 26.5438 33.3707 26.4534 33.375 26.3616C33.3792 26.2697 33.4163 26.1825 33.4796 26.1157L34.832 24.7058L33.948 25.2156C33.8707 25.2595 33.7805 25.2752 33.6929 25.2599C33.6053 25.2446 33.5257 25.1994 33.4678 25.1318C33.4099 25.0643 33.3773 24.9788 33.3755 24.8899C33.3737 24.801 33.4029 24.7142 33.4581 24.6445L33.8698 24.13C33.7976 24.1093 33.733 24.0678 33.6842 24.0106C33.6354 23.9535 33.6044 23.8833 33.5952 23.8087C33.5859 23.7341 33.5988 23.6584 33.6323 23.5911C33.6657 23.5238 33.7182 23.4678 33.7832 23.4301L35.0535 22.6971C35.1309 22.6532 35.2211 22.6376 35.3087 22.6529C35.3963 22.6682 35.4758 22.7134 35.5337 22.7809C35.5916 22.8484 35.6243 22.934 35.626 23.0229C35.6278 23.1118 35.5986 23.1986 35.5434 23.2683L35.3334 23.5313L36.7816 22.6956C36.8614 22.65 36.955 22.6346 37.0453 22.6523C37.1355 22.6699 37.2164 22.7194 37.2732 22.7917C37.33 22.864 37.3589 22.9543 37.3546 23.0462C37.3504 23.1381 37.3133 23.2253 37.25 23.2921L35.8984 24.7012L39.2832 22.747C39.3673 22.699 39.4665 22.6846 39.5608 22.7067C39.6551 22.7288 39.7375 22.7858 39.7915 22.8662C39.8455 22.9466 39.867 23.0445 39.8518 23.1401C39.8366 23.2357 39.7858 23.3221 39.7095 23.3818L38.4989 24.3179L40.1565 23.3611C40.241 23.3123 40.341 23.2975 40.436 23.3199C40.531 23.3423 40.6139 23.4 40.6678 23.4814C40.7216 23.5628 40.7424 23.6617 40.7259 23.7578C40.7094 23.854 40.6568 23.9402 40.5789 23.9989L39.0387 25.1566L40.4187 24.3608C40.5021 24.313 40.6006 24.2982 40.6944 24.3196C40.7882 24.3409 40.8706 24.3968 40.9251 24.476C40.9797 24.5553 41.0024 24.6522 40.9888 24.7474C40.9753 24.8427 40.9264 24.9294 40.8518 24.9902L37.7614 27.4926L40.4187 25.9593C40.5035 25.9095 40.6042 25.8942 40.7 25.9166C40.7958 25.9389 40.8793 25.9973 40.9333 26.0795C40.9873 26.1618 41.0075 26.2616 40.99 26.3584C40.9724 26.4552 40.9183 26.5415 40.8388 26.5995L39.4166 27.6506L40.4187 27.0733C40.5036 27.026 40.6033 27.0128 40.6976 27.0363C40.7919 27.0597 40.8737 27.1181 40.9266 27.1996C40.9795 27.2811 40.9995 27.3797 40.9825 27.4754C40.9654 27.5711 40.9127 27.6567 40.835 27.715L40.0123 28.3099L40.4187 28.0799C40.5039 28.0325 40.604 28.0193 40.6986 28.043C40.7932 28.0668 40.8751 28.1257 40.9278 28.2078C40.9805 28.2899 40.9999 28.389 40.9821 28.4848C40.9643 28.5807 40.9105 28.6662 40.8319 28.7239L40.516 28.9493C40.6009 28.9281 40.6906 28.9365 40.77 28.9733C40.8494 29.0101 40.9139 29.0729 40.9527 29.1513C40.9914 29.2298 41.0022 29.3192 40.9832 29.4046C40.9641 29.49 40.9164 29.5663 40.848 29.6209L38.0535 31.8442L40.4187 30.4788C40.5036 30.4298 40.604 30.4151 40.6994 30.4379C40.7947 30.4606 40.8778 30.519 40.9314 30.6011C40.985 30.6832 41.0051 30.7827 40.9876 30.8792C40.9701 30.9756 40.9163 31.0617 40.8373 31.1197L39.665 31.97L40.4187 31.5353C40.5024 31.4875 40.6011 31.4731 40.695 31.4948C40.7889 31.5165 40.8712 31.5729 40.9254 31.6525C40.9797 31.7322 41.0019 31.8294 40.9877 31.9248C40.9735 32.0201 40.9239 32.1066 40.8488 32.167L38.0213 34.4233L40.4187 33.0387C40.5039 32.9893 40.6048 32.9746 40.7005 32.9976C40.7963 33.0206 40.8795 33.0796 40.9329 33.1623C40.9864 33.245 41.0059 33.3452 40.9875 33.4419C40.9692 33.5386 40.9142 33.6246 40.8342 33.6819L40.3941 33.997L40.4187 33.9832C40.5028 33.9368 40.6014 33.9236 40.6948 33.9463C40.7882 33.9691 40.8696 34.0261 40.923 34.106C40.9763 34.186 40.9977 34.2831 40.9828 34.3781C40.9679 34.4731 40.9179 34.559 40.8426 34.6188L39.5025 35.6461L40.4225 35.1179C40.5041 35.073 40.5992 35.0594 40.6901 35.0795C40.781 35.0996 40.8615 35.1521 40.9165 35.2272C40.9716 35.3024 40.9974 35.3949 40.9891 35.4877C40.9809 35.5804 40.9392 35.667 40.8718 35.7312L39.514 36.9656L40.4225 36.4412C40.5034 36.3939 40.5988 36.3779 40.6908 36.3962C40.7827 36.4144 40.8647 36.4658 40.9214 36.5405C40.978 36.6151 41.0053 36.708 40.9982 36.8014C40.991 36.8949 40.9499 36.9824 40.8825 37.0476L40.5904 37.3313C40.6595 37.3317 40.7273 37.3495 40.7877 37.383C40.8482 37.4165 40.8992 37.4646 40.9362 37.5229C40.987 37.611 41.0008 37.7156 40.9745 37.8138C40.9482 37.912 40.8839 37.9957 40.7959 38.0466L38.4292 39.4066C38.3483 39.4539 38.2528 39.47 38.1609 39.4517C38.069 39.4334 37.9869 39.382 37.9303 39.3074C37.8737 39.2327 37.8463 39.1399 37.8535 39.0464C37.8607 38.953 37.9018 38.8654 37.9692 38.8002L38.1309 38.6469L36.8084 39.4135C36.7501 39.4458 36.6842 39.4619 36.6175 39.4603Z" fill="#2CB2B3"/>
<path d="M23.1027 19.5209C23.0263 19.5209 22.9516 19.4981 22.8883 19.4553C22.825 19.4126 22.7758 19.3519 22.7472 19.281C22.7186 19.2101 22.7119 19.1324 22.7278 19.0576C22.7438 18.9829 22.7817 18.9146 22.8367 18.8616L24.2642 17.4877L21.5042 19.0816C21.4198 19.129 21.3205 19.1427 21.2264 19.1199C21.1323 19.0971 21.0503 19.0395 20.9969 18.9587C20.9434 18.8779 20.9226 18.7799 20.9385 18.6844C20.9544 18.5889 21.0059 18.5029 21.0826 18.4437L21.4345 18.1785L20.7445 18.5779C20.6613 18.6259 20.5631 18.6409 20.4693 18.62C20.3755 18.599 20.2931 18.5436 20.2382 18.4648C20.1834 18.3859 20.1601 18.2893 20.1731 18.1941C20.186 18.0989 20.2343 18.0121 20.3082 17.9508L22.54 16.1054L19.9226 17.6165C19.8402 17.6644 19.7429 17.6799 19.6497 17.6599C19.5564 17.6399 19.474 17.5859 19.4185 17.5084C19.3629 17.4309 19.3383 17.3356 19.3492 17.2409C19.3602 17.1462 19.4061 17.059 19.4779 16.9963L22.1904 14.6142L19.425 16.2112C19.341 16.261 19.2411 16.2768 19.1458 16.2553C19.0504 16.2339 18.9669 16.1769 18.9122 16.096C18.8575 16.0151 18.8357 15.9163 18.8514 15.8199C18.8671 15.7234 18.919 15.6366 18.9965 15.5772L19.9625 14.8182L19.4258 15.1294C19.3463 15.175 19.253 15.1906 19.163 15.1733C19.073 15.156 18.9922 15.1071 18.9351 15.0353C18.8781 14.9635 18.8487 14.8737 18.8522 14.7821C18.8557 14.6905 18.892 14.6032 18.9543 14.536L20.2331 13.1721C20.1446 13.1868 20.0537 13.1699 19.9764 13.1244C19.8991 13.0789 19.8401 13.0078 19.8098 12.9233C19.7796 12.8389 19.7799 12.7465 19.8107 12.6622C19.8415 12.5779 19.9009 12.5072 19.9786 12.4622L22.034 11.2754C22.1136 11.2293 22.207 11.2134 22.2973 11.2304C22.3877 11.2475 22.4689 11.2964 22.5261 11.3684C22.5834 11.4403 22.6129 11.5304 22.6092 11.6223C22.6056 11.7142 22.569 11.8016 22.5063 11.8688L21.2842 13.1721L24.2267 11.4709C24.3106 11.4235 24.4093 11.4094 24.5031 11.4315C24.5969 11.4536 24.6789 11.5102 24.7329 11.5901C24.7868 11.6699 24.8087 11.7672 24.7942 11.8625C24.7797 11.9577 24.7298 12.044 24.6545 12.1042L23.6923 12.8601L25.1643 12.0106C25.2467 11.9628 25.344 11.9473 25.4373 11.9673C25.5305 11.9873 25.6129 12.0413 25.6684 12.1187C25.724 12.1962 25.7487 12.2916 25.7377 12.3863C25.7267 12.481 25.6808 12.5682 25.609 12.6309L22.895 15.0137L26.1288 13.1468C26.2121 13.0986 26.3105 13.0835 26.4044 13.1044C26.4984 13.1254 26.581 13.181 26.6359 13.2601C26.6907 13.3392 26.7138 13.4361 26.7006 13.5314C26.6873 13.6268 26.6386 13.7136 26.5642 13.7747L24.3294 15.6201L26.5527 14.3367C26.6372 14.2893 26.7365 14.2756 26.8306 14.2984C26.9247 14.3212 27.0067 14.3788 27.0601 14.4596C27.1135 14.5404 27.1344 14.6384 27.1185 14.7339C27.1026 14.8295 27.0511 14.9154 26.9744 14.9746L26.6217 15.2406C26.7037 15.1996 26.7976 15.1892 26.8865 15.2115C26.9755 15.2337 27.0535 15.2871 27.1064 15.3619C27.1593 15.4367 27.1837 15.5281 27.1751 15.6193C27.1665 15.7106 27.1255 15.7957 27.0595 15.8593L25.632 17.2347L26.0552 16.9909C26.0988 16.9632 26.1476 16.9446 26.1986 16.9362C26.2496 16.9278 26.3018 16.9298 26.352 16.9421C26.4022 16.9544 26.4494 16.9767 26.4908 17.0077C26.5322 17.0388 26.5668 17.0778 26.5927 17.1226C26.6186 17.1673 26.6351 17.2169 26.6414 17.2682C26.6476 17.3195 26.6434 17.3716 26.629 17.4212C26.6146 17.4709 26.5903 17.5171 26.5575 17.5571C26.5248 17.5971 26.4843 17.6301 26.4385 17.6541L23.2952 19.4695C23.2367 19.5033 23.1703 19.521 23.1027 19.5209Z" fill="#2CB2B3"/>
<path d="M44.3133 41.8216C44.2627 41.8071 44.2037 41.8009 44.1516 41.7879V14.8434C47.4344 13.8161 44.3593 10.4857 43.227 9.04204C40.3635 3.5987 33.6919 6.44917 28.7216 5.78677C23.3833 -1.02966 22.793 -1.35933 17.4256 5.67867C11.9462 6.19924 5.0876 3.509 2.24557 9.81867C1.12163 11.2117 -0.969068 14.0882 1.94963 14.986V41.7212C1.50751 41.7782 1.09705 41.981 0.783314 42.2977C0.469579 42.6144 0.270523 43.0267 0.217703 43.4694C0.164883 43.912 0.26132 44.3596 0.491727 44.7412C0.722134 45.1228 1.07333 45.4166 1.48963 45.576C7.79777 45.9747 14.4064 45.3345 20.7828 45.576H44.4122C46.3964 45.2624 46.1395 42.2778 44.3133 41.8216ZM35.3433 6.47984C37.7859 6.47984 39.7233 5.98304 41.3663 7.95644C48.0117 14.8925 42.2533 14.8909 35.9513 14.2216C34.0346 11.4616 31.5422 9.0336 29.3426 6.4783L35.3433 6.47984ZM21.978 1.7081C24.8477 0.571903 26.1717 4.95034 28.1183 6.41774C29.1433 8.45094 37.5759 14.5666 34.5077 16.4833C32.3273 15.8623 30.1285 12.042 28.7799 10.511C19.9372 -0.61413 23.8732 6.01754 13.2932 15.0266C12.9697 15.3134 10.4221 18.7833 10.7433 14.4616C12.9344 11.8273 15.443 9.23907 17.677 6.5818C17.7457 6.56834 17.8072 6.53083 17.8507 6.47601C17.8941 6.4212 17.9165 6.35269 17.9139 6.2828C19.0685 4.79394 20.5505 2.4533 21.978 1.7081ZM2.53 10.7969C4.94577 4.71267 11.4103 6.89997 16.6129 6.58794C14.4264 9.0865 12.0827 11.4179 10.1614 14.1258C7.5693 14.1764 -1.46894 15.584 2.53 10.7969ZM2.64883 15.1148C5.14817 15.1033 7.29407 14.9615 9.72133 15.0213C9.39473 15.9489 9.54423 16.8429 11.0339 17.1764C13.34 17.71 21.1899 7.32087 23 5.14354C26.7091 8.82354 29.657 14.848 34.3336 17.2055C35.8332 17.0345 36.6336 15.7964 36.2503 14.9132C38.6454 14.8656 40.7943 14.9714 43.25 15.0013V41.63C39.0548 41.5602 35.1233 41.9826 31.0163 41.8224C31.0837 35.213 32.9966 22.4717 22.9946 22.5407C13.0057 22.6097 14.9178 35.1263 14.9868 41.8224C10.8307 41.9872 6.91917 41.5625 2.65267 41.6024L2.64883 15.1148ZM15.6783 33.8675C15.1033 29.2475 17.2515 23.486 22.655 23.4676V41.7066C20.3389 41.6223 17.9515 41.8469 15.6538 41.7066C15.7604 39.1176 15.6638 36.4665 15.6783 33.8675ZM30.3255 41.7066H23.3488V23.4814C32.1663 24.2987 30.3738 35.272 30.3255 41.7066ZM6.01603 44.8883C4.92583 44.8883 1.92663 45.3943 1.34703 44.505C0.514432 43.23 1.17453 42.7248 2.1827 42.5392C2.24211 42.5815 2.31549 42.5994 2.38769 42.5891C2.45988 42.5788 2.52537 42.5412 2.57063 42.484C7.03033 42.4733 10.7586 42.5408 15.1179 42.5101C20.2546 42.7286 25.7631 42.7294 30.9005 42.5101C35.3748 42.5868 39.9633 42.3752 44.3877 42.5101C44.8761 42.8643 45.0907 44.5111 44.3018 44.8868L6.01603 44.8883Z" fill="#262626"/>
<path d="M5.26393 38.5533C6.2008 40.2055 9.19157 39.5592 10.7073 39.5592C14.0484 38.5771 12.1287 34.0791 12.6147 31.4785C12.4614 26.4906 14.4379 20.8656 6.88543 22.5469C3.47377 23.7544 5.57597 28.6035 5.02473 31.3881C5.2486 33.6152 4.4091 36.3982 5.26393 38.5533ZM10.6889 38.6423C4.3194 39.5025 5.68023 36.5784 5.7109 31.858H12.1448C12.3196 34.6847 12.3081 38.1746 10.6889 38.64V38.6423ZM6.3572 24.0265C7.4842 22.9984 11.2884 22.9731 11.9224 24.6675C12.3564 26.8578 11.6602 28.5652 12.0873 31.0086H5.7109C6.03213 28.7845 4.90667 25.8228 6.3572 24.0265Z" fill="#262626"/>
<path d="M33.5194 38.5021C34.4494 40.1236 37.4662 39.4811 38.9574 39.4811C40.94 39.1407 41.1041 37.7178 41.0619 36.015C40.7315 31.8949 41.7189 27.4207 40.7491 23.4417C38.8462 21.653 32.8218 21.8056 33.3048 25.5071C33.4757 29.7383 32.7167 34.3705 33.5194 38.5021ZM39.0877 38.7221C32.9345 39.6628 34.0783 36.2902 34.1619 31.7968H40.4164C40.5942 34.622 40.6111 38.2046 39.0877 38.7221ZM34.7085 23.9431C35.8432 22.7846 39.6152 23.0054 40.2048 24.7565C40.6149 26.9714 39.9541 28.6006 40.3665 31.07H34.1619C34.4693 28.8022 33.4182 25.8743 34.7085 23.9431Z" fill="#262626"/>
<path d="M22.9371 19.5392C24.0799 19.5178 25.1698 19.0538 25.9774 18.2451C26.785 17.4363 27.2474 16.3458 27.2673 15.203C26.9744 9.75965 18.7573 10.0609 18.7335 15.4161C18.7463 16.5197 19.1958 17.5732 19.9837 18.346C20.7715 19.1188 21.8336 19.5478 22.9371 19.5392ZM23.45 11.9247C27.5946 12.4997 27.0534 19.2249 22.7524 18.7749C18.3157 18.3701 18.8999 11.2178 23.45 11.9247Z" fill="#262626"/>
</g>
<defs>
<clipPath id="clip0_40_126">
<rect width="46" height="46" fill="white"/>
</clipPath>
</defs>
</svg>
