<svg width="46" height="46" viewBox="0 0 46 46" fill="none" xmlns="http://www.w3.org/2000/svg">
<g clip-path="url(#clip0_40_251)">
<path d="M5.37145 45.224C5.20345 45.2241 5.05562 45.1131 5.00894 44.9517C4.96226 44.7903 5.02797 44.6175 5.1701 44.528L9.43679 41.8366L4.30289 44.8002C4.12578 44.8992 3.90208 44.8403 3.79671 44.6669C3.69133 44.4935 3.74207 44.2678 3.91151 44.1562L9.03109 40.8962L3.56689 44.0506C3.39112 44.1492 3.16895 44.0921 3.06244 43.921C2.95594 43.75 3.00275 43.5254 3.16873 43.4111L11.5664 37.772L3.22755 42.5869C3.05202 42.6909 2.82559 42.6365 2.71659 42.464C2.60759 42.2915 2.65557 42.0636 2.82486 41.9497L10.1238 36.9176L3.22755 40.8985C3.05135 40.997 2.82878 40.9393 2.72269 40.7676C2.6166 40.5958 2.66463 40.3709 2.83164 40.2575L5.12335 38.7493L3.22755 39.8465C3.05319 39.9488 2.82917 39.8955 2.71971 39.7255C2.61025 39.5555 2.6543 39.3295 2.81958 39.2131L7.18204 36.0949L3.22755 38.3783C3.05554 38.4792 2.83469 38.4287 2.72361 38.2631C2.61253 38.0975 2.64963 37.874 2.80827 37.7531L6.37892 34.9856L3.22755 36.8052C3.05696 36.9054 2.838 36.8567 2.72596 36.6936C2.61391 36.5306 2.64688 36.3088 2.80148 36.1854L4.75535 34.6018L3.22755 35.4841C3.0585 35.5807 2.8437 35.5327 2.73186 35.3733C2.62001 35.2139 2.64789 34.9956 2.7962 34.8695L3.42135 34.3416L3.22755 34.4532C3.06901 34.5442 2.86801 34.5084 2.75066 34.3683C2.63332 34.2281 2.63344 34.0239 2.75096 33.8839L3.24414 33.3025L3.22755 33.3123C3.09072 33.3922 2.91854 33.378 2.79661 33.2768C2.67468 33.1756 2.62902 33.009 2.68233 32.8598L2.83315 32.4217C2.7233 32.3501 2.65851 32.2266 2.66205 32.0956C2.66559 31.9645 2.73695 31.8447 2.8505 31.7792L3.22755 31.5612C3.36437 31.4813 3.53655 31.4955 3.65848 31.5967C3.78041 31.6979 3.82607 31.8645 3.77276 32.0137L3.72374 32.1555L4.75082 31.5635C4.90956 31.4716 5.11144 31.5072 5.2291 31.6479C5.34676 31.7887 5.34605 31.9937 5.22741 32.1336L4.73499 32.7143L6.72958 31.562C6.89872 31.4637 7.11494 31.5111 7.22746 31.6711C7.33997 31.8312 7.3114 32.0507 7.16168 32.1766L6.53502 32.7045L8.51604 31.5612C8.68628 31.4636 8.90293 31.5129 9.01419 31.6746C9.12544 31.8362 9.09409 32.0562 8.9421 32.1804L6.98823 33.764L10.807 31.5605C10.9786 31.4625 11.1967 31.5137 11.3069 31.6778C11.4171 31.8418 11.3819 32.0631 11.2263 32.1849L7.65259 34.9524L13.5346 31.559C13.7084 31.4607 13.9287 31.5151 14.037 31.6829C14.1452 31.8507 14.1038 32.0738 13.9425 32.1917L9.57705 35.3099L16.0781 31.5575C16.2543 31.4589 16.4769 31.5166 16.583 31.6884C16.6891 31.8602 16.641 32.085 16.474 32.1985L14.1816 33.7067L17.9023 31.559C18.0772 31.4602 18.2989 31.5159 18.4063 31.6857C18.5137 31.8555 18.4692 32.0797 18.305 32.1954L11.0098 37.2245L20.8327 31.5545C21.008 31.4597 21.2267 31.5176 21.332 31.6867C21.4374 31.8557 21.3931 32.0776 21.2309 32.1932L12.8302 37.8323L23.7066 31.5529C23.8837 31.4539 24.1074 31.5129 24.2128 31.6863C24.3182 31.8596 24.2674 32.0853 24.098 32.1969L18.9701 35.4629L25.7449 31.5522C25.9218 31.4576 26.1418 31.5182 26.2455 31.6899C26.3491 31.8617 26.3001 32.0845 26.134 32.1969L21.8787 34.8815L27.6483 31.5507C27.8254 31.4517 28.0491 31.5106 28.1544 31.684C28.2598 31.8574 28.2091 32.0831 28.0396 32.1947L22.2331 35.8898L29.7552 31.5469C29.9314 31.4484 30.154 31.5061 30.2601 31.6778C30.3662 31.8496 30.3181 32.0745 30.1511 32.1879L21.1834 38.0963L32.5258 31.5484C32.7025 31.4512 32.9244 31.5103 33.0294 31.6825C33.1344 31.8548 33.0853 32.0791 32.9179 32.1917L25.895 36.7125L34.8393 31.5469C35.0169 31.4455 35.243 31.504 35.3489 31.6789C35.4549 31.8538 35.4021 32.0813 35.23 32.1917L30.3283 35.2986L36.8279 31.5454C37.0049 31.4446 37.23 31.5027 37.3362 31.6766C37.4424 31.8504 37.3913 32.0772 37.2208 32.1887L29.5471 37.1589L39.275 31.5439C39.4536 31.4369 39.6852 31.4949 39.7923 31.6736C39.8993 31.8523 39.8412 32.0839 39.6626 32.1909L38.6445 32.8221L40.8616 31.5401C41.0391 31.4387 41.2652 31.4972 41.3711 31.6721C41.4771 31.847 41.4243 32.0745 41.2522 32.1849L35.6613 35.7442L42.9361 31.5447C43.1132 31.4457 43.3369 31.5046 43.4423 31.678C43.5477 31.8514 43.4969 32.077 43.3275 32.1887L36.8354 36.3475L43.5266 32.485C43.7031 32.3846 43.9275 32.4422 44.034 32.6151C44.1405 32.7881 44.0908 33.0143 43.9217 33.1268L36.4418 38.0465L43.5266 33.9563C43.7022 33.8543 43.9269 33.9098 44.035 34.0817C44.1431 34.2535 44.0957 34.4801 43.9277 34.5942L36.6741 39.5494L43.5273 35.5934C43.704 35.4947 43.927 35.553 44.0327 35.7256C44.1384 35.8981 44.0891 36.1233 43.921 36.2359L42.1277 37.4017L43.5273 36.5941C43.7035 36.4955 43.9261 36.5533 44.0322 36.725C44.1383 36.8968 44.0902 37.1216 43.9232 37.2351L42.4075 38.2328L43.5273 37.5872C43.7001 37.4876 43.9205 37.5396 44.0304 37.7061C44.1403 37.8725 44.1016 38.0957 43.9421 38.2154L39.7674 41.3344L43.5273 39.1648C43.6989 39.07 43.9145 39.1225 44.0233 39.2856C44.1321 39.4487 44.0978 39.668 43.9443 39.79L41.5508 41.6262L43.5281 40.4852C43.6977 40.3891 43.9126 40.438 44.0238 40.5982C44.135 40.7583 44.1058 40.9768 43.9564 41.1021L42.556 42.2574L43.5281 41.6963C43.6955 41.5997 43.9088 41.6452 44.0221 41.8019C44.1354 41.9585 44.1119 42.1754 43.9677 42.3041L43.5032 42.7181C43.6872 42.6557 43.8885 42.7434 43.9682 42.9207C44.0478 43.0979 43.9797 43.3067 43.8109 43.4028L40.7417 45.1705C40.5759 45.2583 40.3708 45.211 40.2603 45.0594C40.1499 44.9078 40.1676 44.698 40.302 44.5672L40.7394 44.1766L39.0095 45.1705C38.8399 45.2667 38.625 45.2177 38.5138 45.0575C38.4026 44.8974 38.4318 44.6789 38.5812 44.5536L39.9793 43.4013L36.9131 45.1705C36.7414 45.2671 36.5242 45.2152 36.4147 45.0514C36.3052 44.8875 36.3404 44.667 36.4953 44.5453L38.8926 42.7091L34.6274 45.1705C34.4549 45.2679 34.2363 45.2151 34.1272 45.0496C34.0182 44.8841 34.0558 44.6625 34.2134 44.5423L38.3836 41.4264L31.8984 45.1705C31.7225 45.2675 31.5014 45.2097 31.3956 45.0389C31.2898 44.8682 31.3365 44.6445 31.5017 44.5302L33.0227 43.5258L30.1707 45.1705C29.9944 45.2675 29.773 45.2091 29.6676 45.0376C29.5622 44.8661 29.6101 44.6421 29.7763 44.5287L31.5613 43.3682L28.437 45.1705C28.262 45.2678 28.0414 45.2113 27.9347 45.0418C27.828 44.8723 27.8724 44.649 28.0359 44.5332L35.2873 39.5788L25.6016 45.1705C25.4257 45.2662 25.2056 45.2076 25.1005 45.0371C24.9953 44.8666 25.0419 44.6437 25.2065 44.5295L32.6894 39.6075L23.0528 45.1705C22.8761 45.2677 22.6541 45.2086 22.5491 45.0363C22.4442 44.8641 22.4933 44.6398 22.6607 44.5272L29.1527 40.3684L20.8342 45.1705C20.6574 45.2663 20.4365 45.2065 20.3322 45.0345C20.2279 44.8625 20.2769 44.639 20.4436 44.5265L26.0307 40.9724L18.7582 45.1705C18.5808 45.2652 18.3603 45.2041 18.257 45.0315C18.1538 44.859 18.2041 44.6358 18.3713 44.5242L19.3818 43.896L17.1738 45.1705C16.9972 45.2692 16.7741 45.2108 16.6684 45.0383C16.5627 44.8657 16.612 44.6405 16.7802 44.528L24.4554 39.5585L14.7306 45.1705C14.5534 45.2679 14.3309 45.2082 14.2262 45.0352C14.1216 44.8621 14.1721 44.6374 14.3407 44.5257L19.2484 41.4181L12.748 45.1705C12.5713 45.2677 12.3494 45.2086 12.2444 45.0363C12.1394 44.8641 12.1885 44.6398 12.3559 44.5272L19.3826 40.0026L10.4337 45.1705C10.2578 45.2662 10.0376 45.2076 9.93253 45.0371C9.82741 44.8666 9.87398 44.6437 10.0386 44.5295L19.0033 38.6279L7.66768 45.1705C7.49085 45.2663 7.26995 45.2065 7.16565 45.0345C7.06134 44.8625 7.11037 44.639 7.27705 44.5265L13.0783 40.8314L5.55997 45.1705C5.50295 45.2046 5.43791 45.2231 5.37145 45.224Z" fill="#2CB2B3"/>
<path d="M24.3574 37.8482C24.1895 37.848 24.042 37.7368 23.9955 37.5755C23.949 37.4142 24.0148 37.2416 24.1568 37.1521L27.4492 35.0904L22.7594 37.7976C22.5828 37.8963 22.3597 37.838 22.254 37.6655C22.1483 37.4929 22.1976 37.2677 22.3658 37.1551L32.8259 30.3683L20.4315 37.5246C20.2533 37.6323 20.0215 37.5751 19.9139 37.3968C19.8062 37.2186 19.8634 36.9868 20.0417 36.8791L28.8292 31.3335L18.9181 37.0556C18.7392 37.1622 18.5078 37.1036 18.4011 36.9248C18.2945 36.7459 18.3531 36.5144 18.532 36.4078L22.0287 34.2564L17.7877 36.7049C17.6106 36.8039 17.3869 36.745 17.2815 36.5716C17.1761 36.3982 17.2269 36.1726 17.3963 36.0609L31.2197 27.2078L15.8263 36.0949C15.6485 36.1913 15.4264 36.1303 15.3228 35.9566C15.2191 35.783 15.2709 35.5585 15.4402 35.4479L22.2987 31.2249L14.5481 35.6982C14.3692 35.805 14.1376 35.7466 14.0308 35.5678C13.9239 35.3889 13.9823 35.1573 14.1612 35.0505L22.6984 29.7793L13.1786 35.2729C13.001 35.3708 12.7777 35.3105 12.6734 35.1366C12.569 34.9626 12.621 34.7373 12.791 34.6266L21.718 29.1082L11.7858 34.8393C11.6089 34.9339 11.3889 34.8733 11.2853 34.7016C11.1816 34.5298 11.2306 34.307 11.3967 34.1945L23.6131 26.508L10.0951 34.3152C9.91801 34.4142 9.69431 34.3553 9.58894 34.1819C9.48356 34.0085 9.5343 33.7828 9.70374 33.6712L23.4283 24.895L8.15633 33.7134C7.97905 33.8095 7.7576 33.749 7.65366 33.5763C7.54972 33.4035 7.60008 33.1796 7.76797 33.0679L17.2447 27.1354L6.65794 33.2482C6.47927 33.3552 6.24766 33.2971 6.14063 33.1185C6.03359 32.9398 6.09166 32.7082 6.27033 32.6011L12.3951 28.8065L5.38879 32.8538C5.21206 32.951 4.99013 32.8919 4.88515 32.7196C4.78016 32.5474 4.8293 32.3231 4.99666 32.2105L16.5148 24.84L3.59932 32.298C3.42267 32.3967 3.19961 32.3384 3.0939 32.1658C2.98819 31.9933 3.03752 31.7681 3.20568 31.6555L15.2562 23.8393L2.20423 31.3742C2.02656 31.4721 1.80331 31.4118 1.69898 31.2379C1.59465 31.0639 1.64664 30.8386 1.81663 30.728L6.42568 27.8571L1.81889 30.5176C1.6419 30.6205 1.41512 30.5634 1.30801 30.3889C1.2009 30.2144 1.25261 29.9863 1.4245 29.8751L10.942 23.6869L1.71935 29.0116C1.54089 29.1191 1.30911 29.0615 1.20166 28.8831C1.09421 28.7046 1.15177 28.4728 1.33023 28.3654L3.56689 26.9643L1.71935 28.0306C1.54224 28.1295 1.31854 28.0706 1.21317 27.8972C1.10779 27.7239 1.15853 27.4982 1.32797 27.3866L5.17387 24.9297L1.71935 26.9213C1.54323 27.0214 1.31943 26.9645 1.21258 26.7924C1.10572 26.6202 1.15402 26.3944 1.32194 26.281L6.79594 22.6523L1.71935 25.5843C1.54367 25.6844 1.32029 25.6281 1.21303 25.4567C1.10576 25.2853 1.15282 25.0598 1.31968 24.9455L5.94381 21.813L1.71935 24.2518C1.54306 24.3488 1.3216 24.2904 1.21622 24.1189C1.11085 23.9474 1.15871 23.7235 1.32495 23.61L1.61453 23.4215C1.44202 23.4608 1.26537 23.3749 1.18982 23.2149C1.11426 23.0549 1.16011 22.8639 1.30007 22.7556L5.70777 19.3396L1.71935 21.6426C1.55011 21.7427 1.33235 21.6959 1.21912 21.5352C1.1059 21.3744 1.13523 21.1536 1.2865 21.028L4.08948 18.6503L1.71859 20.0198C1.54812 20.1179 1.33084 20.0685 1.21956 19.9063C1.10827 19.7441 1.14037 19.5236 1.29328 19.3999L1.83171 18.964L1.71859 19.0296C1.56117 19.1202 1.36151 19.0857 1.24363 18.9475C1.12576 18.8093 1.12317 18.6067 1.23748 18.4656L2.00741 17.5139C1.83896 17.5086 1.69446 17.3922 1.65346 17.2288C1.61246 17.0653 1.68492 16.8945 1.83095 16.8103L3.28863 15.968C3.4461 15.8764 3.64651 15.9106 3.76482 16.049C3.88313 16.1875 3.88552 16.3908 3.7705 16.5321L3.1001 17.3616L5.61577 15.9114C5.78591 15.8156 6.00108 15.8655 6.11165 16.0264C6.22223 16.1874 6.19161 16.4061 6.04109 16.5305L5.50492 16.9672L7.32984 15.9114C7.49877 15.8136 7.71446 15.8609 7.82697 16.0204C7.93948 16.18 7.91159 16.399 7.76269 16.5253L4.96046 18.9007L10.1419 15.9114C10.3135 15.8135 10.5316 15.8647 10.6418 16.0287C10.752 16.1928 10.7168 16.414 10.5612 16.5358L6.15269 19.9519L13.1507 15.9114C13.3277 15.8085 13.5545 15.8656 13.6616 16.0401C13.7687 16.2146 13.717 16.4427 13.5451 16.5539L13.5165 16.5728L14.6612 15.9114C14.8372 15.8072 15.0642 15.8622 15.1728 16.0355C15.2815 16.2089 15.2321 16.4372 15.0616 16.5502L10.4337 19.6819L16.9695 15.9114C17.1456 15.8113 17.3694 15.8682 17.4762 16.0403C17.5831 16.2125 17.5348 16.4383 17.3669 16.5517L11.8959 20.1789L19.2861 15.9114C19.4632 15.8124 19.6869 15.8713 19.7922 16.0447C19.8976 16.2181 19.8469 16.4438 19.6774 16.5554L15.8361 19.01L21.2068 15.9114C21.3849 15.8087 21.6124 15.8676 21.7183 16.0439C21.8242 16.2201 21.7694 16.4486 21.5951 16.5577L19.3554 17.9611L22.9057 15.9114C23.0824 15.8127 23.3054 15.8711 23.4112 16.0436C23.5169 16.2162 23.4675 16.4414 23.2994 16.5539L13.7857 22.7375L25.613 15.9114C25.7906 15.8136 26.0139 15.8738 26.1182 16.0478C26.2225 16.2217 26.1706 16.447 26.0006 16.5577L21.381 19.4331L27.4839 15.9114C27.6609 15.8085 27.8876 15.8656 27.9948 16.0401C28.1019 16.2146 28.0502 16.4427 27.8783 16.5539L15.8255 24.3686L30.4791 15.9114C30.6567 15.8074 30.8848 15.8649 30.9918 16.0406C31.0988 16.2164 31.0452 16.4455 30.8713 16.5554L19.3532 23.9215L33.2309 15.9114C33.4095 15.8044 33.6411 15.8625 33.7482 16.0411C33.8552 16.2198 33.7971 16.4514 33.6185 16.5585L27.5057 20.3433L35.1817 15.9114C35.3602 15.804 35.5919 15.8615 35.6994 16.04C35.8068 16.2185 35.7493 16.4502 35.5708 16.5577L26.0918 22.4879L37.487 15.9114C37.6022 15.8415 37.7459 15.8384 37.864 15.9032C37.9822 15.9679 38.0567 16.0908 38.0597 16.2255C38.0627 16.3602 37.9935 16.4863 37.8784 16.5562L24.1477 25.3316L40.4687 15.9114C40.6472 15.8038 40.8791 15.8612 40.9868 16.0396C41.0944 16.2181 41.037 16.45 40.8586 16.5577L28.6467 24.2359L42.9979 15.9499C43.1757 15.8535 43.3978 15.9145 43.5014 16.0881C43.6051 16.2618 43.5533 16.4862 43.384 16.5969L34.4487 22.1222L44.2399 16.4665C44.3556 16.3973 44.4994 16.3952 44.6171 16.4609C44.7348 16.5265 44.8086 16.65 44.8106 16.7848C44.8126 16.9195 44.7425 17.0451 44.6268 17.1142L36.0874 22.3929L44.8689 17.3224C45.0477 17.2155 45.2793 17.2739 45.3862 17.4528C45.493 17.6317 45.4346 17.8633 45.2557 17.9701L38.3934 22.1984L45.0385 18.3615C45.2156 18.2625 45.4393 18.3214 45.5447 18.4948C45.6501 18.6682 45.5993 18.8939 45.4299 19.0055L31.6095 27.8548L45.0325 20.1027C45.2107 20.0042 45.4349 20.0649 45.539 20.2399C45.6431 20.4149 45.5894 20.6409 45.4178 20.7505L41.912 22.9072L45.0325 21.1064C45.2101 21.0069 45.4346 21.0663 45.5397 21.2407C45.6448 21.415 45.5925 21.6413 45.4216 21.7519L36.6341 27.2983L45.0355 22.448C45.2131 22.3393 45.4453 22.3951 45.554 22.5728C45.6627 22.7504 45.6068 22.9825 45.4291 23.0912L34.9638 29.8781L45.0355 24.064C45.2136 23.9613 45.4411 24.0202 45.547 24.1964C45.6529 24.3726 45.5981 24.6012 45.4239 24.7103L42.1375 26.7705L45.0355 25.0979C45.2116 24.9977 45.4354 25.0546 45.5423 25.2267C45.6491 25.3989 45.6008 25.6247 45.4329 25.7381L38.4447 30.3954L45.0355 26.5902C45.2099 26.4937 45.4292 26.5495 45.5362 26.7176C45.6432 26.8857 45.601 27.1081 45.4397 27.2252L41.0592 30.2898L45.0355 27.9944C45.2072 27.8977 45.4244 27.9496 45.5339 28.1134C45.6434 28.2773 45.6083 28.4978 45.4533 28.6195L43.292 30.2785L45.0355 29.2725C45.1974 29.1788 45.4035 29.2179 45.5198 29.3645C45.6361 29.511 45.6273 29.7206 45.4993 29.857L44.7557 30.6495C44.9257 30.6512 45.0735 30.7664 45.1167 30.9308C45.1598 31.0952 45.0877 31.2681 44.9405 31.3531L43.0552 32.442C42.8936 32.5346 42.6885 32.4953 42.5726 32.3494C42.4567 32.2035 42.4647 31.9949 42.5915 31.8584L43.2106 31.1978L38.7237 33.7881C38.5514 33.8899 38.3296 33.8395 38.2184 33.6731C38.1072 33.5068 38.1453 33.2825 38.3052 33.1622L40.4657 31.5032L33.9201 35.2827C33.745 35.3867 33.519 35.3328 33.4096 35.1611C33.3002 34.9893 33.3469 34.7617 33.5152 34.647L37.8942 31.5846L28.6557 36.9199C28.4796 37.02 28.2558 36.9631 28.149 36.791C28.0421 36.6188 28.0904 36.393 28.2583 36.2796L35.2488 31.6216L24.5504 37.7976C24.4919 37.8317 24.4251 37.8492 24.3574 37.8482Z" fill="#2CB2B3"/>
<path d="M23.6244 41.4534C23.4816 41.4534 23.351 41.3727 23.2872 41.245C23.2233 41.1173 23.2371 40.9644 23.3228 40.8502L24.1666 39.7484L21.9088 41.0515C21.7385 41.151 21.5202 41.1024 21.4082 40.9399C21.2963 40.7775 21.3284 40.5562 21.482 40.4324L21.7475 40.216L21.4511 40.3871C21.2813 40.4869 21.0633 40.4392 20.9507 40.2776C20.8382 40.116 20.8689 39.895 21.0213 39.7703L21.9443 39.0019L21.3252 39.3586C21.1633 39.4512 20.9581 39.4116 20.8423 39.2655C20.7265 39.1193 20.735 38.9105 20.8621 38.7741L22.672 36.8444L21.3214 37.6241C21.17 37.7111 20.9788 37.6828 20.8591 37.5557C20.7395 37.4287 20.7226 37.2361 20.8184 37.0902L21.4217 36.1793C21.2415 36.2106 21.0648 36.1081 21.0025 35.9361C20.9403 35.7641 21.0105 35.5722 21.1691 35.481L22.396 34.7721C22.5474 34.6844 22.7392 34.7124 22.8593 34.8396C22.9793 34.9669 22.9961 35.16 22.8997 35.306L22.3274 36.1748L24.5142 34.9147C24.6761 34.822 24.8813 34.8616 24.9971 35.0077C25.1129 35.1539 25.1044 35.3627 24.9773 35.4991L23.1674 37.4281L25.4033 36.137C25.5727 36.0413 25.7871 36.0901 25.8983 36.2498C26.0095 36.4094 25.981 36.6275 25.8324 36.7531L24.9094 37.5208L25.4335 37.2192C25.6038 37.1197 25.8221 37.1683 25.9341 37.3307C26.0461 37.4932 26.0139 37.7145 25.8603 37.8383L25.5278 38.109C25.6833 38.0693 25.847 38.1325 25.9355 38.2664C26.0241 38.4003 26.0181 38.5757 25.9206 38.7032L25.0776 39.805L25.3264 39.6617C25.4433 39.5874 25.5915 39.5832 25.7124 39.6507C25.8334 39.7182 25.9076 39.8465 25.9057 39.985C25.9038 40.1235 25.8262 40.2498 25.7035 40.314L23.8182 41.4029C23.7594 41.4372 23.6924 41.4546 23.6244 41.4534Z" fill="#F76031"/>
<path d="M21.5619 24.1251C21.3984 24.1253 21.2533 24.0201 21.2028 23.8645C21.1522 23.709 21.2077 23.5385 21.3402 23.4426L24.9727 20.8191L19.8177 23.7955C19.642 23.8957 19.4187 23.8394 19.3114 23.668C19.2041 23.4965 19.2512 23.271 19.418 23.1568L23.3243 20.5175L19.8177 22.5422C19.6417 22.6497 19.4121 22.5959 19.3022 22.4214C19.1923 22.247 19.2429 22.0166 19.4158 21.9043L24.8091 18.1941L19.587 21.2105C19.4103 21.3092 19.1873 21.2508 19.0815 21.0783C18.9758 20.9058 19.0252 20.6805 19.1933 20.568L20.4979 19.7226L19.1775 20.485C19.002 20.5891 18.7755 20.5346 18.6665 20.3621C18.5575 20.1896 18.6055 19.9617 18.7748 19.8478L25.1537 15.4499L18.2039 19.4557C18.0889 19.5259 17.9452 19.5294 17.8269 19.4648C17.7086 19.4003 17.6337 19.2775 17.6304 19.1428C17.6272 19.0081 17.696 18.8819 17.8111 18.8117L19.8637 17.495L17.4951 18.8577C17.3802 18.928 17.2365 18.9317 17.1181 18.8673C16.9998 18.803 16.9248 18.6804 16.9213 18.5457C16.9179 18.411 16.9865 18.2848 17.1015 18.2144L20.2853 16.1512L16.7252 18.2077C16.5476 18.3117 16.3195 18.2542 16.2125 18.0785C16.1055 17.9027 16.1591 17.6736 16.333 17.5637L18.3548 16.2711L16.1355 17.5531C15.9574 17.6612 15.7255 17.6045 15.6174 17.4264C15.5093 17.2484 15.566 17.0164 15.7441 16.9084L17.9234 15.5155L15.6098 16.8533C15.434 16.9504 15.2129 16.8926 15.1071 16.7218C15.0013 16.551 15.048 16.3273 15.2132 16.2131L19.6624 13.3166L15.0337 15.9868C14.8555 16.0947 14.6235 16.0377 14.5157 15.8594C14.4078 15.6811 14.4648 15.4492 14.6431 15.3413L15.6498 14.7049L14.7027 15.2524C14.5263 15.3631 14.2935 15.31 14.1827 15.1336C14.0719 14.9572 14.1251 14.7244 14.3015 14.6136L21.9028 9.42166L14.1771 13.8814C14.0005 13.9818 13.7761 13.9243 13.6696 13.7513C13.5632 13.5784 13.6128 13.3521 13.7819 13.2397L17.854 10.58L13.9719 12.8196C13.7962 12.9182 13.574 12.8611 13.4675 12.69C13.361 12.519 13.4078 12.2944 13.5738 12.1802L17.3443 9.71048L13.8053 11.7533C13.6283 11.8563 13.4015 11.7991 13.2944 11.6246C13.1873 11.4502 13.239 11.2221 13.4109 11.1108L15.8753 9.50461L13.8076 10.6984C13.6299 10.8071 13.3978 10.7512 13.2891 10.5735C13.1804 10.3959 13.2363 10.1638 13.4139 10.0551L14.1296 9.59209L13.9629 9.68861C13.7869 9.79288 13.5599 9.73781 13.4512 9.5645C13.3426 9.39119 13.3919 9.16286 13.5625 9.04989L16.7131 6.91052L14.2525 8.32897C14.0791 8.42914 13.8577 8.37631 13.7482 8.20867C13.6387 8.04103 13.6793 7.81704 13.8407 7.69855L17.5358 4.98757L15.1227 6.38189C14.9532 6.47934 14.7374 6.43109 14.6255 6.27076C14.5137 6.11044 14.5429 5.89121 14.6929 5.7658L16.9114 3.92127C16.7578 3.89019 16.6394 3.76728 16.6141 3.61258C16.5888 3.45788 16.6618 3.30366 16.7976 3.22524L19.912 1.42747C20.0816 1.32823 20.2989 1.37585 20.4115 1.5369C20.524 1.69794 20.494 1.91842 20.3426 2.04357L18.5508 3.53216L23.1418 0.883009C23.3152 0.782847 23.5366 0.835671 23.6461 1.00331C23.7556 1.17096 23.7149 1.39495 23.5535 1.51343L19.8584 4.22819L25.2744 1.09642C25.4504 0.992151 25.6774 1.04722 25.786 1.22053C25.8947 1.39384 25.8453 1.62217 25.6748 1.73514L22.5272 3.87301L26.6446 1.49534C26.8216 1.39456 27.0467 1.45263 27.1529 1.62648C27.2591 1.80033 27.2079 2.02709 27.0375 2.13858L26.315 2.60612L27.5638 1.88521C27.7408 1.78228 27.9676 1.83941 28.0747 2.0139C28.1818 2.18838 28.1301 2.41646 27.9582 2.5277L25.4968 4.13242L28.4604 2.42062C28.6379 2.31129 28.8703 2.36649 28.9796 2.54391C29.089 2.72133 29.0338 2.95378 28.8563 3.06311L25.0858 5.53278L29.3842 3.0533C29.5605 2.95622 29.782 3.0147 29.8873 3.18616C29.9927 3.35762 29.9448 3.58162 29.7786 3.69504L25.7065 6.35701L30.1504 3.79307C30.326 3.69116 30.5507 3.74659 30.6588 3.91847C30.7669 4.09034 30.7195 4.31693 30.5516 4.43104L22.948 9.62075L31.0922 4.91743C31.2698 4.81597 31.4958 4.87453 31.6018 5.04942C31.7078 5.22432 31.655 5.4518 31.4829 5.56219L30.4814 6.19714L31.5598 5.57425C31.7368 5.47133 31.9636 5.52846 32.0707 5.70294C32.1778 5.87743 32.1261 6.10551 31.9542 6.21675L27.505 9.11324L32.0296 6.50179C32.2067 6.4028 32.4304 6.46171 32.5358 6.6351C32.6411 6.80849 32.5904 7.03418 32.421 7.14579L30.2341 8.54389L32.3961 7.29586C32.5736 7.19183 32.8018 7.24933 32.9088 7.42507C33.0158 7.60082 32.9621 7.8299 32.7882 7.93986L30.774 9.22786L32.6223 8.1593C32.7987 8.06357 33.0191 8.12277 33.1238 8.29398C33.2285 8.46519 33.1808 8.68841 33.0152 8.80179L29.8284 10.868L32.8553 9.12002C33.0324 9.01925 33.2574 9.07732 33.3636 9.25117C33.4698 9.42502 33.4187 9.65178 33.2482 9.76327L31.1956 11.0852L32.9383 10.0785C33.1138 9.97446 33.3402 10.0289 33.4492 10.2014C33.5582 10.3739 33.5103 10.6018 33.341 10.7157L26.9613 15.1136L32.8742 11.6998C33.0512 11.599 33.2763 11.6571 33.3825 11.8309C33.4887 12.0048 33.4376 12.2315 33.2671 12.343L31.9647 13.1869L32.6947 12.7653C32.8702 12.6613 33.0967 12.7158 33.2057 12.8883C33.3147 13.0608 33.2667 13.2887 33.0974 13.4025L27.7048 17.112L32.108 14.5699C32.2837 14.4698 32.5071 14.5261 32.6143 14.6975C32.7216 14.8689 32.6745 15.0944 32.5077 15.2086L28.6015 17.8525L30.9995 16.4672C31.1732 16.3675 31.3946 16.4211 31.5036 16.5892C31.6125 16.7573 31.571 16.9813 31.409 17.0991L27.6618 19.8064C27.8281 19.7649 28.0013 19.8407 28.0837 19.9909C28.1661 20.1411 28.1368 20.328 28.0125 20.4458L26.5722 21.807L26.9718 21.577C27.1078 21.4987 27.2781 21.5128 27.3994 21.6124C27.5206 21.712 27.5675 21.8763 27.5171 22.0249L27.1822 23.0052C27.3448 23.0218 27.4782 23.1413 27.5126 23.3011C27.547 23.4609 27.4745 23.6246 27.3331 23.7065L26.7298 24.0564C26.5938 24.1348 26.4235 24.1207 26.3023 24.021C26.181 23.9214 26.1341 23.7571 26.1846 23.6085L26.4862 22.7307L24.1756 24.064C24.0091 24.1653 23.7929 24.1229 23.6768 23.9664C23.5608 23.8098 23.5832 23.5906 23.7285 23.4607L25.168 22.1033L21.7573 24.0723C21.6984 24.1078 21.6307 24.1261 21.5619 24.1251Z" fill="#F76031"/>
<path d="M23.6463 32.3606C23.4965 32.3607 23.3608 32.2722 23.3006 32.135C23.2404 31.9978 23.2672 31.838 23.3688 31.7279L24.4169 30.5907L22.0951 31.9308C21.9271 32.0284 21.7124 31.9823 21.5992 31.8244C21.486 31.6665 21.5113 31.4485 21.6577 31.3207L22.5754 30.5161L21.2822 31.2619C21.121 31.3534 20.9173 31.3143 20.8016 31.1696C20.6858 31.0249 20.6923 30.8176 20.8169 30.6805L21.5763 29.8623L20.7415 30.3434C20.6178 30.4146 20.4645 30.4099 20.3454 30.3312C20.2263 30.2525 20.1619 30.1133 20.1789 29.9716L20.3109 28.8925C20.156 28.8627 20.036 28.7397 20.0101 28.5841C19.9842 28.4285 20.0579 28.2733 20.1948 28.1949L20.5718 27.9763C20.6956 27.9053 20.8488 27.9103 20.9677 27.9891C21.0866 28.068 21.1508 28.2072 21.1336 28.3488L21.016 29.3125L23.3484 27.9657C23.5097 27.8731 23.7145 27.912 23.8306 28.0573C23.9467 28.2026 23.9395 28.4109 23.8137 28.5479L23.0543 29.3698L25.5036 27.9544C25.6716 27.8568 25.8863 27.9028 25.9995 28.0607C26.1127 28.2186 26.0874 28.4367 25.941 28.5645L25.0248 29.3691L26.183 28.701C26.3442 28.6094 26.5479 28.6486 26.6636 28.7932C26.7794 28.9379 26.7729 29.1452 26.6483 29.2824L25.5986 30.421L25.6484 30.3931C25.8274 30.2995 26.0485 30.3636 26.1496 30.5385C26.2507 30.7135 26.196 30.937 26.0254 31.0454L23.834 32.3101C23.7771 32.3434 23.7122 32.3609 23.6463 32.3606Z" fill="#D7DCE4"/>
<path d="M20.657 29.388C20.4966 29.3884 20.3534 29.2873 20.3002 29.1359C20.2471 28.9845 20.2955 28.8161 20.421 28.7161L21.1864 28.106L19.6563 28.9883C19.496 29.081 19.2922 29.0436 19.1752 28.9001C19.0582 28.7563 19.063 28.5488 19.1865 28.4107L20.6442 26.7856L19.0983 27.6754C18.938 27.767 18.735 27.729 18.6186 27.5857C18.5022 27.4424 18.5067 27.2359 18.6292 27.0978L20.01 25.5571C19.9868 25.4036 20.0602 25.2515 20.1948 25.1741L20.5718 24.9554C20.7323 24.8628 20.9363 24.9006 21.053 25.0445C21.1698 25.1884 21.1646 25.3958 21.0408 25.5338L20.7648 25.8414L22.3108 24.9493C22.4713 24.8568 22.6753 24.8945 22.792 25.0385C22.9087 25.1824 22.9035 25.3898 22.7798 25.5277L21.3259 27.1543L25.1612 24.9395C25.3322 24.8402 25.5508 24.8897 25.6622 25.0531C25.7736 25.2164 25.7399 25.438 25.585 25.5609L24.8174 26.1732L26.1913 25.3799C26.3606 25.2798 26.5783 25.3266 26.6916 25.4873C26.8048 25.6481 26.7755 25.8689 26.6242 25.9945L25.9259 26.585L27.0012 25.9651C27.1606 25.8743 27.3621 25.9113 27.4787 26.0528C27.5954 26.1942 27.5934 26.3991 27.4741 26.5382L26.5887 27.557L27.6264 26.9583C27.7841 26.8678 27.9839 26.9028 28.1015 27.0415C28.2191 27.1802 28.221 27.383 28.106 27.5238L27.7599 27.9439C27.8962 27.9949 27.991 28.1198 28.0034 28.2649C28.0158 28.4099 27.9436 28.5491 27.8179 28.6226L26.5827 29.3352C26.425 29.4256 26.2252 29.3906 26.1076 29.252C25.99 29.1133 25.9881 28.9104 26.1031 28.7696L26.2004 28.6512L25.0134 29.3344C24.8541 29.4252 24.6526 29.3882 24.5359 29.2468C24.4193 29.1053 24.4212 28.9005 24.5406 28.7613L25.4267 27.7418L22.6667 29.3344C22.4978 29.4306 22.2835 29.3828 22.1717 29.2239C22.0598 29.065 22.0871 28.8471 22.2346 28.7206L22.9321 28.1301L20.8448 29.3367C20.7879 29.3702 20.7231 29.3879 20.657 29.388Z" fill="#BAC0CC"/>
<path d="M25.1793 26.3715C25.0347 26.3717 24.9027 26.2892 24.8396 26.1591C24.7765 26.029 24.7933 25.8742 24.883 25.7607L25.9448 24.4154L22.6448 26.318C22.4899 26.4068 22.2939 26.3748 22.1754 26.2412C22.0568 26.1077 22.0481 25.9093 22.1547 25.766L23.2783 24.2691L19.7513 26.3052C19.5883 26.3993 19.3808 26.3586 19.2653 26.21C19.1497 26.0614 19.1615 25.8503 19.2929 25.7155L20.2732 24.7103L18.6029 25.674C18.4588 25.7584 18.2765 25.738 18.1546 25.624C18.0327 25.51 18.0003 25.3294 18.075 25.1801L18.6707 23.9841L18.529 24.0655C18.3488 24.1679 18.1197 24.1058 18.0161 23.9263C17.9124 23.7468 17.9731 23.5173 18.1519 23.4125L19.3788 22.7036C19.5231 22.6184 19.7064 22.6387 19.8286 22.7534C19.9508 22.868 19.9826 23.0496 19.9067 23.199L19.311 24.395L22.2572 22.6983C22.4203 22.6042 22.6277 22.6449 22.7433 22.7935C22.8589 22.9421 22.8471 23.1532 22.7157 23.288L21.7354 24.2932L24.4991 22.6983C24.6544 22.608 24.8519 22.6398 24.9709 22.7743C25.09 22.9088 25.0977 23.1086 24.9893 23.2518L23.8657 24.748L27.2697 22.7828C27.4262 22.6925 27.6247 22.7259 27.743 22.8625C27.8614 22.999 27.8662 23.2003 27.7546 23.3423L26.6951 24.6846L28.3285 23.742C28.4812 23.6535 28.6749 23.6827 28.7946 23.8124C28.9144 23.9421 28.9281 24.1375 28.8277 24.2827L28.3986 24.9018C28.5717 24.8957 28.7266 25.0084 28.7743 25.1749C28.8219 25.3414 28.75 25.519 28.5999 25.6054L27.3828 26.3082C27.2301 26.3967 27.0364 26.3675 26.9167 26.2378C26.7969 26.1081 26.7832 25.9127 26.8836 25.7675L27.2531 25.2344L25.3679 26.3203C25.3108 26.354 25.2456 26.3717 25.1793 26.3715Z" fill="#D7DCE4"/>
<path d="M2.46592 31.9971V38.7365C2.46592 40.3291 1.93126 43.1932 3.21398 44.4676C5.08641 46.3325 10.9224 45.2308 13.1545 45.2308H32.2249C35.1056 45.2308 39.6603 46.1493 42.4475 45.0257C44.5107 44.1962 44.2882 42.1314 44.2882 40.2862V31.8169C44.2882 31.801 44.2792 31.792 44.2777 31.7777C45.269 31.0018 45.8322 29.8008 45.7949 28.5426C45.902 25.8097 45.7949 23.0527 45.7949 20.3169C45.7949 18.6956 46.0415 16.8986 44.243 16.0841C42.694 15.3828 40.2274 15.8662 38.6159 15.8662H38.2637C38.3029 14.5842 38.5473 12.8551 37.8723 11.7865C36.9569 10.3371 35.1825 10.5309 33.6758 10.5604C33.6758 10.1652 33.6592 9.76704 33.626 9.3636C32.2038 2.07901 23.8951 -1.73447 17.5818 2.51714C14.9011 4.32911 13.2227 7.29107 13.0459 10.5219C11.5686 10.4872 9.95939 10.4171 8.99942 11.7398C8.24533 12.7797 8.42782 14.404 8.48513 15.7169C6.79306 15.6442 5.09848 15.7797 3.43946 16.1203C-0.567821 17.0584 0.962244 23.7081 0.962244 26.7418C0.962244 28.7771 0.527884 30.835 2.46592 31.9971ZM40.713 44.5031C38.6724 44.8515 36.3008 44.5031 34.2316 44.5031H23.9517C18.3186 44.5031 12.3227 45.0958 6.71752 44.5031C4.06083 44.2226 3.5669 42.4195 3.5669 39.9853V32.5016C4.64752 32.8847 5.88726 33.1049 6.90228 33.4224L20.5582 37.6634C20.5499 38.1242 20.5665 38.5947 20.5665 39.0396C20.5665 39.9008 20.6148 40.7183 21.476 41.1881C22.2612 41.4617 23.1002 41.5447 23.9238 41.4301C23.9366 41.4301 23.9517 41.4241 23.9645 41.4233C23.9972 41.4253 24.0299 41.4253 24.0625 41.4233C26.2607 41.2016 26.2298 39.3737 26.1959 37.6627L38.8564 33.7308C40.3266 33.3692 41.7759 32.9274 43.1978 32.4073C43.332 35.975 44.6954 43.8236 40.713 44.5031ZM22.1705 35.5746C22.7092 35.3426 23.3058 35.2802 23.8808 35.3958C24.8611 35.5414 25.0798 36.2427 25.0874 37.0669C25.0987 37.9288 25.5021 40.6059 24.2179 40.768C22.9789 40.768 21.7007 40.7793 21.6592 39.1844C21.6479 38.7674 21.5718 38.0751 21.577 37.3995C21.6178 37.361 21.6185 37.3286 21.577 37.3067C21.5951 36.5594 21.718 35.8506 22.1705 35.5746ZM37.0481 12.656C37.2621 13.7125 37.3008 14.7971 37.1627 15.8662H32.3983C33.1802 14.463 33.6141 12.8928 33.6637 11.2873C34.997 11.236 36.5738 11.1863 37.0481 12.656ZM14.8769 7.1639C18.6609 -1.75634 30.8426 0.980288 32.5341 9.65619C32.8558 12.1584 32.2018 14.6885 30.7077 16.7213C29.8095 17.9007 28.5803 18.4233 27.6754 19.5062C27.2138 19.9976 26.8836 20.5976 26.7155 21.2505C26.6177 21.6906 26.5782 22.1416 26.5978 22.592C27.192 22.592 27.27 22.592 26.8316 22.592C26.6837 22.6588 26.5274 22.7053 26.3671 22.73C25.3023 22.681 24.2103 22.6433 23.1139 22.6387C22.807 22.6124 22.5249 22.592 22.3115 22.592C22.0687 22.592 21.6193 22.6501 21.1736 22.681L21.1223 22.6847C20.7538 22.739 20.3778 22.7073 20.0236 22.592C19.5493 22.3296 20.4489 22.8393 20.1563 21.9555C19.2567 19.2408 17.894 19.0191 16.1362 16.701C14.0493 13.9725 13.5697 10.3405 14.8769 7.1639ZM21.6758 29.3419H21.7512H25.8234C25.6363 30.8222 24.466 32.1419 22.8153 31.6042C21.8188 31.2612 21.1007 30.3861 20.9587 29.3419H21.6758ZM26.671 28.7311C26.6156 28.7254 26.5597 28.7254 26.5043 28.7311H20.6932C19.7001 28.4785 18.8593 27.514 19.8155 26.6196C19.9605 26.4962 20.1286 26.4029 20.3101 26.3451C22.0823 26.4681 23.9464 26.3233 25.7344 26.2697H25.7811C26.2012 26.3172 26.2811 26.1619 26.772 26.5035C27.4447 26.9718 27.6566 28.3963 26.671 28.7311ZM27.2961 25.7856H26.6928C26.634 25.7788 26.5752 25.769 26.5164 25.7645C24.6948 25.6288 22.866 25.6195 21.0431 25.7366C19.3509 25.6039 17.5238 25.1431 18.9973 23.5882C19.0881 23.4979 19.193 23.423 19.3079 23.3665C19.3882 23.3933 19.4722 23.4073 19.5568 23.4079H27.0978C27.1737 23.4038 27.2484 23.387 27.3187 23.3582C27.3891 23.3952 27.4569 23.4371 27.5216 23.4833C28.2101 23.9682 28.4589 25.5435 27.2984 25.7833L27.2961 25.7856ZM9.6208 12.8724C9.86136 11.1493 11.6471 11.2775 13.0323 11.3273C13.0399 11.5814 13.055 11.8363 13.0829 12.0912C13.2312 13.4592 13.6566 14.7826 14.3332 15.9808C12.8091 15.9326 11.2014 15.8127 9.59365 15.7463C9.52566 14.7892 9.53474 13.8281 9.6208 12.8724ZM3.56464 16.4212C4.75159 15.9461 6.93244 16.2515 8.5266 16.3745C8.64801 16.7017 9.22792 16.6701 9.48129 16.4212H14.6009C14.7675 16.6836 14.9417 16.9415 15.1333 17.1881C16.6867 19.1925 19.0078 20.0914 19.0485 22.9645C17.3579 23.6606 16.9152 25.8572 19.2831 26.2313C18.0765 27.1023 18.0117 28.8985 19.823 29.2348C20.1111 33.4925 26.5201 33.123 26.9115 29.127C27.7759 28.9871 28.4194 28.2535 28.4454 27.3783C28.4532 26.8226 28.1407 26.3119 27.6422 26.0661C29.4016 25.3942 29.6715 23.276 27.7063 22.8439C27.7818 20.0537 30.4528 18.6518 31.9647 16.56H36.3672C36.6462 16.56 36.9652 16.5411 37.2992 16.5162C37.5462 16.6261 37.832 16.6034 38.0586 16.4559C39.6128 16.3179 41.4121 16.1377 42.5364 16.56C45.2406 17.575 44.6947 20.0952 44.6947 22.3552C44.6947 24.5112 45.0174 26.9447 44.6947 29.0772C44.1472 32.6969 38.9635 33.0136 35.9773 33.9404L26.1853 36.9825C26.1612 34.8619 24.5821 34.6214 22.761 34.7383C21.163 34.8408 20.7136 35.8174 20.5959 36.9915L11.1418 34.055C8.18198 33.1358 2.29247 32.62 2.05418 28.8736C1.91316 26.6528 2.05418 24.3769 2.05418 22.1516C2.05418 20.436 1.41772 17.2794 3.56464 16.4212Z" fill="#262626"/>
<path d="M17.1377 10.8695C17.2289 7.49269 19.6639 4.56377 23.1705 4.46951C23.5927 4.4582 24.3227 3.8059 23.589 3.82551C19.5651 3.93485 16.1573 6.85547 16.048 10.9992C16.0306 11.466 17.1271 11.2496 17.1377 10.8695Z" fill="#262626"/>
<path d="M17.8457 13.8106C17.6338 13.4094 16.5856 13.7932 16.8428 14.2796C16.9619 14.5058 17.0916 14.7258 17.2319 14.9395C17.4853 15.3263 18.5335 14.9251 18.2356 14.4704C18.0984 14.2562 17.9657 14.0368 17.8457 13.8106Z" fill="#262626"/>
</g>
<defs>
<clipPath id="clip0_40_251">
<rect width="46" height="46" fill="white"/>
</clipPath>
</defs>
</svg>
