<svg width="27" height="33" viewBox="0 0 27 33" fill="none" xmlns="http://www.w3.org/2000/svg">
<path d="M26.3662 5.46792L21.1262 0.227856C20.9803 0.0819327 20.7825 0 20.5761 0H1.18409C0.754516 0 0.40625 0.348266 0.40625 0.777842V32.2222C0.40625 32.6517 0.754516 33 1.18409 33H25.8162C26.2459 33 26.594 32.6517 26.594 32.2222V6.0179C26.594 5.81162 26.5121 5.61384 26.3662 5.46792ZM21.354 2.65576L23.9383 5.24017H21.354V2.65576ZM1.96193 1.55568H19.7984V2.62008H1.96193V1.55568ZM25.0383 31.4443H1.96193V4.17577H19.7984V6.01801C19.7984 6.44759 20.1465 6.79585 20.5762 6.79585H25.0383V31.4443Z" fill="#2CB2B3"/>
<path d="M17.9193 15.2507C17.5444 15.2482 17.175 15.2667 16.8103 15.2874C16.6759 15.2964 16.5429 15.308 16.4099 15.3195C16.2736 15.1785 16.1419 15.0328 16.0145 14.8837C15.2034 13.9237 14.5486 12.8349 14.015 11.7035C14.1567 11.1568 14.27 10.5863 14.3385 9.99382C14.4634 8.91241 14.5064 7.68 14.1012 6.64899C13.9613 6.29316 13.5882 5.85995 13.1578 6.07567C12.663 6.32375 12.5238 7.02661 12.4835 7.52484C12.451 7.92756 12.4737 8.33131 12.5413 8.72728C12.6102 9.12595 12.7211 9.5045 12.8418 9.88253C12.9544 10.2291 13.0786 10.5731 13.2139 10.9137C13.128 11.1819 13.0369 11.4455 12.9412 11.7023C12.718 12.2875 12.4766 12.8435 12.2445 13.3784C12.1221 13.6436 12.0024 13.9031 11.8852 14.1569C11.5143 14.9716 11.1117 15.7713 10.6599 16.5444C9.60587 16.9162 8.66002 17.3472 7.8745 17.8538C7.45312 18.126 7.08089 18.4217 6.7709 18.746C6.47822 19.0522 6.18077 19.4495 6.15474 19.8893C6.14012 20.1376 6.23844 20.3785 6.44182 20.5258C6.72153 20.7348 7.0922 20.7209 7.41671 20.6528C8.47976 20.4299 9.29608 19.5161 9.99127 18.7459C10.4701 18.2154 11.0151 17.5418 11.5852 16.7271C11.5865 16.7253 11.5877 16.7234 11.5891 16.7215C12.5669 16.4184 13.631 16.1624 14.7605 15.9743C15.2764 15.8887 15.8061 15.8187 16.3463 15.7696C16.7262 16.1254 17.1367 16.4494 17.5846 16.72C17.9333 16.9346 18.3043 17.1157 18.6926 17.2509C19.0853 17.3792 19.4803 17.4839 19.8882 17.5502C20.0942 17.5796 20.3048 17.593 20.52 17.5849C21.0003 17.5668 21.6897 17.3826 21.7349 16.7998C21.7488 16.6213 21.7103 16.4649 21.6333 16.3278C21.2555 15.6544 19.9499 15.4429 19.351 15.3477C18.8788 15.2727 18.3968 15.2503 17.9193 15.2507ZM10.1347 17.3972C9.90975 17.7457 9.69278 18.0591 9.48837 18.3349C8.98775 19.0161 8.41598 19.8251 7.58815 20.1276C7.43092 20.1851 7.22391 20.2444 7.0057 20.2316C6.81135 20.2202 6.61968 20.1345 6.6285 19.9137C6.63286 19.7982 6.68938 19.6508 6.77608 19.506C6.87098 19.3472 6.98849 19.2016 7.11574 19.0677C7.3884 18.7813 7.73314 18.5036 8.12974 18.2465C8.73801 17.8519 9.4642 17.4967 10.2737 17.1797C10.2271 17.2534 10.1806 17.3266 10.1347 17.3972ZM12.958 8.65842C12.8955 8.29397 12.8861 7.92445 12.9245 7.56913C12.9435 7.39147 12.9797 7.21806 13.0321 7.05554C13.0765 6.91761 13.1723 6.58096 13.3252 6.53771C13.5772 6.46635 13.6547 7.00742 13.6832 7.1605C13.8456 8.03127 13.7025 8.99963 13.5076 9.85381C13.4766 9.98967 13.4421 10.1234 13.4067 10.2565C13.3464 10.0905 13.2888 9.92391 13.2358 9.75652C13.1217 9.39094 13.0174 9.0211 12.958 8.65842ZM14.6882 15.5325C13.7413 15.686 12.8406 15.8871 11.9938 16.1245C12.0958 16.0959 12.5617 15.213 12.6656 15.0298C13.1552 14.1674 13.5558 13.2623 13.8436 12.3128C14.3517 13.3179 14.9685 14.2794 15.7262 15.1352C15.796 15.2129 15.867 15.2897 15.9392 15.3655C15.5146 15.4112 15.0967 15.4669 14.6882 15.5325ZM21.0918 16.7453C21.0572 16.9325 20.6573 17.0395 20.4708 17.069C19.9194 17.1557 19.3362 17.0863 18.8085 16.909C18.4464 16.7875 18.0972 16.622 17.7654 16.4228C17.4356 16.2236 17.1271 15.9892 16.8387 15.7308C17.1943 15.7094 17.5543 15.6954 17.916 15.7022C18.2778 15.7059 18.6423 15.7241 19.0024 15.7711C19.6777 15.8464 20.4344 16.0782 20.9659 16.5164C21.0705 16.6028 21.1039 16.6791 21.0918 16.7453Z" fill="#2CB2B3"/>
<path d="M13.4478 24.2056H11.7256V29.1816H13.3355C14.1637 29.1816 14.8065 28.957 15.2636 28.5077C15.7208 28.0584 15.9495 27.4186 15.9495 26.5881C15.9495 25.8167 15.7321 25.2267 15.2976 24.8183C14.8631 24.4098 14.2465 24.2056 13.4478 24.2056ZM14.2681 27.7232C14.0775 27.9604 13.7779 28.079 13.3695 28.079H13.07V25.2915H13.4613C13.829 25.2915 14.103 25.4015 14.2833 25.6216C14.4637 25.8418 14.5539 26.1798 14.5539 26.6359C14.554 27.1237 14.4587 27.4861 14.2681 27.7232Z" fill="#2CB2B3"/>
<path d="M10.4604 24.6175C10.145 24.3429 9.67301 24.2056 9.04451 24.2056H7.32227V29.1816H8.66669V27.5309H9.04451C9.64801 27.5309 10.1137 27.3794 10.4417 27.0765C10.7696 26.7736 10.9335 26.3442 10.9335 25.7883C10.9334 25.2823 10.7758 24.892 10.4604 24.6175ZM9.3934 26.2648C9.27423 26.3783 9.11369 26.435 8.91176 26.435H8.66669V25.2915H9.01392C9.38604 25.2915 9.5721 25.4594 9.5721 25.7952C9.57199 25.9948 9.51246 26.1514 9.3934 26.2648Z" fill="#2CB2B3"/>
<path d="M16.8418 29.1816H18.1658V27.3131H19.6565V26.2341H18.1658V25.2845H19.7826V24.2056H16.8418V29.1816Z" fill="#2CB2B3"/>
</svg>
