<svg width="44" height="43" viewBox="0 0 44 43" fill="none" xmlns="http://www.w3.org/2000/svg">
<g clip-path="url(#clip0_114_402)">
<path d="M18.6582 36.8735V30.1535L10.7605 22.2127C9.89165 21.3391 8.47696 21.3391 7.6081 22.2127L7.41874 22.4031C6.54987 23.2767 6.54987 24.6991 7.41874 25.5727L12.5316 30.7135" stroke="#FCA524" stroke-width="1.5" stroke-miterlimit="10" stroke-linecap="round" stroke-linejoin="round"/>
<path d="M5.29115 20.0735V9.99354C5.29115 8.76154 4.28861 7.75354 3.0633 7.75354C1.83798 7.75354 0.835449 8.76154 0.835449 9.99354V22.6159C0.835449 25.2927 1.89368 27.8575 3.77621 29.7615L9.74684 35.7647V36.8847" stroke="#FCA524" stroke-width="1.5" stroke-miterlimit="10" stroke-linecap="round" stroke-linejoin="round"/>
<path d="M25.3418 36.8735V30.1535L33.2395 22.2127C34.1084 21.3391 35.5231 21.3391 36.3919 22.2127L36.5813 22.4031C37.4502 23.2767 37.4502 24.6991 36.5813 25.5727L31.4684 30.7135" stroke="#FCA524" stroke-width="1.5" stroke-miterlimit="10" stroke-linecap="round" stroke-linejoin="round"/>
<path d="M38.7089 20.0735V9.99354C38.7089 8.76154 39.7114 7.75354 40.9367 7.75354C42.162 7.75354 43.1646 8.76154 43.1646 9.99354V22.6159C43.1646 25.2927 42.1063 27.8575 40.2238 29.7615L34.2532 35.7647V36.8847" stroke="#FCA524" stroke-width="1.5" stroke-miterlimit="10" stroke-linecap="round" stroke-linejoin="round"/>
<path d="M8.63281 41.3535V39.1135H19.7721V41.3535" stroke="#FCA524" stroke-width="1.5" stroke-miterlimit="10" stroke-linecap="round" stroke-linejoin="round"/>
<path d="M24.2278 41.3535V39.1135H35.367V41.3535" stroke="#FCA524" stroke-width="1.5" stroke-miterlimit="10" stroke-linecap="round" stroke-linejoin="round"/>
<path d="M16.4303 9.71362H11.9746V19.7936H16.4303V9.71362Z" stroke="#FCA524" stroke-width="1.5" stroke-miterlimit="10" stroke-linecap="round" stroke-linejoin="round"/>
<path d="M24.2279 6.35352H19.7722V19.7935H24.2279V6.35352Z" stroke="#FCA524" stroke-width="1.5" stroke-miterlimit="10" stroke-linecap="round" stroke-linejoin="round"/>
<path d="M32.0253 10.8336H27.5696V19.7936H32.0253V10.8336Z" stroke="#FCA524" stroke-width="1.5" stroke-miterlimit="10" stroke-linecap="round" stroke-linejoin="round"/>
<path d="M32.0254 4.11353V7.47353H28.6836" stroke="#FCA524" stroke-width="1.5" stroke-miterlimit="10" stroke-linecap="round" stroke-linejoin="round"/>
<path d="M10.8608 3.55357L14.2026 5.79357L22.0001 1.03357L31.5353 6.02877" stroke="#FCA524" stroke-width="1.5" stroke-miterlimit="10" stroke-linecap="round" stroke-linejoin="round"/>
</g>
<defs>
<clipPath id="clip0_114_402">
<rect width="44" height="42" fill="white" transform="translate(0 0.193604)"/>
</clipPath>
</defs>
</svg>
