<svg width="44" height="43" viewBox="0 0 44 43" fill="none" xmlns="http://www.w3.org/2000/svg">
<path d="M18.6582 36.5739V29.4753L10.7605 21.0871C9.89165 20.1643 8.47696 20.1643 7.6081 21.0871L7.41874 21.2883C6.54987 22.2111 6.54987 23.7136 7.41874 24.6364L12.5316 30.0669" stroke="white" stroke-width="1.5" stroke-miterlimit="10" stroke-linecap="round" stroke-linejoin="round"/>
<path d="M5.29115 18.8274V8.17955C5.29115 6.87814 4.28861 5.81335 3.0633 5.81335C1.83798 5.81335 0.835449 6.87814 0.835449 8.17955V21.5131C0.835449 24.3407 1.89368 27.05 3.77621 29.0612L9.74684 35.4026V36.5857" stroke="white" stroke-width="1.5" stroke-miterlimit="10" stroke-linecap="round" stroke-linejoin="round"/>
<path d="M25.3418 36.5739V29.4753L33.2395 21.0871C34.1084 20.1643 35.5231 20.1643 36.3919 21.0871L36.5813 21.2883C37.4502 22.2111 37.4502 23.7136 36.5813 24.6364L31.4684 30.0669" stroke="white" stroke-width="1.5" stroke-miterlimit="10" stroke-linecap="round" stroke-linejoin="round"/>
<path d="M38.7089 18.8274V8.17955C38.7089 6.87814 39.7114 5.81335 40.9367 5.81335C42.162 5.81335 43.1646 6.87814 43.1646 8.17955V21.5131C43.1646 24.3407 42.1063 27.05 40.2238 29.0612L34.2532 35.4026V36.5857" stroke="white" stroke-width="1.5" stroke-miterlimit="10" stroke-linecap="round" stroke-linejoin="round"/>
<path d="M8.63281 41.3063V38.9401H19.7721V41.3063" stroke="white" stroke-width="1.5" stroke-miterlimit="10" stroke-linecap="round" stroke-linejoin="round"/>
<path d="M24.2278 41.3063V38.9401H35.367V41.3063" stroke="white" stroke-width="1.5" stroke-miterlimit="10" stroke-linecap="round" stroke-linejoin="round"/>
<path d="M24.228 6.99643V1.08093H19.7723V6.99643H14.2026V11.7288H19.7723V17.6443H24.228V11.7288H29.7976V6.99643H24.228Z" stroke="white" stroke-width="1.5" stroke-miterlimit="10" stroke-linecap="round" stroke-linejoin="round"/>
</svg>
