<svg width="44" height="45" viewBox="0 0 44 45" fill="none" xmlns="http://www.w3.org/2000/svg">
<g clip-path="url(#clip0_114_359)">
<path d="M18.6582 38.6203V31.5803L10.7605 23.2614C9.89165 22.3462 8.47696 22.3462 7.6081 23.2614L7.41874 23.4608C6.54987 24.376 6.54987 25.8662 7.41874 26.7814L12.5316 32.167" stroke="#A5BB00" stroke-width="1.5" stroke-miterlimit="10" stroke-linecap="round" stroke-linejoin="round"/>
<path d="M5.29115 21.0203V10.4603C5.29115 9.16965 4.28861 8.11365 3.0633 8.11365C1.83798 8.11365 0.835449 9.16965 0.835449 10.4603V23.6838C0.835449 26.488 1.89368 29.175 3.77621 31.1696L9.74684 37.4587V38.632" stroke="#A5BB00" stroke-width="1.5" stroke-miterlimit="10" stroke-linecap="round" stroke-linejoin="round"/>
<path d="M25.3418 38.6203V31.5803L33.2395 23.2614C34.1084 22.3462 35.5231 22.3462 36.3919 23.2614L36.5813 23.4608C37.4502 24.376 37.4502 25.8662 36.5813 26.7814L31.4684 32.167" stroke="#A5BB00" stroke-width="1.5" stroke-miterlimit="10" stroke-linecap="round" stroke-linejoin="round"/>
<path d="M38.7089 21.0203V10.4603C38.7089 9.16965 39.7114 8.11365 40.9367 8.11365C42.162 8.11365 43.1646 9.16965 43.1646 10.4603V23.6838C43.1646 26.488 42.1063 29.175 40.2238 31.1696L34.2532 37.4587V38.632" stroke="#A5BB00" stroke-width="1.5" stroke-miterlimit="10" stroke-linecap="round" stroke-linejoin="round"/>
<path d="M8.63281 43.3137V40.967H19.7721V43.3137" stroke="#A5BB00" stroke-width="1.5" stroke-miterlimit="10" stroke-linecap="round" stroke-linejoin="round"/>
<path d="M24.2278 43.3137V40.967H35.367V43.3137" stroke="#A5BB00" stroke-width="1.5" stroke-miterlimit="10" stroke-linecap="round" stroke-linejoin="round"/>
<path d="M15.3165 16.3269V18.6736C15.3165 19.3189 14.8153 19.8469 14.2026 19.8469H11.9748C11.3621 19.8469 10.8608 19.3189 10.8608 18.6736V16.3269" stroke="#A5BB00" stroke-width="1.5" stroke-miterlimit="10" stroke-linecap="round" stroke-linejoin="round"/>
<path d="M33.1393 16.3269V18.6736C33.1393 19.3189 32.638 19.8469 32.0254 19.8469H29.7975C29.1849 19.8469 28.6836 19.3189 28.6836 18.6736V16.3269" stroke="#A5BB00" stroke-width="1.5" stroke-miterlimit="10" stroke-linecap="round" stroke-linejoin="round"/>
<path d="M28.483 1.07361H15.517C14.5924 1.07361 13.7904 1.70721 13.523 2.63414L12.0638 7.78508C12.0081 7.99628 11.9078 8.19574 11.7964 8.38348L10.1033 11.0352C9.86936 11.3989 9.74683 11.8213 9.74683 12.2555V15.2709C9.74683 15.8459 10.1924 16.3152 10.7382 16.3152H33.2618C33.8076 16.3152 34.2532 15.8459 34.2532 15.2709V12.2555C34.2532 11.8213 34.1306 11.3872 33.8967 11.0352L32.2035 8.38348C32.081 8.19574 31.9919 7.99628 31.9362 7.78508L30.477 2.63414C30.2096 1.70721 29.3964 1.07361 28.483 1.07361Z" stroke="#A5BB00" stroke-width="1.5" stroke-miterlimit="10" stroke-linecap="round" stroke-linejoin="round"/>
<path d="M13.0886 12.8069H15.3165" stroke="#A5BB00" stroke-width="1.5" stroke-miterlimit="10" stroke-linecap="round" stroke-linejoin="round"/>
<path d="M28.6836 12.8069H30.9114" stroke="#A5BB00" stroke-width="1.5" stroke-miterlimit="10" stroke-linecap="round" stroke-linejoin="round"/>
<path d="M25.3417 16.3269V12.8069H18.6582V16.3269" stroke="#A5BB00" stroke-width="1.5" stroke-miterlimit="10" stroke-linecap="round" stroke-linejoin="round"/>
<path d="M11.9746 8.11365H32.0252" stroke="#A5BB00" stroke-width="1.5" stroke-miterlimit="10" stroke-linecap="round" stroke-linejoin="round"/>
</g>
<defs>
<clipPath id="clip0_114_359">
<rect width="44" height="44" fill="white" transform="translate(0 0.193604)"/>
</clipPath>
</defs>
</svg>
