<svg width="46" height="46" viewBox="0 0 46 46" fill="none" xmlns="http://www.w3.org/2000/svg">
<g clip-path="url(#clip0_40_264)">
<path d="M29.1686 42.5271C28.9989 42.5271 28.8493 42.4156 28.801 42.2529C28.7527 42.0902 28.8171 41.9151 28.9593 41.8225L29.5795 41.4193L27.7533 42.4734C27.5745 42.5721 27.3498 42.5133 27.2422 42.3397C27.1346 42.1661 27.1821 41.9387 27.3501 41.8225L30.2902 39.876L25.7868 42.4734C25.6077 42.5736 25.3814 42.5149 25.2736 42.3403C25.1657 42.1657 25.2145 41.9371 25.3843 41.8218L27.9235 40.1581L23.9116 42.4734C23.7333 42.5685 23.5118 42.509 23.4053 42.3373C23.2988 42.1656 23.3439 41.9407 23.5083 41.8233L27.2259 39.3493L21.8132 42.4734C21.6341 42.5753 21.4066 42.5174 21.298 42.3424C21.1893 42.1674 21.2384 41.9378 21.4092 41.8225L24.8592 39.534L19.7708 42.4734C19.5925 42.5737 19.3669 42.5163 19.2582 42.3431C19.1495 42.1699 19.1959 41.9418 19.3637 41.8248L24.0404 38.6547L17.4279 42.4734C17.2494 42.5709 17.0259 42.512 16.9186 42.3393C16.8113 42.1666 16.8574 41.9402 17.0238 41.8233L20.8472 39.2741L15.305 42.4734C15.128 42.5706 14.906 42.5139 14.7973 42.3437C14.6887 42.1736 14.7306 41.9483 14.8933 41.8287L20.8533 37.6434L12.4852 42.4734C12.3064 42.5721 12.0816 42.5133 11.974 42.3397C11.8665 42.1661 11.9139 41.9387 12.0819 41.8225L15.4292 39.6069L10.6674 42.3561C10.4879 42.4582 10.2598 42.3997 10.1515 42.2239C10.0433 42.048 10.0937 41.818 10.2657 41.7037L12.7918 40.0469L9.27666 42.0794C9.09672 42.1871 8.86359 42.1303 8.75347 41.9517C8.64335 41.7732 8.69713 41.5394 8.87416 41.4269L11.2378 39.8668L8.12206 41.6684C7.94336 41.7686 7.71748 41.7106 7.6092 41.5367C7.50092 41.3628 7.54852 41.1344 7.71726 41.0183L10.7011 39.0165L7.12999 41.0758C6.95373 41.1776 6.7286 41.1239 6.61729 40.9535C6.50598 40.783 6.5473 40.5553 6.71139 40.4349L11.6365 36.8216L5.92249 40.1221C5.74574 40.2219 5.52175 40.1667 5.41172 39.9961C5.3017 39.8254 5.3438 39.5986 5.50773 39.4788L8.61119 37.2555L5.10139 39.2849C4.9233 39.3885 4.69514 39.3328 4.58483 39.1588C4.47451 38.9847 4.5215 38.7546 4.69123 38.6378L5.62196 37.9946L4.64063 38.5604C4.46348 38.6599 4.23945 38.6039 4.12996 38.4327C4.02047 38.2616 4.06355 38.0347 4.22816 37.9156L4.74029 37.5537L4.19903 37.8665C4.02749 37.9656 3.80872 37.9177 3.69434 37.7559C3.57995 37.5942 3.60763 37.372 3.75819 37.2432L6.40243 34.9869L3.69993 36.5463C3.52582 36.6434 3.30638 36.5908 3.19516 36.4254C3.08395 36.2599 3.11807 36.0369 3.27366 35.9123L4.77863 34.7424L3.44769 35.509C3.27416 35.6062 3.0551 35.5546 2.9433 35.3901C2.83149 35.2255 2.86409 35.0029 3.01836 34.8773L4.72726 33.5226L3.31276 34.3399C3.13957 34.4378 2.92022 34.387 2.80779 34.2228C2.69535 34.0586 2.72721 33.8357 2.88113 33.7097L4.52333 32.3902L3.28056 33.1078C3.10838 33.2082 2.88799 33.1599 2.77359 32.9967C2.65918 32.8335 2.68893 32.6098 2.84203 32.4822L4.63143 30.9834L3.28133 31.7631C3.10706 31.8655 2.88319 31.8151 2.76975 31.6478C2.65631 31.4804 2.6923 31.2538 2.85199 31.1298L3.53663 30.5932L3.28133 30.7411C3.1121 30.8424 2.89365 30.7987 2.77634 30.6402C2.65903 30.4817 2.68115 30.26 2.82746 30.1278L4.19596 28.8475L3.28133 29.3757C3.11775 29.4709 2.90918 29.4325 2.79027 29.2852C2.67136 29.138 2.67772 28.926 2.80523 28.7861L3.18166 28.3668C3.04561 28.4006 2.90195 28.3574 2.80707 28.2542C2.71218 28.151 2.68119 28.0042 2.72626 27.8715L2.88573 27.4008C2.8326 27.3676 2.78859 27.3218 2.75769 27.2674C2.65184 27.084 2.71466 26.8496 2.89799 26.7437L3.28133 26.5214C3.41944 26.442 3.59225 26.4563 3.71541 26.5574C3.83858 26.6584 3.88643 26.825 3.83563 26.976L3.77583 27.1547L4.88059 26.5168C5.04395 26.4227 5.25149 26.4613 5.37003 26.6079C5.48857 26.7545 5.48292 26.9655 5.35669 27.1056L5.01246 27.4889L6.69913 26.513C6.86828 26.4133 7.08541 26.4575 7.20208 26.6154C7.31875 26.7734 7.29722 26.9939 7.15223 27.1263L5.79063 28.4028L7.74333 27.2766C7.91709 27.1788 8.13677 27.2306 8.24861 27.3956C8.36044 27.5607 8.32709 27.7839 8.17189 27.9091L7.48189 28.4534L8.05919 28.1207C8.23106 28.0224 8.44943 28.0712 8.56315 28.2333C8.67686 28.3953 8.64851 28.6172 8.49773 28.7455L6.70756 30.2443L8.47089 29.2254C8.64409 29.1275 8.86343 29.1783 8.97587 29.3425C9.0883 29.5066 9.05645 29.7295 8.90253 29.8556L7.26186 31.1735L8.85653 30.2535C9.03018 30.1545 9.25078 30.2055 9.36329 30.3708C9.47579 30.536 9.44242 30.76 9.28663 30.8853L7.57926 32.2407L9.24523 31.2801C9.41947 31.1812 9.6405 31.2331 9.75243 31.3993C9.86436 31.5655 9.82942 31.7898 9.67226 31.9141L8.16959 33.081L9.63776 32.2338C9.80899 32.1367 10.0259 32.1851 10.1397 32.3457C10.2534 32.5064 10.227 32.7271 10.0786 32.8564L7.43666 35.1134L11.6917 32.6601C11.8683 32.5638 12.0894 32.6204 12.198 32.7899C12.3065 32.9594 12.2655 33.1839 12.1041 33.3041L11.5958 33.6629L13.3308 32.6601C13.5081 32.5632 13.7302 32.6207 13.8383 32.7914C13.9465 32.9621 13.9035 33.1874 13.7402 33.3064L12.8102 33.9504L15.0466 32.6601C15.2233 32.5602 15.4473 32.6154 15.5574 32.7861C15.6674 32.9567 15.6253 33.1835 15.4614 33.3033L12.3571 35.5267L17.3175 32.6632C17.4937 32.5613 17.7188 32.615 17.8302 32.7855C17.9415 32.9559 17.9002 33.1836 17.7361 33.3041L12.8102 36.9174L20.181 32.6601C20.3593 32.5613 20.5838 32.6194 20.6918 32.7924C20.7998 32.9653 20.7536 33.1925 20.5865 33.3095L17.5965 35.3135L22.1965 32.6601C22.3757 32.5599 22.6019 32.6186 22.7098 32.7932C22.8177 32.9678 22.7688 33.1964 22.599 33.3118L20.24 34.865L24.0595 32.6601C24.2384 32.5627 24.4622 32.6223 24.5691 32.7956C24.6759 32.969 24.6286 33.1957 24.4613 33.3118L21.9351 34.9678L25.9356 32.6601C26.1143 32.5614 26.3391 32.6202 26.4467 32.7938C26.5542 32.9674 26.5068 33.1948 26.3388 33.311L22.9885 35.5282L27.9573 32.6601C28.1342 32.5629 28.3562 32.6196 28.4649 32.7898C28.5735 32.9599 28.5316 33.1852 28.369 33.3049L22.4074 37.4901L30.7778 32.6601C30.9563 32.5627 31.1798 32.6215 31.2871 32.7942C31.3944 32.9669 31.3482 33.1933 31.1819 33.3102L27.3646 35.8548L32.9 32.6593C33.078 32.5617 33.3013 32.6199 33.4091 32.7919C33.5169 32.964 33.4718 33.1903 33.3063 33.3079L28.6296 36.4781L35.246 32.6593C35.4248 32.5606 35.6495 32.6194 35.7571 32.793C35.8646 32.9666 35.8172 33.1941 35.6492 33.3102L32.1992 35.5987L37.2853 32.6601C37.4638 32.5627 37.6872 32.6215 37.7946 32.7942C37.9019 32.9669 37.8557 33.1933 37.6893 33.3102L33.9695 35.7858L39.294 32.7122C39.4735 32.6102 39.7016 32.6686 39.8098 32.8445C39.9181 33.0203 39.8676 33.2503 39.6957 33.3647L37.1565 35.0291L40.7345 32.9629C40.914 32.8589 41.1436 32.9164 41.2528 33.0928C41.3619 33.2692 41.311 33.5004 41.1378 33.6146L38.1984 35.5581L41.8692 33.439C42.0491 33.3344 42.2797 33.3925 42.3886 33.5699C42.4975 33.7473 42.4449 33.9791 42.2702 34.0922L41.6484 34.4955L42.5899 33.9527C42.766 33.8492 42.9924 33.9021 43.1045 34.0729C43.2166 34.2437 43.175 34.4724 43.01 34.5929L37.8166 38.4346L43.69 35.0437C43.8669 34.9393 44.0946 34.9928 44.2064 35.1651C44.3182 35.3373 44.2744 35.5671 44.1071 35.6861L40.7483 38.1211L44.3386 36.0511C44.5159 35.9529 44.7389 36.0096 44.8477 36.1806C44.9565 36.3515 44.9135 36.5775 44.7496 36.6966L43.8227 37.3429L44.676 36.8507C44.8473 36.7489 45.068 36.7954 45.1837 36.9575C45.2995 37.1197 45.2717 37.3435 45.1199 37.4725L42.4189 39.8131L44.9619 38.3457C45.1256 38.2516 45.3335 38.2907 45.4518 38.4378C45.57 38.585 45.5636 38.7964 45.4365 38.936L43.943 40.5621L44.6422 40.1589C44.7611 40.0833 44.9117 40.079 45.0347 40.1476C45.1576 40.2162 45.2331 40.3468 45.2312 40.4875C45.2293 40.6283 45.1503 40.7568 45.0256 40.822L42.1621 42.4734C41.9984 42.5665 41.7915 42.5269 41.6736 42.3801C41.5558 42.2333 41.562 42.0227 41.6883 41.8831L43.181 40.2578L39.3407 42.4734C39.1698 42.5714 38.9525 42.5239 38.838 42.3635C38.7236 42.2032 38.7494 41.9822 38.8976 41.8524L41.5978 39.5095L36.4611 42.4734C36.2837 42.5741 36.0585 42.5181 35.9488 42.3461C35.8391 42.1741 35.8833 41.9463 36.0494 41.8279L36.9771 41.1801L34.7392 42.4734C34.5623 42.5778 34.3347 42.5242 34.2229 42.352C34.111 42.1798 34.1548 41.95 34.3221 41.831L37.6794 39.3976L32.3533 42.4734C32.1772 42.5769 31.9508 42.524 31.8387 42.3532C31.7266 42.1824 31.7682 41.9537 31.9332 41.8333L37.1266 37.9923L29.3633 42.4734C29.3044 42.5084 29.2371 42.5269 29.1686 42.5271V42.5271Z" fill="#2CB2B3"/>
<path d="M17.2454 45.5937C17.0766 45.5941 16.9274 45.484 16.878 45.3225C16.8286 45.1611 16.8906 44.9864 17.0307 44.8922L18.0665 44.1953L15.7327 45.54C15.5569 45.6386 15.3348 45.5841 15.2245 45.4154C15.1142 45.2467 15.1534 45.0214 15.3141 44.8999L19.8881 41.5265L16.33 43.5827C16.1539 43.6821 15.9309 43.6276 15.8205 43.4582C15.71 43.2889 15.7502 43.0628 15.9121 42.9418L17.9361 41.4637C17.7669 41.5228 17.5792 41.4567 17.4844 41.3045C17.3896 41.1523 17.4129 40.9548 17.5405 40.8289L19.3652 39.0241C19.3417 39.0014 19.3213 38.9756 19.3046 38.9475C19.1988 38.7641 19.2616 38.5297 19.4449 38.4238L20.7613 37.6641C20.928 37.5703 21.1383 37.6138 21.2542 37.766C21.3701 37.9181 21.356 38.1324 21.2213 38.2682L20.1947 39.284L23.69 37.2646C23.8661 37.1652 24.0891 37.2197 24.1995 37.3891C24.3099 37.5585 24.2698 37.7845 24.1078 37.9056L22.1352 39.3469L25.4365 37.4417C25.6124 37.3409 25.8365 37.3946 25.9476 37.5643C26.0588 37.734 26.0185 37.9608 25.8558 38.0819L21.2834 41.4552L27.3225 37.9692C27.5014 37.8655 27.7304 37.9225 27.8399 38.098C27.9494 38.2735 27.8999 38.5042 27.728 38.6193L25.4878 40.1274C25.6334 40.159 25.7475 40.2721 25.7804 40.4174C25.8133 40.5627 25.759 40.7139 25.6411 40.8051L22.8137 42.9886C22.9249 43.0615 22.9904 43.1869 22.9866 43.3199C22.9829 43.4529 22.9105 43.5744 22.7953 43.641L19.4986 45.5439C19.3243 45.6415 19.1042 45.5888 18.9929 45.4228C18.8816 45.2568 18.9166 45.0332 19.0731 44.9091L20.6509 43.6901L17.4363 45.54C17.3786 45.5747 17.3127 45.5933 17.2454 45.5937V45.5937Z" fill="#2CB2B3"/>
<path d="M22.8766 30.13C22.7205 30.1303 22.5798 30.036 22.5209 29.8915C22.462 29.747 22.4965 29.5812 22.6082 29.4722L23.0061 29.0835L22.4288 29.4163C22.2574 29.5137 22.04 29.4652 21.9263 29.3041C21.8125 29.143 21.8396 28.9219 21.9888 28.793L24.38 26.7567L21.505 28.4158C21.328 28.513 21.106 28.4562 20.9974 28.2861C20.8887 28.1159 20.9307 27.8906 21.0933 27.771L21.7519 27.311L20.9338 27.7825C20.7573 27.8801 20.5353 27.8241 20.4261 27.6545C20.3169 27.4848 20.3579 27.2596 20.5198 27.1393L23.7046 24.8722L20.1779 26.9108C20.0008 27.0103 19.7767 26.9543 19.6672 26.7832C19.5577 26.612 19.6008 26.3851 19.7654 26.266L24.7365 22.7562L19.32 25.8781C19.1406 25.9847 18.9089 25.9282 18.7987 25.751C18.6885 25.5738 18.7403 25.341 18.9152 25.2272L22.5768 22.7831L18.6545 25.047C18.4739 25.1575 18.238 25.1007 18.1275 24.9202C18.0169 24.7396 18.0737 24.5036 18.2543 24.3931L20.3527 23.0338L18.101 24.3371C17.9226 24.4359 17.6981 24.3778 17.5901 24.2048C17.4821 24.0319 17.5284 23.8047 17.6954 23.6877L24.1002 19.376L17.3282 23.286C17.1477 23.3892 16.9179 23.3296 16.8101 23.1518C16.7024 22.974 16.7561 22.7427 16.9311 22.6305L17.5613 22.2318L16.8667 22.6297C16.688 22.7299 16.4621 22.6719 16.3538 22.498C16.2455 22.3241 16.2931 22.0958 16.4619 21.9796L23.8748 17.0124L16.1 21.4966C15.9203 21.5954 15.6947 21.5353 15.588 21.3602C15.4812 21.1852 15.5312 20.9571 15.7013 20.8426L19.8613 18.17L15.5679 20.651C15.3885 20.7575 15.1568 20.701 15.0466 20.5238C14.9364 20.3466 14.9882 20.1139 15.1631 20.0001L23.23 14.6035L14.8588 19.4335C14.6788 19.536 14.4499 19.4769 14.342 19.3002C14.234 19.1234 14.286 18.8929 14.4593 18.7795L19.813 15.3173L14.3367 18.4805C14.1578 18.5779 13.934 18.5183 13.8271 18.345C13.7203 18.1716 13.7676 17.945 13.9349 17.8289L20.9047 13.2488L13.8092 17.3451C13.6298 17.4412 13.4066 17.3803 13.3008 17.2064C13.195 17.0325 13.2435 16.8063 13.4113 16.6911L17.2324 14.247L13.4228 16.4466C13.2434 16.5426 13.0202 16.4817 12.9144 16.3079C12.8086 16.134 12.8571 15.9078 13.0249 15.7926L16.596 13.5087L13.11 15.5235C12.9317 15.6238 12.7062 15.5664 12.5974 15.3932C12.4887 15.2199 12.5351 14.9919 12.7029 14.8749L21.1822 9.11187L12.6853 14.0185C12.5072 14.1161 12.2839 14.058 12.1761 13.8859C12.0683 13.7138 12.1134 13.4876 12.2789 13.3699L19.7539 8.30993L12.5189 12.4867C12.3393 12.5871 12.1125 12.5278 12.0051 12.3524C11.8976 12.1769 11.9477 11.948 12.1187 11.8335L15.1631 9.86013L12.5565 11.3636C12.3779 11.4597 12.1553 11.4002 12.0487 11.2277C11.942 11.0552 11.9882 10.8295 12.154 10.7127L15.7734 8.32527L12.6791 10.1116C12.5014 10.2082 12.2792 10.15 12.1716 9.97872C12.064 9.80745 12.1079 9.58203 12.272 9.46377L16.5447 6.55427L13.1192 8.5315C12.9441 8.63117 12.7217 8.57828 12.6103 8.41046C12.4988 8.24264 12.5362 8.01716 12.696 7.8944L17.5567 4.20443L14.2378 6.1211C14.0642 6.21831 13.8452 6.16665 13.7334 6.00214C13.6216 5.83763 13.6542 5.61493 13.8084 5.48937L16.0471 3.71683C15.914 3.65941 15.8248 3.53186 15.8163 3.38719C15.8079 3.24252 15.8818 3.10546 16.0072 3.03297L19.3683 1.09253C19.542 0.993505 19.7626 1.04455 19.8751 1.2098C19.9876 1.37504 19.9542 1.599 19.7984 1.72427L18.3916 2.8367L22.4495 0.495301C22.6246 0.395636 22.847 0.448522 22.9585 0.616343C23.0699 0.784164 23.0325 1.00964 22.8727 1.1324L18.0167 4.82083L25.1053 0.726067C25.2835 0.625813 25.5091 0.683171 25.6178 0.856402C25.7266 1.02963 25.6802 1.25771 25.5124 1.37467L21.2405 4.288L26.5849 1.20217C26.7641 1.10197 26.9903 1.16065 27.0982 1.33528C27.2061 1.50991 27.1572 1.73851 26.9874 1.85383L23.3626 4.24047L27.7073 1.7327C27.8867 1.63537 28.1108 1.69556 28.2172 1.86962C28.3237 2.04369 28.2751 2.27063 28.1068 2.3859L25.0646 4.357L28.6733 2.2732C28.8523 2.1672 29.0831 2.22318 29.1935 2.39938C29.304 2.57558 29.2538 2.80772 29.0804 2.92257L21.6031 7.98257L29.8387 3.22923C30.0169 3.12898 30.2425 3.18634 30.3512 3.35957C30.46 3.5328 30.4136 3.76088 30.2458 3.87783L21.7664 9.64087L30.9181 4.35777C31.0978 4.25895 31.3234 4.31903 31.4302 4.49412C31.5369 4.66921 31.487 4.89729 31.3168 5.01173L27.7533 7.29027L31.5246 5.11293C31.7042 5.01412 31.9299 5.0742 32.0366 5.24929C32.1433 5.42438 32.0934 5.65246 31.9232 5.7669L28.1052 8.20797L32.0214 5.94783C32.2003 5.85049 32.424 5.91002 32.5309 6.08338C32.6378 6.25674 32.5904 6.48341 32.4231 6.5995L25.4533 11.1819L32.6025 7.05337C32.7831 6.94285 33.0191 6.99966 33.1296 7.18025C33.2401 7.36084 33.1833 7.59682 33.0027 7.70733L27.6445 11.1704L32.9521 8.1037C33.1318 7.99171 33.3683 8.04663 33.4803 8.22637C33.5923 8.40611 33.5374 8.64261 33.3577 8.7546L25.287 14.1512L33.3255 9.51053C33.506 9.40477 33.7379 9.46322 33.8467 9.6419C33.9555 9.82057 33.901 10.0535 33.7241 10.1653L29.5657 12.8386L33.4328 10.6069C33.6118 10.5031 33.8408 10.5601 33.9503 10.7356C34.0597 10.9111 34.0102 11.1419 33.8384 11.257L26.4285 16.2212L33.4435 12.1716C33.624 12.0685 33.8539 12.128 33.9616 12.3058C34.0693 12.4836 34.0157 12.7149 33.8407 12.8271L33.2074 13.2273L33.337 13.1507C33.5165 13.0385 33.753 13.093 33.8652 13.2726C33.9774 13.4521 33.9228 13.6886 33.7433 13.8008L27.334 18.1156L32.8739 14.9178C33.0532 14.8205 33.2774 14.8807 33.3838 15.0548C33.4902 15.2288 33.4417 15.4558 33.2733 15.571L31.1865 16.9242L32.3779 16.2342C32.5566 16.134 32.7824 16.1921 32.8907 16.366C32.999 16.5399 32.9514 16.7682 32.7827 16.8843L29.1142 19.3377L31.6189 17.8917C31.796 17.7922 32.02 17.8482 32.1295 18.0194C32.239 18.1905 32.1959 18.4174 32.0313 18.5365L27.0633 22.0448L30.3224 20.1634C30.4995 20.0624 30.7246 20.1176 30.8348 20.289C30.945 20.4605 30.9018 20.6882 30.7364 20.8074L27.5494 23.0767L28.9033 22.2955C29.0808 22.1948 29.306 22.2507 29.4157 22.4228C29.5254 22.5948 29.4812 22.8226 29.315 22.941L27.9067 23.93C28.0123 23.9437 28.1072 24.0013 28.1681 24.0887C28.2825 24.2506 28.2546 24.473 28.1037 24.6016L25.4671 26.8426C25.6206 26.8474 25.7564 26.9434 25.8122 27.0865C25.8679 27.2296 25.8329 27.3922 25.7232 27.4996L23.8249 29.3549C23.8501 29.5117 23.7761 29.6678 23.6386 29.7475L23.0705 30.0756C23.0119 30.1107 22.9449 30.1295 22.8766 30.13V30.13Z" fill="#F76031"/>
<path d="M24.1308 18.63C23.9707 18.6302 23.8272 18.5308 23.7712 18.3808C23.7151 18.2308 23.7583 18.0617 23.8794 17.9569L26.2108 15.9413L21.7105 18.5388C21.5354 18.6384 21.313 18.5855 21.2015 18.4177C21.0901 18.2499 21.1275 18.0244 21.2873 17.9017L24.6667 15.3464L20.1127 17.9745C19.9365 18.0763 19.7113 18.0226 19.6 17.8522C19.4887 17.6817 19.53 17.454 19.6941 17.3336L23.8594 14.2807L18.86 17.1672C18.683 17.2682 18.4578 17.213 18.3476 17.0415C18.2374 16.8701 18.2806 16.6423 18.446 16.5232L22.6627 13.5179L17.94 16.2457C17.7624 16.3401 17.5421 16.2813 17.4352 16.1109C17.3284 15.9405 17.3713 15.7166 17.5337 15.5978L20.1557 13.8161L17.3727 15.4207C17.1964 15.5226 16.9713 15.4689 16.86 15.2984C16.7486 15.128 16.79 14.9003 16.9541 14.7798L22.2602 10.8966L16.7402 14.0844C16.5608 14.191 16.3291 14.1345 16.2189 13.9573C16.1087 13.7801 16.1605 13.5473 16.3354 13.4335L17.5536 12.6209L16.4803 13.2411C16.3025 13.3431 16.0759 13.2873 15.966 13.1143C15.856 12.9413 15.9015 12.7125 16.0693 12.5948L18.9827 10.567L16.3484 12.088C16.1738 12.1863 15.953 12.1335 15.8417 11.967C15.7304 11.8004 15.7661 11.5762 15.9237 11.4525L20.1212 8.23629L16.4918 10.3316C16.3148 10.4342 16.0885 10.3798 15.9775 10.208C15.8665 10.0362 15.91 9.80749 16.0762 9.68836L17.2224 8.86419L16.9395 9.02673C16.7692 9.12378 16.5531 9.07673 16.4386 8.91766C16.3241 8.75858 16.348 8.53874 16.4941 8.40803L18.2574 6.85246C18.1066 6.8137 17.9943 6.68761 17.9731 6.53338C17.9519 6.37915 18.0261 6.22741 18.1608 6.14943L20.7943 4.62989C20.9648 4.53255 21.1813 4.57976 21.2958 4.73925C21.4103 4.89875 21.3857 5.11896 21.239 5.24936L19.8881 6.43999L23.473 4.36999C23.65 4.2674 23.8763 4.3218 23.9873 4.49361C24.0983 4.66542 24.0548 4.8941 23.8886 5.01323L22.7386 5.83816L24.8254 4.63373C24.9999 4.53733 25.2191 4.59071 25.3297 4.75652C25.4403 4.92233 25.4054 5.14525 25.2494 5.26929L21.055 8.48316L26.4347 5.37739C26.6127 5.27169 26.8425 5.32643 26.9537 5.50105C27.0649 5.67566 27.0174 5.90705 26.8464 6.02369L23.9353 8.04999L27.37 6.06509C27.5491 5.96325 27.7766 6.02111 27.8852 6.19613C27.9939 6.37114 27.9448 6.60073 27.774 6.71599L26.5589 7.52943L28.0033 6.69529C28.1794 6.59591 28.4024 6.6504 28.5128 6.81979C28.6232 6.98917 28.5831 7.21521 28.4211 7.33623L23.1188 11.2179L28.8405 7.91429C29.0187 7.81404 29.2443 7.8714 29.353 8.04463C29.4618 8.21786 29.4154 8.44594 29.2476 8.56289L26.6202 10.35L29.2353 8.84043C29.4123 8.73943 29.6375 8.79465 29.7477 8.96611C29.8579 9.13756 29.8147 9.36529 29.6493 9.48443L25.4326 12.489L29.5634 10.1047C29.7395 10.0053 29.9625 10.0598 30.073 10.2292C30.1834 10.3985 30.1433 10.6246 29.9813 10.7456L25.816 13.8L29.6363 11.5943C29.8114 11.4946 30.0337 11.5475 30.1452 11.7153C30.2567 11.8832 30.2192 12.1086 30.0595 12.2314L26.68 14.7852L29.3196 13.2633C29.4904 13.1669 29.7065 13.2149 29.8203 13.3747C29.9341 13.5345 29.909 13.7544 29.762 13.8843L27.4313 15.9007L28.1735 15.4729C28.2923 15.3973 28.443 15.393 28.5659 15.4616C28.6889 15.5303 28.7643 15.6608 28.7624 15.8016C28.7605 15.9423 28.6816 16.0708 28.5568 16.136L24.3225 18.5802C24.2641 18.6133 24.198 18.6305 24.1308 18.63V18.63Z" fill="#F0F2F5"/>
<path d="M41.2382 37.1611C41.0869 37.1611 40.9498 37.0721 40.8882 36.9339C40.8266 36.7958 40.852 36.6343 40.953 36.5217L41.3111 36.1223L39.7478 37.0246C39.5776 37.1229 39.3607 37.0766 39.2455 36.9173C39.1304 36.7581 39.1542 36.5376 39.3009 36.4067L39.4473 36.2756L38.9551 36.5608C38.7947 36.6537 38.5908 36.6185 38.4708 36.4772C38.3508 36.336 38.3491 36.129 38.4667 35.9858L39.4749 34.7591L38.548 35.2958C38.418 35.3709 38.2561 35.3632 38.1338 35.2761C38.0115 35.1889 37.9513 35.0384 37.9799 34.891L38.236 33.5777C38.0924 33.5303 37.9901 33.4031 37.9748 33.2527C37.9594 33.1024 38.0337 32.957 38.1647 32.8816L38.548 32.6608C38.6781 32.5855 38.8403 32.5932 38.9626 32.6806C39.085 32.768 39.145 32.9188 39.1161 33.0663L38.893 34.2087L40.9178 33.0433C41.0782 32.9504 41.2821 32.9856 41.4021 33.1269C41.5221 33.2682 41.5238 33.4751 41.4061 33.6183L40.3972 34.845L42.3077 33.7433C42.4762 33.654 42.6848 33.7021 42.7971 33.8562C42.9094 34.0103 42.8913 34.2236 42.7547 34.3566L42.6075 34.4877L43.01 34.2577C43.173 34.1646 43.3794 34.2032 43.4977 34.349C43.616 34.4947 43.6114 34.7046 43.4869 34.845L43.1281 35.2452L43.6387 34.9508C43.7695 34.8755 43.9324 34.884 44.0547 34.9725C44.177 35.061 44.2359 35.2131 44.2052 35.361L44.068 36.018L44.2604 35.9068C44.3793 35.8313 44.5299 35.827 44.6529 35.8956C44.7758 35.9642 44.8513 36.0947 44.8494 36.2355C44.8475 36.3763 44.7685 36.5047 44.6438 36.57L43.7092 37.1067C43.5783 37.1825 43.4151 37.1742 43.2925 37.0856C43.1699 36.997 43.1109 36.8446 43.1419 36.6965L43.2791 36.0402L41.4299 37.1067C41.3721 37.1417 41.3058 37.1605 41.2382 37.1611V37.1611Z" fill="#F76031"/>
<path d="M45.3154 36.5945C45.3121 36.5661 45.3004 36.5394 45.2816 36.5178C44.1385 33.6336 41.5434 32.8723 38.765 32.6745C38.5756 32.5734 38.3513 32.5605 38.1516 32.6393C37.2316 32.5986 36.2963 32.6032 35.3993 32.6032H17.6655C15.926 32.6032 12.6439 33.2817 11.027 32.6032C9.53195 31.9769 8.90635 28.7201 8.32829 26.9851C8.68939 26.867 9.19845 26.6156 8.79672 26.6156H8.17112C8.00552 26.4024 7.56392 26.4469 7.29865 26.6156H3.56882C3.42775 26.4523 3.03215 26.4868 2.76995 26.6156H2.66339C2.44029 26.6156 1.41295 27.0449 1.93659 27.0449H2.50929C2.50162 28.8481 2.34982 30.8192 2.42419 32.7481H1.13005C0.852175 32.7303 0.576106 32.8041 0.344218 32.9582C0.236118 33.0786 0.131852 33.179 0.403252 33.179H2.44565C2.44399 35.4053 3.17099 37.571 4.51565 39.3453C7.51639 42.9348 11.9953 42.5247 16.2035 42.4886L14.3635 44.8538H14.0009C13.5002 44.8538 12.8555 45.6128 13.6037 45.6128H21.2704C21.771 45.6128 22.4158 44.8538 21.6675 44.8538H21.5801L23.9047 42.527H38.1754C41.6177 42.527 46.8878 42.714 45.5921 37.4838C45.5181 37.182 45.4257 36.885 45.3154 36.5945V36.5945ZM44.1186 36.4297H40.7016C39.7425 36.4297 39.0149 36.1146 38.893 35.0144C38.8514 34.4566 38.8486 33.8966 38.8846 33.3385C40.8051 33.534 43.135 34.5966 44.1186 36.4297V36.4297ZM15.3625 44.8538C16.4665 43.4355 17.5699 42.0169 18.6729 40.598C19.1438 39.8839 19.6698 39.2077 20.2461 38.5756C20.2975 38.5309 20.3454 38.4825 20.3895 38.4307C20.4225 38.4107 20.4478 38.3954 20.4984 38.3632C21.9872 37.4079 24.7649 37.7284 26.3672 38.2758C27.301 38.5955 27.0779 38.3571 26.3258 39.1099L24.173 41.262L20.5812 44.8538H15.3625ZM40.5567 41.8063H24.6253L28.1106 38.321C28.2034 38.2283 28.1466 38.134 28.0485 38.091C25.6864 36.9962 21.4621 36.711 19.3323 38.4644C18.3198 39.4868 17.4308 40.6244 16.6834 41.8538C12.2989 41.8876 7.59459 42.2801 4.91355 38.009C4.06778 36.5382 3.60019 34.8804 3.55272 33.1844H4.23659C4.51446 33.2023 4.79053 33.1285 5.02242 32.9743C5.13052 32.8539 5.23479 32.7535 4.96339 32.7535H3.52665C3.43695 30.8284 3.59949 28.8435 3.61635 27.0503H7.13382C7.67585 28.5491 8.28382 32.1923 9.62625 33.1269C10.4244 33.6835 12.3096 33.3293 13.169 33.3293H32.9069C34.5023 33.3293 36.156 33.225 37.7706 33.2794C37.7422 34.9193 37.5191 37.0315 39.7072 37.1726C41.2689 37.273 42.8659 37.1802 44.4329 37.1726C44.538 37.5237 44.5934 37.8878 44.5978 38.2543C44.6476 42.2341 42.5906 41.8063 40.5567 41.8063V41.8063Z" fill="#262626"/>
<path d="M13.6305 5.64572C8.1182 13.892 16.0708 23.6356 21.9443 29.5527H16.3077C15.8477 29.5527 15.1439 30.2473 15.8922 30.2473H29.6922C30.1522 30.2473 30.856 29.5527 30.1077 29.5527H23.7935C28.4701 24.8868 33.9763 18.4744 34.2884 11.6687C33.7877 0.810357 19.7685 -3.53511 13.6305 5.64572V5.64572ZM24.7717 27.5233C24.2995 28.06 23.5972 28.5967 23.141 29.1954C22.2716 27.5854 20.082 25.9647 18.9903 24.577C15.2835 19.8643 11.2569 13.8544 13.5631 7.64672C15.6883 1.92662 22.9854 -0.709943 28.1704 2.63272C31.4287 4.73339 33.0042 8.20562 33.1782 11.9661C32.9068 17.8771 28.5261 23.2699 24.7717 27.5233V27.5233Z" fill="#262626"/>
<path d="M15.5449 11.6488C15.5718 21.1593 29.9659 20.4455 30.4551 11.3513C29.9506 1.97726 15.5181 2.42039 15.5449 11.6488V11.6488ZM27.8369 15.8654C25.9959 17.8538 23.129 18.5192 20.6003 17.5452C18.1997 16.4138 16.6643 14.0021 16.6551 11.3482C16.6613 9.932 17.1106 8.55325 17.94 7.40526C19.6602 5.31137 22.487 4.48428 25.0646 5.32069C27.6291 6.38359 29.3129 8.87297 29.3449 11.6488C29.3128 13.1821 28.7836 14.6635 27.8369 15.87V15.8654Z" fill="#262626"/>
<path d="M12.627 35.808H11.0936C10.8171 35.8009 10.5444 35.8742 10.3086 36.0188C10.1499 36.1292 10.1407 36.2588 10.373 36.2588H11.9063C12.1829 36.2658 12.4555 36.1926 12.6914 36.0479C12.8501 35.9375 12.8593 35.808 12.627 35.808Z" fill="#262626"/>
<path d="M16.9127 35.614H15.3793C15.1332 35.614 14.7951 35.8049 14.7698 36.074C14.7415 36.3669 15.0612 36.4573 15.2873 36.4573H16.8207C17.0668 36.4573 17.4049 36.2664 17.4302 35.9973C17.4585 35.7014 17.1388 35.614 16.9127 35.614Z" fill="#262626"/>
<path d="M30.7165 35.6293H29.1832C28.944 35.6293 28.5982 35.814 28.5698 36.0762C28.5399 36.366 28.8658 36.4373 29.0827 36.4373H30.6161C30.8553 36.4373 31.201 36.2526 31.2294 35.9904C31.2593 35.7006 30.9335 35.6293 30.7165 35.6293Z" fill="#262626"/>
<path d="M35.3142 35.6208H33.7809C33.5378 35.6208 33.1967 35.8087 33.1675 36.0739C33.1376 36.366 33.4604 36.4458 33.6827 36.4458H35.2161C35.4591 36.4458 35.8003 36.2579 35.8294 35.9927C35.8593 35.7006 35.5365 35.6208 35.3142 35.6208Z" fill="#262626"/>
<path d="M23.2123 7.33932C20.8257 7.40372 18.6783 9.06432 18.6123 11.566C18.6001 12.0405 19.7148 11.8205 19.7255 11.4341C19.6649 9.65238 21.0153 8.13759 22.7922 7.99405C23.0046 7.98869 23.4347 7.92659 23.5236 7.68739C23.601 7.46352 23.4492 7.33319 23.2123 7.33932V7.33932Z" fill="#262626"/>
</g>
<defs>
<clipPath id="clip0_40_264">
<rect width="46" height="46" fill="white"/>
</clipPath>
</defs>
</svg>
