<svg width="35" height="29" viewBox="0 0 35 29" fill="none" xmlns="http://www.w3.org/2000/svg">
<path d="M31.6941 24.2511C34.9178 20.7525 34.5932 16.2596 34.5829 16.2083V2.54165C34.5829 2.08857 34.4029 1.65405 34.0826 1.33367C33.7622 1.0133 33.3277 0.833313 32.8746 0.833313H22.6246C20.7403 0.833313 19.2079 2.36569 19.2079 4.24998V16.2083C19.2079 16.6614 19.3879 17.0959 19.7083 17.4163C20.0287 17.7367 20.4632 17.9166 20.9163 17.9166H26.1745C26.1384 18.7612 25.8861 19.5824 25.4416 20.3015C24.5738 21.6699 22.9389 22.6043 20.5797 23.0758L19.2079 23.3491V28.1666H20.9163C25.6705 28.1666 29.2973 26.8495 31.6941 24.2511ZM12.8905 24.2511C16.1158 20.7525 15.7895 16.2596 15.7793 16.2083V2.54165C15.7793 2.08857 15.5993 1.65405 15.2789 1.33367C14.9586 1.0133 14.524 0.833313 14.071 0.833313H3.82096C1.93667 0.833313 0.404297 2.36569 0.404297 4.24998V16.2083C0.404297 16.6614 0.584281 17.0959 0.904656 17.4163C1.22503 17.7367 1.65955 17.9166 2.11263 17.9166H7.37088C7.33479 18.7612 7.08244 19.5824 6.63801 20.3015C5.77017 21.6699 4.1353 22.6043 1.77609 23.0758L0.404297 23.3491V28.1666H2.11263C6.86692 28.1666 10.4937 26.8495 12.8905 24.2511Z" fill="#F76031"/>
</svg>
