<svg width="41" height="41" viewBox="0 0 41 41" fill="none" xmlns="http://www.w3.org/2000/svg">
<path d="M34.6946 30.2511C37.9182 26.7524 37.5936 22.2595 37.5834 22.2083V8.54159C37.5834 8.08851 37.4034 7.65399 37.083 7.33361C36.7626 7.01324 36.3281 6.83325 35.875 6.83325H25.625C23.7407 6.83325 22.2084 8.36563 22.2084 10.2499V22.2083C22.2084 22.6613 22.3883 23.0959 22.7087 23.4162C23.0291 23.7366 23.4636 23.9166 23.9167 23.9166H29.1749C29.1388 24.7612 28.8865 25.5823 28.4421 26.3014C27.5742 27.6698 25.9394 28.6043 23.5801 29.0758L22.2084 29.3491V34.1666H23.9167C28.671 34.1666 32.2978 32.8495 34.6946 30.2511ZM15.8909 30.2511C19.1163 26.7524 18.79 22.2595 18.7797 22.2083V8.54159C18.7797 8.08851 18.5997 7.65399 18.2794 7.33361C17.959 7.01324 17.5245 6.83325 17.0714 6.83325H6.82139C4.9371 6.83325 3.40472 8.36563 3.40472 10.2499V22.2083C3.40472 22.6613 3.58471 23.0959 3.90508 23.4162C4.22546 23.7366 4.65998 23.9166 5.11306 23.9166H10.3713C10.3352 24.7612 10.0829 25.5823 9.63843 26.3014C8.7706 27.6698 7.13572 28.6043 4.77652 29.0758L3.40472 29.3491V34.1666H5.11306C9.86735 34.1666 13.4941 32.8495 15.8909 30.2511Z" fill="#F76031" fill-opacity="0.5"/>
</svg>
