<svg width="16" height="24" viewBox="0 0 16 24" fill="none" xmlns="http://www.w3.org/2000/svg">
<path d="M4.3047 23.9994C4.25164 23.9995 4.2 23.9853 4.15748 23.959C4.11495 23.9328 4.08381 23.8959 4.0687 23.8538C4.0536 23.8117 4.05533 23.7668 4.07364 23.7256C4.09195 23.6844 4.12587 23.6492 4.17033 23.6252L7.38439 21.8942L3.03285 23.9709C2.97734 23.9952 2.91271 24.001 2.8522 23.9871C2.79169 23.9733 2.73988 23.9408 2.70736 23.8964C2.67484 23.8519 2.66409 23.7989 2.67729 23.7481C2.69049 23.6973 2.72666 23.6526 2.77839 23.6232L5.12962 22.3881L1.83582 23.9612C1.77995 23.9878 1.71365 23.9953 1.65121 23.9819C1.58877 23.9685 1.53517 23.9354 1.50195 23.8897C1.46873 23.8439 1.45854 23.7892 1.47357 23.7373C1.48861 23.6854 1.52766 23.6405 1.58234 23.6122L2.95262 22.9037L1.18071 23.7506C1.12518 23.7759 1.06002 23.7825 0.99878 23.769C0.937546 23.7555 0.884962 23.723 0.851977 23.6782C0.818993 23.6335 0.808151 23.5799 0.821709 23.5287C0.835267 23.4775 0.87218 23.4326 0.924762 23.4033L5.53224 20.9642L0.69392 23.2746C0.638122 23.3 0.572582 23.3066 0.51108 23.2929C0.449579 23.2791 0.396908 23.2462 0.364143 23.201C0.331378 23.1558 0.321073 23.1019 0.335393 23.0505C0.349713 22.9992 0.387544 22.9544 0.440929 22.9257L1.8309 22.2094L0.558565 22.8169C0.503341 22.8415 0.438846 22.8478 0.378255 22.8343C0.317664 22.8209 0.265551 22.7889 0.232563 22.7448C0.199574 22.7006 0.1882 22.6477 0.200764 22.5969C0.213327 22.546 0.248881 22.5011 0.30016 22.4712L6.74798 18.9473L0.554135 21.906C0.498437 21.931 0.433249 21.9372 0.372137 21.9234C0.311025 21.9096 0.258696 21.8769 0.226039 21.832C0.193383 21.7871 0.182914 21.7335 0.196812 21.6823C0.210709 21.6312 0.247903 21.5865 0.300653 21.5575L1.62319 20.8709L0.554135 21.3815C0.498781 21.4072 0.433611 21.4141 0.372217 21.4009C0.310823 21.3878 0.257947 21.3555 0.224618 21.3108C0.191289 21.2662 0.18008 21.2126 0.193329 21.1613C0.206578 21.11 0.243263 21.0649 0.295731 21.0354L5.07007 18.4244L0.552166 20.5826C0.497189 20.6083 0.432384 20.6155 0.371153 20.6028C0.309923 20.59 0.256952 20.5583 0.223195 20.5142C0.189438 20.47 0.177478 20.4169 0.189787 20.3656C0.202097 20.3144 0.237735 20.269 0.289332 20.2389L4.99821 17.5465L0.554135 19.6697C0.498728 19.6962 0.43298 19.7039 0.370856 19.691C0.308731 19.6781 0.255125 19.6457 0.221423 19.6007C0.187721 19.5556 0.176578 19.5015 0.19036 19.4497C0.204143 19.398 0.241766 19.3527 0.295238 19.3235L2.06027 18.3564L0.554135 19.076C0.499431 19.1012 0.435171 19.1082 0.374441 19.0956C0.31371 19.0829 0.261078 19.0516 0.227262 19.008C0.193446 18.9644 0.18099 18.9118 0.192431 18.8609C0.203871 18.81 0.238348 18.7645 0.28884 18.7339L2.88765 17.2073L0.554135 18.3214C0.499752 18.3476 0.435314 18.3555 0.374063 18.3436C0.312812 18.3317 0.259401 18.3009 0.224805 18.2574C0.19021 18.2139 0.177058 18.1611 0.188052 18.1099C0.199046 18.0586 0.233351 18.0128 0.283918 17.9818L2.22269 16.7887L0.574807 17.5754C0.520104 17.6006 0.455843 17.6076 0.395113 17.595C0.334383 17.5824 0.28175 17.5511 0.247934 17.5075C0.214118 17.4639 0.201662 17.4113 0.213103 17.3603C0.224543 17.3094 0.25902 17.264 0.309512 17.2334L0.593511 17.0664C0.554424 17.0656 0.515989 17.058 0.480768 17.0439C0.445546 17.0299 0.414346 17.0098 0.389248 16.985C0.353221 16.9451 0.336083 16.8957 0.341071 16.8461C0.346058 16.7966 0.372827 16.7502 0.416319 16.7158L1.43124 15.9083C1.38661 15.9081 1.34275 15.8987 1.30363 15.881C1.26452 15.8632 1.2314 15.8376 1.20728 15.8065C1.17481 15.7598 1.16605 15.7043 1.18293 15.6523C1.19982 15.6002 1.24097 15.5558 1.29736 15.5288L2.86501 14.78C2.9171 14.7554 2.97824 14.7474 3.03694 14.7575C3.09564 14.7676 3.14788 14.7951 3.18383 14.8348C3.21979 14.8745 3.23699 14.9236 3.23221 14.9731C3.22743 15.0225 3.20099 15.0688 3.15787 15.1033L2.22565 15.8428L4.65219 14.6839C4.70693 14.658 4.77155 14.6506 4.83275 14.663C4.89396 14.6754 4.94707 14.7068 4.98114 14.7506C5.01522 14.7945 5.02766 14.8475 5.01591 14.8987C5.00416 14.9499 4.96911 14.9955 4.91798 15.0259L4.88746 15.0434L5.64151 14.6839C5.69589 14.6577 5.76033 14.6497 5.82158 14.6617C5.88283 14.6736 5.93624 14.7044 5.97084 14.7479C6.00544 14.7914 6.01859 14.8442 6.00759 14.8954C5.9966 14.9467 5.9623 14.9925 5.91173 15.0235L3.97443 16.2154L7.1821 14.6867C7.2368 14.6615 7.30106 14.6545 7.36179 14.6671C7.42252 14.6797 7.47515 14.711 7.50897 14.7546C7.54279 14.7982 7.55524 14.8509 7.5438 14.9018C7.53236 14.9527 7.49788 14.9981 7.44739 15.0288L4.84612 16.5554L8.76206 14.6867C8.81732 14.6615 8.8822 14.6548 8.94328 14.668C9.00435 14.6812 9.05695 14.7133 9.0902 14.7577C9.12345 14.8021 9.1348 14.8554 9.12191 14.9065C9.10903 14.9577 9.07288 15.0027 9.02095 15.0324L7.25789 15.9983L10.0049 14.6867C10.0598 14.6613 10.1243 14.6543 10.1853 14.6671C10.2463 14.6798 10.299 14.7114 10.3327 14.7554C10.3664 14.7993 10.3785 14.8522 10.3665 14.9033C10.3545 14.9544 10.3193 14.9997 10.2682 15.03L5.55882 17.7228L11.8939 14.6969C11.9493 14.6703 12.0151 14.6627 12.0772 14.6755C12.1393 14.6884 12.1929 14.7208 12.2266 14.7659C12.2603 14.811 12.2715 14.8651 12.2577 14.9169C12.2439 14.9686 12.2063 15.0139 12.1528 15.043L7.37848 17.6536L13.0462 14.9461C13.1021 14.9182 13.1691 14.9099 13.2325 14.9229C13.2639 14.9294 13.2934 14.9409 13.3194 14.9568C13.3454 14.9727 13.3674 14.9926 13.3841 15.0155C13.4007 15.0385 13.4118 15.0639 13.4166 15.0903C13.4214 15.1168 13.4199 15.1437 13.4121 15.1697C13.4043 15.1956 13.3904 15.2201 13.3712 15.2416C13.352 15.2631 13.3278 15.2813 13.3001 15.2951L11.9766 15.9812L13.5964 15.2075C13.6518 15.181 13.7176 15.1733 13.7797 15.1862C13.8418 15.1991 13.8955 15.2315 13.9292 15.2765C13.9629 15.3216 13.974 15.3757 13.9602 15.4275C13.9464 15.4792 13.9088 15.5245 13.8553 15.5537L7.40555 19.076L14.3121 15.7776C14.3681 15.7498 14.4352 15.7415 14.4985 15.7546C14.5619 15.7677 14.6164 15.8011 14.65 15.8475C14.6836 15.8938 14.6936 15.9493 14.6778 16.0017C14.6619 16.0541 14.6216 16.0992 14.5656 16.127L13.1707 16.8449L14.6182 16.1527C14.6739 16.1269 14.7394 16.1201 14.801 16.1335C14.8626 16.1469 14.9155 16.1796 14.9486 16.2246C14.9817 16.2697 14.9924 16.3236 14.9784 16.375C14.9645 16.4265 14.9269 16.4714 14.8737 16.5004L10.2692 18.9383L14.9047 16.724C14.9605 16.6985 15.026 16.692 15.0875 16.7057C15.1491 16.7195 15.2017 16.7524 15.2345 16.7976C15.2673 16.8428 15.2776 16.8967 15.2632 16.9481C15.2489 16.9994 15.2111 17.0442 15.1577 17.0729L13.7795 17.7859L15.0199 17.1951C15.0754 17.1708 15.14 17.165 15.2005 17.1789C15.261 17.1928 15.3129 17.2252 15.3454 17.2697C15.3779 17.3141 15.3886 17.3671 15.3754 17.4179C15.3622 17.4687 15.3261 17.5134 15.2744 17.5428L12.928 18.7759L15.0445 17.7648C15.1 17.738 15.166 17.7304 15.2283 17.7433C15.2906 17.7563 15.3443 17.789 15.3779 17.8343C15.4116 17.8796 15.4224 17.9339 15.4082 17.9858C15.394 18.0376 15.3559 18.0828 15.3019 18.1117L12.0888 19.8439L15.042 18.4322C15.0972 18.4057 15.1626 18.398 15.2245 18.4106C15.2864 18.4232 15.34 18.4552 15.3739 18.4999C15.4078 18.5445 15.4195 18.5983 15.4064 18.65C15.3934 18.7016 15.3566 18.747 15.3039 18.7767L11.4578 20.9523L15.042 19.2421C15.0972 19.2161 15.1624 19.2087 15.224 19.2216C15.2856 19.2344 15.3388 19.2664 15.3725 19.311C15.4062 19.3555 15.4178 19.4091 15.4048 19.4606C15.3918 19.512 15.3553 19.5573 15.3029 19.587L13.2357 20.7422L15.0406 19.8802C15.0952 19.8552 15.1592 19.8483 15.2198 19.861C15.2803 19.8736 15.3328 19.9048 15.3665 19.9482C15.4003 19.9916 15.4129 20.044 15.4017 20.0948C15.3905 20.1456 15.3565 20.191 15.3063 20.2218L13.2027 21.4585L15.0406 20.5806C15.0954 20.5544 15.1602 20.5467 15.2217 20.5591C15.2832 20.5715 15.3365 20.603 15.3707 20.6471C15.4048 20.6912 15.4171 20.7444 15.4051 20.7958C15.393 20.8472 15.3575 20.8927 15.3059 20.923L14.4189 21.4463L15.0445 21.1478C15.099 21.1218 15.1635 21.114 15.2247 21.1261C15.2859 21.1381 15.3392 21.1692 15.3736 21.2128C15.4081 21.2564 15.421 21.3092 15.4097 21.3605C15.3985 21.4117 15.364 21.4574 15.3132 21.4882L14.8703 21.7558L15.0435 21.6743C15.0956 21.6484 15.1574 21.6393 15.2171 21.6488C15.2767 21.6584 15.33 21.6858 15.3667 21.7259C15.4034 21.766 15.4208 21.8159 15.4157 21.866C15.4105 21.9161 15.3831 21.9628 15.3388 21.9972L14.3456 22.7856L15.0415 22.4537C15.0928 22.4298 15.1528 22.4218 15.2106 22.4314C15.2684 22.4409 15.3201 22.4672 15.3564 22.5056C15.3926 22.544 15.4111 22.5919 15.4083 22.6406C15.4055 22.6893 15.3818 22.7355 15.3413 22.7709L14.9933 23.0702C15.0381 23.0828 15.0775 23.1058 15.1069 23.1364C15.1363 23.167 15.1544 23.204 15.1591 23.2429C15.1637 23.2818 15.1548 23.321 15.1332 23.3558C15.1117 23.3906 15.0785 23.4195 15.0376 23.4391L13.9346 23.9685C13.8832 23.993 13.8229 24.0014 13.7646 23.992C13.7064 23.9827 13.6542 23.9563 13.6177 23.9176C13.5811 23.8789 13.5627 23.8307 13.5658 23.7817C13.5688 23.7327 13.5932 23.6862 13.6343 23.6509L13.7741 23.5287L12.8458 23.9709C12.7938 23.9969 12.732 24.0059 12.6723 23.9964C12.6126 23.9869 12.5593 23.9595 12.5226 23.9194C12.486 23.8793 12.4685 23.8294 12.4737 23.7793C12.4788 23.7292 12.5062 23.6824 12.5505 23.648L13.5438 22.8568L11.2122 23.9709C11.1577 23.997 11.0932 24.0048 11.032 23.9927C10.9708 23.9806 10.9175 23.9496 10.8831 23.906C10.8487 23.8624 10.8357 23.8095 10.847 23.7583C10.8582 23.7071 10.8927 23.6613 10.9435 23.6305L11.382 23.3646L10.1127 23.9709C10.0579 23.9961 9.99369 24.0032 9.93296 23.9905C9.87223 23.9779 9.8196 23.9466 9.78578 23.903C9.75196 23.8594 9.73951 23.8068 9.75095 23.7559C9.76239 23.7049 9.79687 23.6595 9.84736 23.6289L10.7397 23.1048L8.92547 23.9709C8.87084 23.9959 8.80678 24.0028 8.74625 23.9902C8.68573 23.9775 8.63326 23.9464 8.59948 23.9029C8.5657 23.8595 8.55312 23.8071 8.5643 23.7563C8.57548 23.7055 8.60957 23.6601 8.65968 23.6293L10.7628 22.3926L7.45871 23.9709C7.40361 23.9966 7.3387 24.0037 7.27743 23.9908C7.21617 23.9779 7.16324 23.946 7.12964 23.9017C7.09603 23.8574 7.08432 23.8041 7.09692 23.7529C7.10953 23.7016 7.14549 23.6564 7.19735 23.6264L9.26459 22.4716L6.12584 23.9709C6.07078 23.997 6.00569 24.0044 5.94416 23.9917C5.88262 23.979 5.82939 23.9472 5.79555 23.9028C5.76172 23.8584 5.7499 23.805 5.76256 23.7535C5.77521 23.7021 5.81137 23.6567 5.86349 23.6269L9.70954 21.4508L4.42971 23.9709C4.39187 23.9895 4.3487 23.9994 4.3047 23.9994Z" fill="#2CB2B3"/>
<path d="M8.25868 19.0885C8.20739 19.0885 8.15741 19.0752 8.11571 19.0505C8.07401 19.0258 8.04267 18.991 8.02608 18.9508C8.00949 18.9107 8.00847 18.8672 8.02317 18.8266C8.03787 18.7859 8.06755 18.7501 8.10806 18.7241L8.32463 18.5856L7.35204 19.0499C7.29839 19.0754 7.23507 19.0833 7.1747 19.0719C7.11433 19.0606 7.06135 19.0308 7.02632 18.9886C6.9913 18.9464 6.9768 18.8948 6.98571 18.8441C6.99463 18.7934 7.02632 18.7474 7.07444 18.7151L9.02995 17.4149L6.20965 18.7611C6.15558 18.7868 6.09176 18.7946 6.03106 18.7828C5.97036 18.7711 5.91731 18.7407 5.88263 18.6978C5.84795 18.655 5.83422 18.6028 5.84422 18.5519C5.85421 18.501 5.88719 18.4552 5.93648 18.4236L8.59436 16.7374L5.35125 18.2847C5.29651 18.3096 5.23238 18.3163 5.17186 18.3035C5.11134 18.2907 5.05897 18.2594 5.02535 18.2158C4.99174 18.1723 4.9794 18.1198 4.99084 18.069C5.00227 18.0182 5.03663 17.9729 5.08694 17.9423L6.15501 17.3217L4.92452 17.9105C4.87018 17.9355 4.80641 17.9426 4.74602 17.9303C4.68564 17.918 4.63311 17.8873 4.599 17.8443C4.56489 17.8013 4.55174 17.7492 4.56218 17.6984C4.57262 17.6477 4.60588 17.6022 4.65528 17.5709L5.90006 16.8041L4.55094 17.4504C4.49676 17.4759 4.4329 17.4834 4.37225 17.4715C4.3116 17.4596 4.25869 17.429 4.2242 17.3861C4.18971 17.3431 4.17621 17.2909 4.18642 17.2401C4.19664 17.1892 4.22981 17.1434 4.27924 17.112L5.02985 16.6413L4.29991 16.9898C4.24776 17.0148 4.18637 17.023 4.12736 17.013C4.06835 17.003 4.01582 16.9754 3.97973 16.9355C3.94363 16.8956 3.92648 16.8462 3.93152 16.7965C3.93655 16.7469 3.96343 16.7005 4.00705 16.6661L4.99145 15.8924L4.0863 16.324C4.03392 16.3479 3.97285 16.3551 3.91449 16.3444C3.85612 16.3338 3.80446 16.3059 3.76913 16.266C3.73381 16.2261 3.71724 16.1769 3.72253 16.1276C3.72782 16.0784 3.7546 16.0324 3.79787 15.9983L3.91108 15.9083C3.85436 15.9127 3.79777 15.8988 3.75308 15.8696C3.71518 15.8464 3.68612 15.8147 3.66937 15.7783C3.65261 15.7418 3.64887 15.7021 3.65858 15.664L3.78999 15.1704C3.74648 15.1568 3.70854 15.1333 3.68055 15.1025C3.65256 15.0718 3.63568 15.0351 3.63187 14.9967C3.62806 14.9584 3.63747 14.9199 3.65901 14.8858C3.68055 14.8516 3.71334 14.8233 3.75357 14.804L3.99967 14.6863C4.04099 14.6665 4.08839 14.657 4.13608 14.6591C4.18376 14.6612 4.22969 14.6747 4.26824 14.6981C4.3068 14.7214 4.33633 14.7534 4.35323 14.7904C4.37013 14.8274 4.37366 14.8676 4.36341 14.9062L4.25857 15.3007L5.55108 14.6838C5.60346 14.66 5.66453 14.6527 5.72289 14.6634C5.78126 14.6741 5.83293 14.702 5.86825 14.7419C5.90358 14.7818 5.92014 14.831 5.91485 14.8802C5.90956 14.9295 5.88278 14.9755 5.83951 15.0096L5.81933 15.0247L6.53893 14.681C6.59108 14.656 6.65248 14.6478 6.71149 14.6578C6.7705 14.6678 6.82302 14.6954 6.85912 14.7353C6.89521 14.7752 6.91236 14.8246 6.90733 14.8743C6.90229 14.9239 6.87541 14.9703 6.83179 15.0047L5.84739 15.7784L8.14793 14.6789C8.20213 14.6529 8.26632 14.6449 8.32739 14.6566C8.38847 14.6684 8.44182 14.699 8.47656 14.7421C8.5113 14.7853 8.5248 14.8379 8.51431 14.889C8.50382 14.9401 8.47013 14.986 8.42012 15.0173L7.66607 15.4913L9.37056 14.6769C9.42491 14.6513 9.489 14.6439 9.54979 14.656C9.61058 14.6681 9.66352 14.6989 9.69786 14.7421C9.73219 14.7853 9.74535 14.8378 9.73466 14.8887C9.72396 14.9397 9.69022 14.9854 9.64028 15.0165L8.39354 15.7816L10.7113 14.6745C10.7662 14.6487 10.8309 14.6414 10.8921 14.654C10.9533 14.6665 11.0063 14.6981 11.0402 14.7421C11.0742 14.7861 11.0864 14.8391 11.0743 14.8904C11.0623 14.9416 11.027 14.987 10.9756 15.0173L9.90508 15.6391L11.5968 14.8316C11.6508 14.8065 11.7143 14.7991 11.7747 14.8111C11.835 14.823 11.8876 14.8533 11.9221 14.896C11.9565 14.9386 11.9703 14.9905 11.9605 15.0411C11.9507 15.0918 11.9182 15.1375 11.8695 15.1692L9.21157 16.855L11.548 15.7393C11.6017 15.7142 11.6647 15.7067 11.7248 15.7182C11.7848 15.7297 11.8374 15.7594 11.8722 15.8015C11.9071 15.8435 11.9215 15.8949 11.9128 15.9453C11.9041 15.9958 11.8728 16.0417 11.8252 16.074L9.86965 17.3771L11.2601 16.7129C11.3141 16.6874 11.3778 16.6798 11.4383 16.6915C11.4988 16.7033 11.5517 16.7335 11.5864 16.7762C11.6211 16.819 11.6349 16.8709 11.6251 16.9217C11.6154 16.9725 11.5827 17.0184 11.5338 17.0501L10.952 17.4219C11.0008 17.4301 11.0455 17.4505 11.08 17.4802C11.1146 17.51 11.1374 17.5477 11.1454 17.5884C11.1535 17.6291 11.1464 17.6709 11.1251 17.7082C11.1039 17.7455 11.0694 17.7766 11.0263 17.7973L8.3768 19.0633C8.34066 19.0799 8.30001 19.0886 8.25868 19.0885Z" fill="#F76031"/>
<path d="M9.54662 16.5776C9.49829 16.5777 9.451 16.566 9.41065 16.544C9.3703 16.522 9.33868 16.4906 9.31973 16.4539C9.30078 16.4171 9.29534 16.3765 9.30409 16.3372C9.31285 16.2978 9.3354 16.2615 9.36894 16.2327L10.1127 15.5946L9.1194 16.069C9.06745 16.0941 9.00618 16.1027 8.94717 16.0929C8.88815 16.0832 8.83549 16.056 8.79913 16.0163C8.76276 15.9766 8.74522 15.9273 8.74982 15.8777C8.75442 15.8281 8.78083 15.7815 8.82408 15.7469L9.32809 15.3422L8.65378 15.6639C8.60417 15.6872 8.5463 15.6956 8.49007 15.6875C8.43384 15.6794 8.38274 15.6555 8.34552 15.6197C8.30831 15.5839 8.28728 15.5385 8.28605 15.4913C8.28482 15.4441 8.30345 15.398 8.33877 15.3609L9.10365 14.5648L7.99866 15.0942C7.94216 15.1208 7.87526 15.1278 7.81254 15.1137C7.74982 15.0996 7.69639 15.0656 7.66389 15.019C7.6314 14.9724 7.62249 14.9171 7.6391 14.8652C7.65571 14.8132 7.69649 14.7687 7.75256 14.7415L9.98468 13.6755C10.0343 13.6519 10.0923 13.6434 10.1487 13.6513C10.2051 13.6593 10.2564 13.6833 10.2937 13.7191C10.3311 13.755 10.3521 13.8005 10.3533 13.8478C10.3545 13.8952 10.3357 13.9413 10.3002 13.9785L9.53383 14.7733L10.7948 14.1711C10.8468 14.1459 10.9081 14.1374 10.9671 14.1471C11.0261 14.1569 11.0788 14.1841 11.1151 14.2238C11.1515 14.2634 11.169 14.3128 11.1644 14.3624C11.1598 14.412 11.1334 14.4585 11.0902 14.4932L10.5862 14.9004L11.3712 14.5253C11.4226 14.5008 11.4829 14.4924 11.5412 14.5018C11.5994 14.5111 11.6516 14.5376 11.6881 14.5762C11.7247 14.6149 11.7431 14.6632 11.74 14.7122C11.737 14.7612 11.7126 14.8076 11.6715 14.8429L10.6319 15.7388C10.6711 15.7565 10.7034 15.7828 10.7254 15.8149C10.7581 15.8616 10.767 15.9172 10.7502 15.9693C10.7334 16.0215 10.6923 16.066 10.6359 16.0931L9.66967 16.5503C9.63236 16.5684 9.58986 16.5778 9.54662 16.5776Z" fill="#F76031"/>
<path d="M5.70956 16.6447C5.66016 16.6446 5.61193 16.6323 5.57113 16.6092C5.53033 16.5862 5.49886 16.5535 5.4808 16.5155C5.46275 16.4775 5.45895 16.4358 5.46991 16.396C5.48086 16.3561 5.50605 16.3199 5.54221 16.2921L5.99011 15.948L5.37683 16.2407C5.32303 16.2658 5.25982 16.2732 5.19973 16.2615C5.13964 16.2498 5.08707 16.2198 5.05244 16.1775C5.01782 16.1352 5.00366 16.0837 5.01278 16.0332C5.0219 15.9827 5.05364 15.9369 5.10169 15.9048L6.15057 15.2195L4.89546 15.8197C4.84198 15.8453 4.7788 15.8534 4.71848 15.8422C4.65816 15.8311 4.60512 15.8016 4.5699 15.7595C4.53468 15.7175 4.51985 15.6661 4.52838 15.6154C4.5369 15.5648 4.56814 15.5187 4.61589 15.4862L5.24788 15.057L4.45445 15.4357C4.40384 15.4597 4.34459 15.468 4.28727 15.4591C4.22995 15.4503 4.17827 15.4249 4.14146 15.3875C4.10464 15.3501 4.08507 15.3031 4.08623 15.2549C4.08739 15.2067 4.10922 15.1604 4.14781 15.1242L4.98455 14.353C4.93367 14.3473 4.88618 14.3287 4.84873 14.2997C4.81129 14.2706 4.78576 14.2326 4.77573 14.1909C4.76569 14.1493 4.77165 14.1061 4.79277 14.0674C4.81388 14.0287 4.8491 13.9964 4.89349 13.9751L5.95911 13.4653C6.00972 13.4413 6.06897 13.433 6.12629 13.4418C6.18361 13.4507 6.23528 13.476 6.2721 13.5134C6.30892 13.5508 6.32849 13.5978 6.32733 13.6461C6.32616 13.6943 6.30434 13.7406 6.26575 13.7768L5.53926 14.4482L7.59961 13.4653C7.65307 13.4401 7.716 13.4324 7.77598 13.4437C7.83597 13.455 7.88866 13.4845 7.92367 13.5263C7.95869 13.5682 7.9735 13.6193 7.96517 13.6698C7.95684 13.7202 7.92599 13.7662 7.87868 13.7988L7.2467 14.2279L8.84537 13.4644C8.89919 13.4389 8.96267 13.4312 9.02311 13.4427C9.08355 13.4543 9.13649 13.4843 9.17133 13.5268C9.20617 13.5692 9.22034 13.621 9.21101 13.6717C9.20167 13.7225 9.16953 13.7684 9.121 13.8004L7.79206 14.6689C7.83817 14.6742 7.88154 14.6901 7.91714 14.7149C7.95273 14.7398 7.9791 14.7724 7.99316 14.8091C8.00723 14.8458 8.00843 14.8851 7.99662 14.9223C7.9848 14.9596 7.96047 14.9933 7.92643 15.0195L6.51972 16.0954C6.53898 16.1402 6.53869 16.1891 6.51892 16.2337C6.49914 16.2783 6.46112 16.3158 6.41144 16.3397L5.83064 16.6174C5.79391 16.6352 5.75213 16.6446 5.70956 16.6447Z" fill="#F76031"/>
<path d="M2.35399 13.005C2.30065 13.005 2.24878 12.9906 2.20619 12.964C2.16359 12.9375 2.13257 12.9002 2.1178 12.8578C2.10303 12.8154 2.10531 12.7702 2.1243 12.7289C2.14328 12.6877 2.17794 12.6527 2.22306 12.6292L2.74578 12.3563L1.49461 12.9541C1.43938 12.9797 1.37435 12.9867 1.31303 12.9737C1.25171 12.9607 1.19882 12.9286 1.16535 12.8841C1.13189 12.8397 1.12043 12.7862 1.13335 12.735C1.14626 12.6837 1.18257 12.6385 1.23472 12.6088L7.37885 9.20622L1.13776 12.1878C1.11006 12.2015 1.07935 12.2107 1.04738 12.2147C1.01541 12.2187 0.98281 12.2174 0.951434 12.2109C0.920057 12.2045 0.890522 12.193 0.864517 12.1771C0.838511 12.1612 0.816543 12.1412 0.799866 12.1183C0.78319 12.0954 0.772133 12.07 0.767325 12.0436C0.762517 12.0171 0.764053 11.9901 0.771846 11.9642C0.779639 11.9382 0.793535 11.9138 0.812742 11.8923C0.831949 11.8708 0.856089 11.8526 0.883786 11.8388L2.40025 11.0504L1.44982 11.5061C1.42215 11.5199 1.39146 11.5292 1.3595 11.5332C1.32753 11.5372 1.29492 11.536 1.26352 11.5296C1.2001 11.5167 1.14548 11.4835 1.11167 11.4373C1.07787 11.3911 1.06763 11.3356 1.08323 11.2832C1.09883 11.2307 1.13899 11.1855 1.19486 11.1575L3.40976 9.99823L1.66638 10.8285C1.61066 10.8549 1.5447 10.8622 1.48257 10.8488C1.42043 10.8355 1.36705 10.8027 1.33379 10.7572C1.30053 10.7118 1.29004 10.6575 1.30454 10.6057C1.31904 10.554 1.3574 10.509 1.41142 10.4804L3.32559 9.47741L1.81208 10.2006C1.75671 10.2278 1.69065 10.236 1.62808 10.2234C1.56551 10.2107 1.51142 10.1783 1.47741 10.1331C1.4434 10.0878 1.43218 10.0334 1.44616 9.98136C1.46014 9.92935 1.49821 9.88394 1.55219 9.85489L7.09928 6.78214L1.95383 9.24001C1.89814 9.26702 1.83185 9.27483 1.76926 9.26178C1.70666 9.24873 1.65277 9.21585 1.6192 9.17024C1.58563 9.12463 1.57506 9.06993 1.58978 9.01793C1.6045 8.96593 1.64332 8.9208 1.69788 8.89226L4.50342 7.39661L2.00502 8.58971C1.94957 8.61579 1.88405 8.62304 1.82227 8.60994C1.76049 8.59683 1.70727 8.5644 1.67383 8.51947C1.64039 8.47453 1.62934 8.42062 1.64301 8.36908C1.65668 8.31754 1.694 8.2724 1.7471 8.24318L5.49324 6.20717L2.02717 7.86245C1.97262 7.88476 1.91002 7.88957 1.85144 7.87594C1.79286 7.86231 1.74247 7.83121 1.70998 7.78864C1.67749 7.74608 1.66522 7.69506 1.67553 7.64545C1.68584 7.59583 1.718 7.55114 1.76581 7.51999L6.89551 4.60279L2.03061 6.92629C1.97563 6.95197 1.91083 6.95919 1.8496 6.94645C1.78837 6.93372 1.7354 6.902 1.70164 6.85786C1.66788 6.81372 1.65592 6.76053 1.66823 6.7093C1.68054 6.65807 1.71618 6.61271 1.76778 6.58261L6.28469 4.00665L2.03061 6.03859C1.97547 6.06386 1.91071 6.07065 1.84969 6.05758C1.78866 6.04451 1.73603 6.01257 1.70264 5.96834C1.66925 5.9241 1.65764 5.87096 1.67022 5.81986C1.6828 5.76875 1.7186 5.72359 1.77024 5.69369L4.82188 3.99077L2.03061 5.32435C1.97534 5.35086 1.90977 5.35854 1.84778 5.34578C1.78578 5.33301 1.73222 5.30081 1.6984 5.25596C1.66459 5.21112 1.65318 5.15716 1.66659 5.10548C1.67999 5.0538 1.71716 5.00846 1.77024 4.97905L4.01467 3.72975L2.07639 4.65573C2.02154 4.68276 1.95614 4.69111 1.894 4.679C1.83185 4.66689 1.77783 4.63527 1.74333 4.59083C1.70884 4.54638 1.69657 4.49258 1.70912 4.44079C1.72167 4.38901 1.75806 4.34328 1.8106 4.31327L4.68701 2.61809L2.31904 3.7493C2.26424 3.77696 2.19854 3.7858 2.13597 3.77396C2.07339 3.76211 2.01888 3.7305 1.98408 3.68587C1.94927 3.64125 1.93693 3.58714 1.94966 3.53508C1.9624 3.48303 1.99922 3.43716 2.05227 3.40725L3.68932 2.43525L2.79008 2.86485C2.73661 2.89003 2.67368 2.89772 2.6137 2.88642C2.55372 2.87512 2.50103 2.84564 2.46601 2.80379C2.43099 2.76195 2.41619 2.71077 2.42452 2.66034C2.43284 2.60991 2.4637 2.56389 2.511 2.53135L3.82517 1.63551C3.77738 1.62592 3.73415 1.6047 3.70107 1.57459C3.66799 1.54448 3.64658 1.50686 3.63959 1.46659C3.63259 1.42632 3.64035 1.38523 3.66184 1.34864C3.68334 1.31205 3.7176 1.28162 3.7602 1.26129L5.83532 0.271786C5.88886 0.246026 5.95218 0.237917 6.01263 0.249077C6.07308 0.260238 6.12622 0.289847 6.16145 0.331995C6.19668 0.374143 6.2114 0.425732 6.20268 0.476464C6.19395 0.527197 6.16243 0.573342 6.11439 0.605692L5.12113 1.28124L7.74456 0.0274647C7.79925 0.00123051 7.86405 -0.00658467 7.92552 0.00563944C7.98699 0.0178636 8.04041 0.0491893 8.07471 0.0931219C8.10902 0.137055 8.12157 0.190224 8.10977 0.241607C8.09797 0.292991 8.06272 0.338646 8.01133 0.369108L6.37181 1.34314L8.90467 0.133337C8.95952 0.106302 9.02492 0.0979581 9.08706 0.110068C9.14921 0.122178 9.20323 0.153794 9.23772 0.19824C9.27222 0.242685 9.28449 0.296482 9.27194 0.348271C9.25939 0.400059 9.223 0.445785 9.17046 0.475795L6.29404 2.17098L9.97668 0.411864C10.0321 0.383299 10.099 0.374115 10.1626 0.386334C10.194 0.392384 10.2238 0.403506 10.2501 0.419065C10.2764 0.434624 10.2987 0.454316 10.3158 0.477016C10.3329 0.499716 10.3444 0.52498 10.3497 0.551364C10.355 0.577749 10.354 0.604738 10.3467 0.630791C10.3394 0.656844 10.3259 0.68145 10.3071 0.703204C10.2883 0.724958 10.2645 0.743435 10.2371 0.757579L7.99607 2.00484L10.6948 0.716044C10.7501 0.689541 10.8156 0.681859 10.8776 0.694622C10.9396 0.707385 10.9932 0.739593 11.027 0.784436C11.0608 0.829279 11.0722 0.883244 11.0588 0.93492C11.0454 0.986597 11.0083 1.03194 10.9552 1.06135L7.90255 2.76387L11.3701 1.10737C11.4252 1.08035 11.4909 1.07217 11.5531 1.08457C11.6154 1.09697 11.6694 1.12896 11.7036 1.17375C11.7378 1.21855 11.7496 1.27261 11.7364 1.32447C11.7232 1.37632 11.6861 1.42187 11.6329 1.45145L7.11553 4.02741L12.073 1.65953C12.128 1.63349 12.1931 1.62605 12.2546 1.63874C12.3162 1.65144 12.3694 1.68329 12.4032 1.72767C12.4371 1.77205 12.4489 1.82552 12.4362 1.87693C12.4236 1.92834 12.3874 1.97373 12.3353 2.00362L7.20412 4.92163L12.6675 2.31146C12.6951 2.29745 12.7257 2.28807 12.7576 2.28384C12.7895 2.27961 12.8221 2.28063 12.8536 2.28683C12.885 2.29303 12.9147 2.3043 12.9409 2.31998C12.967 2.33567 12.9892 2.35546 13.0062 2.37824C13.0231 2.40102 13.0345 2.42634 13.0396 2.45275C13.0447 2.47916 13.0434 2.50614 13.0359 2.53215C13.0284 2.55817 13.0148 2.58271 12.9959 2.60437C12.9769 2.62603 12.953 2.64439 12.9255 2.6584L9.18129 4.69238L13.0204 2.85997C13.076 2.83379 13.1417 2.82654 13.2037 2.83976C13.2656 2.85298 13.3189 2.88563 13.3522 2.93078C13.3856 2.97594 13.3963 3.03006 13.3823 3.08167C13.3682 3.13329 13.3304 3.17835 13.2769 3.20731L10.4679 4.70459L13.2675 3.36653C13.3228 3.34002 13.3884 3.33234 13.4504 3.3451C13.5124 3.35787 13.5659 3.39007 13.5997 3.43492C13.6336 3.47976 13.645 3.53372 13.6316 3.5854C13.6182 3.63708 13.581 3.68242 13.5279 3.71183L7.9818 6.78336L13.4944 4.14958C13.5503 4.1216 13.6173 4.11314 13.6807 4.12605C13.7441 4.13895 13.7988 4.17217 13.8326 4.21839C13.8664 4.26462 13.8766 4.32006 13.861 4.37252C13.8454 4.42498 13.8053 4.47017 13.7494 4.49814L11.8352 5.50108L13.5579 4.67812C13.6137 4.65178 13.6796 4.64448 13.7417 4.6578C13.8039 4.67111 13.8573 4.70398 13.8905 4.7494C13.9238 4.79481 13.9343 4.84918 13.9198 4.9009C13.9053 4.95263 13.8669 4.99762 13.8129 5.02628L11.6019 6.18518L13.5673 5.24617C13.623 5.22121 13.6882 5.21498 13.7493 5.22877C13.8104 5.24257 13.8627 5.27533 13.8954 5.32023C13.928 5.36514 13.9385 5.41873 13.9246 5.46986C13.9107 5.52099 13.8735 5.56572 13.8208 5.59474L12.3058 6.38267L13.5673 5.78001C13.6227 5.7528 13.6887 5.74463 13.7513 5.75726C13.8138 5.76988 13.8679 5.80229 13.9019 5.84754C13.936 5.89278 13.9472 5.94725 13.9332 5.99926C13.9192 6.05127 13.8811 6.09668 13.8272 6.12573L7.68353 9.52791L13.5678 6.71821C13.6235 6.69236 13.6893 6.68547 13.751 6.69901C13.8128 6.71254 13.8658 6.74543 13.8988 6.79072C13.9318 6.836 13.9422 6.89014 13.9279 6.94166C13.9135 6.99318 13.8754 7.03805 13.8217 7.06677L13.2912 7.34326L13.5678 7.21133C13.623 7.18426 13.6888 7.17611 13.7512 7.18863C13.8136 7.20115 13.8676 7.23335 13.9017 7.27835C13.9358 7.32335 13.9473 7.3776 13.9338 7.42951C13.9202 7.48142 13.8827 7.5269 13.8291 7.55623L9.736 9.85733L13.5825 8.02004C13.6379 7.99346 13.7037 7.9858 13.7658 7.99868C13.8279 8.01156 13.8815 8.04398 13.9153 8.08903C13.949 8.13409 13.9601 8.18824 13.9463 8.23999C13.9325 8.29173 13.8949 8.33699 13.8414 8.36616L12.0203 9.36625L13.617 8.60356C13.6716 8.57637 13.7368 8.56777 13.7989 8.57956C13.861 8.59135 13.9152 8.62261 13.95 8.66677C13.9848 8.71092 13.9976 8.76453 13.9856 8.81631C13.9736 8.86808 13.9378 8.914 13.8857 8.94438L10.8858 10.7646L13.7115 9.41511C13.7661 9.38793 13.8313 9.37932 13.8934 9.39111C13.9555 9.4029 14.0097 9.43416 14.0445 9.47832C14.0793 9.52248 14.0921 9.57608 14.0801 9.62786C14.0681 9.67964 14.0323 9.72555 13.9802 9.75594L12.3274 10.7585L13.8272 10.0422C13.8812 10.0162 13.9452 10.0081 14.0061 10.0197C14.067 10.0312 14.1204 10.0616 14.1553 10.1045C14.1902 10.1474 14.204 10.1997 14.194 10.2507C14.184 10.3018 14.1508 10.3478 14.1013 10.3794L12.9368 11.1258L13.9763 10.6294C14.0287 10.6046 14.0903 10.5965 14.1494 10.6069C14.2085 10.6172 14.261 10.6451 14.2968 10.6854C14.3326 10.7256 14.3492 10.7753 14.3436 10.8251C14.338 10.8748 14.3104 10.9211 14.2662 10.9552L13.2789 11.7081L14.1978 11.2695C14.2481 11.2455 14.3071 11.237 14.3643 11.2455C14.4214 11.254 14.4731 11.279 14.5102 11.316C14.5473 11.353 14.5673 11.3996 14.5668 11.4477C14.5663 11.4958 14.5452 11.5421 14.5074 11.5786L14.0423 12.0265L14.4577 11.8282C14.5053 11.8056 14.5607 11.7968 14.6151 11.8033C14.6694 11.8097 14.7196 11.831 14.7577 11.8638C14.7957 11.8966 14.8194 11.9389 14.825 11.9841C14.8305 12.0293 14.8177 12.0748 14.7884 12.1132L14.6555 12.2863C14.7066 12.2917 14.7544 12.3102 14.7921 12.3392C14.8298 12.3682 14.8556 12.4063 14.8658 12.4481C14.8759 12.4899 14.87 12.5332 14.8488 12.5721C14.8276 12.6109 14.7922 12.6433 14.7476 12.6646L14.091 12.9781C14.0433 13.0007 13.9879 13.0095 13.9336 13.0031C13.8792 12.9966 13.829 12.9753 13.791 12.9425C13.7529 12.9098 13.7293 12.8674 13.7237 12.8222C13.7181 12.777 13.731 12.7315 13.7602 12.6931L13.8355 12.5954L13.0328 12.9785C12.9823 13.0042 12.9224 13.0139 12.864 13.006C12.8055 12.9981 12.7525 12.973 12.7147 12.9353C12.6768 12.8976 12.6566 12.8499 12.6578 12.801C12.659 12.752 12.6815 12.705 12.7212 12.6687L13.1863 12.2207L11.6039 12.9765C11.5515 13.001 11.4901 13.0087 11.4312 12.9983C11.3724 12.9878 11.3202 12.9599 11.2846 12.9198C11.2489 12.8797 11.2323 12.8302 11.2378 12.7806C11.2433 12.731 11.2706 12.6848 11.3145 12.6507L12.2989 11.8978L10.0431 12.9765C9.98924 13.0022 9.9256 13.01 9.86501 12.9985C9.80441 12.9869 9.75136 12.9568 9.71651 12.9142C9.68165 12.8716 9.66759 12.8196 9.67714 12.7688C9.68669 12.718 9.71915 12.672 9.76799 12.6402L10.933 11.8938L8.66448 12.9765C8.60998 13.0026 8.54549 13.0103 8.48426 12.9983C8.42304 12.9862 8.36974 12.9551 8.33532 12.9115C8.30091 12.8679 8.28799 12.8151 8.29923 12.7639C8.31046 12.7126 8.345 12.6669 8.39574 12.6361L10.0471 11.6348L7.23759 12.9785C7.18311 13.0046 7.11861 13.0125 7.05736 13.0004C6.99611 12.9884 6.94277 12.9574 6.90831 12.9138C6.87383 12.8702 6.86088 12.8173 6.87215 12.766C6.88341 12.7147 6.91802 12.6689 6.96885 12.6381L9.97127 10.8171L5.44402 12.9765C5.3887 13.0025 5.32335 13.0098 5.26168 12.9968C5.20001 12.9839 5.14681 12.9516 5.11325 12.9069C5.07968 12.8622 5.06837 12.8084 5.08168 12.7569C5.09499 12.7055 5.13189 12.6602 5.18463 12.6308L7.00577 11.6315L4.1894 12.9753C4.13442 13 4.07012 13.0064 4.00959 12.9933C3.94906 12.9802 3.89684 12.9485 3.86355 12.9047C3.83026 12.8609 3.8184 12.8082 3.83038 12.7574C3.84236 12.7066 3.87728 12.6615 3.92804 12.6312L8.02068 10.3297L2.47704 12.9765C2.43977 12.9948 2.39732 13.0046 2.35399 13.005Z" fill="#77493A"/>
<path d="M7.44691 14.8204C7.39747 14.8205 7.34916 14.8082 7.30829 14.7852C7.26741 14.7622 7.23586 14.7295 7.21775 14.6914C7.19964 14.6534 7.1958 14.6117 7.20673 14.5718C7.21767 14.5319 7.24288 14.4957 7.27907 14.4678L8.01343 13.901L6.9488 14.4092C6.89643 14.433 6.83536 14.4403 6.77699 14.4296C6.71863 14.4189 6.66696 14.391 6.63163 14.3511C6.59631 14.3112 6.57975 14.262 6.58503 14.2128C6.59032 14.1635 6.6171 14.1175 6.66037 14.0834L7.91154 13.1387L6.20755 13.9531C6.1576 13.977 6.0991 13.9856 6.04226 13.9774C5.98541 13.9693 5.93384 13.9448 5.89656 13.9084C5.85927 13.872 5.83864 13.8259 5.83827 13.7782C5.83789 13.7304 5.8578 13.6841 5.89451 13.6473L6.76866 12.771L5.96834 13.1529C5.92707 13.1726 5.8798 13.1819 5.83226 13.1798C5.78472 13.1776 5.73895 13.1641 5.7005 13.1409C5.66205 13.1176 5.63257 13.0857 5.61564 13.0489C5.59871 13.0121 5.59504 12.972 5.6051 12.9335L5.75965 12.3455C5.71608 12.3319 5.67805 12.3084 5.64996 12.2777C5.62187 12.247 5.60489 12.2104 5.60097 12.172C5.59706 12.1336 5.60637 12.0951 5.62783 12.061C5.6493 12.0268 5.68203 11.9984 5.72224 11.979L5.96834 11.8609C6.00961 11.8413 6.05688 11.8319 6.10442 11.8341C6.15196 11.8362 6.19773 11.8497 6.23618 11.873C6.27463 11.8962 6.30411 11.9282 6.32104 11.965C6.33797 12.0018 6.34164 12.0419 6.33158 12.0804L6.2046 12.569L7.70088 11.8532C7.75082 11.8295 7.8092 11.8211 7.86587 11.8294C7.92253 11.8376 7.97391 11.862 8.01106 11.8984C8.04821 11.9348 8.06879 11.9807 8.06923 12.0283C8.06966 12.0759 8.04992 12.1222 8.01343 12.159L7.13928 13.0353L9.62735 11.847C9.67974 11.8229 9.74099 11.8154 9.79959 11.826C9.85818 11.8365 9.9101 11.8644 9.94558 11.9044C9.98106 11.9444 9.99766 11.9938 9.99227 12.0432C9.98687 12.0926 9.95985 12.1387 9.91627 12.1728L8.66707 13.1187L9.63375 12.657C9.68617 12.6318 9.74799 12.6235 9.80734 12.6337C9.8667 12.6439 9.91942 12.6718 9.95541 12.7122C9.99139 12.7526 10.0081 12.8025 10.0023 12.8524C9.99656 12.9023 9.96872 12.9487 9.92415 12.9827L9.19028 13.55L9.63572 13.337C9.66373 13.3223 9.69505 13.3124 9.7278 13.3079C9.76056 13.3035 9.79406 13.3045 9.8263 13.3111C9.85853 13.3176 9.88884 13.3295 9.9154 13.3459C9.94195 13.3624 9.9642 13.3832 9.98081 13.4069C9.99742 13.4307 10.008 13.457 10.0121 13.4843C10.0161 13.5115 10.0133 13.5392 10.0041 13.5656C9.99485 13.5919 9.97925 13.6165 9.95824 13.6377C9.93722 13.659 9.91123 13.6765 9.88182 13.6892L7.56848 14.7936C7.53155 14.8113 7.48959 14.8205 7.44691 14.8204Z" fill="#BF9079"/>
<path d="M7.51306 12.5876C7.46177 12.5876 7.41179 12.5743 7.37009 12.5496C7.32839 12.5249 7.29705 12.49 7.28046 12.4499C7.26387 12.4098 7.26285 12.3663 7.27755 12.3257C7.29225 12.285 7.32193 12.2492 7.36244 12.2232L9.08514 11.1237L6.47648 12.3706C6.42191 12.3969 6.35718 12.4049 6.29571 12.3928C6.23423 12.3808 6.18072 12.3496 6.14624 12.3058C6.11177 12.262 6.09897 12.2089 6.11052 12.1575C6.12206 12.1062 6.15704 12.0604 6.20823 12.0298L9.79194 9.86589L5.4468 11.9426C5.3921 11.9678 5.32784 11.9748 5.26711 11.9622C5.20638 11.9496 5.15374 11.9183 5.11993 11.8747C5.08611 11.8311 5.07366 11.7785 5.0851 11.7276C5.09654 11.6766 5.13101 11.6312 5.18151 11.6006L9.10483 9.295L4.68832 11.4047C4.63265 11.4329 4.56572 11.4416 4.50226 11.429C4.4388 11.4164 4.38401 11.3834 4.34993 11.3373C4.31586 11.2913 4.3053 11.2359 4.32058 11.1834C4.33586 11.1309 4.37572 11.0856 4.43139 11.0574L4.87437 10.8216L4.35363 11.0651C4.29839 11.0922 4.23256 11.1003 4.17017 11.0878C4.10778 11.0753 4.05377 11.0431 4.01967 10.9981C3.98557 10.9531 3.97407 10.8988 3.98764 10.8469C4.0012 10.795 4.03875 10.7495 4.09227 10.7202L6.65466 9.28074L3.97955 10.5581C3.92424 10.5842 3.85889 10.5915 3.79722 10.5785C3.73554 10.5655 3.68234 10.5333 3.64878 10.4885C3.61522 10.4438 3.60391 10.3901 3.61722 10.3386C3.63053 10.2871 3.66742 10.2419 3.72016 10.2124L4.88422 9.56945L3.74773 10.1123C3.69344 10.1376 3.62954 10.145 3.56894 10.1329C3.50833 10.1208 3.45554 10.0901 3.42124 10.047C3.38693 10.0039 3.37366 9.9517 3.3841 9.90085C3.39455 9.85 3.42793 9.80433 3.47751 9.77305L6.50257 7.89626L3.5351 9.31373C3.48101 9.33998 3.41686 9.34816 3.35573 9.3366C3.2946 9.32504 3.24111 9.29461 3.20618 9.25152C3.17125 9.20844 3.15752 9.15595 3.16779 9.10477C3.17806 9.0536 3.21155 9.00759 3.26143 8.97616L5.92424 7.2712L2.80418 8.76197C2.74984 8.78857 2.68523 8.79687 2.6237 8.78516C2.56217 8.77345 2.50844 8.74263 2.4736 8.69907C2.43877 8.6555 2.42551 8.60253 2.43656 8.5511C2.44761 8.49968 2.48213 8.45373 2.53298 8.42277L4.92851 6.93363L2.18795 8.24156C2.13321 8.2674 2.06858 8.27487 2.00738 8.26245C1.94618 8.25003 1.89307 8.21867 1.85899 8.17481C1.82492 8.13096 1.81247 8.07796 1.82422 8.02674C1.83598 7.97552 1.87103 7.92999 1.92216 7.89951L3.64141 6.8868L2.03192 7.6556C1.97665 7.6821 1.91108 7.68978 1.84909 7.67702C1.78709 7.66426 1.73353 7.63205 1.69971 7.58721C1.6659 7.54236 1.65449 7.4884 1.66789 7.43672C1.6813 7.38505 1.71847 7.33971 1.77155 7.31029L2.12839 7.1128C2.07577 7.11682 2.02298 7.10673 1.97783 7.084C1.93269 7.06128 1.89758 7.02714 1.87771 6.98663C1.85783 6.94612 1.85425 6.90139 1.86748 6.85907C1.88072 6.81674 1.91007 6.77906 1.9512 6.75161L4.4875 5.04543C4.45454 5.02804 4.42717 5.00429 4.40777 4.97621C4.37513 4.92944 4.36629 4.87387 4.38318 4.82171C4.40007 4.76956 4.44132 4.72509 4.49784 4.69809L6.26238 3.85518C6.31589 3.83032 6.3787 3.8229 6.43848 3.83437C6.49826 3.84584 6.55071 3.87537 6.58553 3.91718C6.62035 3.95899 6.63503 4.01006 6.6267 4.06036C6.61836 4.11066 6.58761 4.15657 6.54047 4.18908L4.65682 5.4563L7.7124 3.99688C7.76775 3.96827 7.83457 3.95901 7.89817 3.97115C7.96177 3.98329 8.01693 4.01584 8.05152 4.06163C8.08612 4.10742 8.0973 4.1627 8.08263 4.21532C8.06795 4.26794 8.02861 4.31357 7.97326 4.34219L7.88221 4.39269C7.93783 4.36997 8.00177 4.36547 8.06124 4.38009C8.1207 4.39471 8.1713 4.42737 8.2029 4.47153C8.23451 4.51569 8.24479 4.56809 8.23168 4.61826C8.21858 4.66842 8.18307 4.71264 8.13224 4.74207L6.41348 5.75478L8.20607 4.89965C8.26041 4.87305 8.32502 4.86475 8.38655 4.87646C8.44808 4.88817 8.50182 4.91899 8.53665 4.96255C8.57148 5.00612 8.58474 5.05909 8.57369 5.11052C8.56264 5.16194 8.52812 5.20789 8.47728 5.23885L6.08174 6.72799L8.83264 5.41314C8.88662 5.38813 8.95 5.38086 9.01017 5.39277C9.07033 5.40468 9.12287 5.4349 9.15731 5.47742C9.19176 5.51993 9.20558 5.57162 9.19604 5.62219C9.1865 5.67275 9.15428 5.71849 9.10581 5.7503L6.44301 7.45566L9.8131 5.84599C9.86742 5.82006 9.93165 5.81226 9.99268 5.82418C10.0537 5.83611 10.1069 5.86685 10.1415 5.91015C10.176 5.95344 10.1893 6.00602 10.1786 6.05713C10.1679 6.10825 10.134 6.15406 10.0838 6.18519L7.05826 8.06199L11.1745 6.09479C11.23 6.06628 11.2969 6.05717 11.3605 6.06947C11.4241 6.08176 11.4792 6.11445 11.5137 6.16035C11.5481 6.20625 11.5591 6.2616 11.5443 6.31421C11.5294 6.36683 11.4899 6.4124 11.4344 6.44091L10.2709 7.08348L12.2436 6.14121C12.2987 6.11474 12.3641 6.107 12.426 6.11963C12.4879 6.13226 12.5415 6.16427 12.5754 6.20892C12.6094 6.25357 12.6211 6.30738 12.608 6.35901C12.5949 6.41064 12.5582 6.45606 12.5054 6.48571L9.946 7.92476L13.0656 6.43399C13.1212 6.4058 13.1882 6.39707 13.2516 6.40971C13.3151 6.42235 13.3699 6.45532 13.4039 6.50138C13.438 6.54744 13.4486 6.60282 13.4333 6.65532C13.418 6.70782 13.3782 6.75315 13.3225 6.78134L12.8795 7.01792L13.3924 6.7736C13.4471 6.74839 13.5113 6.74138 13.5721 6.754C13.6328 6.76662 13.6854 6.79792 13.7193 6.84152C13.7531 6.88512 13.7655 6.93774 13.7541 6.98867C13.7426 7.0396 13.7082 7.08501 13.6577 7.11565L9.73435 9.42123L13.5297 7.60836C13.5843 7.5827 13.6486 7.57523 13.7096 7.58751C13.7705 7.59978 13.8235 7.63086 13.8577 7.67438C13.8919 7.71791 13.9047 7.7706 13.8935 7.82169C13.8823 7.87277 13.848 7.91838 13.7975 7.94919L10.2133 10.1131L12.0098 9.25509C12.0639 9.22942 12.1277 9.22167 12.1884 9.23342C12.2491 9.24518 12.3021 9.27555 12.3368 9.3184C12.3715 9.36126 12.3852 9.41341 12.3752 9.46431C12.3652 9.51522 12.3323 9.56109 12.283 9.59266L10.5603 10.6941L11.6328 10.1819C11.6861 10.1562 11.7491 10.148 11.8094 10.1589C11.8697 10.1698 11.9228 10.1991 11.9582 10.2409C11.9937 10.2827 12.0088 10.334 12.0007 10.3846C11.9925 10.4352 11.9617 10.4815 11.9143 10.5142L10.927 11.2027C10.9783 11.2195 11.0212 11.2502 11.0485 11.2899C11.0812 11.3366 11.09 11.3922 11.0731 11.4444C11.0562 11.4965 11.015 11.541 10.9585 11.568L9.18063 12.417C9.12737 12.4426 9.06445 12.4508 9.00428 12.4399C8.94412 12.4289 8.89109 12.3998 8.85566 12.3581C8.82024 12.3164 8.80499 12.2652 8.81294 12.2147C8.82089 12.1642 8.85146 12.1179 8.8986 12.0851L9.47743 11.6816L7.6366 12.5608C7.59908 12.5787 7.55641 12.588 7.51306 12.5876Z" fill="#D7AA91"/>
<path d="M12.0371 14.7157C11.4071 14.3125 10.7623 13.9257 10.1274 13.5266C10.1274 13.323 10.1224 13.1276 10.1274 12.928C11.5843 12.8466 13.1199 13.1072 14.5325 12.7896C15.3644 12.4557 14.8869 11.8571 14.6753 11.3277C13.4399 8.60356 14.7836 5.56583 13.4842 2.88236C11.6482 -0.273456 6.4014 -0.782459 3.41375 1.55895C1.31698 3.10632 1.50401 5.44367 1.54339 7.56519C1.91254 12.7244 -2.65015 13.1072 5.47114 12.928C5.47607 13.1642 5.46622 13.4045 5.47607 13.6407C4.91004 13.9908 4.34565 14.341 3.7829 14.6912C3.74738 14.6996 3.71279 14.7105 3.67954 14.7238C-1.11449 15.1351 0.209528 19.4107 0.0618679 22.2245C-0.174388 24.1505 1.93223 23.9917 3.5811 23.951C3.64887 23.9773 3.72281 23.991 3.79766 23.991C3.87252 23.991 3.94646 23.9773 4.01423 23.951H11.6433C13.0953 24.0202 15.4234 24.1465 15.5366 22.5095C15.3151 19.769 16.841 15.0211 12.0371 14.7157ZM11.3136 14.9111L9.88618 16.1653C9.86738 16.1849 9.84591 16.2027 9.82219 16.2182C9.28569 15.7581 8.75904 15.2857 8.22746 14.8175C8.72458 14.5161 9.20202 14.2067 9.69914 13.9094C10.2356 14.2433 10.7721 14.5772 11.3136 14.9111ZM7.86816 14.5731C7.31197 14.223 6.75086 13.8768 6.18975 13.5266V12.3987C6.98813 12.6217 7.84247 12.6707 8.67044 12.5412C8.92107 12.4985 9.16777 12.4414 9.40874 12.3702V13.6162C8.89685 13.9338 8.38496 14.2515 7.86816 14.5731ZM14.1388 11.8856C14.2914 12.0933 14.4243 12.5086 14.2421 12.7C12.8935 12.7204 11.4907 12.6878 10.1274 12.7V12.0974C10.8081 11.7907 11.3872 11.3503 11.8138 10.8149C12.2404 10.2795 12.5013 9.66551 12.5736 9.02705C12.7655 8.79087 13.1593 8.79901 13.3857 8.59948C13.4188 9.72147 13.6732 10.8315 14.1388 11.8856ZM2.52287 3.52981C5.22997 -2.34205 14.3111 0.516516 13.3463 6.35173C12.4505 5.89159 11.3037 6.18477 10.3341 5.87123C9.24139 5.58619 8.1684 4.75142 8.15855 3.83114C8.15855 3.68862 8.00105 3.63976 7.8337 3.6479C6.84866 3.66233 5.88747 3.90103 5.05566 4.33778C4.22385 4.77453 3.55358 5.39245 3.11843 6.12369C2.80205 6.17588 2.50314 6.28425 2.24231 6.44131C2.14436 5.46465 2.23912 4.4813 2.52287 3.52981ZM5.47114 12.7H2.82311C0.824777 12.9158 1.19393 12.1544 1.76488 10.9775C2.00688 10.2144 2.15205 9.43237 2.19802 8.64428C2.51795 8.87638 2.93631 8.87231 3.0446 9.26323C3.14252 9.86834 3.41383 10.4453 3.83592 10.9461C4.25802 11.4469 4.81866 11.857 5.47114 12.1421V12.7ZM3.58602 8.70129C3.38914 8.51397 3.06921 8.50583 2.83295 8.37552C2.08973 7.96832 2.02574 6.89738 2.9117 6.57569C3.1578 6.48203 3.45805 6.55126 3.65985 6.38023C4.41784 5.13419 5.71232 4.14062 7.45963 4.07954C7.68604 5.56583 9.52195 6.36802 11.1757 6.46982C11.855 6.5309 12.6179 6.39652 13.0855 6.91774C13.6564 7.55297 13.2331 8.25743 12.4505 8.5384C11.9337 8.72165 11.8894 8.98225 11.8008 9.40575C11.6878 9.94273 11.4212 10.4496 11.0232 10.8839C8.29637 13.547 4.11267 11.8938 3.58602 8.70129ZM5.73693 13.8931C5.76082 13.907 5.78383 13.922 5.80584 13.9379C6.33742 14.2637 6.86407 14.5935 7.39564 14.9233C6.8936 15.3631 6.39648 15.8029 5.89443 16.2427C5.35301 15.7622 4.8116 15.2857 4.27018 14.8053C4.75745 14.4998 5.24473 14.1985 5.73693 13.8931ZM5.18075 16.4178C6.18975 17.163 7.02649 15.6441 7.73034 15.1962C9.43335 16.6499 9.47765 17.4032 11.3579 15.4975C11.3825 19.7813 4.48674 19.769 4.25541 15.5993C4.5655 15.8721 4.87066 16.1449 5.18075 16.4178ZM14.8279 22.2571C15.0198 23.8655 13.5186 23.723 12.0912 23.666V20.4735C12.0912 20.3636 11.3825 20.4531 11.3825 20.6282V23.666C8.99529 23.666 6.60812 23.6619 4.22096 23.666V20.5183C4.22096 20.2536 3.50234 20.3676 3.50234 20.5835V23.6741C1.50894 23.7963 0.647586 23.5357 0.770636 21.7643V18.1565C0.573756 16.7069 1.64183 15.1392 3.50727 15.0129C3.04952 20.4776 12.3816 20.3839 12.0912 15.0374C16.0338 15.754 14.5621 19.822 14.8279 22.2571Z" fill="#262626"/>
</svg>
