<svg width="13" height="14" viewBox="0 0 13 14" fill="none" xmlns="http://www.w3.org/2000/svg">
<path d="M3.84375 5.75L5.84375 7.75L11.4375 2.1875L12.3438 3.09375L5.84375 9.59375L2.9375 6.6875L3.84375 5.75ZM11.6875 7H13C13 8.79167 12.3646 10.3229 11.0938 11.5938C9.82292 12.8646 8.29167 13.5 6.5 13.5C4.70833 13.5 3.17708 12.8646 1.90625 11.5938C0.635417 10.3229 0 8.79167 0 7C0 5.20833 0.635417 3.67708 1.90625 2.40625C3.17708 1.13542 4.70833 0.5 6.5 0.5C7.33333 0.5 8.14583 0.666667 8.9375 1L7.9375 2C7.47917 1.875 7 1.8125 6.5 1.8125C5.0625 1.8125 3.83333 2.32292 2.8125 3.34375C1.8125 4.34375 1.3125 5.5625 1.3125 7C1.3125 8.4375 1.8125 9.66667 2.8125 10.6875C3.83333 11.6875 5.0625 12.1875 6.5 12.1875C7.9375 12.1875 9.15625 11.6875 10.1562 10.6875C11.1771 9.66667 11.6875 8.4375 11.6875 7Z" fill="#F76031"/>
</svg>
