<svg width="39" height="39" viewBox="0 0 39 39" fill="none" xmlns="http://www.w3.org/2000/svg">
<path d="M8.64843 5.73522C3.8794 5.73522 0 9.61463 0 14.3837C0 18.9844 3.61042 22.7578 8.1468 23.0185C8.22534 23.8665 8.16642 26.1749 5.95445 29.386C5.78723 29.6282 5.81758 29.9549 6.02526 30.1626C6.93042 31.0677 7.48983 31.6378 7.88135 32.0365C8.39377 32.5578 8.62765 32.7959 8.96982 33.1065C9.08584 33.2118 9.23221 33.2648 9.37926 33.2648C9.52203 33.2648 9.66426 33.2148 9.77913 33.1154C13.6335 29.7615 17.9153 22.8316 17.2958 14.3397C16.9328 9.354 13.2961 5.73522 8.64843 5.73522ZM9.38517 31.8229C9.21917 31.6593 9.0299 31.4664 8.75081 31.1825C8.41163 30.8368 7.94625 30.3631 7.24047 29.655C9.92495 25.5185 9.41789 22.5722 9.19596 22.1497C9.0906 21.9491 8.87457 21.814 8.64843 21.814C4.55185 21.814 1.21875 18.4809 1.21875 14.3837C1.21875 10.2871 4.55185 6.95397 8.64843 6.95397C12.6392 6.95397 15.7646 10.0973 16.0806 14.4277C16.7768 23.979 11.1003 30.1804 9.38517 31.8229Z" fill="#F76031"/>
<path d="M38.9396 14.3397V14.339C38.5753 9.354 34.9382 5.73522 30.2917 5.73522C25.5226 5.73522 21.6426 9.61463 21.6426 14.3837C21.6426 18.9844 25.2536 22.7578 29.7906 23.0185C29.8691 23.8659 29.8096 26.173 27.5971 29.386C27.4299 29.6282 27.4602 29.9549 27.6679 30.1626C28.5695 31.0641 29.1277 31.633 29.5192 32.0312C30.034 32.556 30.2691 32.7952 30.613 33.1071C30.729 33.2118 30.876 33.2648 31.0224 33.2648C31.1653 33.2648 31.3075 33.2148 31.4223 33.1148C35.2767 29.7609 39.5584 22.8311 38.9396 14.3397ZM31.0284 31.8229C30.8611 31.658 30.6702 31.4641 30.3886 31.1772C30.0495 30.832 29.5859 30.3596 28.883 29.655C31.5675 25.5178 31.0611 22.5722 30.8397 22.1497C30.7344 21.9497 30.5178 21.814 30.2917 21.814C26.1944 21.814 22.8613 18.4809 22.8613 14.3837C22.8613 10.2871 26.1944 6.95397 30.2917 6.95397C34.2817 6.95397 37.4078 10.0973 37.7243 14.4283V14.4277C38.42 23.9778 32.7434 30.1804 31.0284 31.8229Z" fill="#F76031"/>
</svg>
