<svg width="20" height="19" viewBox="0 0 20 19" fill="none" xmlns="http://www.w3.org/2000/svg">
<path d="M8.5021 15.7811C8.46659 15.7812 8.43204 15.7695 8.40384 15.7479C8.37563 15.7263 8.35534 15.6961 8.34611 15.6618C8.33689 15.6275 8.33924 15.5911 8.35282 15.5583C8.36639 15.5255 8.39042 15.498 8.42117 15.4803L18.8962 9.43269C18.9325 9.41204 18.9754 9.4063 19.0159 9.41667C19.0564 9.42705 19.0912 9.45273 19.1132 9.48831C19.1351 9.52388 19.1423 9.56657 19.1333 9.60738C19.1244 9.64819 19.0999 9.68393 19.0652 9.70706L14.5835 12.6469L18.8962 10.1565C18.9326 10.1362 18.9753 10.1307 19.0156 10.1413C19.0559 10.1518 19.0905 10.1775 19.1123 10.213C19.134 10.2485 19.1412 10.2911 19.1323 10.3317C19.1234 10.3724 19.0991 10.4081 19.0645 10.4312L15.9951 12.4263L18.8969 10.7517C18.9332 10.7305 18.9765 10.7244 19.0173 10.7347C19.0581 10.745 19.0933 10.7708 19.1153 10.8067C19.1373 10.8426 19.1444 10.8857 19.1351 10.9267C19.1258 10.9677 19.1008 11.0035 19.0655 11.0264L16.7341 12.5492L18.8969 11.3005C18.9328 11.2801 18.9752 11.2743 19.0153 11.2842C19.0554 11.2942 19.0901 11.3191 19.1123 11.354C19.1345 11.3888 19.1425 11.4308 19.1347 11.4714C19.1268 11.512 19.1036 11.5479 19.07 11.5719L16.1008 13.656L18.8969 12.0417C18.9327 12.0212 18.975 12.0153 19.0151 12.0252C19.0552 12.035 19.09 12.0598 19.1123 12.0945C19.1347 12.1293 19.1428 12.1712 19.1351 12.2118C19.1274 12.2523 19.1045 12.2884 19.071 12.3125L16.9949 13.7918L18.8972 12.6936C18.9328 12.6732 18.9749 12.6672 19.0149 12.6767C19.0548 12.6863 19.0896 12.7108 19.1122 12.7452C19.1347 12.7795 19.1432 12.8212 19.136 12.8617C19.1289 12.9021 19.1065 12.9383 19.0735 12.9628L17.6181 14.0358L18.8972 13.2972C18.932 13.277 18.9732 13.2706 19.0125 13.2792C19.0518 13.2878 19.0865 13.3109 19.1097 13.3438C19.1329 13.3767 19.143 13.4171 19.1379 13.457C19.1328 13.497 19.113 13.5336 19.0822 13.5596L17.867 14.5939L18.8898 14.0039C18.9229 13.9848 18.9618 13.978 18.9994 13.9848C19.0371 13.9917 19.0711 14.0117 19.0953 14.0414C19.1195 14.071 19.1324 14.1083 19.1317 14.1466C19.131 14.1848 19.1166 14.2216 19.0913 14.2503L18.4725 14.9505L18.4874 14.9422C18.5057 14.9305 18.5262 14.9227 18.5477 14.9191C18.5692 14.9156 18.5911 14.9165 18.6122 14.9216C18.6333 14.9268 18.6532 14.9362 18.6706 14.9492C18.688 14.9623 18.7026 14.9787 18.7134 14.9975C18.7243 15.0164 18.7313 15.0372 18.7339 15.0588C18.7365 15.0804 18.7347 15.1022 18.7287 15.1231C18.7226 15.144 18.7124 15.1634 18.6986 15.1803C18.6849 15.1971 18.6679 15.211 18.6486 15.2211L17.7781 15.724C17.7449 15.7432 17.7061 15.75 17.6684 15.7431C17.6307 15.7362 17.5968 15.7162 17.5725 15.6866C17.5483 15.657 17.5354 15.6197 17.5361 15.5814C17.5369 15.5431 17.5512 15.5064 17.5766 15.4777L18.1949 14.7777L16.4958 15.7566C16.461 15.7764 16.4201 15.7825 16.381 15.7738C16.342 15.7651 16.3075 15.7421 16.2845 15.7094C16.2614 15.6767 16.2513 15.6366 16.2561 15.5969C16.261 15.5571 16.2805 15.5206 16.3107 15.4945L17.5256 14.4601L15.2787 15.7566C15.243 15.7772 15.2008 15.7833 15.1608 15.7738C15.1208 15.7642 15.0859 15.7398 15.0633 15.7053C15.0407 15.6709 15.0322 15.6291 15.0395 15.5886C15.0467 15.5481 15.0692 15.5118 15.1023 15.4874L16.5567 14.4153L14.2334 15.7566C14.1975 15.777 14.1552 15.783 14.1151 15.7731C14.075 15.7633 14.0402 15.7385 14.0179 15.7037C13.9956 15.669 13.9874 15.6271 13.9951 15.5865C14.0028 15.5459 14.0258 15.5099 14.0593 15.4858L16.1353 14.0065L13.1046 15.7569C13.0687 15.7773 13.0263 15.7831 12.9862 15.7732C12.9461 15.7632 12.9114 15.7382 12.8891 15.7034C12.8669 15.6685 12.8589 15.6265 12.8668 15.586C12.8747 15.5454 12.8978 15.5094 12.9315 15.4854L15.8993 13.4029L11.8191 15.7585C11.7828 15.7792 11.7399 15.7849 11.6994 15.7745C11.659 15.7642 11.6241 15.7385 11.6022 15.7029C11.5803 15.6673 11.573 15.6246 11.582 15.5838C11.591 15.543 11.6154 15.5073 11.6502 15.4841L13.9822 13.9607L10.8677 15.7588C10.8314 15.7783 10.7891 15.7832 10.7494 15.7724C10.7097 15.7617 10.6755 15.7362 10.654 15.7011C10.6325 15.666 10.6252 15.624 10.6337 15.5838C10.6421 15.5435 10.6656 15.508 10.6994 15.4845L13.7685 13.4893L9.83498 15.7592C9.79875 15.7789 9.75634 15.784 9.71648 15.7734C9.67662 15.7628 9.64234 15.7373 9.6207 15.7022C9.59905 15.6671 9.59169 15.625 9.60012 15.5846C9.60855 15.5442 9.63214 15.5086 9.66603 15.4851L14.1502 12.5447L8.58174 15.7592C8.55761 15.7734 8.53012 15.781 8.5021 15.7811Z" fill="#2CB2B3"/>
<path d="M4.14948 19C4.11564 19 4.08266 18.9893 4.05522 18.9695C4.02777 18.9498 4.00724 18.9218 3.99654 18.8897C3.98584 18.8576 3.98551 18.823 3.9956 18.7907C4.00569 18.7584 4.02568 18.7301 4.05275 18.7098L4.56088 18.3319L3.67875 18.841C3.64205 18.8607 3.59917 18.8654 3.55909 18.8541C3.51901 18.8429 3.48483 18.8166 3.46371 18.7807C3.44258 18.7449 3.43616 18.7022 3.44577 18.6617C3.45538 18.6212 3.48029 18.586 3.51528 18.5634L3.75871 18.4167L3.43339 18.6044C3.39678 18.6239 3.35405 18.6286 3.31407 18.6175C3.2741 18.6063 3.23997 18.5802 3.21878 18.5445C3.19759 18.5088 3.19098 18.4663 3.20033 18.4259C3.20968 18.3855 3.23426 18.3502 3.26895 18.3274L6.79653 16.182L3.28475 18.2075C3.24808 18.2274 3.20511 18.2324 3.16487 18.2213C3.12463 18.2102 3.09026 18.1839 3.069 18.148C3.04774 18.112 3.04124 18.0693 3.05088 18.0287C3.06051 17.988 3.08552 17.9527 3.12064 17.9302L5.92052 16.2333L3.27669 17.76C3.24012 17.7798 3.19729 17.7847 3.15717 17.7737C3.11704 17.7627 3.08273 17.7366 3.06141 17.7009C3.04009 17.6651 3.03341 17.6225 3.04277 17.582C3.05212 17.5415 3.07679 17.5061 3.11161 17.4833L9.11632 13.7904L3.27443 17.1619C3.23775 17.1838 3.19384 17.1904 3.15236 17.18C3.11088 17.1696 3.07523 17.1431 3.05326 17.1064C3.03128 17.0697 3.02478 17.0258 3.03518 16.9843C3.04558 16.9429 3.07203 16.9072 3.10871 16.8852L10.6236 12.2086L3.2725 16.4532C3.25425 16.464 3.23406 16.471 3.21309 16.474C3.19211 16.4769 3.17076 16.4757 3.15025 16.4704C3.10883 16.4597 3.07336 16.433 3.05164 16.3961C3.02992 16.3593 3.02373 16.3153 3.03444 16.2739C3.04514 16.2325 3.07186 16.197 3.10871 16.1753L4.03341 15.6185L3.27089 16.0586C3.23438 16.0781 3.19176 16.0828 3.15187 16.0717C3.11198 16.0607 3.07788 16.0347 3.05662 15.9992C3.03536 15.9636 3.02857 15.9213 3.03767 15.8809C3.04677 15.8406 3.07105 15.8052 3.10549 15.7822L9.94913 11.5454L2.65249 15.7571C2.61589 15.7767 2.57315 15.7814 2.53318 15.7702C2.4932 15.759 2.45907 15.7329 2.43788 15.6972C2.4167 15.6615 2.41009 15.6191 2.41943 15.5786C2.42878 15.5382 2.45336 15.5029 2.48806 15.4801L8.11264 12.039L1.71393 15.7332C1.6772 15.7542 1.63373 15.7598 1.59286 15.749C1.552 15.7382 1.51702 15.7118 1.49546 15.6754C1.47389 15.639 1.46748 15.5957 1.47758 15.5546C1.48769 15.5136 1.51352 15.4781 1.5495 15.456L6.57599 12.402L1.15937 15.5295C1.1227 15.5494 1.07973 15.5544 1.03949 15.5433C0.99925 15.5322 0.964885 15.5059 0.943625 15.47C0.922365 15.434 0.915866 15.3913 0.925497 15.3507C0.935128 15.31 0.960137 15.2747 0.995262 15.2522L6.1791 12.1077L0.785691 15.2209C0.748996 15.2406 0.70612 15.2453 0.666037 15.234C0.625955 15.2228 0.591775 15.1965 0.570652 15.1606C0.549529 15.1247 0.543102 15.0821 0.552715 15.0416C0.562327 15.0011 0.587236 14.9659 0.622225 14.9433L1.12745 14.6409L0.590628 14.9511C0.554027 14.9706 0.511291 14.9753 0.471316 14.9642C0.431342 14.953 0.397209 14.9269 0.376022 14.8912C0.354835 14.8555 0.348226 14.813 0.357572 14.7726C0.366918 14.7321 0.391497 14.6969 0.426195 14.6741L7.2089 10.5417L0.409107 14.4674C0.372479 14.4867 0.329826 14.4912 0.289987 14.4799C0.250148 14.4686 0.216178 14.4425 0.195119 14.4068C0.17406 14.3712 0.167527 14.3288 0.176872 14.2884C0.186218 14.2481 0.210727 14.2129 0.245319 14.1901L5.13092 11.2368L0.376543 13.9819C0.358294 13.9926 0.33811 13.9996 0.317143 14.0026C0.296175 14.0055 0.274836 14.0043 0.254343 13.999C0.233849 13.9936 0.214603 13.9843 0.197703 13.9716C0.180803 13.9588 0.166581 13.9429 0.155848 13.9246C0.145114 13.9064 0.13808 13.8862 0.135148 13.8652C0.132215 13.8443 0.13344 13.8229 0.138755 13.8024C0.144069 13.7819 0.153368 13.7627 0.16612 13.7458C0.178872 13.7289 0.194828 13.7147 0.213077 13.7039L1.11037 13.1671L0.376543 13.5908C0.339897 13.611 0.296806 13.6162 0.256389 13.6053C0.215973 13.5943 0.181402 13.5681 0.159994 13.5321C0.138586 13.4961 0.132021 13.4532 0.141687 13.4125C0.151354 13.3717 0.176494 13.3364 0.211787 13.3138L8.56241 8.19124L0.376543 12.9176C0.339688 12.9393 0.295714 12.9455 0.254295 12.9348C0.212877 12.9241 0.177406 12.8974 0.155686 12.8605C0.133967 12.8236 0.127777 12.7797 0.13848 12.7383C0.149182 12.6968 0.175899 12.6614 0.212754 12.6396L2.10954 11.5028L0.376543 12.5023C0.339816 12.5242 0.295897 12.5306 0.254448 12.5201C0.213 12.5096 0.177416 12.4831 0.155525 12.4464C0.133634 12.4096 0.12723 12.3657 0.137721 12.3243C0.148211 12.2828 0.174738 12.2472 0.211465 12.2253L8.95479 6.84386L0.376543 11.7965C0.339873 11.8165 0.296897 11.8214 0.256659 11.8103C0.21642 11.7992 0.182055 11.7729 0.160794 11.737C0.139534 11.7011 0.133036 11.6583 0.142666 11.6177C0.152297 11.5771 0.177306 11.5418 0.212432 11.5192L4.82301 8.73033L0.376543 11.2981C0.339967 11.3179 0.297139 11.3228 0.257016 11.3118C0.216894 11.3008 0.182584 11.2747 0.161264 11.239C0.139943 11.2032 0.133262 11.1606 0.142618 11.1201C0.151974 11.0796 0.176643 11.0442 0.211465 11.0214L8.06073 6.19258L0.376543 10.6287C0.339941 10.6483 0.297205 10.653 0.257231 10.6418C0.217256 10.6307 0.183123 10.6045 0.161936 10.5688C0.140749 10.5332 0.134141 10.4907 0.143486 10.4502C0.152832 10.4098 0.177412 10.3745 0.212109 10.3518L5.64163 7.04118L0.376543 10.0825C0.339992 10.1027 0.297059 10.1079 0.256772 10.097C0.216485 10.0861 0.181983 10.06 0.16052 10.0243C0.139058 9.98847 0.132307 9.94576 0.141688 9.9051C0.151068 9.86444 0.175849 9.829 0.21082 9.80623L7.33625 5.38589L0.376543 9.40192C0.339992 9.42205 0.297059 9.42723 0.256772 9.41636C0.216485 9.40549 0.181983 9.37942 0.16052 9.34363C0.139058 9.30785 0.132307 9.26513 0.141688 9.22447C0.151068 9.18381 0.175849 9.14838 0.21082 9.12561L6.58502 5.15729L0.376543 8.74193C0.3584 8.75286 0.338283 8.7601 0.317341 8.76325C0.296398 8.7664 0.275041 8.76539 0.254488 8.76029C0.233934 8.75518 0.214588 8.74608 0.197552 8.7335C0.180517 8.72092 0.166127 8.7051 0.155203 8.68696C0.144279 8.66882 0.137035 8.6487 0.133886 8.62776C0.130737 8.60682 0.131743 8.58546 0.136848 8.56491C0.141953 8.54435 0.151055 8.52501 0.163637 8.50797C0.176218 8.49094 0.192032 8.47654 0.210175 8.46562L6.1604 4.73557L0.376543 8.07517C0.358378 8.08605 0.338249 8.09325 0.317303 8.09635C0.296358 8.09946 0.275006 8.0984 0.254468 8.09325C0.23393 8.0881 0.214607 8.07896 0.197602 8.06634C0.180598 8.05372 0.166245 8.03788 0.155364 8.01972C0.144482 8.00155 0.137285 7.98142 0.134183 7.96048C0.131081 7.93953 0.132135 7.91818 0.137284 7.89764C0.142434 7.8771 0.151578 7.85778 0.164196 7.84078C0.176813 7.82377 0.192656 7.80942 0.21082 7.79854L4.3871 5.2005L0.376543 7.5161C0.339773 7.53795 0.29583 7.54429 0.254382 7.53374C0.212933 7.52319 0.177373 7.49661 0.155525 7.45984C0.133677 7.42307 0.127331 7.37913 0.137882 7.33768C0.148433 7.29623 0.175018 7.26067 0.211787 7.23882L1.23031 6.61559L0.376543 7.10856C0.340133 7.12929 0.297086 7.13503 0.256519 7.12456C0.215953 7.11409 0.181054 7.08825 0.159217 7.05249C0.137379 7.01674 0.130318 6.97389 0.139529 6.93302C0.14874 6.89215 0.1735 6.85647 0.208563 6.83354L5.16348 3.64483L0.376543 6.4086C0.34004 6.42946 0.296832 6.43523 0.256132 6.42469C0.215432 6.41415 0.180461 6.38812 0.158676 6.35216C0.13689 6.31621 0.130015 6.27316 0.139515 6.2322C0.149015 6.19125 0.174139 6.15562 0.20953 6.13293L3.18255 4.25033L0.37751 5.8708C0.340783 5.89274 0.296847 5.89918 0.255368 5.88872C0.213889 5.87826 0.178265 5.85175 0.156331 5.81502C0.134398 5.7783 0.127952 5.73436 0.138413 5.69288C0.148873 5.6514 0.175383 5.61578 0.212109 5.59385L0.363323 5.50034C0.32628 5.51751 0.284101 5.51999 0.245304 5.50727C0.206507 5.49455 0.173982 5.46758 0.154296 5.43181C0.13461 5.39604 0.12923 5.35413 0.139243 5.31455C0.149255 5.27497 0.173914 5.24066 0.20824 5.21855L3.41243 3.11542L0.376543 4.86776C0.340272 4.88931 0.297002 4.89577 0.256017 4.88578C0.215031 4.87578 0.179597 4.85012 0.157318 4.8143C0.135039 4.77847 0.12769 4.73534 0.136849 4.69416C0.146007 4.65298 0.170943 4.61703 0.206306 4.59403L2.92074 2.78236L0.376543 4.2513C0.340243 4.27391 0.296446 4.28119 0.254786 4.27151C0.213125 4.26184 0.177014 4.23601 0.154397 4.19971C0.131779 4.16341 0.124508 4.11961 0.134182 4.07795C0.143857 4.03629 0.169684 4.00018 0.205984 3.97756L2.07407 2.72691L0.376543 3.70706C0.340272 3.7286 0.297002 3.73507 0.256017 3.72507C0.215031 3.71508 0.179597 3.68942 0.157318 3.65359C0.135039 3.61777 0.12769 3.57464 0.136849 3.53346C0.146007 3.49228 0.170943 3.45633 0.206306 3.43332L1.19452 2.77333L0.376543 3.24729C0.340201 3.27012 0.296277 3.27758 0.254436 3.26803C0.212594 3.25847 0.176261 3.23269 0.153429 3.19635C0.130598 3.16 0.123139 3.11608 0.132692 3.07424C0.142246 3.0324 0.168029 2.99606 0.204371 2.97323L1.18904 2.29261L0.376543 2.76366C0.340666 2.78472 0.29804 2.79109 0.257575 2.78144C0.21711 2.7718 0.18194 2.74689 0.159416 2.71192C0.136892 2.67694 0.128758 2.63462 0.136716 2.59379C0.144674 2.55296 0.168106 2.51679 0.202115 2.49283L0.953671 1.95375L0.376543 2.28713C0.341387 2.30776 0.299719 2.31431 0.259928 2.30546C0.220137 2.29661 0.185177 2.27301 0.162086 2.23941C0.138996 2.20582 0.129489 2.16473 0.13548 2.12441C0.141472 2.08408 0.162516 2.04753 0.194376 2.0221L1.05233 1.32761L0.38815 1.71129C0.354772 1.73023 0.315733 1.73664 0.278051 1.72937C0.24037 1.7221 0.206518 1.70162 0.182582 1.67163C0.158647 1.64163 0.146198 1.60408 0.147473 1.56572C0.148748 1.52737 0.163665 1.49072 0.18954 1.46238L0.751192 0.851402C0.713353 0.862218 0.672864 0.858819 0.637357 0.841846C0.601851 0.824872 0.57378 0.795497 0.558435 0.759257C0.543091 0.723017 0.541533 0.682415 0.554055 0.645106C0.566577 0.607796 0.592315 0.576356 0.626416 0.556712L1.49146 0.0572865C1.52485 0.037909 1.56408 0.0311556 1.60203 0.038254C1.63997 0.0453524 1.67411 0.0658314 1.69824 0.0959679C1.72236 0.126104 1.73487 0.163897 1.73349 0.202476C1.73211 0.241054 1.71693 0.277857 1.69072 0.306193L1.13971 0.904923L2.66926 0.0231102C2.70435 0.00333599 2.74557 -0.0025842 2.78481 0.00651523C2.82405 0.0156147 2.85846 0.0390744 2.88127 0.0722755C2.90408 0.105477 2.91363 0.146014 2.90805 0.185905C2.90246 0.225797 2.88215 0.262153 2.8511 0.287815L1.99508 0.981014L3.65424 0.0231102C3.69012 0.00205562 3.73275 -0.00431592 3.77321 0.00532762C3.81367 0.0149712 3.84885 0.0398832 3.87137 0.0748557C3.89389 0.109828 3.90203 0.152154 3.89407 0.192983C3.88611 0.233813 3.86268 0.269987 3.82867 0.293941L3.07615 0.831089L4.4777 0.0231102C4.51374 0.00213852 4.5565 -0.00405382 4.59701 0.00583347C4.63751 0.0157208 4.67261 0.0409185 4.69494 0.0761357C4.71726 0.111353 4.72507 0.15385 4.71673 0.194703C4.70838 0.235556 4.68454 0.271587 4.65019 0.295231L3.6652 0.974565L5.31598 0.0231102C5.35225 0.00156549 5.39552 -0.00490314 5.43651 0.0050924C5.4775 0.0150879 5.51293 0.0407512 5.53521 0.0765749C5.55749 0.112399 5.56484 0.155528 5.55568 0.196709C5.54652 0.237889 5.52158 0.273839 5.48622 0.296843L4.49704 0.955543L6.11397 0.0231102C6.15018 0.00212555 6.19312 -0.00395692 6.23373 0.00614867C6.27434 0.0162543 6.30943 0.0417559 6.33158 0.0772622C6.35373 0.112769 6.36121 0.155497 6.35243 0.196414C6.34364 0.237331 6.3193 0.273229 6.28453 0.29652L4.41612 1.5475L7.05704 0.0231102C7.09327 0.00250003 7.13608 -0.00327358 7.17648 0.00700111C7.21688 0.0172758 7.25173 0.0427999 7.27371 0.0782166C7.2957 0.113633 7.30311 0.156189 7.29439 0.196952C7.28567 0.237715 7.2615 0.273517 7.22695 0.296843L4.51284 2.10722L8.12457 0.0231102C8.16089 0.00246207 8.2038 -0.00327922 8.24427 0.00709637C8.28475 0.017472 8.31961 0.043154 8.34151 0.0787298C8.36342 0.114306 8.37066 0.156996 8.3617 0.197805C8.35275 0.238613 8.3283 0.274351 8.29351 0.297488L5.09029 2.4003L9.20757 0.0231102C9.24425 0.00113398 9.28816 -0.00536948 9.32964 0.00503052C9.37112 0.0154305 9.40677 0.041882 9.42875 0.0785661C9.45072 0.11525 9.45723 0.159162 9.44683 0.200641C9.43643 0.24212 9.40998 0.277768 9.37329 0.299745L9.24432 0.378737L9.86208 0.0231102C9.89854 0.00306023 9.94134 -0.00211576 9.98152 0.00866485C10.0217 0.0194455 10.0562 0.0453476 10.0777 0.0809535C10.0992 0.116559 10.1062 0.159111 10.097 0.199708C10.0879 0.240305 10.0635 0.275803 10.0288 0.298777L7.05511 2.1817L10.7935 0.0231102C10.8299 0.00310653 10.8726 -0.00209612 10.9127 0.00858562C10.9528 0.0192674 10.9873 0.0450101 11.0089 0.0804534C11.0305 0.115897 11.0376 0.158308 11.0287 0.198857C11.0198 0.239406 10.9956 0.274966 10.9612 0.298133L6.00693 3.48556L12.0058 0.0231102C12.0424 0.00354805 12.0852 -0.00114487 12.1251 0.0100083C12.1651 0.0211615 12.1993 0.0473014 12.2204 0.082987C12.2416 0.118673 12.2482 0.161154 12.2389 0.201589C12.2295 0.242025 12.205 0.277298 12.1703 0.300067L11.1517 0.921689L12.7113 0.0231102C12.7478 0.00297935 12.7908 -0.00219461 12.8311 0.00867627C12.8713 0.0195471 12.9058 0.0456159 12.9273 0.0814009C12.9488 0.117186 12.9555 0.159899 12.9461 0.200559C12.9368 0.241218 12.912 0.276657 12.877 0.299422L8.69879 2.89811L13.6798 0.0231102C13.7165 0.00104847 13.7604 -0.00555397 13.8019 0.00475532C13.8434 0.0150646 13.8791 0.0414412 13.9012 0.0780824C13.9232 0.114724 13.9298 0.158628 13.9195 0.200137C13.9092 0.241647 13.8828 0.277361 13.8462 0.299422L7.89533 4.02786L14.8347 0.0231102C14.8713 0.00200472 14.9148 -0.00388752 14.9557 0.00670147C14.9966 0.0172905 15.0317 0.0435142 15.0534 0.0797293C15.0752 0.115944 15.0819 0.159256 15.072 0.200343C15.0622 0.241431 15.0366 0.277009 15.0008 0.299422L8.62464 4.26742L15.978 0.0231102C16.0147 0.00113398 16.0586 -0.00536948 16.1001 0.00503052C16.1416 0.0154305 16.1772 0.041882 16.1992 0.0785661C16.2212 0.11525 16.2277 0.159162 16.2173 0.200641C16.2069 0.24212 16.1804 0.277768 16.1437 0.299745L9.01831 4.71977L17.1542 0.0231102C17.191 0.00126225 17.2349 -0.00508423 17.2764 0.00546693C17.3178 0.0160181 17.3534 0.0426026 17.3752 0.0793721C17.3971 0.116142 17.4034 0.160084 17.3929 0.201533C17.3823 0.242982 17.3557 0.278542 17.319 0.30039L11.8875 3.61098L17.8961 0.14176C17.9143 0.130921 17.9344 0.12377 17.9554 0.120715C17.9763 0.11766 17.9977 0.118761 18.0182 0.123955C18.0387 0.12915 18.058 0.138336 18.075 0.150989C18.0919 0.163642 18.1063 0.179514 18.1171 0.197699C18.1279 0.215885 18.1351 0.236027 18.1381 0.256976C18.1412 0.277925 18.1401 0.29927 18.1349 0.319794C18.1297 0.340317 18.1205 0.359616 18.1079 0.37659C18.0952 0.393563 18.0793 0.407878 18.0612 0.418717L10.2167 5.24628L18.4342 0.500289C18.4709 0.480347 18.5138 0.475406 18.5541 0.486505C18.5943 0.497605 18.6287 0.523879 18.6499 0.559801C18.6712 0.595722 18.6777 0.63849 18.6681 0.679105C18.6584 0.71972 18.6334 0.755017 18.5983 0.777568L13.981 3.56971L18.6934 0.849145C18.7116 0.838305 18.7318 0.831154 18.7527 0.828099C18.7736 0.825045 18.795 0.826146 18.8155 0.83134C18.836 0.836535 18.8553 0.845721 18.8723 0.858374C18.8893 0.871027 18.9036 0.886899 18.9144 0.905084C18.9253 0.923269 18.9324 0.943412 18.9355 0.96436C18.9385 0.985309 18.9374 1.00665 18.9322 1.02718C18.927 1.0477 18.9179 1.067 18.9052 1.08397C18.8926 1.10095 18.8767 1.11526 18.8585 1.1261L10.1136 6.50919L18.8859 1.44465C18.9227 1.42454 18.9658 1.41954 19.0062 1.43071C19.0466 1.44188 19.0811 1.46834 19.1023 1.50448C19.1235 1.54062 19.1298 1.5836 19.1199 1.62432C19.1099 1.66503 19.0845 1.70027 19.049 1.72257L17.1523 2.86039L18.8962 1.85315C18.9329 1.83289 18.976 1.82769 19.0164 1.83864C19.0568 1.84958 19.0914 1.87583 19.1128 1.91182C19.1342 1.9478 19.1407 1.99071 19.1311 2.03145C19.1214 2.07219 19.0963 2.10758 19.061 2.13011L10.7145 7.24978L18.8962 2.52604C18.9331 2.50436 18.977 2.49821 19.0184 2.50895C19.0389 2.51426 19.0582 2.52356 19.0751 2.53631C19.092 2.54906 19.1062 2.56502 19.1169 2.58327C19.1277 2.60152 19.1347 2.6217 19.1376 2.64267C19.1406 2.66364 19.1393 2.68498 19.134 2.70547C19.1287 2.72596 19.1194 2.74521 19.1066 2.76211C19.0939 2.77901 19.0779 2.79323 19.0597 2.80396L18.1621 3.34079L18.8962 2.91713C18.933 2.89537 18.977 2.88912 19.0184 2.89976C19.0598 2.91041 19.0953 2.93707 19.1171 2.97388C19.1388 3.01069 19.1451 3.05464 19.1344 3.09606C19.1238 3.13748 19.0971 3.17297 19.0603 3.19473L14.1744 6.14905L18.8962 3.42139C18.9329 3.40145 18.9759 3.39651 19.0161 3.40761C19.0563 3.41871 19.0907 3.44498 19.112 3.48091C19.1332 3.51683 19.1397 3.5596 19.1301 3.60021C19.1205 3.64083 19.0955 3.67612 19.0603 3.69867L12.2754 7.83272L18.8962 4.00981C18.9331 3.98813 18.9771 3.982 19.0185 3.99276C19.06 4.00352 19.0954 4.0303 19.1171 4.0672C19.1388 4.10409 19.1449 4.14809 19.1341 4.18951C19.1234 4.23093 19.0966 4.26638 19.0597 4.28805L18.5464 4.595L18.8962 4.39284C18.933 4.37108 18.977 4.36483 19.0184 4.37547C19.0598 4.38611 19.0953 4.41277 19.1171 4.44958C19.1388 4.4864 19.1451 4.53035 19.1344 4.57176C19.1238 4.61318 19.0971 4.64868 19.0603 4.67044L13.8826 7.81144L18.8962 4.91677C18.9329 4.89683 18.9759 4.89189 19.0161 4.90298C19.0563 4.91408 19.0907 4.94036 19.112 4.97628C19.1332 5.0122 19.1397 5.05497 19.1301 5.09558C19.1205 5.1362 19.0955 5.1715 19.0603 5.19405L14.0322 8.24928L18.8962 5.43973C18.9328 5.42017 18.9756 5.41547 19.0155 5.42663C19.0555 5.43778 19.0896 5.46392 19.1108 5.49961C19.132 5.53529 19.1386 5.57777 19.1293 5.61821C19.1199 5.65864 19.0954 5.69392 19.0607 5.71669L13.4409 9.15753L18.8962 6.00718C18.933 5.98529 18.9769 5.97889 19.0183 5.98938C19.0598 5.99987 19.0954 6.0264 19.1172 6.06312C19.1391 6.09985 19.1455 6.14377 19.135 6.18522C19.1246 6.22667 19.098 6.26225 19.0613 6.28414L12.2157 10.5207L18.8962 6.66492C18.9145 6.65416 18.9347 6.64711 18.9556 6.64416C18.9766 6.6412 18.998 6.64241 19.0185 6.64771C19.039 6.65301 19.0582 6.6623 19.0752 6.67504C19.0921 6.68778 19.1063 6.70374 19.1171 6.72199C19.1278 6.74023 19.1349 6.76042 19.1378 6.7814C19.1408 6.80237 19.1396 6.82372 19.1343 6.84423C19.129 6.86474 19.1197 6.884 19.107 6.90092C19.0942 6.91784 19.0783 6.93209 19.06 6.94284L18.1337 7.50062L18.8962 7.06052C18.9328 7.04039 18.9757 7.03522 19.016 7.04609C19.0563 7.05696 19.0908 7.08303 19.1122 7.11881C19.1337 7.1546 19.1405 7.19731 19.1311 7.23797C19.1217 7.27863 19.0969 7.31407 19.0619 7.33684L11.547 12.0132L18.8962 7.77017C18.9329 7.74991 18.976 7.7447 19.0164 7.75565C19.0568 7.7666 19.0914 7.79284 19.1128 7.82883C19.1342 7.86482 19.1407 7.90772 19.1311 7.94846C19.1214 7.98921 19.0963 8.02459 19.061 8.04712L13.054 11.7449L18.8962 8.37148C18.933 8.34971 18.977 8.34346 19.0184 8.35411C19.0598 8.36475 19.0953 8.39141 19.1171 8.42822C19.1388 8.46503 19.1451 8.50898 19.1344 8.5504C19.1238 8.59182 19.0971 8.62731 19.0603 8.64908L16.2601 10.346L18.8962 8.82512C18.933 8.80335 18.977 8.79711 19.0184 8.80775C19.0598 8.81839 19.0953 8.84505 19.1171 8.88186C19.1388 8.91867 19.1451 8.96262 19.1344 9.00404C19.1238 9.04546 19.0971 9.08096 19.0603 9.10272L15.5366 11.2433L18.8962 9.30455C18.9145 9.2938 18.9347 9.28674 18.9556 9.28379C18.9766 9.28084 18.998 9.28205 19.0185 9.28734C19.039 9.29264 19.0582 9.30193 19.0752 9.31468C19.0921 9.32742 19.1063 9.34337 19.1171 9.36162C19.1278 9.37987 19.1349 9.40006 19.1378 9.42103C19.1408 9.44201 19.1396 9.46336 19.1343 9.48387C19.129 9.50438 19.1197 9.52364 19.107 9.54056C19.0942 9.55748 19.0783 9.57172 19.06 9.58248L7.04962 16.8121C7.04814 16.8354 7.04161 16.8581 7.03047 16.8786C7.01934 16.8992 7.00387 16.917 6.98514 16.931L5.11512 18.3226C5.12612 18.3576 5.12486 18.3953 5.11156 18.4294C5.09825 18.4636 5.07369 18.4922 5.04193 18.5105L4.23169 18.9784C4.20679 18.993 4.17835 19.0005 4.14948 19Z" fill="#2CB2B3"/>
<path d="M2.20981 15.7385H2.95459C2.42615 22.0315 5.95308 17.5025 8.41732 15.7385C22.7788 15.7114 18.5767 17.8104 19.2203 1.70076C19.1922 0.458483 18.0034 -0.0973657 16.8908 0.041274H4.35292C2.71085 0.0145133 -0.100637 -0.322413 0.0528341 2.09282V10.1639C0.281428 12.1374 -0.952787 15.9548 2.20981 15.7385ZM1.80679 0.262453C6.51151 0.257294 11.2172 0.265999 15.9222 0.262453C17.102 0.114785 18.7624 0.294695 18.7527 1.82682C18.7282 5.89509 18.8018 9.96626 18.7527 14.0342C18.7656 15.2094 17.7039 15.685 16.6619 15.5173H12.7961C11.3268 15.5299 9.84982 15.4964 8.38508 15.5231C8.07523 15.5754 7.79054 15.91 7.56001 16.0993L4.62601 18.4852C4.14077 19.0536 3.3905 18.5123 3.42049 17.8726C3.39695 17.1049 3.4279 16.3343 3.42049 15.566C3.42049 15.5164 3.30958 15.518 3.28378 15.518C-0.164475 16.0274 0.578375 13.3923 0.51905 11.0254C0.51905 8.24294 0.51905 5.46058 0.51905 2.67833C0.519695 1.71817 0.451987 0.299531 1.80679 0.262453Z" fill="#262626"/>
<path d="M2.52517 3.55691H16.7116C16.985 3.55691 17.064 3.1958 16.7477 3.1958H2.56128C2.28787 3.1958 2.20888 3.55691 2.52517 3.55691Z" fill="#F76031"/>
<path d="M12.0284 6.14893H2.63539C2.4658 6.14893 2.13726 6.40428 2.45097 6.40428H16.6374C16.8069 6.40428 17.1355 6.14893 16.8218 6.14893H12.0284Z" fill="#F76031"/>
<path d="M12.0313 9.0625H2.63793C2.48156 9.0625 2.13593 9.29722 2.44835 9.29722H16.6347C16.7911 9.29722 17.1367 9.0625 16.8243 9.0625H12.0313Z" fill="#F76031"/>
<path d="M2.39292 12.1818H13.6775C13.7769 12.2263 14.2366 12.0329 13.978 11.9816H2.69341C2.59411 11.9374 2.13434 12.1309 2.39292 12.1818Z" fill="#F76031"/>
</svg>
