<svg width="39" height="39" viewBox="0 0 39 39" fill="none" xmlns="http://www.w3.org/2000/svg">
<path d="M30.8362 24.1593C30.0367 23.328 29.0723 22.8835 28.0503 22.8835C27.0364 22.8835 26.0638 23.3198 25.2313 24.1511L22.6267 26.7439C22.4124 26.6286 22.1981 26.5216 21.992 26.4146C21.6953 26.2665 21.415 26.1266 21.176 25.9784C18.7362 24.431 16.519 22.4143 14.3924 19.8051C13.3621 18.5046 12.6697 17.4098 12.1669 16.2987C12.8428 15.6813 13.4692 15.0393 14.0792 14.422C14.31 14.1915 14.5408 13.9528 14.7716 13.7223C16.5025 11.9938 16.5025 9.75495 14.7716 8.02642L12.5213 5.77934C12.2658 5.52418 12.0021 5.26078 11.7548 4.99739C11.2602 4.48706 10.741 3.96028 10.2052 3.46641C9.40567 2.67623 8.44954 2.25644 7.44395 2.25644C6.43836 2.25644 5.46574 2.67623 4.64149 3.46641C4.63325 3.47464 4.63325 3.47464 4.625 3.48287L1.82254 6.30613C0.767502 7.35971 0.165797 8.64376 0.0339168 10.1336C-0.163904 12.5371 0.544953 14.7759 1.08896 16.241C2.42425 19.838 4.41894 23.1716 7.39449 26.7439C11.0047 31.0487 15.3485 34.4482 20.3105 36.8434C22.2063 37.7406 24.7368 38.8024 27.564 38.9835C27.737 38.9917 27.9184 39 28.0832 39C29.9873 39 31.5863 38.3168 32.8392 36.9586C32.8474 36.9422 32.8639 36.934 32.8721 36.9175C33.3008 36.3989 33.7953 35.9298 34.3146 35.4277C34.669 35.0902 35.0317 34.7363 35.3861 34.3659C36.2021 33.5181 36.6307 32.5303 36.6307 31.5179C36.6307 30.4973 36.1939 29.5178 35.3614 28.6946L30.8362 24.1593ZM33.7871 32.8266C33.7788 32.8266 33.7788 32.8349 33.7871 32.8266C33.4656 33.1724 33.1359 33.4851 32.7815 33.8308C32.2457 34.3412 31.7017 34.8762 31.1907 35.4771C30.3582 36.366 29.3773 36.7858 28.0915 36.7858C27.9678 36.7858 27.836 36.7858 27.7123 36.7776C25.2643 36.6212 22.9894 35.6664 21.2831 34.8515C16.6179 32.5962 12.5213 29.3943 9.11718 25.3364C6.30648 21.9534 4.42718 18.8256 3.18256 15.4673C2.41601 13.4178 2.13576 11.8209 2.2594 10.3147C2.34182 9.35163 2.71274 8.55321 3.39687 7.87004L6.20757 5.06324C6.61145 4.68461 7.04006 4.47883 7.46043 4.47883C7.97971 4.47883 8.40008 4.79161 8.66384 5.05501C8.67208 5.06324 8.68033 5.07147 8.68857 5.0797C9.19136 5.54887 9.66943 6.03451 10.1722 6.55306C10.4277 6.81646 10.6915 7.07985 10.9553 7.35148L13.2055 9.59856C14.0792 10.4711 14.0792 11.2777 13.2055 12.1502C12.9664 12.3889 12.7356 12.6276 12.4966 12.8581C11.8042 13.5659 11.1448 14.2244 10.4277 14.8664C10.4113 14.8829 10.3948 14.8911 10.3865 14.9076C9.67767 15.6155 9.80955 16.3069 9.95792 16.7761C9.96616 16.8007 9.9744 16.8254 9.98265 16.8501C10.5679 18.2659 11.3921 19.5993 12.645 21.1879L12.6532 21.1961C14.9282 23.9947 17.3267 26.1759 19.9726 27.8468C20.3105 28.0609 20.6567 28.2337 20.9864 28.3983C21.2831 28.5465 21.5634 28.6864 21.8024 28.8346C21.8354 28.851 21.8684 28.8757 21.9013 28.8922C22.1816 29.0321 22.4453 29.098 22.7173 29.098C23.4015 29.098 23.8301 28.67 23.9702 28.53L26.7892 25.715C27.0694 25.4351 27.5145 25.0977 28.0338 25.0977C28.5448 25.0977 28.9652 25.4187 29.2207 25.6985C29.2289 25.7068 29.2289 25.7068 29.2372 25.715L33.7788 30.2503C34.6278 31.0899 34.6278 31.9542 33.7871 32.8266Z" fill="#2CB2B3"/>
<path d="M21.078 9.27696C23.2376 9.63913 25.1993 10.6598 26.7654 12.2237C28.3315 13.7876 29.3453 15.7466 29.7162 17.9031C29.8069 18.4464 30.2767 18.825 30.8125 18.825C30.8784 18.825 30.9361 18.8168 31.002 18.8085C31.612 18.7098 32.0159 18.1336 31.9169 17.5245C31.4719 14.9152 30.2355 12.5365 28.3479 10.6515C26.4604 8.76663 24.0783 7.53197 21.4654 7.08749C20.8555 6.98872 20.2868 7.39204 20.1796 7.99291C20.0724 8.59378 20.4681 9.17819 21.078 9.27696Z" fill="#2CB2B3"/>
<path d="M38.9833 17.2034C38.2498 12.9068 36.2221 8.99704 33.1064 5.8857C29.9907 2.77435 26.0755 0.749506 21.7729 0.0169408C21.1712 -0.0900632 20.6025 0.321491 20.4954 0.922359C20.3964 1.53146 20.8003 2.0994 21.4103 2.20641C25.2513 2.85666 28.7544 4.67573 31.5403 7.4496C34.3263 10.2317 36.1397 13.7299 36.7908 17.5656C36.8815 18.1088 37.3513 18.4875 37.8871 18.4875C37.953 18.4875 38.0107 18.4792 38.0767 18.471C38.6784 18.3805 39.0905 17.8043 38.9833 17.2034Z" fill="#2CB2B3"/>
</svg>
