<svg width="37" height="32" viewBox="0 0 37 32" fill="none" xmlns="http://www.w3.org/2000/svg">
<path d="M33.8461 0H3.07695C1.37993 0 0 1.59458 0 3.55558V28.4445C0 30.4054 1.37993 32 3.07695 32H33.8462C35.5431 32 36.9231 30.4054 36.9231 28.4444V3.55558C36.9231 1.59458 35.5431 0 33.8461 0ZM3.07695 1.77775H33.8462C33.9596 1.77775 34.0594 1.8255 34.1658 1.8525C31.5019 4.66975 22.669 14.0074 19.5779 17.2257C19.336 17.4774 18.9462 17.7778 18.4616 17.7778C17.9771 17.7778 17.5872 17.4774 17.3445 17.2248C14.2537 14.0071 5.42026 4.66892 2.75683 1.85267C2.86341 1.82567 2.96351 1.77775 3.07695 1.77775ZM1.53844 28.4444V3.55558C1.53844 3.38142 1.58387 3.22342 1.62454 3.06425C3.66339 5.22058 9.82666 11.7359 13.823 15.9353C9.83964 19.8892 3.67478 26.6433 1.61971 28.9078C1.58344 28.7566 1.53844 28.6088 1.53844 28.4444ZM33.8461 30.2222H3.07695C2.95406 30.2222 2.84481 30.1728 2.73007 30.1411C4.85365 27.8018 11.0577 21.0089 14.9711 17.1403C15.4812 17.6751 15.9472 18.1627 16.3146 18.5452C16.9486 19.2067 17.6908 19.5556 18.4615 19.5556C19.2323 19.5556 19.9744 19.2066 20.6077 18.546C20.9752 18.1633 21.4416 17.6753 21.952 17.1403C25.8656 21.0085 32.0688 27.8008 34.193 30.1411C34.0783 30.1728 33.9692 30.2222 33.8461 30.2222ZM35.3846 28.4444C35.3846 28.6087 35.3396 28.7566 35.3034 28.9078C33.2476 26.6421 27.0834 19.8888 23.1001 15.9354C27.0966 11.736 33.259 5.22125 35.2985 3.06408C35.3392 3.22325 35.3846 3.38133 35.3846 3.5555V28.4444Z" fill="#2CB2B3"/>
</svg>
