<svg width="18" height="19" viewBox="0 0 18 19" fill="none" xmlns="http://www.w3.org/2000/svg">
<path d="M14.2332 11.1669C13.8641 10.7826 13.419 10.5772 12.9472 10.5772C12.4793 10.5772 12.0303 10.7788 11.6461 11.163L10.4438 12.3615C10.3449 12.3082 10.246 12.2588 10.1509 12.2093C10.0139 12.1408 9.88458 12.0761 9.77425 12.0077C8.6481 11.2924 7.62468 10.3603 6.64311 9.15425C6.16754 8.55313 5.84796 8.04713 5.61588 7.53352C5.92785 7.24818 6.217 6.95142 6.49853 6.66608C6.60506 6.55955 6.71159 6.44922 6.81812 6.34269C7.61707 5.54374 7.61707 4.50891 6.81812 3.70995L5.77948 2.67131C5.66154 2.55337 5.53979 2.43163 5.42565 2.30988C5.19738 2.074 4.9577 1.83051 4.7104 1.60224C4.34136 1.237 3.90003 1.04297 3.43588 1.04297C2.97172 1.04297 2.52279 1.237 2.14233 1.60224C2.13853 1.60604 2.13853 1.60604 2.13472 1.60985L0.84118 2.9148C0.354198 3.40178 0.0764668 3.99529 0.0155941 4.68392C-0.0757149 5.79484 0.251476 6.82968 0.502576 7.50689C1.11891 9.16947 2.03961 10.7103 3.41305 12.3615C5.07944 14.3513 7.08443 15.9225 9.37477 17.0297C10.2498 17.4443 11.4178 17.9351 12.7228 18.0188C12.8027 18.0226 12.8864 18.0264 12.9625 18.0264C13.8413 18.0264 14.5794 17.7107 15.1577 17.0829C15.1615 17.0753 15.1691 17.0715 15.1729 17.0639C15.3707 16.8242 15.599 16.6073 15.8387 16.3753C16.0023 16.2193 16.1697 16.0557 16.3333 15.8845C16.7099 15.4926 16.9078 15.0361 16.9078 14.5681C16.9078 14.0964 16.7061 13.6436 16.3219 13.2632L14.2332 11.1669ZM15.5952 15.173C15.5914 15.173 15.5914 15.1768 15.5952 15.173C15.4468 15.3328 15.2946 15.4774 15.131 15.6372C14.8837 15.8731 14.6326 16.1204 14.3968 16.3981C14.0125 16.809 13.5598 17.003 12.9663 17.003C12.9092 17.003 12.8483 17.003 12.7912 16.9992C11.6613 16.9269 10.6112 16.4856 9.8237 16.109C7.67033 15.0665 5.77948 13.5865 4.2082 11.7109C2.91085 10.1472 2.04342 8.70151 1.46893 7.14926C1.11511 6.20193 0.985752 5.46385 1.04282 4.76762C1.08087 4.32248 1.25207 3.95344 1.56785 3.63767L2.8652 2.34032C3.05162 2.16531 3.24946 2.07019 3.44349 2.07019C3.68317 2.07019 3.8772 2.21477 3.99895 2.33651C4.00275 2.34032 4.00656 2.34412 4.01036 2.34793C4.24244 2.56479 4.4631 2.78925 4.69518 3.02894C4.81312 3.15069 4.93487 3.27243 5.05661 3.39798L6.09525 4.43662C6.49853 4.8399 6.49853 5.21275 6.09525 5.61603C5.98492 5.72636 5.87839 5.83669 5.76806 5.94322C5.44848 6.27041 5.14412 6.57477 4.81312 6.87153C4.80551 6.87914 4.7979 6.88294 4.7941 6.89055C4.46691 7.21774 4.52778 7.53732 4.59626 7.75418C4.60007 7.76559 4.60387 7.77701 4.60768 7.78842C4.8778 8.4428 5.25825 9.05914 5.83654 9.79342L5.84035 9.79722C6.8904 11.0908 7.99752 12.099 9.21878 12.8713C9.37477 12.9702 9.53456 13.0501 9.68674 13.1262C9.8237 13.1947 9.95306 13.2594 10.0634 13.3278C10.0786 13.3354 10.0938 13.3469 10.109 13.3545C10.2384 13.4191 10.3601 13.4496 10.4857 13.4496C10.8015 13.4496 10.9993 13.2517 11.064 13.1871L12.3651 11.8859C12.4945 11.7566 12.6999 11.6006 12.9396 11.6006C13.1755 11.6006 13.3695 11.7489 13.4875 11.8783C13.4913 11.8821 13.4913 11.8821 13.4951 11.8859L15.5914 13.9822C15.9833 14.3703 15.9833 14.7698 15.5952 15.173Z" fill="#2CB2B3"/>
<path d="M9.72859 4.28793C10.7254 4.45533 11.6309 4.92709 12.3537 5.64995C13.0766 6.37282 13.5445 7.2783 13.7157 8.27509C13.7576 8.52619 13.9745 8.7012 14.2217 8.7012C14.2522 8.7012 14.2788 8.69739 14.3093 8.69359C14.5908 8.64793 14.7772 8.38162 14.7316 8.10008C14.5261 6.89404 13.9554 5.79453 13.0842 4.92329C12.2129 4.05205 11.1134 3.48136 9.9074 3.27592C9.62586 3.23026 9.36335 3.41669 9.31389 3.69442C9.26443 3.97215 9.44705 4.24227 9.72859 4.28793Z" fill="#2CB2B3"/>
<path d="M17.9921 7.95171C17.6535 5.96574 16.7176 4.15859 15.2795 2.72047C13.8413 1.28235 12.0342 0.346435 10.0482 0.00783031C9.77047 -0.0416287 9.50796 0.148598 9.4585 0.42633C9.41285 0.707866 9.59927 0.970379 9.88081 1.01984C11.6537 1.3204 13.2707 2.1612 14.5566 3.44333C15.8425 4.72927 16.6795 6.3462 16.9801 8.11911C17.0219 8.37021 17.2388 8.54522 17.4861 8.54522C17.5165 8.54522 17.5432 8.54142 17.5736 8.53761C17.8513 8.49576 18.0416 8.22945 17.9921 7.95171Z" fill="#2CB2B3"/>
</svg>
