<svg width="18" height="13" viewBox="0 0 18 13" fill="none" xmlns="http://www.w3.org/2000/svg">
<path d="M15.8888 0H1.44439C0.647738 0 -6.10352e-05 0.647799 -6.10352e-05 1.44446V11.5556C-6.10352e-05 12.3522 0.647738 13 1.44439 13H15.8889C16.6855 13 17.3333 12.3522 17.3333 11.5555V1.44446C17.3333 0.647799 16.6855 0 15.8888 0ZM1.44439 0.722211H15.8889C15.9421 0.722211 15.989 0.74161 16.0389 0.752578C14.7884 1.89709 10.6418 5.69051 9.19067 6.99793C9.07712 7.1002 8.8941 7.22221 8.66664 7.22221C8.43917 7.22221 8.25616 7.1002 8.14224 6.99759C6.69128 5.69038 2.54445 1.89675 1.29412 0.752646C1.34415 0.741677 1.39114 0.722211 1.44439 0.722211ZM0.72215 11.5555V1.44446C0.72215 1.3737 0.743478 1.30951 0.762572 1.24485C1.7197 2.12086 4.61301 4.76772 6.48907 6.47373C4.6191 8.08001 1.72505 10.8238 0.760303 11.7438C0.743275 11.6824 0.72215 11.6223 0.72215 11.5555ZM15.8888 12.2778H1.44439C1.38671 12.2778 1.33542 12.2577 1.28156 12.2448C2.27846 11.2945 5.19093 8.53487 7.02803 6.96326C7.26751 7.1805 7.48628 7.37858 7.65873 7.53397C7.95638 7.80271 8.30477 7.94446 8.6666 7.94446C9.02844 7.94446 9.37683 7.80267 9.67411 7.53431C9.84663 7.37885 10.0656 7.1806 10.3052 6.96326C12.1424 8.5347 15.0544 11.2941 16.0517 12.2448C15.9978 12.2577 15.9466 12.2778 15.8888 12.2778ZM16.6111 11.5555C16.6111 11.6223 16.5899 11.6824 16.5729 11.7438C15.6078 10.8233 12.7141 8.07984 10.8442 6.47376C12.7203 4.76775 15.6132 2.12113 16.5706 1.24478C16.5897 1.30945 16.6111 1.37367 16.6111 1.44442V11.5555Z" fill="#2CB2B3"/>
</svg>
