<svg width="16" height="23" viewBox="0 0 16 23" fill="none" xmlns="http://www.w3.org/2000/svg">
<path d="M9.01294 2.64064C8.78612 2.639 8.60114 2.82152 8.5995 3.04792C8.59786 3.27433 8.77997 3.45931 9.00678 3.46095C9.23319 3.46259 9.41817 3.28048 9.41981 3.05407C9.42145 2.82767 9.23934 2.64269 9.01294 2.64064Z" fill="#2CB2B3"/>
<path d="M8.9943 5.10164C7.41064 5.0904 6.11368 6.368 6.10171 7.95116C6.08977 9.53424 7.36807 10.8318 8.95123 10.8438C8.95857 10.8438 8.96587 10.8438 8.97321 10.8438C10.5463 10.8438 11.8319 9.57005 11.8438 7.99423C11.8558 6.41123 10.5775 5.11357 8.9943 5.10164ZM8.97313 10.0236C8.96797 10.0236 8.96255 10.0235 8.95738 10.0235C7.82654 10.0149 6.91345 9.08808 6.92198 7.95731C6.93047 6.83164 7.84873 5.92183 8.97239 5.92183C8.97756 5.92183 8.98298 5.92187 8.98814 5.92191C10.119 5.93044 11.0321 6.85731 11.0235 7.98808C11.015 9.11375 10.0968 10.0236 8.97313 10.0236Z" fill="#2CB2B3"/>
<path d="M10.7623 2.9524C10.549 2.87669 10.3144 2.98846 10.2387 3.20198C10.163 3.41551 10.2748 3.64992 10.4882 3.72563C12.2949 4.36593 13.4989 6.08658 13.4844 8.00722C13.4828 8.23371 13.665 8.41873 13.8915 8.42045C13.8926 8.42045 13.8936 8.42045 13.8947 8.42045C14.1197 8.42045 14.303 8.23883 14.3048 8.01337C14.3218 5.74328 12.8982 3.70943 10.7623 2.9524Z" fill="#2CB2B3"/>
<path d="M10.3931 16.9105C13.381 13.0645 15.2483 11.059 15.2735 7.69414C15.3051 3.46056 11.8694 0 7.63612 0C3.45227 0 0.0320008 3.38837 0.000196096 7.57959C-0.0254993 11.0357 1.87645 13.0385 4.88496 16.9099C1.89204 17.3571 0.000196096 18.4809 0.000196096 19.8555C0.000196096 20.7763 0.851288 21.6025 2.39674 22.182C3.80338 22.7095 5.66436 23 7.63684 23C9.60932 23 11.4703 22.7095 12.8769 22.182C14.4224 21.6025 15.2735 20.7762 15.2735 19.8555C15.2735 18.4817 13.3834 17.3581 10.3931 16.9105ZM0.89859 7.58638C0.926622 3.888 3.94425 0.898439 7.63621 0.898439C11.3719 0.898439 14.4029 3.95259 14.3751 7.68745C14.3512 10.8829 12.3709 12.8522 9.20947 16.9734C8.64556 17.7082 8.1277 18.4029 7.63751 19.0824C7.14876 18.4025 6.64123 17.7202 6.06888 16.9732C2.77673 12.6794 0.874243 10.8589 0.89859 7.58638ZM7.63684 22.1016C3.78024 22.1016 0.89859 20.9158 0.89859 19.8555C0.89859 19.0692 2.62126 18.0759 5.51774 17.7319C6.15801 18.572 6.71935 19.3352 7.26992 20.1147C7.35401 20.2338 7.49066 20.3046 7.63643 20.3047C7.63657 20.3047 7.6367 20.3047 7.63684 20.3047C7.78248 20.3047 7.91908 20.2341 8.00331 20.1153C8.54866 19.346 9.12537 18.5639 9.76017 17.7324C12.6539 18.0767 14.3751 19.0697 14.3751 19.8556C14.375 20.9158 11.4934 22.1016 7.63684 22.1016Z" fill="#2CB2B3"/>
</svg>
