<svg width="19" height="15" viewBox="0 0 19 15" fill="none" xmlns="http://www.w3.org/2000/svg">
<path d="M17.3311 0.263672H1.6709C0.751254 0.263672 0.000976562 1.01313 0.000976562 1.93359V13.0664C0.000976562 13.9838 0.747914 14.7363 1.6709 14.7363H17.3311C18.2484 14.7363 19.001 13.9894 19.001 13.0664V1.93359C19.001 1.01625 18.254 0.263672 17.3311 0.263672ZM17.1005 1.37695L9.53638 8.94107L1.90688 1.37695H17.1005ZM1.11426 12.8359V2.15881L6.47578 7.47436L1.11426 12.8359ZM1.90146 13.623L7.26636 8.25814L9.14621 10.1219C9.36382 10.3376 9.71499 10.3369 9.9317 10.1201L11.7646 8.2872L17.1005 13.623H1.90146ZM17.8877 12.8358L12.5519 7.5L17.8877 2.16412V12.8358Z" fill="white"/>
</svg>
