<svg width="29" height="43" viewBox="0 0 29 43" fill="none" xmlns="http://www.w3.org/2000/svg">
<path d="M16.8491 4.93683C16.4251 4.93376 16.0793 5.27499 16.0762 5.69827C16.0731 6.12156 16.4136 6.46739 16.8376 6.47046C17.2609 6.47352 17.6068 6.13306 17.6098 5.70978C17.6129 5.28649 17.2724 4.94066 16.8491 4.93683Z" fill="#2CB2B3"/>
<path d="M16.8162 9.53781C13.8555 9.5168 11.4307 11.9054 11.4084 14.8652C11.386 17.8249 13.7759 20.2508 16.7357 20.2731C16.7495 20.2731 16.7631 20.2732 16.7768 20.2732C19.7178 20.2732 22.1214 17.8918 22.1436 14.9457C22.1659 11.9862 19.7762 9.56012 16.8162 9.53781ZM16.7767 18.7397C16.767 18.7397 16.7569 18.7396 16.7472 18.7395C14.633 18.7236 12.926 16.9907 12.9419 14.8767C12.9578 12.7722 14.6745 11.0712 16.7753 11.0712C16.785 11.0712 16.7951 11.0713 16.8047 11.0714C18.9189 11.0873 20.626 12.8202 20.6101 14.9342C20.5941 17.0387 18.8774 18.7397 16.7767 18.7397Z" fill="#2CB2B3"/>
<path d="M20.119 5.51974C19.7201 5.37818 19.2815 5.58714 19.14 5.98635C18.9985 6.38555 19.2074 6.82378 19.6066 6.96534C22.9842 8.16241 25.2351 11.3793 25.2082 14.97C25.205 15.3935 25.5457 15.7394 25.9692 15.7426C25.9711 15.7426 25.9731 15.7426 25.9751 15.7426C26.3958 15.7426 26.7386 15.4031 26.7418 14.9815C26.7737 10.7375 24.1121 6.93505 20.119 5.51974Z" fill="#2CB2B3"/>
<path d="M19.4307 31.6153C25.0168 24.425 28.5078 20.6755 28.5549 14.3847C28.614 6.46975 22.1907 0 14.2763 0C6.45436 0 0.0599418 6.33479 0.000480724 14.1705C-0.0475584 20.6319 3.50826 24.3763 9.13287 31.6141C3.53741 32.4503 0.000480724 34.5513 0.000480724 37.1212C0.000480724 38.8426 1.59165 40.3873 4.48097 41.4707C7.11078 42.4569 10.59 43 14.2777 43C17.9654 43 21.4446 42.4569 24.0744 41.4707C26.9637 40.3872 28.5549 38.8425 28.5549 37.1211C28.5549 34.5527 25.0212 32.4521 19.4307 31.6153ZM1.68009 14.1832C1.73249 7.26886 7.37415 1.67969 14.2765 1.67969C21.2606 1.67969 26.9273 7.38963 26.8753 14.3722C26.8306 20.3463 23.1284 24.028 17.2178 31.733C16.1636 33.1066 15.1954 34.4054 14.2789 35.6758C13.3652 34.4046 12.4163 33.1291 11.3463 31.7325C5.1914 23.7049 1.63457 20.3015 1.68009 14.1832ZM14.2777 41.3204C7.06753 41.3204 1.68009 39.1035 1.68009 37.1212C1.68009 35.6511 4.90073 33.794 10.3159 33.151C11.5129 34.7216 12.5624 36.1485 13.5917 37.6058C13.7489 37.8283 14.0044 37.9608 14.2769 37.961C14.2772 37.961 14.2774 37.961 14.2777 37.961C14.55 37.961 14.8054 37.829 14.9628 37.6068C15.9824 36.1685 17.0606 34.7064 18.2474 33.1519C23.6575 33.7956 26.8753 35.6521 26.8753 37.1213C26.8752 39.1035 21.4878 41.3204 14.2777 41.3204Z" fill="#2CB2B3"/>
</svg>
