<svg width="29" height="29" viewBox="0 0 29 29" fill="none" xmlns="http://www.w3.org/2000/svg">
<g clip-path="url(#clip0_15_1335)">
<path d="M22.9189 17.9642C22.3252 17.346 21.6091 17.0155 20.8501 17.0155C20.0973 17.0155 19.375 17.3399 18.7569 17.9581L16.8227 19.8861C16.6636 19.8004 16.5045 19.7209 16.3514 19.6413C16.1311 19.5311 15.923 19.4271 15.7455 19.3169C13.9338 18.1662 12.2873 16.6667 10.7082 14.7264C9.94312 13.7593 9.42898 12.9453 9.05562 12.119C9.55752 11.66 10.0227 11.1826 10.4756 10.7235C10.647 10.5521 10.8184 10.3746 10.9898 10.2032C12.2751 8.91791 12.2751 7.2531 10.9898 5.96776L9.31881 4.29682C9.12907 4.10708 8.93321 3.91122 8.74959 3.71536C8.38235 3.33588 7.99675 2.94416 7.59891 2.57692C7.00521 1.98934 6.29521 1.67719 5.54849 1.67719C4.80177 1.67719 4.07954 1.98934 3.46747 2.57692C3.46135 2.58304 3.46135 2.58304 3.45523 2.58916L1.37421 4.68854C0.590767 5.47199 0.143959 6.42681 0.0460291 7.53465C-0.100867 9.32188 0.425509 10.9867 0.829472 12.0762C1.82102 14.7509 3.30221 17.2298 5.51177 19.8861C8.19261 23.0872 11.4182 25.615 15.1028 27.3961C16.5106 28.0633 18.3896 28.8529 20.489 28.9875C20.6175 28.9936 20.7522 28.9998 20.8746 28.9998C22.2885 28.9998 23.4759 28.4917 24.4062 27.4818C24.4123 27.4696 24.4246 27.4635 24.4307 27.4512C24.749 27.0656 25.1162 26.7168 25.5018 26.3434C25.765 26.0925 26.0343 25.8293 26.2975 25.5538C26.9034 24.9234 27.2217 24.1889 27.2217 23.4361C27.2217 22.6771 26.8973 21.9488 26.2791 21.3367L22.9189 17.9642ZM25.1101 24.4093C25.104 24.4093 25.104 24.4154 25.1101 24.4093C24.8714 24.6663 24.6266 24.8989 24.3634 25.156C23.9655 25.5355 23.5616 25.9333 23.1821 26.3801C22.5639 27.0412 21.8355 27.3533 20.8807 27.3533C20.7889 27.3533 20.691 27.3533 20.5992 27.3472C18.7813 27.2309 17.092 26.5209 15.8251 25.915C12.3608 24.2379 9.31881 21.857 6.79099 18.8395C4.70384 16.3239 3.30834 13.9981 2.38412 11.5008C1.8149 9.97678 1.60679 8.78938 1.6986 7.6693C1.75981 6.95318 2.03524 6.35948 2.54325 5.85147L4.6304 3.76433C4.93031 3.48278 5.24858 3.32976 5.56073 3.32976C5.94634 3.32976 6.25849 3.56234 6.45435 3.75821C6.46047 3.76433 6.46659 3.77045 6.47271 3.77657C6.84607 4.12544 7.20107 4.48656 7.57443 4.87216C7.76417 5.06802 7.96003 5.26389 8.15589 5.46587L9.82683 7.1368C10.4756 7.78559 10.4756 8.38542 9.82683 9.0342C9.64933 9.2117 9.47795 9.3892 9.30045 9.56058C8.78632 10.087 8.29667 10.5766 7.76417 11.054C7.75193 11.0663 7.73969 11.0724 7.73357 11.0846C7.20719 11.611 7.30512 12.1251 7.41529 12.474C7.42141 12.4924 7.42753 12.5107 7.43365 12.5291C7.86822 13.5818 8.48028 14.5734 9.41062 15.7547L9.41674 15.7608C11.106 17.8418 12.8872 19.4638 14.8519 20.7063C15.1028 20.8654 15.3599 20.994 15.6047 21.1164C15.8251 21.2265 16.0332 21.3306 16.2107 21.4408C16.2351 21.453 16.2596 21.4714 16.2841 21.4836C16.4922 21.5877 16.6881 21.6366 16.8901 21.6366C17.3981 21.6366 17.7163 21.3183 17.8204 21.2143L19.9137 19.121C20.1218 18.9129 20.4523 18.662 20.8379 18.662C21.2174 18.662 21.5295 18.9007 21.7192 19.1088C21.7254 19.1149 21.7254 19.1149 21.7315 19.121L25.104 22.4935C25.7344 23.1178 25.7344 23.7605 25.1101 24.4093Z" fill="#F76031"/>
<path d="M15.6721 6.89807C17.2757 7.16737 18.7324 7.92633 19.8953 9.08926C21.0582 10.2522 21.8111 11.7089 22.0865 13.3125C22.1538 13.7165 22.5027 13.998 22.9005 13.998C22.9495 13.998 22.9923 13.9919 23.0413 13.9858C23.4942 13.9123 23.7942 13.4839 23.7207 13.031C23.3902 11.0907 22.4721 9.32184 21.0705 7.92021C19.6688 6.51859 17.9 5.60049 15.9597 5.26997C15.5068 5.19653 15.0845 5.49644 15.0049 5.94324C14.9253 6.39005 15.2191 6.82462 15.6721 6.89807Z" fill="#F76031"/>
<path d="M28.9661 12.7923C28.4214 9.59729 26.9157 6.68998 24.6021 4.37638C22.2885 2.06277 19.3812 0.557091 16.1862 0.0123531C15.7394 -0.0672154 15.317 0.238817 15.2375 0.685625C15.164 1.13855 15.4639 1.56088 15.9169 1.64045C18.7691 2.12398 21.3704 3.47664 23.4391 5.5393C25.5079 7.60808 26.8545 10.2094 27.338 13.0616C27.4053 13.4655 27.7542 13.7471 28.1521 13.7471C28.201 13.7471 28.2439 13.741 28.2928 13.7348C28.7396 13.6675 29.0457 13.2391 28.9661 12.7923Z" fill="#F76031"/>
</g>
<defs>
<clipPath id="clip0_15_1335">
<rect width="29" height="29" fill="white" transform="translate(-0.000244141 -0.000244141)"/>
</clipPath>
</defs>
</svg>
