<svg width="19" height="19" viewBox="0 0 19 19" fill="none" xmlns="http://www.w3.org/2000/svg">
<path d="M15.017 11.7698C14.628 11.3648 14.1588 11.1483 13.6616 11.1483C13.1683 11.1483 12.6951 11.3608 12.2901 11.7658L11.0229 13.029C10.9187 12.9728 10.8144 12.9207 10.7142 12.8686C10.5698 12.7964 10.4335 12.7282 10.3172 12.656C9.13018 11.9022 8.05146 10.9197 7.01686 9.64849C6.5156 9.0149 6.17876 8.48156 5.93414 7.9402C6.26297 7.63944 6.56773 7.32665 6.86448 7.0259C6.97676 6.91361 7.08904 6.79732 7.20133 6.68504C8.04344 5.84292 8.04344 4.75218 7.20133 3.91007L6.10657 2.81531C5.98226 2.691 5.85394 2.56268 5.73364 2.43436C5.49303 2.18573 5.2404 1.92909 4.97974 1.68848C4.59076 1.30351 4.12559 1.099 3.63636 1.099C3.14713 1.099 2.67395 1.30351 2.27294 1.68848C2.26893 1.69249 2.26893 1.69249 2.26492 1.6965L0.901489 3.07196C0.388199 3.58525 0.0954632 4.21082 0.0313019 4.93665C-0.06494 6.10759 0.279927 7.19833 0.544592 7.91213C1.19423 9.66453 2.16466 11.2886 3.6123 13.029C5.36872 15.1263 7.48203 16.7824 9.8961 17.9494C10.8184 18.3865 12.0495 18.9038 13.425 18.992C13.5092 18.996 13.5974 19 13.6776 19C14.6039 19 15.3819 18.6672 15.9914 18.0055C15.9954 17.9975 16.0035 17.9935 16.0075 17.9854C16.216 17.7328 16.4566 17.5042 16.7092 17.2596C16.8817 17.0952 17.0581 16.9228 17.2305 16.7423C17.6275 16.3293 17.8361 15.8481 17.8361 15.3548C17.8361 14.8576 17.6235 14.3804 17.2185 13.9794L15.017 11.7698ZM16.4526 15.9924C16.4486 15.9924 16.4486 15.9964 16.4526 15.9924C16.2962 16.1609 16.1358 16.3132 15.9634 16.4817C15.7027 16.7303 15.438 16.9909 15.1894 17.2837C14.7844 17.7168 14.3072 17.9213 13.6816 17.9213C13.6215 17.9213 13.5573 17.9213 13.4972 17.9173C12.3062 17.8411 11.1994 17.3759 10.3693 16.9789C8.09958 15.8802 6.10657 14.3202 4.45041 12.3433C3.08297 10.6951 2.16868 9.17129 1.56315 7.53518C1.19022 6.53667 1.05387 5.75871 1.11402 5.02487C1.15412 4.55569 1.33458 4.16671 1.66742 3.83387L3.03485 2.46644C3.23135 2.28197 3.43987 2.18172 3.64439 2.18172C3.89702 2.18172 4.10153 2.3341 4.22986 2.46243C4.23387 2.46644 4.23788 2.47045 4.24189 2.47446C4.4865 2.70303 4.71909 2.93963 4.9637 3.19226C5.08801 3.32058 5.21634 3.44891 5.34466 3.58124L6.43941 4.67599C6.86448 5.10106 6.86448 5.49405 6.43941 5.91912C6.32312 6.03541 6.21084 6.1517 6.09454 6.26398C5.7577 6.60885 5.43689 6.92966 5.08801 7.24244C5.07999 7.25046 5.07197 7.25447 5.06796 7.26249C4.7231 7.60736 4.78726 7.94421 4.85944 8.17278C4.86345 8.18481 4.86746 8.19684 4.87147 8.20887C5.15619 8.8986 5.55719 9.54824 6.16673 10.3222L6.17074 10.3262C7.27752 11.6896 8.44445 12.7523 9.73169 13.5663C9.8961 13.6706 10.0645 13.7548 10.2249 13.835C10.3693 13.9072 10.5056 13.9754 10.6219 14.0475C10.638 14.0556 10.654 14.0676 10.67 14.0756C10.8064 14.1438 10.9347 14.1759 11.067 14.1759C11.3999 14.1759 11.6084 13.9673 11.6766 13.8992L13.048 12.5277C13.1844 12.3914 13.4009 12.227 13.6535 12.227C13.9022 12.227 14.1067 12.3834 14.231 12.5197C14.235 12.5237 14.235 12.5237 14.239 12.5277L16.4486 14.7373C16.8616 15.1463 16.8616 15.5674 16.4526 15.9924Z" fill="white"/>
<path d="M10.269 4.51961C11.3197 4.69605 12.2741 5.1933 13.036 5.95522C13.7979 6.71713 14.2911 7.67153 14.4716 8.72217C14.5157 8.98684 14.7443 9.1713 15.0049 9.1713C15.037 9.1713 15.0651 9.16729 15.0972 9.16328C15.3939 9.11516 15.5904 8.83445 15.5423 8.53771C15.3257 7.26651 14.7242 6.1076 13.8059 5.18929C12.8876 4.27098 11.7287 3.66947 10.4575 3.45293C10.1608 3.40481 9.88407 3.6013 9.83194 3.89404C9.7798 4.18677 9.97229 4.47149 10.269 4.51961Z" fill="white"/>
<path d="M18.9789 8.3813C18.622 6.28804 17.6356 4.38325 16.1197 2.86744C14.6039 1.35163 12.6991 0.365151 10.6059 0.00825334C10.3132 -0.0438777 10.0365 0.156626 9.98432 0.449362C9.9362 0.746108 10.1327 1.0228 10.4294 1.07493C12.2981 1.39173 14.0024 2.27796 15.3578 3.62936C16.7132 4.98476 17.5955 6.68905 17.9123 8.55775C17.9564 8.82241 18.1849 9.00688 18.4456 9.00688C18.4777 9.00688 18.5057 9.00286 18.5378 8.99885C18.8306 8.95474 19.0311 8.67404 18.9789 8.3813Z" fill="white"/>
</svg>
