<svg width="41" height="41" viewBox="0 0 41 41" fill="none" xmlns="http://www.w3.org/2000/svg">
<path d="M34.6946 30.2511C37.9182 26.7524 37.5937 22.2595 37.5834 22.2083V8.54159C37.5834 8.08851 37.4034 7.65399 37.0831 7.33361C36.7627 7.01324 36.3282 6.83325 35.8751 6.83325H25.6251C23.7408 6.83325 22.2084 8.36563 22.2084 10.2499V22.2083C22.2084 22.6613 22.3884 23.0959 22.7088 23.4162C23.0291 23.7366 23.4637 23.9166 23.9167 23.9166H29.175C29.1389 24.7612 28.8866 25.5823 28.4421 26.3014C27.5743 27.6698 25.9394 28.6043 23.5802 29.0758L22.2084 29.3491V34.1666H23.9167C28.671 34.1666 32.2978 32.8495 34.6946 30.2511ZM15.891 30.2511C19.1163 26.7524 18.79 22.2595 18.7798 22.2083V8.54159C18.7798 8.08851 18.5998 7.65399 18.2794 7.33361C17.9591 7.01324 17.5245 6.83325 17.0715 6.83325H6.82145C4.93716 6.83325 3.40479 8.36563 3.40479 10.2499V22.2083C3.40479 22.6613 3.58477 23.0959 3.90514 23.4162C4.22552 23.7366 4.66004 23.9166 5.11312 23.9166H10.3714C10.3353 24.7612 10.0829 25.5823 9.63849 26.3014C8.77066 27.6698 7.13579 28.6043 4.77658 29.0758L3.40479 29.3491V34.1666H5.11312C9.86741 34.1666 13.4942 32.8495 15.891 30.2511Z" fill="white"/>
</svg>
