<svg width="39" height="38" viewBox="0 0 39 38" fill="none" xmlns="http://www.w3.org/2000/svg">
<g clip-path="url(#clip0_4_761)">
<path d="M12.4556 19.8121L8.01058 24.257V26.3552H18.0351V24.0084H11.4065L14.8024 20.6125C15.8515 19.5634 16.582 18.6697 16.986 17.947C17.3901 17.302 17.5533 16.5716 17.5533 15.7634C17.5533 14.3879 17.0715 13.3388 16.1779 12.6084C15.292 11.8002 14.1574 11.4738 12.9451 11.4738C11.7329 11.4738 10.7615 11.7147 9.95332 12.2043C9.14514 12.6861 8.50015 13.4166 7.85516 14.3879L9.87561 15.5225C10.6838 14.3102 11.6552 13.6652 12.8674 13.6652C13.5124 13.6652 14.0797 13.9061 14.5615 14.3102C15.0433 14.7143 15.2065 15.1961 15.2065 15.7634C15.2065 16.3307 14.9656 16.8979 14.5615 17.4575C14.1574 18.0325 13.4269 18.8407 12.4556 19.8121Z" fill="#F76031"/>
<path d="M28.4637 26.5262V22.8039H30.2433V20.5426H28.4637V17.8694H26.1169V20.5426H22.6433L27.8964 11.8935H25.231L19.8146 20.6203V22.8039H26.1169V26.5262H28.4637Z" fill="#F76031"/>
<path d="M19.0842 1.62027C23.4126 1.62027 27.5856 3.21331 30.8106 6.15851L26.6842 5.82436L26.6065 7.44072L33.476 8.008L33.0719 0.897567L31.4555 0.975276L31.6343 4.8219C28.1218 1.68243 23.7157 0.00390625 19.0065 0.00390625C8.50013 0.00390625 0.00646973 8.49757 0.00646973 19.0039H1.62283C1.62283 9.38346 9.38602 1.62027 19.0842 1.62027Z" fill="#F76031"/>
<path d="M36.3901 18.9962V19.0039C36.3901 28.6244 28.6269 36.3876 19.0065 36.3876C14.6547 36.3876 10.4895 34.7479 7.28785 31.8571L11.3287 32.1835L11.4065 30.5671L4.53693 29.9998L4.94102 37.1103L6.55738 37.0326L6.37864 33.2015C9.86781 36.2943 14.375 37.9962 19.0065 37.9962C29.5128 37.9962 38.0065 29.5103 38.0065 18.9962H36.3901Z" fill="#F76031"/>
</g>
<defs>
<clipPath id="clip0_4_761">
<rect width="38" height="38" fill="white" transform="translate(0.00646973)"/>
</clipPath>
</defs>
</svg>
